<svg width="1280" height="53" viewBox="0 0 1280 53" fill="none" xmlns="http://www.w3.org/2000/svg">
<g filter="url(#filter0_d_27_13)">
<path d="M1279.42 20.4053C1277.41 22.1621 1275.41 19.214 1273.41 20.8596C1271.41 22.1436 1269.4 21.8423 1267.4 21.3278C1265.39 22.0416 1263.39 23.8494 1261.39 21.5039C1259.39 19.8584 1257.39 21.935 1255.38 21.7264C1253.38 25.8797 1251.38 20.2431 1249.38 21.5456C1247.38 21.6012 1245.37 21.1516 1243.36 21.4436C1239.96 24.0255 1236.65 22.5144 1233.33 22.7972C1230 22.5747 1226.83 24.0441 1223.48 25.5366C1220.14 27.0153 1216.55 23.9235 1213.18 25.7035C1209.83 25.291 1206.59 26.422 1203.2 28.3642C1200.65 27.3491 1197.99 26.0095 1195.42 26.5332C1193.28 28.1278 1191.2 27.1173 1189.11 25.189C1187.02 24.35 1184.92 23.8494 1182.76 23.5481C1180.61 21.5271 1178.39 25.3559 1176.16 23.5435C1173.93 21.3973 1171.71 25.2214 1169.57 23.6269C1167.39 23.6315 1165.22 23.905 1163.07 23.3024C1160.91 25.5366 1158.76 22.6442 1156.61 23.4554C1154.56 22.7508 1152.52 22.1899 1150.49 23.6454C1148.46 24.0997 1146.44 23.7474 1144.44 23.6779C1142.44 21.6569 1140.44 23.956 1138.45 23.3859C1136.46 23.1494 1134.47 24.503 1132.49 22.9733C1130.5 21.3648 1128.54 23.2375 1126.58 21.9767C1124.62 20.5166 1122.66 20.2106 1120.69 20.9013C1117.74 22.8945 1114.77 17.4294 1111.85 20.1782C1108.33 16.1733 1104.5 22.7462 1100.91 21.5085C1097.37 21.0265 1094.3 15.1767 1090.79 16.7017C1087.17 17.7493 1083.26 13.8927 1079.77 15.0608C1076.21 15.6124 1072.93 17.054 1069.63 20.0299C1066.16 20.8503 1062.33 19.7147 1058.88 24.7765C1055.4 26.8948 1052.29 32.5685 1048.79 30.7282C1047.02 35.4516 1045.47 34.6126 1043.9 34.1723C1042.33 37.6349 1040.76 37.7971 1038.97 37.4819C1037.17 37.7508 1035.14 39.0857 1033.1 38.7334C1031.06 37.315 1029.01 40.9677 1027.16 39.7903C1023.47 40.9723 1019.42 38.3255 1015.6 41.9875C1012.91 42.2934 1010.49 44.2773 1007.77 44.6389C1004.3 45.5381 1000.8 42.108 997.301 44.2773C993.809 45.501 990.107 49.594 986.62 46.3354C983.186 47.6287 980.165 41.7047 976.768 42.0616C973.476 40.1519 970.717 39.0904 967.496 37.4448C964.166 39.0394 960.465 36.2721 956.911 35.6324C954.409 34.5524 951.711 34.4365 949.204 35.4099C945.437 32.9949 941.636 36.5641 937.854 34.8444C934.081 35.192 930.223 36.5224 926.436 35.3497C923.425 37.125 920.461 31.9844 917.459 34.404C915.199 35.2987 912.968 32.2625 910.747 33.3286C908.52 31.9241 906.298 32.4618 904.048 32.0447C901.812 29.1198 899.633 32.0586 897.459 30.2322C895.285 30.311 893.111 30.9461 890.89 28.202C887.403 28.6191 883.497 29.1847 879.957 30.7514C876.351 28.2576 872.75 31.8314 869.135 31.1918C865.529 32.2811 861.846 32.6751 858.231 31.5626C854.625 35.2801 850.981 30.6726 847.37 31.1918C843.764 33.5558 840.167 30.3898 836.557 30.705C832.946 31.4189 829.406 30.4269 825.796 29.282C822.185 27.9656 818.527 24.9062 814.916 26.2968C811.31 27.8497 807.732 29.1429 804.131 28.6887C800.549 29.2078 797.295 30.0746 793.722 32.0122C790.839 31.3586 787.19 31.0156 784.298 29.9356C782.114 30.3296 779.95 30.6031 777.785 31.5487C775.616 34.5941 773.447 32.9346 771.244 33.1896C769.07 35.3636 767.091 35.6649 765.102 36.4899C763.114 40.8008 761.116 40.0916 758.899 39.7486C756.558 38.2977 754.142 40.4392 751.744 40.0916C749.346 39.1367 746.972 40.8611 744.717 39.8506C742.391 38.1169 740.069 39.9664 737.757 39.3314C735.445 38.803 733.143 38.6222 730.845 38.7474C727.472 34.9047 724.223 34.9186 720.907 37.672C717.61 35.9105 714.333 36.1562 711.064 36.9118C707.815 34.2001 704.133 34.8212 700.927 36.5734C697.758 35.8595 694.342 35.6649 691.226 34.1491C688.662 32.638 686.988 31.5997 684.447 29.4257C682.326 29.3469 680.204 29.8104 678.082 27.7338C675.96 24.6884 673.843 28.2344 671.722 26.0975C669.6 26.9921 667.392 22.4449 665.176 25.2493C662.959 23.9375 660.732 23.4925 658.568 24.6003C656.432 23.9745 654.258 24.948 652.064 24.3129C649.871 22.1482 647.654 22.3614 645.438 24.3593C642.236 25.4671 639.139 21.5781 635.928 22.4866C633.744 20.6649 631.551 22.519 629.353 20.9013C627.155 19.1584 624.958 19.5524 622.76 19.5988C620.581 21.0775 618.383 17.7864 616.18 20.0299C613.982 21.4529 611.78 22.9223 609.591 20.5583C606.67 20.7066 604.068 24.3778 601.2 25.1983C599.045 26.2088 596.847 24.4937 594.639 24.948C592.432 25.583 590.22 23.0892 588.036 24.5447C585.862 23.9606 583.698 24.8413 581.533 23.0846C579.368 24.0348 577.204 21.731 575.035 21.4715C572.851 22.2409 570.696 19.1306 568.55 21.249C566.405 17.8142 564.269 22.5886 562.123 20.8735C558.527 23.1031 554.769 21.6986 551.215 23.4507C547.685 24.1275 543.836 22.037 540.325 24.0348C536.838 24.4891 533.304 25.0314 529.802 26.079C526.291 28.9251 523.142 31.2891 519.588 29.1522C517.21 27.5391 515.026 33.9498 512.571 30.9275C509.708 32.1652 507.362 31.9056 504.57 27.414C500.826 24.1229 497.186 28.5867 493.461 24.7765C491.611 25.1797 489.589 22.4402 487.562 24.9804C485.536 28.3364 483.5 26.0512 481.616 25.3466C479.746 27.7801 477.962 25.0963 476.164 22.5144C474.361 23.6408 472.544 18.9128 470.603 20.1458C467.401 23.7938 464.337 25.7962 461.316 23.5156C458.324 22.3846 455.251 23.9884 452.325 23.5481C449.219 23.168 446.231 24.8413 443.167 26.0002C440.037 23.2468 436.816 22.7601 433.734 25.6664C430.256 24.7904 426.584 25.8936 423.111 24.452C419.628 20.9987 416.731 20.4331 413.373 19.6312C409.767 22.9687 405.918 22.7137 402.588 19.9279C398.706 23.6454 394.924 17.8837 391.028 21.9628C389.115 21.4854 387.108 20.0762 385.1 22.2177C383.092 25.4949 381.075 25.583 379.144 22.5329C375.31 19.9789 371.399 19.3346 367.498 23.3998C363.626 25.0963 360.062 26.6445 356.104 24.3176C352.812 24.0394 349.654 26.7094 346.442 24.6049C343.212 23.5574 340.272 23.5017 337.061 22.5051C333.821 22.6627 330.206 23.5481 326.957 22.0277C323.788 21.7218 319.811 22.7508 316.638 20.9245C313.308 18.9128 310.32 16.5163 306.367 16.1408C303.869 16.7341 301.32 16.1594 298.96 15.1906C295.078 14.6714 291.305 18.4631 287.666 17.587C283.932 22.8018 280.33 20.0855 276.658 20.3682C273.028 24.401 269.046 15.8998 265.283 21.1933C262.576 21.0311 259.983 22.5747 257.124 23.0706C253.252 20.3219 249.451 25.2817 245.493 24.4056C243.523 23.4322 241.587 26.6445 239.651 25.8658C237.715 25.1334 235.778 26.7279 233.809 27.2842C229.832 26.7696 225.812 26.6723 221.935 27.4649C217.986 24.6235 214.485 30.3713 210.736 31.1269C207.082 35.4285 203.177 33.6948 199.385 34.506C197.544 35.3867 195.755 36.133 193.952 36.8561C192.149 36.2026 190.337 38.9559 188.458 39.1738C186.583 38.4182 184.509 40.6154 182.43 39.8459C180.351 41.9689 178.268 40.6061 176.374 40.3604C174.448 40.4485 172.697 43.5913 170.946 43.4012C169.195 41.8577 167.445 45.4408 165.523 46.1407C163.539 49.1722 161.47 50.8178 159.41 45.7467C157.35 43.9667 155.299 47.3644 153.349 44.8845C149.353 43.9204 145.4 44.4025 141.532 44.5323C137.721 42.1126 134.125 42.8589 130.49 40.3975C127.141 42.9192 124.068 34.0842 120.914 33.7041C118.588 32.0261 114.601 30.121 112.413 30.6911C110.238 28.2112 108.645 26.2644 106.609 24.7996C103.921 21.8562 101.409 18.4399 98.7401 20.1504C96.0713 18.6115 94.1446 12.9285 91.5424 15.7283C89.354 11.0698 87.2037 13.6841 85.101 15.3945C82.9983 16.507 80.9384 11.8949 78.9213 15.7978C76.7425 17.9996 74.6968 15.4641 72.6797 16.1037C70.6627 14.9032 68.6789 18.4121 66.6142 16.9566C64.5115 16.8547 62.2898 16.5348 60.0729 16.507C57.856 14.8522 55.6487 16.0388 53.5745 16.2706C51.1768 14.4721 48.9647 16.2845 46.5337 18.6903C43.0466 19.1584 39.4263 19.4736 35.8821 20.7113C32.2999 24.4891 28.8842 26.473 25.2544 23.5991C21.6484 21.2629 17.9424 23.9792 14.2888 24.109C10.6781 19.6915 7.09583 23.2468 3.44224 21.6105C0.02175 18.8432 -3.52243 18.5373 -7 22.8064V8.10315C-6.80019 8.1356 -6.60515 8.20977 -6.40534 8.33492C-4.29311 7.91774 -2.15233 11.2505 -0.0115514 9.73943C2.12923 8.41836 4.26525 12.8127 6.36797 12.3352C8.4136 17.7122 10.445 15.4919 12.4811 13.9066C14.5172 11.9041 16.5628 16.405 18.6275 15.5707C20.7017 15.223 22.8472 18.834 25.007 15.6448C27.1668 14.8939 29.3409 12.1869 31.4721 14.7827C33.5463 14.435 35.6538 17.0957 37.7375 15.2879C39.8164 14.7734 41.8668 19.0055 43.8221 15.4363C45.8344 14.2542 47.8182 19.6544 49.7924 14.1013C51.7667 14.194 53.7267 12.669 55.6915 12.6875C57.6705 10.4023 59.5734 13.9298 61.4811 10.6526C63.3888 9.01632 65.3107 9.9851 67.323 8.84944C69.2925 11.2645 71.3096 7.15291 73.3553 8.56205C75.4009 8.49716 77.4703 3.78302 79.554 8.78918C81.4807 11.1486 83.5026 9.33615 85.5672 8.86335C87.6271 9.35006 89.7298 4.77498 91.8183 9.61891C95.0342 7.4403 96.9609 13.698 100.272 16.5951C103.25 21.5549 106.266 21.3695 109.249 21.9674C112.17 28.1139 116.133 25.4718 118.992 26.6723C122.051 26.1949 124.32 32.7261 127.232 33.6809C130.719 34.214 134.681 36.9488 137.835 37.3892C139.776 36.1284 142.031 37.2919 144.362 37.3892C146.694 35.4655 149.096 35.9569 151.318 35.9244C153.244 34.798 154.981 32.8419 156.741 32.434C158.501 32.0586 160.285 31.9102 162.316 28.7397C164.348 27.0941 166.422 26.3571 168.496 26.5981C170.57 24.7301 172.645 24.8645 174.671 25.0777C178.582 24.4334 182.544 25.4486 186.441 23.6223C190.384 25.2724 194.266 23.9838 198.196 21.9304C200.17 21.0635 202.173 18.6949 204.171 22.8667C206.169 19.5293 208.167 26.9597 210.141 23.8957C212.116 22.8806 214.066 21.6569 216.021 22.1482C217.972 21.3092 219.922 21.4807 221.897 20.4239C223.871 20.3497 225.864 22.4681 227.858 21.5224C229.851 27.3583 231.844 23.8401 233.823 22.5793C235.793 22.0741 237.762 21.0126 239.732 21.9443C241.701 18.4539 243.671 21.6893 245.65 21.2026C247.61 22.5422 249.598 21.1655 251.592 20.9894C253.585 18.4909 255.578 23.6037 257.548 20.6047C259.67 18.1943 260.673 16.4838 264.175 17.3877C270.078 15.5429 267.605 15.3667 269.579 17.1513C271.625 16.9659 273.694 16.3772 275.754 16.1733C277.814 11.385 279.864 17.689 281.876 15.2138C287.443 13.6748 287.443 13.6748 289.393 14.3748C291.344 14.6946 292.771 10.3837 294.864 12.0571C296.843 12.2286 297.837 10.6387 299.968 10.4023C302.1 10.9956 304.279 10.7407 306.453 10.4115C309.925 12.6504 313.874 12.6875 317.513 11.4267C320.996 11.7929 324.188 15.6912 327.703 15.4919C331.262 16.85 334.849 17.105 338.312 17.3275C342.013 16.368 345.381 19.367 348.83 17.1328C353.459 22.5422 356.766 18.2406 360.02 15.4502C361.842 12.2101 363.916 10.1612 365.971 13.9993C368.031 14.5834 370.072 13.8556 371.837 12.2889C373.416 13.7165 374.796 13.0769 376.328 8.84017C377.859 4.9882 379.539 9.10902 381.718 5.95236C385.571 5.71132 389.225 4.91868 392.203 3.64396C395.666 1.78983 398.948 7.89456 401.922 8.08924C404.805 5.906 407.978 8.99314 411.094 12.3908C413.939 14.829 416.598 11.0002 420.18 15.4084C423.91 17.4248 427.478 16.8547 431.707 17.9162C433.643 17.6612 435.618 19.0843 437.625 18.9174C439.633 17.9301 441.674 17.7725 443.753 19.6451C445.722 18.0228 447.711 18.7505 449.718 19.0333C451.726 16.3819 453.748 16.113 455.784 18.2638C457.777 15.6727 459.732 16.3031 461.688 16.85C463.643 13.8324 465.603 19.6405 467.606 15.3667C469.623 13.6887 471.716 14.3238 473.8 15.9832C475.878 16.2521 477.953 14.6019 479.927 16.6183C481.982 15.9925 484.004 17.8327 486.002 15.9415C488 14.0688 489.97 19.8676 491.915 15.376C494.023 17.7864 496.068 11.8717 498.062 15.1628C500.06 14.435 502.001 14.69 503.908 15.1952C507.395 14.3609 510.892 15.974 514.398 13.8788C517.89 14.9171 521.372 13.7397 524.874 14.8615C528.37 12.8497 531.886 11.6214 535.383 12.4743C538.879 12.2147 542.395 17.4897 545.887 16.4468C549.388 17.6566 552.813 10.6016 556.3 13.0212C560.111 11.7187 563.922 11.2645 567.689 12.8034C571.5 11.2505 575.301 15.9925 579.069 15.1257C582.879 15.3389 586.68 11.8531 590.453 13.1557C594.259 12.7478 598.117 10.2864 601.889 12.1452C605.686 11.1717 609.487 13.1464 613.255 13.0676C617.046 11.2274 620.733 15.6356 624.501 15.2787C628.283 13.5589 632.269 11.2227 636.037 14.1337C639.81 11.7604 643.616 16.9335 647.379 15.2694C651.146 14.4211 654.548 17.0679 658.311 19.6173C662.069 19.6637 665.646 22.57 669.405 22.2826C671.279 22.0462 673.296 22.278 675.309 21.0728C677.326 21.8655 679.343 21.2351 681.222 19.8862C684.966 20.6417 688.738 21.5271 692.497 21.3973C696.236 21.5178 699.518 26.9597 703.277 26.028C705.322 26.3617 707.444 24.5493 709.57 27.0431C711.697 26.6816 713.833 27.2749 715.907 27.4464C717.958 25.6572 720.003 26.8206 722.054 26.2134C724.104 25.8565 726.15 20.7437 728.21 24.693C730.26 26.7233 732.258 23.9699 734.256 23.1124C736.254 20.2848 738.247 21.9165 740.288 21.5503C742.358 22.4773 744.451 17.7122 746.539 20.8225C748.623 18.1711 750.702 20.1504 752.748 20.4331C756.639 20.0901 760.359 23.1402 764.037 23.3488C767.881 25.4996 771.62 22.7276 775.335 23.2422C779.127 22.3568 782.98 19.5061 786.753 22.0416C790.492 21.2165 794.212 22.7276 798.042 21.8608C801.729 22.2502 805.468 25.4671 809.336 21.8933C813.893 21.7867 818.089 22.482 820.539 22.278C824.269 21.9674 827.941 21.6569 831.652 23.3534C833.517 24.1229 835.391 21.8516 837.266 21.4297C839.14 20.892 841.014 17.6288 842.87 19.6081C846.59 21.694 850.391 18.8432 854.102 19.6776C855.957 19.5524 857.736 20.2941 859.515 21.986C861.294 24.0302 863.074 23.321 864.924 24.3546C868.63 23.015 872.517 21.9304 876.218 23.4368C879.919 24.6745 883.811 20.5398 887.512 22.8064C891.213 25.8518 894.586 24.3685 898.287 26.9643C901.988 26.918 905.599 27.0709 909.305 29.1151C913.011 28.9575 916.76 30.8766 920.475 29.9958C924.186 31.4977 927.963 31.2937 931.683 30.5382C935.394 30.5289 939.19 32.4665 942.92 30.223C946.569 26.7233 950.275 29.4118 954.085 30.3342C955.936 33.0227 957.829 29.7919 959.727 29.2495C961.626 29.2774 963.533 27.0339 965.412 27.1961C969.161 26.714 972.829 26.9643 976.549 28.3827C980.336 28.5125 984.028 29.8521 987.691 28.1834C991.478 28.8555 995.098 24.8831 998.652 26.3756C1002.56 25.1983 1005.84 23.6269 1009.42 21.9999C1013.18 20.2941 1016.71 21.0357 1020.33 17.9811C1023.99 17.5314 1027.65 14.1476 1031.4 14.0132C1033.22 15.8952 1035.16 11.4823 1037.12 12.7292C1039.09 14.5138 1041.1 11.9968 1043.07 11.7234C1044.9 12.9656 1046.85 10.0083 1048.85 11.3803C1050.84 10.6526 1052.9 11.7373 1054.95 11.3942C1058.74 11.4823 1062.52 15.9415 1066.28 13.3179C1070.06 14.88 1073.92 8.82627 1077.67 10.9678C1081.44 9.65136 1085.14 16.6183 1088.9 12.9424C1092.66 10.2169 1096.52 12.071 1100.28 12.9146C1104.03 17.207 1107.66 11.3247 1111.41 15.2508C1115.16 15.0654 1118.71 16.8315 1122.47 18.4492C1126.22 16.7156 1130.17 16.6368 1133.95 17.2811C1137.7 17.5314 1141.49 16.6785 1145.28 16.9984C1149.02 15.4687 1152.79 18.5048 1156.58 17.7446C1160.23 15.6541 1164.2 13.8881 1168.14 15.5058C1171.91 14.5045 1175.69 19.0008 1179.52 16.9103C1181.46 19.4597 1183.41 17.1652 1185.34 18.579C1187.27 22.4263 1189.18 21.2304 1191.04 19.9696C1194.99 21.8098 1198.61 15.0562 1202.11 16.1547C1206.45 15.2694 1209.86 13.9066 1213.09 12.071C1216.77 8.31638 1220.48 8.02435 1224.49 9.25272C1227.76 8.62231 1231.32 6.74963 1235.95 7.52837C1239.46 8.79382 1243.05 6.65693 1246.69 6.34172C1250.23 2.94402 1253.76 6.63375 1257.37 4.72863C1260.95 6.45297 1264.46 2.13748 1268.04 2.02623C1271.66 1.70639 1275.36 4.4366 1278.93 3.4261C1281.71 4.73326 1284.34 4.46905 1287 5.10872V19.8537C1286.48 19.7796 1285.96 19.6081 1285.44 19.3207C1283.43 20.1272 1281.43 23.9514 1279.42 20.4053Z" fill="white"/>
</g>
<defs>
<filter id="filter0_d_27_13" x="-10" y="0" width="1300" height="53" filterUnits="userSpaceOnUse" color-interpolation-filters="sRGB">
<feFlood flood-opacity="0" result="BackgroundImageFix"/>
<feColorMatrix in="SourceAlpha" type="matrix" values="0 0 0 0 0 0 0 0 0 0 0 0 0 0 0 0 0 0 127 0" result="hardAlpha"/>
<feOffset dy="1"/>
<feGaussianBlur stdDeviation="1.5"/>
<feComposite in2="hardAlpha" operator="out"/>
<feColorMatrix type="matrix" values="0 0 0 0 0 0 0 0 0 0 0 0 0 0 0 0 0 0 0.25 0"/>
<feBlend mode="normal" in2="BackgroundImageFix" result="effect1_dropShadow_27_13"/>
<feBlend mode="normal" in="SourceGraphic" in2="effect1_dropShadow_27_13" result="shape"/>
</filter>
</defs>
</svg>
