<?xml version="1.0" encoding="utf-8"?>
<!-- Generator: Adobe Illustrator 26.2.1, SVG Export Plug-In . SVG Version: 6.00 Build 0)  -->
<svg version="1.1" id="Layer_1" xmlns="http://www.w3.org/2000/svg" xmlns:xlink="http://www.w3.org/1999/xlink" x="0px" y="0px"
	 viewBox="0 0 1280 36.9" style="enable-background:new 0 0 1280 36.9;" xml:space="preserve">
<style type="text/css">
	.st0{fill:#459E9A;}
	.st1{fill:#3A818D;}
</style>
<path class="st0" d="M325.9,30c-0.4-0.1-0.8-0.2-1.1-0.3C325.2,30,325.6,30.2,325.9,30z"/>
<path class="st0" d="M37.8,8.8c-0.6,0.2-1.2,0.5-1.6,1c0.5-0.2,1-0.3,1.5-0.4C37.8,9.1,37.8,9,37.8,8.8z"/>
<path class="st0" d="M1235.7,3.4c0,0.2,0,0.4,0,0.6C1236,3.7,1236,3.4,1235.7,3.4z"/>
<path class="st0" d="M1279.8,19.3l-0.6,0.2c-0.1,0.6-0.1,1.2-0.1,1.8L1279.8,19.3z"/>
<path class="st0" d="M361,34.1l-0.2-0.1C359.9,34.4,360.4,34.3,361,34.1z"/>
<path class="st0" d="M683.5,31.7c-3.7-2.9,5.9-3.7,0.4-6.9C684.4,26.1,678.9,29.8,683.5,31.7z"/>
<path class="st0" d="M38.8,9.2c0.5,0,1,0,1.5,0C39.9,9.1,39.3,9.1,38.8,9.2z"/>
<path class="st0" d="M441.1,30.7c0.1,0.5,0.4,1,0.8,1.4C441.8,31.6,441.5,31.1,441.1,30.7z"/>
<path class="st0" d="M473.2,27.6c0.8,0.2,1.1,0.7,2.2,0.2c-0.1-0.1-0.2-0.3-0.3-0.4C474.7,27.9,474.2,28.1,473.2,27.6z"/>
<path class="st0" d="M505.8,27.6c-0.2-0.2-0.4-0.4-0.6-0.6c-0.3,0.1-0.7,0.1-1,0.2L505.8,27.6z"/>
<path class="st0" d="M1136.7,5c0.7,0.9,1.2,1.8,1.5,2.9C1137.7,5.6,1142.5,4.8,1136.7,5z"/>
<path class="st0" d="M474.6,2.3l5.2,0.5C478,2.5,476.3,2.3,474.6,2.3z"/>
<path class="st0" d="M904.1,5c-0.4-0.1-0.9,0-1.2,0.4L904.1,5z"/>
<path class="st0" d="M495.1,2.3c0.8,1,1.8,1.7,2.9,2.2c0.2-0.2,0.5-0.5,0.6-0.8L495.1,2.3z"/>
<path class="st0" d="M1070.6,28c0.2-0.1,0.3-0.2,0.6-0.2c-0.3-0.3-0.6-0.5-0.9-0.7c-0.2,0.3-0.4,0.7-0.5,1L1070.6,28z"/>
<polygon class="st0" points="913.7,3.8 913.7,4.6 914.6,3.9 "/>
<path class="st0" d="M98.8,9.9c-0.2,0.4-0.3,0.9-0.3,1.4l0,0L98.8,9.9z"/>
<path class="st0" d="M474,2.3C474,2.3,474,2.3,474,2.3c0.2,0,0.4,0,0.6,0L474,2.3z"/>
<path class="st0" d="M21.2,8.3c0,0.2,0,0.4-0.1,0.5L22,8.5L21.2,8.3z"/>
<path class="st0" d="M20.1,9.2c0.4,0,0.8,0,1-0.4L20.1,9.2z"/>
<path class="st0" d="M18.1,10l2-0.8C19.4,9.2,18.6,9.1,18.1,10z"/>
<path class="st0" d="M52.6,9.6c-1.7-0.3-4.3-2.5-6.6-1.7l-0.2,0.9C46.9,7.1,51,11.6,52.6,9.6z"/>
<polygon class="st0" points="274.2,31.9 278.4,30.8 275.3,31.5 "/>
<path class="st0" d="M500,30.4l-0.8-3.6C497.6,27.5,497.3,31.5,500,30.4z"/>
<path class="st0" d="M597,26.8c1.1,1.8,3.8,3,5.5,1.2C600.3,27.7,598.2,26.3,597,26.8z"/>
<polygon class="st0" points="886,33.8 889.7,32.8 888,32.6 "/>
<path class="st0" d="M44.3,33.5c0-0.2,0-0.4,0-0.6C44,33.2,44,33.4,44.3,33.5z"/>
<path class="st0" d="M143.3,31.9c-0.7-0.9-1.2-1.9-1.5-2.9C142.3,31.3,137.5,32.1,143.3,31.9z"/>
<path class="st0" d="M377.1,31.5l-1.2,0.4C376.3,31.9,376.8,31.8,377.1,31.5z"/>
<path class="st0" d="M210.2,8.9l-0.8,0.1c-0.2,0.1-0.4,0.2-0.6,0.2c0.3,0.3,0.6,0.5,0.9,0.7C209.8,9.5,210,9.2,210.2,8.9z"/>
<polygon class="st0" points="394,3.1 390.3,4.1 392,4.3 "/>
<g>
	<path class="st1" d="M326.3,29.9c-0.4-0.1-0.8-0.2-1.1-0.3C325.6,30,326,30.2,326.3,29.9z"/>
	<path class="st1" d="M38.6,8.8c-0.6,0.2-1.2,0.5-1.6,1c0.5-0.2,1-0.3,1.5-0.4C38.5,9.2,38.5,9,38.6,8.8z"/>
	<path class="st1" d="M1235,3.4c0,0.2,0,0.4,0,0.6C1235.2,3.7,1235.3,3.5,1235,3.4z"/>
	<path class="st1" d="M1279,19.3l-0.6,0.2c-0.1,0.6-0.1,1.2-0.1,1.8L1279,19.3z"/>
	<path class="st1" d="M361.3,34c-0.1,0-0.1,0-0.2-0.1C360.3,34.3,360.8,34.3,361.3,34z"/>
	<path class="st1" d="M683.4,31.7c-3.6-2.9,5.9-3.7,0.4-6.8C684.4,26.1,678.9,29.8,683.4,31.7z"/>
	<path class="st1" d="M39.5,9.2c0.5,0,1-0.1,1.6,0C40.4,9.1,39.9,9.1,39.5,9.2z"/>
	<path class="st1" d="M441.4,30.7c0,0.3,0.2,0.7,0.8,1.4C442,31.6,441.7,31.1,441.4,30.7z"/>
	<path class="st1" d="M473.5,27.6c0.8,0.2,1.1,0.7,2.2,0.3c-0.1-0.2-0.2-0.3-0.3-0.4C474.9,27.9,474.4,28.1,473.5,27.6z"/>
	<path class="st1" d="M506,27.6c-0.2-0.2-0.4-0.4-0.6-0.6c-0.3,0.1-0.7,0.1-1,0.2L506,27.6z"/>
	<path class="st1" d="M1136.1,5c0.7,0.9,1.2,1.9,1.5,2.9C1137.1,5.6,1141.9,4.8,1136.1,5z"/>
	<path class="st1" d="M474.8,2.4l5.2,0.5C478.5,2.5,476.6,2.4,474.8,2.4z"/>
	<path class="st1" d="M903.8,5c-0.5-0.1-0.9,0-1.2,0.4L903.8,5z"/>
	<path class="st1" d="M495.3,2.4c0.9,1.1,1.9,1.8,2.9,2.2c0.2-0.3,0.5-0.5,0.6-0.8L495.3,2.4z"/>
	<path class="st1" d="M1275.4,20.4l3.1-0.9c0.6-5.3,2.9-10.7-4.6-14.4l-5.2,3.2l-1.7-2.6l4.4-0.2c-2.5-2.4-4.1-0.3-5.9,1.2
		c-0.4-1.4-1.2-2.3-2.2-2.8l-5.2,5.1c-0.6-2.1,2.3-4.1-1.1-5.3c-2.4,2.3,2.3,4.6-1.7,6.2c-2.5-2.4-1.8-4.4-4.7-2.3
		c-0.4-1.4,0.2-2.2,1.4-2.8c-2.6,1.6-6.9,0.7-8.3,3.5c-2.6-3-8.9,0.8-8.6-4.2c-0.8,1.2-4.6,3.9-7,4.1c4.4-6-9-0.4-7.9-6.8
		c-3.3,5.4-11.8,2.4-17.5,5.4c0.3-0.4,1-1.3,1.5-1c-3.2-0.4-4.2-2.1-6.3-3.1c-0.4,4.5-5.5,5.5-8.2,8.2c-4-4.3,2.4-5.2,1.2-9.4
		c0.2,3.6-6.9,3.6-5.6,6.6c-3-2.7-2.6-1.3-4.2-5c-0.5,5.6-2.8,0.9-5.4,4.4c-4.4-2.7-1.1-5.2-6-3.5c-2.3-1.7,2-3.7,2-3.7
		c-4.9-0.1-2.3,4.1-3.4,6.5c-5.9,1.2-2.7-3.1-4.7-5.2c-3.7,1.1-6.5,5-9.2,4.8c-0.2-0.7-0.7-0.9-0.1-1.8c-3.9,3.3-11.5,0.2-16,4.4
		c-0.3-0.4-0.5-0.7-0.6-1c0.7,2.1,0.8,4.2,0.7,5.8c-2.2,0.1-4.1,2.7-4.9-0.1c1.4,0.1,1.5-1,2.1-1.9l-2.3,1.2c-2.1-4,3.2-1.4,3.2-4.3
		c-4.5,1.3-9.8,4.6-13.2,3.4c-0.7-3.9,8.1-1.3,3.5-4.7l5.4,1.5c-4.1-6.1,3.3,0.4-0.5-6.1c-7-1.1-7.9,2-14.9,0.8
		c-1.6,2.1,0.5,3.2-1.1,5.3c-10,3.9-7.9-9.7-15.2-4.6c-1.9,2.6-2.6,7.5-7.9,4.9l1.8-4.4c-6.8-0.4-3.9,6.3-11,3.3
		c1.3-1.7,5.4-1.4,4.3-2c-4.6-3.4-3.3,2.5-6.8,2.5l-0.7-3.9c-7.3,0.6-15.3,3.4-23.3,4.1c0.4-1.2,1.8-2.4-0.1-3.5
		c-10.1,1.9-21.6-0.5-31.4-2.8l-3.7,3.3c-0.9,0-1.6-1.5-0.7-2.2c-3.8-1.3-0.2,2.1-2,3.4c-2.2,0.2-2.9-1.9-1.5-2.9
		c-6.7,2.8-19.2,6.1-26.2,2.5l1.4-1c-5.5-1.4-6.2,6.8-11.3,3.7l1-0.6c-12-1.4-25.2,1.6-34.3-3.4c-1.7,4.8-11.9-2.1-12.6,4.6
		c-6.8-3.3-4.9-4.5-14.5-6.8c-2.6-0.3-3.8,4.2-7,4.9l-0.1-3.5l-4.3,3.7l-2.3-4.2l-3,0.9c1.2,0.2,2.5,1.6,2.3,2.6
		c-4.7,1.6-11.4-2.4-11.5-4.2l-11,3c0.2-1.4,2.1-1.9,3.6-2.8c-5.9,3.6-1.1-3.7-6.5-0.4c0.7,0.8-0.4,2.1-0.5,2.8
		c-2.7-2.1-8.8-2.1-13.3-1.2l0.9-2.4c-8.2-0.6-17.2,1.2-26.4,1.1c3.3,1.1,2.5,5.3-0.2,5.7l-1.1-3.7c-1.7,2.3,2.8,1.4-0.8,4.2
		c-3.4-0.4-2.3-4.2-0.3-5.4l-4.2,1.3c-0.2-1.1,0.7-1.7,1-3.1c-1.7,2.3-7.2-3.7-9.7,0.3l-0.2-1.1c-9.2,0-13.3,1.2-20.8,1.4
		c-0.1,3.2-3.1,2.5-5.3,5.1c-5.5-1-11.6-3.5-18.2-3.3c-4.7,1.6-1.4,2.7-3.5,4.6c-0.3-2.9-6.9-2.6-3.5-4.7
		c-7.9,0.5-10.1,0.6-20.2,2.9c1.1,1.2,2.3,1.7,1.7,2.7c-1.8,0.5-4.1-1.2-3.9-2.6l0.5-0.3c-11.3,4.4-26-8.5-35-2.4l0.5-0.3l-9.3,3.2
		c-4.3-0.5,2.6-2.2-0.6-4c-10,4.9-15.9-0.7-24.1,2.5c-6.4-8.6-22.7,0.6-31.4-4.9l0.5,2c-2.2,2-2.7-1.2-4.3-1.6
		c0.2,1.6,2.4,1.8,1,2.9c-18.9,2.4-39-3-58.4-4.8c-7.1-0.5-4,10.5-13,5.6l2.5-3.8c-14.3,4.5-29.3-0.2-43.3,3.7c0.8-0.9,0.9-2,2.2-2
		c-3-2.7-10.9-0.1-11,2.1c-2.2-0.3-0.5-2-1.9-3.1c-3-1.6-7.5,3.5-9,0.8c-0.3-0.4,0.8-0.9,1.4-1.1c-1.9,1.3-9-0.3-7.2,2.8
		c-5.3-1.5-10.1,1.4-14.3-0.5c-2.7,3.5-9-1.7-9.9,3.3c0.4-5.1-9.2-4.2-12.5-1.7c1.1-1.6-2.9-1.6-1.6-3.8c-3.8,0.1-7.3,1-6.6,3.7
		c-7-6.2-14.1,5-18-2.9c-11.3,2.8-21.7,4.6-31.8,5.8c0.4-5.1,11.2-0.5,10.8-5.9c-4.6,1-8.3,2.5-11.9,3.7c-0.1-0.5-0.2-1-0.2-1.6
		c-0.5,0.9-1.4,1.8-2.3,2c-2.4-1-6.7,3.5-6.4-1.1l0.9,0.1c-1.8-4.5-6.8-3.3-10.8-3.4l-0.4,3.3c-1.8,0-3.6,0-5.4,0
		c-3.2-0.9-6.7-0.8-10.1-0.4c0.3-0.2,0.1-0.1-0.4,0c-0.8,0.1-1.6,0.2-2.4,0.3c-0.7,0-1.2,0-1.7,0.2c-3.9,0.6-7.4,1-10-0.1
		c0.1-0.2,0.1-0.3,0.2-0.5c-0.2,0.1-0.4,0.2-0.6,0.3c-0.9-0.4-1.7-1.1-2.4-2c-2.4,1.5-5.3,1.5-7.7,2.9c0.1-0.1,0.2-0.3,0.3-0.5
		c-0.2,0.1-0.3,0.2-0.5,0.4l0.1-3c-6.8-0.8-10.3-1.2-18.7-0.5l1.7-2.3c-4.8-0.2-6,9.3-10.4,9.5l-1.3-4.8c-8.3,0.1-16.7-4.1-25,0.2
		c0.1-0.7,0.4-2.1,1.7-2.3c-3.9-0.1-15.1-3.3-13.7,3.3c-0.1-4.3-8.6-0.4-13.1,1.5l0.7-3.2c-3.8,4.1-3.9,5.2-9.2,6.3
		c-1.3-0.4-1.1-2.5,0.6-1.7c-4.2-1.7-3.3,3-8.3,1.3l1.9-2c-2.3-0.1-3.3,0.1-4.1,0.8l-1.5-1.1l-1.1,2.7l1.5-0.4
		c-0.3,0.4-0.7,0.8-1.2,1.3c-1.5,0.7-4,0.3-5.9-0.6c0.1-2.4,5.5-0.3,3.6-3.4c-2.1,0.2-4.2,0.6-6.3,1c-0.1-0.2-0.2-0.4-0.3-0.6
		c-0.1,0.2-0.3,0.5-0.4,0.7c-1.6,0.3-3.2,0.7-4.8,1.1c0.2-0.3,0.5-0.5,0.7-0.7c-7.2-2.2-10.7,3.7-15.6,0.6c-0.1-1.1-0.4-1.6-0.8-1.9
		c5.7,0.1,10.3,0.3,9.9,0.5c0-2.9-4.6-3.4-0.9-7.5c-3.7,2.2-10,7-14.5,5.6c-0.2-0.3-0.4-0.6-0.6-1l0.5-0.3c-1-0.3-2,0-2.8,0.5
		c-1.4-0.5-2.3-0.8-3.7-0.9c-0.5-2.4-5.3-1.3-7.6-1.4c0.2,3.2-2.8,2.7,0,5.3c-0.4-0.2,0.4-0.4,2-0.5c0.3-0.1,0.8-0.1,1-0.3
		c0,0.1-0.1,0.2-0.2,0.3c1.5-0.1,3.5-0.2,5.7-0.2c-0.7,0.6-1.4,1.1-2.1,1.5c-0.8,0.1-1.7,0.2-2.6,0.4c-0.5-0.1-1-0.3-1.6-0.7
		c-0.2,0.4-0.4,0.7-0.6,1.1c-1.6,0.4-3.4,0.8-5.2,1.2c-3.1-2.8-6.8-4.7-7.4-6.8c-6.4,1.6-14.7,1.3-19.5,5.7
		c-1.3-0.2-2.6-0.2-3.9-0.1c-0.2-0.4-0.4-0.8-0.6-1.1c1.2-0.6,2.5-0.5,3.1-1.4c-3.9,1.5-11.6,0.7-12.7,4.6c-0.1,0-0.2,0-0.3,0.1
		c-4.5-1.9,2.9-3.7-3.9-3.1l0.9-1.3c-7.7-3.8-13.8,0.2-20.4,2.7c-0.1-0.1-0.1-0.2-0.2-0.2c0,0.1,0.1,0.2,0.2,0.3
		c-5,1.9-10.3,3.1-16.8-0.6c1,0.5,1.6,0.8,1.8,1.5c-2.5-0.5-5-0.8-7.5-1l-3.3-1.1c1.4,0.6,2.4,1,3.3,1.1c0,0,0,0-0.1,0l-5.8-1.5
		l1.5,1c-0.1,0.2-0.2,0.3-0.3,0.4c-4.5,0-9,0.3-13.5,0.7c0-0.2-0.1-0.4,0-0.7c-1.5-1-3.9-2-3.2-3c-2.9,2.8-4.8-2.2-8.8,1.9
		c-0.2-1.1-3.1-0.1-2.4-2.9c-3.7,0.9,0.9,1.9,0.6,3.3c-5.7,3.8-13.5-4.6-21.7,0.6c-0.1,0-0.2,0.1-0.3,0.1l-0.4-1.2l-3.8,3
		c-0.7,0.4-1.3,0.8-1.9,1.2c-6.2,1.8-11-6.6-18.4-4.2c0.2-0.4,0.4-0.7,0.8-0.9c-0.4,0-0.7,0.1-1.1,0.2c-0.1,0.3-0.1,0.6,0,0.8
		c-0.7,0.2-1.3,0.5-2,1l1.1,2.2c0,0,0,0.1-0.1,0.1c-0.8-0.1-1.8-0.1-2.8,0c0.6-1.2,1.2-2.6,2.3-3.7c-2.8,0.9-5.5,2.5-8.3,3.6
		c-0.6-0.2-0.9-0.6-0.8-1.2c-0.2,0.2-0.4,0.7-0.7,1.1c-0.1-1.5,2.3-2.5,3.3-3.6c-3.3,0.8-8.4,1.6-10.2,3.9l-2.8,1.1
		c-0.4-0.1-0.7-0.2-1-0.3c0.8-1.5,1.1-3.2,0.4-5c-1,1.6-1.6,2.2-2.2,2.8c-0.4-2.1,0.8-4.8-5.2-5C7.8,7.5,5.6,8.6,3.9,9.9l-2.8,1
		c-0.4,0.5-0.4,1.4-0.1,2c-0.1,0.3-0.1,0.5,0.1,0.7c1.4,0.1,3.5,1.1,3.6,2.9l-3.1,0.9c0.1-0.6,0.1-1.2,0.1-1.8l-0.7,2l0.6-0.2
		C1,22.7-1.3,28.2,6.2,31.9l5.2-3.2l1.7,2.6l-4.4,0.2c2.5,2.4,4.1,0.3,5.9-1.2c0.4,1.4,1.2,2.3,2.2,2.8l5.2-5.1
		c0.6,2.1-2.3,4.1,1.1,5.3c2.4-2.3-2.3-4.6,1.7-6.2c2.5,2.4,1.8,4.4,4.7,2.3c0.4,1.4-0.2,2.2-1.4,2.8c2.6-1.6,6.9-0.7,8.3-3.5
		c2.6,3,8.9-0.8,8.6,4.2c0.8-1.2,4.6-3.9,7-4.1c-4.4,6,9,0.4,7.9,6.8c3.3-5.4,11.8-2.4,17.5-5.4c-0.3,0.4-1,1.3-1.5,1
		c3.2,0.4,4.2,2.1,6.3,3.1c0.4-4.5,5.5-5.5,8.2-8.2c4,4.3-2.4,5.2-1.2,9.4c-0.2-3.6,6.9-3.6,5.6-6.6c3,2.7,2.6,1.3,4.2,5
		c0.5-5.6,2.8-0.9,5.4-4.4c4.4,2.7,1.1,5.2,6,3.5c2.3,1.7-2,3.7-2,3.7c4.9,0.1,2.3-4.1,3.4-6.5c5.9-1.2,2.7,3.1,4.7,5.2
		c3.7-1.1,6.5-5,9.2-4.8c0.2,0.7,0.7,0.9,0.1,1.8c3.9-3.3,11.5-0.2,16-4.4c0.3,0.4,0.5,0.7,0.6,1c-0.3-0.7-0.4-1.5-0.5-2.2l2.5,0
		c0.6-1,1.4-1.7,2.7-2.1c0.7,1.9-0.8,1.8-2.1,2.1l-0.6,0c-0.1,0.1-0.1,0.3-0.2,0.4c-0.2,0.2-0.4,0.5-0.4,0.9c0,0.1-0.1,0.2-0.1,0.2
		l0.1-0.1c0,0,0,0,0,0.1c1.3-0.4,2.8-0.9,4.2-1.5l-0.2,0.6c2.9-0.1,5.9-1.5,9.2-2.1c-0.2,3.1-7.8,1-3.4,4.3l-5.4-1.5
		c4.1,6.1-3.3-0.4,0.5,6.1c7,1.1,7.9-2,14.9-0.8c1.6-2.1-0.5-3.2,1.1-5.3c10-3.9,7.9,9.7,15.2,4.6c1.5-2,2.3-5.4,5.1-5.6
		c0,0,0,0.1,0.1,0.1c0.1-0.1,0.2-0.1,0.3-0.1c0.7,0,1.5,0.2,2.4,0.7l-1.8,4.4c6.8,0.4,3.9-6.3,11-3.3c-1.3,1.7-5.4,1.4-4.3,2
		c4.6,3.4,3.3-2.5,6.8-2.5l0.7,3.9c7.3-0.6,15.3-3.4,23.3-4.1c-0.4,1.2-1.8,2.4,0.1,3.5c10.1-1.9,21.6,0.5,31.4,2.8l3.7-3.3
		c0.9,0,1.6,1.5,0.7,2.2c2.9,1,1.5-0.8,1.5-2.2c0.9,0.2,1.8,0.2,2.6,0.1c0.1,0.6,0,1.1-0.6,1.6c4.5-1.9,11.6-4,18-4
		c0.5,0.4,1.1,0.8,1.6,1.4c0.6-0.6,0.6-1,0.3-1.3c1.7,0.1,3.3,0.4,4.8,1c0.4,0.3,0.8,0.6,1.1,0.8l-1,0.7c0.9,0.2,1.7,0.1,2.4-0.1
		c4.3,1.3,5.2-2.7,8.2-3.9c0.3,0.1,0.5,0.1,0.8,0.3l-1,0.6c1.9,0.2,3.7,0.3,5.6,0.4c0.1,0.2,0.3,0.5,0.6,0.8l0.3-0.8
		c0.6,0,1.2,0,1.8,0c2.6,0.8,6.4,1,5.3,2.8c3.2-1.3,1.5-2.2-0.8-2.9c0,0,0,0,0,0c5.5,1.8,8.6,0,14.3,1.3c-0.3-0.2-0.5-0.5-0.7-0.8
		c2.9,0.4,5.6,1.2,8,2.5c1-2.6,4.4-1.8,7.5-1.5c-0.4,0.9-1.5,1.7-2.2,2.2c5.3-2.6,9.8,1.7,12.8,2.2l-2.8,1.1c1.7-0.6,3-0.6,4.4-0.6
		l-1.6-2.7c1.6,0.5,3,0.5,3,1.6c0.5-0.5,0.6-1,0.6-1.6c1.3,0.5,3,1,5.4,1.6c0.7,0.1,1.3-0.2,1.8-0.6c0.2,0.1,0.4,0,0.7,0.1
		c0.2,0.4-0.2,0.7-0.7,0.9c3.4,1.7,4.1,0.5,4.9-1.1l0.4,0l0-0.7c0.1-0.1,0.2-0.2,0.3-0.4l1.6-1.3c0.7-0.3,1.5-0.6,2.6-0.6
		c-0.9,2,1.6,3.8,2.7,3.4c-1.4,0-1.7-1-1.3-2.1l0.7,1.3l3-0.9c-1.1-0.2-2.4-1.4-2.3-2.4c0.1-0.1,0.1-0.1,0.2-0.2
		c0.7-0.2,1.5-0.3,2.2-0.3c0.5,0.1,1,0.1,1.4,0.1c3.8,0.6,7.5,3.1,7.6,4.5l11-3c-0.2,1.4-2.1,1.9-3.6,2.8c5.9-3.6,1.1,3.7,6.5,0.4
		c-0.5-0.5-0.1-1.3,0.2-2c0.6-0.2,1.1-0.2,1.6-0.2c0.8,0.4,1.6,0.6,2.6,0.8c1.5,0.8,2.9,1.6,5.7,0.5c0-0.1-0.1-0.1-0.1-0.2
		c1.3-0.1,2.7-0.2,3.9-0.5l-0.9,2.4c2.7,0.2,5.5,0.1,8.3-0.1c-0.2-1.2-0.3-2.3-0.5-3.5c3.9-1,8-3.2,13.4-2.2l-2.7-1.2
		c1.1-2.7,5.2-0.4,8-1.5c-0.3,2.2,1.5,3.1,2.6,4.5c-0.1-1.7,6.2,0.2,7-4.3l3.8,3c6.8,1.2,7.8-6.4,14.3-5.6c-2,2.4,1,4-3.4,5.8
		c2.2,0,4.2,0.4,4.2-1.1c1.3,1.4,6.1-3,8.1-0.9c0.9-1,1.2-3.3,3.7-3.2c0.3,0.5,0,1.1,0,1.1c0-1.1,3.8-1.5,1.7-4
		c6.7,7,18.8-0.5,24.7,5.5c4.8-0.8,10.5-1.5,14.9-1.6c-0.3,0.7,0,1.1-0.8,0.9c6,2.1,3.7-6.4,10.5-4.1c3.5,3.6-3.6,2-1.4,3.3
		c0.9,7.4,8.2-1,12.8,3.3l-1.1,0.4c3.5,2.5,8.5-2.8,14.3-2.3c0,0-0.3,0.7,0,1.1c3.9-3.8,11.3-5,16.8-6.1c-1.7,2.9-2.5,1.5-1.5,4.5
		c2.5-0.4-0.7-4.7,4.2-5.5c1.6,1.6,5.2,3,5.6,6.1l-4.6,0.2c2.4,4.1,6-0.1,8.5,0.6l-0.3,1.8c7.1-0.6,7.2-5,14.9-4.7l-0.8-1.3
		c4.2-4.4,3.5,2.5,7.7-0.8l1.3,4.5c2.8-1.1,9.7-4.3,14.6-5.2c-2.8,3.3-8.6,5-12.2,7c2.7,0,9.3-0.3,10.7-2.5
		c-1.1,0.4-2.5,1.5-3.6,0.8c3.4-3.5,7.8-5.3,13.2-5.2c-1,8.7,14.2,2.2,18.2,9c9.6-3.2,19.1,1.4,30.4,0.9c-4-6.8,3.3-0.2,2.6-7.2
		c2.6-0.4,3.6-0.3,3.8,0.1l-0.5-0.3c0.2,0.1,0.4,0.2,0.6,0.3c0,0,0,0,0,0l7.9,4.1c1.9,2-2.5,1.5-2.2,3.1c5.7,0.5,2.4,2.9,6.2,4.8
		c-0.8-2.5,2-3.6,5.3-2.6l-4.6-3.2c8-3.7,6.9,5.8,15,2.2l-2.6,2.2c4.1-1.3,15.3,0,19.3-5.5c0.7,0.8,1.7,2.7-0.1,3.2
		c9.9,0.8,22-5.9,29.7-2.5l-0.8,1.7c1.8-0.5,3.2-3.2,5.5-1.5c-0.1,0.7-0.7,1.7,0.1,1.8c1-0.6,4.9-3,7.4-2l-2.1,1.9
		c9.7,2.2,14.8-4.7,22.9-5.8c0,5,7.6,6.6,11.4,7.4l-0.1,0.7c11.2,0.6,19.1-4.2,29.5-6.1c6.5,5.4,21.9,2.3,32.3,5.3
		c-1.6-0.9,0.3-3.9,2.1-4.4c2.4,1,6.7-3.5,6.4,1.1l-0.9-0.1c1.8,4.5,6.8,3.3,10.8,3.4l0.6-6c10.2,8.7,26.8-3.2,32.4,4.6
		c2.5-1.5,5.5-1.5,8-3l-0.1,3.2c6.8,0.8,10.3,1.2,18.7,0.5l-1.7,2.3c4.8,0.2,6-9.3,10.4-9.5l1.3,4.8c8.3-0.1,16.7,4.1,25-0.2
		c-0.1,0.7-0.4,2.1-1.7,2.3c3.9,0.1,15.1,3.3,13.7-3.3c0.1,4.3,8.6,0.4,13.1-1.5l-0.7,3.2c3.8-4.1,3.9-5.2,9.2-6.3
		c1.3,0.4,1.1,2.5-0.6,1.7c4.2,1.7,3.3-3,8.3-1.3l-1.9,2c4.3,0.2,4-0.8,6.3-3.2c2.7-1.3,8.2,0.8,8.8,3.7c0.6-1.7,2.9-4.1,5.5-3.3
		c0.3,1.1-0.6,1.8-1,2.1c7.2,2.2,10.7-3.7,15.6-0.6c0.1,1.1,0.4,1.6,0.8,1.9c-5.7-0.1-10.3-0.3-9.9-0.5c0,2.9,4.6,3.4,0.9,7.5
		c3.7-2.2,10-7,14.5-5.6c0.2,0.3,0.4,0.6,0.6,1l-0.5,0.3c1,0.3,2,0,2.8-0.5c1.4,0.5,2.3,0.8,3.7,0.9c0.5,2.4,5.3,1.3,7.6,1.4
		c-0.2-3.2,2.8-2.7,0-5.3c0.4,0.2-0.4,0.4-2,0.5c-0.3,0.1-0.8,0.1-1,0.3c0-0.1,0.1-0.2,0.2-0.3c-1.5,0.1-3.5,0.2-5.7,0.2
		c1.8-1.6,3.7-3,6.3-1.2c1.2-2.1,2.5-4.2,3.2-5.2c3.2,4.5,9.2,6.9,10.1,9.6c7-1.8,16.6-1.2,21-7.2c2-0.8,2.3,1.7,3,2.7
		c-1.2,0.6-2.5,0.5-3.1,1.4c4-1.5,11.8-0.6,12.8-4.8c5,1.9-2.8,3.9,4.1,3.2l-0.9,1.3c13.6,6.7,22.1-10.7,37.2-2.1
		c-1-0.5-1.6-0.8-1.8-1.5c17.2,3.8,35.5-3.6,52.4,2.5c4.8,1.2,5.3-1.5,8.3-3.5l1,3.4l5-4c7.1-2.9,12.4,8.4,21.4,2.9l-1.2-2.3
		c3.2,0.4,10.3-1.4,9.7,1.3c0.3-0.4,1.1-2.4,2.3-1.2l0.1,1.8l8-3.1c6.2,1.3-1,7.1,8.1,7.5c3.4-0.7,9.6-5.2,8.3-6.4
		C1277.6,23.2,1275.5,22.2,1275.4,20.4z M212.2,6c0,0.1-0.1,0.3-0.2,0.4c0.1-0.6,0.3-1.2,0.6-1.6c1.5-0.5,2,0.2,2.3,0.8
		C214.2,5.6,213.3,5.7,212.2,6z M26.8,13.5c-0.3,0.2-0.8,0.3-1.3-0.2l-0.1-1.5C26.1,12.2,26.5,12.9,26.8,13.5z M21.9,12.9
		c0.1-0.2,0.3-0.4,0.5-0.5c1.1-0.8,2-0.9,2.7-0.7L21.9,12.9z M141.8,26.2c-0.1-1.1-0.2-2.1-0.1-3c0.7,0,1.3-0.3,2-0.6
		C143.5,24.4,143,25.4,141.8,26.2z M228.9,26.8c-0.3-1.1,0-2.2,1-2.2c-0.5,0.7,1.8,1.4,3.2,2.3C231.9,26.8,230.5,26.8,228.9,26.8z
		 M1050.1,12.3c0.5-0.7-1.8-1.4-3.2-2.3c1.2,0.1,2.6,0.1,4.2,0.1C1051.4,11.2,1051.1,12.3,1050.1,12.3z M1056.6,9.9
		C1056.6,9.9,1056.6,9.9,1056.6,9.9c1-0.1,1.8-0.2,2.4-0.2C1058.5,9.7,1057.8,9.8,1056.6,9.9z M1067.8,30.9c0-0.1,0.1-0.3,0.2-0.4
		c-0.1,0.6-0.3,1.2-0.6,1.6c-1.5,0.5-2-0.2-2.3-0.8C1065.8,31.3,1066.7,31.1,1067.8,30.9z"/>
	<path class="st1" d="M1070.1,27.9c0.2-0.1,0.3-0.2,0.6-0.2c-0.3-0.3-0.6-0.5-0.9-0.7c-0.2,0.3-0.4,0.7-0.5,1
		C1069.6,28,1069.9,28,1070.1,27.9z"/>
	<polygon class="st1" points="913.4,3.9 913.4,4.7 914.2,4 	"/>
	<path class="st1" d="M99.5,9.9c-0.2,0.6-0.3,1-0.3,1.4c0,0,0,0,0,0L99.5,9.9z"/>
	<path class="st1" d="M474.2,2.3C474.2,2.3,474.2,2.3,474.2,2.3c0.2,0,0.4,0.1,0.6,0.1L474.2,2.3z"/>
	<path class="st1" d="M21.9,8.3c0,0.2,0,0.4-0.1,0.5l1-0.4L21.9,8.3z"/>
	<path class="st1" d="M20.9,9.2c0.4,0,0.8,0,0.9-0.4L20.9,9.2z"/>
	<path class="st1" d="M18.9,10l2-0.8C20.2,9.2,19.3,9.1,18.9,10z"/>
	<path class="st1" d="M53.3,9.6c-1.7-0.3-4.3-2.5-6.6-1.7l-0.2,0.9C47.6,7.1,51.7,11.6,53.3,9.6z"/>
	<polygon class="st1" points="274.7,31.9 278.8,30.8 275.8,31.4 	"/>
	<path class="st1" d="M500.2,30.4l-0.7-3.6C497.8,27.5,497.4,31.5,500.2,30.4z"/>
	<path class="st1" d="M597.1,26.8c1.1,1.8,3.8,2.9,5.5,1.2C600.4,27.7,598.2,26.3,597.1,26.8z"/>
	<polygon class="st1" points="885.7,33.8 889.4,32.8 887.7,32.6 	"/>
	<path class="st1" d="M45,33.4c0-0.2,0-0.4,0-0.6C44.8,33.2,44.7,33.4,45,33.4z"/>
	<path class="st1" d="M143.9,31.9c-0.7-0.9-1.2-1.9-1.5-2.9C142.9,31.3,138.1,32.1,143.9,31.9z"/>
	<path class="st1" d="M377.4,31.4l-1.2,0.4C376.7,31.9,377.1,31.8,377.4,31.4z"/>
	<path class="st1" d="M210.7,8.9c-0.3,0-0.6,0-0.8,0.1c-0.2,0.1-0.3,0.2-0.6,0.2c0.3,0.3,0.6,0.5,0.9,0.7
		C210.4,9.5,210.5,9.2,210.7,8.9z"/>
	<polygon class="st1" points="394.3,3.1 390.6,4.1 392.3,4.3 	"/>
</g>
</svg>
