<?xml version="1.0" encoding="utf-8"?>
<!-- Generator: Adobe Illustrator 26.2.1, SVG Export Plug-In . SVG Version: 6.00 Build 0)  -->
<svg version="1.1" id="Layer_1" xmlns="http://www.w3.org/2000/svg" xmlns:xlink="http://www.w3.org/1999/xlink" x="0px" y="0px"
	 viewBox="0 0 60 101.3" style="enable-background:new 0 0 60 101.3;" xml:space="preserve">
<style type="text/css">
	.st0{opacity:0.7;fill:#E7C582;}
	.st1{fill:#333333;}
</style>
<path class="st0" d="M30.9,9.1C22.7,6.8,14,10.4,9.8,17.8c-2.1,3.9-2.2,8.4-1.8,12.7c0.6,5.8,1.4,11.7,2.1,17.5l9-5.2
	c-3.9-2.9-1.3-9,0.9-12.1c2.8-3.9,7.1-8,12.1-8.4l-5.2-9c-6.6,11-10.4,23.4-11,36.2c-0.3,6.2,8.1,7.8,11.2,3
	C32.7,44,38.3,35.6,46,28.9L36,23c-4,11.4-13.3,20-15.5,32.1c-0.8,3.3,1.2,6.6,4.5,7.3c1.5,0.4,3,0.2,4.3-0.6
	c11.5-5.6,19.8-16,22.9-28.4C55,21.3,50.4,3.2,34.5,4.8c-4.2,0.4-7.9,4.9-5.2,9c3.6,5.4,7.2,10.8,10.7,16.3c1.6,2.6,2.7,4.2,1.7,7.2
	c-0.8,2.3-2.3,4.5-3.3,6.7c-2.3,5.2-2.6,10.3-1.9,15.9c0.6,4.3,2.6,11-0.7,14.8h8.5c-3.7-4.3-6.4-9.4-8.2-14.8l-7.4,7.4
	c3.4,0.9,5.3,6,7.5,8.6c2.8,3.5,7,5.7,11.5,5.9v-12c-8.4,1.1-9.9-9.2-10.7-15.4c-1-7.5-13-7.7-12,0c1.6,12.2,6.9,29.5,22.7,27.4
	c7.5-1,7.9-11.5,0-12c-2.9-0.2-5.4-6.1-7-8.1c-2.2-2.9-5.3-5-8.8-5.9c-4.3-1.1-8.8,2.9-7.4,7.4c2.4,7.4,6.2,14.2,11.3,20.1
	c2,2.4,6.5,2.3,8.5,0c4.1-4.6,5.6-10.2,5.2-16.3c-0.3-3.8-1.4-7.6-1.4-11.5c-0.1-3.7,1.1-6.2,2.7-9.4c2.8-5.7,4.6-11.2,2-17.4
	C49.8,21.2,44,14.4,39.6,7.7l-5.2,9c9.7-1,6.7,13.7,4.4,18.9c-3.1,7-8.7,12.7-15.6,16l8.8,6.8c2.2-11.8,11.6-20.8,15.5-32.1
	c2.1-6.1-5.9-9.5-10-5.8c-8.4,7.4-14.6,16.7-20.6,26.1l11.2,3c0.5-10.7,3.7-21,9.3-30.1c2.2-3.7-0.6-9.4-5.2-9
	c-18.9,1.6-38,28.7-19,42.9c3.5,2.6,9.6-0.9,9-5.2c-0.8-6.6-2.1-13.3-2.4-20c-0.2-4.8,2.7-8.9,7.9-7.4C35.2,22.7,38.4,11.1,30.9,9.1
	L30.9,9.1z"/>
<path class="st1" d="M47.6,9.7c-5.8-5.6-13.2-7.8-22.3-6.5c-0.7,0.3-1.3,0.7-1.9,1.1c-0.2-0.1-0.4-0.1-0.5,0
	c-2.9,0.9-5.5,2.4-7.7,4.5c-0.5,0.7-1.2,1.3-1.7,1.9C11,12.2,9,14,7.3,16.1c-2.7,2.1-4.6,5.1-5.3,8.5c-1.5,5.6-1.1,11.6,1,17.1
	c1.6,5.5,4.4,10.5,8.4,14.7c0-0.1-0.2-0.2-0.3-0.5c2.5,3.2,5.6,5.7,9.3,7.5c0.1-0.2,0.2-0.3,0.3-0.5c1.8,2.5,3.4,5.2,4.5,8l-2.2-4
	c-0.3-0.1-0.4,0-0.4,0.2c1.2,3.4,2.6,6.8,4.2,10h-0.1l0.1,0.5c0.2,0.7,0.2,1.3,0.4,2c0.6,3.2,2.6,6,5.3,7.8
	c-0.4,0.4-0.7,0.9-0.9,1.4C31.2,89,30.9,89.5,31,90c0.4,1.7,1,3.3,1.8,4.8c0.8,0,1.6,0,2.4,0.1h0.1c-0.2,1.2-0.2,2.5,0.2,3.7
	c0.4,0.3,0.7,0.6,1.2,0.8c1.3,0.1,2.7,0.2,3.9,0.2c-0.1,0-0.1,0-0.1,0.2c0.8,1,2.2,1.4,3.4,1c0,0.1,0,0.1,0.2,0.2s0.3,0.1,0.3,0.2
	c1.6-0.2,3-0.5,4.5-0.7c0.2-0.2,0.3-0.3,0.5-0.6c0.8-1.2,1.2-2.7,1.2-4.1c0.9-0.7,1.6-1.5,2.2-2.4c-0.4-0.3-0.7-0.5-1-0.8
	c-1.6,1.7-3.6,3.1-5.8,4c-0.8-0.6-1.7-1.2-2.7-1.5c0.5-0.2,1.1-0.4,1.7-0.5c2.1-0.3,4.2-0.9,6.2-1.8c2.4-1,3-2.2,2.2-3.8L53,88.8
	h-0.1c-0.1,0-0.1,0-0.3-0.1l0.2-0.3c0-0.2,0.1-0.4,0.3-0.6c0.1-0.2,0.2-0.4,0.3-0.6c0.1-0.2,0.1-0.3,0-0.6l-0.1-0.4L53,85.7
	c-0.2-0.1-0.4-0.2-0.5-0.4c-0.2,0.1-0.5,0.1-0.7,0c0.1,0,0.2-0.1,0.2-0.2c0.1-0.3-0.1-0.4-0.1-0.4c-0.2-0.2-0.5-0.4-0.8-0.5l0.7-1.1
	l0.8-0.2l-0.1-0.4c0.1-0.2,0-0.6,0-0.7c0.2-0.6,0.3-1.1,0.6-1.7l-0.3,0.1c0.3-0.6,0.7-1.1,1.1-1.6c0.3-2.7-0.1-5.4-1-8
	c-1.6-4.7-2.2-9.6-1.9-14.5c1-2,1.9-4,2.8-6.2c0.2-0.5,0.4-1.1,0.7-1.5c-0.7,2.8-1.7,5.6-2.8,8.4c0.3,0,0.5-0.2,0.7-0.3
	c0.1-0.2,0.2-0.4,0.3-0.6c2.5-4.9,4.1-10.2,4.6-15.7c0-0.1,0-0.1,0.1-0.3v-0.1c0.2-1.9,0.5-3.7,0.7-5.5c-0.1-0.3-0.1-0.7,0-1
	c-0.2-2.6-0.2-5.1,0-7.7c-0.3-0.7-0.6-1.3-1-2C55.3,17.4,52.2,12.9,47.6,9.7z M27.4,7.6c-0.3,0.4-0.8,0.7-1.1,1.1
	c5.3-2.1,11.2-1.5,15.9,1.6c0.4,0.3,0.8,0.6,1.3,0.8c1.9,1.9,3.4,4.1,4.5,6.5c2,4.1,3.8,8.4,5.2,12.8c0.1-5.5-1.6-11-4.9-15.4
	c2.3,2.2,4.3,4.6,6,7.3l0.2,0.8c1.5,5.8,1.9,11.9,1.1,17.9c-1.3,3.1-2.5,6.1-3.5,9.2c0.2-0.9,0.4-1.8,0.6-2.6
	c0.1-0.2,0.2-0.4,0.1-0.6c0.2-0.3,0.2-0.7,0.2-1c-1.7,1.9-2.8,4.4-3.1,6.9c-0.2,1.4-0.3,2.8-0.3,4.2c-0.5,1.5-0.9,3-1.4,4.3
	c0.2-0.2,0.5-0.3,0.7-0.5c0.3-0.5,0.5-1.1,0.8-1.6c0.1,2.8,0.4,5.7,0.8,8.5c-0.5-0.6-1-1.2-1.5-1.7c-0.3,0.1-0.4,0.1-0.4,0.2
	c0.7,1.3,1.4,2.7,1.8,4.1c-0.5,2.5-0.3,5.1,0.5,7.6c-0.2,0.5-0.4,1.1-0.7,1.7c-0.3,0.3-0.6,0.5-0.9,0.8c0.4,0.1,0.7,0.1,1.1,0h0.1
	c0.3,0.3,0.7,0.4,1.1,0.4c-0.2,0.3-0.2,0.7-0.1,1.1c-0.3,0.1-0.6,0.3-0.9,0.3c-1.1-0.6-1.8-0.7-2.2,0c0.9,0.1,1.7,0.5,2.3,1.1
	l0.3-0.1c-0.2,0.2-0.3,0.5-0.4,0.8c-0.3-0.1-0.6,0-0.8,0.2l-0.4,0.1c-0.1-0.2-0.3-0.3-0.5-0.4c0-0.1,0-0.1,0.1-0.3s0.1-0.3,0-0.4
	c-0.2-0.1-0.4-0.3-0.5-0.4c-1.4,0.3-2.9,0.6-4.3,0.9v0.1c-3.1,0.3-6,1.4-8.4,3.3c-0.2-0.2-0.5-0.4-0.8-0.4l0.6-0.8
	c-0.3,0-0.6-0.2-0.8-0.4c-0.1,0-0.3,0.1-0.4,0.2c-0.2,0-0.4,0.1-0.5,0.2c0-0.4,0-0.6,0-1l-0.8,0.2l-2.4-3.1
	c-0.3-0.5-0.5-1.1-0.7-1.6c-0.8-1.5-1.4-3-2.2-4.4L27.6,75c0.9,1.8,1.6,3.7,2.5,5.6c0.1-0.2,0.2-0.5,0.2-0.8l-0.1-0.4
	c-1.1-3-2.5-6.1-3.9-9.1c-0.7-2.5-1.9-5-3.3-7.1c-0.5-0.8-1-1.8-1.5-2.8l-0.2,0.2c0.2,0.2,0.3,0.6,0.5,1c-2.3-2.8-5.2-5.1-8.5-6.7
	c-0.5,0.1-0.6,0.2-0.2,0.5c2.4,1.9,4.7,4.1,6.7,6.5c-4.9-3.5-9-8-12.2-13.1c1.2,1.4,2.5,2.6,3.9,3.7c0.1-0.2,0.4-0.2,0.3-0.5
	c0.1,0,0.2-0.2,0.2-0.3c-1-0.8-1.8-1.6-2.7-2.5C7.5,47,5.9,44.6,4.8,42c-0.5-1.1-0.8-2.2-1.1-3.3c-0.3-1.4-0.4-2.8-0.3-4.2
	c0.1-5.1,1.5-10.1,4-14.6C7,20.8,6.6,22,6.2,23.1c1.1,0,1.8-0.6,2.1-1.9C9,19,10,17,11.1,15c0.6-0.7,1.3-1.3,2-1.9
	c-0.9,1.3-1.7,2.7-2.3,4.1c1.4-2,2.9-3.9,4.5-5.8c2.7-1.8,5.6-3.2,8.6-4.3c-0.1,0-0.2-0.1-0.3-0.1c-1.1,0.1-2.3,0.2-3.5,0.3
	c-0.2,0-0.4,0.1-0.5,0.3c1.6-1,3.5-1.7,5.4-2c3.2-0.5,6.5-0.6,9.7-0.3c1.6,0.6,3.2,1.4,4.7,2.3c-3.2-1-6.6-1.5-9.9-1.3
	C28.7,6.7,28,7.1,27.4,7.6z M40.2,7.2c1.6,0.8,3.1,1.6,4.6,2.5l0.8,0.5h-0.1c1.8,1.1,3.3,2.5,4.7,4.1c-2.2-2.1-4.7-3.9-7.4-5.1
	C41.9,8.4,41.1,7.9,40.2,7.2z M19.2,6.9c-0.1,0-0.2,0.1-0.2,0.1c-0.7,0.6-1.4,1-2,1.6c-0.3,0.2-0.7,0.4-1.1,0.5
	C17,8.4,18.2,7.5,19.2,6.9L19.2,6.9z M42.3,88.6c-0.6,0.2-1.1,0.3-1.7,0.3V89c-0.2,0.2-0.4,0.3-0.6,0.6c-1-0.2-1.9-0.4-2.9-0.5
	c-0.2,0.2-0.4,0.2-0.2,0.2c1.8,1.3,3.7,2.3,5.8,3c-0.1,0.2-0.2,0.2-0.2,0.3c-0.1,0-0.1,0.2,0.1,0.4c0.6-0.3,1.2-0.4,1.8-0.3
	c-1.2,0.5-2.5,0.8-3.8,1.1c-2-1.2-4.1-2.2-6.3-3.2c-0.2-0.7-0.3-1.5-0.4-2.2c0.1-0.1,0.3-0.1,0.4,0c-0.1,0.1-0.1,0.2-0.2,0.2
	c0.4,0.2,0.8,0.3,1.3,0.2c0.2,0.1,0.5,0.2,0.8,0.2c0-0.1,0-0.1,0.1-0.2l0.3,0.2c2.2-0.5,4.4-0.9,6.7-1.3c0.4,0.4,0.8,0.8,1.4,1
	c2.4,1.3,4.4,1.8,6.2,1.2c-0.8,0.3-1.3,0.7-2,1l-1.7,0.4C45.4,90.7,43.8,89.7,42.3,88.6z M35.3,93.1c0-0.1-0.1-0.3-0.2-0.4
	c-0.1-0.5-0.4-1-0.5-1.4c1.8,1,3.7,1.8,5.7,2.5c-1.7,0.3-3.5,0.1-5.1-0.6L35.3,93.1z M36.1,96.7c-0.1-0.6-0.3-1.1-0.5-1.7
	c0.2,0.2,0.4,0.4,0.7,0.5c2.1,0,4.2-0.2,6.3-0.6c0.5,0.7,1,1.4,1.7,1.9c-2.6,0.8-5.3,0.9-7.9,0.3C36.2,97.1,36.1,96.9,36.1,96.7
	L36.1,96.7z M43.6,99.3c-0.1-0.1-0.3-0.1-0.4,0l0.3-0.1L43.6,99.3z M50.6,88.5c0.2,0.1,0.3,0.3,0.4,0.5l0.2,0.8
	c-0.2-0.1-0.3-0.3-0.5-0.3c-1.5-0.7-3.2-1.4-4.8-2c1.1,0,2.4,0.1,3.5,0.1c0.3,0.1,0.5,0.3,0.7,0.5l0,0
	C50.2,88.3,50.3,88.4,50.6,88.5L50.6,88.5z"/>
<path class="st1" d="M38.4,33c0,0.1-0.1,0.3,0,0.4c-0.4,0.7-0.8,1.6-0.9,2.4c-0.8,0.3-1.7,0.6-2.6,0.8c-0.1,0-0.1,0-0.2-0.1
	c0,0,0,0,0,0c-2.2-1-4.2-1.9-6.1-2.6L28.5,34c0.3,0.3,0.6,0.5,1,0.6c0.2,0.2,0.4,0.3,0.4,0.5c0.3,0.2,0.5,0.5,0.7,0.8
	c0.3,0.2,0.6,0.3,0.9,0.3c1.1,0.4,2.2,1,3,1.8c1.2-0.3,2.4-0.6,3.6-1c0-0.2,0.1-0.4,0.1-0.6c0.1-0.8,0.4-1.5,0.7-2.2l1-0.3
	c0.2,0.1,0.5,0.2,0.8,0.4l0.5-0.1c-0.1,0-0.1,0-0.1,0.2c-0.1,0-0.1,0.2-0.1,0.3c0.2,0.2,0.4,0.4,0.7,0.4c-0.2,0.5-0.2,0.8-0.4,1.2
	l0.1,0.4l0.9,0.2c-2.9,5.4-4.3,11.5-4,17.6c-0.1,0.4-0.1,0.7,0,1.1c0.2-0.2,0.5-0.2,0.7-0.5c0.1-0.4,0.3-0.7,0.5-1l-0.1-0.5
	c0.9-5.4,2.2-10.7,4-15.9c0-0.1,0-0.2,0.1-0.3c0.1-0.3,0-0.4,0.2-0.5h0.1c0.2-0.1,0.4-0.2,0.5-0.4c0.1-0.2,0.2-0.4,0.1-0.6
	c-0.1-0.5-0.3-1-0.5-1.4c-0.1-0.4-0.3-0.7-0.5-1l-1.4,0.3c0-0.1-0.2-0.1-0.2-0.2c-0.7-0.2-1.5-0.6-2.3-0.8L38.4,33z"/>
<path class="st1" d="M34.4,48.9l-0.1-0.5c-0.2-0.1-0.4-0.3-0.5-0.4c-0.7,0-1.3,0.2-2,0.2c-0.4,0-0.7,0-1.1,0
	c-0.1,0.2-0.2,0.5-0.3,0.5c0,0.1-0.1,0.3,0,0.5c0.1,0.1,0.1,0.3,0,0.4c-0.4,0.3-0.8,0.5-1.2,0.7c-0.1,0.2-0.2,0.2-0.5,0.4L28.5,51
	c0.1,0.7,0.3,1.3,0.6,1.9c0.1,0.3,0.3,0.6,0.4,0.9c0.8-0.1,1.7-0.1,2.5,0v0.1l0.7,3c1.5,7.3,3.7,14.5,6.3,21.5
	c0.2-0.1,0.4-0.2,0.5-0.4c0-0.1,0-0.3,0-0.4l-0.7-2.8c-2.2-6.9-4-14-5.6-21.3c0.3-0.1,0.3-0.3,0.5-0.5s0.2-0.2,0.3-0.4
	c1.5,8.4,3.6,16.7,6.3,24.8c0.1,0,0.1-0.2,0.1-0.3C39,68.6,37,60.2,34.6,52l0.1-0.2c0.2-0.1,0.3-0.4,0.3-0.6l-0.3-1.4L34.4,48.9z"/>
<path class="st1" d="M10.6,23.2c3.1-5.1,6.7-9.9,10.6-14.4c-5.4,3.8-9.7,8.9-12.7,14.8C6.3,28,5.7,32.3,7.2,36.3
	C6.9,31.7,8.1,27.1,10.6,23.2z"/>
<path class="st1" d="M28.5,36h-0.1c-0.2,0.7-0.3,1.5-0.1,2.2c-0.2,0.6-0.6,1.2-1,1.7c-3.1,0.9-6.4,0.8-9.5-0.2
	c-0.1,0.2-0.2,0.5-0.2,0.8c4.5,2.6,8.5,2.3,11.9-0.7c-0.1-0.2-0.1-0.4,0-0.5C29.5,38.1,29.2,37,28.5,36z"/>
<path class="st1" d="M10,47.4c-0.3,0.1-0.4,0.1-0.4,0.2c2.4,3.9,5.5,7.4,9,10.3c0.1,0,0.1-0.1,0.1-0.2c0,0,0,0,0,0
	C15.9,54.4,12.9,50.8,10,47.4z"/>
<path class="st1" d="M20.2,44.2c-0.3,0.1-0.4,0.1-0.4,0.2c2.9,5.7,6.3,11.3,9.9,16.5c0.1-0.3,0.2-0.5,0-0.5
	C27.5,54.6,24.3,49.1,20.2,44.2z"/>
</svg>
