<?xml version="1.0" encoding="utf-8"?>
<!-- Generator: Adobe Illustrator 26.2.1, SVG Export Plug-In . SVG Version: 6.00 Build 0)  -->
<svg version="1.1" id="Layer_1" xmlns="http://www.w3.org/2000/svg" xmlns:xlink="http://www.w3.org/1999/xlink" x="0px" y="0px"
	 viewBox="0 0 110.2 113.2" style="enable-background:new 0 0 110.2 113.2;" xml:space="preserve">
<style type="text/css">
	.st0{opacity:0.7;fill:#E7C582;}
	.st1{fill:#F1E4B2;}
	.st2{fill:#333333;}
</style>
<path class="st0" d="M12,9.2L9.4,9.7l4.6,11l4.3-2.5L11,8.8l-5.2,4.8C0.4,18.5,7.2,25.8,13,23l9-4.2l-7.2-9.4L6.7,16
	c-4.9,4,0.4,11.4,5.8,10c4.1-1,8-2.4,11.8-4.2l-7.3-9.4L6.6,20.8c-4.6,3.6,0.4,12.3,5.8,10c6.2-2.5,12.2-5.5,18-8.8l-6-10.3
	L6.8,23.5c-5.2,3.5-2,13.7,4.6,11L43.9,21l-4.6-11L23.4,21.5c-6.3,4.6-1,13.4,6.1,10.4l34.2-14.6l-6-10.4L22.1,26.1
	c-7,3.8-0.8,13.3,6,10.4l60.5-25.5L82.6,0.5L8.5,36c-6.2,3-1.8,12.9,4.6,11c25.5-7.6,50.1-17.6,74.7-27.7l-4.6-11l-52.8,26
	c-6,3-1.7,13.5,4.6,11l69.1-28c7-2.9,4.1-14.4-3.2-11.6L28.8,33.4c-7.1,2.7-4.4,13.7,3.2,11.6c14.5-4.1,28.9-8.8,43.1-14
	c7.2-2.6,4.2-14-3.2-11.6c-9.7,3.2-19.3,6.9-28.7,11.1c-7.3,3.3-18.6,6.7-20.5,15.6c-0.6,2.9,0.8,6.8,4.2,7.4
	C38,55.3,48.9,54,60,52.3l-3.2-11.6c-6.4,2.6-12.4,6.3-17.4,11c-3,2.8-1.9,9.4,2.6,10c7.9,1.1,15.4,0.5,22.8-2.5
	c5.8-2.4,5.8-12.1-1.6-11.8c-11.1,0.4-22,3.3-31.9,8.5c-5,2.7-3,11.8,3,11.2c6.4-0.7,11.8-3,16.2-7.7c2.3-2.4,2.1-6.3-0.3-8.6
	c-1.5-1.4-3.6-1.9-5.5-1.4l-4.8,1.1c-6.5,1.5-5.2,12.4,1.6,11.8c7.4-0.7,9.4-11.3,1.4-13.1c-6.1-1.4-16.5,3.6-18.4,9.5
	c-0.6,2.1,0,4.3,1.6,5.8c1.3,1.5,3.3,2.2,5.3,2.1c2.6-0.3,5.1-1.6,5.8-4.4l0.1-0.5c0.8-3.2-1.1-6.4-4.2-7.4C25.9,52,18.2,51.9,11,54
	c-6.3,1.9-5.3,12,1.6,11.8c6.2-0.1,11.5-5.2,10.1-11.7c-1.2-5.7-7.5-8.5-12.7-6.9C3.9,49.1,4.7,59.9,11.6,59
	c5.8-0.7,10.2-3.8,11.8-9.6c1.3-4.6-3-8.4-7.4-7.4C8.9,43.5,3.9,50,4.4,57.3c0.6,8.1,7.3,13,14.8,14.2C28.3,73,37.8,73,47,73.3
	c10.1,0.4,20.3,0.6,30.4,0.4C85,73.4,95,73,101,67.6s6.7-15.4,7.6-22.9c1-8,2.8-20.1-1.5-27.4c-4-6.8-14.4-8.6-21.5-10
	c-9.9-1.8-19.9-2.4-29.9-2c-8.7,0.2-17.7,1-24.2,7.5c-1.5,1.5-2.1,3.8-1.5,5.8c2.8,8.4,11.2,10.2,19.2,10.3
	c11.2,0.1,22.3-2,33.5-1.8c1.1,0,6.4,1.1,7.1,0.5l0.2-5.3c-0.7,0.2-1.4,0.3-2.2,0.4c-1.2,0.2-2.5,0.3-3.7,0.5l-15.7,2.2
	C59.8,26.6,50,27.5,45.6,36c-1.6,2.9-0.6,6.6,2.3,8.3c0.4,0.2,0.8,0.4,1.3,0.5C59.6,47.8,69,41,79.2,40c1.7-0.2,5,0.5,6.5-0.2
	c1.1-0.5-1-0.9-1.7-0.9s-2.4,0.9-3.3,1.2C75,41.9,69,42.7,63.1,42.4l3,11.2c10.1-4.8,30.8-2.6,34-16.2H88.5c0.7,2.2,1.2,4.3,1.6,6.6
	c0.2,1,0.3,2.1,0.3,3.1c-0.5-0.3-1.2-0.2-1.6,0.3c-3.3,2-8.8,2.2-12.5,2.8c-8.5,1.3-16.8,2.6-24.4,6.8c-5.2,2.8-2.9,11.4,3,11.2
	c10.6-0.4,21.2-0.9,31.8-1.6c7.7-0.5,7.7-12.5,0-12c-10.6,0.7-21.2,1.2-31.8,1.6l3,11.2c10-5.5,21.9-4.6,32.6-7.9
	c4.6-1.4,9.5-3.4,11.2-8.2c1.8-5.2-0.2-12-1.7-17c-1.6-5.5-10.2-5.9-11.6,0c-0.6,2.8-9.7,3.4-12.2,3.8c-5.6,1-11.1,2.8-16.3,5.2
	c-5.7,2.7-2.5,11,3,11.2c8.5,0.4,17-1,24.9-4.1c6.8-2.8,12.6-10,7.9-17.3c-4-6.3-12.8-5.4-19.1-4.6c-4,0.5-7.9,1.4-11.8,2.7
	c-4.1,1.4-8.2,3.5-12.6,2.3l3.6,8.8c1.8-3.5,6.5-3.8,10-4.3c5.8-0.9,11.7-1.6,17.6-2.4c4.5-0.6,10.2-0.5,14-3.5
	c3.6-2.7,4.5-7.8,2-11.5c-5.4-7.8-20.4-5.5-28.4-4.9C65.1,16,59,16.6,53,16.8c-1.7,0.1-10.7,1.1-11.5-1.4l-1.5,5.8
	c4.6-4.6,12.4-3.9,18.3-4c7.8-0.3,15.5,0.3,23.2,1.5c3.8,0.7,7.5,1.6,11.1,2.8c4.7,1.6,4.6,3.2,4.7,8c0.3,8.3-0.6,16.7-2.5,24.8
	c-0.7,3-1.4,4.5-4.4,5.6c-4.1,1.5-8.7,1.6-13,1.7c-8.5,0.2-17,0-25.4-0.2s-17.1-0.6-25.7-1.2c-2.6-0.2-6.4,0.1-8.6-1.6
	c-2.6-1.9-1.2-4.4,1.5-5l-7.4-7.5c0,0.3-0.1,0.6-0.2,0.8l1.6,11.8l-0.6-5l1.6,11.8c5.1-1.5,10.5-1.4,15.5,0.4l-4.2-7.4l-0.1,0.5
	l5.8-4.4l-0.6,0.1l4.2,1.8l-0.4-0.4l1.6,5.8c-1,3,3.6-1.1,4.4-0.8L36.2,57l0.1,0.5l0.6-4.7l-0.2,0.5l5.2-3h-0.4l1.6,11.8l4.8-1.1
	l-5.8-10c-1.9,2.3-4.7,3.8-7.7,4.2l3,11.2c8-4.2,16.8-6.6,25.8-6.9l-1.6-11.8c-5.1,2.3-10.8,3.1-16.4,2.5l2.7,10
	c3.5-3.4,7.6-6,12.1-7.9c7.2-2.9,4.5-12.7-3.2-11.6c-8.8,1.3-17.9,2.6-26.8,1.1l4.2,7.4c0.5-2.4,5.6-4,7.6-5
	c3.6-1.7,7.2-3.4,10.8-4.9c7.4-3.2,14.9-5.9,22.5-8.4l-3.2-11.5c-14.2,5.2-28.5,9.9-43,14L32,44.9l72.1-27.7L101,5.7l-69.1,28
	l4.6,11l52.8-26c6-3,1.7-13.6-4.6-11C60.1,17.8,35.5,27.8,10,35.4l4.6,11l74-35.5c7.1-3.4,0.9-13.3-6-10.4L22.1,26.1l6,10.4
	l35.5-19.2c7-3.8,0.8-13.3-6-10.4L23.4,21.5l6.1,10.4l15.8-11.5c5-3.6,2.2-13.8-4.6-11L8.2,22.9l4.6,11L30.4,22
	c6.3-4.3,0.7-14.3-6.1-10.4c-4.9,2.9-9.9,5.4-15.2,7.7l5.8,10l10.5-8.4c5.7-4.5-1.6-12-7.3-9.4c-2.9,1.3-5.9,2.3-8.9,3l5.8,10
	l8.1-6.6c5.6-4.6-1.5-12.1-7.3-9.4l-9,4.2l7.3,9.4l5.3-4.9c5.1-4.7-1.4-12.7-7.3-9.4l-4.4,2.5c-6.3,3.6-1.8,12,4.6,11l2.7-0.4
	C22.8,19.5,19.5,8,12,9.2z"/>
<path class="st1" d="M56.2,73c1.9,5.3,2.3,11.1,1.1,16.6c-1.1,5,6.6,7.2,7.7,2.1c1.6-6.9,1.2-14.1-1.1-20.8
	C62.2,66.1,54.5,68.2,56.2,73L56.2,73z"/>
<path class="st2" d="M60.6,98.5L60.6,98.5c-1.6,2.1-3.4,4.1-5.3,5.8c-2.6,2.1-5.6,3.9-8.7,5.2c-0.5,0.4-1.1,0.7-1.6,1
	c2.2-0.9,4.4-2,6.5-3.2c0,0.1-0.1,0.2-0.2,0.2h0c-3.1,2.1-6.4,3.8-9.9,5c-0.2,0.3-0.4,0.6-0.7,0.8h-0.2c0.2-0.2,0.3-0.3,0.3-0.5
	c-0.4,0.2-0.8,0.3-1.3,0.3c-0.5,0.2-1.1,0.1-1.6-0.2c0.9-0.2,1.8-0.5,2.8-0.8c-0.3,0-0.5,0-0.7-0.2c0.6,0,1.1-0.2,1.6-0.3
	c0.2-0.2,0.2-0.3,0.5-0.5c-0.6,0.2-1.2,0.3-1.8,0.3l0,0l-0.2-0.2v-0.2h0.6c0.1-0.1,0.2-0.1,0.3-0.2h-0.2l1.5-0.5L43,110
	c-1.2,0.6-2.3,1-3.5,1.4l0,0c-0.2,0-0.2,0-0.2-0.2v-0.2c1-0.3,1.9-0.8,2.7-1.5c0.6-0.4,1.2-0.8,1.8-1.3c-1.3,0.8-2.6,1.5-3.7,2.1
	c-0.3,0-0.5,0-0.3-0.2c2.1-1,4-2.2,5.8-3.6c2.5-2.6,4.9-5.3,7-8.2c0.1-0.1,0.1-0.2,0.2-0.3c0.2-0.2,0.3-0.5,0.3-0.8
	c0.5-1.5,1-3.1,1.5-4.7c-0.5,0.8-1,1.4-1.5,2.3h-0.2c0.7-1.1,1.4-2.3,1.9-3.6c0-1.1,0.2-2.2,0.4-3.4c0-1,0.1-2,0.3-2.9v-0.2
	c-0.2-1.1-0.3-2.2-0.3-3.2c-0.3-3.5-1.6-6.9-3.9-9.7c-0.2,0-0.2,0-0.3,0.2h-0.2c-0.7,0.1-1.4,0.2-2.1,0.2c-3.1-0.2-6-0.2-9-0.3
	c0,0.2,0,0.2,0.2,0.2h-0.7c-0.7-0.1-1.3-0.2-2-0.2h-8.2c-2.1-0.2-4.2-0.2-6.3-0.2C21,72,19.2,72,17.5,72.2l0,0c-2,0.1-4,0.1-6-0.2
	c-0.4,0-0.9,0-1.3-0.2c1,0,2.1-0.2,3.2-0.2c-0.2-0.2-0.3-0.3-0.5-0.3H12c-0.5,0-1.1-0.2-1.6-0.2h0.2c-0.4,0-0.8-0.1-1.1-0.3H9.2
	c-0.2,0-0.5,0-0.6-0.2v-0.2C8,70.4,7.5,70.1,7,69.7c-0.6-0.3-1.1-0.7-1.6-1.1c-1.6-1.1-2.7-2.7-3.3-4.6H1.9v-0.3
	c-0.2-0.3-0.3-0.6-0.3-1v-2.5c0.1,0,0.2,0.1,0.2,0.2h0.2c-0.2-0.3,0-0.6,0-0.8v-0.3c-0.2-1.4-0.4-2.9-0.5-4.4v2.9
	C1.1,57.6,1,57.1,1,56.4c-0.2-1.8-0.3-3.5-0.3-5.3c-0.1-2.5-0.1-5,0.2-7.4v-2.3C0.3,39.7,0,37.9,0,36.1v-5.6c0-3.7,0.2-7.4,0.6-11
	c-0.1-0.6-0.2-1.2-0.2-1.8c-0.1-0.6-0.2-1.3-0.2-1.9c-0.2,0-0.2-0.3,0-0.8c0.6-1.4,1.3-2.7,2.3-3.9C4,7.9,6.1,5.8,9.4,5
	C9.2,5,9.1,5.2,8.9,5.2C6.8,6,5,7.5,4,9.6c1.4-1.3,3-2.4,4.7-3.2c1.5-1.2,3.3-1.7,5.2-1.6l0,0c0,0.5,0,0.7-0.3,0.5
	C13.2,5,12.7,4.9,12.3,5c-0.3,0.2-0.8,0.2-1.1,0.5c-0.5,0.3-0.8,0.8-1.3,1v0.3c0,0.1,0,0.2-0.1,0.2c0,0,0,0,0,0
	c0.9-0.3,1.9-0.6,2.9-0.8h-0.8c-0.2,0-0.2,0-0.2-0.2V5.8c1,0,2-0.1,2.9-0.3c-0.8,0-1.5,0-2.3,0.2l-0.2-0.2c0.4,0,0.8,0,1.1-0.2
	c2.4-0.2,5-0.5,7.6-0.8c0.6,0,1.2,0,1.8-0.2c0.2,0,0.5-0.2,0.6-0.3c0,0.2,0,0.2-0.2,0.2S23,4.4,22.8,4.4l5.3-0.5h-6
	c1.3,0,2.6-0.2,3.9-0.2c3.1-0.2,6.3-0.2,9.4-0.3c0.3,0,0.5-0.2,0.8-0.2l0,0c-0.1,0.1-0.3,0.2-0.5,0.2h3.1c3.6-0.2,7-0.3,10.4-0.3
	C50.1,3,51,2.9,51.9,2.9h0.3c1.3,0,2.6,0.2,3.9,0.2h11.5c2-0.2,4.1-0.2,6.1,0c1.8-0.2,3.6,0,5.5,0c2.1,0,4.2,0,6.5,0.2h2.6
	c-0.3,0-0.7,0-1-0.2c0.6-0.1,1.2-0.1,1.8,0c0.7,0,1.1,0.2,1.9,0.2c2.8,0.2,5.5,0.5,8.2,1c0.2,0,0.3-0.2,0.5-0.2
	c0.3,0.2,0.5,0.3,0.8,0.5s0.8,0.3,1.1,0.5c0.2,0,0.3,0.2,0.7,0.3h0.2c1,0.8,1.9,1.7,2.8,2.7c0.2,0.4,0.5,0.8,0.8,1.1
	c-0.7-1.1-1.3-2.1-1.8-2.9c-1-0.8-2.1-1.4-3.3-1.8c0.3-0.5,0.7-0.5,1.1-0.2c2.6,0.9,4.5,3,5.4,5.6l0,0c-0.7-0.8-1.1-1.6-1.8-2.3
	c1.3,1.5,2.2,3.3,2.8,5.3c0.5,0.9,0.9,1.9,1.1,2.9c-0.2,0-0.3-0.2-0.5-0.3c0-0.2-0.2-0.3-0.2-0.6c0.1,1,0.1,2,0,3.1
	c0.2,0.7,0.2,1.5,0,2.3v1l0.5,15c0.2,2.8,0.3,5.5,0.3,8.1c0.1,0,0.2,0.1,0.3,0.2v2.4c0.2,1.8,0.2,3.6,0,5.3c0.2,3-0.4,6-1.7,8.7v0.2
	c-0.2,1-0.4,2.1-0.8,3.1c0.7-1.1,1.2-2.2,1.6-3.4l0.2,0.2v0.3c-0.6,2.2-1.7,4.1-3.2,5.8c-1.4,2.4-3.6,4.1-6.3,4.7v-0.2
	c-0.2,0-0.2,0-0.2-0.2c-0.4,0.2-0.8,0.3-1.3,0.3c0.4,0.1,0.9,0.2,1.3,0.2c-4.8,0.6-9.6,1-14.4,1.1c-3.2,0.2-6.3,0.2-9.5,0.2
	c-2.9,0-5.8,0-8.7-0.2c0.1,2.6,0,5.2-0.3,7.8c-0.1,1.9-0.3,3.7-0.8,5.5c-0.3,1.5-0.8,2.8-1.1,4C63.8,93.2,62.3,95.9,60.6,98.5z
	 M59.6,98.2c0.4-0.4,0.7-0.9,1-1.5c0-0.1,0.1-0.2,0.2-0.2h0c1-1.5,1.8-3,2.4-4.7c-0.6,1.1-1.3,2.2-2.1,3.2c-0.1,0-0.2,0.1-0.3,0.2
	c-0.2-0.2-0.2-0.2,0-0.3c1.7-2.3,2.9-4.9,3.7-7.6c0.5-1.9,0.8-3.9,0.8-5.8c0.2-3.2,0.2-6.3,0.2-9.4h-2.8c0.9-0.1,1.8-0.2,2.8-0.1
	l0,0h1c0.1,0,0.2-0.1,0.3-0.2c0-0.1,0.1-0.2,0.2-0.3l0,0c-0.1-0.5-0.1-1.1,0-1.6v0.7c0.1,0.3,0.2,0.7,0.2,1c2.1-0.2,4.2-0.3,6.3-0.3
	l6.3-0.5c-4.4-0.2-8.6-0.3-12.8-0.2c2.4-0.4,4.8-0.5,7.2-0.6c1.9,0,3.9-0.2,5.8,0l3.9,0.5h1.9c2.8,0,5.5-0.2,8.4,0
	c2-0.8,3.9-1.8,5.7-3.1c1.1-0.7,2.1-1.6,2.9-2.6c0.8-1,1.3-1.5,1.8-1.5v0.2c-1.8,2.8-4.5,5-7.6,6.2c0.9,0,1.7-0.1,2.6-0.3
	c0.6,0,1.3-0.3,1.8-0.7c0.2,0,0.2-0.2,0.3-0.2c1.9-2,3.6-4.3,5-6.8h0.3v0.2c-0.3,0.5-0.5,1-0.8,1.5c-0.2,0.2-0.2,0.5-0.3,0.6
	c0.2,0,0.2-0.2,0.3-0.2c0-0.3,0.2-0.3,0.5-0.3l-0.2,0.2c-0.2,0.3-0.3,0.8-0.5,1.1c0.5-0.7,1-1.5,1.4-2.3h-0.3
	c0.2-0.2,0.2-0.2,0.2-0.3c0.4-0.5,0.6-1.1,0.8-1.8v-1.1c-0.1-0.4-0.2-0.7-0.2-1.1c0.2-1.6,0.5-3.2,0.6-5c-0.1-0.7-0.2-1.4-0.2-2.1
	c-0.2,2.6-0.3,5.2-0.7,7.8v-0.2c0-3.4,0.3-6.8,0.5-10.2v-6.8c0-1.9,0-3.9-0.2-5.8v-4.5c-0.2-1-0.3-2-0.3-3.1h0.2
	c0-2.4-0.3-4.9-0.3-7.4h0.2c0-1-0.1-2-0.3-2.9c-0.7-3.2-2-6.3-3.7-9.1c-1.1-0.8-2.3-1.6-3.6-2.3c0,0.2,0,0.4,0.2,0.5
	C100.2,7,100.2,7,100.1,7c-0.2-0.2-0.3-0.3-0.3-0.5c-0.6-0.2-1.1-0.4-1.6-0.7c0.7,0,1.3,0.1,1.9,0.3c0.2-0.1,0.5-0.2,0.8-0.2
	c0.5,0,0.9,0.2,1.3,0.5c0.3,0.3,0.8,0.6,1.1,1V7.3c0.2,0.2,0.3,0.3,0.3,0.5c0.2,0.2,0.4,0.3,0.7,0.3v0.2c0-0.2-0.2-0.3-0.2-0.5
	c-0.7-0.9-1.6-1.6-2.6-2.3h-0.2V5.4c-0.6-0.2-1.1-0.5-1.6-0.8h-0.3c1.1,0.4,2.1,1,2.9,1.8l0,0c-1.3-0.5-2.6-0.8-3.9-1.1
	c0.1,0,0.2,0.1,0.3,0.2c-1.3,0-2.6-0.2-3.9-0.4c-0.7,0-1.4-0.2-2.3-0.2h-1.3C87,5,82.8,5,78.6,5C75,6.2,71.1,7.3,67.4,8.6h-0.3
	C70.4,7,73.9,5.8,77.4,5c-1.4,0.1-2.8,0.1-4.2,0c0.2,0.2,0.3,0.3,0.3,0.5h-0.8c-0.3-0.1-0.5-0.2-0.8-0.2c-0.2,0-0.2,0-0.2-0.2
	c-0.7,0.3-1.5,0.5-2.3,0.7c0.6,0.2,1.3,0.3,2.1,0.5h-1.5c-0.5-0.1-1-0.2-1.4-0.2c-2.4,0.8-4.8,1.7-7.1,2.8l0,0C62,8.4,62.5,8,63,7.6
	c1.3-0.6,2.6-1,4-1.5c-1-0.2-1.8-0.2-2.7-0.3c-2.4,1.2-4.8,2.1-7.2,3.4c-0.3,0-0.3,0-0.2-0.2c2-1.2,4-2.3,6.1-3.2
	c-1.1,0-2.2,0-3.2-0.2C58.2,6.3,56.6,7,55,7.8l0,0c1.2-0.9,2.5-1.6,3.9-2.1h-1.7c-2.9,0.8-5.8,1.8-8.6,3.1l-0.2,0.2
	c1-0.6,1.9-1.3,3.1-1.9c1.1-0.5,2.3-1,3.4-1.3h-1.5V5.5h-0.6c-3.2,0.8-6.3,2-9.2,3.5h-0.3c2.6-1.6,5.3-2.9,8.2-3.7
	c-1.2,0.1-2.5,0.1-3.7,0c-2.6,1-5.3,2.1-8.1,3.2c-0.3,0-0.2-0.3,0.5-0.7c2.2-1,4.5-1.9,6.8-2.6h-4.4c-2.6,1.1-5.2,2.4-7.6,3.9V9.1
	c2.1-1.5,4.4-2.8,6.8-3.7c-2-0.2-4.1-0.2-6.1,0c-2.1,0.9-4.1,2-6,3.2c0-0.5,0.5-1,1.5-1.6c1-0.6,2.1-1.2,3.2-1.6l0,0
	C34.7,5.2,34.9,5,35.2,5c-0.6,0-1.2,0-1.8,0.2V5h-0.2c0.4,0,0.8,0,1.1-0.2h-1.9c-0.6,0.2-1.1,0.5-1.6,0.8h-0.2
	c-1.8,1.1-3.7,2.1-5.5,3.1h-0.2c0.6-0.5,1.3-1,2.1-1.3H27c-1-0.2-1.8-0.3-2.6-0.5c-1.3,1-2.4,1.8-3.5,2.8c-0.2,0-0.2,0-0.2-0.2
	c1-1,1.9-1.8,2.9-2.6h-1.8c-1.7,1-3.3,2.2-4.8,3.6h-0.2C18.2,9.2,19.6,8,21.2,7h-2.1l-3.9,2.9C15,10,15,10,15,9.9
	c1.1-1,2.4-2.1,3.5-2.9l-4.9,0.5c-1.4,0.6-2.9,1.3-4.2,2.1L7.6,11c-0.1,0-0.2-0.1-0.2-0.2c-0.5,0.2-1,0.5-1.4,0.8
	c-0.6,0.6-1.3,1.5-1.9,2.3c-0.4,0.6-0.7,1.3-1,1.9H2.9c0.1-0.8,0.3-1.5,0.6-2.3C3.2,13.8,3,14,2.8,14.2c-0.2,0-0.2,0-0.2-0.2
	c0.4-0.3,0.8-0.6,1.1-1c0-0.3,0.2-0.5,0.3-0.8c0,0.2-0.1,0.3-0.3,0.3H3.6l0.8-0.8c0-0.2,0.2-0.3,0.3-0.5C5.3,10.5,6,9.6,6.6,8.8
	c-1.5,1.3-2.7,2.7-3.7,4.4c-0.7,2.3-1.1,4.6-1.3,7c0.1,0.4,0.2,0.7,0.2,1.1c0,2.1,0,3.9,0.2,6c2.4-2.7,5.2-5,8.4-6.8h0.2
	c0,0.1-0.1,0.2-0.2,0.2c-3,2.1-5.8,4.4-8.4,7c0,2.9,0.2,5.8,0,8.7C4.9,35.5,7.6,34,9.9,32c0.1,0,0.2,0.1,0.2,0.2v0.2
	c-0.1,0.1-0.2,0.2-0.3,0.2c-2.2,1.9-4.9,3.3-7.8,3.9c0.1,3.1,0.3,6.3,0.7,9.4c0.2,1.8,0.3,3.7,0.5,5.5c2.1-1.6,4-3.2,5.8-4.8h0.2
	v0.2c-0.2,0.2-0.2,0.2-0.3,0.2c-1.6,1.8-3.5,3.3-5.5,4.7H3.1c0.3,1.8,0.3,3.6,0.5,5.3c2.4-1.8,4.7-3.4,6.8-5v0.3
	c-2.1,1.8-4.4,3.4-6.8,4.8c0.2,1,0.2,1.9,0.3,2.8c1.8-1.5,3.6-3.1,5.5-4.7H10c0,0.2,0,0.2-0.2,0.2c-1.9,1.8-3.8,3.2-6,4.8v0.7
	c-0.1-0.2-0.2-0.4-0.2-0.7c-0.2,0.2-0.3,0.3-0.5,0.3H3.1c0.2-0.2,0.5-0.3,0.6-0.5c-0.2-0.8-0.5-1.6-0.7-2.6
	c-0.1,0.1-0.2,0.1-0.3,0.2v1.1c0,0.8,0.2,1.5,0.2,2.1c0.4,1.2,0.9,2.2,1.6,3.2c0.5,0.6,1,1.3,1.5,1.9c0.2,0,0.3-0.1,0.3-0.3
	c-0.9-1.1-1.7-2.3-2.3-3.6c0-0.3,0-0.6,0.2-0.8v-1l0.2,0.2v0.2c0,1,0.3,1.9,1,2.6c1.4-1.3,2.7-2.6,4.2-4H10v0.2
	c-1.6,1.3-3.1,2.8-4.7,4l0.3,0.3C6,64.1,6.5,64.6,7,65c1.1-1.1,2.3-2.4,3.4-3.7h0.3l0.2,0.2h-0.2c-1.2,1.3-2.5,2.4-3.6,3.6
	c0.3,0.5,0.6,0.9,1,1.3c0.2,0.3,0.3,0.3,0.3,0.5c0.6-0.5,1.1-1,1.6-1.6c0.6-0.8,1.1-1,1.6-0.8c-0.2,0-0.2,0-0.2,0.2
	c-0.1,0.1-0.3,0.2-0.5,0.2c0,0.1-0.1,0.2-0.2,0.2c0,0,0,0,0,0c-0.6,0.8-1.3,1.5-2.1,2.1c0.3,0.5,0.6,0.8,0.8,1.1
	c0.9-0.7,1.8-1.4,2.6-2.3c0.1-0.1,0.3-0.2,0.4-0.1c0,0,0,0,0.1,0.1l0.2,0.2h-0.2c0,0.2,0,0.2-0.2,0.3c-0.1,0-0.2,0.1-0.2,0.2l0,0
	c-0.7,0.7-1.6,1.4-2.4,1.9l0.5,0.5c0.3-0.2,0.6-0.4,0.8-0.6c1.2-1.2,2.8-1.9,4.5-2.1v0.2c-1.7,0.9-3.4,1.8-5,2.9
	c0.5,0.3,1,0.8,1.6,1.3h0.3c1,0,1.9,0.2,3.1,0.2H16c1.8-1.1,3.7-2.1,5.6-2.8l-0.2,0.2c-1.6,0.8-3.2,1.6-5,2.6c0.8,0,1.6-0.2,2.4-0.2
	c2-1,4.1-1.7,6.3-1.9v0.2c-0.2,0.2-0.2,0.2-0.2,0.3c-0.2,0-0.2,0-0.2,0.2h-0.3c-1.6,0.3-3.2,0.8-4.7,1.4H23l0.2-0.2
	c0-0.1,0.1-0.2,0.2-0.2c0,0,0,0,0,0c0.2-0.2,0.5-0.3,0.6-0.5c0.1,0,0.2,0.1,0.2,0.2l0,0L24,70.2c-0.1,0.1-0.2,0.1-0.3,0.2h0.8
	c1.9-0.5,3.9-0.8,5.8-1l0,0c-1.3,0.4-2.6,0.8-4,1.1h6.2l9-1c0.9-0.1,1.9-0.3,2.8-0.7c-1.2,0.7-2.6,1.2-4,1.5
	c-0.2,0.1-0.5,0.2-0.8,0.2L48,71c0.5,0,1.3-0.2,1.9-0.2c0-0.2,0-0.2-0.2-0.2h-0.3c0-0.2,0-0.4-0.2-0.5c0.2-0.3,0.3-0.3,0.7-0.2
	l1,0.5h1c-0.2,0.2-0.4,0.3-0.7,0.3l0.3,0.3c0.2,0.1,0.4,0.2,0.7,0.2v0.2l0,0c0,0.1-0.1,0.2-0.2,0.2h0c0.8,1,1.5,2.1,1.9,3.3l0.5,1
	h0.2c-0.8-2.8-2.2-5.5-4-7.8c2.1,1.7,3.6,3.9,4.4,6.5c0.2-1.9,0.2-3.8,0-5.7c0.3,0,0.5,0.2,0.6,0.5v0.2c0,1.6,0,3.2-0.2,5
	c0.1-0.9,0.4-1.7,0.7-2.6c0.2-1,0.3-1.3,0.8-1.6v0.2c-0.2,0.7-0.2,1.1-0.3,1.6h0.3v0.3c-0.2,2.1-0.5,4.1-1,6.1
	c0.2,0.8,0.3,1.5,0.5,2.3c0-0.3,0.2-0.7,0.2-1c-0.2-1.1-0.2-2.1-0.3-2.9c0.1,0,0.2,0.1,0.2,0.2l0,0l0.5,1.9c0-0.2,0.2-0.7,0.2-1
	v-2.5c0.2,0.6,0.3,1.2,0.3,1.8l0.5-1c0.1,0,0.2,0.1,0.3,0.2v0.2c0,0.5-0.2,0.9-0.5,1.3v0.2c0,0.4,0.1,0.8,0.3,1.2
	c0.2-0.4,0.3-0.8,0.3-1.3h0.5v0.2c-0.2,1.1-0.3,2.1-0.5,3.2V83c0,4.9-1.3,9.8-3.8,14c-0.3,0.7-0.8,1.3-1.1,2.1
	c-0.7,1.1-1.3,2.3-1.9,3.2l0.2-0.2c-0.2,0.2-0.2,0.2-0.2,0.3c-0.1,0.1-0.2,0.1-0.3,0.2c-0.6,1-1.3,1.9-2.1,2.8
	c0.2-0.2,0.3-0.2,0.5-0.3c0.5-0.3,0.9-0.8,1.3-1.3c0.3-0.2,0.5-0.5,0.7-0.6c1.3-1.3,2.3-2.3,3.4-3.2c0,0.2,0,0.2-0.2,0.2
	c-1.9,2.4-4,4.7-6.3,6.8h-0.2l0.8-0.8c-1,0.8-1.8,1.8-2.8,2.8h-0.2c0.5-0.8,1.1-1.4,1.8-1.9c-0.6,0.3-1.1,0.6-1.6,1
	c-0.3,0.3-0.5,0.6-0.8,0.8l0,0c-0.3,0.3-0.6,0.6-1,0.8c0.3,0,0.5-0.2,0.8-0.2c1.1-0.5,2.1-1.1,3.1-1.8c0.1,0,0.2,0.1,0.3,0.2
	c-0.2,0-0.3,0-0.3,0.2c-0.2,0.2-0.3,0.2-0.5,0.3c0.1-0.1,0.2-0.1,0.3-0.2c1.5-1,2.9-1.9,4.2-2.8c0,0.2-0.2,0.2-0.2,0.3
	c-0.2,0-0.2,0-0.3,0.2c1.8-1.3,3.5-2.7,5-4.4C57.9,100.3,58.8,99.1,59.6,98.2L59.6,98.2z M66,80.7c0-0.6,0.2-1.3,0.2-1.9v-3.6l0,0
	c0-0.7,0-1.4,0.2-2.1h-0.6c0.2-0.1,0.4-0.2,0.6-0.2v-0.8c0,0.3,0,0.6,0.2,0.8h0.3v-0.8h-1.3c0.1,0.3,0.2,0.7,0.2,1
	C66,75.6,66.1,78.2,66,80.7z M66.8,73.1h-0.3c0,0.6,0,1.2,0.2,1.8C66.6,74.4,66.8,73.7,66.8,73.1L66.8,73.1z M67.1,72.9h0.3
	c1,0,2.1,0,3.1-0.2h-1.3c1.4-0.2,2.9-0.3,4.4-0.3c-0.4,0-0.9,0-1.3-0.2c0,0.1-0.1,0.2-0.2,0.2h0v-0.2h-4.8c0.4-0.1,0.9-0.2,1.3-0.2
	h-1.5L67.1,72.9z M67.1,71.5v0.3c0.5,0,1,0,1.5-0.2h1.1C68.8,71.7,68,71.6,67.1,71.5L67.1,71.5z M71.3,72c1-0.2,1.9-0.2,2.9-0.3
	c-1.4,0.1-2.8,0.2-4.2,0.1C70.4,71.9,70.9,72,71.3,72z M93.6,71.4h0.2c0.1,0,0.2,0.1,0.2,0.2v0c0.5-0.2,1.1-0.2,1.6-0.3
	C94.9,71.2,94.2,71.2,93.6,71.4L93.6,71.4z M93,71.7L93,71.7c-0.7,0-1.1-0.2-1.8-0.2H91l-11.3,1c4.8-0.2,9.5-0.3,14.2-0.7h1.3
	l5.2-0.5c0.2-0.2,0.5-0.2,0.6-0.3c0.5-0.2,0.9-0.4,1.3-0.8l0,0c-0.8,0.5-1.6,0.8-2.4,1c-0.5,0.3-1.2,0.3-1.8,0
	c0.8-0.3,1.6-0.5,2.4-0.8c0.1,0,0.2-0.1,0.3-0.2V70h0.1c0-0.2,0.2-0.3,0.3-0.3l-2.4,1h0.3c-0.3,0.1-0.5,0.2-0.8,0.2
	c-1.5,0.4-3,0.6-4.5,0.8l0,0c0.2,0,0.2,0,0,0.2C93.6,71.7,93.3,71.6,93,71.7L93,71.7z M95.9,70.2c-0.4,0.2-0.7,0.3-1.1,0.3
	c0.8,0.2,1.8,0,2.6,0.2c0.2-0.2,0.5-0.2,0.6-0.3C97.3,70.5,96.5,70.4,95.9,70.2L95.9,70.2z M102.8,68.8l-1.1,1.1
	c0.6-0.4,1.3-0.8,1.9-1.1c0.4-0.3,0.8-0.7,1.1-1.1c0.2-0.2,0.3-0.5,0.5-0.7C104.5,67.7,103.7,68.2,102.8,68.8L102.8,68.8z
	 M105.1,67.2c0-0.1,0.1-0.2,0.2-0.2h0c0.3-0.3,0.3-0.5,0.6-0.6C105.6,66.6,105.2,66.8,105.1,67.2L105.1,67.2z M107.5,63.3
	c0.2-0.3,0.3-0.5,0.3-0.8c0.2,0,0.2-0.2,0.2-0.3C107.8,62.4,107.8,62.9,107.5,63.3L107.5,63.3z M109.4,50.2c0,1.8-0.2,3.7-0.5,5.5
	c0.3-1.3,0.5-2.6,0.6-3.9C109.6,51.2,109.6,50.7,109.4,50.2L109.4,50.2z M62.6,4.7C62.2,4.9,62.2,5,61.9,5c1.1,0,2.2,0,3.2,0.2
	c0.4,0,0.9-0.1,1.3-0.3C65.2,4.9,63.9,4.8,62.6,4.7z M59.5,3.6c0.6-0.1,1.3-0.2,1.9-0.2h-2.7C59,3.4,59.3,3.5,59.5,3.6z M67.3,4.9
	c-0.4,0.1-0.8,0.3-1.1,0.5c0.7,0.2,1.5,0.2,2.3,0.3C69.2,5.5,70,5.2,70.8,5h-0.7C69.2,4.9,68.2,5,67.3,4.9z M108.3,17.3V17
	c-0.3-2-1-3.9-1.9-5.7c-0.2,0-0.3-0.3-0.3-0.5c0,0.3,0.2,0.5,0.3,0.8c1,1.7,1.7,3.5,1.8,5.5C108.2,17.2,108.3,17.2,108.3,17.3z
	 M108.3,17.6c0.1,1.1,0,2.2-0.2,3.2c0,0.6,0.2,1.3,0.2,1.9V17.6z M109.8,50.3V50c0-0.3-0.2-0.8-0.2-1.3v0.7
	C109.6,49.7,109.8,50,109.8,50.3z M43.5,110.6c-0.3,0.3-0.7,0.5-0.8,0.7c1-0.4,2-0.8,2.9-1.4C44.9,110.1,44.2,110.4,43.5,110.6z
	 M48.7,105.6v-0.2c0.4-0.3,0.7-0.7,1-1.1l-0.2,0.2l-1.8,1.8C48.1,106.1,48.4,105.9,48.7,105.6L48.7,105.6z M13.4,71.3l0.3,0.3
	c0.5,0,1.1,0,1.6-0.2C14.7,71.5,14.1,71.5,13.4,71.3z M10.8,70c-0.2-0.1-0.5-0.3-0.6-0.5H9.7c0.2,0,0.3,0.2,0.5,0.3
	C10.4,69.9,10.7,70,10.8,70z M7.8,68.6c0.2,0,0.2,0.2,0.3,0.2c0,0.2,0.2,0.2,0.3,0.3C8.2,68.9,8,68.7,7.8,68.6z M7.6,67.8
	c0.2-0.2,0.2-0.3,0.3-0.3c-0.5-0.6-1-1.2-1.5-1.8L6.1,66c0,0.2,0.2,0.3,0.3,0.3C6.8,66.8,7.2,67.3,7.6,67.8z M8.1,67.4l-0.3,0.3l1,1
	c0-0.2,0.2-0.2,0.3-0.3C8.7,68.1,8.4,67.8,8.1,67.4z M9.2,68.7l-0.2,0.2c0,0.2,0.2,0.2,0.3,0.3c0.1,0,0.2-0.1,0.3-0.2
	C9.5,69.1,9.4,68.9,9.2,68.7z M7.9,69.7c0.2,0,0.2,0,0.5,0.2c-0.3-0.1-0.6-0.3-0.8-0.6c-0.5-0.2-0.9-0.5-1.3-0.8
	C6.8,68.9,7.3,69.3,7.9,69.7L7.9,69.7z M56.4,88.7c-0.2,1-0.3,2.1-0.5,3.1c-0.2,1.2-0.5,2.4-0.8,3.6c0.5-1.1,1-2.3,1.3-3.2
	c0.9-2.9,1.4-5.9,1.5-8.9c-0.2,0.7-0.3,1.3-0.5,1.8C57.2,86.2,56.9,87.4,56.4,88.7L56.4,88.7z M56.6,86.4c0.2-0.4,0.3-0.8,0.3-1.3
	c0-1.6,0.2-3.1,0.2-4.5v-0.5c-0.2,0.8-0.3,1.4-0.5,2.3V86.4L56.6,86.4z M57.6,80.9l0.2,0.2v0.6c0-0.5,0-1,0.2-1.4
	c-0.1-0.6-0.2-1.2-0.2-1.8c-0.2,0.2-0.2,0.2-0.2,0.3C57.6,78.8,57.6,80.9,57.6,80.9z M55.5,77c0.2,0.2,0.3,0.5,0.3,0.8
	c0.3-1.6,0.5-3.2,0.6-4.7l0,0c-0.3,1.1-0.7,2.2-1.1,3.2C55.4,76.5,55.5,76.8,55.5,77z M50.5,71.2V71c0,0.2-0.2,0.2-0.3,0.2
	L50.5,71.2z M51.1,71.7c-0.2,0-0.2,0-0.2-0.2c-0.1,0.1-0.3,0.2-0.5,0.2H51.1z M3.1,63.9c0,0.2,0,0.2,0.2,0.2C4,65.4,5,66.6,6.3,67.5
	c-1-1.1-1.8-2.1-2.7-3.4c-0.2-0.2-0.4-0.5-0.5-0.8V63.9z M2.8,57.3c0.1,0,0.2-0.1,0.3-0.2c-0.3-1.6-0.6-3.4-0.8-5.2l-0.5-5.8l0,0
	c0,1,0,1.9,0.2,2.9c0.2,2.8,0.5,5.7,0.7,8.4v-0.2L2.8,57.3z M1,39c-0.1-0.8-0.2-1.6-0.2-2.4c0-1.9,0-3.7-0.2-5.7
	c0.2,3.4,0,6.8,0.2,10.2C0.8,40.3,1,39.6,1,39z M5,12.3c-0.2,0.2-0.3,0.3-0.5,0.3c-0.2,0.3-0.2,0.3-0.2,0.5C4.5,13,4.7,12.6,5,12.3z
	 M1.9,13.4c-0.3,0.6-0.6,1.1-1,1.6c0.1,0.3,0.2,0.5,0.2,0.8v0.5c0-0.3,0.2-0.6,0.2-1.1l0.2,0.2L1.9,13.4z M5.7,10.8
	c-0.2,0.3-0.3,0.6-0.5,1c0.8-0.7,1.7-1.4,2.6-2c0.5-0.3,0.8-0.8,1.3-1.1C7.9,9.4,6.8,10.2,5.7,10.8z M3.1,12.1
	c0.3-0.5,0.7-1,1.1-1.5c0,0.1-0.1,0.2-0.2,0.2l-0.6,0.6C3.2,11.8,3.2,12,3.1,12.1z M8.1,8.1c-0.6,0.7-1.2,1.4-1.8,2.1
	c1.4-1.1,2.9-2,4.5-2.8c-0.1,0-0.2-0.1-0.2-0.2C9.9,7.6,8.9,7.8,8.1,8.1L8.1,8.1z M8.9,9.6c0.6-0.2,1.1-0.5,1.6-0.8
	c0.6-0.4,1.2-0.7,1.8-1h-0.2C11,8.2,9.9,8.8,8.9,9.6L8.9,9.6z M9.2,7.3c0-0.2,0.2-0.2,0.3-0.3H9.4C9.2,7.1,9.2,7.3,9.1,7.3H9.2z
	 M13.4,6.8c-0.4,0-0.7,0.1-1,0.3c0.2,0,0.3,0.2,0.3,0.3c1.1-0.3,2.1-0.8,3.1-1.1L13.4,6.8z M15.2,7L15.2,7c1.3-0.2,2.7-0.4,4-0.5
	c0.1-0.1,0.3-0.3,0.5-0.3H19C17.7,6.4,16.5,6.7,15.2,7z M22.8,6.4h-0.2c0.3,0.2,0.7,0.2,1,0H22.8z M22,6.4h0.3
	c-0.7-0.1-1.5-0.2-2.3-0.2l-0.3,0.3C20.5,6.4,21.2,6.3,22,6.4L22,6.4z M22.6,6L22.6,6z M23.6,6c-0.2,0-0.3,0-0.3,0.2
	c0.4-0.1,0.9-0.1,1.3,0.2l1-0.5C24.9,5.8,24.3,5.9,23.6,6L23.6,6z M25.4,6.5c0.6,0.2,1.2,0.4,1.8,0.8c1-0.5,1.8-1,2.8-1.5h-3.4
	C26.1,6,25.7,6.2,25.4,6.5L25.4,6.5z M27.5,5h-2.4c0.7,0,1.3,0,1.9,0.2C27.1,5.1,27.3,5,27.5,5z M28.5,4.8c-0.2,0.2-0.4,0.3-0.6,0.3
	c0.8,0.2,1.8,0.2,2.6,0.3c0.4-0.2,0.9-0.4,1.3-0.7H28.5z M36.9,4.8l-1,0.5c2.1-0.2,4.2-0.2,6.3-0.2c0.6-0.2,1.1-0.4,1.6-0.6
	c-0.5,0-0.8,0.2-1.3,0.2C40.6,4.7,38.6,4.7,36.9,4.8L36.9,4.8z M37.9,4.4h0.7c0.6,0,1.2,0,1.8-0.2h-2C38.2,4.2,38,4.4,37.9,4.4
	L37.9,4.4z M35.8,4.7h0.3c0.5-0.2,1-0.4,1.5-0.5H34c0.2,0.2,0.2,0.2,0.3,0.2C34.8,4.4,35.3,4.5,35.8,4.7L35.8,4.7z M42.9,5.2h4.7
	l1.9-0.5v0.2c-0.4,0.2-0.7,0.3-1.1,0.3c1.5,0,3,0,4.5-0.2c0.6,0,1.3-0.2,1.9-0.2h-0.3c0.3-0.1,0.7-0.2,1-0.2
	c-3.7-0.2-7.4-0.2-11-0.2C44,4.8,43.4,5,42.9,5.2L42.9,5.2z M43.4,3.9C43.4,4,43.5,4,43.6,4c0.8,0,1.6,0,2.4-0.2L43.4,3.9z
	 M55.8,4.7c-0.5,0.2-1,0.3-1.5,0.3h1.6c0.7-0.2,1.5-0.3,2.3-0.3L55.8,4.7L55.8,4.7z"/>
<path class="st2" d="M59.7,86.5h0.5v0.3c-1.1,2.4-2.1,4.8-3.4,7.3l0,0c-1,2.2-2.3,4.3-3.8,6.2h-0.2c1.5-2.4,2.7-4.7,4.2-7.1l0,0
	C57.9,91,58.7,88.8,59.7,86.5z"/>
<path class="st2" d="M60.5,82.2v0.2c-0.4,2.6-1.1,5.2-2.3,7.6c-0.2,0.2-0.2,0-0.2,0C58.7,87.2,59.7,84.6,60.5,82.2z"/>
<path class="st2" d="M60.1,77.8c0.2,0,0.2,0.2,0.2,0.2c-0.3,3.1-0.9,6.2-1.8,9.2c-0.2,0-0.2,0-0.2-0.2C59,83.8,59.5,80.7,60.1,77.8z
	"/>
<path class="st2" d="M69.7,69.5L69.7,69.5c0.6-0.4,1.3-0.8,1.9-1.1c2.2-1.2,4.6-1.9,7.1-2.1v0.2C75.7,67.4,72.6,68.4,69.7,69.5z"/>
<path class="st2" d="M66.6,69.2v-0.2c2.5-1.7,5.1-3.2,7.9-4.4c0.3,0,0.6,0,0.8,0.2c0.2,0,0.2,0,0.2,0.2v0.2c-0.2,0-0.2,0.2-0.2,0.2
	h-0.5c-0.1,0-0.2,0.1-0.3,0.2C71.9,66.6,69.2,67.9,66.6,69.2z"/>
<path class="st2" d="M106.1,60.8L106.1,60.8c0.5-4.2,1.1-8.4,1.4-12.6c0.2,0,0.2,0.2,0.3,0.3v0.2C107.7,52.8,107.1,56.9,106.1,60.8z
	"/>
<path class="st2" d="M107.2,38.3c-0.2,0.2-0.2,0-0.2,0c-0.4-4.1-0.5-8.2-0.3-12.3v0.2C106.9,30.2,107,34.3,107.2,38.3z"/>
<path class="st2" d="M74.8,8.3c-0.2-0.2-0.2-0.2-0.2-0.3c1.9-0.6,3.9-1.3,6-2.1C80.7,6,80.9,6,80.9,6s-0.2,0-0.2,0.2
	C78.7,7,76.8,7.6,74.8,8.3L74.8,8.3z"/>
<path class="st2" d="M4.7,61.6H4.5c1.6-1.9,3.3-3.7,5.2-5.3c0.1,0,0.2,0.1,0.2,0.2v0.2c-0.2,0-0.2,0-0.2,0.2
	C7.9,58.3,6.2,59.9,4.7,61.6z"/>
<path class="st2" d="M4.4,51.8L4.4,51.8c0-0.2,0-0.2-0.2-0.2v-0.2c1-0.4,2-0.8,2.9-1.3c0,0,0.2,0,0.2,0.2c0,0-0.2,0-0.2,0.2
	C6.2,51,5.3,51.4,4.4,51.8z"/>
<path class="st2" d="M4.4,45L4.4,45c1.9-1.8,4-3.4,6-5.2h0.2V40c-0.1,0.1-0.2,0.2-0.3,0.2C8.4,41.9,6.5,43.6,4.4,45z"/>
<path class="st2" d="M3.2,42.2H2.9C5,40.5,7.1,39,9.4,37.5c0,0.2,0,0.2-0.2,0.2C7.3,39.2,5.3,40.6,3.2,42.2z"/>
<path class="st2" d="M2.9,32.8H2.6c2.9-2.1,5.7-3.8,8.4-5.5c0,0.1-0.1,0.2-0.2,0.2C8.2,29.3,5.5,31.1,2.9,32.8z"/>
<path class="st2" d="M3.2,39.2c-0.3,0.2-0.3,0.2-0.3,0l2.9-2.4c1.2-0.8,2.5-1.4,3.9-1.8l0,0C7.4,36.4,5.3,37.7,3.2,39.2z"/>
<path class="st2" d="M2.6,35.1c-0.3-0.3,0-0.6,1-1.1c1.9-1.1,3.9-2.3,5.8-3.2v0.2C7.1,32.3,5,33.8,2.6,35.1z"/>
<path class="st2" d="M3.7,47.7H3.6c2.3-1.4,4.4-3.2,6.1-5.3H10l0.3-0.3c0.2,0,0.2,0,0.3,0.2h-0.2C8.6,44.4,6.3,46.3,3.7,47.7z"/>
<path class="st2" d="M2.9,23.3c-0.2,0.2-0.2,0.2-0.2,0c2.9-2.3,6-4.4,9.2-6.3l-0.3,0.3C8.7,19.3,5.8,21.4,2.9,23.3z"/>
<path class="st2" d="M2.1,20.2c-0.2,0.2-0.2,0.2-0.2,0c1.8-1.7,3.9-3.1,6.1-4.2v0.2C6,17.5,4,18.8,2.1,20.2z"/>
<path class="st2" d="M2.9,30.1H2.8c1.8-2.5,4.4-4.4,7.2-5.5c0,0.2,0,0.2-0.2,0.2C7.4,26.3,5.1,28.1,2.9,30.1z"/>
<path class="st2" d="M5,13.6L5,13.6c3.1-2.9,7-4.9,11.2-5.7c0.1,0,0.2,0.1,0.2,0.2l0,0c-0.1,0-0.2,0.1-0.2,0.2c0,0,0,0,0,0
	C12.1,9.3,8.3,11.1,5,13.6z"/>
<path class="st2" d="M13.7,10c0.1,0,0.2,0.1,0.2,0.2c0,0,0,0,0,0v0.2c-0.2,0-0.2,0-0.2,0.2c-2.3,1.8-4.5,3.7-6.9,5.3l0,0
	C8.9,13.9,11.3,12,13.7,10z"/>
<path class="st2" d="M74.2,70v-0.2c-1.6,0-3.4-0.2-5-0.2c1.1-0.2,2.1-0.3,3.2-0.3h2.4c1.9-1,4-1.5,6.1-1.8v0.2
	c-1.6,0.4-3.2,1-4.7,1.6h2.8c1.1-0.3,2.6-0.8,3.9-1.3v0.2c-1.1,0.6-2.3,1-3.6,1.1c1.8,0,3.6-0.2,5.2,0c0.8-0.5,1.7-0.8,2.6-1h0.3
	c-0.2,0-0.3,0-0.3,0.2c-0.7,0.3-1.4,0.5-2.1,0.8h1.4c0.1,0,0.2,0.1,0.2,0.1c0,0,0,0,0,0c1.1-0.3,2.3-0.7,3.6-1
	c-0.2,0.2-0.3,0.2-0.5,0.3c-1.2,0.4-2.3,0.8-3.6,1v-0.1c-3.9,0.2-7.8,0.2-11.5,0.2C74.6,70,74.4,70,74.2,70L74.2,70z"/>
<path class="st2" d="M12.6,70.5c-0.2,0-0.2,0-0.3-0.2v-0.2c0.1,0,0.2-0.1,0.3-0.2c1.5-0.6,3.1-1.4,4.5-2.1c0.2,0,0.2,0,0,0.2
	c-1.3,1-2.8,1.8-4.4,2.4H12.6z"/>
</svg>
