<?xml version="1.0" encoding="utf-8"?>
<!-- Generator: Adobe Illustrator 26.2.1, SVG Export Plug-In . SVG Version: 6.00 Build 0)  -->
<svg version="1.1" id="Layer_1" xmlns="http://www.w3.org/2000/svg" xmlns:xlink="http://www.w3.org/1999/xlink" x="0px" y="0px"
	 viewBox="0 0 169.1 191.7" style="enable-background:new 0 0 169.1 191.7;" xml:space="preserve">
<style type="text/css">
	.st0{fill:#333333;}
	.st1{fill:#3A818D;}
	.st2{fill:#E7C582;}
	.st3{fill:#CC5541;}
</style>
<path class="st0" d="M24,20.5c4.8-5.1,10.3-9.4,16.3-12.9c-0.3,0-0.7,0.1-0.9,0.3c-6.5,3-12.2,7.5-16.6,13.2h0.9
	C23.7,20.9,23.7,20.5,24,20.5z"/>
<g>
	<g>
		<path class="st1" d="M62.8,66.8c5,10,11.1,21.5,12.2,32.9c0.6,5.9-0.4,12-0.6,17.9c-0.2,6.9,0.1,13.8,0.6,20.6
			c0.6,7.2,9,11.4,14.5,6c5.2-5.1,9.8-11,13.2-17.4c4.2-8.2,3.4-14.8,0-23.1c-2.9-7-6.3-13.6-10.6-19.8c-3.8-5.5-7.9-10.9-9.7-17.4
			c-4.2,3.2-8.3,6.4-12.5,9.6c9.3,5.9,18.8,11.3,28.5,16.4c4.6,2.4,9.3,4.6,14,6.8c2.5,1.1,5,2.3,7.5,3.4c1.5,0.6,2.9,1.3,4.4,1.9
			c0.6,0.3,1.2,0.5,1.9,0.8c1.2,0.6,1.2,0.4-0.3-0.6c-0.3-2.2-0.6-4.4-0.9-6.5c-0.1,0.3-0.2,0.6-0.3,0.9c1.3-1.7,2.6-3.4,3.9-5.1
			c1.2-0.5,0.8-0.5-1.3,0c-1.3,0.2-2.5,0.4-3.8,0.5c-1.9,0.3-3.8,0.5-5.7,0.8c-3.6,0.5-7.7,1.8-11.3,1.3c1.4,0.4,2.9,0.8,4.3,1.2
			c-2.4-1.5-4.9-5.9-6.7-8.1c-3.9-4.8-13.1-2.3-14.2,3.8c-2.3,12.4,7.7,23.1,20.4,19.5c-3.6-2.7-7.2-5.5-10.8-8.2
			c-0.5,8.9,2.4,15.2,7.3,22.3c5.1,7.3,10.2,14.6,15.2,21.9s10.2,14.6,15.2,21.9c4.4,6.3,8.6,14.9,15.7,18.5
			c7.1,3.6,16.7-4.1,11.6-11.6c-16.6-25-33.9-49.5-51.9-73.6c-2.7-3.7-7.3-5.6-11.6-3c-3.6,2.1-5.8,7.9-3,11.6
			c18,24,35.3,48.6,51.9,73.6c3.9-3.9,7.8-7.8,11.6-11.6c-2.4-1.2-3.6-3.7-5.1-5.9c-2.3-3.2-4.5-6.5-6.8-9.7
			c-4.3-6.2-8.7-12.4-13-18.7c-4.3-6.2-8.7-12.4-13-18.7c-2-2.9-4.2-5.7-5.9-8.7c-1.6-2.8-1.5-5.1-1.4-8.3c0.3-5.5-5.7-9.6-10.8-8.2
			c-1,0.3,0.7,0.4,0.5,1.4c-4.7,1.3-9.5,2.5-14.2,3.8c3.1,3.8,6.3,9.3,11.1,11.2c5.2,2,11.9-0.1,17.2-0.9c5.1-0.7,12-0.5,16.5-3.1
			c5.5-3.2,6.2-10.8,1.9-15.3c-3.4-3.6-9.2-5-13.7-7c-5.3-2.4-10.5-4.8-15.7-7.5c-10.6-5.4-20.9-11.3-31-17.6
			c-6.4-4-14.4,2.6-12.5,9.6c3.3,11.9,11.9,20.6,17.5,31.3c2.3,4.3,6.8,11.2,4.6,16c-2.5,5.3-6.3,9.9-10.5,14c4.8,2,9.7,4,14.5,6
			c-0.6-7.2-0.9-14.4-0.6-21.6c0.2-7,1.1-13.9,0.1-20.9c-1.9-13-8.2-25.8-14.1-37.5C72.6,48.4,57.9,57,62.8,66.8L62.8,66.8z"/>
	</g>
</g>
<g>
	<g>
		<path class="st2" d="M33.4,13.9c-17.4,13.9-25.4,38.5-19.4,60c2.9,10.5,9.1,20.6,17.3,27.8c8.6,7.6,22,16.1,33.8,11.5
			c13.7-5.3,13.4-25.7-1.5-29.1c-2.2-0.5-5.6-0.9-7.9-0.5c-3.2,0.5-1.4-0.2-1,0c1.8,0.7-1.6-1.7-1.8-1.9c-3.6-3.6-6.4-7.7-8.7-12.2
			c-4.2-8.2-6-18-4.9-27.1c0.5-3.9,1.6-8,4.8-10.6c3.7-2.9,8.7-4.2,13.3-4.7C67.9,26,82,28.6,90.2,35.9c3.9,3.5,3.8,10.3,4.4,15.1
			c1,7.4,2.1,14.8,3.1,22.1c0.8,6,7.9,8.2,12.9,7.3c6-1.1,10.8-6.1,12.6-11.7c2-6.3,0.1-12.6-2.5-18.3c-4.6-9.8-10.3-19.2-17.3-27.5
			C89.4,6.2,65.6-4.8,44.1,3.5c-5.3,2-8.9,7.1-7.3,12.9c1.4,5,7.6,9.4,12.9,7.3C62.2,18.9,75,24,84.2,33c4.9,4.9,8.8,10.5,12.3,16.5
			c1.9,3.3,3.7,6.6,5.3,10c-0.1-0.3,1.7,3.9,1.4,3.6c-0.2,1-0.1,0.6,0.3-1.3c0.6-0.4,1.2-0.9,1.5-1.6c4.3,2.4,8.6,4.9,12.9,7.3
			c-1.2-8.6-2.4-17.2-3.6-25.8c-1.1-7.8-3.4-15.1-9.3-20.7c-11.6-10.8-30.4-15.9-46-15c-16.4,1-33,8.2-38.6,24.7
			c-4.9,14.3-2.4,31.1,3.4,44.6c3.3,7.8,8.1,15.1,14.1,21.2c3.4,3.5,7.4,6.5,12.3,7.5c2,0.4,4,0.5,6.1,0.5c0.7,0,2,0.3,2.6,0
			c1,0.1,0.9,0-0.3-0.3c-1.3-0.5-1.3-0.4-0.1,0.4c-1.3-1.3-2.5-2.5-3.8-3.8c-1-4.3,0.2-6.7,3.8-7.3c-1.2-0.3-2.3-0.6-3.4-1.1
			c-1.4-0.6-2.8-1.4-4-2.2c-3-1.8-5.7-4-8.1-6.6c-4.7-4.9-7.8-11-9.3-17.6c-3.2-14.2,3.5-28.6,14.6-37.4c4.4-3.5,3.7-11.2,0-14.8
			C43.8,9.5,37.8,10.4,33.4,13.9L33.4,13.9z"/>
	</g>
</g>
<g>
	<g>
		<path class="st3" d="M68.8,27.4C53.6,22.2,36.1,31,33.4,47.3C31.1,61,41.7,70,45.7,81.9c2.9,8.7,14,14.4,21.5,6.9
			c7.5-7.5,1.1-17.4-2.5-25c-1.3-2.7-2.3-5.9-3.8-8.5c1.3,2.2-2.6,1.2,1.9,1.1c6.7-0.1,13.9,4.1,19.2,7.7c7.2,4.8,15.1-1.8,15.8-9.1
			c0.7-7.5-5.2-11.9-10.8-15.6c-4.8-3.1-8.9-6.9-12.8-11c-9.3-9.9-24.1,5-14.8,14.8c3.1,3.3,6.4,6.4,10,9.2
			c3.1,2.5,7.7,4.5,10.2,7.6c-0.9-1.5-1.8-3.1-2.7-4.6c0-0.1,0-0.3,0-0.4c5.3-3,10.5-6,15.8-9.1c-12.1-8.2-31.6-15.8-44.7-5.7
			c-6.3,4.9-9.4,12.8-7.2,20.6c1,3.5,2.8,6.8,4.3,10.1c0.8,1.7,1.6,3.4,2.4,5.1c0.3,0.7,2.7,6.6,2.4,4.2c0.5-1.8,1-3.5,1.4-5.3
			c-0.2,0.4-0.4,0.7-0.5,1.1c2.1-1.6,4.2-3.2,6.3-4.8c-0.4,0.1-0.7,0.3-1.1,0.4c1.9,0,3.7,0,5.6,0c-0.4-0.1-0.8-0.2-1.2-0.3
			c1.5,0.9,3.1,1.8,4.6,2.7c0.7,0.6,1,2.7,0.5,0.5c-0.3-1.3-0.8-2.6-1.4-3.9c-0.9-2.1-1.8-4.2-3-6.2c-2.1-3.5-5-6.8-6.6-10.6
			c-2.3-5.6,3.4-8,8.7-6.2C76,52.1,81.5,31.8,68.8,27.4L68.8,27.4z"/>
	</g>
</g>
<g>
	<g>
		<path class="st0" d="M16.1,30.6c-0.3,1.3-0.6,2.8-1.3,4.1C11.7,47.9,12,60.8,15.8,73c-1.9-9.4-2.2-18.8-1.3-28.3
			c1.3-9.4,4.1-17.6,8.8-24.8c0.3-0.3,0.9-0.9,1.3-1.3C34.6,7.7,47.2,2,61.6,1.4c0,0,0,0-0.3,0c-1.6-0.3-3.5-0.6-5.3-0.6
			c-8.2,0.9-15.4,3.8-22,7.5c1.3-0.6,2.2-1.6,3.1-2.5c-4.7,2.5-8.8,5.7-11.9,9.4c-3.1,2.8-6,6.3-8.5,10c-4.4,6.3-6.9,13.2-7.2,20.4
			c0,0.9,0,1.6,0,2.5c-0.3,1.6-0.3,3.1-0.3,5C8.9,60.1,9.5,66.7,11.7,73c0.9,4.4,2.5,8.5,5,11.9c1.3,2.5,2.5,4.7,4.1,6.6
			c0.6,0.9,1.3,1.9,1.9,2.5C11.7,83.4,6,70.2,5.7,54.5c-0.6,0.6-0.9,1.3-0.9,2.8c0.3,6.3,1.6,12.6,3.1,18.5s4.7,11,8.8,15.1
			c4.1,4.7,8.8,8.2,13.8,11c1.3,1.3,2.8,2.2,4.4,3.5c-2.8-1.6-5.7-3.1-8.5-4.7c-3.1-1.6-6-3.8-8.5-6c-3.8-4.1-6.9-8.8-9.4-13.8
			C2.3,66.1,1.6,51,7.3,36.3c-2.5,4.1-4.4,9.1-5,14.4C0.4,61.7,2,72.1,6.4,82.4c3.5,7.2,8.5,12.9,15.1,17
			c8.5,5.7,17.3,10.4,26.7,14.4c5,2.5,9.7,2.8,14.1,1.3c-1.3,0-2.5,0-4.1-0.6c-5.3-1.6-11-3.8-16.3-6c-2.5-1.3-4.7-2.8-6.6-4.4
			c4.7,2.2,9.7,3.5,14.8,4.1c4.7,0.9,9.7,1.6,14.8,1.6c-1.9-1.3-4.1-1.9-6.9-2.5c-7.5-0.9-14.4-3.1-21.4-6.6
			c-8.2-4.4-14.1-9.7-18.2-16.3c-3.5-5.3-5.7-11.6-6.6-18.5c-0.3-0.6-0.3-1.3-0.6-1.9v0.3c-0.3-3.5-0.6-6.9-0.6-10
			c0.3,2.2,1.3,4.1,2.2,6.3C10.4,49.5,11.7,39.7,16.1,30.6z M29.6,99.4c-1.6-1.6-3.1-3.1-4.4-4.7c4.7,4.7,10.7,8.2,16.6,10.7
			c-4.1-1.3-7.9-3.1-11.6-5.3C29.9,99.7,29.6,99.7,29.6,99.4z"/>
		<path class="st0" d="M102.5,5.5h-0.3c1.3,2.2,2.5,4.4,4.7,6.6c-3.1-3.1-6.6-5.7-10.7-8.2c-0.3,0-0.3,0-0.3,0h-0.3
			c-0.3,0-0.3,0.3-0.3,0.3c0.6,1.9,2.2,3.1,4.1,4.4c6,3.8,11.3,8.2,15.1,13.5c5.7,10.1,8.5,21,8.2,33.6c0,1.9,0,3.8,0,5.7
			c-0.6,1.9-1.6,3.5-2.8,5.3c-0.9-1.9-1.6-4.1-1.9-6.3c0-4.4-0.3-8.5-0.6-12.6c-0.6,2.2-0.9,4.4-0.9,6.6c0.3,3.8,0.6,7.2,0.9,10.7
			c0,0.3,0.3,0.6,0.3,1.3c0.3,1.3,1.3,2.2,2.8,2.5c2.5-1.6,3.8-3.8,4.1-6.9c0.6-4.7,0.3-9.7-0.3-14.4c0-0.6,0-1.3,0-1.9
			C122.2,29.4,115,16.2,102.5,5.5z"/>
		<path class="st0" d="M94.6,7.4h-0.3c6.9,4.1,12.6,9.4,16.6,16c-4.7-5.3-10.7-9.4-18.2-12.2c0,0-0.3,0-0.6-0.3
			c-0.3,0.3-0.3,0.3-0.3,0.3l-0.3,0.6c7.2,1.9,12.9,5.7,17,11.9c4.4,6,7.5,12.6,9.1,19.5c0.3,2.5,0.9,5,1.3,7.5
			c0.3,2.8,0.3,5.7,0.3,8.8l0.3,0.3c0.3,0.3,0.6,0.6,0.9,0.6c0.6-4.7,0.6-9.7-0.3-14.8c0-0.9-0.3-1.9-0.6-2.8
			c0.3,0.3,0.3,0.6,0.6,0.9c0.9,5.7,1.3,11.6,0.9,17.3c0,1.3,0.6,1.3,1.6,0.6c0,0,0-0.3,0-0.6c0.3-8.5-0.9-16.6-3.8-24.5
			c-3.1-8.8-8.2-16.6-15.1-23.6c0-0.3-0.3-0.3,0,0c0.3,0.3,0.6,0.9,1.3,1.6C101.8,11.8,98.4,9.3,94.6,7.4z"/>
		<path class="st0" d="M95.2,57.3c0.6-3.8,0.3-7.2-0.9-11c-5-13.2-14.8-20.4-29.8-20.7c-8.5-0.3-16,2.5-22.6,8.2
			c-3.1,2.8-5.3,6.3-6.3,10.4c-1.6,4.4-1.9,9.1-1.6,13.5l0,0c0,0.3,0,0.3,0.3,0.3c0.3,6,2.8,11.9,6.9,17.3
			c6.6,8.2,14.4,11.9,24.5,11.9C57.2,86.2,50,82.4,44,75.8c-4.7-4.7-7.5-10.4-8.5-17c2.2,1.9,4.7,3.5,6.9,5.3
			c7.9,6.3,15.7,11.9,23.9,17.3c0.3,0,0.6,0,0.9-0.3c0,0,0-0.3,0.3-0.3c0-0.3,0-0.3-0.3-0.6c-10-8.2-20.7-15.7-31.7-22.6
			c-0.3-1.3-0.3-2.2-0.3-3.1C34.6,44.4,39,36.9,47.8,31.9c8.8-5,17.9-5.7,27.6-1.9C88,34.7,94.6,43.8,95.2,57.3z"/>
		<path class="st0" d="M95.2,42.9c-0.3-0.3-0.3,0-0.3,0c1.9,8.8,3.1,17.3,3.5,26.1v-0.3C100.3,59.5,99,50.7,95.2,42.9z"/>
		<path class="st0" d="M95.9,51.3c0,0-0.3,0-0.3,0.3c1.3,5,0.9,9.7-0.3,14.1c0,0,0-0.3,0.3-0.3C97.4,60.8,97.7,56.4,95.9,51.3z"/>
		<path class="st0" d="M92.7,54.8v-0.3C89,48.8,84.2,44.1,78.6,40v0.3C83,45.7,87.7,50.4,92.7,54.8z"/>
		<path class="st0" d="M89.6,57.6c0,0-0.3-0.3-0.3-0.6c-6-7.2-12.2-13.5-19.8-19.5c-0.3,0-0.3,0-0.3,0s-0.3,0-0.3,0.3
			c-0.3,0-0.3,0-0.3,0.3v0.3c6.6,6,12.6,11.9,17.9,18.5c0.6,0,0.9,0,1.3,0.3C88.6,57.9,89.3,58.3,89.6,57.6z"/>
		<path class="st0" d="M59.1,36.3c0,0.3,0,0.3,0,0.6c8.5,7.2,17,15.1,24.5,23.6c0.3,0,0.6-0.3,0.6-0.3c0-0.3,0-0.3,0-0.6
			c-0.3,0-0.3-0.3-0.6-0.6C77,50.1,69.2,42.5,60.1,36c-0.3,0-0.3,0-0.3,0C59.4,36.3,59.4,36.3,59.1,36.3z"/>
		<path class="st0" d="M25.5,21.2c5-5.3,10.4-9.4,16.3-12.9c-0.3,0-0.6,0-0.9,0.3c-6.6,3.1-12.2,7.5-16.6,13.2c0.3,0,0.6,0,0.9,0
			C25.2,21.5,25.2,21.2,25.5,21.2z"/>
		<path class="st0" d="M50.6,35.3C50.3,35,50,35,50,35.3c3.1,3.8,6.3,7.5,10.1,11.3c4.4,4.7,8.8,8.5,13.2,11c0,0,0-0.3-0.3-0.6
			C66,49.1,58.8,41.6,50.6,35.3z"/>
		<path class="st0" d="M46.6,41.6c-0.3,0-0.3,0-0.3,0.3c5,4.7,9.7,9.7,14.4,15.1c0.6,0,1.9,0,2.5,0c-0.3,0-0.3,0-0.3-0.3
			c0.6,0.3,1.3,0.3,1.9,0.6c1.3,8.8,2.8,17.6,5.6,26.4c0.3,7.5,1.6,15.1,2.5,22.6c1.6,10.4,3.1,20.4,5.3,30.5c0,0.6,0,1.6,0.3,2.2
			c0,0.3,0,0.3,0,0.3c0.6,3.1,1.3,6,2.2,9.1c-0.3,0-0.6,0.3-0.6,0.6c-0.3,0-0.6,0.3-0.6,0.9c0,0,0,0.3,0,0.6c0,0.6,0,1.3,0,1.6
			c0,0.3,0.3,0.3,0.6,0.6c0.3-0.3,0.6-0.6,0.9-0.6c0-0.3,0.3-0.6,0.6-0.6c0-0.3,0.6-0.6,0.6-0.6c0-0.3,0-0.3,0-0.3
			c6.9-7.5,12.6-15.7,17-24.2H99c1.6-2.2,2.8-4.4,4.4-6.6c0-0.3,0.3-0.6,0.3-0.6c0.6-0.6,0.9-1.3,0.9-1.9c-0.3,0.3-0.6,0.6-0.9,0.9
			c-0.3-0.3-0.6,0-0.9,0.3c-2.2,1.9-4.4,3.8-6.6,5.7c-6,6-10.7,12.6-13.5,19.8c-0.3,0.6-0.9,1.3-0.9,1.9c-1.6-8.2-2.5-16.3-3.8-24.5
			c-0.3-6-0.9-11.9-1.6-17.9c0,0,0-0.3,0-0.6c1.9,10.4,4.1,21,6.6,31.4c0.3-0.3,0.3-0.6,0.6-0.9c-1.3-6.6-2.5-13.2-3.5-19.8
			c-1.9-10.4-4.1-20.4-6.9-30.1c-1.6-8.5-3.8-17-6.3-25.1c-0.3,0-0.3,0-0.6,0.3C66,58.3,66,57.9,66,57.6c1.9,0.3,3.8,0.9,5.7,1.9
			c3.5,1.6,6.6,3.1,10.1,5c11,6,22,12.6,32.3,19.8c7.2,5.3,14.8,9.7,22.6,13.8c2.2,1.6,4.4,2.8,6.3,4.4c-9.4,2.2-18.8,4.1-28.3,5.3
			c0.3,0.3,0.3,0.3,0.3,0.3c1.3,0,2.5,0,3.8,0c0.6,0.3,1.6,0.3,2.2,0.6c0.6,0,0.9,0,1.6,0.3c-0.9,0-1.9,0.3-2.8,0.6
			c-0.3-0.6-0.6-0.9-0.9-1.3h-0.3c0.3,0.3,0.6,0.9,0.9,1.3c-0.6,0.3-1.6,0.6-2.2,0.6c0.3,0.3,0.9,0.3,1.6,0.3h-0.3
			c6.6,9.7,12.9,19.5,19.5,29.5c8.2,13.5,17.6,25.8,28,37.7c-2.5,2.5-5,5.3-7.5,8.2c-2.5-0.3-4.4,0-6.3,0.3
			c-9.1-11.9-17.6-23.9-25.1-36.7c-6.3-10.1-13.2-19.5-21.4-28c0-0.3,0-0.6,0-0.6c-0.3-0.3-0.3-0.3-0.3-0.6c0,0-0.3-0.3-0.3-0.6
			c-0.3,0-0.6,0-1.3,0v0.3c-0.3,0.9-0.3,1.6,0.6,2.5c1.3,1.6,2.5,3.1,4.1,4.7l0,0c1.3,2.2,2.5,4.4,3.8,6.6c0.6,1.6,0.9,2.8,1.9,4.1
			c-4.1-4.7-8.8-9.4-13.5-13.5l0,0c0.6,0.6,1.6,1.6,2.2,2.5c-0.6,0.3-0.3,0.6,0.3,1.3c4.7,5,8.8,10.4,12.6,15.7
			c0.6,0.9,1.3,1.6,1.6,2.2c6.3,14.8,14.4,27.6,25.4,38.9c0,0,0.3-0.3,0.3-0.6c-3.1-4.1-6-8.2-8.5-12.2c-1.3-1.9-2.5-3.8-3.5-5.7
			c6,9.1,13.2,17.6,21,25.8c0.3-0.3,0.3-0.3,0.3-0.3c0-0.3,0-0.3,0-0.6c-0.3-0.3-0.6-0.9-1.3-1.6c0.3,0,0.6,0,0.6-0.3v-0.3
			c-0.3-0.3-0.3-0.3-0.3-0.6c0,0,0.3-0.3,0.6-0.3c0.9,0,1.9,0.3,3.1,0.6v0.3c0.3,0.3,0.3,0.6,0.3,0.6c0.6,0.3,1.3,0.3,1.6,0.3
			c4.7-2.5,9.1-6,11.9-10.4c0-0.3,0-0.6,0-0.6c0-0.3,0-0.6,0.3-0.9c0.3,0.6,0.9,0.9,1.3,1.6c-0.3-0.6-0.9-1.3-1.3-1.9
			c-0.3-0.3-0.3-0.6-0.3-1.3c0,0-0.3-0.3-0.6-0.3c-0.3,0-0.3,0-0.3,0l0,0c-7.9-9.7-14.8-19.8-22-30.1c-7.9-12.2-16.3-23.9-25.4-35.2
			c2.8,0,5.3-0.3,8.2-0.6c2.5-0.3,4.7-0.6,7.2-0.6c4.4-0.6,7.5-2.2,9.4-4.7c0.3-0.3,0.6-0.3,0.9-0.3c1.3,0.6,2.2,1.3,3.1,1.9
			c0.3,0,0.6,0,0.6-0.3V106c-0.9-0.6-1.3-1.3-1.9-1.9c0,0,0.3,0,0.6,0c0,0,0.3,0,0.3,0.3c0-0.3,0-0.3-0.3-0.3
			c0.3-0.3,1.3-0.3,1.9-0.3v0.3c0.9,0,1.6,0,1.9,0c0.3,0,0.3-0.3,0.6-0.6c0,0,0-0.3,0-0.6c-0.3,0-0.9-0.3-0.9-0.6
			c-0.3-0.3-0.6-0.6-0.9-0.9V101c0.3,0,0.3,0,0.3,0.3c0-0.3,0-0.3,0-0.3c0.3-0.3,0.9-0.6,1.6-0.9c-0.3,0-0.9,0-1.3,0
			c-0.3,0.3-0.6,0.3-1.3,0.3c-1.9-1.6-3.8-3.1-6-4.4c1.9,0.6,3.8,1.3,5.6,1.9c-12.2-6-23.9-12.2-36.1-18.5
			c-13.8-7.2-27.3-14.1-40.8-20.7h-0.3c0,0,0,0,0.3,0.3c-2.8-1.6-5.3-2.8-8.2-4.1c-0.3-0.9-0.6-2.2-0.9-3.5c0,0-0.3,0-0.3,0.3
			c0.3,0.9,0.3,1.9,0.3,2.8c-0.9-0.6-1.9-0.9-2.8-1.6h-0.3c1.3,0.6,2.2,1.3,3.1,1.9c0,0.6,0,1.3,0,1.9c-0.6-0.3-1.6-0.6-2.2-0.9l0,0
			C57.5,50.4,52.5,45.7,46.6,41.6z M66,57c0-0.3-0.3-0.9-0.3-1.6c1.9,1.3,4.1,2.5,6.6,3.8c0.9,0.3,1.6,0.9,2.5,1.3
			C72,59.2,69.2,58.3,66,57z M80.8,149.6c0-0.3,0-0.3,0-0.3l0,0C80.8,149.3,80.8,149.3,80.8,149.6z M82,148.1c0,0,0.3,0,0.3-0.3
			C82.4,148.1,82,148.1,82,148.1z M132,91.9c0.9,0.6,2.2,1.3,3.5,1.9c-0.3,0-0.3,0-0.3,0c0.3,0.3,0.6,0.3,0.9,0.3
			c2.8,1.3,5.7,2.5,8.5,4.1c0.6,0.3,0.9,0.6,1.3,0.9c-1.3-0.6-2.2-0.9-3.5-0.9C138.9,95.9,135.1,94.1,132,91.9z M120.4,112
			c-0.3,0-0.3-0.3-0.3-0.6c-0.3,0-0.3-0.3-0.6-0.6c0.3,0,0.6,0,0.6,0c1.6,2.2,2.5,4.4,4.1,6.6C122.9,115.4,121.6,113.8,120.4,112z
			 M143.9,99.4c0.9,0.3,2.2,0.6,3.5,0.9c0,0,0,0,0.3,0c0,0.3,0.6,0.6,0.9,0.6c-0.9,0.3-1.9,0.6-2.8,0.6c-1.3-0.6-2.2-1.6-3.5-2.2
			C142.7,99.4,143.3,99.4,143.9,99.4z M147.7,102.8c-0.3,0-0.3,0-0.3,0c0.6-0.3,1.3-0.6,1.9-0.9c0,0.3,0,0.3,0.3,0.3
			c0.3,0.3,0.3,0.6,0.3,0.6s-0.6,0-0.6-0.3C148.6,102.8,148,102.8,147.7,102.8z M140.1,97.8c0.3,0.3,0.6,0.3,1.3,0.6
			c-0.3,0-0.3,0-0.3,0C140.8,98.5,140.5,98.1,140.1,97.8z M116.9,141.8c-0.3-0.3-0.6-0.9-0.9-1.6c0.6,0.9,1.3,1.9,1.9,2.8
			C117.5,142.7,117.2,142.4,116.9,141.8z M167.5,176.3c-0.3,0.3-0.3,0.3-0.6,0.6c-1.6-2.2-3.1-4.1-4.7-6.3
			C164,172.6,165.6,174.5,167.5,176.3z"/>
		<path class="st0" d="M42.8,46.3h-0.3c5.7,6,11.9,11.3,19.2,16.3c0.3,0,0.6,0,0.9-0.3c0,0,0-0.3,0.3-0.3c0-0.3,0-0.3-0.3-0.6
			C56.3,56.1,49.7,51,42.8,46.3z"/>
		<path class="st0" d="M38.7,52c0,0.3,0,0.3,0,0.6c7.5,6,14.8,12.2,22.3,18.8c0.3-0.3,0.3-0.3,0.3-0.3c0-0.3,0-0.3,0-0.6L61,70.2
			C54.7,63,47.8,57,39.6,51.7c-0.3,0-0.3,0-0.3,0C39,52,39,52,38.7,52z"/>
		<path class="st0" d="M39,67h-0.3c3.1,2.2,6.6,4.4,10.1,7.2c0.9,0.9,2.2,1.9,3.1,2.5c4.7,3.8,9.4,6.3,14.4,7.9c0,0,0,0-0.3-0.3
			C57.9,77.7,48.8,72.1,39,67z"/>
		<path class="st0" d="M77,78.7c-0.9,1.9-0.9,4.1-0.6,7.2c3.1,15.1,5.7,30.1,7.9,45.2c0.3,0,0.6,0,1.3,0c-0.3-2.5-0.6-4.7-0.6-7.2
			C83.3,108.8,80.8,93.4,77,78.7z"/>
	</g>
</g>
</svg>
