<?xml version="1.0" encoding="utf-8"?>
<!-- Generator: Adobe Illustrator 26.2.1, SVG Export Plug-In . SVG Version: 6.00 Build 0)  -->
<svg version="1.1" id="Layer_1" xmlns="http://www.w3.org/2000/svg" xmlns:xlink="http://www.w3.org/1999/xlink" x="0px" y="0px"
	 viewBox="0 0 138.8 104" style="enable-background:new 0 0 138.8 104;" xml:space="preserve">
<style type="text/css">
	.st0{opacity:0.7;}
	.st1{fill:#E7C582;}
	.st2{opacity:0.9;}
	.st3{fill:#3A818D;}
	.st4{fill:#CC5541;}
	.st5{fill:#333333;}
</style>
<g class="st0">
	<g>
		<path class="st1" d="M40.8,40.7c1.3-0.8,2.6-1.4,4.1-1.9c-1.5-2.5-2.9-5-4.4-7.5c-2.1,2-3.7,4.2-5,6.8c-1.9,4.1,2,8.3,6.2,6.2
			c5.9-3,11.7-6,17.6-8.9c-1.5-2.6-3-5.2-4.5-7.8C48.8,31,42.9,34.4,37,37.9c-4.3,2.5-1.5,10,3.5,8.2c6.7-2.4,13.5-4.8,20.2-7.3
			c-1.2-2.7-2.3-5.5-3.5-8.2c-6.4,3.1-12.5,6.6-18.4,10.5c-4.1,2.7-1.6,9.7,3.5,8.2c7.9-2.3,15.9-4.6,24.1-5.7
			c-0.8-2.8-1.5-5.6-2.3-8.4c-7.4,3.2-14.9,6.4-22.3,9.6c-5.1,2.2-1.1,8.9,3.5,8.2c9.8-1.4,19.6-2.9,29.3-4.7
			c-0.8-2.9-1.6-5.8-2.4-8.7c-6.9,1.7-13.7,3.5-20.5,5.4c-4.8,1.3-4,9,1.2,8.8c4.8-0.1,9.6-0.2,14.5-0.4c0-3,0-6,0-9
			c-7.7,0.9-15.4,1.8-23.1,2.8c-4.9,0.6-6.3,7.2-1.2,8.8c0.6,0.2,1.3,0.4,1.9,0.6c0-2.9,0-5.8,0-8.7c-0.4,0.1-0.9,0.3-1.3,0.4
			c1.8,1.8,3.7,3.7,5.5,5.5c0.2-1.4,0.4-2.5,0.4-3.9c-0.1-4-4.8-5.7-7.7-3.2c-3,2.6-7.6,6.9-6.1,11.3c1.5,4.3,7.2,5.4,11.2,5.9
			c-1.1-0.4-2.1-0.9-3.2-1.3c3,3.6,10.8,2.6,15,2.9c0-3,0-6,0-9c-5.9,0-11.8,0-17.7,0c-5.8,0-5.8,8.9,0,9c4.3,0,8.5,0.4,12.7,1.1
			c0-2.9,0-5.8,0-8.7c-2.1,0.8-4.2,1.4-6.4,1.8c-5,1-3.8,9,1.2,8.8c8.9-0.3,18.7-1.7,27.5-0.1c3.7,0.7,7.2,1.7,11,1.8
			c4.2,0.1,8.4-0.8,12.5-1.6c2.8-0.6,4.2-4.3,2.7-6.6c-2.5-3.7-3-7.9-3.9-12.1c-0.9-4.1-2.4-7.9-4.3-11.6c-2.1-4.2-4-8.4-4.9-13.1
			c-0.5-2.4-0.7-4.9-0.7-7.4c0-2.2,0.6-4.7,0.1-6.9C86.8,2.4,77,8.3,73,11.7c-3.2,2.8-6.1,6-9.4,8.6c-3.8,3-8,5.7-12.1,8.4
			c1.5,2.6,3,5.2,4.5,7.8c4.5-3.4,8.9-6.8,13.4-10.2c3.2-2.4,7.5-4.7,8.3-8.9c0.8-4.1-3-6.7-6.6-5.1c-9,4-23.4,9.6-24.3,21
			c-0.3,2.9,3.1,5.1,5.7,4.3c9-2.5,17.6-6.1,25.8-10.5c-1.8-2.4-3.6-4.7-5.5-7.1c-3.5,2.9-7,5.8-10.5,8.8c-2.7,2.2-5,4.3-5.8,7.8
			c-0.6,2.5,0.8,4.6,3.1,5.5c3.6,1.4,6.9,0.4,10.4-0.8c4.4-1.4,8.8-2.9,13.2-4.3c5.5-1.8,3.2-10.4-2.4-8.7
			C75,30.3,69.4,32.8,64.1,36c-3.3,2-2.7,7.1,1.1,8.2c4.5,1.3,9.1,2,13.8,2.1c-0.8-2.8-1.5-5.6-2.3-8.4c-4.6,2.3-11.1,4.2-14.3,8.3
			c-1.9,2.4-1.7,6.9,2,7.5c2.3,0.4,4.6,0.7,6.9,0.9c-0.4-2.9-0.8-5.9-1.2-8.8c-4.6,0.9-9.3,1.8-13.9,2.7c-4.9,1-3.9,9.3,1.2,8.8
			c2.3-0.2,4.5-0.4,6.8-0.6C63.8,53.9,63.4,51,63,48c-1.9,0.7-3.7,1.4-5.6,2c-3.9,1.4-4.6,7.6,0,8.7c3.5,0.8,7,1.5,10.6,2
			c3.9,0.5,6,0.8,9.3,3.1c3.8,2.7,8.8,4,12.3,0.1c3-3.4,2.5-8.5-0.4-11.8c-3.7-4.1-9.8-4.9-15-5.3c0.4,2.9,0.8,5.9,1.2,8.8
			c4.1-1.2,7.4-3.1,10.6-5.9c1.8-1.5,1.7-4.8,0-6.4c-2.6-2.5-5.6-3.7-9.2-3.6c0.4,2.9,0.8,5.9,1.2,8.8c0.9-0.3,1.8-0.6,2.7-0.9
			c3-1,3.9-3.9,2.7-6.6c-0.2-0.4-0.3-0.7-0.5-1.1c0.2,1.2,0.3,2.3,0.5,3.5c1.2-5,1.8-10.1,1.7-15.3c-0.1-2.8-2.8-5.3-5.7-4.3
			c-5.2,1.7-9,5.5-10.1,11c-1.1,5.7,7.6,8.1,8.7,2.4c0.5-2.3,1.4-3.9,3.8-4.7c-1.9-1.4-3.8-2.9-5.7-4.3c0.1,3.5-0.1,6.9-0.8,10.3
			c-0.6,2.9-0.9,4.4,0.3,7.2c0.9-2.2,1.8-4.4,2.7-6.6c-0.9,0.3-1.8,0.6-2.7,0.9c-4.6,1.6-4.1,9,1.2,8.8c1.1-0.3,2.1,0.1,2.8,0.9
			c0-2.1,0-4.2,0-6.4c-2,1.7-4.1,2.8-6.7,3.6c-5,1.5-3.8,8.5,1.2,8.8c1.7,0.1,3.5,0.3,5.2,0.8c0.8,0.2,2.2,1.3,3,1.3
			c3.3,0.1-0.7-2.1-1.3-2.6c-0.9-0.7-1.8-1.3-2.8-1.8c-2.3-1.1-4.9-1.2-7.3-1.5c-3.7-0.4-7.4-1.2-11-2c0,2.9,0,5.8,0,8.7
			c1.9-0.7,3.7-1.4,5.6-2c4.4-1.6,4.2-9.3-1.2-8.8c-2.3,0.2-4.5,0.4-6.8,0.6c0.4,2.9,0.8,5.9,1.2,8.8c4.6-0.9,9.3-1.8,13.9-2.7
			c5.3-1,3.5-8.4-1.2-8.8c-1.5-0.1-3-0.3-4.5-0.6c0.7,2.5,1.3,5,2,7.5c2.6-3.3,8.8-5,12.5-6.9c4.2-2.1,1.9-8.3-2.3-8.4
			c-3.9-0.1-7.7-0.7-11.5-1.8c0.4,2.7,0.7,5.5,1.1,8.2c4.7-2.8,9.5-5,14.7-6.6c-0.8-2.9-1.6-5.8-2.4-8.7c-3.1,1-6.3,2-9.4,3.1
			c-2.7,0.9-6.6,3.1-9.4,2c1,1.8,2.1,3.7,3.1,5.5c0.6-2.5,4.6-4.8,6.5-6.3c2.5-2.1,5-4.2,7.5-6.3c4-3.4-1.1-9.4-5.5-7.1
			c-7.5,4.1-15.4,7.3-23.6,9.6c1.9,1.4,3.8,2.9,5.7,4.3c0.3-3.4,6.5-6.5,9.2-8c3.4-2,7.1-3.6,10.7-5.2c-2.2-1.7-4.4-3.4-6.6-5.1
			c-0.2,0.9-3.5,3-4.2,3.5c-1.5,1.1-3,2.3-4.5,3.4c-3,2.3-6,4.5-8.9,6.8c-4.5,3.4-0.4,11,4.5,7.8c5.1-3.3,10.1-6.6,14.8-10.5
			c3.2-2.6,8.5-10.3,12.9-10.6c-1.1-0.4-2.1-0.9-3.2-1.3c0.2,0.2,0.4,0.5,0.6,0.7c-0.4-1.1-0.9-2.1-1.3-3.2
			c0.2,4.9-0.3,9.5,0.5,14.3c0.8,4.9,2.5,9.6,4.7,14.1c2.1,4.4,4,8.4,5,13.2c1,4.8,1.9,9.4,4.6,13.5c0.9-2.2,1.8-4.4,2.7-6.6
			c-4.3,0.9-8.7,1.8-13.2,1.1c-3.4-0.5-6.7-1.5-10.2-1.8c-8.3-0.8-17,0.1-25.3,0.4c0.4,2.9,0.8,5.9,1.2,8.8c2.2-0.4,4.3-1,6.4-1.8
			c3.7-1.4,4.8-7.9,0-8.7c-5-0.8-10-1.3-15.1-1.4c0,3,0,6,0,9c5.9,0,11.8,0,17.7,0c5.9,0,5.7-8.6,0-9c-2.6-0.2-6.4,0-8.6-0.5
			c-0.3-0.1-6.2-1.8-6.3-2.1c0.2,1.2,0.3,2.3,0.5,3.5c0.6-1.7,2.7-3.3,4-4.4c-2.6-1.1-5.1-2.1-7.7-3.2c0,0.5,0,1,0,1.6
			c-0.6,3.2,2,6.6,5.5,5.5c0.4-0.1,0.9-0.3,1.3-0.4c4.4-1.3,4.2-7.3,0-8.7c-0.6-0.2-1.3-0.4-1.9-0.6c-0.4,2.9-0.8,5.9-1.2,8.8
			c7.7-0.9,15.4-1.8,23.1-2.8c5.6-0.7,5.9-9.1,0-9c-4.8,0.1-9.6,0.2-14.5,0.4c0.4,2.9,0.8,5.9,1.2,8.8c6.8-1.9,13.7-3.7,20.5-5.4
			c5.7-1.4,3.2-9.7-2.4-8.7C62.6,41.5,52.8,43,43,44.4c1.2,2.7,2.3,5.5,3.5,8.2c7.4-3.2,14.9-6.4,22.3-9.6c4-1.7,2.1-9-2.3-8.4
			c-9.1,1.2-17.8,3.5-26.5,6c1.2,2.7,2.3,5.5,3.5,8.2c5.9-3.9,12-7.4,18.4-10.5c4.5-2.2,1.3-10-3.5-8.2c-6.7,2.4-13.5,4.8-20.2,7.3
			c1.2,2.7,2.3,5.5,3.5,8.2c5.9-3.4,11.8-6.8,17.7-10.2c5-2.9,0.6-10.4-4.5-7.8c-5.9,3-11.7,6-17.6,8.9c2.1,2.1,4.1,4.1,6.2,6.2
			c0.9-2,2-3.5,3.6-5c3.1-3-0.1-8.9-4.4-7.5c-2.2,0.7-4.2,1.6-6.2,2.8C31.3,35.9,35.8,43.7,40.8,40.7L40.8,40.7z"/>
	</g>
</g>
<g class="st2">
	<g>
		<path class="st3" d="M28.4,37.1c0.5,9.9,2.4,19.6,5.8,28.9c1.9-1.1,3.9-2.3,5.8-3.4c-5.5-5.5-5.1-13.3-4.9-20.6
			c0.2-4.5-6.8-4.5-7,0c-0.3,9.2,0,18.6,6.9,25.5c2.3,2.4,7.1,0,5.8-3.4c-3.2-8.8-5.1-17.7-5.6-27C35.2,32.6,28.2,32.6,28.4,37.1
			L28.4,37.1z"/>
	</g>
</g>
<g class="st2">
	<g>
		<path class="st3" d="M87.3,5.2c1.2,4.9,2.5,9.6,4.1,14.3c1.7,5,2.4,10.3,3.9,15.4c1.4,5,2.9,9.9,4.4,14.9c0.7,2.4,1.4,4.8,2.2,7.2
			c0.9,2.5,3,5.4,2.9,8.1c1.9-0.5,3.7-1,5.6-1.5c-7.3-13.3-9.9-27-12.7-41.7c-0.7-3.8-6.5-2.2-5.8,1.6c1.4,7.7,2.5,15.5,4.6,23.1
			c2,7.1,5.1,13.7,8.6,20.1c1.5,2.7,5.5,1.4,5.6-1.5c0.2-4.7-2.9-8.9-4.3-13.3c-1.7-5.6-3.4-11.2-5-16.8c-1.5-5.1-2.2-10.5-3.8-15.6
			C96,14.1,94.4,9,93.1,3.6C92.2-0.2,86.4,1.4,87.3,5.2L87.3,5.2z"/>
	</g>
</g>
<g class="st2">
	<g>
		<path class="st3" d="M45.8,72.4c2.8,6,5.1,12.1,7.4,18.3c1.3,3.4,3.4,8.6,7.3,9.6c2.9,0.8,5.4-1.5,5.1-4.4
			c-0.1-1.7-1.2-3.1-2.2-4.4c-2.2-3-4.4-5.4-5.5-9c-1.2-4.1-1.1-10.7-4.3-13.8c-2.3-2.2-6.1-1.4-7.4,1.5c-1.8,4,1.6,9.9,2.9,13.6
			c1.8,5.2,3.7,10.3,7.1,14.7c2.3,3,7.5,0,5.2-3c-4-5.2-5.8-11.3-7.9-17.4C53,76.3,53,73.9,51,73.9c-2.2,0-0.7,1.5-0.3,3.1
			c0.7,3.1,1.2,6.3,2.3,9.3c0.9,2.3,2.1,4.3,3.7,6.2c0.5,0.7,1.1,1.3,1.6,1.9c1.1-0.2,2.2-0.4,3.4-0.6c0.1-0.7-2.4-4.3-2.9-5.5
			c-2.4-6.4-4.8-12.7-7.8-18.9C49.3,65.9,44.1,68.9,45.8,72.4L45.8,72.4z"/>
	</g>
</g>
<g class="st2">
	<g>
		<path class="st4" d="M98.2,28.9c4.9,3.4,5,9.1,4.3,14.4c-0.5,3.5,4.9,3.8,5.9,0.8c2.4-6.8-0.2-18.6-8.4-20.3
			c-3.4-0.7-5.1,3.5-2.3,5.5c1.7,1.2,3.2,2.5,4.6,4.1c1.6,1.9,1.5,3.5,0.8,5.8c-1.2,3.7,4.6,5.3,5.8,1.6c2.2-6.9-0.4-13.8-7.5-16.3
			c-3.7-1.3-5.2,4.5-1.6,5.8c4.1,1.4,4.5,5.3,3.3,8.9c1.9,0.5,3.9,1.1,5.8,1.6c1-3.2,1.3-6.7-0.6-9.5c-1.9-2.9-4.7-5.2-7.5-7.2
			c-0.8,1.8-1.5,3.7-2.3,5.5c4.8,1,5.4,9.2,4.2,12.9c2,0.3,3.9,0.5,5.9,0.8c1-7.7-0.6-15-7.3-19.6C98.1,21.5,95.1,26.7,98.2,28.9
			L98.2,28.9z"/>
	</g>
</g>
<g>
	<g>
		<path class="st5" d="M89.9,0.6c-0.1,0.1-0.3,0.1-0.4,0.3c-0.5,0-0.9,0.3-1.3,0.5c0-0.1-0.1-0.1-0.3-0.1c-0.1,0.1-0.3,0.3-0.4,0.3
			c-0.1,0-0.3,0-0.3,0c-0.1,0-0.3,0-0.3,0.1c-0.1,0-0.1,0.1-0.3,0.3c-0.1,0.3-0.1,0.4-0.3,0.7c0,0,0-0.1-0.1-0.3c0,0,0,0-0.1,0
			c0,0-0.1,0-0.3,0v0.1c0,0.9,0.1,1.9,0.3,2.8c-0.3,0.1-0.5,0.3-0.8,0.3c-0.3,0-0.4,0-0.5,0c0,0-0.1,0-0.3,0
			c0.5-0.3,0.9-0.5,1.3-0.9c-0.9,0.5-2,0.9-2.9,1.3C82.6,6,82.4,6,82.2,6.2c-6.5,1.6-12.3,4.4-17.5,8.5c-0.4,0.1-0.7,0.4-1.1,0.5
			c-1.6,1.1-3.1,2.3-4.4,3.7c-0.1,0-0.1,0-0.1,0.1c-1.6,1.3-3.2,2.8-4.5,4.4c-1.6,0.8-2.9,1.6-4.4,2.4c0.1-0.1,0.1-0.3,0.3-0.4
			c-3.5,1.6-7.1,3.3-10.8,4.7c-3.1,0.8-6.3,1.5-9.6,1.9c0.1,0.1,0.1,0.1,0.1,0.1c0.9,0,1.7,0,2.5,0c0,0.1,0,0.1,0,0.1
			c-0.1,0-0.3,0-0.3,0.1c-0.4,0.1-0.8,0.4-1.3,0.4c-0.1,0-0.1,0-0.1,0c0.1,0,0.1,0,0.3,0c0-0.1,0-0.1-0.1-0.3c-0.1,0-0.3,0-0.4-0.1
			c0,0.1-0.1,0.1-0.1,0.1c-0.3,0-0.5,0.3-0.8,0.3c-1.1,1.1-1.7,2.4-2,4c-0.1,0.1-0.1,0.3-0.1,0.4c0,0.3-0.1,0.4-0.3,0.7
			c-0.1,0.3-0.4,0.4-0.5,0.8c-0.3,1.1-0.5,2.3-0.5,3.6C26,44.5,26,46.8,26.4,49c0.1,0.1,0.1,0.1,0.1,0.1c0.1,1.2,0.4,2.3,0.5,3.3
			c0,0.4,0,0.7,0,1.1c0,0.4,0,0.9,0.1,1.5c0.1,2.1,0.7,4,1.5,5.9c0,0.1,0,0.3,0.1,0.4c0.9,1.7,2,3.2,3.2,4.7
			c0.7,0.7,1.5,1.3,2.1,1.7c1.2,2,2.7,3.1,4.7,2.9c0.5,0.1,0.9,0,1.5,0c-0.1,0-0.3,0.1-0.3,0.3c0,0,0.1,0,0.1,0.1c0.1,0,0.3,0,0.4,0
			c0.5-0.4,1.2-0.7,1.9-0.8c0.5-0.3,1.1-0.4,1.7-0.4c0,1.9,0.4,3.7,0.9,5.6c0.1,0,0.1,0,0.1,0.1c0.3,0.5,0.4,1.1,0.7,1.6
			c0.1,0.4,0.1,0.8,0.3,1.1c0,0.4,0,0.8,0,1.2c0,0.1,0.1,0.1,0.3,0.3c0,0.4,0.1,0.8,0.3,1.2c2.1,6.4,5.1,12.5,8.9,18.2
			c0.1,0,0.3,0,0.4,0c0.5,1.7,1.6,3.2,3.2,4.3c1.5,1.1,2.8,1.2,3.9,0.3c0-0.3-0.1-0.4-0.1-0.5c0.7-0.1,1.2-0.1,1.7-0.4
			c0.3-0.5,0.7-1.1,1.1-1.5c0,0,0,0,0-0.1c1.5-1.9,1.9-4.1,1.1-6.7c0-0.1,0-0.3,0-0.4c-0.1,0-0.3-0.1-0.3-0.3c-0.1,0-0.1,0-0.1,0
			c-0.1,0.1-0.1,0.1-0.3,0.1c-0.1-0.3-0.4-0.7-0.5-0.9c-1.2-1.6-2.5-3.1-4-4.3c-0.8-1.5-1.7-2.8-2.5-4.3c-1.6-5.5-2.9-11.1-4.1-16.7
			c1.3-0.1,2.7-0.3,3.9-0.5c1.1,0.1,2.1,0.3,3.2,0.4c0,0-0.1,0-0.3,0.1l0.1,0.1c0.1-0.1,0.4-0.3,0.5-0.3c2.5,0.1,4.9,0.4,7.3,0.7
			c-0.3,0.1-0.4,0.3-0.7,0.5c0.1,0.1,0.1,0.1,0.3,0.1c0.3-0.3,0.7-0.4,1.1-0.5c2.5,0.3,5.1,0.7,7.6,1.2c2.5,0.4,4.9,0.9,7.5,1.5
			c3.3,0.9,6.4,0.8,9.2-0.3c2.5-0.1,4.9-0.9,7.1-2.4c-1.5,0.5-3.1,0.9-4.7,1.2c1.2-0.3,2.5-0.7,3.7-1.1c0.3-0.1,0.5-0.1,0.7-0.1
			c1.2-0.1,2.1-0.7,2.9-1.1c0.1,0.3,0.3,0.3,0.3,0.5l0,0c-0.1,0.4-0.1,0.5-0.1,0.8c-0.1,0.1-0.1,0.3-0.3,0.3c0,0.1,0,0.1,0,0.3
			c0,0,0,0.1,0.1,0.1c0.4,0,0.8,0.3,1.3,0.3c0.3,0.7,0.7,0.8,1.2,0.8c-0.1-0.1-0.1-0.3-0.1-0.4h0.1c0-0.1,0-0.3-0.1-0.4
			c0.5,0.3,1.2,0.4,1.9,0.4c-0.1,0.3-0.3,0.3-0.3,0.4c-0.4,0.1-0.7,0-0.9,0c0,0.5,0.3,0.8,1.1,0.5c0.3-0.3,0.5-0.5,0.7-0.9
			c0.1,0,0.3,0,0.5,0c0.1-0.1,0.4-0.4,0.4-0.7c0.1-0.3,0.1-0.4,0.3-0.5c1.9-1.1,2.4-2.8,1.9-5.1c-0.1-0.1-0.1-0.1-0.3-0.3
			c-0.1-0.3-0.4-0.4-0.5-0.5c0-3.1-0.7-5.9-2.1-8.7c-0.1-1.2-0.5-2.4-0.9-3.5c-0.5-1.5-1.1-2.8-1.6-4.3c0,0.1,0.1,0.1,0.3,0.1
			c0,0,0.1,0,0.3-0.1c0,0,0,0,0.1-0.1c0,0,0-0.1,0.1-0.1c0-0.1,0-0.3,0.1-0.4c2.5-2.3,3.6-5.3,3.5-8.9c-0.5-7.3-4.4-12.3-11.5-14.6
			c-0.5-0.1-0.8-0.1-1.2-0.1c-0.5-1.7-1.1-3.3-1.6-4.9c-0.1-0.8-0.3-1.5-0.4-2.3c-0.4-2.5-1.1-4.9-2-7.3c-0.8-2.3-1.6-4.5-2.4-6.8
			C92.1,1,92.1,1.1,92,1.2C91.5,0.7,90.7,0.4,89.9,0.6z M89.1,2.2c0,0.1,0,0.3,0.1,0.5c0,0.1,0,0.1,0.1,0.3c0.1-0.1,0.3-0.1,0.3-0.1
			c0.4-0.4,0.9-0.5,1.6-0.1c0.1,0.3,0.4,0.8,0.5,1.2c0.8,1.7,1.6,3.5,2.1,5.2c0.5,1.9,1.1,3.7,1.5,5.6c0.1,0.8,0.4,1.6,0.5,2.4
			c0.1,0.1,0.1,0.3,0.1,0.4c0.5,2.1,1.1,4.4,1.5,6.7c0.4,2,0.8,3.7,1.3,5.6c-0.3,0.4-0.4,0.7-0.5,1.1c0.3-0.3,0.4-0.4,0.7-0.5
			c1.2,4.3,2.7,8.5,4.5,12.5c-0.9-1.1-1.7-2.3-2.3-3.7c0.5,2,1.5,3.9,2.8,5.7c0.1,0.4,0.3,0.9,0.7,1.3c0.3,1.2,0.7,2.3,1.1,3.5
			c0.7,1.7,1.2,3.5,1.9,5.2c-0.1,0-0.3-0.1-0.3-0.3c0,0.1,0,0.3,0,0.3c0.3,0.7,0.5,1.3,0.9,2c0,0.4,0.1,0.8,0.1,1.3
			c0.1-0.1,0.3-0.1,0.4-0.1c0.1,0.1,0.3,0.1,0.4,0.1c0.1,0.7,0.3,1.2,0.4,1.7v0.1c-0.3,0.5-0.3,1.5,0.1,2.4c0,1.1-0.1,2.1-0.3,3.1
			c-0.9,0.7-2,1.3-2.9,1.7c-0.1-0.1-0.3-0.3-0.4-0.4c0-0.1,0-0.1,0-0.1c0.1-0.1,0.1-0.3,0.3-0.4c0,0,0-0.1-0.1-0.1
			c0.3,0.1,0.4,0.3,0.7,0.4c0.1,0,0.4-0.1,0.5-0.3c-0.8-0.7-1.5-1.5-2.1-2.1c0-0.1,0-0.3-0.1-0.4c-0.1-0.1-0.3-0.3-0.4-0.3l0,0
			c-0.4-0.4-0.8-0.8-1.1-1.2c-0.3-0.5-0.4-0.8-0.7-1.3c-0.4-0.8-0.8-1.9-1.2-2.8c-1.5-3.3-2.7-6.7-4-10.3c-0.7-1.7-1.2-3.6-1.9-5.5
			c0.1-0.1,0.1-0.3,0.3-0.5h-0.1C96,42.1,96,42.2,96,42.2c-0.1,0-0.1,0-0.1,0c-0.4-1.3-0.8-2.5-1.1-3.7c0-0.1,0-0.1,0-0.1
			c0.5,1.6,1.2,3.2,2,4.7c0.1,0.1,0.3,0.1,0.4,0.1c0,0,0.1,0,0.3-0.1c-0.8-1.5-1.3-2.8-1.7-4.4c-1.2-4.4-2.1-8.7-2.9-13.1
			c-0.3-1.3-0.5-2.8-0.7-4.3C92,21.3,92,21.1,92,21c0-0.7-0.1-1.5-0.3-2.1c-0.4-2.5-0.8-4.9-1.3-7.3c-0.3-1.6-0.5-3.3-0.8-5.1
			c-0.1,0-0.1,0-0.3-0.1c0.1,0,0.1,0,0.1,0l-0.1-0.1c-0.1,0-0.3,0-0.3,0c-0.1-0.3-0.1-0.5-0.3-0.7c0,0,0-0.1,0-0.3c0,0,0,0,0-0.1
			c-0.4-0.9-0.7-1.9-0.9-2.8C88.3,2.2,88.7,2.2,89.1,2.2z M86.5,2.8c0.1-0.1,0.1-0.3,0.1-0.3c0.1-0.1,0.1-0.1,0.1-0.1
			c0,0.3,0,0.4,0,0.5l-0.1-0.1C86.5,2.8,86.5,2.8,86.5,2.8z M84.8,6.8c0.3,0,0.5,0,0.8-0.1c-0.7,1.5-1.2,2.9-1.9,4.4
			c0,0.1,0,0.3,0,0.4c0.1,0.3,0.1,0.7,0.1,0.9c0.1,0,0.4,0,0.5,0c0-0.1,0-0.3,0.1-0.3c0.7-1.7,1.2-3.6,1.7-5.3l0,0
			c0.1,1.1,0.3,2,0.4,3.1c-0.7,1.9-1.5,3.9-2.1,5.9c-0.1,0.4,0,0.5,0.4,0.5c0.1-0.1,0.1-0.1,0.3-0.3c0.7-1.5,1.3-2.9,1.7-4.5
			c0.1,0.8,0.3,1.6,0.5,2.4c-0.8,1.3-1.6,2.8-2.3,4.3c-0.8,1.7-0.9,3.5-0.3,4.9c0,0,0-0.1,0.1-0.1c0.7-2.8,1.6-5.5,2.5-8.1
			c0.3,0.9,0.4,1.9,0.7,2.8c-1.1,3.5-2,6.9-3.1,10.4c0.4,0.1,0.5,0.1,0.8-0.4c0.9-3.1,1.9-6.1,2.4-9.3c0.7,2.5,1.3,5.2,2.1,7.6
			c0.3,1.3,0.5,2.7,0.8,3.9c-1.1,2.5-1.7,4.9-2.1,7.3c0-0.1,0-0.1,0.1-0.3c0.7-2,1.5-4.3,2.1-6.4c0.3,1.6,0.7,3.1,0.9,4.5v0.1
			c-0.3-0.9-0.5-1.6-0.8-2.5h-0.1c0.3,1.2,0.4,2.3,0.5,3.3c-0.4,1.1-0.9,2.3-1.3,3.2c0,0,0.1,0,0.1-0.1c0.5-0.7,0.9-1.5,1.3-2.3
			c0.3,1.1,0.4,2.1,0.7,3.2c-0.7,1.7-1.3,3.6-2.1,5.2c0.1,0,0.3,0,0.3-0.1c0.1,0,0.1-0.1,0.1-0.1c0.8-1.5,1.3-2.9,1.9-4.4
			c0.1,0.4,0.1,0.7,0.3,1.1c-0.5,1.2-0.9,2.4-1.2,3.6c0.1,0,0.3-0.1,0.5-0.3c0,0,0-0.1,0-0.3c0.4-0.7,0.7-1.3,0.9-2
			c0.3,1.2,0.5,2.3,0.9,3.3c-0.3,0.8-0.4,1.5-0.5,2.3c0-0.1,0-0.3,0.1-0.3c0.1-0.4,0.3-1.1,0.5-1.5c0.1,0.4,0.3,1.1,0.4,1.5
			c0.1,0.5,0.4,1.2,0.5,1.9c-0.3,0.8-0.4,1.6-0.7,2.4c0.1-0.1,0.1-0.3,0.1-0.3c0.3-0.5,0.5-1.1,0.8-1.6c0,0.3,0.1,0.5,0.3,0.8
			c0,0,0,0.1-0.1,0.1c-0.1,0.9-0.5,1.7-0.9,2.5c0.1,0,0.3,0,0.4-0.1l0.1-0.1c0.4-0.5,0.7-1.1,0.9-1.6c0.4,1.2,1.1,2.4,1.7,3.6
			c-1.1,2.1-2,4.1-2.9,6.3c-0.5,0.3-0.7,0.5-0.4,0.7c0.4-0.1,0.7-0.3,0.9-0.3c0-0.1,0-0.3,0.1-0.3c0.9-1.9,1.9-3.7,2.5-5.7
			c0.5,0.8,0.9,1.6,1.5,2.3c-1.3,2.1-2.5,4.3-4,6.3l0.1,0.1c2-1.7,3.3-3.7,4.1-6c0.4,0.7,0.9,1.5,1.5,2.1c0.8,1.6,1.5,3.2,2.3,4.7
			c-1.2,0.3-2.3,0.5-3.3,0.8c0-0.1,0-0.1,0-0.1s-0.1,0.1-0.3,0.1c-2.4,0.7-4.8,1.3-7.1,2.1c-0.9,0-1.9,0-2.7,0
			c-4.9-0.4-9.9-1.1-14.6-2c0.1-0.3,0.4-0.4,0.5-0.7c-0.1,0-0.3,0-0.3,0c-0.3,0.3-0.5,0.3-0.8,0.5c-0.3-0.1-0.7-0.1-1.1-0.3
			c0.3-0.1,0.5-0.4,0.8-0.5c-0.1-0.1-0.3-0.1-0.3,0c-0.4,0.1-0.8,0.3-1.1,0.5c-0.7-0.3-1.2-0.4-1.7-0.5h-0.3
			c0.5,0.1,1.1,0.4,1.6,0.5c-0.8,0.4-1.5,0.7-2.1,1.1c-1.7-0.3-3.5-0.4-5.2-0.7c0,0,0-0.1,0.1-0.1c1.5-1.5,3.2-2.4,5.1-2.9
			c0-0.1,0-0.1-0.1-0.1c-0.3-0.1-0.5-0.3-0.7-0.3c-0.1,0-0.3,0-0.4,0.1c-1.7,0.7-3.2,1.6-4.7,2.9c0,0.1,0,0.3,0.1,0.4
			c-0.5-0.1-0.8-0.1-1.2-0.1c1.5-0.9,3.1-2,4.5-3.2c-0.1,0-0.3-0.1-0.4-0.1c-0.1,0-0.1,0.1-0.3,0.1c-1.9,0.9-3.5,1.9-4.8,3.1
			c-0.5-0.1-1.1-0.1-1.5-0.3c-0.3,0-0.4,0-0.7,0c0,0,0,0,0-0.1c-0.3,0-0.5,0-0.8-0.1c2.1-1.2,4.1-2.4,6.1-3.6c0-0.1,0-0.1-0.1-0.3
			c-0.3,0-0.5-0.1-0.8-0.3c-0.3,0.3-0.7,0.5-1.1,0.7c-1.9,1.1-3.5,2.3-4.7,3.5c-0.3,0-0.5,0-0.9,0c-0.1,0-0.3,0-0.4,0h-0.1
			c1.6-1.2,3.1-2.4,4.4-3.9c-0.1,0-0.1,0-0.3,0c-2,0.9-3.7,2.3-5.2,3.7c-0.9,0.1-1.9,0.1-2.8,0.3c2-2,4-3.7,6.1-5.3
			c4.4,0.5,8.7,1.6,12.7,3.2c-2.1,0.7-3.7,1.7-4.8,3.1c0,0,0.1,0,0.3,0c1.6-1.1,3.1-2,4.7-3.1c0.7,0.4,1.3,0.5,2,0.8
			c-0.5-0.3-0.9-0.7-1.5-0.8c-0.1-0.1-0.1-0.1-0.3-0.1l0,0l0,0c-5.2-2.4-10.7-3.7-16.4-4.1c0-0.1,0-0.1,0.1-0.3
			c-0.1,0-0.1,0-0.3,0.1c0,0.1,0,0.1,0,0.1c-0.1,0-0.1,0-0.3,0c-0.7-0.1-1.3,0-2.1,0.1c0.5,0.1,1.1,0.3,1.7,0.4
			c-2.4,1.9-4.5,4.1-6.4,6.5h-0.1c0-0.1,0-0.3,0.1-0.3c-0.1,0-0.3,0.1-0.5,0.3c-0.3,0.1-0.7,0.3-0.9,0.3c0.1,0,0.1-0.1,0.1-0.3h-0.1
			c-0.1,0.1-0.1,0.3-0.1,0.3c-0.5,0-1.2,0.1-1.7,0.3c3.1-2.1,5.5-4.7,7.3-7.9c-0.1,0-0.3,0-0.4,0c-2.4,2.7-4.8,5.3-7.1,7.9
			c-0.1-0.5-0.3-1.1-0.4-1.6c2.1-1.6,3.6-3.7,4.5-6.3c-0.1,0-0.3,0-0.4,0.1c-2.1,3.2-4.7,5.9-7.6,8c-0.1-0.1-0.1-0.1-0.1-0.1
			c0.1-0.1,0.1-0.1,0.1-0.1c0-0.1,0-0.1-0.1-0.3c-0.3-0.1-0.5-0.4-0.9-0.5c-0.1-0.5-0.3-1.1-0.4-1.5c0.3,0,0.5,0.1,0.8,0.3
			c0-0.1,0-0.1,0-0.1c-0.3-0.1-0.5-0.4-0.8-0.5c-0.1-0.1-0.1-0.3-0.1-0.3c-0.3-0.9-0.5-1.7-0.8-2.5c0.5,0.4,1.2,0.8,1.7,1.2
			c0.1,0,0.3,0,0.4-0.1c-0.1-0.1-0.3-0.3-0.3-0.3c-0.8-0.7-1.5-1.3-2.1-1.9c-0.3-1.1-0.5-2.1-0.8-3.1c0.4,0.4,0.9,0.8,1.5,1.3
			c0.1,0,0.3,0,0.4-0.1c-0.1-0.1-0.1-0.3-0.3-0.3c-0.5-0.7-1.2-1.3-1.9-1.9c-0.1-0.8-0.4-1.5-0.5-2.3c0.5,0.5,1.1,0.9,1.6,1.5
			c0.1,0,0.3,0,0.4-0.1c-0.1,0-0.1-0.1-0.3-0.1c-0.7-0.7-1.3-1.3-1.9-2c-0.3-0.9-0.4-2-0.7-2.9c1.1,0.9,2,1.9,3.1,2.9
			c0.1,0,0.3,0,0.4-0.1c-0.1-0.1-0.3-0.3-0.3-0.3c-1.1-1.3-2.3-2.7-3.3-3.9c-0.1,0-0.1-0.1-0.1-0.1c-0.1-0.8-0.3-1.5-0.4-2.1
			c0.5,0.5,0.9,0.9,1.5,1.5c0.1,0,0.1-0.1,0.3-0.1c0-0.1,0-0.1-0.1-0.1c0-0.1-0.1-0.3-0.3-0.4c-0.4-0.5-0.9-1.2-1.5-1.7
			c0-0.3,0-0.5-0.1-0.9c0-0.1,0-0.3,0-0.4c0.4,0.4,0.9,0.8,1.3,1.1c0.1,0,0.3,0,0.3-0.1c0.1,0,0.1-0.1,0.1-0.1
			c-0.1,0-0.1-0.1-0.3-0.3c-0.5-0.5-1.1-1.1-1.7-1.7c0-0.5-0.1-1.1-0.3-1.6c0.5,0.4,1.1,0.8,1.6,1.2c0-0.1,0.1-0.3,0.1-0.3
			c0-0.1-0.1-0.3-0.1-0.3c-0.7-0.7-1.2-1.1-1.9-1.7c-0.1-0.5-0.3-1.1-0.4-1.6c0.9,0.7,2,1.3,3.1,2.1c0.1,0.1,0.1,0.1,0.1,0.3
			c0.1,0,0.1,0,0.3,0c0,0,0,0,0.1,0c0-0.1,0-0.1-0.1-0.1c-1.2-1.3-2.4-2.4-3.9-3.5c-0.1-0.5-0.3-1.1-0.4-1.6c0.9,0.7,1.9,1.3,2.7,2
			c0.1,0,0.3,0,0.3-0.1c0.1,0,0.1-0.1,0.1-0.1c-0.1,0-0.3-0.1-0.4-0.3c-0.8-0.7-1.7-1.2-2.7-1.7h-0.1c-0.1-0.3-0.1-0.4-0.3-0.5
			c0-0.1-0.1-0.1-0.1,0c-0.1-0.5-0.3-1.1-0.4-1.5c0.3-0.1,0.4-0.3,0.7-0.4c0-0.1,0-0.1-0.1-0.3c0,0-0.1,0-0.1-0.1
			c0.1-0.1,0.4-0.3,0.5-0.3c0-0.1,0-0.1-0.1-0.3c0.9-0.1,1.7-0.4,2.7-0.7c1.7,1.5,3.6,2.9,5.5,4.3c0.3,0,0.4,0,0.5,0
			c0.1,0,0.1,0,0.1,0c0-0.1,0-0.1,0-0.1c-1.9-1.5-3.7-3.1-5.6-4.4c0.7-0.3,1.5-0.4,2.3-0.8c0,0,0,0,0.1,0c1.1,1.7,2.7,2.7,4.5,3.1
			c-1.2-0.8-2.4-1.6-3.7-2.4c0,0,0-0.1-0.1-0.1c-0.1-0.1-0.3-0.4-0.5-0.7c0.9-0.3,1.9-0.7,2.7-0.9c1.3,1.2,2.8,2,4.4,2.3
			c-0.1,0-0.3-0.1-0.4-0.1c-1.3-0.7-2.5-1.3-3.7-2.3c0.7-0.3,1.5-0.7,2.1-1.1c0.7-0.1,1.2-0.4,1.7-0.5h0.1c0.3-0.1,0.5-0.4,0.9-0.5
			c0.4,0,0.9-0.1,1.5-0.3c-0.4,0.4-0.8,0.7-1.2,0.9c0.1,0.1,0.3,0.1,0.4,0.3c1.2-0.4,2.1-1.1,3.1-1.7l0,0c0.3-0.1,0.7-0.3,0.9-0.5
			c1.9-0.8,3.5-2,5.1-3.6c0,0,0.1-0.3,0.3-0.3c2.8-1.7,5.6-3.7,8.1-5.7c-0.8,0.3-1.5,0.7-2.3,1.1c-1.1,0.7-2.1,1.3-3.2,1.9
			c2-1.9,4.3-3.6,6.7-5.3c0.3-0.3,0.5-0.4,0.9-0.5v-0.1c4.4-1.7,8.7-3.9,12.7-6.3c0.7-0.1,1.2-0.3,1.9-0.4c0.1,0,0.4,0,0.7,0
			C84.1,7,84.5,6.8,84.8,6.8z M91.6,2.2c0.1,0,0.1,0,0.1,0s0,0.1,0.1,0.1C91.7,2.3,91.7,2.2,91.6,2.2z M99.1,23.3v-0.1
			c1.1,0,2.4,0.4,3.9,1.3c-0.1,0-0.3,0-0.4-0.1C101.3,23.9,100.1,23.5,99.1,23.3z M89.9,16.6c-0.3-1.2-0.5-2.4-0.7-3.7
			c0.7,3.5,1.5,6.9,2.3,10.5c0.1,0.5,0.3,1.2,0.3,1.9C91.2,22.3,90.5,19.5,89.9,16.6z M105.9,31.5L105.9,31.5
			c-1.5,1.5-2.3,3.1-2.5,4.9c-0.1-0.1-0.1-0.3-0.1-0.3c0.7-1.9,1.2-3.7,1.7-5.6c-0.1,0-0.1-0.1-0.1-0.3c-0.1,0-0.1-0.1-0.1-0.1
			c-0.3-0.1-0.5,0-0.7,0.1c-0.1,0.4-0.4,0.8-0.5,1.2c-0.3,1.3-0.5,2.4-0.7,3.6c-0.1-0.5-0.4-1.2-0.5-1.9c0.4-1.2,0.8-2.5,1.2-3.7
			c-0.1-0.1-0.1-0.3-0.1-0.4c0,0,0-0.1-0.1-0.1c-0.1-0.1-0.3,0-0.3,0c-0.4,1.1-0.8,2.1-1.1,3.2v-0.1c-0.4-0.9-0.7-1.9-0.9-2.8
			c0.4-1.1,0.8-2.1,1.3-3.1c-0.1,0-0.3,0-0.4-0.1v0.1c-0.1,0-0.3,0-0.4,0c0,0.1-0.1,0.3-0.3,0.5c-0.3,0.5-0.4,1.1-0.5,1.5
			c-0.1-0.4-0.3-0.8-0.4-1.2c0-0.1,0-0.1,0-0.1c0.4-0.3,0.4-0.7,0.3-1.1c-0.1,0-0.3,0.1-0.3,0.1c-0.1,0.1-0.1,0.3-0.3,0.4
			c-0.3-0.9-0.5-2-0.9-2.9c4,1.1,6.8,3.5,8.7,7.1c2.7,5.2,2.3,10.1-1.2,15.1v0.1c-0.1-0.3-0.3-0.5-0.3-0.8c1.1-1.3,1.9-2.9,2.3-4.5
			c-0.9,1.2-1.7,2.3-2.7,3.5c-0.4-0.9-0.8-2.1-1.2-3.2c1.1-1.7,1.7-3.5,1.9-5.3c-0.1,0-0.3,0-0.3,0.1c-0.7,1.5-1.3,2.9-1.9,4.4
			c-0.1-0.7-0.4-1.3-0.7-2c0.1-0.1,0.1-0.4,0.1-0.8c0,0,0-0.1,0.1-0.1C104.8,35,105.5,33.3,105.9,31.5z M111.6,64.8
			c-0.1-0.1-0.1-0.3-0.1-0.3c0-0.1,0-0.1,0-0.1c0-0.3,0-0.7,0-1.1c0.1,0.3,0.3,0.3,0.4,0.5c0,0,0,0.1,0,0.3c0.1,1.6-0.3,3.1-1.2,4.3
			c0.3-1.1,0.5-2.1,0.7-3.2c0,0,0,0,0-0.1l0,0C111.5,64.9,111.5,64.9,111.6,64.8z M97.2,49c0,0.1,0,0.1,0,0.1
			c-0.3-0.4-0.4-0.9-0.5-1.5c0,0,0,0,0.1-0.1C96.9,48.1,97.1,48.6,97.2,49z M97.3,49.7c0.1,0,0.1,0,0.1,0.1c0.3,1.1,0.7,2.1,1.1,3.3
			c-0.3-0.7-0.5-1.3-0.7-1.9C97.6,50.9,97.5,50.2,97.3,49.7L97.3,49.7z M95.5,43.7h0.1c0.3,1.2,0.7,2.4,1.1,3.6c0,0,0,0-0.1,0
			C96.3,46.2,95.9,44.9,95.5,43.7z M95.1,42.2c0.1,0.3,0.3,0.7,0.4,1.1l0,0C95.3,43,95.2,42.6,95.1,42.2z M108.7,68.3
			c-0.5,0-0.9,0.1-1.3,0.1c-0.1-0.1-0.4-0.4-0.5-0.7c0.8-0.1,1.5-0.4,2.3-0.7C108.9,67.3,108.8,67.7,108.7,68.3z M106.3,66.2
			c-0.1,0-0.1,0-0.1,0c-0.1,0-0.1-0.3-0.1-0.4C106.1,66,106.1,66.1,106.3,66.2z M34.1,32.2c-0.1,0-0.3,0.1-0.5,0.1v-0.1
			C33.7,32.2,33.8,32.2,34.1,32.2z M31.7,34.7c0.4-0.1,0.7-0.1,0.9-0.1c0.1,0.5,0.3,1.2,0.4,1.7c-0.1,0-0.3-0.1-0.4-0.1
			c-0.1,0-0.1,0-0.1,0c-0.1,0-0.3,0-0.3,0c-0.1,0.1-0.1,0.1-0.1,0.3c0.4,0.4,0.8,0.7,1.3,1.1c0,0.3,0.1,0.7,0.3,0.9
			c-0.7-0.5-1.2-1.1-1.7-1.6c-0.1,0-0.1,0-0.1,0c-0.1,0-0.3,0.1-0.4,0.3c0.8,0.9,1.7,1.9,2.5,2.7c0.1,0.5,0.3,1.1,0.4,1.5
			c-0.9-0.9-1.9-1.7-2.8-2.4c-0.1,0-0.3,0-0.4,0.1c0,0,0,0,0,0.1c0.9,1.1,2,2.1,3.1,3.2c0,0.4,0.1,0.7,0.1,1.1
			c-0.5-0.5-1.2-1.1-1.9-1.6L32.3,42c0.8,0.7,1.5,1.5,2.1,2.3c0.1,0.8,0.4,1.7,0.5,2.7c-0.3-0.3-0.5-0.5-0.8-0.7h-0.1
			c0.3,0.5,0.7,1.1,1.1,1.5c0.1,0.1,0.1,0.3,0.1,0.5c0.3,0.8,0.5,1.7,0.7,2.7c-0.4-0.5-0.9-1.1-1.5-1.7c-0.3,0-0.3,0.1-0.1,0.4
			c0.5,0.8,1.2,1.6,1.9,2.3c0.3,1.1,0.5,2,0.7,2.9c-0.3-0.3-0.5-0.4-0.7-0.5h-0.3c0.4,0.4,0.8,0.8,1.1,1.1c0.3,1.1,0.5,2.3,0.8,3.2
			c-0.5-0.4-1.1-0.8-1.6-1.3c-0.4,0-0.4,0.1-0.1,0.4c0.5,0.7,1.3,1.5,2,2.1c0.3,0.9,0.5,2,0.7,2.9c-0.7-0.5-1.5-1.1-2.3-1.7
			c-0.3,0.3-0.1,0.7,0.4,1.2c0.7,0.5,1.3,1.1,2.1,1.5c0,0.4,0.1,0.7,0.3,1.1c-1.3-0.9-2.5-1.7-3.7-2.4c0,0,0,0-0.1,0
			c-0.1,0-0.1,0-0.3,0.1v0.1c0,0.1,0,0.1,0,0.3c0.3,0.1,0.5,0.3,0.8,0.3c0,0.1,0.1,0.3,0.3,0.3c0.9,0.9,2.1,1.9,3.3,2.5
			c0,0.3,0,0.4,0.1,0.7c-1.2-0.7-2.3-1.3-3.5-2c-0.1-0.1-0.3-0.1-0.3,0c1.1,1.2,2.3,2.1,3.6,2.7c0,0.1,0,0.3,0,0.4
			c0.1,0,0.1,0,0.1,0.1c-0.7,0.1-1.3,0.1-2,0s-1.5-0.5-2-0.8c-0.1,0-0.3-0.1-0.4-0.3c-0.8-0.7-1.6-1.5-2.4-2.3
			c-1.3-1.9-2.3-3.9-2.8-5.9c0.4,0.7,0.8,1.3,1.3,2c0.1,0,0.4,0,0.7,0c-0.5-0.9-0.9-1.7-1.3-2.7c-0.4-0.8-0.7-1.6-0.9-2.4
			c-0.9-4.3-1.2-8.5-0.8-12.8c0,0,0,0,0.1,0c0,0,0,0,0.1-0.1c-0.1-0.3-0.1-0.8-0.1-1.2c0.1-0.5,0.3-1.2,0.3-1.7
			C30.1,37.8,30.7,36.2,31.7,34.7z M30.9,32.9C30.7,33,30.7,33,30.7,33l0,0c-0.1,0.1-0.3,0.1-0.4,0.1c0.1,0,0.1,0,0.1-0.1
			C30.6,33,30.7,33,30.9,32.9z M58.2,21.5c0,0-0.1,0-0.3,0c0.3-0.3,0.5-0.5,0.8-0.7C58.6,21,58.4,21.3,58.2,21.5z M57,60.1
			c0.1,0.1,0.3,0.1,0.5,0.1c0.8,0,1.6,0.1,2.5,0.3c-2.5,1.5-4.7,3.5-6.5,5.7c-0.9,0-1.9,0.1-2.8,0.3C53,64.6,55.1,62.4,57,60.1z
			 M74.6,67.9c0.3-0.3,0.5-0.5,0.9-0.8c1.7,0.5,3.5,0.9,5.3,1.3c0.4,0.3,0.9,0.5,1.6,0.8c0.3,0.1,0.7,0.4,1.1,0.4
			c-0.9,0-1.9-0.3-2.8-0.5C78.6,68.7,76.6,68.3,74.6,67.9z M75,66.9c-0.3,0.3-0.5,0.7-0.7,0.9c-0.8-0.1-1.5-0.3-2.1-0.3
			c0.5-0.4,1.2-0.7,1.7-1.1C74.4,66.7,74.8,66.8,75,66.9z M29.5,57.3c0,0.1,0,0.1,0,0.1S29.5,57.4,29.5,57.3z M41.3,66.9
			c0,0.1,0,0.3,0.1,0.3c-0.1,0-0.1,0-0.3,0.1c0-0.3,0-0.4,0-0.4C41.3,66.9,41.3,66.9,41.3,66.9z M42.9,67.9c0,0,0-0.1-0.1-0.1
			c0-0.1,0-0.1,0-0.1c0.1,0,0.1,0,0.3,0c1.1-0.5,2-1.1,2.9-1.7c0,0.5,0,1.1,0,1.6c-1.1,0.1-2.1,0.4-3.2,0.8l0,0
			C42.7,68.1,42.7,68,42.9,67.9z M42.3,68.9c-0.1,0-0.1,0-0.1-0.1c0.1-0.1,0.3-0.3,0.3-0.4h0.1c0.5,0,1.2,0,1.9,0
			C43.8,68.5,43,68.8,42.3,68.9z M37.4,69.2c-0.3-0.1-0.5-0.3-0.8-0.3c0.4,0,0.8,0,1.2,0.1c0,0,0,0.1,0,0.3
			C37.7,69.3,37.5,69.2,37.4,69.2z M47,69.2c0.1-0.1,0.4-0.1,0.5-0.1c-0.1,0.4-0.3,0.8-0.4,1.2C47,69.9,47,69.6,47,69.2z M48.1,68.9
			c0.1,0,0.3,0,0.3,0c-0.7,1.6-0.9,3.2-0.9,4.7c0-0.5-0.1-1.2-0.3-1.9C47.5,70.9,47.8,69.9,48.1,68.9z M45.8,69.5c0.1,0,0.1,0,0.1,0
			c0,0.3,0,0.7,0,1.1C45.9,70.3,45.9,69.7,45.8,69.5z M47.9,73.9c-0.1-0.3-0.1-0.3-0.1-0.5c0,0,0-0.1,0-0.3c0.5-1.5,0.9-2.9,1.5-4.4
			c0.4,0,1.1-0.1,1.5-0.3h0.1c-1.3,2-2.3,4.3-2.8,6.7c0.3,0.5,0.5,0.5,0.7,0c0-0.1,0-0.1,0.1-0.3c0.7-2.3,1.5-4.4,2.4-6.4
			c1.1-0.1,2.1-0.4,3.1-0.5c0,0.8,0,1.5,0.1,2.4l0.1,0.3c-0.1,0-0.1,0.1,0,0.1c0,0.1,0,0.1,0,0.3v0.3c0.3,3.3,0.9,6.5,1.9,9.9
			c0.9,3.1,2,6,3.6,8.8c-1.1,1.3-2,2.8-2.9,4.3l0.1,0.1c1.3-1.2,2.3-2.5,2.9-4c1.1,1.9,2.3,3.6,3.7,5.5c0.1-0.1,0.3-0.3,0.4-0.4
			c-1.2-1.7-2.3-3.5-3.1-5.3c1.2,1.9,2.7,3.7,4.3,5.5c0,0,0,0,0.1,0c0,0.3,0,0.8,0.1,1.1c-0.1,0.4-0.1,0.8-0.1,1.2
			c-0.1,0.1-0.1,0.3-0.1,0.5c0,0,0,0-0.1,0c-1.3,0.7-2.7,0.8-4,0.9c1.2,0.7,2.3,0.9,3.3,0.7c-0.1,0.3-0.4,0.4-0.4,0.7l-0.1-0.1
			c-1.3,0-2.7-0.1-3.9-0.5c-2.4-0.5-4-2-4.8-4.1c0,0.1,0,0.3,0,0.5c-0.3-0.4-0.5-0.7-0.7-1.1c0-0.1,0-0.1,0-0.1l0,0
			c-0.9-1.5-1.9-3.1-2.5-4.7c-2.4-5.2-4-10.7-4.8-16.2C47.7,74.1,47.8,74,47.9,73.9z M47.3,76.7c-0.1-0.1-0.1-0.3-0.1-0.4
			c0.1,0.5,0.3,1.1,0.4,1.6C47.4,77.5,47.3,77.1,47.3,76.7z M45.8,75.6c0,0.1,0,0.3,0,0.4c0-0.1,0-0.3-0.1-0.4
			C45.8,75.6,45.8,75.6,45.8,75.6z M47.7,81.3c-0.1-0.4-0.3-0.9-0.4-1.3v-0.1C47.4,80.4,47.5,80.9,47.7,81.3z M56.8,99.9L56.8,99.9
			c0.3,0.3,0.5,0.5,0.8,0.8c0.1,0.3,0.1,0.3,0.4,0.4c0.3,0.3,0.4,0.5,0.8,0.8C58,101.5,57.3,100.8,56.8,99.9z M62.4,103.1h0.1H62.4z
			"/>
		<path class="st5" d="M98.1,65.6c0-0.1,0.1-0.3,0.1-0.3c1.2-0.9,2.1-2,2.7-3.3h-0.1c-1.2,1.2-2.3,2.3-3.2,3.6
			C97.7,65.6,97.9,65.6,98.1,65.6z"/>
		<path class="st5" d="M102.3,63.3h-0.1c-0.8,0.9-1.6,1.7-2.4,2.7c-0.3,0.1-0.5,0.3-0.8,0.4c0.3,0,0.7,0.1,0.9,0.1
			c0.1,0,0.3-0.1,0.3-0.1C101.1,65.4,101.7,64.4,102.3,63.3z"/>
		<path class="st5" d="M35.8,33.9c-0.1,0.1-0.3,0.1-0.3,0.3c-0.1,0-0.1,0-0.1,0c0,0.1,0,0.1,0,0.3c1.7,1.1,3.5,2.1,5.1,3.2
			c0.4,0.1,0.7,0.1,0.9,0c0.1,0,0.3-0.1,0.4-0.1c0,0,0,0,0-0.1C39.8,36.2,37.8,35,35.8,33.9z"/>
		<path class="st5" d="M90.5,25.9c0,0-0.1,0-0.1,0.1c-0.7,2.5-1.3,4.9-2.1,7.5c0.3,0,0.4-0.3,0.5-0.4V33
			C89.7,30.6,90.3,28.3,90.5,25.9z"/>
		<path class="st5" d="M108,36.7c-0.1-0.1-0.3-0.3-0.4-0.3c0,0,0,0-0.1,0c-0.1,0.1-0.3,0.3-0.3,0.4V37c0,0.1,0,0.3,0,0.3
			c-0.1,0.1-0.1,0.3-0.1,0.3c-0.7,1.6-1.1,3.2-1.5,4.8c0,0,0,0.1,0.1,0.1c0,0,0.1,0,0.3,0c0-0.1,0-0.1,0.1-0.3
			C106.9,40.5,107.6,38.6,108,36.7z"/>
		<path class="st5" d="M52.5,69.3h-0.1c-0.3,1.3-0.8,2.4-1.6,3.6c0,0,0,0.1,0,0.3c-0.5,1.7-1.1,3.3-1.5,5.1c0.1,0,0.3,0,0.3-0.1
			c0.1-0.1,0.1-0.3,0.1-0.3C51,75.1,51.9,72.3,52.5,69.3z"/>
		<path class="st5" d="M53.1,71.7H53c-1.3,2.3-2.1,4.7-2.3,7.2c0.1-0.1,0.1-0.3,0.1-0.3C51.9,76.4,52.6,74.1,53.1,71.7z"/>
		<path class="st5" d="M54.5,81.3c-0.1,0-0.1,0-0.3,0.1c-0.5,1.5-0.9,2.8-1.5,4.1c0.1-0.1,0.1-0.3,0.3-0.3
			C53.7,84,54.2,82.8,54.5,81.3z"/>
		<path class="st5" d="M53.5,76.3c-0.1,0-0.3,0-0.3,0.1c-0.5,2.4-1.2,4.7-2,6.8h0.1C52.9,81.1,53.5,78.7,53.5,76.3z"/>
		<path class="st5" d="M56.4,85.6c-0.7,1.1-1.2,2.3-1.5,3.6c0.1-0.1,0.3-0.3,0.5-0.3c0-0.1,0-0.3,0-0.4c0.3-0.9,0.7-2.1,1.1-3.2
			C56.4,85.3,56.4,85.5,56.4,85.6z"/>
		<path class="st5" d="M57.8,87.2c-0.3,0.7-0.7,1.5-1.1,2.5c-0.4,1.1-0.5,1.9-0.3,2.5c0.1,0,0.1-0.1,0.1-0.3
			C57.6,90.4,58,88.9,57.8,87.2z"/>
	</g>
</g>
</svg>
