<?xml version="1.0" encoding="utf-8"?>
<!-- Generator: Adobe Illustrator 26.2.1, SVG Export Plug-In . SVG Version: 6.00 Build 0)  -->
<svg version="1.1" id="Layer_1" xmlns="http://www.w3.org/2000/svg" xmlns:xlink="http://www.w3.org/1999/xlink" x="0px" y="0px"
	 viewBox="0 0 80 55" style="enable-background:new 0 0 80 55;" xml:space="preserve">
<style type="text/css">
	.st0{fill:none;}
	.st1{fill:#43959E;}
	.st2{fill:#D85948;}
	.st3{fill:#333333;}
</style>
<rect y="0" class="st0" width="80" height="55"/>
<path class="st1" d="M8,20.8c4.6-4.5,10.3-7.6,15.3-11.6c3.8-3.1-1.1-8.6-4.9-6.5C13.8,5.2,8.8,8,5.5,12c-3.3,4.1,2.5,9.9,5.8,5.8
	c2.9-3.5,7.2-5.9,11.2-8c-1.6-2.1-3.3-4.3-4.9-6.5c-5.1,4-10.7,7.1-15.3,11.6C-1.6,18.8,4.2,24.6,8,20.8z"/>
<path class="st1" d="M58.4,8.5c4,5.8,8.1,11.3,14,15.4c3.3,2.4,8-2.4,5.7-5.6c-0.4-0.6-0.4-2.1-0.6-2.8c-0.2-0.8-0.7-1.8-1.1-2.6
	c-0.9-1.8-2.4-3.5-4-4.8c-1.6-1.5-3.7-2.5-5.5-3.6c-1.5-0.9-2.7-2.8-4.6-3.2c-1.4-0.2-3.1-0.1-4,1.1c-0.7,0.8-1.1,1.5-1.5,2.5
	c-2.2,4.8,4.8,8.9,7.1,4.1c0.4-0.2,0.4-0.5,0.2-0.8c-1.3,0.4-2.7,0.7-4,1.1c-1.2-0.9-1.5-1.1-0.8-0.4C59.6,9,60,9.4,60.3,9.6
	c0.7,0.6,1.5,1.2,2.5,1.6c1.4,0.8,2.9,1.5,4.1,2.6c1.1,0.9,2.1,2.1,2.6,3.5c0.7,1.6,0.4,3.3,1.4,4.8c1.9-1.9,3.8-3.8,5.7-5.6
	C72,13.4,68.7,8.7,65.5,4.1C62.4,0,55.4,4,58.4,8.5z"/>
<path class="st2" d="M18.6,9.8c-1.1,1.4-2.2,2.7-3.4,3.9c-0.6,0.6-1.3,1.3-2,1.9c-0.4,0.2-0.6,0.6-0.9,0.8c-0.1,0.1-0.4,0.2-0.6,0.5
	c0.4-0.2,0,0-0.1,0.1c-0.7,0.5-1.4,1.1-2.1,1.5C8.4,19.2,7.2,20,7,21.3c-0.4,1.8,0.5,2.9,1.8,4c0.2,0.2,0.5,0.4,0.8,0.6
	c0.4,0.2,0,0-0.1-0.1c0.1,0.1,0.1,0.1,0,0c-0.1-0.1-0.2-0.4-0.4-0.6c0.4,1.4,2.1,2.6,3.7,2c2.2-0.8,3.9-2.4,5.4-4.1
	c0.7-0.8,1.3-1.6,2-2.4c0.1-0.1,0.4-0.2,0.5-0.5c0.2-0.2,0.2-0.2-0.1,0c0.1-0.1,0.2-0.1,0.4-0.2c0.4-0.2,0.8-0.5,1.2-0.7
	c2-1.2,4-2.4,5.4-4.2c0.5-0.7,0.8-1.5,0.8-2.4c0-1.3-0.8-2.4-1.9-3.1c-1.4-0.9-3.1-1.2-4.7-0.8c-1.5,0.4-2.5,2.2-2,3.6
	c0.5,1.6,2,2.4,3.7,2c-0.2,0-0.4,0-0.1,0c-0.4-0.1-0.2,0,0,0c0.4,0.1-0.4-0.2,0,0c0.4,0.1-0.4-0.5,0,0.1c-0.2-0.5-0.5-0.8-0.7-1.3
	c0,0.1,0,0.1,0.1,0.2c0-0.5,0-1.1,0-1.5c0.1-0.5,0.2-0.4,0,0c-0.2,0.5,0,0.2,0,0c0,0.2-0.6,0.6-0.7,0.7c-0.4,0.4,0.4-0.2,0,0
	c-0.1,0.1-0.4,0.2-0.5,0.4c-0.4,0.2-0.6,0.4-0.9,0.6c-1.4,0.8-2.8,1.6-4,2.7c-1.1,0.9-2,2.1-2.8,3.2c-0.5,0.6-0.9,1.1-1.5,1.5
	c-0.4,0.4,0-0.1,0.1-0.1c0,0-0.4,0.2-0.5,0.4c-0.4-0.1-0.5-0.1-0.6,0c-0.5,0.4,0.6-0.2-0.1,0c1.2,0.7,2.5,1.4,3.7,2
	c-0.2-0.9-0.8-1.8-1.6-2.4c-0.2-0.2-0.6-0.4-0.8-0.6c-0.1-0.1-0.2-0.1-0.4-0.2c-0.1-0.1-0.1-0.1,0.1,0c0.4,0.2,0.6,0.6,0.6,0.9
	c0,0.5,0,1.1,0,1.5c-0.1,0.5-0.2,0.7-0.6,0.9c0.1-0.1,0.2-0.2,0.5-0.4c0.2-0.1,0.5-0.4,0.7-0.5c0.5-0.4,1.1-0.7,1.5-1.2
	c1.1-0.8,2.1-1.6,3.1-2.6c1.9-1.6,3.5-3.4,4.9-5.4c0.5-0.6,0.8-1.2,0.8-2.1c0-0.7-0.4-1.5-0.8-2.1C21.7,8.8,19.6,8.5,18.6,9.8z"/>
<path class="st2" d="M54.1,14c1.3,1.4,2.6,2.7,3.9,4.1c1.3,1.3,2.6,2.6,4.2,3.4c0.1,0.1,0.4,0.1,0.5,0.2c0.1,0.1,0.5,0.5,0.2,0.1
	C62.7,21.5,63,22,63,22.1c0.5,0.5-0.2-0.5,0,0.1c0.4,0.7,0.7,1.3,1.1,2c0.7,1.6,1.9,3.3,3.5,4c1.4,0.7,3.2,0.5,4-1.1
	c0.7-1.3,0.5-3.3-1.1-4l-0.5-0.2c0.1,0,0.5,0.4,0.1,0.1c-0.1-0.1-0.1-0.1-0.2-0.2c-0.1-0.1-0.1-0.1,0.1,0.2
	c-0.1-0.1-0.2-0.4-0.2-0.5c-0.4-0.6-0.7-1.3-0.9-2c-0.8-1.6-1.9-3.1-3.5-4c-0.4-0.2-0.7-0.4-0.9-0.6c-0.1-0.1-0.4-0.2-0.5-0.4
	c-0.6-0.4,0.2,0.2,0,0c-0.6-0.6-1.2-1.2-1.8-1.8c-1.3-1.4-2.6-2.7-3.9-4.1c-1.1-1.1-3.1-1.2-4.1,0C52.9,11,52.9,12.8,54.1,14z"/>
<path class="st3" d="M49,51.4c-0.6,1.5-1.8,2.1-3.3,2.4c-0.7,0.1-1.3,0.2-2,0.2c-0.1,0-0.4,0.1-0.5,0.1c-0.1,0.1-0.2,0.1-0.4,0.2
	c-0.6,0.6-1.4,0.7-2.2,0.6c-0.4,0-0.7-0.1-0.9-0.1c-0.7,0-1.2-0.1-1.8-0.6c-0.6-0.5-1.2-0.7-1.6-1.3c-0.1-0.1-0.2-0.2-0.5-0.2
	c-0.2,0.2-0.4,0.2-0.5,0.4c-0.4,0.2-0.6,0.4-1.1,0.4c-0.2,0-0.5,0.1-0.7,0.1c-1.1,0.2-2.1-0.4-2.4-1.5c0-0.2-0.1-0.6-0.1-0.9
	c-0.5-0.1-1.1-0.1-1.5-0.2c-0.5-0.1-0.8-0.1-1.3-0.4c-0.6-0.2-1.1-0.6-1.3-1.2c-0.1-0.4-0.4-0.6-0.5-0.9c-0.4-0.1-0.8-0.2-1.2-0.4
	c-0.7-0.2-1.3-0.7-1.8-1.2l-0.1-0.1c-0.5-0.6-0.9-1.2-0.6-2c-0.2,0-0.5-0.1-0.6-0.1c-0.7-0.1-1.3-0.6-1.6-1.2
	c-0.2-0.4-0.4-0.7-0.4-1.2c0.1-0.8,0.2-1.6,0.6-2.4c0.2-0.6,0.5-1.1,0.9-1.5c0.5-0.6,0.5-1.1,0.1-1.6c-0.4-0.5-0.6-0.9-0.8-1.4
	c-0.8-1.5-1.8-3.1-2.8-4.5c-0.1-0.2-0.2-0.4-0.5-0.6c-0.6-0.7-1.3-1.4-1.9-2.1c-0.1,0-0.4,0-0.7,0c-0.1,0.1-0.4,0.4-0.6,0.5
	c-0.8,0.6-1.6,0.5-2.4-0.2c-0.8-0.8-1.6-1.8-2.5-2.6c-0.4-0.4-0.7-0.7-1.2-1.1c-0.1-0.1-0.2-0.1-0.4-0.2c-0.8,0.5-1.8,0.4-2.6,0.1
	c-0.8-0.8-1.5-1.8-2.4-2.7c-0.6-0.7-1.4-1.5-2.1-2.2c-0.4-0.4-0.6-0.7-0.9-1.2C0,18.2,0,18,0.1,17.6c0.2-0.8,0.7-1.4,1.1-2.1
	c0-0.2,0.1-0.4,0.2-0.5c0.4-0.2,0.5-0.6,0.7-0.9c0.5-0.7,1.1-1.4,1.6-2.1c0.4-0.5,0.8-0.8,1.2-1.3c1.4-1.4,2.8-2.8,4.2-4.2
	c1.6-1.5,3.5-2.9,5.5-4c0.5-0.2,0.8-0.5,1.2-0.7c1.2-0.7,2.4-1.2,3.7-1.3c0.2,0,0.4-0.1,0.6-0.1c0.6,0.2,0.9,0.6,1.3,0.9
	c1.2,1.1,2.1,2.2,3.2,3.4c0.1,0.1,0.4,0.4,0.5,0.6C25.4,6,26,6.7,26.6,7.2c0.5,0.4,0.5,0.7,0.2,1.2c-0.1,0.4-0.2,0.7-0.5,1.1
	c-0.1,0.2-0.1,0.4-0.2,0.6c0.2,0.2,0.5,0.5,0.7,0.7c0.8,0.8,1.6,1.8,2.5,2.6c0.4,0.4,0.5,0.9,0.2,1.4c-0.2,0.5-0.5,0.9-0.7,1.4
	c0,0.1,0,0.2,0.1,0.2c0.9,1.1,2.1,1.9,3.5,2.2c1.5,0.4,1.5,0.4,2.9-0.4c1.6-0.7,3.2-1.5,4.9-1.6c0.9,0,1.9-0.1,2.8,0
	c0.6,0.1,1.1,0.1,1.6,0.2c0.1,0,0.4,0,0.5,0c1.2-0.2,2.4-0.4,3.4-0.8c0.8-0.4,1.6-0.7,2.6-1.2c0.2-0.1,0.4-0.2,0.6-0.4
	c-0.2-0.8-0.4-1.5-0.7-2.4c-0.1-0.5-0.1-0.8,0.4-1.3c0.8-0.7,1.5-1.5,2.4-2.4c0-0.1,0-0.2-0.1-0.4c-0.5-0.6-0.2-1.3-0.2-1.9
	c0-0.5,0.4-0.8,0.7-1.1c1.3-0.9,2.5-1.8,3.8-2.7c0.6-0.4,1.2-0.7,1.6-1.1c0.7-0.5,1.4-0.9,2-1.4c0.6,0,0.8,0,1.2,0
	c0.6,0.1,0.9,0.4,1.4,0.7c1.9,1.3,3.5,2.7,5.1,4.2c0.7,0.7,1.4,1.3,2.1,2c2.1,2,3.9,4.2,5.4,6.8c0.9,1.5,1.8,3.1,2.6,4.6
	c0.2,0.5,0.4,0.9,0.5,1.5c0.1,0.2-0.1,0.5-0.2,0.7c-0.4,0.5-0.7,0.8-1.2,1.3c-0.2,0.4-0.6,0.6-0.9,0.9c-0.1,0.1-0.4,0.4-0.5,0.5
	c-1.1,0.8-1.9,1.9-2.9,2.7c-0.6,0.5-1.3,0.9-1.9,1.3c-0.5,0.4-1.1,0.2-1.6,0c-0.2-0.1-0.4-0.2-0.6-0.4c-1.1,0.8-2.1,1.8-3.2,2.6
	c-0.6-0.1-1.1-0.2-1.5-0.5c-0.5-0.2-0.8-0.6-1.3-0.8c-0.5,0.2-0.8,0.6-1.1,0.9c-0.7,1.1-1.4,2.1-2.1,3.2c-0.8,1.5-1.5,3.1-2.2,4.7
	c-0.4,0.9-0.9,1.9-1.5,2.8c-0.2,0.2-0.4,0.5-0.6,0.7c-0.2,0.2-0.2,0.5-0.1,0.8c0,0.1,0,0.1,0.1,0.2c0.6,1.4,0.2,2.7-0.5,4
	c-0.1,0.1-0.2,0.2-0.2,0.5c-0.2,0.7-0.8,1.3-1.5,1.6c-0.5,0.4-0.9,0.6-1.2,1.2c0,0.1-0.1,0.2-0.2,0.4c-0.8,0.8-1.8,1.4-2.7,2
	c-0.2,0.1-0.5,0.1-0.7,0.2C49.5,51.2,49.2,51.2,49,51.4z M4.9,18c0.1-0.1,0.1-0.2,0.2-0.4C5.5,17,6,16.5,6.4,15.9
	c0.6-1.1,1.3-2.1,1.9-3.2c-1.1,1.1-2,2.4-2.9,3.5c-0.1,0.1-0.1,0.2-0.2,0.4c-0.1,0.1-0.1,0.2-0.2,0.4c-0.1,0.2-0.1,0.4-0.2,0.5
	c-0.1,0.2-0.1,0.4-0.2,0.6l-0.1,0.1c0,0,0,0,0-0.1c0.1-0.2,0.1-0.4,0.2-0.6c0.1-0.1,0.1-0.2,0.2-0.4c0.1-0.1,0.1-0.2,0.2-0.4
	c0.1-0.1,0.1-0.2,0.2-0.4c0.5,0.1,0.5,0.1,0.4,0.4c-0.1,0.4-0.2,0.7-0.5,0.9C5.1,17.7,4.9,17.9,4.9,18C4.9,18.1,4.8,18.1,4.9,18
	C4.8,18.1,4.8,18.1,4.9,18C4.8,18.1,4.8,18.1,4.9,18z M5.5,20.6C5.4,20.6,5.4,20.6,5.5,20.6C5.4,20.6,5.4,20.6,5.5,20.6
	C5.4,20.6,5.4,20.6,5.5,20.6z M2.9,16C2.8,16.1,2.8,16.1,2.9,16C2.8,16.1,2.8,16.1,2.9,16z M8.6,17.4c0.1-0.1,0.1-0.2,0.2-0.4
	c0,0,0-0.1,0.1-0.1V17C8.7,17.2,8.7,17.3,8.6,17.4C8.6,17.4,8.5,17.4,8.6,17.4c-0.1,0.1-0.1,0.1-0.1,0.1L8.6,17.4z M1.6,16.7
	c0.1-0.1,0.1-0.2,0.2-0.4c0,0,0,0,0-0.1c0,0,0,0,0,0.1C1.8,16.5,1.8,16.6,1.6,16.7C1.6,16.7,1.5,16.8,1.6,16.7
	c-0.1,0.1-0.1,0.1-0.1,0.1S1.6,16.8,1.6,16.7z M5.3,13.9c-0.1,0.1-0.1,0.2-0.2,0.4c-0.5,0.5-0.5,0.5-0.7,1.1
	c0.4-0.4,0.5-0.7,0.6-1.1C5.2,14.1,5.2,14,5.3,13.9C5.3,13.9,5.4,13.9,5.3,13.9c0.1-0.1,0.1-0.1,0.1-0.1C5.4,13.9,5.3,13.9,5.3,13.9
	z M7.4,14.9C7.3,14.9,7.3,15,7.4,14.9c0.1-0.1,0.1-0.2,0.2-0.4c0.1-0.1,0.2-0.1,0.4-0.2c0.8-0.9,1.5-1.9,2.2-2.8
	c-0.5,0-0.7,0.1-0.9,0.5c-0.5,0.8-1.1,1.6-1.5,2.6C7.5,14.7,7.5,14.8,7.4,14.9z M71.6,7.8c0,0-0.1,0-0.1-0.1
	C71.5,7.6,71.5,7.6,71.6,7.8v0.1h0.1V7.8C71.6,7.8,71.6,7.8,71.6,7.8z M15.8,3.9c-0.4,0.1-0.5,0.4-0.5,0.6c-0.1,0.1-0.2,0.1-0.4,0.2
	c0.4,0,0.4-0.1,0.4-0.4C15.4,4.2,15.6,4.1,15.8,3.9z M17.2,3.4c-0.1,0.1-0.2,0.1-0.4,0.2L17,3.8C17.1,3.6,17.1,3.5,17.2,3.4
	c0.1-0.1,0.1-0.1,0.1-0.1C17.2,3.3,17.2,3.4,17.2,3.4z M56.4,4.6c-0.1,0.1-0.1,0.2-0.2,0.4c0,0,0.1,0,0.1,0.1
	C56.3,4.8,56.3,4.7,56.4,4.6z M4.8,13c0.1-0.1,0.2-0.1,0.4-0.2l-0.1-0.1C4.9,12.8,4.8,12.9,4.8,13z M18.7,4.3
	c0.1-0.1,0.2-0.1,0.4-0.2C18.7,4,18.7,4.2,18.7,4.3c-0.1,0.1-0.1,0.1-0.2,0.1c0,0,0,0,0,0.1h0.1C18.6,4.6,18.6,4.5,18.7,4.3z
	 M68.7,8.5l0.1,0.1c0,0,0,0,0.1,0V8.5C68.8,8.5,68.7,8.5,68.7,8.5c-0.1-0.1-0.1-0.4-0.2-0.6C68.3,8.2,68.6,8.2,68.7,8.5z M73.4,15.5
	c0,0.1,0,0.4,0.2,0.5C73.6,15.7,73.5,15.6,73.4,15.5c0-0.2,0-0.5-0.2-0.6C73,15.3,73.2,15.4,73.4,15.5z M23,6v0.1h0.1V6
	C23.1,6.1,23,6,23,6c-0.1-0.1-0.2-0.5-0.6-0.4C22.6,5.8,22.7,5.9,23,6z M64.2,13.4c0,0.1,0,0.1,0,0.2c0,0,0,0,0.1,0.1v-0.1
	C64.3,13.4,64.2,13.4,64.2,13.4c0-0.2-0.1-0.5-0.5-0.6C63.9,13,64,13.3,64.2,13.4z M58.9,8.1c0-0.2-0.1-0.5-0.4-0.6
	c-0.1-0.6-0.2-1.1-0.8-1.4c-0.4,0.1-0.8,0.2-1.2,0.1l-0.1,0.1v0.1c0.1,0.1,0.4,0.1,0.5,0.2c0.2,0.1,0.2,0.5,0.6,0.4
	c0.1-0.1,0.2-0.2,0.2-0.5c0.2,0.4,0.6,0.7,0.8,0.9C58.6,7.6,58.6,8,58.9,8.1C59,8.5,59,8.5,59.5,8.8C59.1,8.5,59,8.2,58.9,8.1z
	 M69.7,16.7C69.7,16.7,69.7,16.8,69.7,16.7c0,0.1,0,0.1,0,0.1S69.7,16.8,69.7,16.7c-0.1-0.2-0.2-0.4-0.4-0.6c-0.1-0.2-0.2,0-0.4,0.1
	c-0.1-0.1-0.4-0.4-0.5-0.5c-0.2-0.4-0.6-0.7-0.8-1.2c-0.2-0.5-0.6-0.8-0.7-1.4c-0.1-0.4-0.2-0.6-0.6-0.8c-0.2,0.5-0.2,0.8,0.1,1.3
	c0.7,0.9,1.4,2,2.1,2.9c0,0.1,0.1,0.1,0.2,0.2c0-0.2,0-0.5,0-0.6C69.2,16.3,69.4,16.6,69.7,16.7z M19.2,1.4c-0.2,0-0.6-0.1-0.8,0.1
	C18.7,1.8,19,1.5,19.2,1.4c0.1,0,0.1,0,0.1-0.1C19.3,1.4,19.2,1.4,19.2,1.4z M69.7,7.9c-0.1-0.1-0.1-0.1-0.1-0.1
	C69.6,7.9,69.7,7.9,69.7,7.9c0,0.4,0.2,0.5,0.6,0.4C70.2,8,70,8,69.7,7.9z M14.1,14.1c0.5-0.2,0.5-0.2,0.6-0.6
	C14.6,13.8,14.4,14,14.1,14.1C14.1,14.1,14.1,14.2,14.1,14.1C14.1,14.2,14.1,14.1,14.1,14.1z M4.5,12c0.5-0.2,0.7-0.5,0.9-0.9
	c0.1-0.1,0.2-0.1,0.4-0.4c-0.4,0-0.4,0.1-0.4,0.4C4.9,11.3,4.7,11.5,4.5,12c-0.2,0.2-0.2,0.2-0.4,0.6C4.2,12.3,4.4,12.2,4.5,12z
	 M4.9,19.4c0.2-0.2,0.5-0.6,0.6-0.9C5.2,18.8,5.1,19,4.9,19.4c0,0,0,0.1-0.1,0.1C4.9,19.5,4.9,19.5,4.9,19.4z M65.3,4.8
	c0,0.1,0,0.1,0,0.2c0,0,0,0,0.1,0C65.3,5.1,65.3,4.9,65.3,4.8c0.1-0.1,0.1-0.2,0-0.5c-0.1-0.1-0.4-0.2-0.6-0.4
	C64.8,4.5,64.9,4.7,65.3,4.8z M6.4,19.7C7,19,7.1,18.9,7.1,18.3c-0.2,0.4-0.4,0.6-0.5,0.9C6.5,19.4,6.4,19.6,6.4,19.7
	c0,0.1,0,0.1,0,0.1S6.4,19.9,6.4,19.7z M66.6,5.6c-0.1-0.4-0.2-0.7-0.6-0.9C66,5.2,66,5.2,66.6,5.6c0.1,0.6,0.6,0.9,1.1,1.4
	c0,0,0.1-0.1,0.2-0.1c0,0,0,0,0-0.1c0,0,0,0,0,0.1c0,0,0,0-0.1,0c-0.2-0.1-0.4-0.4-0.6-0.5C67,6.1,66.8,5.9,66.6,5.6z M15.4,7.1
	c0.6-0.2,0.8-0.8,1.3-1.3c0.1-0.1,0.2-0.2,0-0.4c-0.1,0-0.1,0.1-0.2,0.1C16.1,6,15.8,6.6,15.4,7.1c-0.1,0.1-0.1,0.1-0.1,0.1
	L15.4,7.1z M9.1,10.8c0.1-0.2,0.2-0.5,0.4-0.7c0.1-0.2,0.4-0.5,0.4-0.8C9.7,9.4,9.5,9.4,9.4,9.5c-0.2,0.2-0.6,0.6-0.4,1.1
	C9.1,10.6,9.1,10.7,9.1,10.8C9,10.9,8.8,11,8.7,11l0.1,0.1C8.8,11,9,10.9,9.1,10.8z M16.5,6.9c-0.6,0.5-0.9,1.1-1.2,1.6
	c0,0,0,0-0.1,0c0,0,0,0,0,0.1c0,0,0-0.1,0.1-0.1C15.9,8.2,16.4,7.8,16.5,6.9V6.8C16.5,6.9,16.5,6.9,16.5,6.9z M68.3,6.3
	c0,0,0,0.1,0.1,0.1h0.1V6.3C68.5,6.5,68.3,6.3,68.3,6.3c-0.2-0.7-0.8-1.2-1.3-1.8c-0.1-0.1-0.2-0.1-0.4-0.1
	c-0.2-0.2-0.6-0.6-0.8-0.8c-1.1-0.6-1.9-1.5-2.7-2.5c-0.1-0.1-0.2-0.2-0.4-0.4c-0.5,0.2-0.5,0.6-0.5,0.9c0,0.1-0.1,0.2-0.1,0.4
	c0.2,0.4,0.4,0.6,0.7,0.8c0.2,0.2,0.5,0.6,1.1,0.7c-0.4-0.5-0.6-0.8-0.8-1.1S62.7,2,62.4,1.8c0.1-0.1,0.2-0.4,0.5-0.6
	c0.1,0.1,0.2,0.1,0.2,0.2c0.1,0.5,0.5,0.9,0.9,1.3c0.6,0.5,1.2,0.8,1.6,1.2c0.4,0.2,0.7,0.5,1.2,0.5C67.2,5.2,67.6,5.9,68.3,6.3z
	 M75.4,18.1c-0.1-0.4-0.1-0.4-0.6-0.7C75.1,17.7,75.3,17.9,75.4,18.1c0,0.1,0,0.1,0,0.2c0.4,0.6,0.7,1.3,1.1,1.9c0,0,0.1,0,0.2,0
	C76.2,19.5,76,18.7,75.4,18.1z M12.5,10.6c0.7-0.6,1.3-1.3,1.8-2l-0.1-0.1C13.4,9,12.8,9.8,12.5,10.6C12.5,10.6,12.4,10.6,12.5,10.6
	c0,0.1,0,0.1-0.1,0.1L12.5,10.6z M13.8,13.3c0.7-0.5,1.5-1.4,1.8-2C15.1,11.5,14.4,12.3,13.8,13.3c0,0.1,0,0.1,0,0.1
	S13.8,13.4,13.8,13.3z M13.7,12.1c0.2-0.1,0.4-0.2,0.6-0.5c0.6-0.6,1.1-1.2,1.3-2c0,0,0,0,0.1-0.1c0,0,0,0,0-0.1c0,0,0,0.1-0.1,0.1
	C15,10.2,14.1,11.3,13.7,12.1c-0.1,0.1-0.1,0.1-0.2,0.2v0.1h0.1C13.7,12.2,13.7,12.2,13.7,12.1z M77.8,18.3c0.4,1.1,0.5,1.3,0.9,1.9
	v-0.1c-0.2-0.5-0.5-1.1-0.7-1.5C78,18.5,77.9,18.5,77.8,18.3C77.9,18.3,77.8,18.3,77.8,18.3c-0.4-0.8-0.9-1.3-1.5-2.1
	c0.2,0.7,0.7,1.6,0.9,1.9C77.4,18.2,77.6,18.2,77.8,18.3z M71.8,16.7v0.1l0.1-0.1c0.1,0.1,0.2,0.1,0.5,0.4c-0.2-0.7-0.4-1.3-0.6-1.9
	c-0.1-0.4-0.4-0.6-0.8-0.9c0.1,0.4,0.2,0.6,0.4,0.7C71.6,15.5,71.8,16.1,71.8,16.7z M72.2,8.9V8.8c0,0,0,0,0-0.1v0.1
	C72.1,8.9,72.2,8.9,72.2,8.9c0,0.1,0,0.2,0.1,0.2c0.6,0.9,1.2,1.9,1.9,2.8c0,0,0.1,0,0.2,0.1C74.1,11.3,73,9.8,72.2,8.9z M11.4,9.3
	C11.7,9.2,11.9,9,12,8.8c0.6-0.7,1.2-1.3,1.8-2c0-0.1,0.1-0.1,0.2-0.5C12.8,7.3,12,8.1,11.4,9.3C11.3,9.3,11.3,9.3,11.4,9.3
	c-0.1,0-0.1,0.1-0.1,0.1S11.3,9.3,11.4,9.3z M12.7,12c0.7-0.6,1.5-1.5,1.8-2.2c-0.1,0-0.4-0.1-0.5,0c-0.1,0.1-0.2,0.4-0.5,0.6
	c-0.2,0.2-0.2,0.6-0.6,0.7c0,0,0,0,0,0.1C13,11.4,12.8,11.6,12.7,12c0,0,0,0.1-0.1,0.1C12.7,12.1,12.7,12.1,12.7,12z M9.5,14.3
	c-0.1,0.1-0.4,0.2-0.5,0.5c-0.4,0.4-0.6,0.8-0.9,1.3c-0.5,0.4-0.8,0.9-0.8,1.5l-0.1,0.1c0,0,0,0,0-0.1c0.6-0.8,1.2-1.6,1.6-2.5
	C9.2,14.9,9.3,14.6,9.5,14.3c0.1-0.1,0.4-0.2,0.4-0.5C9.5,13.9,9.5,14.1,9.5,14.3z M11.4,10.7c0.8-0.7,2-2.1,2.4-2.8
	c-0.4,0-0.6,0.2-0.8,0.6c-0.4,0.5-0.7,0.8-1.1,1.3C11.8,10,11.7,10.3,11.4,10.7c-0.1,0.1-0.1,0.1-0.2,0.2c0,0,0.1,0,0.1,0.1
	C11.3,10.9,11.4,10.8,11.4,10.7z M9.8,14.9c0.1-0.1,0.2-0.1,0.4-0.2c0.6-0.7,1.1-1.4,1.6-2.1c0.2-0.4,0.4-0.7,0.6-1.1
	c0,0,0-0.1,0.1-0.1c0,0,0,0.1-0.1,0.1c-0.2,0.1-0.4,0.4-0.6,0.5c-0.1,0.1-0.2,0.4-0.5,0.5C10.6,13.3,10.1,14,9.8,14.9
	c0,0.1,0,0.1-0.1,0.1C9.8,15,9.8,14.9,9.8,14.9z M10.6,9.2C10.7,9,10.8,9,11,8.9c0.6-0.7,1.3-1.3,1.9-2c0.2-0.2,0.5-0.6,0.7-1.1
	C13.3,6,13.3,6,13.2,6.1c-0.7,0.8-1.5,1.6-2.2,2.6C10.8,8.8,10.7,9,10.6,9.2c-0.1,0.1-0.2,0.2-0.4,0.2c0,0,0.1,0,0.1,0.1
	C10.5,9.4,10.5,9.3,10.6,9.2z M76.7,19c0.1-0.2,0.2-0.5,0-0.8c-0.5-0.6-0.9-1.3-1.5-1.9c-0.1-0.1-0.2-0.4-0.5-0.5
	c0,0.5,0.2,0.8,0.5,1.3C75.8,17.7,76.1,18.5,76.7,19z M11.3,6.6c0-0.2,0.4-0.5,0.2-0.9c-0.2,0.2-0.4,0.4-0.5,0.6
	C11,6.5,11.1,6.6,11.3,6.6c-0.5,0.6-0.8,1.2-1.5,1.6C9.5,8,9.4,7.9,9.3,7.8C9.1,8,8.8,8.2,8.8,8.3c0,0.4,0,0.6-0.1,0.8
	c0,0,0,0.1,0.1,0.1c0,0.1,0.1,0.1,0.2,0.1s0.2-0.1,0.4-0.2c0.9-0.9,1.9-2,2.8-2.9c0,0,0-0.1,0.1-0.4C12.1,6,12,6,11.9,6.1
	C11.8,6.2,11.7,6.5,11.3,6.6z M69.7,13.8c-0.4-0.1-0.5-0.4-0.6-0.6c-0.2-0.4-0.5-0.8-0.8-1.2c-0.1-0.1-0.1-0.2-0.2-0.2
	c-0.1,0-0.2,0-0.2,0l-0.1,0.1c0,0.1,0,0.2,0.1,0.2c0.8,1.2,1.6,2.4,2.5,3.4c0.1,0.1,0.2,0.4,0.5,0.4c0-0.5-0.4-0.7-0.5-1.1
	C70.1,14.5,69.7,14.2,69.7,13.8h0.1c0,0,0.1,0,0.1-0.1l-0.1-0.1C69.9,13.6,69.9,13.6,69.7,13.8z M71.6,13.5
	c-0.2-0.2-0.5-0.4-0.6-0.6c-0.5-0.7-0.9-1.3-1.4-2c-0.2-0.2-0.4-0.4-0.6-0.4c-0.2,0.2-0.1,0.5,0,0.7c0.5,0.7,1.1,1.4,1.6,2.1
	c0.4,0.5,0.7,0.9,1.2,1.4c0.1,0.1,0.2,0.2,0.5,0c-0.1-0.2-0.4-0.4-0.5-0.6C71.8,14,71.6,13.8,71.6,13.5c0.1,0,0.2,0.1,0.5,0.1
	c-0.8-1.2-1.5-2.2-2.2-3.3c0-0.1-0.1-0.1-0.2-0.2c0,0,0,0-0.1,0c0,0,0,0-0.1,0c0.1,0.1,0.1,0.4,0.2,0.5c0.5,0.7,0.9,1.4,1.5,2.1
	C71.4,12.9,71.6,13.2,71.6,13.5z M68.6,14.9c0.4,0.4,0.6,0.6,0.9,0.9c0.2,0.4,0.6,0.6,0.8,0.9c-0.2-0.9-0.8-1.8-1.4-2.5
	c-0.6-0.7-0.9-1.8-1.8-2.4c0,0.8,0,0.8,0.4,1.4c0.1,0.2,0.4,0.5,0.5,0.6c0.2,0.2,0.4,0.6,0.5,0.9c0,0.1,0,0.4,0,0.4
	C68.7,15.2,68.6,14.9,68.6,14.9z M58.4,6c0-0.1,0.1-0.2,0.1-0.4V5.5h-0.1C58.4,5.8,58.4,5.9,58.4,6c0.6,0.7,1.2,1.3,1.4,2.1
	c0.8,1.2,1.8,2.2,2.6,3.4c0.1,0.1,0.2,0.2,0.5,0c-0.1-0.1-0.1-0.2-0.2-0.4C61.9,10,61,8.8,60.2,7.8C59.7,7.1,59.3,6.5,58.4,6z
	 M65,11.3c0,0.2,0,0.4,0.5,0.6C65.3,11.5,65.2,11.4,65,11.3c-0.1-0.1-0.2-0.2-0.2-0.4c-0.7-1.1-1.4-2-2.2-3.1
	c-0.1-0.2-0.2-0.6-0.4-0.8c0,0,0-0.1,0.1-0.1h0.1c0.1,0,0.1,0.1,0.2,0.1c0.9,1.2,1.9,2.4,2.8,3.6c0.1,0.1,0.4,0.4,0.5,0.5
	c0.1-0.2,0-0.4,0-0.4c-0.2-0.4-0.6-0.8-0.9-1.2c-0.7-1.1-1.5-2-2.1-3.2c-0.4-0.7-0.8-1.4-1.5-1.8c-0.2-0.1-0.4-0.4-0.6-0.6
	c-0.1-0.1,0.1-0.5-0.2-0.5c-0.1,0.2-0.1,0.5,0,0.7c0.2,0.2,0.4,0.5,0.6,0.7c0.2,0.2,0.6,0.6,0.8,0.8c0.1,0.1,0.1,0.2,0.2,0.4v0.1
	c0,0-0.1,0.1-0.1,0c-0.1-0.1-0.4-0.1-0.5-0.2c-0.2-0.2-0.5-0.6-0.7-0.8c-0.4-0.4-0.4-0.4-0.9-0.6c0.1,0,0.1,0.1,0.1,0.2
	c0.2,0.5,0.8,0.9,0.8,1.5c0,0.1,0.2,0.4,0.4,0.5C61.9,7.1,62,7.5,62.3,8c0.7,0.9,1.4,2,2.2,2.9C64.6,11,64.8,11.2,65,11.3z
	 M23.1,8.3c-1.6,0.8-3.2,1.8-4.6,2.8c-0.8,0.6-1.8,1.3-2.6,2c-0.7,0.7-1.4,1.4-2.2,2c-0.2,0.1-0.4,0.4-0.5,0.5
	c-1.1,1.1-2,2.1-3.1,3.2L10,18.9c-1.1,0.8-1.8,1.9-2.6,2.8c0,0,0,0.1,0,0.2c0.2,0.5,0.6,0.8,0.9,1.2c0.6,0.7,1.2,1.3,1.9,2
	c0.5,0.5,0.8,0.9,1.3,1.5c0.2,0.2,0.5,0.6,0.9,0.7c0.1-0.1,0.2-0.1,0.2-0.2c0.5-0.9,1.2-1.8,1.8-2.7c0.8-1.2,1.8-2.2,2.8-3.2
	c0.8-0.7,1.6-1.4,2.5-2.2c0.1-0.1,0.2-0.2,0.5-0.4c0.8-0.4,1.3-1.1,2-1.5c0.7-0.5,1.4-0.9,2.1-1.4c1.1-0.7,2.1-1.5,3.3-2.1
	c0.2-0.1,0.6-0.2,0.8-0.6c-0.1-0.2-0.2-0.4-0.5-0.6c-1.2-1.3-2.5-2.6-3.7-3.9c-0.1-0.1-0.2-0.1-0.4-0.2C23.8,8.3,23.4,8.2,23.1,8.3z
	 M29.5,25.4c0.2,0,0.4,0.1,0.6,0.1c0,0,0,0.1-0.1,0.1c0,0,0,0,0,0.1c0.4,0,0.6,0,0.9,0c0.2,0,0.5-0.1,0.8-0.1c0.9,0,1.9-0.2,2.7-0.6
	c0.2-0.1,0.6-0.2,0.8-0.4c0.8-0.2,1.6-0.4,2.6,0c0.2,0.1,0.5,0.1,0.8,0.1c-0.1-0.1-0.2-0.1-0.4-0.4c0.5,0.1,0.8,0.1,1.3,0.2
	c0,0.5,0.2,0.7,0.7,0.7c0.6,0.1,1.2,0.2,1.9,0.5c1.5,0.4,2.9,0.4,4.4-0.4c0.2-0.1,0.4-0.1,0.6-0.2c0,0,0.1,0,0.2,0.1
	c0,0.2-0.1,0.5-0.1,0.7c-0.6,0.2-1.2,0.2-1.6,0.4c-0.6,0.1-1.1,0.2-1.6,0.1c-0.6,0-1.1-0.1-1.6-0.1c0,0.1,0,0.2,0,0.2
	c0.9,1.2,1.9,2.5,2.8,3.6c1.8,2.2,3.5,4.5,5.3,6.7c0.9,1.3,2,2.5,3.2,3.6c0.4,0.4,0.7,0.7,1.2,0.8c0.5-0.1,0.7-0.4,1.1-0.7
	c0.9-0.9,1.8-2,2.4-3.2c0.4-0.6,0.6-1.2,0.8-1.8c0.6-1.4,1.3-2.8,2-4.2c0.9-1.8,2-3.4,3.3-4.8c0.4-0.4,0.8-0.8,1.2-1.2
	c0-0.4-0.2-0.7-0.5-0.9c-1.5-2-3.1-4-4.9-5.8c-0.8-0.7-1.5-1.5-2.2-2.2c-0.7-0.7-1.3-1.5-2-2.2c-0.4-0.4-0.6-0.7-1.2-0.8
	c-0.6,0.7-1.3,1.1-2.1,1.4c-0.7,0.4-1.4,0.7-2.1,1.1c-0.2,0.1-0.5,0.2-0.7,0.4c-1.2,0.5-2.4,0.7-3.7,0.9c-1.3,0.2-2.5,0.4-3.5,0
	c-0.2-0.1-0.5-0.1-0.7-0.1c-1.8-0.1-3.4,0.4-4.9,1.2c-1.6,0.9-3.3,1.9-5.1,2.8c-0.1,0.1-0.4,0.1-0.6,0.2c-0.8,0.4-1.6,0.7-2.4,1.2
	c-0.2,0.2-0.5,0.2-0.8,0.5c-0.1,0.1-0.4,0.1-0.5,0.2c-0.2,0.1-0.2,0.4-0.2,0.6c0.1,0.7,1.1,1.4,1.9,1.4
	C29.3,25.5,29.5,25.5,29.5,25.4z M33.2,19.5c-0.7-0.2-1.3-0.5-1.9-0.7c-0.2-0.1-0.5-0.2-0.7-0.4c-0.7-0.6-1.4-1.3-2.1-2
	c-0.5-0.5-0.8-0.8-1.2-1.3c-0.4-0.4-0.6-0.4-0.9-0.1c-0.4,0.2-0.7,0.5-1.1,0.7c-0.7,0.5-1.5,0.8-2.1,1.4c-1.6,1.3-3.2,2.6-4.7,4
	c-1.2,1.1-2.1,2.1-3.3,3.2c-0.2,0.2-0.6,0.6-0.7,1.1c0.1,0.1,0.2,0.4,0.4,0.5c1.5,1.6,3.1,3.3,4.2,5.3c0.6,1.1,1.3,2,1.9,3.1
	c0.5,0.7,0.8,1.4,1.3,2.1c0.1,0.1,0.2,0.2,0.5,0.4c0.2-0.2,0.4-0.5,0.6-0.6c0.4-0.2,0.6-0.6,1.1-0.8c0.6-0.2,1.1-0.1,1.6,0.1
	c0.8,0.4,1.3,0.9,1.4,1.8c0,0.1,0.1,0.2,0.2,0.5c0.2-0.1,0.4-0.1,0.5-0.2c0.2-0.1,0.6-0.1,0.8,0c0.6,0.4,1.3,0.7,1.5,1.4
	c0.1,0.2,0.2,0.5,0.4,0.7c0.1,0.2,0.1,0.6,0.1,0.8c0.2,0,0.6-0.1,0.7-0.1c0.7,0.1,1.3,0.4,2,0.6c0.4,0.1,0.6,0.5,0.6,0.8
	c0.1,0.6,0.1,1.1,0,1.8c0.4,0,0.5-0.1,0.7-0.1c0.2,0,0.5,0,0.7,0c0.7,0,0.9,0.2,1.2,0.8c0.2,0.6,0.4,1.3,0.4,2
	c0,1.2-0.2,2.4-0.6,3.4c-0.2,0.6-0.4,1.2-0.6,1.8c-0.1,0.4,0,0.7,0.2,0.9c0.4,0.2,0.7,0.6,1.1,0.8c0.5,0.4,0.9,0.5,1.4,0.6
	c0.9,0.2,1.9,0,2.9,0c0.4,0,0.7-0.2,0.9-0.6c-0.1-0.1-0.1-0.2-0.2-0.4c-0.9-0.9-1.6-2-2.7-2.7c-0.6-0.4-0.9-0.9-1.2-1.5
	c-0.1-0.2,0-0.4,0.2-0.4h0.1c0.7,0.8,1.3,1.8,2.2,2.5c0.6,0.6,1.2,1.2,1.8,1.8c0.5,0.6,1.2,0.7,1.8,0.6c1.1-0.2,2-0.6,2.9-1.3
	c0.2-0.1,0.4-0.4,0.5-0.6c0.1-0.2,0.1-0.6-0.1-0.8c-0.8-0.7-1.5-1.5-2.4-2.2c-0.9-0.8-1.9-1.6-2.7-2.6c-0.1-0.1-0.2-0.4-0.2-0.5
	c0-0.1,0-0.4,0.4-0.4c0.2,0.2,0.6,0.5,0.8,0.8c0.4,0.5,0.8,0.8,1.3,1.3c1.1,0.9,2,1.9,2.9,2.8c0.2,0.2,0.5,0.4,0.7,0.6
	c0.5,0.4,1.1,0.4,1.6,0c0.8-0.5,1.6-1.1,2.2-1.8c0.1-0.1,0.1-0.4,0.2-0.5c-0.6-0.4-1.3-0.6-1.8-1.1c-1.5-1.4-3.1-2.8-4.5-4.3
	c-0.1-0.1-0.2-0.2-0.4-0.5c0.1-0.1,0.2-0.1,0.4-0.1c0.1,0,0.1,0.1,0.2,0.1c1.1,0.9,2,1.9,3.1,2.8c0.1,0.1,0.2,0.2,0.4,0.4
	c0.7,0.7,1.4,1.3,2.4,1.6c0.5,0.2,0.9,0.1,1.3-0.1c0.4-0.2,0.8-0.5,1.1-0.8c0.7-1.1,1.3-2.2,1.2-3.6c0-0.4-0.1-0.8-0.4-1.2
	c-0.4,0.1-0.7,0.5-0.9,0.7c-0.4,0.2-0.5,0.2-0.8,0c-0.7-0.6-1.3-1.2-1.9-1.9c-1.1-1.2-2-2.4-2.9-3.6c-0.6-0.7-0.9-1.6-1.6-2.1
	c-0.8-1.1-1.5-2-2.4-3.1c-1.2-1.5-2.5-2.9-3.5-4.6c-0.1-0.2-0.4-0.4-0.5-0.5c-0.1-0.1-0.2-0.2-0.5-0.2c-0.5-0.1-0.8-0.2-1.3-0.4
	C38.3,25,37,24.8,35.7,25c-0.9,0.2-2,0.5-2.8,0.8c-0.5,0.1-0.9,0.4-1.5,0.4s-1.2,0-1.6,0c-0.2,0-0.5-0.1-0.7-0.2
	c-0.8-0.5-1.5-1.1-2-2c-0.4-0.7-0.1-1.2,0.6-1.5c0.4-0.2,0.7-0.4,1.1-0.6c1.1-0.6,2-1.2,3.2-1.6C32.3,20.4,32.8,20.1,33.2,19.5z
	 M67.3,28.3c0.2,0.1,0.5-0.1,0.6-0.2c0.6-0.5,1.2-1.1,1.8-1.6c0.5-0.5,0.9-0.9,1.4-1.4c0.1-0.1,0.2-0.2,0.4-0.5
	c-0.1-0.2-0.1-0.4-0.2-0.5c-1.5-2.4-3.3-4.6-5.4-6.5c-1.1-0.9-2.1-2.1-3.2-3.2l-0.1-0.1c-1.1-1.2-2-2.2-3.1-3.4
	c-0.4-0.4-0.7-0.7-1.2-1.2c-0.5-0.5-0.8-0.8-1.3-1.3c0-0.1-0.2-0.2-0.4-0.4c-1.2,0.6-2.1,1.4-3.2,2.1c-0.2,0.2-0.5,0.5-0.7,0.7
	c-0.1,0.1-0.1,0.4-0.2,0.5c0.5,0.2,0.8,0.4,1.2,0.6c0.6,0.5,1.1,0.9,1.6,1.5c0.8,0.9,1.6,1.9,2.5,2.8c0.4,0.5,0.8,0.9,1.3,1.3
	c0.5,0.5,1.1,0.9,1.5,1.4c0.8,0.8,1.5,1.5,2.2,2.4c0.6,0.7,1.2,1.4,1.8,2.2c1.1,1.4,2.1,2.8,2.6,4.6C67.3,28.2,67.3,28.2,67.3,28.3z
	 M33.9,43.1c0-0.1,0-0.5,0-0.7c0-0.5-0.2-0.8-0.7-0.9c-0.4-0.1-0.7-0.2-1.2-0.4c-0.4-0.1-0.7-0.1-0.9,0.2c-0.5,0.5-0.8,0.9-1.2,1.5
	c-0.6,0.9-1.1,2-1.5,2.9c-0.2,0.6-0.5,1.2-0.7,1.8c-0.1,0.4-0.1,0.8-0.1,1.2c0,0.5,0.2,0.8,0.7,1.1c0.5,0.2,0.9,0.4,1.4,0.4
	c0.6,0,1.1-0.2,1.4-0.7c0.2-0.5,0.6-0.9,0.8-1.4c0.5-0.9,0.9-2,1.4-2.9C33.6,44.5,33.8,43.8,33.9,43.1z M30.2,40.8
	c-0.1-0.5-0.1-0.9-0.2-1.4c-0.1-0.6-0.5-0.9-1.1-1.1c-0.4-0.1-0.7-0.1-0.9,0.1c-0.2,0.2-0.5,0.5-0.7,0.6c-0.5,0.4-1.1,0.7-1.3,1.3
	c0,0.1-0.2,0.2-0.2,0.4c-0.2,0.2-0.4,0.5-0.6,0.7c-0.5,0.8-0.9,1.6-1.3,2.6c-0.5,1.3-0.4,1.8,0.6,2.8c0,0,0,0,0.1,0.1
	c0.5,0.4,0.8,0.7,1.4,0.8c0.4,0.1,0.6,0,0.7-0.4s0.4-0.6,0.5-0.9c0.2-0.7,0.6-1.4,0.9-2c0.6-0.8,1.1-1.8,1.6-2.6
	C30,41.5,30.2,41.1,30.2,40.8z M36.6,47.1c0.1-1.5,0.1-1.6-0.1-2.4c-0.2-0.5-0.6-0.7-1.1-0.7c-0.4,0-0.7,0.1-0.9,0.4
	c-1.1,1.4-1.9,3.1-2.5,4.7c-0.2,0.7-0.4,1.3,0,2c0.1,0.2,0,0.5,0.2,0.7c0.5,0.5,0.9,0.9,1.6,0.9c0.7,0,1.2-0.2,1.4-0.8
	c0.2-0.5,0.4-0.8,0.5-1.3c0.1-0.5,0.2-0.8,0.4-1.3C36.3,48.5,36.5,47.6,36.6,47.1z M21,41.4c0,0.4,0,0.6,0,0.7
	c0,0.7,0.2,1.2,0.8,1.6c0.4,0.2,0.7,0.4,1.2,0.2c0.4-0.1,0.4-0.4,0.5-0.7c0.2-0.6,0.5-1.3,0.9-1.9c0.7-0.9,1.3-2,2.4-2.7
	c0.2-0.1,0.4-0.4,0.4-0.7c0.1-1.3-0.9-2-1.9-2.1c-0.2,0-0.6,0.1-0.7,0.2c-0.4,0.2-0.6,0.5-0.8,0.7c-0.9,1.2-1.8,2.5-2.4,3.8
	C21,40.9,21,41.2,21,41.4z M67.2,10.9c0-0.6-0.4-0.9-0.7-1.3c-1.1-1.4-2.1-2.7-2.8-4.3c-0.5-0.1-0.8-0.6-1.2-0.9
	c-0.4-0.4-0.6-0.7-0.9-0.9c-0.1-0.1-0.2-0.2-0.4,0C61.6,4,62,4.7,62.7,5.1c0.4,0.2,0.6,0.5,0.7,0.8c0,0.2,0.2,0.6,0.5,0.8
	c0.9,1.3,2,2.7,3.1,4C66.9,10.8,67,10.8,67.2,10.9z M61,7.8c1.2,1.8,2.5,3.2,3.8,4.6c0,0,0.1,0,0.2,0c-0.1-0.2-0.2-0.4-0.4-0.5
	c-0.9-1.3-1.9-2.5-2.8-3.8c-0.1-0.1-0.1-0.2-0.2-0.2C61.5,7.8,61.3,7.8,61,7.8z M69.6,8.7c0.2,0.6,0.4,1.2,0.7,1.6
	c0.8,1.2,1.6,2.2,2.5,3.3h0.1c0,0,0,0,0-0.1c0-0.1,0-0.1,0-0.2c-1.1-1.4-2-2.9-2.9-4.5c0-0.1-0.1-0.1-0.2-0.2
	C69.9,8.7,69.7,8.7,69.6,8.7z M25.8,9.4c0.5-0.5,0.7-0.9,0.5-1.5c-0.9,0-0.9,0-1.6,0.2C24.9,8.7,25.3,9,25.8,9.4z M65.3,13.4
	c0.8,1.4,1.9,2.6,2.8,3.8c0.1-0.2,0-0.4,0-0.4c-0.8-1.2-1.6-2.2-2.5-3.3C65.7,13.4,65.6,13.4,65.3,13.4z M70.8,26.3
	c0,0.1,0,0.2,0.1,0.4c0.4,0.4,1.1,0.2,1.4-0.1c0.4-0.4,0-0.6-0.1-0.8c0-0.1-0.1-0.1-0.2-0.2c-0.1,0.1-0.4,0.1-0.5,0.2
	C71.3,26,71,26.1,70.8,26.3z M68.8,9.4c0-0.1,0-0.1,0-0.2C68,8,67,6.9,66,6h-0.1c0,0,0,0-0.1,0.1c0.9,1.1,1.8,2.1,2.6,3.2
	c0.1,0.1,0.2,0.1,0.4,0.2L68.8,9.4z M54.4,7.3c0,0.5,0,0.8,0.4,1.1C55.3,8.1,55.7,8,56,7.4C55.6,6.8,55,6.9,54.4,7.3z M72.2,21.9
	c-0.1-0.7-0.6-1.5-1.6-2.9c-0.1-0.1-0.1-0.2-0.4-0.1C70.6,19.6,71.5,21.2,72.2,21.9z M72.2,17.6c0.4,1.2,0.9,2.1,1.6,2.9
	c0.1,0.1,0.1,0.2,0.4,0C73.6,19.6,72.9,18.6,72.2,17.6z M75.2,21.3c0.4-0.1,0.2-0.4,0.1-0.5c-0.4-0.6-0.8-1.2-1.2-1.8
	c-0.1-0.1-0.1-0.2-0.4-0.1C74.2,19.7,74.7,20.6,75.2,21.3z M7.1,22.9c-0.4,0-0.4,0.2-0.5,0.5c-0.1,0.5,0.2,0.8,0.7,0.7
	c0.2,0,0.4-0.2,0.2-0.5C7.4,23.4,7.3,23,7.1,22.9z M71.5,18c0.7,1.5,1.3,2.4,1.9,2.8C73,19.9,72.2,18.7,71.5,18z M73.5,22.4l0.1-0.1
	c-0.4-0.8-0.9-1.5-1.5-2.2c0,0-0.1-0.1-0.4-0.2C72.5,20.8,72.9,21.6,73.5,22.4z M63,4c-0.4-0.7-0.6-0.9-1.2-1.2
	C62.1,3.4,62.3,3.6,63,4z M75.6,20.3c-0.1-0.9-0.6-1.8-1.2-2.2C74.9,18.8,75.3,19.6,75.6,20.3z M17.8,9C17.8,9,17.8,8.9,17.8,9
	c-0.1-0.1-0.1-0.1-0.1,0c-0.4,0.5-0.8,0.9-1.2,1.4c0,0,0,0.1,0,0.2C17,10.5,17,10.3,17.8,9z M73.5,17.4c-0.4-1.1-0.7-1.6-1.1-2
	c0,0.1,0,0.2,0,0.2C72.8,16.1,72.9,16.8,73.5,17.4z M65.3,14.6c0.5,1.1,0.8,1.4,1.4,1.6c-0.4-0.5-0.7-0.9-0.9-1.3
	C65.6,14.8,65.5,14.8,65.3,14.6z M76.1,20.8c0.1,0.4,0.1,0.6,0.2,0.8c0,0.2,0,0.5,0.2,0.7c0.2-0.6,0.2-0.6,0.1-0.8
	c0-0.1-0.1-0.4-0.2-0.5C76.5,21,76.3,20.9,76.1,20.8z M68.6,11.4c-0.6-0.9-0.9-1.3-1.4-1.5C67.7,10.9,67.7,10.9,68.6,11.4z
	 M15.3,5.8c1.1-0.8,1.1-0.8,1.2-1.4C16,4.6,15.9,4.7,15.3,5.8z M59,5.1l-0.1,0.1c0,0.1,0,0.4,0.1,0.5c0.4,0.6,0.6,0.7,0.9,0.9
	c-0.1-0.4-0.4-0.5-0.6-0.7C59.4,5.6,59.3,5.4,59,5.1z M71.3,8.6c0.4,0.8,0.8,1.4,1.4,1.8c-0.5-0.6-0.7-1.2-1.2-1.6
	C71.5,8.7,71.4,8.7,71.3,8.6z M22.4,6.6l0.1-0.1c-0.1-0.2-0.2-0.4-0.5-0.6h-0.2c0,0.1,0,0.2,0,0.2C22,6.3,22.3,6.5,22.4,6.6z
	 M59.1,2.9c-0.4,0.1-0.7,0.2-0.9,0.8C58.7,3.5,58.9,3.2,59.1,2.9z M78,20.2c-0.1,0.6-0.1,0.6,0.2,0.9C78.2,20.7,78.1,20.4,78,20.2z
	 M21.1,5.5c0.2,0,0.4-0.1,0.2-0.2c-0.1-0.1-0.2-0.2-0.4-0.4c0,0-0.1,0-0.4,0.1C20.9,5.2,21,5.4,21.1,5.5z M58.4,8.5
	C58.7,9,58.7,9,59.1,9.3C58.9,8.9,58.7,8.7,58.4,8.5z M18.5,9.3c0.5,0,0.6-0.1,0.7-0.4V8.8h-0.1C18.9,8.9,18.7,9,18.5,9.3z M4,16.7
	c-0.1,0.1-0.2,0.4-0.2,0.5s-0.1,0.2-0.1,0.6C3.9,17.4,4.1,17.2,4,16.7z M74.3,14.2c0.1,0.5,0.1,0.5,0.7,1.1
	C74.7,14.8,74.6,14.6,74.3,14.2z M66.8,8.2c0.1,0.6,0.1,0.6,0.7,0.8C67.2,8.7,66.9,8.5,66.8,8.2z M17.2,6.6c0.1-0.1,0.2-0.2,0.4-0.5
	c0,0,0-0.1,0-0.2c-0.1,0-0.2,0-0.2,0C17.2,6.1,17.1,6.3,17.2,6.6z M68.1,4.7c-0.2-0.5-0.2-0.5-0.6-0.6C67.6,4.3,67.9,4.5,68.1,4.7z
	 M71.6,10.1c0,0-0.1,0-0.1,0.1c0.1,0.1,0.1,0.2,0.2,0.4c0.1,0.1,0.1,0.2,0.4,0.1C71.9,10.5,71.8,10.3,71.6,10.1z M65.9,28
	c0.2-0.1,0.4-0.4,0.4-0.5c0,0,0,0-0.1,0S65.7,27.6,65.9,28C65.7,28,65.9,28,65.9,28z M73.8,10.1l-0.1,0.1c0.1,0.1,0.2,0.2,0.4,0.4
	c0,0,0.1,0,0.1-0.1C74,10.5,73.9,10.2,73.8,10.1z M77.4,21.5c0-0.2,0.1-0.4,0.1-0.5c0-0.1-0.1-0.1-0.1-0.1c0,0.1-0.1,0.1-0.1,0.2
	C77.2,21.3,77.3,21.3,77.4,21.5z M20,4l-0.1,0.1C20,4.2,20,4.3,20.1,4.3h0.1c0,0,0.1-0.1,0-0.1C20.3,4.1,20.1,4.1,20,4z M65.7,6.9
	c0,0.5,0.1,0.6,0.5,0.6C66.1,7.4,66,7.3,65.7,6.9z M21.8,3.2c0.1,0.1,0.2,0.2,0.4,0.5C22.3,3.3,22,3.2,21.8,3.2z M70.1,6.5
	c0,0.4,0.1,0.5,0.6,0.6C70.3,6.7,70.2,6.6,70.1,6.5z M65.3,9.2c0-0.1-0.1-0.1-0.1-0.2c0,0-0.1,0-0.1,0.1C65,9,65.2,9.2,65.3,9.2
	C65.2,9.2,65.3,9.2,65.3,9.2z M57.8,5.3l-0.1-0.1c-0.1,0.1-0.2,0.2-0.4,0.2c0,0,0,0.1,0.1,0.1C57.6,5.4,57.7,5.4,57.8,5.3z
	 M72.8,11.9c0,0-0.1,0-0.1,0.1c0.1,0.1,0.1,0.2,0.2,0.4c0,0,0.1,0,0.1-0.1C72.9,12.1,72.9,12,72.8,11.9z M73.8,25.4
	c0-0.1-0.1-0.1-0.1-0.2l-0.1,0.1c0,0.1,0.1,0.1,0.1,0.2L73.8,25.4z M6.7,9.8C7,9.8,7,9.6,7.1,9.5c0,0,0-0.1-0.1-0.1
	C6.8,9.5,6.7,9.6,6.7,9.8z M75.8,15.7c0-0.2,0-0.4-0.2-0.4C75.6,15.5,75.6,15.6,75.8,15.7z M73,11l-0.1,0.1c0.1,0.1,0.1,0.2,0.2,0.4
	c0,0,0.1,0,0.1-0.1S73.2,11.2,73,11z M65.7,16.7C65.7,16.8,65.7,16.8,65.7,16.7C65.9,16.8,65.9,16.7,65.7,16.7z M19.6,2.8
	C19.6,2.7,19.6,2.7,19.6,2.8c0-0.1-0.1-0.1-0.1-0.1v0.1C19.4,2.8,19.4,2.8,19.6,2.8z M8,10.9c0,0-0.1,0-0.1,0.1v0.1
	C8,11,8,11,8,10.9C8.1,10.9,8,10.9,8,10.9z M65.9,26.9C65.9,26.8,65.9,26.8,65.9,26.9c0-0.1-0.1-0.1-0.1-0.1v0.1
	C65.7,26.9,65.7,26.9,65.9,26.9z M69.2,12.5L69,12.3c0,0,0,0-0.1,0C69,12.3,69,12.5,69.2,12.5z M17.9,5.4
	C17.9,5.4,17.8,5.4,17.9,5.4c0,0.1,0,0.1,0,0.1s0,0,0.1,0C17.9,5.5,17.9,5.5,17.9,5.4z M20.5,6c0,0-0.1,0-0.1,0.1v0.1
	c0,0,0.1,0,0.1-0.1C20.6,6.1,20.6,6,20.5,6z M19.3,9.8c-0.1,0-0.1,0.1-0.1,0.1S19.3,9.9,19.3,9.8C19.3,9.9,19.3,9.8,19.3,9.8z
	 M7.7,8.9V8.8H7.5C7.5,8.8,7.5,8.8,7.7,8.9C7.5,8.9,7.7,8.9,7.7,8.9z M74,12.5c0,0-0.1,0-0.1-0.1v0.1H74z M66.2,8.5
	C66.1,8.5,66.1,8.5,66.2,8.5c-0.1,0-0.1,0-0.1,0S66.1,8.6,66.2,8.5C66.1,8.6,66.1,8.5,66.2,8.5z M62.9,13.3v-0.1c0,0,0,0-0.1,0
	C62.9,13.3,62.9,13.3,62.9,13.3C62.9,13.4,62.9,13.3,62.9,13.3z M75.4,23.3C75.3,23.3,75.4,23.4,75.4,23.3
	C75.4,23.4,75.4,23.3,75.4,23.3z M66.7,11.2L66.6,11c0,0,0,0-0.1,0C66.6,11.2,66.6,11.2,66.7,11.2z M71,9.4V9.3c0,0,0,0-0.1,0v0.1
	H71z M65.2,1.9C65,1.9,65,1.9,65.2,1.9C65,1.9,65,1.9,65.2,1.9z M60.2,3.3C60.2,3.3,60.3,3.2,60.2,3.3C60.3,3.2,60.2,3.2,60.2,3.3
	C60.2,3.2,60.2,3.2,60.2,3.3z M22.2,7.6C22.2,7.6,22.2,7.5,22.2,7.6C22.2,7.5,22,7.5,22.2,7.6C22,7.5,22,7.6,22.2,7.6z M2.6,18.6
	C2.6,18.5,2.6,18.5,2.6,18.6C2.6,18.5,2.5,18.5,2.6,18.6C2.5,18.6,2.6,18.6,2.6,18.6z M20.9,2.7C20.9,2.7,20.9,2.8,20.9,2.7
	C20.9,2.8,21,2.8,20.9,2.7C21,2.7,21,2.7,20.9,2.7C21,2.7,20.9,2.7,20.9,2.7z M19.2,5.6C19.2,5.6,19.3,5.5,19.2,5.6
	C19.2,5.5,19.2,5.5,19.2,5.6C19.2,5.5,19.2,5.5,19.2,5.6z M19.7,4.6v0.1C19.7,4.7,19.7,4.7,19.7,4.6C19.8,4.7,19.7,4.6,19.7,4.6z
	 M9.9,7.3c0,0.1,0,0.1,0,0.1C10,7.3,10,7.3,9.9,7.3C10,7.3,9.9,7.3,9.9,7.3z M57.6,7.5C57.6,7.5,57.6,7.6,57.6,7.5
	C57.7,7.6,57.7,7.6,57.6,7.5C57.7,7.6,57.7,7.5,57.6,7.5C57.7,7.5,57.6,7.5,57.6,7.5z M53.4,12.5C53.4,12.5,53.4,12.6,53.4,12.5
	C53.4,12.6,53.4,12.6,53.4,12.5z M19.3,5.1c0,0.1,0.1,0.1,0.1,0C19.4,5.1,19.4,5.1,19.3,5.1C19.4,5.1,19.3,5.1,19.3,5.1z"/>
<path class="st3" d="M13,22c-0.1,0.6-0.4,1.2-0.9,1.4s-1.4,0-1.9-0.5c-0.7-0.8-0.8-1.6-0.2-2.5c0.2-0.4,0.6-0.6,1.1-0.7
	c0.2,0,0.4,0,0.6,0C12.3,20.1,13.1,21.3,13,22z M10.6,22.7c0.4,0,0.5,0.1,0.6,0.1c0.7-0.1,1.1-0.9,0.8-1.5c-0.1-0.2-0.2-0.4-0.5-0.5
	c-0.1-0.1-0.2-0.1-0.4-0.1c-0.2,0.1-0.5,0.2-0.6,0.4c0,0.1-0.2,0.4,0,0.6c0.4,0,0.4-0.4,0.6-0.5c0.1-0.1,0.4-0.1,0.6,0
	c0.2,0.2,0.2,0.5,0,0.6C11.3,22,11.1,22.3,10.6,22.7z"/>
<path class="st3" d="M66.6,23.6c0.1-0.7,0.4-1.1,0.9-1.3c0.5-0.2,0.9-0.1,1.4,0.2c0.7,0.6,0.9,1.2,0.7,1.9c-0.2,0.6-0.7,0.9-1.4,0.9
	c-0.7,0-1.2-0.2-1.4-0.8C66.6,24.1,66.6,23.9,66.6,23.6z M67.6,23.3c-0.4,0.4-0.4,0.8-0.1,1.2c0.1,0.2,0.5,0.4,0.7,0.2
	C68,24.2,67.9,23.9,67.6,23.3z M67.9,22.9c0.1,0.1,0.2,0.4,0.4,0.5c0.1,0.1,0.1,0.4,0.2,0.5c0.1-0.1,0.2-0.1,0.4-0.1l0.1-0.1
	c0-0.1,0-0.2-0.1-0.4C68.6,22.9,68.3,22.8,67.9,22.9z"/>
<path class="st3" d="M30.2,43.7c0.7,0.4,1.3,0.9,2.1,0.7c0.5-0.5,0.6-1.1,0.7-1.8c0-0.2,0-0.2,0.5-0.2c0,0.1,0,0.2,0,0.4
	c-0.1,0.7-0.5,1.3-0.8,1.9c-0.4,0.5-0.9,0.6-1.5,0.5C30.5,45,30.2,44.7,30.2,43.7z"/>
<path class="st3" d="M29.5,40.1c-0.1,0.4-0.2,0.7-0.5,0.9c-0.4,0.5-0.7,0.8-1.2,1.2c-0.2,0.1-0.5,0.1-0.8,0.1
	c-0.4-0.1-0.6-0.2-0.8-0.6c0-0.1,0-0.2,0-0.4c0.1-0.1,0.2-0.1,0.4-0.1s0.2,0.1,0.4,0.2c0.5,0.4,0.7,0.2,1.1-0.1
	c0.2-0.2,0.5-0.6,0.6-0.8c0.1-0.1,0.1-0.4,0.2-0.6c0-0.1,0.2-0.1,0.4-0.1C29.2,39.8,29.3,40,29.5,40.1z"/>
<path class="st3" d="M35.5,47.2c-0.5,0.1-0.9,0.1-1.3-0.1c-0.1-0.1-0.2-0.2-0.2-0.4c0-0.1,0-0.2,0.1-0.5c0.4,0.1,0.6,0.4,0.8,0.4
	c0.2,0.1,0.6,0,0.7-0.2c0.1-0.4,0.4-0.8,0.5-1.2c0.2-0.1,0.4,0.1,0.4,0.2c-0.1,0.4-0.1,0.7-0.4,1.1C35.9,46.8,35.7,47,35.5,47.2z"/>
<path class="st3" d="M25.7,37c0.1,0.9-0.2,1.4-0.7,1.8c-0.2,0.2-0.6,0.5-0.9,0.7c-0.4,0.2-0.8,0.1-1.1-0.2c-0.2-0.1-0.2-0.4-0.1-0.5
	c0.1-0.2,0.2-0.4,0.5-0.2c0.1,0,0.4,0.1,0.5,0.1c0.5,0.1,0.7,0.1,0.9-0.4c0.2-0.2,0.4-0.6,0.5-0.8C25.3,37.4,25.4,37.3,25.7,37z"/>
</svg>
