<svg width="1280" height="99" viewBox="0 0 1280 99" fill="none" xmlns="http://www.w3.org/2000/svg">
<g filter="url(#filter0_d_2378_3622)">
<path d="M1277.92 38.9575C1275.91 42.4006 1273.91 36.6227 1271.91 39.8478C1269.91 42.3643 1267.9 41.7738 1265.9 40.7654C1263.89 42.1644 1261.89 45.7075 1259.89 41.1106C1257.89 37.8855 1255.89 41.9555 1253.88 41.5467C1251.88 49.6866 1249.88 38.6395 1247.88 41.1924C1245.88 41.3014 1243.87 40.4202 1241.86 40.9925C1238.46 46.0527 1235.15 43.0911 1231.83 43.6452C1228.5 43.2092 1225.33 46.089 1221.98 49.0143C1218.64 51.9124 1215.05 45.8528 1211.68 49.3414C1208.33 48.5328 1205.09 50.7495 1201.7 54.556C1199.15 52.5665 1196.49 49.941 1193.92 50.9676C1191.78 54.0927 1189.7 52.1122 1187.61 48.333C1185.52 46.6886 1183.42 45.7075 1181.26 45.117C1179.11 41.156 1176.89 48.66 1174.66 45.1079C1172.43 40.9016 1170.21 48.3966 1168.07 45.2714C1165.89 45.2805 1163.72 45.8165 1161.57 44.6355C1159.41 49.0143 1157.26 43.3454 1155.11 44.9353C1153.06 43.5544 1151.02 42.4551 1148.99 45.3078C1146.96 46.1981 1144.94 45.5076 1142.94 45.3713C1140.94 41.4104 1138.94 45.9164 1136.95 44.799C1134.96 44.3357 1132.97 46.9884 1130.99 43.9905C1129 40.8381 1127.04 44.5083 1125.08 42.0372C1123.12 39.1755 1121.16 38.5759 1119.19 39.9296C1116.24 43.836 1113.27 33.1251 1110.35 38.5123C1106.83 30.6631 1103 43.5453 1099.41 41.1197C1095.88 40.1749 1092.8 28.7099 1089.29 31.6988C1085.67 33.7519 1081.76 26.1934 1078.27 28.4828C1074.71 29.5639 1071.43 32.3892 1068.13 38.2216C1064.66 39.8296 1060.83 37.6039 1057.38 47.5244C1053.9 51.6762 1050.79 62.7959 1047.29 59.1893C1045.52 68.4466 1043.97 66.8023 1042.4 65.9392C1040.83 72.7256 1039.26 73.0435 1037.47 72.4258C1035.67 72.9527 1033.64 75.5691 1031.6 74.8787C1029.56 72.0987 1027.51 79.2575 1025.66 76.95C1021.97 79.2666 1017.92 74.0792 1014.1 81.2562C1011.41 81.8557 1008.99 85.744 1006.27 86.4526C1002.8 88.2151 999.302 81.4924 995.801 85.744C992.309 88.1424 988.608 96.1642 985.121 89.7777C981.686 92.3123 978.665 80.702 975.268 81.4015C971.976 77.6586 969.217 75.5782 965.996 72.3531C962.666 75.4782 958.965 70.0546 955.411 68.8009C952.909 66.6842 950.212 66.4571 947.705 68.3649C943.937 63.6317 940.136 70.627 936.354 67.2565C932.581 67.9379 928.723 70.5452 924.936 68.2468C921.925 71.7262 918.961 61.6512 915.959 66.3935C913.7 68.1468 911.468 62.1963 909.247 64.2858C907.02 61.5331 904.799 62.587 902.549 61.7693C900.313 56.0369 898.134 61.7966 895.96 58.2172C893.786 58.3716 891.612 59.6162 889.39 54.2381C885.903 55.0557 881.997 56.164 878.458 59.2347C874.852 54.3471 871.25 61.3514 867.635 60.0977C864.029 62.2327 860.347 63.0049 856.731 60.8245C853.125 68.1105 849.481 59.0802 845.87 60.0977C842.264 64.731 838.668 58.5261 835.057 59.1438C831.446 60.5429 827.907 58.5988 824.296 56.3548C820.685 53.7747 817.027 47.7788 813.416 50.5042C809.81 53.5476 806.233 56.0823 802.631 55.192C799.049 56.2095 795.795 57.9083 792.222 61.7057C789.339 60.4248 785.691 59.7525 782.798 57.6358C780.615 58.408 778.45 58.944 776.285 60.7973C774.116 66.766 771.947 63.5136 769.744 64.0133C767.57 68.274 765.591 68.8645 763.603 70.4816C761.614 78.9305 759.616 77.5405 757.399 76.8682C755.058 74.0247 752.642 78.2218 750.244 77.5405C747.846 75.669 745.473 79.0486 743.218 77.0681C740.891 73.6704 738.57 77.2952 736.258 76.0506C733.946 75.0149 731.643 74.6606 729.345 74.9059C725.972 67.3746 722.723 67.4019 719.407 72.7982C716.111 69.346 712.833 69.8275 709.565 71.3083C706.315 65.9938 702.633 67.2111 699.427 70.6452C696.258 69.2461 692.843 68.8645 689.727 65.8938C687.162 62.9322 685.488 60.8972 682.948 56.6364C680.826 56.482 678.704 57.3905 676.582 53.3205C674.461 47.3518 672.344 54.3017 670.222 50.1136C668.1 51.8669 665.893 42.9548 663.676 48.4511C661.459 45.8801 659.232 45.008 657.068 47.1792C654.932 45.9528 652.758 47.8606 650.565 46.616C648.372 42.3734 646.155 42.7913 643.938 46.7068C640.736 48.8781 637.639 41.256 634.428 43.0366C632.244 39.4663 630.051 43.1002 627.853 39.9296C625.656 36.5137 623.458 37.2859 621.26 37.3768C619.081 40.2748 616.883 33.8246 614.681 38.2216C612.483 41.0107 610.28 43.8905 608.092 39.2573C605.171 39.548 602.568 46.7431 599.7 48.3511C597.545 50.3316 595.347 46.9703 593.14 47.8606C590.932 49.1052 588.72 44.2176 586.536 47.0702C584.362 45.9255 582.198 47.6516 580.033 44.2085C577.869 46.0709 575.704 41.5557 573.535 41.047C571.351 42.5551 569.196 36.4592 567.051 40.6109C564.905 33.8791 562.769 43.2364 560.623 39.8751C557.027 44.2448 553.269 41.4921 549.715 44.9262C546.185 46.2526 542.337 42.1553 538.826 46.0709C535.339 46.9612 531.804 48.0241 528.303 50.0773C524.792 55.6553 521.642 60.2885 518.089 56.1004C515.71 52.9389 513.526 65.5032 511.072 59.5799C508.208 62.0055 505.862 61.4968 503.07 52.6937C499.326 46.2435 495.687 54.9921 491.962 47.5244C490.111 48.3148 488.089 42.9457 486.063 47.9242C484.036 54.5015 482 50.0227 480.116 48.6419C478.246 53.4114 476.462 48.1513 474.664 43.0911C472.861 45.2987 471.044 36.0322 469.103 38.4488C465.901 45.5985 462.838 49.5231 459.817 45.0534C456.824 42.8367 453.751 45.98 450.825 45.117C447.719 44.372 444.731 47.6516 441.668 49.9228C438.537 44.5265 435.317 43.5726 432.234 49.2687C428.756 47.5517 425.084 49.7139 421.611 46.8885C418.129 40.1204 415.231 39.012 411.873 37.4403C408.267 43.9814 404.418 43.4817 401.088 38.0218C397.206 45.3078 393.424 34.0154 389.528 42.01C387.615 41.0743 385.608 38.3125 383.6 42.5096C381.593 48.9326 379.576 49.1052 377.644 43.1274C373.81 38.1217 369.899 36.8589 365.998 44.8263C362.126 48.1513 358.563 51.1856 354.605 46.625C351.313 46.08 348.154 51.3128 344.943 47.1883C341.712 45.1351 338.772 45.0261 335.561 43.0729C332.322 43.3818 328.706 45.117 325.457 42.1372C322.288 41.5376 318.311 43.5544 315.138 39.975C311.808 36.0322 308.821 31.3354 304.867 30.5995C302.37 31.7624 299.82 30.6359 297.46 28.7371C293.578 27.7197 289.806 35.151 286.166 33.434C282.432 43.6543 278.831 38.3307 275.158 38.8848C271.528 46.7886 267.546 30.1271 263.783 40.5019C261.076 40.1839 258.484 43.2092 255.625 44.1812C251.752 38.794 247.951 48.5147 243.993 46.7977C242.024 44.8899 240.087 51.1856 238.151 49.6594C236.215 48.224 234.279 51.3491 232.309 52.4393C228.332 51.4309 224.312 51.2401 220.435 52.7936C216.486 47.2246 212.985 58.4897 209.236 59.9706C205.583 68.4012 201.677 65.0035 197.885 66.5933C196.044 68.3195 194.256 69.7821 192.453 71.1993C190.65 69.9184 188.837 75.3147 186.958 75.7417C185.084 74.2609 183.009 78.5671 180.93 77.059C178.852 81.2198 176.768 78.5489 174.874 78.0674C172.948 78.24 171.197 84.3995 169.446 84.027C167.696 81.0018 165.945 88.0243 164.023 89.3961C162.039 95.3375 159.97 98.5626 157.91 88.6239C155.85 85.1353 153.8 91.7945 151.849 86.9341C147.853 85.0445 143.9 85.9893 140.032 86.2437C136.222 81.5014 132.625 82.9641 128.99 78.1401C125.641 83.0822 122.568 65.7666 119.414 65.0217C117.088 61.733 113.101 57.9992 110.913 59.1166C108.739 54.2562 107.145 50.4406 105.109 47.5699C102.421 41.801 99.9092 35.1056 97.2404 38.4578C94.5715 35.4417 92.6448 24.3038 90.0426 29.791C87.8543 20.6608 85.704 25.7846 83.6012 29.1369C81.4985 31.3172 79.4386 22.2779 77.4215 29.9273C75.2427 34.2425 73.1971 29.2731 71.18 30.5268C69.1629 28.1739 67.1791 35.0511 65.1144 32.1984C63.0117 31.9986 60.7901 31.3717 58.5732 31.3172C56.3563 28.074 54.1489 30.3997 52.0747 30.8539C49.6771 27.329 47.4649 30.8812 45.034 35.5961C41.5469 36.5137 37.9266 37.1315 34.3824 39.5571C30.8002 46.9612 27.3844 50.8495 23.7546 45.2169C20.1486 40.6382 16.4427 45.9619 12.7891 46.2162C9.17831 37.5585 5.59607 44.5265 1.94248 41.3195C-1.47801 35.8959 -5.02218 35.2963 -8.49976 43.6634V14.8465C-8.29995 14.9101 -8.1049 15.0555 -7.9051 15.3008C-5.79286 14.4832 -3.65208 21.0151 -1.51131 18.0535C0.62947 15.4643 2.76549 24.0767 4.86821 23.1409C6.91384 33.6793 8.9452 29.3277 10.9813 26.2207C13.0174 22.2961 15.0631 31.1174 17.1277 29.4821C19.2019 28.8007 21.3474 35.8778 23.5072 29.6275C25.667 28.1557 27.8411 22.8502 29.9724 27.9377C32.0466 27.2563 34.154 32.471 36.2377 28.9279C38.3167 27.9195 40.3671 36.2139 42.3223 29.2186C44.3346 26.902 46.3184 37.4858 48.2927 26.6022C50.267 26.7839 52.227 23.795 54.1917 23.8314C56.1707 19.3526 58.0737 26.2661 59.9813 19.8432C61.889 16.6363 63.8109 18.535 65.8233 16.3092C67.7928 21.0424 69.8099 12.9842 71.8555 15.7459C73.9011 15.6188 75.9706 6.37955 78.0543 16.1911C79.9809 20.8152 82.0028 17.2631 84.0675 16.3365C86.1274 17.2904 88.2301 8.32369 90.3185 17.8173C93.5345 13.5474 95.4612 25.8119 98.7722 31.4898C101.75 41.2105 104.766 40.8471 107.749 42.0191C110.67 54.0655 114.633 48.8871 117.492 51.2401C120.551 50.3044 122.82 63.1048 125.732 64.9763C129.219 66.021 133.182 71.381 136.336 72.2441C138.277 69.773 140.532 72.0533 142.863 72.2441C145.194 68.4739 147.596 69.4369 149.818 69.3733C151.745 67.1657 153.481 63.3319 155.241 62.5325C157.001 61.7966 158.785 61.5059 160.817 55.2919C162.848 52.0668 164.922 50.6223 166.996 51.0947C169.071 47.4336 171.145 47.697 173.171 48.1149C177.082 46.8522 181.045 48.8417 184.941 45.2623C188.885 48.4965 192.767 45.9709 196.696 41.9464C198.67 40.2475 200.673 35.6052 202.671 43.7815C204.669 37.2405 206.667 51.8034 208.642 45.7983C210.616 43.8088 212.566 41.4104 214.522 42.3734C216.472 40.729 218.423 41.0652 220.397 38.9938C222.371 38.8485 224.364 43.0002 226.358 41.1469C228.351 52.5846 230.344 45.6893 232.323 43.2183C234.293 42.228 236.262 40.1476 238.232 41.9736C240.201 35.1328 242.171 41.474 244.15 40.5201C246.11 43.1456 248.099 40.4474 250.092 40.1022C252.085 35.2055 254.078 45.226 256.048 39.3481C258.17 34.6241 259.174 31.2718 262.675 33.0433C268.579 29.4276 266.105 29.0824 268.079 32.58C270.125 32.2166 272.194 31.0629 274.254 30.6631C276.314 21.2786 278.364 33.6338 280.377 28.7826C285.943 25.7664 285.943 25.7664 287.893 27.1382C289.844 27.7651 291.271 19.3163 293.364 22.5959C295.343 22.932 296.337 19.8159 298.469 19.3526C300.6 20.5154 302.779 20.0158 304.953 19.3708C308.426 23.7587 312.374 23.8314 316.014 21.3603C319.496 22.078 322.688 29.7183 326.204 29.3277C329.762 31.9895 333.349 32.4892 336.812 32.9252C340.514 31.0447 343.882 36.9225 347.331 32.5437C351.96 43.1456 355.266 34.7149 358.52 29.2459C360.342 22.8957 362.416 18.8802 364.471 26.4024C366.531 27.547 368.572 26.1207 370.337 23.0501C371.916 25.8482 373.296 24.5945 374.828 16.291C376.36 8.74159 378.039 16.8179 380.218 10.6312C384.071 10.1588 387.725 8.60532 390.703 6.10701C394.166 2.47311 397.449 14.4377 400.422 14.8193C403.305 10.5404 406.478 16.5908 409.594 23.25C412.439 28.0285 415.098 20.5245 418.68 29.1641C422.41 33.116 425.978 31.9986 430.207 34.079C432.144 33.5793 434.118 36.3684 436.125 36.0413C438.133 34.1062 440.174 33.7974 442.253 37.4676C444.222 34.2879 446.211 35.7142 448.218 36.2684C450.226 31.0719 452.248 30.545 454.284 34.7603C456.277 29.682 458.233 30.9175 460.188 31.9895C462.143 26.0753 464.103 37.4585 466.106 29.0824C468.123 25.7937 470.216 27.0383 472.3 30.2906C474.379 30.8176 476.453 27.5834 478.427 31.5353C480.482 30.3088 482.504 33.9155 484.502 30.2089C486.5 26.5386 488.47 37.9037 490.416 29.1005C492.523 33.8246 494.569 22.2325 496.562 28.6826C498.56 27.2563 500.501 27.756 502.409 28.7462C505.896 27.111 509.392 30.2725 512.898 26.1662C516.39 28.2011 519.873 25.8936 523.374 28.0921C526.871 24.1493 530.386 21.7419 533.883 23.4135C537.379 22.9047 540.895 33.2432 544.387 31.1991C547.888 33.5702 551.314 19.7432 554.801 24.4855C558.611 21.9327 562.422 21.0424 566.19 24.0585C570 21.0151 573.801 30.3088 577.569 28.61C581.38 29.0279 585.181 22.1961 588.953 24.7489C592.759 23.9495 596.617 19.1255 600.39 22.7685C604.186 20.8607 607.987 24.7308 611.755 24.5763C615.546 20.9697 619.233 29.6093 623.001 28.9098C626.783 25.5393 630.77 20.9606 634.537 26.6658C638.31 22.0144 642.116 32.153 645.879 28.8916C649.647 27.2291 653.048 32.4165 656.811 37.4131C660.569 37.5039 664.147 43.2001 667.905 42.6368C669.779 42.1735 671.796 42.6277 673.809 40.2657C675.826 41.8192 677.843 40.5837 679.722 37.94C683.466 39.4208 687.239 41.156 690.997 40.9016C694.736 41.1378 698.019 51.8034 701.777 49.9773C703.823 50.6314 705.944 47.0793 708.071 51.9669C710.197 51.2583 712.333 52.4211 714.407 52.7573C716.458 49.2505 718.503 51.5308 720.554 50.3407C722.604 49.6412 724.65 39.6207 726.71 47.3609C728.76 51.34 730.758 45.9437 732.756 44.263C734.754 38.7213 736.748 41.9191 738.789 41.2014C740.858 43.0184 742.951 33.6793 745.04 39.7751C747.123 34.5787 749.202 38.4578 751.248 39.012C755.139 38.3397 758.859 44.3175 762.537 44.7263C766.381 48.9417 770.12 43.509 773.835 44.5174C777.627 42.7822 781.48 37.1951 785.253 42.1644C788.992 40.5473 792.712 43.509 796.542 41.8101C800.229 42.5732 803.968 48.8781 807.836 41.8737C812.393 41.6648 816.589 43.0275 819.039 42.6277C822.769 42.0191 826.441 41.4104 830.152 44.7354C832.017 46.2435 833.891 41.792 835.766 40.9652C837.64 39.9114 839.514 33.5157 841.37 37.3949C845.09 41.4831 848.891 35.8959 852.602 37.5312C854.457 37.2859 856.236 38.7395 858.016 42.0554C859.795 46.0618 861.574 44.6718 863.425 46.6977C867.13 44.0722 871.017 41.9464 874.718 44.8989C878.42 47.3246 882.311 39.221 886.012 43.6634C889.713 49.6321 893.086 46.725 896.787 51.8124C900.489 51.7216 904.099 52.0214 907.805 56.0278C911.511 55.7189 915.26 59.48 918.975 57.7539C922.686 60.6973 926.463 60.2976 930.184 58.8168C933.894 58.7986 937.69 62.5961 941.42 58.199C945.069 51.34 948.775 56.6092 952.586 58.4171C954.436 63.6862 956.33 57.3541 958.228 56.2912C960.126 56.3457 962.034 51.9487 963.913 52.2667C967.661 51.3219 971.329 51.8124 975.049 54.5924C978.836 54.8468 982.528 57.4722 986.191 54.2017C989.978 55.519 993.598 47.7334 997.152 50.6587C1001.06 48.3512 1004.34 45.2714 1007.92 42.0827C1011.68 38.7395 1015.22 40.193 1018.83 34.2062C1022.49 33.325 1026.15 26.6931 1029.9 26.4296C1031.72 30.118 1033.66 21.4693 1035.62 23.9131C1037.59 27.4108 1039.6 22.4778 1041.57 21.9417C1043.4 24.3765 1045.35 18.5804 1047.35 21.2695C1049.34 19.8432 1051.4 21.969 1053.45 21.2967C1057.24 21.4693 1061.02 30.2089 1064.78 25.0669C1068.56 28.1285 1072.42 16.2638 1076.18 20.4609C1079.94 17.8809 1083.64 31.5353 1087.4 24.331C1091.16 18.9892 1095.02 22.6231 1098.78 24.2765C1102.53 32.689 1106.16 21.1605 1109.91 28.8553C1113.66 28.4919 1117.21 31.9532 1120.97 35.1237C1124.72 31.726 1128.67 31.5716 1132.45 32.8344C1136.2 33.325 1139.99 31.6534 1143.78 32.2802C1147.52 29.2822 1151.29 35.2328 1155.08 33.7429C1158.73 29.6456 1162.7 26.1843 1166.64 29.3549C1170.41 27.3926 1174.19 36.2048 1178.02 32.1076C1179.96 37.1042 1181.91 32.6073 1183.84 35.3781C1185.77 42.9185 1187.68 40.5746 1189.54 38.1035C1193.49 41.7102 1197.11 28.4737 1200.61 30.6268C1204.95 28.8916 1208.36 26.2207 1211.59 22.6231C1215.27 15.2645 1218.98 14.6921 1222.99 17.0996C1226.26 15.864 1229.82 12.1938 1234.45 13.72C1237.96 16.2002 1241.55 12.0121 1245.19 11.3943C1248.73 4.73521 1252.26 11.9667 1255.87 8.23284C1259.45 11.6124 1262.96 3.15446 1266.54 2.93643C1270.16 2.30959 1273.86 7.6605 1277.43 5.68002C1280.21 8.24193 1282.84 7.72409 1285.5 8.97779V37.8764C1284.98 37.7311 1284.46 37.3949 1283.94 36.8317C1281.93 38.4124 1279.93 45.9073 1277.92 38.9575Z" fill="white"/>
</g>
<defs>
<filter id="filter0_d_2378_3622" x="-11.4998" y="0.88501" width="1300" height="98.115" filterUnits="userSpaceOnUse" color-interpolation-filters="sRGB">
<feFlood flood-opacity="0" result="BackgroundImageFix"/>
<feColorMatrix in="SourceAlpha" type="matrix" values="0 0 0 0 0 0 0 0 0 0 0 0 0 0 0 0 0 0 127 0" result="hardAlpha"/>
<feOffset dy="1"/>
<feGaussianBlur stdDeviation="1.5"/>
<feComposite in2="hardAlpha" operator="out"/>
<feColorMatrix type="matrix" values="0 0 0 0 0 0 0 0 0 0 0 0 0 0 0 0 0 0 0.25 0"/>
<feBlend mode="normal" in2="BackgroundImageFix" result="effect1_dropShadow_2378_3622"/>
<feBlend mode="normal" in="SourceGraphic" in2="effect1_dropShadow_2378_3622" result="shape"/>
</filter>
</defs>
</svg>
