<svg width="815" height="142" viewBox="0 0 815 142" fill="none" xmlns="http://www.w3.org/2000/svg">
<path d="M735.428 0V1.22191L657.258 141.597H70.7903C31.7053 141.597 0 109.891 0 70.7903C0 31.6892 31.7053 0 70.7903 0H735.428Z" fill="#CC5541" fill-opacity="0.89"/>
<path d="M735.428 1.22192V141.597H657.258L735.428 1.22192Z" fill="#CC5541" fill-opacity="0.58"/>
<path d="M814.161 141.597H735.428V1.22199L735.476 1.1416L814.161 141.597Z" fill="#CC5541" fill-opacity="0.34"/>
<path d="M745.607 106.606C745.612 106.493 745.622 106.38 745.622 106.267C745.624 103.707 745.624 101.145 745.625 98.5848C745.625 98.433 745.622 98.2824 745.629 98.1306C745.66 97.3961 746.135 96.9224 746.869 96.9198C749.549 96.9133 752.229 96.9172 754.909 96.9107C755.533 96.9094 756.096 96.7109 756.584 96.3164C757.215 95.8064 757.565 95.1497 757.597 94.336C757.612 93.9155 757.608 93.4938 757.608 93.072C757.611 84.2123 757.608 75.3514 757.619 66.4917C757.62 65.3951 757.331 64.4711 756.379 63.8339C755.954 63.5484 755.483 63.4121 754.976 63.3927C754.577 63.3771 754.177 63.3862 753.777 63.3862C741.502 63.3862 729.228 63.3862 716.953 63.3862C715.586 63.3862 714.578 64.048 714.177 65.2458C714.073 65.5573 714.03 65.9025 714.029 66.2334C714.02 72.6521 714.022 79.0694 714.022 85.488C714.022 86.0694 713.758 86.5119 713.307 86.6884C712.796 86.8883 712.282 86.7832 711.932 86.3549C711.795 86.1888 711.733 85.9578 711.66 85.7476C711.627 85.6502 711.646 85.5334 711.646 85.4257C711.646 79.0188 711.637 72.6105 711.65 66.2036C711.655 64.0351 712.66 62.4362 714.608 61.4954C715.166 61.2254 715.825 61.158 716.443 61.0243C716.659 60.9776 716.894 61.0126 717.121 61.0126C729.677 61.0126 742.233 61.0126 754.79 61.0126C757.246 61.0126 759.205 62.4985 759.837 64.8695C759.947 65.2822 759.992 65.7221 759.992 66.1504C760 75.4967 760 84.843 759.992 94.1894C759.991 97.034 757.725 99.2791 754.877 99.2817C752.737 99.2843 750.598 99.2817 748.458 99.283C748.015 99.283 748.012 99.2869 748.012 99.7411C748.012 103.048 748.012 106.354 748.012 109.66C748.012 110.39 747.704 110.816 747.054 110.968C746.589 111.077 746.204 110.9 745.892 110.563C744.061 108.579 742.235 106.591 740.407 104.606C738.856 102.923 737.3 101.244 735.754 99.5542C735.57 99.3531 735.379 99.2609 735.105 99.2752C734.728 99.2947 734.349 99.2856 733.971 99.2752C733.32 99.2596 732.82 98.7652 732.798 98.1267C732.776 97.4986 733.261 96.9484 733.915 96.9263C734.66 96.9003 735.407 96.9211 736.151 96.9237C736.506 96.9237 736.756 97.1249 736.981 97.3688C738.262 98.7587 739.541 100.149 740.822 101.538C742.329 103.175 743.837 104.81 745.342 106.447C745.4 106.509 745.435 106.592 745.482 106.666L745.606 106.604L745.607 106.606Z" fill="#CC5541"/>
<path d="M710.072 108.349C710.174 107.507 710.286 106.584 710.4 105.664C710.551 104.453 710.708 103.244 710.857 102.034C710.914 101.573 710.945 101.11 711.021 100.652C711.061 100.406 710.974 100.246 710.817 100.077C709.093 98.2461 707.373 96.4111 705.654 94.5748C705.131 94.0154 705.098 93.2783 705.591 92.8124C705.74 92.671 705.946 92.5503 706.145 92.5075C707.231 92.2778 708.324 92.0766 709.415 91.8638C710.633 91.6263 711.849 91.3862 713.066 91.1474C713.097 91.1409 713.129 91.1241 713.161 91.1254C713.948 91.1617 714.305 90.675 714.641 90.0391C715.712 88.0186 716.842 86.0291 717.944 84.0241C718.192 83.5725 718.529 83.2909 719.069 83.2909C719.613 83.2909 719.941 83.5868 720.187 84.0332C721.395 86.2264 722.609 88.4144 723.816 90.6076C723.938 90.8295 724.078 90.9709 724.345 91.0202C725.596 91.2499 726.844 91.4991 728.094 91.7418C729.375 91.991 730.659 92.2207 731.935 92.4971C732.886 92.7034 733.218 93.7338 732.559 94.4554C731.168 95.9763 729.75 97.4739 728.342 98.9806C727.981 99.3673 727.607 99.7424 727.266 100.146C727.161 100.269 727.081 100.477 727.1 100.633C727.284 102.208 727.494 103.781 727.691 105.355C727.819 106.373 727.954 107.39 728.051 108.41C728.14 109.347 727.206 109.965 726.327 109.557C724.409 108.668 722.497 107.768 720.581 106.872C720.19 106.689 719.793 106.52 719.409 106.325C719.167 106.201 718.955 106.206 718.706 106.323C716.414 107.406 714.117 108.479 711.82 109.549C710.936 109.961 710.058 109.395 710.075 108.35L710.072 108.349ZM712.721 106.446C712.883 106.396 712.985 106.376 713.078 106.334C714.845 105.506 716.615 104.682 718.377 103.842C718.843 103.62 719.276 103.621 719.741 103.842C721.505 104.678 723.275 105.5 725.044 106.326C725.136 106.369 725.235 106.4 725.378 106.453C725.378 106.305 725.388 106.212 725.376 106.119C725.136 104.213 724.905 102.307 724.647 100.403C724.57 99.8358 724.688 99.379 725.089 98.9572C726.436 97.5427 727.763 96.1087 729.099 94.6838C729.25 94.5241 729.32 94.397 729.023 94.3412C728.323 94.2101 727.624 94.0764 726.926 93.9428C725.686 93.704 724.45 93.4483 723.206 93.2329C722.637 93.1343 722.298 92.8137 722.035 92.3271C721.12 90.6387 720.187 88.9607 719.259 87.2802C719.215 87.1997 719.151 87.1296 719.059 87.0024C718.942 87.1893 718.847 87.3282 718.767 87.4748C717.849 89.1359 716.932 90.7983 716.018 92.462C715.834 92.7968 715.598 93.0785 715.214 93.1589C714.306 93.3497 713.394 93.5171 712.483 93.6923C711.34 93.9116 710.195 94.1296 709.052 94.3502C708.856 94.3879 708.856 94.4917 708.971 94.6215C709.071 94.7344 709.177 94.8434 709.28 94.9537C710.564 96.3254 711.845 97.6984 713.132 99.0662C713.42 99.3712 713.533 99.7177 713.482 100.13C713.28 101.769 713.081 103.408 712.883 105.048C712.83 105.493 712.782 105.939 712.725 106.445L712.721 106.446Z" fill="#CC5541"/>
<path d="M736.932 76.1897C742.161 76.1897 747.39 76.1897 752.618 76.1897C753.361 76.1897 753.847 76.5544 753.963 77.1916C754.079 77.8404 753.628 78.4776 752.973 78.5464C752.62 78.584 752.261 78.5788 751.904 78.5788C741.695 78.5801 731.487 78.5788 721.278 78.5814C720.68 78.5814 720.159 78.4607 719.914 77.8274C719.621 77.0722 720.115 76.2689 720.922 76.1975C721.061 76.1858 721.203 76.191 721.343 76.191C726.539 76.191 731.735 76.191 736.931 76.191L736.932 76.1897Z" fill="#CC5541"/>
<path d="M740.717 85.6229C744.691 85.6229 748.666 85.6229 752.639 85.6229C753.397 85.6229 753.819 85.937 753.958 86.5963C754.095 87.249 753.593 87.9316 752.927 87.9771C752.637 87.9965 752.345 87.9861 752.053 87.9861C744.309 87.9861 736.567 87.9861 728.823 87.9887C728.468 87.9887 728.139 87.9459 727.861 87.6954C727.492 87.3619 727.35 86.8831 727.502 86.4314C727.662 85.9578 728.061 85.6463 728.567 85.6281C728.978 85.6126 729.388 85.6204 729.799 85.6204C733.438 85.6204 737.078 85.6204 740.717 85.6204V85.6229Z" fill="#CC5541"/>
<path d="M727.37 70.6094C725.262 70.6094 723.156 70.6133 721.048 70.6068C720.345 70.6042 719.818 70.0825 719.819 69.4155C719.819 68.8081 720.292 68.2981 720.9 68.2514C721.083 68.2371 721.268 68.2345 721.451 68.2345C725.513 68.2332 729.576 68.2319 733.638 68.2307C734.328 68.2307 734.739 68.4967 734.945 69.0755C735.095 69.4998 734.95 70.067 734.529 70.3421C734.284 70.5017 733.952 70.5964 733.657 70.599C731.561 70.6198 729.465 70.6107 727.37 70.6107V70.6081V70.6094Z" fill="#CC5541"/>
</svg>
