<svg width="991" height="142" viewBox="0 0 991 142" fill="none" xmlns="http://www.w3.org/2000/svg">
<path d="M559.2 0L480.339 141.613H70.7903C31.6892 141.613 0 109.907 0 70.8225C0 31.7053 31.7053 0 70.7903 0H559.2Z" fill="#4F808C"/>
<path d="M990.936 141.613H734.817V0H911.592L990.936 141.613Z" fill="#4F808C" fill-opacity="0.4"/>
<path d="M734.817 0V141.613H480.339L559.2 0H734.817Z" fill="#4F808C" fill-opacity="0.49"/>
<mask id="path-4-outside-1_2522_58" maskUnits="userSpaceOnUse" x="707.243" y="55.1697" width="48" height="48" fill="black">
<rect fill="white" x="707.243" y="55.1697" width="48" height="48"/>
<path d="M750.421 66.5331C750.265 66.9065 750.153 67.3074 749.943 67.6475C749.288 68.7102 748.602 69.7539 747.914 70.7954C747.759 71.0287 747.732 71.2224 747.851 71.4798C748.083 71.9818 748.295 72.4945 748.486 73.0127C748.58 73.2666 748.732 73.3797 748.99 73.4335C750.201 73.6831 751.409 73.9482 752.618 74.2077C753.79 74.4594 754.352 75.1502 754.353 76.3452C754.354 78.2776 754.355 80.21 754.353 82.1425C754.351 83.2879 753.775 83.9922 752.65 84.2347C751.441 84.4949 750.234 84.765 749.022 85.0082C748.715 85.0697 748.564 85.2168 748.462 85.5046C748.288 85.9917 748.083 86.4697 747.864 86.9385C747.74 87.2023 747.749 87.4066 747.914 87.6555C748.593 88.6751 749.251 89.7088 749.915 90.7383C750.572 91.7558 750.476 92.658 749.624 93.5086C748.273 94.857 746.925 96.2082 745.574 97.5559C744.724 98.403 743.834 98.497 742.836 97.8529C741.797 97.1819 740.754 96.5179 739.722 95.8363C739.487 95.6815 739.29 95.6652 739.036 95.7819C738.533 96.0131 738.02 96.2238 737.503 96.4182C737.266 96.5073 737.146 96.6424 737.095 96.8898C736.842 98.1124 736.575 99.3321 736.315 100.552C736.067 101.713 735.367 102.279 734.17 102.279C732.238 102.28 730.305 102.28 728.373 102.279C727.247 102.279 726.537 101.709 726.294 100.602C726.027 99.383 725.76 98.1633 725.513 96.94C725.454 96.648 725.318 96.4981 725.042 96.3977C724.534 96.2125 724.034 96.0011 723.543 95.7727C723.298 95.6581 723.109 95.6807 722.888 95.8257C721.835 96.5179 720.773 97.1967 719.716 97.8826C718.806 98.473 717.879 98.3994 717.111 97.64C715.687 96.2316 714.271 94.8146 712.863 93.3913C712.138 92.6587 712.057 91.7148 712.618 90.8423C713.3 89.7824 713.98 88.721 714.675 87.6696C714.835 87.4278 714.867 87.2249 714.739 86.9534C714.504 86.4535 714.296 85.9387 714.104 85.4204C714.014 85.1779 713.869 85.0719 713.626 85.0217C712.403 84.7678 711.184 84.5005 709.964 84.2382C708.817 83.9914 708.245 83.29 708.244 82.1241C708.243 80.1916 708.242 78.2592 708.244 76.3268C708.245 75.1665 708.798 74.47 709.929 74.2204C711.148 73.951 712.368 73.688 713.591 73.437C713.863 73.3811 714.019 73.2652 714.117 72.9958C714.305 72.4761 714.524 71.9663 714.752 71.4628C714.856 71.2338 714.851 71.0535 714.711 70.8392C714.038 69.8154 713.38 68.7823 712.715 67.7536C712.016 66.6731 712.107 65.8027 713.011 64.9026C714.346 63.5719 715.679 62.2391 717.011 60.9049C717.869 60.0451 718.765 59.9475 719.778 60.6044C720.816 61.2775 721.859 61.9421 722.892 62.6223C723.114 62.7687 723.303 62.7864 723.546 62.6747C724.048 62.4434 724.559 62.2292 725.078 62.0383C725.33 61.9457 725.453 61.8064 725.506 61.544C725.757 60.3208 726.024 59.1018 726.288 57.8814C726.536 56.7331 727.234 56.171 728.409 56.1703C730.341 56.1703 732.274 56.1689 734.206 56.1703C735.357 56.171 736.06 56.7353 736.308 57.8637C736.575 59.0834 736.839 60.3038 737.09 61.5271C737.146 61.8007 737.274 61.9499 737.539 62.0468C738.059 62.2356 738.569 62.4533 739.072 62.6831C739.305 62.7892 739.483 62.7701 739.694 62.6315C740.747 61.9393 741.81 61.2619 742.867 60.5754C743.791 59.9758 744.725 60.0521 745.5 60.8214C746.914 62.2243 748.317 63.637 749.725 65.0441C750.128 65.4464 750.347 65.9244 750.422 66.5339L750.421 66.5331ZM723.174 93.952C723.543 94.0644 723.851 94.1386 724.144 94.2525C724.627 94.4391 725.089 94.6859 725.579 94.8464C726.467 95.1363 726.955 95.7203 727.128 96.6339C727.351 97.814 727.635 98.9821 727.87 100.16C727.94 100.511 728.087 100.651 728.458 100.649C730.356 100.633 732.253 100.634 734.149 100.648C734.5 100.65 734.65 100.523 734.72 100.182C734.976 98.9241 735.26 97.6726 735.527 96.4168C735.685 95.6723 736.126 95.1879 736.831 94.9171C737.369 94.7099 737.905 94.4943 738.428 94.2532C739.168 93.9124 739.856 93.9633 740.537 94.4123C741.599 95.113 742.676 95.7903 743.738 96.4896C743.989 96.6544 744.17 96.648 744.386 96.4302C745.746 95.0578 747.112 93.6911 748.484 92.3314C748.71 92.1079 748.731 91.922 748.555 91.6561C747.854 90.5948 747.177 89.5179 746.478 88.4552C746.03 87.7736 745.984 87.0821 746.332 86.3453C746.548 85.8878 746.763 85.4254 746.919 84.9453C747.206 84.0565 747.795 83.57 748.706 83.3961C749.886 83.1705 751.054 82.8877 752.232 82.653C752.583 82.583 752.724 82.4394 752.721 82.0661C752.705 80.169 752.706 78.2719 752.721 76.3756C752.724 76.0242 752.601 75.8707 752.259 75.8014C751.001 75.5469 749.748 75.2648 748.493 74.9982C747.733 74.8377 747.25 74.3838 746.981 73.6618C746.779 73.1216 746.557 72.5878 746.318 72.0639C745.983 71.3349 746.043 70.6582 746.485 69.9893C747.185 68.9273 747.862 67.8504 748.56 66.7863C748.722 66.5388 748.725 66.3557 748.504 66.1372C747.132 64.7775 745.765 63.4114 744.406 62.039C744.184 61.8156 744.001 61.7859 743.732 61.964C742.661 62.6725 741.575 63.3584 740.5 64.0598C739.854 64.4805 739.193 64.5357 738.486 64.2203C737.938 63.9757 737.383 63.7459 736.823 63.5288C736.133 63.2608 735.69 62.7899 735.533 62.0588C735.261 60.7924 734.98 59.5282 734.717 58.259C734.652 57.9415 734.518 57.7994 734.175 57.8015C732.267 57.8135 730.358 57.8135 728.449 57.8015C728.1 57.7994 727.947 57.9253 727.877 58.2675C727.622 59.5254 727.341 60.7783 727.07 62.0326C726.911 62.7729 726.477 63.2644 725.766 63.5316C725.226 63.7346 724.689 63.9488 724.167 64.1934C723.427 64.5406 722.739 64.4848 722.059 64.0372C721.027 63.3563 719.984 62.6916 718.945 62.0213C718.516 61.7442 718.491 61.7463 718.139 62.0984C716.814 63.4227 715.497 64.7549 714.161 66.0672C713.889 66.3352 713.866 66.5416 714.076 66.8563C714.776 67.9042 715.451 68.969 716.138 70.0254C716.565 70.6822 716.609 71.3561 716.277 72.0716C716.035 72.5942 715.815 73.1294 715.614 73.6696C715.344 74.393 714.852 74.8377 714.095 74.9989C712.839 75.2662 711.588 75.5511 710.33 75.8071C710.002 75.8736 709.876 76.0164 709.877 76.3508C709.887 78.2712 709.887 80.1916 709.877 82.1121C709.876 82.4324 710 82.5731 710.31 82.6367C711.579 82.8983 712.843 83.1826 714.109 83.452C714.854 83.6103 715.336 84.0537 715.607 84.7579C715.818 85.3073 716.04 85.8532 716.283 86.3891C716.609 87.1054 716.561 87.7764 716.129 88.434C715.438 89.4882 714.769 90.5559 714.07 91.6059C713.871 91.9057 713.881 92.1072 714.145 92.3667C715.496 93.6974 716.834 95.0416 718.166 96.3914C718.411 96.6395 718.61 96.6579 718.901 96.4642C719.96 95.7592 721.024 95.0621 722.107 94.3946C722.437 94.191 722.832 94.0905 723.174 93.952Z"/>
</mask>
<path d="M750.421 66.5331C750.265 66.9065 750.153 67.3074 749.943 67.6475C749.288 68.7102 748.602 69.7539 747.914 70.7954C747.759 71.0287 747.732 71.2224 747.851 71.4798C748.083 71.9818 748.295 72.4945 748.486 73.0127C748.58 73.2666 748.732 73.3797 748.99 73.4335C750.201 73.6831 751.409 73.9482 752.618 74.2077C753.79 74.4594 754.352 75.1502 754.353 76.3452C754.354 78.2776 754.355 80.21 754.353 82.1425C754.351 83.2879 753.775 83.9922 752.65 84.2347C751.441 84.4949 750.234 84.765 749.022 85.0082C748.715 85.0697 748.564 85.2168 748.462 85.5046C748.288 85.9917 748.083 86.4697 747.864 86.9385C747.74 87.2023 747.749 87.4066 747.914 87.6555C748.593 88.6751 749.251 89.7088 749.915 90.7383C750.572 91.7558 750.476 92.658 749.624 93.5086C748.273 94.857 746.925 96.2082 745.574 97.5559C744.724 98.403 743.834 98.497 742.836 97.8529C741.797 97.1819 740.754 96.5179 739.722 95.8363C739.487 95.6815 739.29 95.6652 739.036 95.7819C738.533 96.0131 738.02 96.2238 737.503 96.4182C737.266 96.5073 737.146 96.6424 737.095 96.8898C736.842 98.1124 736.575 99.3321 736.315 100.552C736.067 101.713 735.367 102.279 734.17 102.279C732.238 102.28 730.305 102.28 728.373 102.279C727.247 102.279 726.537 101.709 726.294 100.602C726.027 99.383 725.76 98.1633 725.513 96.94C725.454 96.648 725.318 96.4981 725.042 96.3977C724.534 96.2125 724.034 96.0011 723.543 95.7727C723.298 95.6581 723.109 95.6807 722.888 95.8257C721.835 96.5179 720.773 97.1967 719.716 97.8826C718.806 98.473 717.879 98.3994 717.111 97.64C715.687 96.2316 714.271 94.8146 712.863 93.3913C712.138 92.6587 712.057 91.7148 712.618 90.8423C713.3 89.7824 713.98 88.721 714.675 87.6696C714.835 87.4278 714.867 87.2249 714.739 86.9534C714.504 86.4535 714.296 85.9387 714.104 85.4204C714.014 85.1779 713.869 85.0719 713.626 85.0217C712.403 84.7678 711.184 84.5005 709.964 84.2382C708.817 83.9914 708.245 83.29 708.244 82.1241C708.243 80.1916 708.242 78.2592 708.244 76.3268C708.245 75.1665 708.798 74.47 709.929 74.2204C711.148 73.951 712.368 73.688 713.591 73.437C713.863 73.3811 714.019 73.2652 714.117 72.9958C714.305 72.4761 714.524 71.9663 714.752 71.4628C714.856 71.2338 714.851 71.0535 714.711 70.8392C714.038 69.8154 713.38 68.7823 712.715 67.7536C712.016 66.6731 712.107 65.8027 713.011 64.9026C714.346 63.5719 715.679 62.2391 717.011 60.9049C717.869 60.0451 718.765 59.9475 719.778 60.6044C720.816 61.2775 721.859 61.9421 722.892 62.6223C723.114 62.7687 723.303 62.7864 723.546 62.6747C724.048 62.4434 724.559 62.2292 725.078 62.0383C725.33 61.9457 725.453 61.8064 725.506 61.544C725.757 60.3208 726.024 59.1018 726.288 57.8814C726.536 56.7331 727.234 56.171 728.409 56.1703C730.341 56.1703 732.274 56.1689 734.206 56.1703C735.357 56.171 736.06 56.7353 736.308 57.8637C736.575 59.0834 736.839 60.3038 737.09 61.5271C737.146 61.8007 737.274 61.9499 737.539 62.0468C738.059 62.2356 738.569 62.4533 739.072 62.6831C739.305 62.7892 739.483 62.7701 739.694 62.6315C740.747 61.9393 741.81 61.2619 742.867 60.5754C743.791 59.9758 744.725 60.0521 745.5 60.8214C746.914 62.2243 748.317 63.637 749.725 65.0441C750.128 65.4464 750.347 65.9244 750.422 66.5339L750.421 66.5331ZM723.174 93.952C723.543 94.0644 723.851 94.1386 724.144 94.2525C724.627 94.4391 725.089 94.6859 725.579 94.8464C726.467 95.1363 726.955 95.7203 727.128 96.6339C727.351 97.814 727.635 98.9821 727.87 100.16C727.94 100.511 728.087 100.651 728.458 100.649C730.356 100.633 732.253 100.634 734.149 100.648C734.5 100.65 734.65 100.523 734.72 100.182C734.976 98.9241 735.26 97.6726 735.527 96.4168C735.685 95.6723 736.126 95.1879 736.831 94.9171C737.369 94.7099 737.905 94.4943 738.428 94.2532C739.168 93.9124 739.856 93.9633 740.537 94.4123C741.599 95.113 742.676 95.7903 743.738 96.4896C743.989 96.6544 744.17 96.648 744.386 96.4302C745.746 95.0578 747.112 93.6911 748.484 92.3314C748.71 92.1079 748.731 91.922 748.555 91.6561C747.854 90.5948 747.177 89.5179 746.478 88.4552C746.03 87.7736 745.984 87.0821 746.332 86.3453C746.548 85.8878 746.763 85.4254 746.919 84.9453C747.206 84.0565 747.795 83.57 748.706 83.3961C749.886 83.1705 751.054 82.8877 752.232 82.653C752.583 82.583 752.724 82.4394 752.721 82.0661C752.705 80.169 752.706 78.2719 752.721 76.3756C752.724 76.0242 752.601 75.8707 752.259 75.8014C751.001 75.5469 749.748 75.2648 748.493 74.9982C747.733 74.8377 747.25 74.3838 746.981 73.6618C746.779 73.1216 746.557 72.5878 746.318 72.0639C745.983 71.3349 746.043 70.6582 746.485 69.9893C747.185 68.9273 747.862 67.8504 748.56 66.7863C748.722 66.5388 748.725 66.3557 748.504 66.1372C747.132 64.7775 745.765 63.4114 744.406 62.039C744.184 61.8156 744.001 61.7859 743.732 61.964C742.661 62.6725 741.575 63.3584 740.5 64.0598C739.854 64.4805 739.193 64.5357 738.486 64.2203C737.938 63.9757 737.383 63.7459 736.823 63.5288C736.133 63.2608 735.69 62.7899 735.533 62.0588C735.261 60.7924 734.98 59.5282 734.717 58.259C734.652 57.9415 734.518 57.7994 734.175 57.8015C732.267 57.8135 730.358 57.8135 728.449 57.8015C728.1 57.7994 727.947 57.9253 727.877 58.2675C727.622 59.5254 727.341 60.7783 727.07 62.0326C726.911 62.7729 726.477 63.2644 725.766 63.5316C725.226 63.7346 724.689 63.9488 724.167 64.1934C723.427 64.5406 722.739 64.4848 722.059 64.0372C721.027 63.3563 719.984 62.6916 718.945 62.0213C718.516 61.7442 718.491 61.7463 718.139 62.0984C716.814 63.4227 715.497 64.7549 714.161 66.0672C713.889 66.3352 713.866 66.5416 714.076 66.8563C714.776 67.9042 715.451 68.969 716.138 70.0254C716.565 70.6822 716.609 71.3561 716.277 72.0716C716.035 72.5942 715.815 73.1294 715.614 73.6696C715.344 74.393 714.852 74.8377 714.095 74.9989C712.839 75.2662 711.588 75.5511 710.33 75.8071C710.002 75.8736 709.876 76.0164 709.877 76.3508C709.887 78.2712 709.887 80.1916 709.877 82.1121C709.876 82.4324 710 82.5731 710.31 82.6367C711.579 82.8983 712.843 83.1826 714.109 83.452C714.854 83.6103 715.336 84.0537 715.607 84.7579C715.818 85.3073 716.04 85.8532 716.283 86.3891C716.609 87.1054 716.561 87.7764 716.129 88.434C715.438 89.4882 714.769 90.5559 714.07 91.6059C713.871 91.9057 713.881 92.1072 714.145 92.3667C715.496 93.6974 716.834 95.0416 718.166 96.3914C718.411 96.6395 718.61 96.6579 718.901 96.4642C719.96 95.7592 721.024 95.0621 722.107 94.3946C722.437 94.191 722.832 94.0905 723.174 93.952Z" fill="#4F808C"/>
<path d="M750.421 66.5331C750.265 66.9065 750.153 67.3074 749.943 67.6475C749.288 68.7102 748.602 69.7539 747.914 70.7954C747.759 71.0287 747.732 71.2224 747.851 71.4798C748.083 71.9818 748.295 72.4945 748.486 73.0127C748.58 73.2666 748.732 73.3797 748.99 73.4335C750.201 73.6831 751.409 73.9482 752.618 74.2077C753.79 74.4594 754.352 75.1502 754.353 76.3452C754.354 78.2776 754.355 80.21 754.353 82.1425C754.351 83.2879 753.775 83.9922 752.65 84.2347C751.441 84.4949 750.234 84.765 749.022 85.0082C748.715 85.0697 748.564 85.2168 748.462 85.5046C748.288 85.9917 748.083 86.4697 747.864 86.9385C747.74 87.2023 747.749 87.4066 747.914 87.6555C748.593 88.6751 749.251 89.7088 749.915 90.7383C750.572 91.7558 750.476 92.658 749.624 93.5086C748.273 94.857 746.925 96.2082 745.574 97.5559C744.724 98.403 743.834 98.497 742.836 97.8529C741.797 97.1819 740.754 96.5179 739.722 95.8363C739.487 95.6815 739.29 95.6652 739.036 95.7819C738.533 96.0131 738.02 96.2238 737.503 96.4182C737.266 96.5073 737.146 96.6424 737.095 96.8898C736.842 98.1124 736.575 99.3321 736.315 100.552C736.067 101.713 735.367 102.279 734.17 102.279C732.238 102.28 730.305 102.28 728.373 102.279C727.247 102.279 726.537 101.709 726.294 100.602C726.027 99.383 725.76 98.1633 725.513 96.94C725.454 96.648 725.318 96.4981 725.042 96.3977C724.534 96.2125 724.034 96.0011 723.543 95.7727C723.298 95.6581 723.109 95.6807 722.888 95.8257C721.835 96.5179 720.773 97.1967 719.716 97.8826C718.806 98.473 717.879 98.3994 717.111 97.64C715.687 96.2316 714.271 94.8146 712.863 93.3913C712.138 92.6587 712.057 91.7148 712.618 90.8423C713.3 89.7824 713.98 88.721 714.675 87.6696C714.835 87.4278 714.867 87.2249 714.739 86.9534C714.504 86.4535 714.296 85.9387 714.104 85.4204C714.014 85.1779 713.869 85.0719 713.626 85.0217C712.403 84.7678 711.184 84.5005 709.964 84.2382C708.817 83.9914 708.245 83.29 708.244 82.1241C708.243 80.1916 708.242 78.2592 708.244 76.3268C708.245 75.1665 708.798 74.47 709.929 74.2204C711.148 73.951 712.368 73.688 713.591 73.437C713.863 73.3811 714.019 73.2652 714.117 72.9958C714.305 72.4761 714.524 71.9663 714.752 71.4628C714.856 71.2338 714.851 71.0535 714.711 70.8392C714.038 69.8154 713.38 68.7823 712.715 67.7536C712.016 66.6731 712.107 65.8027 713.011 64.9026C714.346 63.5719 715.679 62.2391 717.011 60.9049C717.869 60.0451 718.765 59.9475 719.778 60.6044C720.816 61.2775 721.859 61.9421 722.892 62.6223C723.114 62.7687 723.303 62.7864 723.546 62.6747C724.048 62.4434 724.559 62.2292 725.078 62.0383C725.33 61.9457 725.453 61.8064 725.506 61.544C725.757 60.3208 726.024 59.1018 726.288 57.8814C726.536 56.7331 727.234 56.171 728.409 56.1703C730.341 56.1703 732.274 56.1689 734.206 56.1703C735.357 56.171 736.06 56.7353 736.308 57.8637C736.575 59.0834 736.839 60.3038 737.09 61.5271C737.146 61.8007 737.274 61.9499 737.539 62.0468C738.059 62.2356 738.569 62.4533 739.072 62.6831C739.305 62.7892 739.483 62.7701 739.694 62.6315C740.747 61.9393 741.81 61.2619 742.867 60.5754C743.791 59.9758 744.725 60.0521 745.5 60.8214C746.914 62.2243 748.317 63.637 749.725 65.0441C750.128 65.4464 750.347 65.9244 750.422 66.5339L750.421 66.5331ZM723.174 93.952C723.543 94.0644 723.851 94.1386 724.144 94.2525C724.627 94.4391 725.089 94.6859 725.579 94.8464C726.467 95.1363 726.955 95.7203 727.128 96.6339C727.351 97.814 727.635 98.9821 727.87 100.16C727.94 100.511 728.087 100.651 728.458 100.649C730.356 100.633 732.253 100.634 734.149 100.648C734.5 100.65 734.65 100.523 734.72 100.182C734.976 98.9241 735.26 97.6726 735.527 96.4168C735.685 95.6723 736.126 95.1879 736.831 94.9171C737.369 94.7099 737.905 94.4943 738.428 94.2532C739.168 93.9124 739.856 93.9633 740.537 94.4123C741.599 95.113 742.676 95.7903 743.738 96.4896C743.989 96.6544 744.17 96.648 744.386 96.4302C745.746 95.0578 747.112 93.6911 748.484 92.3314C748.71 92.1079 748.731 91.922 748.555 91.6561C747.854 90.5948 747.177 89.5179 746.478 88.4552C746.03 87.7736 745.984 87.0821 746.332 86.3453C746.548 85.8878 746.763 85.4254 746.919 84.9453C747.206 84.0565 747.795 83.57 748.706 83.3961C749.886 83.1705 751.054 82.8877 752.232 82.653C752.583 82.583 752.724 82.4394 752.721 82.0661C752.705 80.169 752.706 78.2719 752.721 76.3756C752.724 76.0242 752.601 75.8707 752.259 75.8014C751.001 75.5469 749.748 75.2648 748.493 74.9982C747.733 74.8377 747.25 74.3838 746.981 73.6618C746.779 73.1216 746.557 72.5878 746.318 72.0639C745.983 71.3349 746.043 70.6582 746.485 69.9893C747.185 68.9273 747.862 67.8504 748.56 66.7863C748.722 66.5388 748.725 66.3557 748.504 66.1372C747.132 64.7775 745.765 63.4114 744.406 62.039C744.184 61.8156 744.001 61.7859 743.732 61.964C742.661 62.6725 741.575 63.3584 740.5 64.0598C739.854 64.4805 739.193 64.5357 738.486 64.2203C737.938 63.9757 737.383 63.7459 736.823 63.5288C736.133 63.2608 735.69 62.7899 735.533 62.0588C735.261 60.7924 734.98 59.5282 734.717 58.259C734.652 57.9415 734.518 57.7994 734.175 57.8015C732.267 57.8135 730.358 57.8135 728.449 57.8015C728.1 57.7994 727.947 57.9253 727.877 58.2675C727.622 59.5254 727.341 60.7783 727.07 62.0326C726.911 62.7729 726.477 63.2644 725.766 63.5316C725.226 63.7346 724.689 63.9488 724.167 64.1934C723.427 64.5406 722.739 64.4848 722.059 64.0372C721.027 63.3563 719.984 62.6916 718.945 62.0213C718.516 61.7442 718.491 61.7463 718.139 62.0984C716.814 63.4227 715.497 64.7549 714.161 66.0672C713.889 66.3352 713.866 66.5416 714.076 66.8563C714.776 67.9042 715.451 68.969 716.138 70.0254C716.565 70.6822 716.609 71.3561 716.277 72.0716C716.035 72.5942 715.815 73.1294 715.614 73.6696C715.344 74.393 714.852 74.8377 714.095 74.9989C712.839 75.2662 711.588 75.5511 710.33 75.8071C710.002 75.8736 709.876 76.0164 709.877 76.3508C709.887 78.2712 709.887 80.1916 709.877 82.1121C709.876 82.4324 710 82.5731 710.31 82.6367C711.579 82.8983 712.843 83.1826 714.109 83.452C714.854 83.6103 715.336 84.0537 715.607 84.7579C715.818 85.3073 716.04 85.8532 716.283 86.3891C716.609 87.1054 716.561 87.7764 716.129 88.434C715.438 89.4882 714.769 90.5559 714.07 91.6059C713.871 91.9057 713.881 92.1072 714.145 92.3667C715.496 93.6974 716.834 95.0416 718.166 96.3914C718.411 96.6395 718.61 96.6579 718.901 96.4642C719.96 95.7592 721.024 95.0621 722.107 94.3946C722.437 94.191 722.832 94.0905 723.174 93.952Z" stroke="#4F808C" mask="url(#path-4-outside-1_2522_58)"/>
<path d="M756.254 60.7544C756.532 60.5633 756.842 60.507 757.149 60.6147C757.443 60.7177 757.698 60.9582 757.915 61.2837L758.313 61.895C762.352 68.2284 763.982 75.1744 763.203 82.6821C762.531 89.1677 760.06 94.9286 755.837 99.9028C751.014 105.583 744.948 109.248 737.626 110.688C729.816 112.223 722.402 111.028 715.451 107.143C715.479 107.252 715.504 107.356 715.532 107.46V107.461C715.828 108.571 716.131 109.695 716.427 110.806C716.512 111.128 716.503 111.439 716.375 111.7C716.245 111.965 716.008 112.147 715.706 112.233C715.404 112.319 715.106 112.277 714.86 112.111C714.619 111.948 714.449 111.681 714.362 111.358C713.816 109.322 713.269 107.285 712.726 105.249C712.627 104.877 712.612 104.535 712.774 104.251C712.937 103.968 713.24 103.809 713.611 103.708L719.72 102.069C719.915 102.016 720.123 101.988 720.331 102.024C720.545 102.061 720.743 102.164 720.912 102.348H720.911C721.183 102.643 721.255 103.002 721.146 103.375C721.01 103.837 720.653 104.037 720.282 104.135C718.969 104.483 717.657 104.836 716.344 105.188C720.099 107.342 724.125 108.651 728.439 109.04C735.549 109.679 742.107 108.067 748.007 104.058C754.663 99.5335 758.931 93.3095 760.585 85.4253C762.314 77.1815 760.776 69.5074 756.129 62.4634C755.919 62.1457 755.795 61.8272 755.807 61.5239C755.819 61.205 755.98 60.9425 756.254 60.7544Z" fill="#4F808C" stroke="#4F808C" stroke-width="0.5"/>
<path d="M747.214 46.1641C747.432 46.1716 747.636 46.2544 747.814 46.4043C747.993 46.5552 748.147 46.7852 748.211 47.0186C748.788 49.1202 749.352 51.2259 749.91 53.332C749.993 53.6478 749.971 53.9521 749.819 54.2061C749.667 54.4586 749.409 54.6246 749.094 54.71H749.093C747.024 55.2686 744.953 55.8232 742.882 56.374C742.556 56.4609 742.241 56.4518 741.979 56.3271C741.712 56.2001 741.527 55.9669 741.445 55.667C741.362 55.3654 741.399 55.0677 741.562 54.8203C741.722 54.5767 741.987 54.4075 742.311 54.3193L746.256 53.2588C745.703 52.9543 745.162 52.652 744.6 52.377C738.793 49.5354 732.696 48.6373 726.32 49.6895C716.412 51.3238 707.819 58.0529 703.845 67.2383C701.574 72.4882 700.849 77.9419 701.659 83.5938C702.297 88.0443 703.89 92.141 706.397 95.8799C706.463 95.9785 706.547 96.0965 706.618 96.2148L706.672 96.3135C706.919 96.8166 706.798 97.3937 706.323 97.7061C705.85 98.0164 705.27 97.9161 704.905 97.4785L704.834 97.3867C703.803 95.9026 702.89 94.342 702.154 92.6855C698.239 83.8795 698.088 74.9786 701.988 66.1699C705.592 58.0306 711.674 52.2741 720.037 49.1846C729.358 45.7426 738.445 46.5401 747.151 51.3086C747.144 51.2819 747.138 51.255 747.131 51.2285L746.153 47.5752C746.087 47.3271 746.088 47.0846 746.167 46.8662C746.245 46.6461 746.397 46.4679 746.601 46.3418C746.791 46.2241 746.999 46.1567 747.214 46.1641Z" fill="#4F808C" stroke="#4F808C" stroke-width="0.5"/>
<path d="M731.284 65.5336C738.851 65.5381 744.994 71.6741 744.989 79.2269C744.984 86.7885 738.853 92.9084 731.279 92.9144C723.872 92.9201 717.795 86.949 717.612 79.5736L717.608 79.2211C717.613 71.6786 723.755 65.5302 731.283 65.5336H731.284ZM726.2 77.9896H727.052C727.669 77.9896 728.179 78.1432 728.531 78.4965C728.883 78.8496 729.036 79.3594 729.036 79.9789C729.036 81.7107 729.037 83.4429 729.037 85.1752L729.028 90.3715C729.028 90.4388 729.033 90.481 729.04 90.5072C729.043 90.5194 729.045 90.5269 729.047 90.5306C729.049 90.5341 729.051 90.5359 729.051 90.5365C729.055 90.5405 729.083 90.5659 729.22 90.5902L729.742 90.6703C730.957 90.8298 732.17 90.7976 733.388 90.5883L733.47 90.5707C733.533 90.553 733.544 90.5369 733.544 90.5365C733.546 90.5344 733.552 90.5257 733.558 90.5004L733.57 90.3607C733.558 86.8843 733.561 83.4079 733.562 79.933C733.562 79.3345 733.72 78.8374 734.069 78.4916C734.417 78.1462 734.918 77.9908 735.519 77.9896H736.397C734.669 75.9577 732.992 73.9866 731.298 71.9945C729.601 73.9897 727.928 75.9578 726.2 77.9896ZM730.6 67.6908C724.417 68.0916 719.666 73.2082 719.754 79.4213C719.797 82.4184 720.892 85.014 722.957 87.1967C724.066 88.3695 725.365 89.2607 726.875 89.8851V80.1215C726.378 80.1205 725.899 80.117 725.418 80.1224C725.053 80.1264 724.72 80.0499 724.435 79.8773C724.149 79.7042 723.928 79.4442 723.774 79.1097C723.619 78.775 723.566 78.4384 723.619 78.1088C723.672 77.7805 723.828 77.4768 724.063 77.2006C726.009 74.9148 727.951 72.6218 729.902 70.3373C730.29 69.8824 730.784 69.6366 731.296 69.6351C731.809 69.6337 732.302 69.8771 732.69 70.3304C734.633 72.6049 736.568 74.8888 738.508 77.1644L738.672 77.3773C738.821 77.5953 738.924 77.8289 738.97 78.0775C739.032 78.4117 738.985 78.7556 738.826 79.1019C738.664 79.4544 738.43 79.7195 738.13 79.892C737.833 80.0633 737.486 80.1329 737.112 80.1244C736.655 80.1142 736.2 80.1196 735.717 80.1215V89.8607C739.57 88.4017 743.475 83.8549 742.764 77.85C742.046 71.7785 736.654 67.2979 730.6 67.6908Z" fill="#4F808C" stroke="#4F808C" stroke-width="0.5"/>
</svg>
