<svg width="902" height="142" viewBox="0 0 902 142" fill="none" xmlns="http://www.w3.org/2000/svg">
<path d="M648.126 0L569.281 141.597H70.7903C31.6892 141.597 0 109.891 0 70.8064C0 31.7053 31.7053 0 70.7903 0H648.126Z" fill="#E1BE80"/>
<path d="M901.463 141.597H734.817V0H822.136L901.463 141.597Z" fill="#E1BE80" fill-opacity="0.26"/>
<path d="M734.818 0V141.597H569.281L648.127 0H734.818Z" fill="#E1BE80" fill-opacity="0.49"/>
<path d="M713.78 94.9404C713.133 94.4281 712.474 93.9887 711.913 93.4482C710.278 91.8721 709.412 89.9216 709.406 87.6487C709.385 80.1934 709.384 72.7381 709.401 65.2822C709.412 60.8315 712.998 57.2368 717.506 57.102C717.629 57.0983 717.751 57.0977 717.874 57.0977C730.242 57.0977 742.61 57.0965 754.978 57.0977C759.202 57.0977 762.622 59.9877 763.293 64.1271C763.354 64.5083 763.384 64.8992 763.384 65.2859C763.39 72.6701 763.39 80.0537 763.388 87.4379C763.388 88.7475 762.208 89.5931 761.053 89.1059C760.412 88.8351 760.074 88.3289 760.018 87.6365C760.008 87.5047 760.015 87.3711 760.015 87.2381C760.015 79.9973 760.015 72.7559 760.014 65.5151C760.014 63.6779 759.249 62.2421 757.713 61.2347C756.897 60.6991 755.985 60.481 755.009 60.4822C749.739 60.4877 744.469 60.4846 739.199 60.4846C732.05 60.4846 724.901 60.4773 717.752 60.4889C715.678 60.4926 714.172 61.4663 713.237 63.3109C712.914 63.9482 712.774 64.6394 712.773 65.3545C712.772 72.759 712.767 80.1634 712.775 87.5678C712.778 89.7586 714.162 91.5694 716.299 92.2441C717.135 92.5082 717.605 93.0254 717.629 93.8006C717.639 94.1058 717.554 94.4281 717.45 94.721C716.931 96.1831 716.391 97.6373 715.86 99.0952C715.829 99.1797 715.806 99.2667 715.765 99.3973C715.881 99.358 715.963 99.3354 716.04 99.3023C721.283 97.1036 726.526 94.9042 731.768 92.7037C732.157 92.5407 732.542 92.3844 732.979 92.45C733.732 92.5627 734.314 93.1382 734.415 93.879C734.522 94.6597 734.132 95.3663 733.392 95.6825C732.257 96.1684 731.115 96.6391 729.976 97.117C724.517 99.4077 719.057 101.697 713.6 103.991C712.875 104.295 712.209 104.226 711.647 103.675C711.102 103.14 711.034 102.487 711.294 101.779C712.102 99.5756 712.902 97.3689 713.706 95.1634C713.74 95.0697 713.769 94.9741 713.78 94.9422L713.78 94.9404Z" fill="#E1BE80"/>
<path d="M740.996 106.813C741.038 107.318 741.068 107.753 741.113 108.187C741.216 109.195 740.585 110.04 739.646 110.138C738.657 110.242 737.861 109.556 737.767 108.519C737.589 106.557 737.41 104.595 737.235 102.633C737.138 101.557 737.875 100.729 738.95 100.73C741.37 100.732 743.79 100.745 746.209 100.763C746.893 100.768 747.406 101.093 747.705 101.705C748 102.305 747.939 102.899 747.547 103.441C747.213 103.902 746.743 104.124 746.176 104.126C745.278 104.129 744.38 104.121 743.481 104.118C743.382 104.118 743.283 104.118 743.184 104.118C743.174 104.143 743.165 104.167 743.155 104.192C743.435 104.363 743.709 104.547 743.996 104.705C748.269 107.057 753.688 105.609 756.215 101.438C756.799 100.476 757.166 99.4327 757.347 98.3217C757.491 97.443 757.974 96.9068 758.728 96.7695C759.867 96.563 760.852 97.481 760.7 98.6477C760.464 100.459 759.827 102.128 758.81 103.644C754.927 109.433 747.086 110.946 741.319 107.026C741.236 106.97 741.151 106.916 740.995 106.814L740.996 106.813Z" fill="#E1BE80"/>
<path d="M753.988 89.6237C753.373 89.1353 752.77 88.8185 752.118 88.6052C749.195 87.6505 746.338 87.724 743.631 89.2946C741.273 90.6636 739.839 92.7159 739.363 95.4147C739.195 96.37 738.652 96.9546 737.832 97.0288C736.694 97.1323 735.833 96.1886 736.009 95.0157C736.168 93.9507 736.45 92.9157 736.908 91.9395C738.75 88.0108 741.855 85.6669 746.076 84.8513C749.104 84.266 752.032 84.6956 754.789 86.1216C755.06 86.2613 755.315 86.431 755.619 86.6124C755.628 86.4764 755.639 86.3704 755.64 86.265C755.647 85.6932 755.646 85.1215 755.657 84.5498C755.676 83.5828 756.409 82.8499 757.345 82.8548C758.283 82.8597 759.022 83.5987 759.018 84.5663C759.009 86.7822 758.99 88.9981 758.962 91.2133C758.95 92.1258 758.264 92.8354 757.366 92.874C755.366 92.9604 753.367 93.0352 751.367 93.1093C750.685 93.1344 750.153 92.8501 749.816 92.2575C749.49 91.6876 749.507 91.1012 749.85 90.5411C750.161 90.0349 750.629 89.7726 751.221 89.7457C752.006 89.7101 752.792 89.6856 753.578 89.655C753.687 89.6507 753.796 89.639 753.989 89.6237H753.988Z" fill="#E1BE80"/>
<path d="M736.486 72.6481C731.431 72.6481 726.376 72.6499 721.322 72.6468C720.155 72.6462 719.365 71.6664 719.623 70.5554C719.788 69.85 720.431 69.312 721.16 69.2734C721.282 69.2667 721.405 69.2691 721.528 69.2691C731.525 69.2691 741.522 69.2667 751.52 69.2789C751.884 69.2789 752.283 69.3531 752.605 69.5136C753.291 69.8562 753.59 70.6516 753.397 71.3949C753.203 72.1425 752.548 72.6456 751.743 72.6456C746.658 72.6481 741.573 72.6468 736.487 72.6468V72.6481H736.486Z" fill="#E1BE80"/>
<path d="M731.034 81.0587C727.827 81.0587 724.621 81.0606 721.415 81.0581C720.519 81.0575 719.872 80.6187 719.645 79.8754C719.325 78.8232 720.054 77.7649 721.157 77.6834C721.269 77.6749 721.381 77.6779 721.494 77.6779C727.886 77.6779 734.278 77.6792 740.67 77.6749C741.406 77.6749 741.985 77.9347 742.338 78.6008C742.897 79.6573 742.18 80.9552 740.988 81.0489C740.795 81.0642 740.601 81.0587 740.407 81.0587C737.282 81.0587 734.158 81.0587 731.034 81.0593V81.0587Z" fill="#E1BE80"/>
</svg>
