<svg width="1082" height="142" viewBox="0 0 1082 142" fill="none" xmlns="http://www.w3.org/2000/svg">
<path d="M469.309 0.0234375L390.448 141.62H70.7903C31.6892 141.62 0 109.915 0 70.8298C0 31.7288 31.7053 0.0234375 70.7903 0.0234375H469.309Z" fill="#00677E"/>
<path d="M1081.37 141.62H734.817V0.0234375H1002.05L1081.37 141.62Z" fill="#00677E" fill-opacity="0.28"/>
<path d="M734.758 0V141.597H390.389L469.25 0H734.758Z" fill="#00677E" fill-opacity="0.47"/>
<path d="M751.841 70.5618C751.841 73.2275 751.796 75.8933 751.862 78.555C751.891 79.7765 751.532 80.5688 750.414 81.2002C745.713 83.8453 741.096 86.6349 736.362 89.214C735.591 89.635 734.192 89.635 733.42 89.214C728.683 86.639 724.016 83.9361 719.402 81.1424C718.696 80.7132 718.015 79.5908 717.999 78.7737C717.875 73.2399 717.883 67.702 717.999 62.1723C718.015 61.4089 718.655 60.3525 719.315 59.9522C723.991 57.1296 728.716 54.3937 733.503 51.7692C734.229 51.373 735.545 51.3689 736.267 51.765C741.058 54.3854 745.792 57.1131 750.455 59.9481C751.148 60.369 751.726 61.5162 751.779 62.3663C751.944 65.0899 751.841 67.8299 751.841 70.5618ZM733.631 86.4492C733.631 81.6417 733.581 77.2881 733.659 72.9387C733.684 71.6594 733.226 70.9868 732.141 70.3884C728.736 68.5067 725.398 66.5094 722.022 64.574C721.597 64.3306 721.119 64.1738 720.491 63.9014C720.491 68.7502 720.467 73.3225 720.529 77.8989C720.537 78.3899 720.929 79.075 721.35 79.3267C725.27 81.6623 729.236 83.9196 733.626 86.4533L733.631 86.4492ZM749.287 63.6992C744.917 66.2247 740.91 68.5273 736.932 70.8713C736.585 71.0776 736.201 71.5852 736.197 71.9524C736.148 76.6361 736.164 81.3198 736.164 86.4286C740.613 83.8618 744.731 81.5055 748.812 79.0873C749.109 78.9099 749.266 78.2785 749.27 77.8535C749.303 73.2812 749.291 68.7089 749.291 63.6951L749.287 63.6992ZM748.008 61.4502C743.642 58.9247 739.643 56.589 735.611 54.307C735.261 54.1089 734.621 54.0636 734.287 54.2534C730.21 56.556 726.161 58.9206 721.771 61.4626C726.145 63.9881 730.189 66.3485 734.27 68.6346C734.633 68.8368 735.347 68.7337 735.748 68.5067C739.721 66.2618 743.662 63.9592 748.004 61.4502H748.008Z" fill="#00677E"/>
<path d="M703.168 66.4393C703.102 66.4393 703.032 66.4352 702.966 66.4228C702.293 66.3114 701.835 65.6717 701.946 64.9991C703.106 58.0004 706.407 51.6619 711.495 46.6687C716.592 41.6672 723 38.4815 730.028 37.454C730.705 37.3549 731.332 37.8254 731.431 38.5021C731.53 39.1789 731.06 39.8061 730.383 39.9052C723.875 40.8543 717.941 43.8048 713.224 48.4349C708.512 53.0608 705.454 58.9289 704.381 65.4035C704.282 66.0101 703.754 66.4393 703.16 66.4393H703.168Z" fill="#00677E"/>
<path d="M729.615 103.467C729.549 103.467 729.479 103.463 729.413 103.451C715.321 101.124 704.282 90.0973 701.946 76.0049C701.835 75.3322 702.289 74.6926 702.966 74.5812C703.643 74.4656 704.278 74.9237 704.389 75.6005C706.552 88.6447 716.773 98.8539 729.818 101.008C730.49 101.119 730.948 101.755 730.837 102.432C730.738 103.038 730.214 103.467 729.615 103.467Z" fill="#00677E"/>
<path d="M739.573 103.558C738.97 103.558 738.438 103.117 738.351 102.498C738.252 101.821 738.722 101.194 739.399 101.095C745.907 100.145 751.837 97.195 756.554 92.5649C761.266 87.939 764.324 82.0751 765.397 75.5963C765.508 74.9236 766.144 74.4656 766.821 74.577C767.493 74.6884 767.951 75.328 767.84 76.0007C766.68 82.9994 763.375 89.3379 758.287 94.3311C753.194 99.3326 746.786 102.518 739.754 103.542C739.692 103.55 739.634 103.554 739.573 103.554V103.558Z" fill="#00677E"/>
<path d="M766.697 66.9593C766.095 66.9593 765.566 66.5177 765.476 65.9029C763.487 52.545 752.761 41.853 739.395 39.9011C738.719 39.8021 738.252 39.1748 738.347 38.498C738.446 37.8213 739.078 37.355 739.75 37.4499C754.185 39.5545 765.773 51.1048 767.923 65.5356C768.022 66.2124 767.555 66.8437 766.879 66.9428C766.817 66.951 766.755 66.9552 766.693 66.9552L766.697 66.9593Z" fill="#00677E"/>
<path d="M734.889 45.7031C734.204 45.7031 733.651 45.1502 733.651 44.4651V32.238C733.651 31.553 734.204 31 734.889 31C735.574 31 736.127 31.553 736.127 32.238V44.4651C736.127 45.1502 735.574 45.7031 734.889 45.7031Z" fill="#00677E"/>
<path d="M734.889 110C734.204 110 733.651 109.447 733.651 108.762V96.5347C733.651 95.8497 734.204 95.2968 734.889 95.2968C735.574 95.2968 736.127 95.8497 736.127 96.5347V108.762C736.127 109.447 735.574 110 734.889 110Z" fill="#00677E"/>
<path d="M708.854 71.7379H696.627C695.942 71.7379 695.389 71.185 695.389 70.4999C695.389 69.8149 695.942 69.262 696.627 69.262H708.854C709.539 69.262 710.092 69.8149 710.092 70.4999C710.092 71.185 709.539 71.7379 708.854 71.7379Z" fill="#00677E"/>
<path d="M773.151 71.7379H760.924C760.239 71.7379 759.686 71.185 759.686 70.4999C759.686 69.8149 760.239 69.262 760.924 69.262H773.151C773.836 69.262 774.389 69.8149 774.389 70.4999C774.389 71.185 773.836 71.7379 773.151 71.7379Z" fill="#00677E"/>
</svg>
