<svg width="356" height="215" viewBox="0 0 356 215" fill="none" xmlns="http://www.w3.org/2000/svg">
<path d="M339.074 2.05586C337.897 2.05586 336.811 2.22459 335.634 2.22459C322.237 2.7308 308.751 2.56206 295.354 3.40574C270.553 4.92436 245.932 9.64895 221.131 9.98642C195.877 10.3239 170.532 6.94919 145.278 5.09309C141.115 4.75562 137.041 4.41815 132.878 4.08068C125.093 3.74321 117.309 2.89953 109.525 2.05586C96.1281 1.04344 82.6412 0.199764 69.1543 0.0310288C46.1632 -0.306442 23.0816 2.22459 0 2.39333C1.71981 35.4655 1.62929 68.8751 1.26723 101.947C1.17671 113.759 0.995678 125.233 0.814645 136.876C1.26723 162.861 1.44826 188.846 1.44826 215C3.71116 215 5.97407 215 8.23697 215C18.0246 207.56 38.8664 207.321 64.9906 173.322C56.8609 202.709 51.5032 195.303 52.4089 215C61.0984 214.663 69.8785 213.819 78.568 212.469C94.3178 209.938 110.158 207.576 125.908 206.563C169.572 162.851 130.657 205.72 147.722 205.72C258.53 205.72 203.32 212.5 289.018 208.588C293.906 208.419 298.794 208.419 303.682 208.419C305.311 206.226 306.94 203.864 308.66 201.67C324.356 176.573 315.359 193.491 315.359 193.997C315.088 195.684 308.117 206.563 307.936 208.588C323.414 208.926 338.892 209.938 354.371 209.432C354.099 199.476 354.914 189.352 355.638 179.397C355.638 179.228 355.638 178.891 355.547 178.722C354.461 159.824 355.004 140.082 355.457 121.014C355.547 117.133 355.638 113.084 355.728 109.203C355.366 89.7983 355.728 70.5625 355.909 51.1579C356 41.3712 356 31.5846 356 21.7979C356 15.8922 355.095 8.63654 355.366 2.56206C354.28 2.39333 353.194 2.22459 352.108 2.22459C349.392 1.88712 346.767 2.05585 344.052 2.22459C342.513 3.91195 340.884 5.5993 339.345 7.28666C339.436 5.26183 339.255 3.74321 339.074 2.05586Z" fill="#ECE2D0" fill-opacity="0.6"/>
</svg>
