<?xml version="1.0" encoding="utf-8"?>
<!-- Generator: Adobe Illustrator 26.2.1, SVG Export Plug-In . SVG Version: 6.00 Build 0)  -->
<svg version="1.1" id="Layer_1" xmlns="http://www.w3.org/2000/svg" xmlns:xlink="http://www.w3.org/1999/xlink" x="0px" y="0px"
	 viewBox="0 0 487 98" style="enable-background:new 0 0 487 98;" xml:space="preserve">
<style type="text/css">
	.st0{fill:#3A818D;}
	.st1{fill:#333333;}
	.st2{clip-path:url(#SVGID_00000149344241887012460080000011982170554057831812_);}
	.st3{fill:none;}
	.st4{fill:#EFD09A;}
	.st5{fill:#43959E;}
	.st6{fill:#DB5A49;}
</style>
<path class="st0" d="M123.1,40.2c-0.4,0-0.8-0.1-0.9-0.4c-0.2-0.3-0.2-0.6-0.2-1.1l1.8-11.6c0.1-0.9,0.6-1.3,1.5-1.3
	c0.9,0,1.2,0.5,1.1,1.5l-1.8,11.6C124.4,39.7,123.9,40.2,123.1,40.2z M128.4,40.1c-0.4,0-0.7-0.1-0.9-0.4c-0.2-0.3-0.2-0.6-0.2-1.1
	l1.2-7.4c0.1-0.8,0.6-1.2,1.4-1.2c0.4,0,0.6,0.1,0.8,0.3c0.2,0.2,0.2,0.6,0.2,1l-0.1,0.4c0.7-1.2,1.9-1.8,3.4-1.8
	c1.1,0,1.9,0.3,2.4,1c0.6,0.7,0.7,1.7,0.5,3.1l-0.7,4.8c-0.1,0.8-0.6,1.2-1.4,1.2c-0.4,0-0.7-0.1-0.9-0.4c-0.2-0.3-0.2-0.6-0.2-1.1
	l0.7-4.5c0.2-1.5-0.2-2.2-1.4-2.2c-0.8,0-1.4,0.2-1.9,0.7c-0.5,0.5-0.8,1.2-0.9,2l-0.7,4.2C129.7,39.7,129.2,40.1,128.4,40.1z
	 M143.5,40.2c-1.3,0-2.3-0.4-2.8-1.1c-0.6-0.7-0.8-1.6-0.6-2.8l0.7-4.3h-0.9c-0.7,0-1-0.3-1-0.8c0-0.3,0.1-0.6,0.3-0.8
	c0.2-0.2,0.5-0.3,0.9-0.3h0.9l0.3-1.9c0.1-0.8,0.6-1.2,1.4-1.2c0.4,0,0.7,0.1,0.9,0.4c0.2,0.2,0.2,0.6,0.2,1l-0.3,1.7h2
	c0.7,0,1,0.3,1,0.8c0,0.3-0.1,0.6-0.3,0.8c-0.2,0.2-0.5,0.3-0.8,0.3h-2.1l-0.7,4.1c-0.1,0.7,0,1.2,0.3,1.5c0.3,0.3,0.7,0.4,1.2,0.4
	c0.2,0,0.4,0,0.6-0.1c0.1,0,0.3-0.1,0.4-0.1c0.2,0,0.3,0.1,0.4,0.2c0.1,0.1,0.1,0.3,0.1,0.5c0,0.5-0.1,0.8-0.2,0.9
	c-0.1,0.2-0.3,0.3-0.6,0.4c-0.2,0.1-0.4,0.1-0.6,0.1C143.9,40.2,143.7,40.2,143.5,40.2z M151.5,40.2c-1,0-1.8-0.2-2.6-0.5
	c-0.7-0.4-1.3-0.9-1.7-1.6c-0.4-0.7-0.6-1.4-0.6-2.3c0-1.1,0.2-2.1,0.7-2.9c0.5-0.9,1.1-1.6,1.9-2.1c0.8-0.5,1.7-0.8,2.8-0.8
	c0.8,0,1.5,0.1,2,0.4c0.5,0.3,1,0.7,1.3,1.1c0.3,0.5,0.5,1,0.6,1.6c0.1,0.6,0.1,1.2,0.1,1.8c0,0.3-0.1,0.5-0.2,0.5
	c-0.1,0.1-0.3,0.1-0.5,0.1H149c0,0.8,0.2,1.5,0.7,1.9c0.5,0.5,1.2,0.7,2.1,0.7c0.4,0,0.8,0,1.2-0.1c0.4-0.1,0.8-0.2,1.2-0.4
	c0.3-0.2,0.6-0.2,0.8-0.2c0.2,0.1,0.4,0.2,0.5,0.4c0.1,0.2,0.1,0.4,0,0.7c-0.1,0.2-0.2,0.5-0.5,0.6c-0.5,0.3-1,0.5-1.7,0.7
	C152.6,40.1,152.1,40.2,151.5,40.2z M152,31.7c-0.6,0-1,0.1-1.4,0.4c-0.4,0.2-0.7,0.5-0.9,0.9c-0.2,0.4-0.4,0.8-0.5,1.2h4.9
	c0.1-0.7-0.1-1.3-0.4-1.8C153.4,32,152.8,31.7,152,31.7z M161.9,43.8c-0.8,0-1.6-0.1-2.3-0.3c-0.7-0.2-1.3-0.4-1.9-0.7
	c-0.3-0.2-0.5-0.4-0.5-0.6c-0.1-0.2,0-0.5,0.1-0.7c0.1-0.2,0.3-0.4,0.5-0.5c0.2-0.1,0.5,0,0.8,0.1c0.4,0.2,0.9,0.4,1.4,0.5
	c0.5,0.1,1,0.2,1.5,0.2c0.8,0,1.4-0.2,1.9-0.5c0.5-0.4,0.8-0.9,0.9-1.7l0.2-1.5c-0.3,0.5-0.8,0.9-1.4,1.2s-1.2,0.4-1.9,0.4
	c-1.2,0-2.1-0.4-2.8-1.1c-0.7-0.7-1.1-1.7-1.1-3c0-1,0.2-2,0.6-2.8c0.4-0.9,1-1.6,1.7-2.1c0.7-0.5,1.6-0.8,2.6-0.8
	c0.7,0,1.4,0.2,1.9,0.5c0.6,0.3,1,0.8,1.2,1.4l0.1-0.6c0.1-0.8,0.6-1.2,1.4-1.2c0.4,0,0.7,0.1,0.8,0.4c0.2,0.3,0.2,0.6,0.2,1.1
	l-1.3,8c-0.2,1.4-0.7,2.5-1.6,3.2C164.5,43.4,163.3,43.8,161.9,43.8z M162.2,37.9c0.6,0,1.2-0.2,1.6-0.5c0.4-0.3,0.8-0.8,1-1.4
	c0.2-0.6,0.3-1.2,0.3-1.8c0-0.7-0.2-1.2-0.6-1.6c-0.4-0.4-0.9-0.6-1.6-0.6c-0.6,0-1.1,0.2-1.6,0.5c-0.4,0.3-0.8,0.8-1,1.3
	c-0.2,0.6-0.3,1.2-0.3,1.8c0,0.7,0.2,1.3,0.6,1.7C161,37.7,161.5,37.9,162.2,37.9z M170.6,40.2c-0.4,0-0.7-0.1-0.9-0.4
	c-0.2-0.3-0.2-0.6-0.2-1.1l1.2-7.5c0.1-0.8,0.6-1.2,1.4-1.2c0.4,0,0.7,0.1,0.8,0.4c0.2,0.2,0.2,0.6,0.2,1l-0.1,0.4
	c0.3-0.6,0.8-1,1.3-1.3c0.5-0.3,1.2-0.5,1.9-0.5c0.4,0,0.6,0,0.7,0.2c0.1,0.1,0.2,0.4,0.2,0.7c0,0.4-0.1,0.8-0.3,1
	c-0.2,0.2-0.5,0.3-0.9,0.4l-0.6,0.1c-0.9,0.1-1.5,0.4-1.9,0.8c-0.4,0.4-0.6,1.1-0.8,1.9l-0.6,4C171.9,39.8,171.4,40.2,170.6,40.2z
	 M180.4,40.2c-0.6,0-1.1-0.1-1.6-0.4c-0.5-0.3-0.9-0.6-1.2-1.1c-0.3-0.5-0.4-1-0.4-1.5c0-1,0.4-1.8,1.3-2.3c0.9-0.5,2.3-0.7,4.2-0.7
	h1.4l0.1-0.4c0.1-0.6,0-1.1-0.3-1.4c-0.3-0.3-0.8-0.5-1.6-0.5c-0.4,0-0.9,0-1.3,0.1c-0.4,0.1-0.8,0.2-1.3,0.4
	c-0.3,0.1-0.6,0.2-0.8,0.1c-0.2-0.1-0.4-0.2-0.5-0.5c-0.1-0.2-0.1-0.5,0-0.7c0.1-0.3,0.3-0.5,0.7-0.6c0.6-0.3,1.1-0.4,1.7-0.5
	c0.6-0.1,1.2-0.2,1.7-0.2c1.1,0,1.9,0.2,2.5,0.6s1,0.9,1.2,1.6c0.2,0.7,0.3,1.4,0.1,2.3l-0.7,4.5c-0.1,0.8-0.6,1.2-1.4,1.2
	c-0.4,0-0.6-0.1-0.8-0.3c-0.2-0.2-0.2-0.6-0.2-1l0-0.2c-0.3,0.6-0.8,1-1.3,1.2C181.5,40.1,181,40.2,180.4,40.2z M181.2,38.5
	c0.6,0,1.2-0.2,1.6-0.6c0.5-0.4,0.8-1,0.9-1.7l0.1-0.6h-1c-1.2,0-2,0.1-2.5,0.3c-0.5,0.2-0.7,0.5-0.7,1.1c0,0.5,0.2,0.8,0.5,1.1
	C180.4,38.4,180.8,38.5,181.2,38.5z M192.7,40.2c-1.3,0-2.3-0.4-2.8-1.1c-0.6-0.7-0.8-1.6-0.6-2.8l0.7-4.3H189c-0.7,0-1-0.3-1-0.8
	c0-0.3,0.1-0.6,0.3-0.8c0.2-0.2,0.5-0.3,0.9-0.3h0.9l0.3-1.9c0.1-0.8,0.6-1.2,1.4-1.2c0.4,0,0.7,0.1,0.9,0.4c0.2,0.2,0.2,0.6,0.2,1
	l-0.3,1.7h2c0.7,0,1,0.3,1,0.8c0,0.3-0.1,0.6-0.3,0.8c-0.2,0.2-0.5,0.3-0.8,0.3h-2.1l-0.7,4.1c-0.1,0.7,0,1.2,0.3,1.5
	c0.3,0.3,0.7,0.4,1.2,0.4c0.2,0,0.4,0,0.6-0.1c0.1,0,0.3-0.1,0.4-0.1c0.2,0,0.3,0.1,0.4,0.2c0.1,0.1,0.1,0.3,0.1,0.5
	c0,0.5-0.1,0.8-0.2,0.9c-0.1,0.2-0.3,0.3-0.6,0.4c-0.2,0.1-0.4,0.1-0.6,0.1C193.1,40.2,192.9,40.2,192.7,40.2z M200.7,40.2
	c-1,0-1.8-0.2-2.6-0.5c-0.7-0.4-1.3-0.9-1.7-1.6c-0.4-0.7-0.6-1.4-0.6-2.3c0-1.1,0.2-2.1,0.7-2.9c0.5-0.9,1.1-1.6,1.9-2.1
	c0.8-0.5,1.7-0.8,2.8-0.8c0.8,0,1.5,0.1,2,0.4c0.5,0.3,1,0.7,1.3,1.1c0.3,0.5,0.5,1,0.6,1.6c0.1,0.6,0.1,1.2,0.1,1.8
	c0,0.3-0.1,0.5-0.2,0.5c-0.1,0.1-0.3,0.1-0.5,0.1h-6.4c0,0.8,0.2,1.5,0.7,1.9c0.5,0.5,1.2,0.7,2.1,0.7c0.4,0,0.8,0,1.2-0.1
	c0.4-0.1,0.8-0.2,1.2-0.4c0.3-0.2,0.6-0.2,0.8-0.2c0.2,0.1,0.4,0.2,0.5,0.4c0.1,0.2,0.1,0.4,0,0.7c-0.1,0.2-0.2,0.5-0.5,0.6
	c-0.5,0.3-1,0.5-1.7,0.7C201.8,40.1,201.2,40.2,200.7,40.2z M201.2,31.7c-0.6,0-1,0.1-1.4,0.4c-0.4,0.2-0.7,0.5-0.9,0.9
	c-0.2,0.4-0.4,0.8-0.5,1.2h4.9c0.1-0.7-0.1-1.3-0.4-1.8C202.6,32,202,31.7,201.2,31.7z M216.5,40.2c-1.3,0-2.3-0.4-2.8-1.1
	c-0.6-0.7-0.8-1.6-0.6-2.8l0.7-4.3h-0.9c-0.7,0-1-0.3-1-0.8c0-0.3,0.1-0.6,0.3-0.8c0.2-0.2,0.5-0.3,0.9-0.3h0.9l0.3-1.9
	c0.1-0.8,0.6-1.2,1.4-1.2c0.4,0,0.7,0.1,0.9,0.4c0.2,0.2,0.2,0.6,0.2,1l-0.3,1.7h2c0.7,0,1,0.3,1,0.8c0,0.3-0.1,0.6-0.3,0.8
	c-0.2,0.2-0.5,0.3-0.8,0.3h-2.1l-0.7,4.1c-0.1,0.7,0,1.2,0.3,1.5c0.3,0.3,0.7,0.4,1.2,0.4c0.2,0,0.4,0,0.6-0.1
	c0.1,0,0.3-0.1,0.4-0.1c0.2,0,0.3,0.1,0.4,0.2c0.1,0.1,0.1,0.3,0.1,0.5c0,0.5-0.1,0.8-0.2,0.9c-0.1,0.2-0.3,0.3-0.6,0.4
	c-0.2,0.1-0.4,0.1-0.6,0.1C216.9,40.2,216.7,40.2,216.5,40.2z M221,40.2c-0.4,0-0.7-0.1-0.9-0.4c-0.2-0.3-0.2-0.6-0.2-1.1l1.8-11.7
	c0.1-0.8,0.6-1.3,1.4-1.3c0.4,0,0.7,0.1,0.9,0.4c0.2,0.2,0.2,0.6,0.2,1.1l-0.7,4.5c0.7-1.1,1.8-1.6,3.3-1.6c1.1,0,1.9,0.3,2.4,1
	c0.6,0.7,0.7,1.7,0.5,3.1l-0.7,4.8c-0.1,0.8-0.6,1.3-1.4,1.3c-0.4,0-0.7-0.1-0.9-0.4c-0.2-0.3-0.2-0.6-0.2-1.1l0.7-4.5
	c0.2-1.5-0.2-2.2-1.4-2.2c-0.8,0-1.4,0.2-1.9,0.7c-0.5,0.5-0.8,1.2-0.9,2l-0.7,4.2C222.4,39.7,221.9,40.2,221,40.2z M236.6,40.2
	c-1,0-1.8-0.2-2.6-0.5c-0.7-0.4-1.3-0.9-1.7-1.6c-0.4-0.7-0.6-1.4-0.6-2.3c0-1.1,0.2-2.1,0.7-2.9c0.5-0.9,1.1-1.6,1.9-2.1
	c0.8-0.5,1.7-0.8,2.8-0.8c0.8,0,1.5,0.1,2,0.4c0.5,0.3,1,0.7,1.3,1.1c0.3,0.5,0.5,1,0.6,1.6c0.1,0.6,0.1,1.2,0.1,1.8
	c0,0.3-0.1,0.5-0.2,0.5c-0.1,0.1-0.3,0.1-0.5,0.1h-6.4c0,0.8,0.2,1.5,0.7,1.9c0.5,0.5,1.2,0.7,2.1,0.7c0.4,0,0.8,0,1.2-0.1
	c0.4-0.1,0.8-0.2,1.2-0.4c0.3-0.2,0.6-0.2,0.8-0.2c0.2,0.1,0.4,0.2,0.5,0.4c0.1,0.2,0.1,0.4,0,0.7c-0.1,0.2-0.2,0.5-0.5,0.6
	c-0.5,0.3-1,0.5-1.7,0.7C237.7,40.1,237.1,40.2,236.6,40.2z M237.1,31.7c-0.6,0-1,0.1-1.4,0.4c-0.4,0.2-0.7,0.5-0.9,0.9
	c-0.2,0.4-0.4,0.8-0.5,1.2h4.9c0.1-0.7-0.1-1.3-0.4-1.8C238.5,32,237.9,31.7,237.1,31.7z M248.4,43.8c-0.4,0-0.7-0.1-0.9-0.4
	s-0.2-0.6-0.2-1.1l1.7-11c0.1-0.9,0.6-1.3,1.4-1.3c0.4,0,0.7,0.1,0.8,0.4c0.2,0.3,0.2,0.6,0.2,1.1l0,0.2c0.8-1.1,1.9-1.7,3.3-1.7
	c1.1,0,2,0.4,2.7,1.1c0.7,0.7,1,1.8,1,3.1c0,1.1-0.2,2.1-0.6,3c-0.4,0.9-0.9,1.6-1.7,2.1c-0.7,0.5-1.6,0.8-2.6,0.8
	c-0.7,0-1.3-0.1-1.9-0.4c-0.5-0.3-1-0.8-1.2-1.4l-0.7,4.2C249.7,43.4,249.3,43.8,248.4,43.8z M253.1,38.3c0.6,0,1.1-0.2,1.5-0.5
	c0.4-0.3,0.8-0.8,1-1.4c0.2-0.6,0.3-1.3,0.3-2c0-0.8-0.2-1.4-0.6-1.8c-0.4-0.4-0.9-0.6-1.6-0.6c-0.6,0-1.1,0.2-1.5,0.5
	c-0.4,0.3-0.8,0.8-1,1.4c-0.2,0.6-0.3,1.3-0.3,2c0,0.8,0.2,1.4,0.6,1.8C252,38.1,252.5,38.3,253.1,38.3z M264.8,40.2
	c-1,0-1.8-0.2-2.6-0.5c-0.7-0.4-1.3-0.9-1.7-1.6c-0.4-0.7-0.6-1.4-0.6-2.3c0-1.1,0.2-2.1,0.7-2.9c0.5-0.9,1.1-1.6,1.9-2.1
	c0.8-0.5,1.7-0.8,2.8-0.8c0.8,0,1.5,0.1,2,0.4c0.5,0.3,1,0.7,1.3,1.1c0.3,0.5,0.5,1,0.6,1.6c0.1,0.6,0.1,1.2,0.1,1.8
	c0,0.3-0.1,0.5-0.2,0.5c-0.1,0.1-0.3,0.1-0.5,0.1h-6.4c0,0.8,0.2,1.5,0.7,1.9c0.5,0.5,1.2,0.7,2.1,0.7c0.4,0,0.8,0,1.2-0.1
	c0.4-0.1,0.8-0.2,1.2-0.4c0.3-0.2,0.6-0.2,0.8-0.2c0.2,0.1,0.4,0.2,0.5,0.4c0.1,0.2,0.1,0.4,0,0.7c-0.1,0.2-0.2,0.5-0.5,0.6
	c-0.5,0.3-1,0.5-1.7,0.7C266,40.1,265.4,40.2,264.8,40.2z M265.4,31.7c-0.6,0-1,0.1-1.4,0.4c-0.4,0.2-0.7,0.5-0.9,0.9
	c-0.2,0.4-0.4,0.8-0.5,1.2h4.9c0.1-0.7-0.1-1.3-0.4-1.8C266.7,32,266.2,31.7,265.4,31.7z M271.8,40.2c-0.4,0-0.7-0.1-0.9-0.4
	c-0.2-0.3-0.2-0.6-0.2-1.1l1.2-7.5c0.1-0.8,0.6-1.2,1.4-1.2c0.4,0,0.7,0.1,0.8,0.4c0.2,0.2,0.2,0.6,0.2,1l-0.1,0.4
	c0.3-0.6,0.8-1,1.3-1.3c0.5-0.3,1.2-0.5,1.9-0.5c0.4,0,0.6,0,0.7,0.2c0.1,0.1,0.2,0.4,0.2,0.7c0,0.4-0.1,0.8-0.3,1
	c-0.2,0.2-0.5,0.3-0.9,0.4l-0.6,0.1c-0.9,0.1-1.5,0.4-1.9,0.8c-0.4,0.4-0.6,1.1-0.8,1.9l-0.6,4C273.2,39.8,272.7,40.2,271.8,40.2z
	 M280.9,40.2c-0.4,0-0.7-0.1-0.9-0.4c-0.2-0.3-0.2-0.6-0.2-1.1l1.1-6.6h-0.8c-0.7,0-1-0.3-1-0.8c0-0.3,0.1-0.6,0.3-0.8
	c0.2-0.2,0.5-0.3,0.8-0.3h1l0.1-0.5c0.2-1.1,0.6-2.1,1.4-2.7s1.8-1,3.2-1.1l0.6,0c0.3,0,0.6,0.1,0.7,0.2c0.2,0.2,0.2,0.4,0.2,0.6
	c0,0.2-0.1,0.5-0.2,0.7c-0.1,0.2-0.3,0.3-0.6,0.3l-0.5,0c-0.7,0.1-1.2,0.2-1.6,0.6c-0.4,0.3-0.6,0.8-0.7,1.4l-0.1,0.5h1.6
	c0.7,0,1,0.2,1,0.7c0,0.4-0.1,0.6-0.3,0.8c-0.2,0.2-0.5,0.3-0.8,0.3h-1.7l-1.1,6.8C282.2,39.7,281.7,40.2,280.9,40.2z M289.8,40.2
	c-1.1,0-1.9-0.3-2.4-1c-0.6-0.7-0.7-1.7-0.5-3.1l0.8-4.8c0.1-0.8,0.6-1.2,1.4-1.2c0.4,0,0.7,0.1,0.9,0.4c0.2,0.2,0.3,0.6,0.2,1
	l-0.7,4.6c-0.1,0.7-0.1,1.3,0.2,1.6c0.2,0.4,0.6,0.5,1.2,0.5c0.7,0,1.4-0.2,1.8-0.7c0.5-0.5,0.8-1.2,0.9-2l0.7-4.2
	c0.1-0.8,0.6-1.2,1.4-1.2c0.4,0,0.7,0.1,0.9,0.4c0.2,0.2,0.2,0.6,0.2,1l-1.2,7.5c-0.1,0.8-0.6,1.2-1.4,1.2c-0.8,0-1.2-0.4-1.1-1.3
	l0.1-0.4C292.3,39.6,291.2,40.2,289.8,40.2z M299.1,40.2c-0.4,0-0.7-0.1-0.9-0.4c-0.2-0.3-0.2-0.6-0.2-1.1l1.2-7.5
	c0.1-0.8,0.6-1.2,1.4-1.2c0.4,0,0.7,0.1,0.8,0.4c0.2,0.2,0.2,0.6,0.2,1l0,0.3c0.4-0.6,0.8-1,1.4-1.3c0.5-0.3,1.1-0.4,1.7-0.4
	c1.4,0,2.3,0.6,2.7,1.9c0.7-1.3,1.9-1.9,3.4-1.9c1,0,1.8,0.3,2.3,1c0.5,0.7,0.7,1.7,0.5,3.1L313,39c-0.1,0.8-0.6,1.2-1.4,1.2
	c-0.4,0-0.7-0.1-0.9-0.4c-0.2-0.3-0.2-0.6-0.2-1.1l0.7-4.6c0.2-1.4-0.2-2.1-1.3-2.1c-0.7,0-1.2,0.2-1.6,0.7c-0.4,0.5-0.7,1.2-0.9,2
	l-0.7,4.2c-0.1,0.8-0.6,1.2-1.4,1.2c-0.4,0-0.7-0.1-0.9-0.4c-0.2-0.3-0.2-0.6-0.2-1.1l0.7-4.6c0.2-1.4-0.2-2.1-1.3-2.1
	c-0.7,0-1.2,0.2-1.6,0.7c-0.4,0.5-0.7,1.2-0.9,2l-0.7,4.2C300.5,39.8,300,40.2,299.1,40.2z M320.5,40.2c-1,0-1.8-0.2-2.6-0.5
	c-0.7-0.4-1.3-0.9-1.7-1.6c-0.4-0.7-0.6-1.4-0.6-2.3c0-1.1,0.2-2.1,0.7-2.9c0.5-0.9,1.1-1.6,1.9-2.1C319,30.3,320,30,321,30
	c0.8,0,1.5,0.1,2,0.4c0.5,0.3,1,0.7,1.3,1.1c0.3,0.5,0.5,1,0.6,1.6c0.1,0.6,0.1,1.2,0.1,1.8c0,0.3-0.1,0.5-0.2,0.5
	c-0.1,0.1-0.3,0.1-0.5,0.1H318c0,0.8,0.2,1.5,0.7,1.9c0.5,0.5,1.2,0.7,2.1,0.7c0.4,0,0.8,0,1.2-0.1c0.4-0.1,0.8-0.2,1.2-0.4
	c0.3-0.2,0.6-0.2,0.8-0.2c0.2,0.1,0.4,0.2,0.5,0.4c0.1,0.2,0.1,0.4,0,0.7c-0.1,0.2-0.2,0.5-0.5,0.6c-0.5,0.3-1,0.5-1.7,0.7
	C321.6,40.1,321,40.2,320.5,40.2z M321,31.7c-0.6,0-1,0.1-1.4,0.4c-0.4,0.2-0.7,0.5-0.9,0.9c-0.2,0.4-0.4,0.8-0.5,1.2h4.9
	c0.1-0.7-0.1-1.3-0.4-1.8C322.4,32,321.8,31.7,321,31.7z M336.5,40.2c-1.4,0-2.6-0.4-3.4-1.2c-0.8-0.8-1.2-1.9-1.2-3.2
	c0-1.2,0.2-2.2,0.7-3c0.5-0.9,1.2-1.5,2-2c0.8-0.5,1.7-0.7,2.7-0.7c1.4,0,2.6,0.4,3.4,1.2c0.8,0.8,1.2,1.9,1.2,3.2
	c0,1.2-0.2,2.2-0.7,3.1c-0.5,0.9-1.1,1.5-2,2C338.4,40,337.5,40.2,336.5,40.2z M336.6,38.3c0.6,0,1.1-0.2,1.5-0.5
	c0.4-0.3,0.8-0.8,1-1.4c0.2-0.6,0.3-1.3,0.3-2c0-0.8-0.2-1.4-0.6-1.8c-0.4-0.4-0.9-0.6-1.6-0.6c-0.6,0-1.1,0.2-1.5,0.5
	c-0.4,0.3-0.8,0.8-1,1.4c-0.2,0.6-0.3,1.3-0.3,2c0,0.8,0.2,1.4,0.6,1.8C335.4,38.1,335.9,38.3,336.6,38.3z M344.4,40.1
	c-0.4,0-0.7-0.1-0.9-0.4c-0.2-0.3-0.2-0.6-0.2-1.1l1.2-7.4c0.1-0.8,0.6-1.2,1.4-1.2c0.4,0,0.6,0.1,0.8,0.3c0.2,0.2,0.2,0.6,0.2,1
	l-0.1,0.4c0.7-1.2,1.9-1.8,3.4-1.8c1.1,0,1.9,0.3,2.4,1c0.6,0.7,0.7,1.7,0.5,3.1l-0.7,4.8c-0.1,0.8-0.6,1.2-1.4,1.2
	c-0.4,0-0.7-0.1-0.9-0.4c-0.2-0.3-0.2-0.6-0.2-1.1l0.7-4.5c0.2-1.5-0.2-2.2-1.4-2.2c-0.8,0-1.4,0.2-1.9,0.7c-0.5,0.5-0.8,1.2-0.9,2
	l-0.7,4.2C345.8,39.7,345.3,40.1,344.4,40.1z M358.3,40.2c-1.1,0-1.9-0.3-2.4-0.9c-0.5-0.6-0.6-1.6-0.5-2.8L357,27
	c0.1-0.8,0.6-1.2,1.4-1.2c0.4,0,0.7,0.1,0.8,0.4c0.2,0.3,0.2,0.6,0.2,1.1l-1.5,9.3c-0.1,0.6,0,1,0.1,1.3c0.2,0.3,0.5,0.4,1,0.4
	c0.1,0,0.3,0,0.4,0c0.1,0,0.2,0,0.3,0c0.1,0,0.2,0,0.3,0.1c0.1,0.1,0.1,0.3,0.1,0.5c0,0.4-0.1,0.7-0.2,0.9c-0.2,0.2-0.4,0.3-0.6,0.4
	c-0.1,0-0.3,0.1-0.5,0.1C358.7,40.2,358.5,40.2,358.3,40.2z M364.4,28.2c-0.5,0-0.8-0.1-1-0.3c-0.2-0.2-0.3-0.5-0.3-0.9
	c0.1-0.9,0.7-1.4,1.7-1.4c0.5,0,0.8,0.1,1,0.3c0.2,0.2,0.3,0.5,0.3,0.9C366,27.8,365.4,28.2,364.4,28.2z M362.5,40.2
	c-0.4,0-0.7-0.1-0.9-0.4c-0.2-0.3-0.2-0.6-0.2-1.1l1.2-7.4c0.1-0.8,0.6-1.2,1.4-1.2c0.4,0,0.7,0.1,0.8,0.4c0.2,0.3,0.2,0.6,0.2,1.1
	l-1.2,7.4C363.8,39.7,363.3,40.2,362.5,40.2z M367.6,40.1c-0.4,0-0.7-0.1-0.9-0.4c-0.2-0.3-0.2-0.6-0.2-1.1l1.2-7.4
	c0.1-0.8,0.6-1.2,1.4-1.2c0.4,0,0.6,0.1,0.8,0.3c0.2,0.2,0.2,0.6,0.2,1l-0.1,0.4c0.7-1.2,1.9-1.8,3.4-1.8c1.1,0,1.9,0.3,2.4,1
	c0.6,0.7,0.7,1.7,0.5,3.1l-0.7,4.8c-0.1,0.8-0.6,1.2-1.4,1.2c-0.4,0-0.7-0.1-0.9-0.4c-0.2-0.3-0.2-0.6-0.2-1.1l0.7-4.5
	c0.2-1.5-0.2-2.2-1.4-2.2c-0.8,0-1.4,0.2-1.9,0.7c-0.5,0.5-0.8,1.2-0.9,2l-0.7,4.2C368.9,39.7,368.5,40.1,367.6,40.1z M383.2,40.2
	c-1,0-1.8-0.2-2.6-0.5c-0.7-0.4-1.3-0.9-1.7-1.6c-0.4-0.7-0.6-1.4-0.6-2.3c0-1.1,0.2-2.1,0.7-2.9c0.5-0.9,1.1-1.6,1.9-2.1
	c0.8-0.5,1.7-0.8,2.8-0.8c0.8,0,1.5,0.1,2,0.4c0.5,0.3,1,0.7,1.3,1.1c0.3,0.5,0.5,1,0.6,1.6c0.1,0.6,0.1,1.2,0.1,1.8
	c0,0.3-0.1,0.5-0.2,0.5c-0.1,0.1-0.3,0.1-0.5,0.1h-6.4c0,0.8,0.2,1.5,0.7,1.9c0.5,0.5,1.2,0.7,2.1,0.7c0.4,0,0.8,0,1.2-0.1
	c0.4-0.1,0.8-0.2,1.2-0.4c0.3-0.2,0.6-0.2,0.8-0.2c0.2,0.1,0.4,0.2,0.5,0.4c0.1,0.2,0.1,0.4,0,0.7c-0.1,0.2-0.2,0.5-0.5,0.6
	c-0.5,0.3-1,0.5-1.7,0.7C384.3,40.1,383.7,40.2,383.2,40.2z M383.7,31.7c-0.6,0-1,0.1-1.4,0.4c-0.4,0.2-0.7,0.5-0.9,0.9
	c-0.2,0.4-0.4,0.8-0.5,1.2h4.9c0.1-0.7-0.1-1.3-0.4-1.8C385,32,384.5,31.7,383.7,31.7z M395.6,40.2c-0.4,0-0.7-0.1-0.9-0.4
	c-0.2-0.3-0.2-0.6-0.2-1.1l1.2-7.5c0.1-0.8,0.6-1.2,1.4-1.2c0.4,0,0.7,0.1,0.8,0.4c0.2,0.2,0.2,0.6,0.2,1l0,0.3
	c0.4-0.6,0.8-1,1.4-1.3c0.5-0.3,1.1-0.4,1.7-0.4c1.4,0,2.3,0.6,2.7,1.9c0.7-1.3,1.9-1.9,3.4-1.9c1,0,1.8,0.3,2.3,1
	c0.5,0.7,0.7,1.7,0.5,3.1l-0.8,4.8c-0.1,0.8-0.6,1.2-1.4,1.2c-0.4,0-0.7-0.1-0.9-0.4c-0.2-0.3-0.2-0.6-0.2-1.1l0.7-4.6
	c0.2-1.4-0.2-2.1-1.3-2.1c-0.7,0-1.2,0.2-1.6,0.7c-0.4,0.5-0.7,1.2-0.9,2l-0.7,4.2c-0.1,0.8-0.6,1.2-1.4,1.2c-0.4,0-0.7-0.1-0.9-0.4
	c-0.2-0.3-0.2-0.6-0.2-1.1l0.7-4.6c0.2-1.4-0.2-2.1-1.3-2.1c-0.7,0-1.2,0.2-1.6,0.7c-0.4,0.5-0.7,1.2-0.9,2l-0.7,4.2
	C397,39.8,396.5,40.2,395.6,40.2z M415.2,40.2c-0.6,0-1.1-0.1-1.6-0.4c-0.5-0.3-0.9-0.6-1.2-1.1c-0.3-0.5-0.4-1-0.4-1.5
	c0-1,0.4-1.8,1.3-2.3c0.9-0.5,2.3-0.7,4.2-0.7h1.4l0.1-0.4c0.1-0.6,0-1.1-0.3-1.4c-0.3-0.3-0.8-0.5-1.6-0.5c-0.4,0-0.9,0-1.3,0.1
	c-0.4,0.1-0.8,0.2-1.3,0.4c-0.3,0.1-0.6,0.2-0.8,0.1c-0.2-0.1-0.4-0.2-0.5-0.5c-0.1-0.2-0.1-0.5,0-0.7c0.1-0.3,0.3-0.5,0.7-0.6
	c0.6-0.3,1.1-0.4,1.7-0.5c0.6-0.1,1.2-0.2,1.7-0.2c1.1,0,1.9,0.2,2.5,0.6s1,0.9,1.2,1.6c0.2,0.7,0.3,1.4,0.1,2.3l-0.7,4.5
	c-0.1,0.8-0.6,1.2-1.4,1.2c-0.4,0-0.6-0.1-0.8-0.3c-0.2-0.2-0.2-0.6-0.2-1l0-0.2c-0.3,0.6-0.8,1-1.3,1.2
	C416.4,40.1,415.8,40.2,415.2,40.2z M416,38.5c0.6,0,1.2-0.2,1.6-0.6c0.5-0.4,0.8-1,0.9-1.7l0.1-0.6h-1c-1.2,0-2,0.1-2.5,0.3
	c-0.5,0.2-0.7,0.5-0.7,1.1c0,0.5,0.2,0.8,0.5,1.1C415.2,38.4,415.6,38.5,416,38.5z M424.1,40.2c-0.4,0-0.7-0.1-0.9-0.4
	c-0.2-0.3-0.2-0.6-0.2-1.1l1.2-7.5c0.1-0.8,0.6-1.2,1.4-1.2c0.4,0,0.7,0.1,0.8,0.4c0.2,0.2,0.2,0.6,0.2,1l-0.1,0.4
	c0.3-0.6,0.8-1,1.3-1.3c0.5-0.3,1.2-0.5,1.9-0.5c0.4,0,0.6,0,0.7,0.2c0.1,0.1,0.2,0.4,0.2,0.7c0,0.4-0.1,0.8-0.3,1
	c-0.2,0.2-0.5,0.3-0.9,0.4l-0.6,0.1c-0.9,0.1-1.5,0.4-1.9,0.8c-0.4,0.4-0.6,1.1-0.8,1.9l-0.6,4C425.4,39.8,424.9,40.2,424.1,40.2z
	 M431.9,40.2c-0.4,0-0.7-0.1-0.9-0.4c-0.2-0.3-0.2-0.6-0.2-1.1l1.9-11.8c0.1-0.8,0.6-1.2,1.4-1.2c0.4,0,0.7,0.1,0.8,0.4
	c0.2,0.3,0.2,0.6,0.2,1.1l-1.1,7.2h0l3.9-3.6c0.3-0.3,0.5-0.4,0.7-0.6c0.2-0.1,0.5-0.2,0.8-0.2c0.3,0,0.6,0.1,0.7,0.3
	c0.2,0.2,0.2,0.4,0.2,0.7c0,0.3-0.2,0.5-0.4,0.8l-3.4,3.2l2.7,3.4c0.2,0.3,0.3,0.5,0.3,0.8c0,0.3-0.1,0.5-0.3,0.7
	c-0.2,0.2-0.4,0.3-0.8,0.3c-0.3,0-0.6-0.1-0.8-0.2c-0.2-0.2-0.4-0.4-0.7-0.7l-3-3.7h0l-0.5,3.4C433.2,39.8,432.7,40.2,431.9,40.2z
	 M446.3,40.2c-1,0-1.8-0.2-2.6-0.5c-0.7-0.4-1.3-0.9-1.7-1.6c-0.4-0.7-0.6-1.4-0.6-2.3c0-1.1,0.2-2.1,0.7-2.9
	c0.5-0.9,1.1-1.6,1.9-2.1c0.8-0.5,1.7-0.8,2.8-0.8c0.8,0,1.5,0.1,2,0.4c0.5,0.3,1,0.7,1.3,1.1c0.3,0.5,0.5,1,0.6,1.6
	s0.1,1.2,0.1,1.8c0,0.3-0.1,0.5-0.2,0.5c-0.1,0.1-0.3,0.1-0.5,0.1h-6.4c0,0.8,0.2,1.5,0.7,1.9c0.5,0.5,1.2,0.7,2.1,0.7
	c0.4,0,0.8,0,1.2-0.1c0.4-0.1,0.8-0.2,1.2-0.4c0.3-0.2,0.6-0.2,0.8-0.2c0.2,0.1,0.4,0.2,0.5,0.4c0.1,0.2,0.1,0.4,0,0.7
	c-0.1,0.2-0.2,0.5-0.5,0.6c-0.5,0.3-1,0.5-1.7,0.7C447.4,40.1,446.8,40.2,446.3,40.2z M446.8,31.7c-0.6,0-1,0.1-1.4,0.4
	c-0.4,0.2-0.7,0.5-0.9,0.9c-0.2,0.4-0.4,0.8-0.5,1.2h4.9c0.1-0.7-0.1-1.3-0.4-1.8S447.6,31.7,446.8,31.7z M456.6,40.2
	c-1.3,0-2.3-0.4-2.8-1.1c-0.6-0.7-0.8-1.6-0.6-2.8l0.7-4.3H453c-0.7,0-1-0.3-1-0.8c0-0.3,0.1-0.6,0.3-0.8c0.2-0.2,0.5-0.3,0.9-0.3
	h0.9l0.3-1.9c0.1-0.8,0.6-1.2,1.4-1.2c0.4,0,0.7,0.1,0.9,0.4c0.2,0.2,0.2,0.6,0.2,1l-0.3,1.7h2c0.7,0,1,0.3,1,0.8
	c0,0.3-0.1,0.6-0.3,0.8c-0.2,0.2-0.5,0.3-0.8,0.3h-2.1l-0.7,4.1c-0.1,0.7,0,1.2,0.3,1.5c0.3,0.3,0.7,0.4,1.2,0.4
	c0.2,0,0.4,0,0.6-0.1c0.1,0,0.3-0.1,0.4-0.1c0.2,0,0.3,0.1,0.4,0.2c0.1,0.1,0.1,0.3,0.1,0.5c0,0.5-0.1,0.8-0.2,0.9
	c-0.1,0.2-0.3,0.3-0.6,0.4c-0.2,0.1-0.4,0.1-0.6,0.1C457,40.2,456.8,40.2,456.6,40.2z"/>
<path class="st1" d="M122.8,74c-0.4,0-0.6-0.2-0.6-0.6v-8.6c0-0.4,0.2-0.6,0.6-0.6h3.3c1,0,1.8,0.2,2.4,0.7c0.6,0.4,0.8,1.1,0.8,1.9
	c0,0.5-0.1,1-0.4,1.4c-0.3,0.4-0.7,0.7-1.2,0.8c0.6,0.1,1,0.4,1.3,0.8c0.3,0.4,0.5,0.9,0.5,1.5c0,0.9-0.3,1.5-0.9,2
	c-0.6,0.5-1.4,0.7-2.4,0.7H122.8z M123.3,68.5h2.7c1.5,0,2.2-0.6,2.2-1.7c0-1.2-0.7-1.8-2.2-1.8h-2.7V68.5z M123.3,73.1h2.9
	c1.5,0,2.2-0.6,2.2-1.8c0-1.2-0.7-1.8-2.2-1.8h-2.9V73.1z M133,76.6c-0.2,0-0.4-0.1-0.4-0.3c-0.1-0.2-0.1-0.3,0-0.5l0.9-1.9l-2.6-6
	c-0.1-0.2-0.1-0.4,0-0.6c0.1-0.2,0.3-0.2,0.5-0.2c0.3,0,0.5,0.1,0.6,0.4l2.1,5.2l2.1-5.2c0.1-0.2,0.2-0.3,0.2-0.3s0.2-0.1,0.4-0.1
	c0.2,0,0.4,0.1,0.4,0.2c0.1,0.2,0.1,0.3,0,0.5l-3.6,8.3c-0.1,0.2-0.2,0.3-0.3,0.3C133.3,76.6,133.2,76.6,133,76.6z M144.7,74.1
	c-0.3,0-0.6-0.2-0.7-0.5l-2.1-5.7c-0.1-0.2-0.1-0.4,0-0.6c0.1-0.1,0.3-0.2,0.5-0.2c0.1,0,0.3,0,0.3,0.1c0.1,0.1,0.2,0.2,0.2,0.4
	l1.8,5.1l1.8-5.1c0.1-0.3,0.3-0.5,0.6-0.5c0.3,0,0.5,0.2,0.6,0.5l1.8,5.1l1.8-5.2c0.1-0.2,0.1-0.3,0.2-0.3c0.1-0.1,0.2-0.1,0.4-0.1
	c0.2,0,0.4,0.1,0.4,0.3c0.1,0.2,0.1,0.3,0,0.5l-2.1,5.7c-0.1,0.4-0.4,0.5-0.7,0.5c-0.3,0-0.6-0.2-0.7-0.5l-1.8-4.8l-1.8,4.8
	C145.3,73.9,145,74.1,144.7,74.1z M156.8,74.1c-0.7,0-1.2-0.1-1.7-0.4c-0.5-0.3-0.9-0.7-1.1-1.2c-0.3-0.5-0.4-1.2-0.4-1.9
	c0-0.7,0.1-1.3,0.4-1.9c0.3-0.5,0.6-0.9,1.1-1.2c0.5-0.3,1.1-0.4,1.7-0.4c0.7,0,1.2,0.1,1.7,0.4c0.5,0.3,0.9,0.7,1.1,1.2
	c0.3,0.5,0.4,1.1,0.4,1.9c0,0.7-0.1,1.3-0.4,1.9c-0.3,0.5-0.6,0.9-1.1,1.2C158.1,74,157.5,74.1,156.8,74.1z M156.8,73.2
	c0.6,0,1.1-0.2,1.5-0.7c0.4-0.5,0.6-1.1,0.6-1.9c0-0.8-0.2-1.5-0.6-1.9c-0.4-0.4-0.9-0.7-1.5-0.7c-0.6,0-1.2,0.2-1.5,0.7
	c-0.4,0.4-0.6,1.1-0.6,1.9c0,0.8,0.2,1.5,0.6,1.9C155.7,73,156.2,73.2,156.8,73.2z M162.4,74.1c-0.4,0-0.6-0.2-0.6-0.6v-5.8
	c0-0.4,0.2-0.6,0.5-0.6c0.4,0,0.6,0.2,0.6,0.6v0.7c0.2-0.4,0.5-0.8,0.9-1c0.4-0.2,0.9-0.4,1.4-0.4c0.3,0,0.5,0.1,0.5,0.4
	c0,0.3-0.1,0.5-0.5,0.5l-0.2,0c-0.6,0.1-1.1,0.3-1.5,0.6c-0.3,0.3-0.5,0.8-0.5,1.4v3.4C162.9,73.9,162.7,74.1,162.4,74.1z
	 M167.4,74.1c-0.4,0-0.6-0.2-0.6-0.6v-8.9c0-0.4,0.2-0.6,0.6-0.6c0.4,0,0.6,0.2,0.6,0.6v5.6h0l2.9-2.7c0.1-0.1,0.2-0.2,0.3-0.3
	c0.1-0.1,0.2-0.1,0.4-0.1c0.2,0,0.4,0.1,0.4,0.3c0.1,0.2,0,0.3-0.1,0.5l-2.7,2.6l3,2.8c0.2,0.2,0.2,0.4,0.2,0.5
	c-0.1,0.2-0.2,0.3-0.4,0.3c-0.2,0-0.3,0-0.4-0.1c-0.1-0.1-0.2-0.2-0.4-0.3l-3.1-2.9h0v2.7C167.9,73.9,167.7,74.1,167.4,74.1z
	 M174.4,65.6c-0.5,0-0.7-0.2-0.7-0.7c0-0.5,0.2-0.7,0.7-0.7c0.5,0,0.7,0.2,0.7,0.7C175.1,65.3,174.9,65.6,174.4,65.6z M174.4,74.1
	c-0.4,0-0.6-0.2-0.6-0.6v-5.7c0-0.4,0.2-0.6,0.6-0.6c0.4,0,0.6,0.2,0.6,0.6v5.7C174.9,73.9,174.7,74.1,174.4,74.1z M177.6,74.1
	c-0.4,0-0.6-0.2-0.6-0.6v-5.8c0-0.4,0.2-0.6,0.5-0.6c0.4,0,0.6,0.2,0.6,0.6v0.7c0.2-0.4,0.5-0.8,1-1c0.4-0.2,0.9-0.3,1.4-0.3
	c1.6,0,2.4,0.9,2.4,2.7v3.8c0,0.4-0.2,0.6-0.6,0.6c-0.4,0-0.6-0.2-0.6-0.6v-3.7c0-0.6-0.1-1.1-0.4-1.4c-0.2-0.3-0.6-0.4-1.2-0.4
	c-0.6,0-1.1,0.2-1.5,0.6c-0.4,0.4-0.5,0.9-0.5,1.5v3.4C178.2,73.9,178,74.1,177.6,74.1z M188,76.6c-0.5,0-1-0.1-1.5-0.2
	c-0.5-0.1-0.9-0.3-1.3-0.5c-0.1-0.1-0.2-0.2-0.3-0.3c0-0.1,0-0.2,0.1-0.3c0.1-0.1,0.1-0.2,0.2-0.2c0.1,0,0.2,0,0.4,0
	c0.4,0.3,0.8,0.4,1.2,0.5c0.4,0.1,0.7,0.1,1.1,0.1c1.3,0,2-0.7,2-2.1v-1.2c-0.2,0.4-0.5,0.8-0.9,1c-0.4,0.2-0.9,0.4-1.4,0.4
	c-0.6,0-1.2-0.1-1.6-0.4c-0.5-0.3-0.8-0.7-1.1-1.2c-0.2-0.5-0.4-1.1-0.4-1.8s0.1-1.3,0.4-1.8c0.3-0.5,0.6-0.9,1.1-1.2
	c0.5-0.3,1-0.4,1.6-0.4c0.5,0,1,0.1,1.4,0.3c0.4,0.2,0.7,0.6,0.9,1v-0.7c0-0.4,0.2-0.6,0.6-0.6c0.4,0,0.6,0.2,0.6,0.6v5.8
	c0,1-0.3,1.8-0.8,2.4C189.8,76.4,189,76.6,188,76.6z M187.9,72.9c0.7,0,1.2-0.2,1.6-0.7c0.4-0.4,0.6-1.1,0.6-1.8s-0.2-1.4-0.6-1.8
	c-0.4-0.4-0.9-0.7-1.6-0.7c-0.6,0-1.2,0.2-1.5,0.7c-0.4,0.4-0.6,1-0.6,1.8s0.2,1.4,0.6,1.8C186.7,72.7,187.2,72.9,187.9,72.9z
	 M199.6,74.1c-0.7,0-1.2-0.1-1.7-0.4c-0.5-0.3-0.9-0.7-1.1-1.2c-0.3-0.5-0.4-1.2-0.4-1.9c0-0.7,0.1-1.3,0.4-1.9
	c0.3-0.5,0.6-0.9,1.1-1.2c0.5-0.3,1.1-0.4,1.7-0.4c0.7,0,1.2,0.1,1.7,0.4c0.5,0.3,0.9,0.7,1.1,1.2c0.3,0.5,0.4,1.1,0.4,1.9
	c0,0.7-0.1,1.3-0.4,1.9c-0.3,0.5-0.6,0.9-1.1,1.2C200.9,74,200.3,74.1,199.6,74.1z M199.6,73.2c0.6,0,1.1-0.2,1.5-0.7
	c0.4-0.5,0.6-1.1,0.6-1.9c0-0.8-0.2-1.5-0.6-1.9c-0.4-0.4-0.9-0.7-1.5-0.7c-0.6,0-1.2,0.2-1.5,0.7c-0.4,0.4-0.6,1.1-0.6,1.9
	c0,0.8,0.2,1.5,0.6,1.9C198.5,73,199,73.2,199.6,73.2z M205.2,74.1c-0.4,0-0.6-0.2-0.6-0.6v-5.8c0-0.4,0.2-0.6,0.5-0.6
	c0.4,0,0.6,0.2,0.6,0.6v0.7c0.2-0.4,0.5-0.8,1-1c0.4-0.2,0.9-0.3,1.4-0.3c1.6,0,2.4,0.9,2.4,2.7v3.8c0,0.4-0.2,0.6-0.6,0.6
	c-0.4,0-0.6-0.2-0.6-0.6v-3.7c0-0.6-0.1-1.1-0.4-1.4c-0.2-0.3-0.6-0.4-1.2-0.4c-0.6,0-1.1,0.2-1.5,0.6c-0.4,0.4-0.5,0.9-0.5,1.5v3.4
	C205.7,73.9,205.5,74.1,205.2,74.1z M218.3,74.1c-0.5,0-0.9-0.1-1.3-0.3c-0.4-0.2-0.7-0.4-0.9-0.8c-0.2-0.3-0.3-0.7-0.3-1.1
	c0-0.5,0.1-0.9,0.4-1.2c0.3-0.3,0.7-0.5,1.3-0.6c0.6-0.1,1.4-0.2,2.4-0.2h0.4v-0.4c0-0.6-0.1-1-0.4-1.2c-0.2-0.3-0.6-0.4-1.1-0.4
	c-0.3,0-0.7,0-1,0.1c-0.3,0.1-0.7,0.2-1,0.4c-0.2,0.1-0.3,0.1-0.4,0.1c-0.1-0.1-0.2-0.1-0.2-0.3c0-0.1,0-0.2,0-0.4
	c0-0.1,0.1-0.2,0.3-0.3c0.4-0.2,0.8-0.4,1.2-0.4c0.4-0.1,0.8-0.1,1.2-0.1c0.9,0,1.5,0.2,1.9,0.6c0.4,0.4,0.6,1.1,0.6,2v3.8
	c0,0.4-0.2,0.6-0.5,0.6c-0.4,0-0.5-0.2-0.5-0.6v-0.7c-0.2,0.4-0.5,0.7-0.8,1C219.2,74,218.8,74.1,218.3,74.1z M218.5,73.3
	c0.6,0,1-0.2,1.4-0.6c0.4-0.4,0.5-0.9,0.5-1.5v-0.4H220c-0.8,0-1.4,0-1.8,0.1c-0.4,0.1-0.7,0.2-0.9,0.4c-0.2,0.2-0.3,0.4-0.3,0.7
	c0,0.4,0.1,0.7,0.4,0.9C217.7,73.2,218,73.3,218.5,73.3z M225.9,74.1c-0.3,0-0.6-0.2-0.7-0.5l-2.1-5.7c-0.1-0.2-0.1-0.4,0-0.6
	c0.1-0.1,0.3-0.2,0.5-0.2c0.1,0,0.3,0,0.3,0.1c0.1,0.1,0.2,0.2,0.2,0.4l1.8,5.1l1.8-5.1c0.1-0.3,0.3-0.5,0.6-0.5
	c0.3,0,0.5,0.2,0.6,0.5l1.8,5.1l1.8-5.2c0.1-0.2,0.1-0.3,0.2-0.3c0.1-0.1,0.2-0.1,0.4-0.1c0.2,0,0.4,0.1,0.4,0.3
	c0.1,0.2,0.1,0.3,0,0.5l-2.1,5.7c-0.1,0.4-0.4,0.5-0.7,0.5c-0.3,0-0.6-0.2-0.7-0.5l-1.8-4.8l-1.8,4.8
	C226.5,73.9,226.2,74.1,225.9,74.1z M237.3,74.1c-0.5,0-0.9-0.1-1.3-0.3c-0.4-0.2-0.7-0.4-0.9-0.8c-0.2-0.3-0.3-0.7-0.3-1.1
	c0-0.5,0.1-0.9,0.4-1.2c0.3-0.3,0.7-0.5,1.3-0.6c0.6-0.1,1.4-0.2,2.4-0.2h0.4v-0.4c0-0.6-0.1-1-0.4-1.2c-0.2-0.3-0.6-0.4-1.1-0.4
	c-0.3,0-0.7,0-1,0.1c-0.3,0.1-0.7,0.2-1,0.4c-0.2,0.1-0.3,0.1-0.4,0.1c-0.1-0.1-0.2-0.1-0.2-0.3c0-0.1,0-0.2,0-0.4
	c0-0.1,0.1-0.2,0.3-0.3c0.4-0.2,0.8-0.4,1.2-0.4c0.4-0.1,0.8-0.1,1.2-0.1c0.9,0,1.5,0.2,1.9,0.6c0.4,0.4,0.6,1.1,0.6,2v3.8
	c0,0.4-0.2,0.6-0.5,0.6c-0.4,0-0.5-0.2-0.5-0.6v-0.7c-0.2,0.4-0.5,0.7-0.8,1C238.2,74,237.8,74.1,237.3,74.1z M237.5,73.3
	c0.6,0,1-0.2,1.4-0.6c0.4-0.4,0.5-0.9,0.5-1.5v-0.4H239c-0.8,0-1.4,0-1.8,0.1c-0.4,0.1-0.7,0.2-0.9,0.4c-0.2,0.2-0.3,0.4-0.3,0.7
	c0,0.4,0.1,0.7,0.4,0.9C236.7,73.2,237,73.3,237.5,73.3z M243.2,74.1c-0.4,0-0.6-0.2-0.6-0.6v-5.8c0-0.4,0.2-0.6,0.5-0.6
	c0.4,0,0.6,0.2,0.6,0.6v0.7c0.2-0.4,0.5-0.8,0.9-1c0.4-0.2,0.9-0.4,1.4-0.4c0.3,0,0.5,0.1,0.5,0.4c0,0.3-0.1,0.5-0.5,0.5l-0.2,0
	c-0.6,0.1-1.1,0.3-1.5,0.6c-0.3,0.3-0.5,0.8-0.5,1.4v3.4C243.7,73.9,243.5,74.1,243.2,74.1z M250.6,74.1c-1.1,0-1.9-0.3-2.5-0.9
	c-0.6-0.6-0.9-1.5-0.9-2.6c0-0.7,0.1-1.3,0.4-1.8c0.3-0.5,0.7-1,1.1-1.2c0.5-0.3,1.1-0.4,1.7-0.4c0.9,0,1.6,0.3,2.2,0.9
	c0.5,0.6,0.8,1.4,0.8,2.4c0,0.3-0.2,0.4-0.5,0.4h-4.6c0,0.8,0.3,1.4,0.7,1.8c0.4,0.4,1,0.6,1.7,0.6c0.3,0,0.6,0,0.9-0.1
	c0.3-0.1,0.6-0.2,0.9-0.4c0.2-0.1,0.4-0.2,0.5-0.1c0.1,0.1,0.2,0.2,0.2,0.4c0,0.2-0.1,0.3-0.3,0.4c-0.3,0.2-0.7,0.4-1.1,0.5
	C251.4,74.1,251,74.1,250.6,74.1z M250.4,67.9c-0.6,0-1.2,0.2-1.5,0.6s-0.6,0.9-0.7,1.6h4.1c0-0.7-0.2-1.2-0.5-1.6
	C251.5,68.1,251,67.9,250.4,67.9z M255.5,74.1c-0.4,0-0.6-0.2-0.6-0.6v-5.8c0-0.4,0.2-0.6,0.5-0.6c0.4,0,0.6,0.2,0.6,0.6v0.7
	c0.2-0.4,0.5-0.8,1-1c0.4-0.2,0.9-0.3,1.4-0.3c1.6,0,2.4,0.9,2.4,2.7v3.8c0,0.4-0.2,0.6-0.6,0.6c-0.4,0-0.6-0.2-0.6-0.6v-3.7
	c0-0.6-0.1-1.1-0.4-1.4c-0.2-0.3-0.6-0.4-1.2-0.4c-0.6,0-1.1,0.2-1.5,0.6c-0.4,0.4-0.5,0.9-0.5,1.5v3.4
	C256.1,73.9,255.9,74.1,255.5,74.1z M266,74.1c-1.1,0-1.9-0.3-2.5-0.9c-0.6-0.6-0.9-1.5-0.9-2.6c0-0.7,0.1-1.3,0.4-1.8
	c0.3-0.5,0.7-1,1.1-1.2c0.5-0.3,1.1-0.4,1.7-0.4c0.9,0,1.6,0.3,2.2,0.9c0.5,0.6,0.8,1.4,0.8,2.4c0,0.3-0.2,0.4-0.5,0.4h-4.6
	c0,0.8,0.3,1.4,0.7,1.8c0.4,0.4,1,0.6,1.7,0.6c0.3,0,0.6,0,0.9-0.1c0.3-0.1,0.6-0.2,0.9-0.4c0.2-0.1,0.4-0.2,0.5-0.1
	c0.1,0.1,0.2,0.2,0.2,0.4c0,0.2-0.1,0.3-0.3,0.4c-0.3,0.2-0.7,0.4-1.1,0.5C266.8,74.1,266.4,74.1,266,74.1z M265.8,67.9
	c-0.6,0-1.2,0.2-1.5,0.6c-0.4,0.4-0.6,0.9-0.7,1.6h4.1c0-0.7-0.2-1.2-0.5-1.6C266.9,68.1,266.4,67.9,265.8,67.9z M272.7,74.1
	c-0.4,0-0.8-0.1-1.3-0.2c-0.4-0.1-0.8-0.3-1.2-0.5c-0.2-0.1-0.3-0.2-0.3-0.4c0-0.2,0.1-0.3,0.2-0.4c0.1-0.1,0.3-0.1,0.5,0
	c0.4,0.2,0.7,0.4,1,0.5c0.3,0.1,0.7,0.1,1,0.1c0.5,0,0.9-0.1,1.2-0.3c0.3-0.2,0.4-0.5,0.4-0.8c0-0.3-0.1-0.5-0.3-0.6
	c-0.2-0.2-0.5-0.3-0.8-0.4l-1.3-0.3c-1.2-0.3-1.7-0.8-1.7-1.8c0-0.6,0.2-1.1,0.7-1.5c0.5-0.4,1.1-0.6,1.9-0.6c0.4,0,0.8,0.1,1.2,0.2
	c0.4,0.1,0.7,0.3,1,0.5c0.2,0.1,0.2,0.2,0.2,0.4c0,0.2-0.1,0.3-0.2,0.4c-0.1,0.1-0.3,0.1-0.4,0c-0.3-0.2-0.6-0.3-0.9-0.4
	c-0.3-0.1-0.6-0.1-0.9-0.1c-0.5,0-0.9,0.1-1.2,0.3c-0.3,0.2-0.4,0.5-0.4,0.8c0,0.5,0.3,0.9,1,1l1.3,0.3c0.6,0.1,1,0.3,1.4,0.6
	c0.3,0.3,0.5,0.7,0.5,1.1c0,0.6-0.2,1.1-0.7,1.5C274.2,73.9,273.5,74.1,272.7,74.1z M279.4,74.1c-0.4,0-0.8-0.1-1.3-0.2
	c-0.4-0.1-0.8-0.3-1.2-0.5c-0.2-0.1-0.3-0.2-0.3-0.4c0-0.2,0.1-0.3,0.2-0.4c0.1-0.1,0.3-0.1,0.5,0c0.4,0.2,0.7,0.4,1.1,0.5
	c0.3,0.1,0.7,0.1,1,0.1c0.5,0,0.9-0.1,1.2-0.3c0.3-0.2,0.4-0.5,0.4-0.8c0-0.3-0.1-0.5-0.3-0.6c-0.2-0.2-0.5-0.3-0.8-0.4l-1.3-0.3
	c-1.2-0.3-1.7-0.8-1.7-1.8c0-0.6,0.2-1.1,0.7-1.5c0.5-0.4,1.1-0.6,1.9-0.6c0.4,0,0.8,0.1,1.2,0.2c0.4,0.1,0.7,0.3,1,0.5
	c0.2,0.1,0.2,0.2,0.2,0.4c0,0.2-0.1,0.3-0.2,0.4c-0.1,0.1-0.3,0.1-0.4,0c-0.3-0.2-0.6-0.3-0.9-0.4c-0.3-0.1-0.6-0.1-0.9-0.1
	c-0.5,0-0.9,0.1-1.2,0.3c-0.3,0.2-0.4,0.5-0.4,0.8c0,0.5,0.3,0.9,1,1l1.3,0.3c0.6,0.1,1.1,0.3,1.4,0.6c0.3,0.3,0.5,0.7,0.5,1.1
	c0,0.6-0.2,1.1-0.7,1.5C280.9,73.9,280.2,74.1,279.4,74.1z M288,65.6c-0.5,0-0.7-0.2-0.7-0.7c0-0.5,0.2-0.7,0.7-0.7
	c0.5,0,0.7,0.2,0.7,0.7C288.8,65.3,288.5,65.6,288,65.6z M288,74.1c-0.4,0-0.6-0.2-0.6-0.6v-5.7c0-0.4,0.2-0.6,0.6-0.6
	c0.4,0,0.6,0.2,0.6,0.6v5.7C288.6,73.9,288.4,74.1,288,74.1z M291.3,74.1c-0.4,0-0.6-0.2-0.6-0.6v-5.8c0-0.4,0.2-0.6,0.5-0.6
	c0.4,0,0.6,0.2,0.6,0.6v0.7c0.2-0.4,0.5-0.8,1-1c0.4-0.2,0.9-0.3,1.4-0.3c1.6,0,2.4,0.9,2.4,2.7v3.8c0,0.4-0.2,0.6-0.6,0.6
	c-0.4,0-0.6-0.2-0.6-0.6v-3.7c0-0.6-0.1-1.1-0.4-1.4c-0.2-0.3-0.6-0.4-1.2-0.4c-0.6,0-1.1,0.2-1.5,0.6c-0.4,0.4-0.5,0.9-0.5,1.5v3.4
	C291.9,73.9,291.7,74.1,291.3,74.1z M309.9,74.1c-1.3,0-2.3-0.3-3-1c-0.7-0.7-1-1.7-1-3v-5.5c0-0.4,0.2-0.6,0.6-0.6
	c0.4,0,0.6,0.2,0.6,0.6V70c0,2,0.9,3.1,2.8,3.1c1.9,0,2.8-1,2.8-3.1v-5.4c0-0.4,0.2-0.6,0.6-0.6c0.4,0,0.6,0.2,0.6,0.6v5.5
	c0,1.3-0.3,2.3-1,3C312.2,73.8,311.2,74.1,309.9,74.1z M316,74.1c-0.2,0-0.4-0.1-0.5-0.2c-0.1-0.1-0.1-0.3,0-0.6l3.8-8.8
	c0.2-0.3,0.4-0.5,0.7-0.5c0.1,0,0.3,0,0.4,0.1c0.1,0.1,0.2,0.2,0.3,0.4l3.9,8.8c0.1,0.2,0.1,0.4,0,0.6c-0.1,0.1-0.2,0.2-0.4,0.2
	c-0.2,0-0.3,0-0.4-0.1c-0.1-0.1-0.2-0.2-0.3-0.4l-0.9-2.1h-5.1l-0.9,2.1C316.4,73.9,316.2,74.1,316,74.1z M320,65.5l-2.1,5h4.3
	L320,65.5L320,65.5z M327,74c-0.4,0-0.6-0.2-0.6-0.6v-8.6c0-0.4,0.2-0.6,0.6-0.6h5.2c0.3,0,0.5,0.2,0.5,0.5c0,0.3-0.2,0.5-0.5,0.5
	h-4.7v3.4h4.4c0.3,0,0.5,0.2,0.5,0.5c0,0.3-0.2,0.5-0.5,0.5h-4.4V73h4.7c0.3,0,0.5,0.2,0.5,0.5c0,0.3-0.2,0.5-0.5,0.5H327z
	 M343.7,74.1c-0.5,0-0.9-0.1-1.3-0.3c-0.4-0.2-0.7-0.4-0.9-0.8c-0.2-0.3-0.3-0.7-0.3-1.1c0-0.5,0.1-0.9,0.4-1.2
	c0.3-0.3,0.7-0.5,1.3-0.6c0.6-0.1,1.4-0.2,2.4-0.2h0.4v-0.4c0-0.6-0.1-1-0.4-1.2c-0.2-0.3-0.6-0.4-1.1-0.4c-0.3,0-0.7,0-1,0.1
	c-0.3,0.1-0.7,0.2-1,0.4c-0.2,0.1-0.3,0.1-0.4,0.1c-0.1-0.1-0.2-0.1-0.2-0.3c0-0.1,0-0.2,0-0.4c0-0.1,0.1-0.2,0.3-0.3
	c0.4-0.2,0.8-0.4,1.2-0.4c0.4-0.1,0.8-0.1,1.2-0.1c0.9,0,1.5,0.2,1.9,0.6c0.4,0.4,0.6,1.1,0.6,2v3.8c0,0.4-0.2,0.6-0.5,0.6
	c-0.4,0-0.5-0.2-0.5-0.6v-0.7c-0.2,0.4-0.5,0.7-0.8,1C344.7,74,344.2,74.1,343.7,74.1z M343.9,73.3c0.6,0,1-0.2,1.4-0.6
	c0.4-0.4,0.5-0.9,0.5-1.5v-0.4h-0.4c-0.8,0-1.4,0-1.8,0.1c-0.4,0.1-0.7,0.2-0.9,0.4c-0.2,0.2-0.3,0.4-0.3,0.7c0,0.4,0.1,0.7,0.4,0.9
	C343.1,73.2,343.5,73.3,343.9,73.3z M349.6,74.1c-0.4,0-0.6-0.2-0.6-0.6v-5.8c0-0.4,0.2-0.6,0.5-0.6c0.4,0,0.6,0.2,0.6,0.6v0.7
	c0.2-0.4,0.5-0.8,1-1c0.4-0.2,0.9-0.3,1.4-0.3c1.6,0,2.4,0.9,2.4,2.7v3.8c0,0.4-0.2,0.6-0.6,0.6c-0.4,0-0.6-0.2-0.6-0.6v-3.7
	c0-0.6-0.1-1.1-0.4-1.4c-0.2-0.3-0.6-0.4-1.2-0.4c-0.6,0-1.1,0.2-1.5,0.6c-0.4,0.4-0.5,0.9-0.5,1.5v3.4
	C350.2,73.9,350,74.1,349.6,74.1z M359.6,74.1c-0.6,0-1.1-0.1-1.6-0.4c-0.4-0.3-0.8-0.7-1-1.2c-0.2-0.5-0.4-1.2-0.4-1.9
	c0-0.7,0.1-1.4,0.4-1.9c0.3-0.5,0.6-0.9,1-1.2c0.5-0.3,1-0.4,1.6-0.4c0.5,0,1,0.1,1.4,0.3c0.4,0.2,0.7,0.6,0.9,1v-3.8
	c0-0.4,0.2-0.6,0.6-0.6c0.4,0,0.6,0.2,0.6,0.6v8.9c0,0.4-0.2,0.6-0.6,0.6c-0.4,0-0.6-0.2-0.6-0.6v-0.7c-0.2,0.4-0.5,0.8-0.9,1
	C360.6,74,360.1,74.1,359.6,74.1z M359.8,73.2c0.6,0,1.1-0.2,1.5-0.7c0.4-0.5,0.6-1.1,0.6-1.9c0-0.8-0.2-1.5-0.6-1.9
	s-0.9-0.7-1.5-0.7c-0.6,0-1.2,0.2-1.5,0.7c-0.4,0.4-0.6,1.1-0.6,1.9c0,0.8,0.2,1.5,0.6,1.9C358.6,73,359.2,73.2,359.8,73.2z
	 M369.3,65.6c-0.5,0-0.7-0.2-0.7-0.7c0-0.5,0.2-0.7,0.7-0.7c0.5,0,0.7,0.2,0.7,0.7C370,65.3,369.8,65.6,369.3,65.6z M369.3,74.1
	c-0.4,0-0.6-0.2-0.6-0.6v-5.7c0-0.4,0.2-0.6,0.6-0.6c0.4,0,0.6,0.2,0.6,0.6v5.7C369.9,73.9,369.7,74.1,369.3,74.1z M372.6,74.1
	c-0.4,0-0.6-0.2-0.6-0.6v-5.8c0-0.4,0.2-0.6,0.5-0.6c0.4,0,0.6,0.2,0.6,0.6v0.7c0.2-0.4,0.5-0.7,0.9-0.9c0.4-0.2,0.8-0.3,1.3-0.3
	c1.1,0,1.7,0.5,2,1.4c0.2-0.4,0.5-0.8,0.9-1c0.4-0.3,0.9-0.4,1.4-0.4c1.5,0,2.3,0.9,2.3,2.7v3.8c0,0.4-0.2,0.6-0.6,0.6
	c-0.4,0-0.6-0.2-0.6-0.6v-3.7c0-0.6-0.1-1.1-0.3-1.4c-0.2-0.3-0.6-0.4-1.1-0.4c-0.6,0-1,0.2-1.3,0.6c-0.3,0.4-0.5,0.9-0.5,1.6v3.4
	c0,0.4-0.2,0.6-0.6,0.6c-0.4,0-0.6-0.2-0.6-0.6v-3.7c0-0.6-0.1-1.1-0.3-1.4c-0.2-0.3-0.6-0.4-1.1-0.4c-0.6,0-1,0.2-1.3,0.6
	c-0.3,0.4-0.5,0.9-0.5,1.6v3.4C373.2,73.9,373,74.1,372.6,74.1z M384.5,76.6c-0.4,0-0.6-0.2-0.6-0.6v-8.4c0-0.4,0.2-0.6,0.5-0.6
	c0.4,0,0.6,0.2,0.6,0.6v0.7c0.2-0.4,0.5-0.7,0.9-1c0.4-0.2,0.9-0.4,1.4-0.4c0.6,0,1.1,0.1,1.6,0.4c0.5,0.3,0.8,0.7,1.1,1.2
	c0.3,0.5,0.4,1.1,0.4,1.9c0,0.7-0.1,1.3-0.4,1.9c-0.2,0.5-0.6,0.9-1.1,1.2c-0.4,0.3-1,0.4-1.6,0.4c-0.5,0-1-0.1-1.4-0.3
	c-0.4-0.2-0.7-0.6-0.9-1V76C385.1,76.4,384.9,76.6,384.5,76.6z M387.2,73.2c0.6,0,1.1-0.2,1.5-0.7c0.4-0.5,0.6-1.1,0.6-1.9
	c0-0.8-0.2-1.5-0.6-1.9c-0.4-0.4-0.9-0.7-1.5-0.7c-0.6,0-1.1,0.2-1.5,0.7c-0.4,0.4-0.6,1.1-0.6,1.9c0,0.8,0.2,1.5,0.6,1.9
	C386.1,73,386.6,73.2,387.2,73.2z M392.7,74.1c-0.4,0-0.6-0.2-0.6-0.6v-5.8c0-0.4,0.2-0.6,0.5-0.6c0.4,0,0.6,0.2,0.6,0.6v0.7
	c0.2-0.4,0.5-0.8,0.9-1c0.4-0.2,0.9-0.4,1.4-0.4c0.3,0,0.5,0.1,0.5,0.4c0,0.3-0.1,0.5-0.5,0.5l-0.2,0c-0.6,0.1-1.1,0.3-1.5,0.6
	c-0.3,0.3-0.5,0.8-0.5,1.4v3.4C393.3,73.9,393.1,74.1,392.7,74.1z M399.9,74.1c-0.7,0-1.2-0.1-1.7-0.4c-0.5-0.3-0.9-0.7-1.1-1.2
	c-0.3-0.5-0.4-1.2-0.4-1.9c0-0.7,0.1-1.3,0.4-1.9c0.3-0.5,0.6-0.9,1.1-1.2c0.5-0.3,1.1-0.4,1.7-0.4c0.7,0,1.2,0.1,1.7,0.4
	c0.5,0.3,0.9,0.7,1.1,1.2c0.3,0.5,0.4,1.1,0.4,1.9c0,0.7-0.1,1.3-0.4,1.9c-0.3,0.5-0.6,0.9-1.1,1.2C401.1,74,400.6,74.1,399.9,74.1z
	 M399.9,73.2c0.6,0,1.1-0.2,1.5-0.7c0.4-0.5,0.6-1.1,0.6-1.9c0-0.8-0.2-1.5-0.6-1.9c-0.4-0.4-0.9-0.7-1.5-0.7
	c-0.6,0-1.2,0.2-1.5,0.7c-0.4,0.4-0.6,1.1-0.6,1.9c0,0.8,0.2,1.5,0.6,1.9C398.8,73,399.3,73.2,399.9,73.2z M407.3,74.1
	c-0.3,0-0.6-0.2-0.7-0.5l-2.4-5.7c-0.1-0.2-0.1-0.4,0-0.6c0.1-0.2,0.3-0.2,0.5-0.2c0.3,0,0.5,0.1,0.6,0.4l2.1,5.2l2.1-5.2
	c0.1-0.2,0.1-0.3,0.2-0.3c0.1-0.1,0.2-0.1,0.4-0.1c0.2,0,0.4,0.1,0.4,0.2c0.1,0.2,0.1,0.3,0,0.5l-2.5,5.7
	C407.9,73.9,407.6,74.1,407.3,74.1z M414.9,74.1c-1.1,0-1.9-0.3-2.5-0.9c-0.6-0.6-0.9-1.5-0.9-2.6c0-0.7,0.1-1.3,0.4-1.8
	c0.3-0.5,0.7-1,1.1-1.2c0.5-0.3,1.1-0.4,1.7-0.4c0.9,0,1.6,0.3,2.2,0.9c0.5,0.6,0.8,1.4,0.8,2.4c0,0.3-0.2,0.4-0.5,0.4h-4.6
	c0,0.8,0.3,1.4,0.7,1.8c0.4,0.4,1,0.6,1.7,0.6c0.3,0,0.6,0,0.9-0.1c0.3-0.1,0.6-0.2,0.9-0.4c0.2-0.1,0.4-0.2,0.5-0.1
	c0.1,0.1,0.2,0.2,0.2,0.4c0,0.2-0.1,0.3-0.3,0.4c-0.3,0.2-0.7,0.4-1.1,0.5C415.8,74.1,415.3,74.1,414.9,74.1z M414.8,67.9
	c-0.6,0-1.2,0.2-1.5,0.6c-0.4,0.4-0.6,0.9-0.7,1.6h4.1c0-0.7-0.2-1.2-0.5-1.6C415.8,68.1,415.4,67.9,414.8,67.9z M427.4,74.1
	c-1,0-1.8-0.2-2.5-0.6c-0.7-0.4-1.2-1-1.6-1.8c-0.4-0.8-0.5-1.7-0.5-2.7c0-1,0.2-1.9,0.5-2.7c0.4-0.8,0.9-1.3,1.6-1.8
	c0.7-0.4,1.5-0.6,2.5-0.6c0.6,0,1.1,0.1,1.7,0.3c0.5,0.2,1,0.4,1.4,0.7c0.2,0.1,0.2,0.2,0.3,0.4c0,0.1,0,0.3-0.1,0.4
	c-0.1,0.1-0.2,0.2-0.3,0.2c-0.1,0-0.3,0-0.4-0.1c-0.7-0.5-1.5-0.8-2.4-0.8c-1.1,0-2,0.3-2.5,1c-0.6,0.7-0.9,1.7-0.9,3
	c0,1.3,0.3,2.3,0.9,3c0.6,0.7,1.4,1,2.5,1c0.9,0,1.8-0.3,2.4-0.8c0.2-0.1,0.3-0.2,0.4-0.1c0.1,0,0.2,0.1,0.3,0.2
	c0.1,0.1,0.1,0.2,0.1,0.4c0,0.1-0.1,0.3-0.2,0.4c-0.4,0.3-0.9,0.6-1.4,0.8C428.5,74,428,74.1,427.4,74.1z M435.4,74.1
	c-0.4,0-0.6-0.2-0.6-0.6v-8.4h-3.1c-0.4,0-0.5-0.2-0.5-0.5c0-0.3,0.2-0.5,0.5-0.5h7.5c0.4,0,0.5,0.2,0.5,0.5c0,0.3-0.2,0.5-0.5,0.5
	H436v8.4C436,73.9,435.8,74.1,435.4,74.1z M441.4,74.1c-0.4,0-0.6-0.2-0.6-0.6v-8.8c0-0.4,0.2-0.6,0.6-0.6h3.3
	c1.1,0,1.9,0.2,2.4,0.7c0.6,0.5,0.9,1.2,0.9,2.1c0,0.7-0.2,1.3-0.6,1.8c-0.4,0.5-1,0.8-1.7,0.9c0.4,0.1,0.8,0.5,1.1,1.1l1.3,2.5
	c0.1,0.2,0.1,0.4,0.1,0.6c-0.1,0.2-0.2,0.3-0.4,0.3c-0.2,0-0.3,0-0.4-0.1c-0.1-0.1-0.2-0.2-0.3-0.3l-1.5-2.8
	c-0.2-0.4-0.5-0.7-0.7-0.8c-0.3-0.1-0.6-0.2-1.1-0.2h-1.8v3.7C441.9,73.9,441.8,74.1,441.4,74.1z M441.9,68.9h2.6
	c1.5,0,2.3-0.6,2.3-1.9c0-1.3-0.8-1.9-2.3-1.9h-2.6V68.9z M450.6,68.7c-0.2,0-0.4-0.1-0.6-0.2c-0.1-0.1-0.2-0.3-0.2-0.6
	c0-0.2,0.1-0.4,0.2-0.6c0.1-0.1,0.3-0.2,0.6-0.2c0.2,0,0.4,0.1,0.5,0.2c0.1,0.1,0.2,0.3,0.2,0.6c0,0.2-0.1,0.4-0.2,0.6
	C451,68.6,450.8,68.7,450.6,68.7z M450.7,75.3c-0.1,0.2-0.3,0.2-0.4,0.2c-0.1,0-0.2-0.1-0.3-0.2c0-0.1,0-0.3,0.1-0.4
	c0.1-0.1,0.2-0.3,0.3-0.4s0.1-0.3,0.1-0.4c-0.2,0-0.4-0.1-0.5-0.2c-0.1-0.1-0.2-0.3-0.2-0.5c0-0.2,0.1-0.4,0.2-0.5
	c0.1-0.1,0.3-0.2,0.5-0.2c0.2,0,0.4,0.1,0.6,0.3c0.1,0.2,0.2,0.4,0.2,0.7c0,0.3,0,0.6-0.1,0.9C451.1,74.7,450.9,75,450.7,75.3z"/>
<g>
	<defs>
		<rect id="SVGID_1_" x="121" y="47" width="91" height="2"/>
	</defs>
	<clipPath id="SVGID_00000182508252546150770280000003855800235317954203_">
		<use xlink:href="#SVGID_1_"  style="overflow:visible;"/>
	</clipPath>
	<g style="clip-path:url(#SVGID_00000182508252546150770280000003855800235317954203_);">
		<path class="st0" d="M123.7,47.5c0,0-0.1,0-0.1,0.1C123.6,47.5,123.6,47.5,123.7,47.5C123.7,47.5,123.7,47.5,123.7,47.5z"/>
		<path class="st0" d="M208.8,47.2C208.8,47.2,208.8,47.2,208.8,47.2C208.9,47.2,208.9,47.2,208.8,47.2z"/>
		<path class="st0" d="M212,48L212,48C212,48.1,212,48.1,212,48L212,48z"/>
		<path class="st0" d="M169.6,48.7c-0.2-0.2,0.4-0.2,0-0.4C169.6,48.4,169.3,48.6,169.6,48.7z"/>
		<path class="st0" d="M152.3,48.7C152.3,48.7,152.3,48.7,152.3,48.7C152.4,48.7,152.4,48.7,152.3,48.7z"/>
		<path class="st0" d="M154.7,48.5c0,0,0.1,0,0.2,0c0,0,0,0,0,0C154.7,48.5,154.7,48.5,154.7,48.5z"/>
		<path class="st0" d="M157,48.5L157,48.5c-0.1,0-0.1,0-0.1,0L157,48.5z"/>
		<path class="st0" d="M201.8,47.3c0,0.1,0.1,0.1,0.1,0.2C201.9,47.3,202.2,47.2,201.8,47.3z"/>
		<path class="st0" d="M154.7,47.1l0.4,0C155,47.1,154.9,47.1,154.7,47.1z"/>
		<path class="st0" d="M185.3,47.3C185.2,47.3,185.2,47.3,185.3,47.3L185.3,47.3z"/>
		<path class="st0" d="M156.2,47.1c0.1,0.1,0.1,0.1,0.2,0.1l0,0L156.2,47.1z"/>
		<path class="st0" d="M211.7,48.1l0.2-0.1c0-0.3,0.2-0.6-0.3-0.8l-0.4,0.2l-0.1-0.2h0.3c-0.2-0.1-0.3,0-0.4,0.1
			c0-0.1-0.1-0.1-0.2-0.2l-0.4,0.3c0-0.1,0.2-0.2-0.1-0.3c-0.2,0.1,0.2,0.2-0.1,0.3c-0.2-0.1-0.1-0.2-0.3-0.1c0-0.1,0-0.1,0.1-0.2
			c-0.2,0.1-0.5,0-0.6,0.2c-0.2-0.2-0.6,0-0.6-0.2c0,0.1-0.3,0.2-0.5,0.2c0.3-0.3-0.6,0-0.6-0.4c-0.2,0.3-0.8,0.1-1.3,0.3
			c0,0,0.1-0.1,0.1-0.1c-0.2,0-0.3-0.1-0.4-0.2c0,0.2-0.4,0.3-0.6,0.4c-0.3-0.2,0.2-0.3,0.1-0.5c0,0.2-0.5,0.2-0.4,0.4
			c-0.2-0.2-0.2-0.1-0.3-0.3c0,0.3-0.2,0.1-0.4,0.2c-0.3-0.2-0.1-0.3-0.4-0.2c-0.2-0.1,0.1-0.2,0.1-0.2c-0.4,0-0.2,0.2-0.2,0.3
			c-0.4,0.1-0.2-0.2-0.3-0.3c-0.2,0.1-0.4,0.3-0.6,0.2c0,0,0-0.1,0-0.1c-0.3,0.2-0.8,0-1.1,0.2c0,0,0,0,0-0.1c0,0.1,0,0.2,0,0.3
			c-0.2,0-0.3,0.2-0.4,0c0.1,0,0.1-0.1,0.2-0.1l-0.2,0.1c-0.2-0.2,0.2-0.1,0.2-0.2c-0.3,0.1-0.7,0.2-0.9,0.2c0-0.2,0.6-0.1,0.2-0.2
			l0.4,0.1c-0.3-0.3,0.2,0,0-0.3c-0.5-0.1-0.6,0.1-1.1,0c-0.1,0.1,0,0.2-0.1,0.3c-0.7,0.2-0.6-0.5-1.1-0.2c-0.1,0.2-0.2,0.4-0.6,0.3
			l0.1-0.2c-0.5,0-0.3,0.3-0.8,0.2c0.1-0.1,0.4-0.1,0.3-0.1c-0.3-0.2-0.2,0.1-0.5,0.1l0-0.2c-0.5,0-1.1,0.2-1.7,0.2
			c0-0.1,0.1-0.1,0-0.2c-0.7,0.1-1.5,0-2.2-0.2l-0.3,0.2c-0.1,0-0.1-0.1,0-0.1c-0.3-0.1,0,0.1-0.2,0.2c-0.2,0-0.2-0.1-0.1-0.2
			c-0.5,0.2-1.4,0.3-1.9,0.1l0.1-0.1c-0.4-0.1-0.4,0.4-0.8,0.2l0.1,0c-0.9-0.1-1.8,0.1-2.4-0.2c-0.1,0.2-0.9-0.1-0.9,0.2
			c-0.5-0.2-0.4-0.2-1.1-0.4c-0.2,0-0.3,0.2-0.5,0.3v-0.2l-0.3,0.2l-0.2-0.2l-0.2,0.1c0.1,0,0.2,0.1,0.2,0.2
			c-0.3,0.1-0.8-0.1-0.8-0.2l-0.8,0.2c0-0.1,0.2-0.1,0.2-0.2c-0.4,0.2-0.1-0.2-0.4,0c0,0,0,0.1,0,0.2c-0.2-0.1-0.6-0.1-0.9-0.1
			l0.1-0.1c-0.6,0-1.2,0.1-1.9,0.1c0.2,0.1,0.2,0.3,0,0.3l-0.1-0.2c-0.1,0.1,0.2,0.1,0,0.2c-0.2,0-0.2-0.2,0-0.3l-0.4,0.1
			c0-0.1,0-0.1,0.1-0.2c-0.1,0.1-0.5-0.2-0.7,0v-0.1c-0.6,0-0.9,0.1-1.5,0.1c0,0.2-0.2,0.1-0.4,0.3c-0.4-0.1-0.8-0.2-1.3-0.2
			c-0.3,0.1-0.1,0.2-0.2,0.2c0-0.2-0.5-0.2-0.2-0.2c-0.6,0-0.7,0-1.4,0.2c0.1,0.1,0.2,0.1,0.1,0.2c-0.1,0-0.3-0.1-0.3-0.2l0,0
			c-0.8,0.2-1.9-0.5-2.5-0.1l0,0l-0.6,0.2c-0.3,0,0.2-0.1,0-0.2c-0.7,0.3-1.1,0-1.7,0.1c-0.4-0.5-1.6,0-2.2-0.3l0,0.1
			c-0.2,0.1-0.2-0.1-0.3-0.1c0,0.1,0.2,0.1,0.1,0.2c-1.3,0.1-2.8-0.2-4.2-0.2c-0.5,0-0.3,0.6-0.9,0.3l0.2-0.2c-1,0.2-2.1,0-3.1,0.2
			c0-0.1,0.1-0.1,0.2-0.1c-0.2-0.2-0.8,0-0.8,0.1c-0.2,0,0-0.1-0.1-0.2c-0.2-0.1-0.5,0.2-0.6,0c0,0,0-0.1,0.1-0.1
			c-0.1,0.1-0.6,0-0.5,0.2c-0.4-0.1-0.7,0.1-1,0c-0.2,0.2-0.6-0.1-0.7,0.2c0-0.3-0.6-0.2-0.9-0.1c0.1-0.1-0.2-0.1-0.1-0.2
			c-0.3,0-0.5,0.1-0.5,0.2c-0.5-0.3-1,0.3-1.3-0.2c-0.8,0.2-1.5,0.2-2.3,0.3c0-0.3,0.8,0,0.8-0.3c-0.3,0.1-0.6,0.1-0.9,0.2
			c0,0,0-0.1,0-0.1c0,0.1-0.1,0.1-0.2,0.1c-0.2-0.1-0.5,0.2-0.4-0.1h0.1c-0.1-0.2-0.5-0.2-0.8-0.2l0,0.2c-0.1,0-0.2,0-0.4,0
			c-0.3,0-0.5,0-0.8,0c0,0,0,0,0,0c0,0-0.1,0-0.2,0c0,0-0.1,0-0.1,0c-0.3,0-0.5,0.1-0.7,0v0c0,0,0,0,0,0c0,0-0.1-0.1-0.1-0.1
			c-0.2,0.1-0.4,0.1-0.6,0.2c0,0,0,0,0,0c0,0,0,0,0,0v-0.2c-0.5,0-0.7-0.1-1.3,0l0.1-0.1c-0.3,0-0.4,0.5-0.7,0.5l0-0.3
			c-0.6,0-1.2-0.2-1.8,0c0,0,0-0.1,0.1-0.1c-0.3,0-1.1-0.2-1,0.2c0-0.2-0.6,0-0.9,0.1l0-0.2c-0.3,0.2-0.3,0.3-0.6,0.3
			c-0.1,0-0.1-0.2,0-0.1c-0.3-0.1-0.2,0.2-0.6,0.1l0.1-0.1c-0.2,0-0.2,0-0.3,0l-0.1-0.1l0,0.2h0.1c0,0,0,0-0.1,0.1
			c-0.1,0-0.3,0-0.4,0c0-0.1,0.4,0,0.2-0.2c-0.2,0-0.3,0-0.4,0.1v0c0,0,0,0,0,0c-0.1,0-0.2,0-0.3,0.1c0,0,0,0,0,0
			c-0.5-0.1-0.8,0.2-1.1,0c0-0.1,0-0.1,0-0.1c0.4,0,0.7,0,0.7,0c0-0.2-0.3-0.2-0.1-0.4c-0.3,0.1-0.7,0.4-1.1,0.3c0,0,0,0,0-0.1
			l0-0.1c-0.1,0-0.1,0-0.2,0c-0.1,0-0.2,0-0.3,0c0-0.1-0.4-0.1-0.5-0.1c0,0.2-0.2,0.2,0,0.3c0,0,0,0,0.1,0c0,0,0,0,0.1,0
			c0.1,0,0.2,0,0.4,0c0,0-0.1,0.1-0.2,0.1c0,0-0.1,0-0.2,0c0,0-0.1,0-0.1,0c0,0,0,0,0,0.1c-0.1,0-0.2,0-0.4,0.1
			c-0.2-0.2-0.5-0.2-0.5-0.4c-0.4,0.1-1.1,0.1-1.4,0.3c-0.1,0-0.2,0-0.3,0c0,0,0,0,0-0.1c0.1,0,0.2,0,0.2-0.1
			c-0.3,0.1-0.8,0-0.9,0.2c0,0,0,0,0,0c-0.3-0.1,0.2-0.2-0.3-0.2l0.1-0.1c-0.6-0.2-1,0-1.5,0.2c-0.4,0.1-0.7,0.2-1.2,0
			c0.1,0,0.1,0,0.1,0.1c-0.2-0.1-0.4-0.1-0.5-0.1l-0.2-0.1c0.1,0,0.2,0.1,0.2,0.1l-0.4-0.1l0.1,0.1v0c-0.3,0-0.6,0-1,0v0
			c-0.1-0.1-0.3-0.1-0.2-0.2c-0.2,0.2-0.3-0.1-0.6,0.1c0-0.1-0.2,0-0.2-0.2c-0.3,0.1,0.1,0.1,0,0.2c-0.4,0.2-1-0.2-1.5,0
			c0,0,0,0,0,0l0-0.1l-0.3,0.2c-0.1,0-0.1,0-0.2,0.1c-0.4,0.1-0.8-0.4-1.3-0.2c0,0,0,0,0-0.1c0,0,0,0-0.1,0c0,0,0,0,0,0
			c0,0-0.1,0.1-0.1,0.1l0.1,0.1c0,0-0.1,0-0.2,0c0-0.1,0.1-0.2,0.2-0.2c-0.2,0.1-0.4,0.1-0.6,0.2c0,0-0.1,0,0-0.1c0,0,0,0,0,0.1
			c0-0.1,0.2-0.1,0.2-0.2c-0.3,0-0.6,0.1-0.8,0.2l-0.2,0.1c0,0,0,0-0.1,0c0.1-0.1,0.1-0.2,0-0.3c0,0.1-0.1,0.1-0.2,0.2
			c0-0.1,0.1-0.2-0.4-0.2c-0.1,0-0.3,0.1-0.4,0.2l-0.2,0c0,0,0,0.1,0,0.1v0c0.1,0,0.2,0.1,0.2,0.2L121,48c0,0,0-0.1,0-0.1l0,0.1h0
			c0,0.3-0.2,0.6,0.3,0.8l0.4-0.2l0.1,0.2h-0.3c0.2,0.1,0.3,0,0.4-0.1c0,0.1,0.1,0.1,0.2,0.2l0.4-0.3c0,0.1-0.2,0.2,0.1,0.3
			c0.2-0.1-0.2-0.2,0.1-0.3c0.2,0.2,0.1,0.2,0.3,0.1c0,0.1,0,0.1-0.1,0.2c0.2-0.1,0.5,0,0.6-0.2c0.2,0.2,0.6,0,0.6,0.2
			c0,0,0.3-0.2,0.5-0.2c-0.3,0.3,0.6,0,0.6,0.4c0.2-0.3,0.8-0.1,1.3-0.3c0,0-0.1,0.1-0.1,0.1c0.2,0,0.3,0.1,0.4,0.2
			c0-0.2,0.4-0.3,0.6-0.4c0.3,0.2-0.2,0.3-0.1,0.5c0-0.2,0.5-0.2,0.4-0.4c0.2,0.2,0.2,0.1,0.3,0.3c0-0.3,0.2-0.1,0.4-0.2
			c0.3,0.2,0.1,0.3,0.4,0.2c0.2,0.1-0.2,0.2-0.2,0.2c0.4,0,0.2-0.2,0.2-0.3c0.4-0.1,0.2,0.2,0.3,0.3c0.4,0,0.6-0.2,0.7-0.2
			c0,0,0,0.1,0,0.1c0.3-0.2,0.8,0,1.1-0.2c0,0,0.1,0,0.1,0.1c0,0,0-0.1,0-0.1h0.2c0-0.1,0.1-0.1,0.2-0.1c0,0.1,0,0.1-0.2,0.1h0v0
			c0,0,0,0,0,0.1c0.1,0,0.2-0.1,0.3-0.1v0c0.2,0,0.4-0.1,0.6-0.1c0,0.2-0.6,0.1-0.2,0.2l-0.4-0.1c0.3,0.3-0.2,0,0,0.3
			c0.5,0.1,0.6-0.1,1.1,0c0.1-0.1,0-0.2,0.1-0.3c0.7-0.2,0.6,0.5,1.1,0.2c0.1-0.1,0.2-0.3,0.4-0.3c0,0,0,0,0,0c0,0,0.1,0,0.2,0
			l-0.1,0.2c0.5,0,0.3-0.3,0.8-0.2c-0.1,0.1-0.4,0.1-0.3,0.1c0.3,0.2,0.2-0.1,0.5-0.1l0,0.2c0.5,0,1.1-0.2,1.7-0.2
			c0,0.1-0.1,0.1,0,0.2c0.7-0.1,1.5,0,2.2,0.2l0.3-0.2c0.1,0,0.1,0.1,0,0.1c0.2,0.1,0.1,0,0.1-0.1c0.1,0,0.1,0,0.2,0
			c0,0,0,0.1,0,0.1c0.3-0.1,0.8-0.2,1.3-0.2c0,0,0.1,0,0.1,0.1c0,0,0-0.1,0-0.1c0.1,0,0.2,0,0.3,0.1c0,0,0,0,0.1,0l-0.1,0
			c0.1,0,0.1,0,0.2,0c0.3,0.1,0.4-0.2,0.6-0.2c0,0,0,0,0,0l-0.1,0c0.1,0,0.3,0,0.4,0c0,0,0,0,0,0l0,0c0,0,0.1,0,0.1,0
			c0.2,0,0.4,0.1,0.4,0.2c0.2-0.1,0.1-0.1,0-0.2c0.4,0.1,0.6,0,1,0.1l0,0c0.2,0,0.4,0.1,0.6,0.1c0.1-0.2,0.3-0.1,0.5-0.1
			c0,0-0.1,0.1-0.2,0.1c0.4-0.2,0.7,0.1,0.9,0.1l-0.2,0.1c0.1,0,0.2,0,0.3,0l-0.1-0.2c0.1,0,0.2,0,0.2,0.1c0,0,0-0.1,0-0.1
			c0.1,0,0.2,0.1,0.4,0.1c0,0,0.1,0,0.1,0h0c0,0,0,0,0,0.1c0.2,0.1,0.3,0,0.4-0.1h0v0c0,0,0,0,0,0l0.1-0.1c0,0,0.1,0,0.2,0
			c-0.1,0.1,0.1,0.2,0.2,0.2c-0.1,0-0.1-0.1-0.1-0.1l0,0.1l0.2,0c-0.1,0-0.2-0.1-0.2-0.1c0,0,0.1,0,0.2,0c0,0,0.1,0,0.1,0
			c0.3,0,0.5,0.2,0.5,0.2l0.8-0.2c0,0.1-0.2,0.1-0.2,0.2c0.4-0.2,0.1,0.2,0.4,0c0,0,0-0.1,0-0.1c0,0,0.1,0,0.1,0c0,0,0.1,0,0.2,0
			c0.1,0,0.2,0.1,0.4,0c0.1,0,0.2,0,0.3,0l-0.1,0.1c0.2,0,0.4,0,0.6,0c0-0.1,0-0.1,0-0.2c0.3-0.1,0.6-0.2,1-0.1l-0.2-0.1
			c0.1-0.2,0.4,0,0.6-0.1c0,0.1,0.1,0.2,0.2,0.2c0-0.1,0.4,0,0.5-0.2l0.3,0.2c0.5,0.1,0.6-0.3,1-0.3c-0.1,0.1,0.1,0.2-0.2,0.3
			c0.2,0,0.3,0,0.3-0.1c0.1,0.1,0.4-0.2,0.6-0.1c0.1-0.1,0.1-0.2,0.2-0.2c0,0,0,0.1,0,0.1c0-0.1,0.3-0.1,0.1-0.2
			c0.5,0.4,1.3,0,1.7,0.3c0.3,0,0.8-0.1,1.1-0.1c0,0,0,0.1,0,0.1c0.4,0.1,0.3-0.3,0.8-0.2c0.2,0.2-0.2,0.1-0.1,0.2
			c0.1,0.4,0.6-0.1,0.9,0.2l-0.1,0c0.2,0.1,0.6-0.2,1-0.1c0,0,0,0,0,0.1c0.3-0.2,0.8-0.3,1.2-0.3c-0.1,0.2-0.2,0.1-0.1,0.2
			c0.2,0,0-0.2,0.3-0.3c0.1,0.1,0.4,0.2,0.4,0.3h-0.3c0.2,0.2,0.4,0,0.6,0l0,0.1c0.5,0,0.5-0.3,1.1-0.2l0-0.1c0.3-0.2,0.2,0.1,0.5,0
			l0.1,0.2c0.2-0.1,0.7-0.2,1.1-0.3c-0.2,0.2-0.6,0.3-0.9,0.4c0.2,0,0.6,0,0.8-0.1c-0.1,0-0.2,0.1-0.2,0c0.2-0.2,0.6-0.3,0.9-0.3
			c-0.1,0.5,1,0.1,1.3,0.5c0.7-0.2,1.4,0.1,2.1,0.1c-0.3-0.4,0.2,0,0.2-0.4c0.2,0,0.2,0,0.3,0l0,0c0,0,0,0,0,0l0.6,0.2
			c0.1,0.1-0.2,0.1-0.2,0.2c0.4,0,0.2,0.2,0.4,0.2c-0.1-0.1,0.1-0.2,0.4-0.1l-0.3-0.2c0.6-0.2,0.5,0.3,1.1,0.1l-0.2,0.1
			c0.3-0.1,1.1,0,1.4-0.3c0,0,0.1,0.2,0,0.2c0.7,0,1.6-0.3,2.1-0.1l0,0.1c0.1,0,0.2-0.2,0.4-0.1c0,0,0,0.1,0,0.1
			c0.1,0,0.4-0.2,0.5-0.1l-0.2,0.1c0.7,0.1,1.1-0.2,1.6-0.3c0,0.3,0.5,0.4,0.8,0.4v0c0.8,0,1.4-0.2,2.1-0.3c0.4,0.3,1.5,0.1,2.3,0.3
			c-0.1-0.1,0-0.2,0.2-0.2c0.2,0.1,0.5-0.2,0.4,0.1H183c0.1,0.2,0.5,0.2,0.8,0.2l0-0.3c0.7,0.5,1.9-0.2,2.3,0.2
			c0.2-0.1,0.4-0.1,0.6-0.2v0.2c0.5,0,0.7,0.1,1.3,0l-0.1,0.1c0.3,0,0.4-0.5,0.7-0.5l0.1,0.2c0.6,0,1.2,0.2,1.8,0c0,0,0,0.1-0.1,0.1
			c0.3,0,1.1,0.2,1-0.2c0,0.2,0.6,0,0.9-0.1l0,0.2c0.3-0.2,0.3-0.3,0.6-0.3c0.1,0,0.1,0.1,0,0.1c0.3,0.1,0.2-0.2,0.6-0.1l-0.1,0.1
			c0.3,0,0.3,0,0.4-0.2c0.2-0.1,0.6,0,0.6,0.2c0-0.1,0.2-0.2,0.4-0.2c0,0.1,0,0.1-0.1,0.1c0.5,0.1,0.8-0.2,1.1,0c0,0.1,0,0.1,0,0.1
			c-0.4,0-0.7,0-0.7,0c0,0.2,0.3,0.2,0.1,0.4c0.3-0.1,0.7-0.4,1.1-0.3c0,0,0,0,0,0.1l0,0c0.1,0,0.1,0,0.2,0c0.1,0,0.2,0,0.3,0.1
			c0,0.1,0.4,0.1,0.5,0.1c0-0.2,0.2-0.2,0-0.3c0,0,0,0-0.1,0c0,0,0,0-0.1,0c-0.1,0-0.2,0-0.4,0c0.1-0.1,0.3-0.2,0.4-0.1
			c0.1-0.1,0.2-0.2,0.2-0.3c0.2,0.2,0.6,0.4,0.7,0.5c0.5-0.1,1.2-0.1,1.5-0.4c0.2,0,0.2,0.1,0.2,0.2c-0.1,0-0.2,0-0.2,0.1
			c0.3-0.1,0.9,0,0.9-0.2c0.4,0.1-0.2,0.2,0.3,0.2l-0.1,0.1c1,0.4,1.6-0.6,2.6-0.1c-0.1,0-0.1,0-0.1-0.1c1.2,0.2,2.5-0.2,3.7,0.1
			c0.3,0.1,0.4-0.1,0.6-0.2l0.1,0.2l0.4-0.2c0.5-0.2,0.9,0.5,1.5,0.2l-0.1-0.1c0.2,0,0.7-0.1,0.7,0.1c0,0,0.1-0.1,0.2-0.1v0.1
			l0.6-0.2c0.4,0.1-0.1,0.4,0.6,0.4c0.2,0,0.7-0.3,0.6-0.3C211.9,48.3,211.7,48.2,211.7,48.1z M136.1,47.3
			C136.1,47.3,136,47.3,136.1,47.3C136.1,47.3,136.1,47.3,136.1,47.3c0.2-0.1,0.2-0.1,0.2,0C136.2,47.3,136.1,47.3,136.1,47.3z
			 M122.9,47.7C122.8,47.7,122.8,47.8,122.9,47.7L122.9,47.7C122.8,47.6,122.8,47.7,122.9,47.7z M122.5,47.7
			C122.5,47.7,122.5,47.7,122.5,47.7c0.1-0.1,0.2-0.1,0.2-0.1L122.5,47.7z M131,48.4c0-0.1,0-0.1,0-0.2c0,0,0.1,0,0.1,0
			C131.2,48.3,131.1,48.4,131,48.4z M137.2,48.4c0-0.1,0-0.1,0.1-0.1c0,0,0.1,0.1,0.2,0.1C137.4,48.4,137.4,48.4,137.2,48.4z
			 M195.7,47.7c0,0-0.1-0.1-0.2-0.1c0.1,0,0.2,0,0.3,0C195.8,47.6,195.8,47.7,195.7,47.7z M196.2,47.5c0.1,0,0.1,0,0.2,0
			C196.3,47.5,196.2,47.5,196.2,47.5z M196.9,48.7C196.9,48.7,197,48.7,196.9,48.7C196.9,48.7,196.9,48.7,196.9,48.7
			c-0.2,0.1-0.2,0.1-0.2,0C196.8,48.7,196.9,48.7,196.9,48.7z"/>
		<path class="st0" d="M197.1,48.5L197.1,48.5C197.1,48.5,197.1,48.5,197.1,48.5C197.1,48.5,197,48.5,197.1,48.5
			C197.1,48.5,197.1,48.5,197.1,48.5z"/>
		<path class="st0" d="M186,47.2L186,47.2L186,47.2L186,47.2z"/>
		<path class="st0" d="M128,47.5C128,47.6,128,47.6,128,47.5L128,47.5z"/>
		<path class="st0" d="M122.4,47.5C122.5,47.5,122.5,47.5,122.4,47.5L122.4,47.5z"/>
		<path class="st0" d="M122.3,47.6l0.2,0C122.4,47.5,122.3,47.5,122.3,47.6z"/>
		<path class="st0" d="M124.7,47.5c-0.1,0-0.3-0.1-0.5-0.1v0.1C124.3,47.4,124.6,47.6,124.7,47.5z"/>
		<path class="st0" d="M140.5,48.7l0.3-0.1L140.5,48.7L140.5,48.7z"/>
		<path class="st0" d="M156.6,48.6l0-0.2C156.4,48.5,156.4,48.7,156.6,48.6z"/>
		<path class="st0" d="M163.4,48.4c0.1,0.1,0.3,0.2,0.4,0.1C163.7,48.5,163.5,48.4,163.4,48.4z"/>
		<path class="st0" d="M184,48.8l0.3,0l-0.1,0L184,48.8z"/>
		<path class="st0" d="M124.2,48.8C124.2,48.8,124.2,48.8,124.2,48.8C124.1,48.8,124.1,48.8,124.2,48.8z"/>
		<path class="st0" d="M131.2,48.7c-0.1-0.1-0.1-0.1-0.1-0.2C131.1,48.7,130.8,48.7,131.2,48.7z"/>
		<path class="st0" d="M147.8,48.7L147.8,48.7C147.8,48.7,147.8,48.7,147.8,48.7z"/>
		<path class="st0" d="M135.9,47.5L135.9,47.5L135.9,47.5C135.9,47.5,135.9,47.5,135.9,47.5C135.9,47.5,135.9,47.5,135.9,47.5z"/>
		<path class="st0" d="M149,47.2l-0.3,0.1h0.1L149,47.2z"/>
	</g>
</g>
<rect y="0" class="st3" width="81" height="98"/>
<path class="st4" d="M13.8,38c1.2-0.8,2.4-1.3,3.8-1.8c-1.4-2.4-2.7-4.7-4.1-7.1c-2,1.9-3.5,4-4.7,6.4c-1.8,3.9,1.9,7.8,5.8,5.9
	c5.5-2.8,11-5.7,16.5-8.4c-1.4-2.5-2.8-4.9-4.2-7.4c-5.5,3.2-11,6.4-16.6,9.6c-4,2.4-1.4,9.5,3.3,7.7c6.3-2.3,12.6-4.5,18.9-6.9
	c-1.1-2.6-2.2-5.2-3.3-7.7c-6,2.9-11.7,6.2-17.2,9.9c-3.8,2.6-1.5,9.2,3.3,7.7c7.4-2.2,14.9-4.3,22.6-5.4c-0.7-2.6-1.4-5.3-2.2-7.9
	c-6.9,3-14,6-20.9,9.1c-4.8,2.1-1,8.4,3.3,7.7c9.2-1.3,18.4-2.7,27.4-4.4c-0.7-2.7-1.5-5.5-2.2-8.2c-6.5,1.6-12.8,3.3-19.2,5.1
	c-4.5,1.2-3.7,8.5,1.1,8.3c4.5-0.1,9-0.2,13.6-0.4c0-2.8,0-5.7,0-8.5c-7.2,0.9-14.4,1.7-21.6,2.6c-4.6,0.6-5.9,6.8-1.1,8.3
	c0.6,0.2,1.2,0.4,1.8,0.6c0-2.7,0-5.5,0-8.2c-0.4,0.1-0.8,0.3-1.2,0.4c1.7,1.7,3.5,3.5,5.2,5.2c0.2-1.3,0.4-2.4,0.4-3.7
	c-0.1-3.8-4.5-5.4-7.2-3c-2.8,2.5-7.1,6.5-5.7,10.7c1.4,4.1,6.7,5.1,10.5,5.6c-1-0.4-2-0.9-3-1.2c2.8,3.4,10.1,2.5,14,2.7
	c0-2.8,0-5.7,0-8.5c-5.5,0-11,0-16.6,0c-5.4,0-5.4,8.4,0,8.5c4,0,8,0.4,11.9,1c0-2.7,0-5.5,0-8.2c-2,0.8-3.9,1.3-6,1.7
	c-4.7,0.9-3.6,8.5,1.1,8.3c8.3-0.3,17.5-1.6,25.8-0.1c3.5,0.7,6.7,1.6,10.3,1.7c3.9,0.1,7.9-0.8,11.7-1.5c2.6-0.6,3.9-4.1,2.5-6.2
	c-2.3-3.5-2.8-7.5-3.7-11.4c-0.8-3.9-2.2-7.5-4-11c-2-4-3.7-7.9-4.6-12.4c-0.5-2.3-0.7-4.6-0.7-7c0-2.1,0.6-4.4,0.1-6.5
	c-1.8-8.2-11-2.6-14.7,0.7c-3,2.6-5.7,5.7-8.8,8.1c-3.6,2.8-7.5,5.4-11.3,7.9c1.4,2.5,2.8,4.9,4.2,7.4c4.2-3.2,8.3-6.4,12.5-9.6
	c3-2.3,7-4.4,7.8-8.4c0.7-3.9-2.8-6.3-6.2-4.8c-8.4,3.8-21.9,9.1-22.8,19.8c-0.3,2.7,2.9,4.8,5.3,4.1c8.4-2.4,16.5-5.8,24.2-9.9
	c-1.7-2.3-3.4-4.4-5.2-6.7c-3.3,2.7-6.6,5.5-9.8,8.3c-2.5,2.1-4.7,4.1-5.4,7.4c-0.6,2.4,0.7,4.3,2.9,5.2c3.5,1.5,6.5,0.6,9.8-0.5
	c4.1-1.3,8.2-2.7,12.4-4.1c5.2-1.7,3-9.8-2.2-8.2c-5.5,1.7-10.9,4.1-15.7,7.1c-3.1,1.9-2.5,6.7,1,7.7c4.2,1.2,8.5,1.9,12.9,2
	c-0.7-2.6-1.4-5.3-2.2-7.9c-4.3,2.2-10.4,4-13.4,7.8c-1.8,2.3-1.6,6.5,1.9,7.1c2.2,0.4,4.3,0.7,6.5,0.9c-0.4-2.7-0.7-5.6-1.1-8.3
	c-4.3,0.9-8.7,1.7-13,2.6c-4.6,0.9-3.7,8.8,1.1,8.3c2.2-0.2,4.2-0.4,6.4-0.6c-0.4-2.7-0.7-5.6-1.1-8.3c-1.8,0.7-3.5,1.3-5.2,1.9
	c-3.7,1.3-4.3,7.2,0,8.2c3.3,0.8,6.6,1.4,9.9,1.9c3.7,0.5,5.6,0.8,8.7,2.9c3.6,2.6,8.2,3.8,11.5,0.1c2.8-3.2,2.3-8-0.4-11.2
	c-3.5-3.9-9.2-4.6-14-5c0.4,2.7,0.7,5.6,1.1,8.3c3.8-1.1,6.9-2.9,9.9-5.6c1.7-1.4,1.6-4.5,0-6c-2.4-2.4-5.2-3.5-8.6-3.4
	c0.4,2.7,0.7,5.6,1.1,8.3c0.8-0.3,1.7-0.6,2.5-0.9c2.8-0.9,3.7-3.7,2.5-6.2c-0.2-0.4-0.3-0.7-0.5-1c0.2,1.1,0.3,2.2,0.5,3.3
	c1.1-4.7,1.7-9.5,1.6-14.5c-0.1-2.6-2.6-5-5.3-4.1c-4.9,1.6-8.4,5.2-9.5,10.4c-1,5.4,7.1,7.7,8.1,2.3c0.5-2.2,1.3-3.7,3.6-4.4
	c-1.8-1.3-3.6-2.7-5.3-4.1c0.1,3.3-0.1,6.5-0.7,9.7c-0.6,2.7-0.8,4.2,0.3,6.8c0.8-2.1,1.7-4.2,2.5-6.2c-0.8,0.3-1.7,0.6-2.5,0.9
	c-4.3,1.5-3.8,8.5,1.1,8.3c1-0.3,2,0.1,2.6,0.9c0-2,0-4,0-6c-1.9,1.6-3.8,2.6-6.3,3.4c-4.7,1.4-3.6,8,1.1,8.3
	c1.6,0.1,3.3,0.3,4.9,0.8c0.7,0.2,2.1,1.2,2.8,1.2c3.1,0.1-0.7-2-1.2-2.5c-0.8-0.7-1.7-1.2-2.6-1.7c-2.2-1-4.6-1.1-6.8-1.4
	c-3.5-0.4-6.9-1.1-10.3-1.9c0,2.7,0,5.5,0,8.2c1.8-0.7,3.5-1.3,5.2-1.9c4.1-1.5,3.9-8.8-1.1-8.3c-2.2,0.2-4.2,0.4-6.4,0.6
	c0.4,2.7,0.7,5.6,1.1,8.3c4.3-0.9,8.7-1.7,13-2.6c5-0.9,3.3-7.9-1.1-8.3c-1.4-0.1-2.8-0.3-4.2-0.6c0.7,2.4,1.2,4.7,1.9,7.1
	c2.4-3.1,8.2-4.7,11.7-6.5c3.9-2,1.8-7.8-2.2-7.9c-3.7-0.1-7.2-0.7-10.8-1.7c0.4,2.6,0.7,5.2,1,7.7c4.4-2.6,8.9-4.7,13.8-6.2
	c-0.7-2.7-1.5-5.5-2.2-8.2c-2.9,0.9-5.9,1.9-8.8,2.9C40.1,30,36.4,32,33.8,31c0.9,1.7,2,3.5,2.9,5.2c0.6-2.4,4.3-4.5,6.1-6
	c2.3-2,4.7-4,7-6c3.7-3.2-1-8.9-5.2-6.7c-7,3.9-14.4,6.9-22.1,9.1c1.8,1.3,3.6,2.7,5.3,4.1c0.3-3.2,6.1-6.1,8.6-7.6
	c3.2-1.9,6.6-3.4,10-4.9c-2.1-1.6-4.1-3.2-6.2-4.8c-0.2,0.9-3.3,2.8-3.9,3.3c-1.4,1-2.8,2.2-4.2,3.2c-2.8,2.2-5.6,4.3-8.3,6.4
	c-4.2,3.2-0.4,10.4,4.2,7.4c4.7-2.8,9.4-6,13.8-9.6c3-2.5,8-9.7,12.1-10c-1-0.4-2-0.9-3-1.2c0.2,0.2,0.4,0.5,0.6,0.7
	c-0.4-1-0.8-2-1.2-3c0.2,4.6-0.3,9,0.5,13.5c0.7,4.6,2.3,9.1,4.4,13.3c2,4.2,3.7,7.9,4.7,12.5c0.9,4.5,1.8,8.9,4.3,12.8
	c0.8-2.1,1.7-4.2,2.5-6.2c-4,0.9-8.1,1.7-12.4,1c-3.2-0.5-6.3-1.4-9.6-1.7C37,54.9,28.8,55.8,21.1,56c0.4,2.7,0.7,5.6,1.1,8.3
	c2.1-0.4,4-0.9,6-1.7c3.5-1.3,4.5-7.5,0-8.2c-4.7-0.8-9.4-1.2-14.1-1.3c0,2.8,0,5.7,0,8.5c5.5,0,11,0,16.6,0s5.3-8.1,0-8.5
	c-2.4-0.2-6,0-8.1-0.5c-0.3-0.1-5.8-1.7-5.9-2c0.2,1.1,0.3,2.2,0.5,3.3c0.6-1.6,2.5-3.1,3.7-4.2c-2.4-1-4.8-2-7.2-3
	c0,0.5,0,0.9,0,1.5c-0.6,3,1.9,6.2,5.2,5.2c0.4-0.1,0.8-0.3,1.2-0.4c4.1-1.2,3.9-6.9,0-8.2c-0.6-0.2-1.2-0.4-1.8-0.6
	c-0.4,2.7-0.7,5.6-1.1,8.3c7.2-0.9,14.4-1.7,21.6-2.6c5.2-0.7,5.5-8.6,0-8.5c-4.5,0.1-9,0.2-13.6,0.4c0.4,2.7,0.7,5.6,1.1,8.3
	c6.4-1.8,12.8-3.5,19.2-5.1c5.3-1.3,3-9.2-2.2-8.2c-9.1,1.7-18.3,3.2-27.4,4.4c1.1,2.6,2.2,5.2,3.3,7.7c6.9-3,14-6,20.9-9.1
	c3.7-1.6,2-8.5-2.2-7.9c-8.5,1.1-16.7,3.3-24.8,5.7c1.1,2.6,2.2,5.2,3.3,7.7c5.5-3.7,11.2-7,17.2-9.9c4.2-2.1,1.2-9.5-3.3-7.7
	c-6.4,2.5-12.7,4.7-19,7.1c1.1,2.6,2.2,5.2,3.3,7.7c5.5-3.2,11-6.4,16.6-9.6c4.7-2.7,0.6-9.8-4.2-7.4c-5.5,2.8-11,5.7-16.5,8.4
	c2,2,3.8,3.9,5.8,5.9c0.8-1.9,1.9-3.3,3.4-4.7c2.9-2.8-0.1-8.4-4.1-7.1c-2.1,0.7-3.9,1.5-5.8,2.6C4.9,33.4,9.1,40.7,13.8,38z"/>
<path class="st5" d="M2.2,34.6c0.5,9.4,2.2,18.5,5.4,27.3c1.8-1,3.7-2.2,5.4-3.2c-5.2-5.2-4.8-12.6-4.6-19.5c0.2-4.3-6.4-4.3-6.6,0
	C1.6,48,2,56.8,8.4,63.3c2.2,2.3,6.6,0,5.4-3.2c-3-8.3-4.8-16.7-5.2-25.5C8.5,30.3,2,30.3,2.2,34.6z"/>
<path class="st5" d="M57.3,4.4c1.1,4.6,2.3,9.1,3.8,13.5c1.6,4.7,2.2,9.7,3.7,14.6c1.3,4.7,2.7,9.4,4.1,14.1
	c0.7,2.3,1.3,4.5,2.1,6.8c0.8,2.4,2.8,5.1,2.7,7.7c1.8-0.5,3.5-0.9,5.2-1.4C72.1,47.1,69.7,34.1,67,20.2c-0.7-3.6-6.1-2.1-5.4,1.5
	c1.3,7.3,2.3,14.6,4.3,21.8c1.9,6.7,4.8,12.9,8.1,19c1.4,2.6,5.2,1.3,5.2-1.4c0.2-4.4-2.7-8.4-4-12.6C73.6,43.3,72,38,70.5,32.7
	c-1.4-4.8-2.1-9.9-3.6-14.7c-1.6-5-3.1-9.8-4.3-14.9C61.8-0.7,56.5,0.9,57.3,4.4z"/>
<path class="st5" d="M18.4,67.9c2.6,5.7,4.8,11.4,6.9,17.3c1.2,3.2,3.2,8.1,6.8,9.1c2.7,0.8,5.1-1.4,4.8-4.2
	c-0.1-1.6-1.1-2.9-2.1-4.2c-2.1-2.8-4.1-5.1-5.2-8.5c-1.1-3.9-1-10.1-4-13c-2.2-2.1-5.7-1.3-6.9,1.4c-1.7,3.8,1.5,9.4,2.7,12.9
	c1.7,4.9,3.5,9.7,6.6,13.9c2.2,2.8,7,0,4.9-2.8c-3.7-4.9-5.4-10.7-7.4-16.4c-0.6-1.6-0.6-3.9-2.4-3.9c-2.1,0-0.7,1.4-0.3,2.9
	c0.7,2.9,1.1,6,2.2,8.8c0.8,2.2,2,4.1,3.5,5.9c0.5,0.7,1,1.2,1.5,1.8c1-0.2,2.1-0.4,3.2-0.6c0.1-0.7-2.2-4.1-2.7-5.2
	c-2.2-6-4.5-12-7.3-17.9C21.7,61.8,16.9,64.6,18.4,67.9z"/>
<path class="st6" d="M67.5,26.8c4.6,3.2,4.7,8.6,4,13.6c-0.5,3.3,4.6,3.6,5.5,0.8c2.2-6.4-0.2-17.6-7.9-19.2
	c-3.2-0.7-4.8,3.3-2.2,5.2c1.6,1.1,3,2.4,4.3,3.9c1.5,1.8,1.4,3.3,0.7,5.5c-1.1,3.5,4.3,5,5.4,1.5c2.1-6.5-0.4-13-7-15.4
	c-3.5-1.2-4.9,4.3-1.5,5.5c3.8,1.3,4.2,5,3.1,8.4c1.8,0.5,3.7,1,5.4,1.5c0.9-3,1.2-6.3-0.6-9c-1.8-2.7-4.4-4.9-7-6.8
	c-0.7,1.7-1.4,3.5-2.2,5.2c4.5,0.9,5.1,8.7,3.9,12.2c1.9,0.3,3.7,0.5,5.5,0.8c0.9-7.3-0.6-14.2-6.8-18.5
	C67.3,19.8,64.5,24.8,67.5,26.8z"/>
<path class="st1" d="M59.6,0c-0.1,0.1-0.3,0.1-0.4,0.3c-0.5,0-0.8,0.3-1.2,0.5c0-0.1-0.1-0.1-0.3-0.1c-0.1,0.1-0.2,0.3-0.4,0.3
	c-0.1,0-0.3,0-0.3,0c-0.1,0-0.3,0-0.3,0.1c-0.1,0-0.1,0.1-0.3,0.3c-0.1,0.3-0.1,0.4-0.3,0.7c0,0,0-0.1-0.1-0.3c0,0,0,0-0.1,0
	c0,0-0.1,0-0.3,0v0.1c0,0.9,0.1,1.8,0.3,2.6c-0.2,0.1-0.4,0.3-0.7,0.3c-0.3,0-0.4,0-0.5,0c0,0-0.1,0-0.3,0c0.5-0.3,0.8-0.5,1.2-0.9
	c-0.8,0.5-1.9,0.9-2.7,1.2c-0.3,0.1-0.5,0.1-0.7,0.3c-6.1,1.5-11.5,4.2-16.4,8c-0.4,0.1-0.7,0.4-1,0.5c-1.5,1-2.9,2.2-4.1,3.5
	c-0.1,0-0.1,0-0.1,0.1c-1.5,1.2-3,2.6-4.2,4.2c-1.5,0.8-2.7,1.5-4.1,2.3c0.1-0.1,0.1-0.3,0.3-0.4c-3.3,1.5-6.6,3.1-10.1,4.4
	c-2.9,0.8-5.9,1.4-9,1.8c0.1,0.1,0.1,0.1,0.1,0.1c0.8,0,1.6,0,2.3,0c0,0.1,0,0.1,0,0.1c-0.1,0-0.3,0-0.3,0.1
	c-0.4,0.1-0.7,0.4-1.2,0.4c-0.1,0-0.1,0-0.1,0c0.1,0,0.1,0,0.3,0c0-0.1,0-0.1-0.1-0.3c-0.1,0-0.3,0-0.4-0.1c0,0.1-0.1,0.1-0.1,0.1
	c-0.3,0-0.5,0.3-0.7,0.3c-1,1-1.6,2.3-1.9,3.8c-0.1,0.1-0.1,0.3-0.1,0.4c0,0.3-0.1,0.4-0.3,0.7c-0.1,0.3-0.4,0.4-0.5,0.8
	c-0.3,1-0.5,2.2-0.5,3.4c-0.3,2-0.3,4.2,0.1,6.3c0.1,0.1,0.1,0.1,0.1,0.1c0,1.2,0.3,2.3,0.4,3.3c0,0.4,0,0.7,0,1
	c0,0.4,0,0.9,0.1,1.4c0.1,2,0.7,3.8,1.4,5.6c0,0.1,0,0.3,0.1,0.4c0.8,1.6,1.9,3,3,4.4c0.7,0.7,1.4,1.2,2,1.6
	c1.1,1.9,2.5,2.9,4.4,2.7c0.5,0.1,0.8,0,1.4,0c-0.1,0-0.3,0.1-0.3,0.3c0,0,0.1,0,0.1,0.1c0.1,0,0.3,0,0.4,0c0.5-0.4,1.1-0.7,1.8-0.8
	c0.5-0.3,1-0.4,1.6-0.4c0,1.8,0.4,3.5,0.8,5.3c0.1,0,0.1,0,0.1,0.1c0.3,0.5,0.4,1,0.7,1.5c0.1,0.4,0.1,0.8,0.3,1c0,0.4,0,0.8,0,1.1
	c0,0.1,0.1,0.1,0.3,0.3c0,0.4,0.1,0.8,0.3,1.1c2,6,4.8,11.8,8.3,17.2c0.1,0,0.3,0,0.4,0c0.5,1.6,1.5,3,3,4.1c1.4,1,2.6,1.1,3.7,0.3
	c0-0.3-0.1-0.4-0.1-0.5c0.7-0.1,1.1-0.1,1.6-0.4c0.3-0.5,0.7-1,1-1.4c0,0,0,0,0-0.1c1.4-1.8,1.8-3.9,1-6.3c0-0.1,0-0.3,0-0.4
	c-0.1,0-0.3-0.1-0.3-0.3c-0.1,0-0.1,0-0.1,0c-0.1,0.1-0.1,0.1-0.3,0.1c-0.1-0.3-0.4-0.7-0.5-0.9c-1.1-1.5-2.3-2.9-3.7-4.1
	c-0.7-1.4-1.6-2.6-2.3-4.1c-1.5-5.2-2.7-10.5-3.8-15.8c1.2-0.1,2.5-0.3,3.7-0.5c1,0.1,2,0.3,3,0.4c0,0-0.1,0-0.3,0.1l0.1,0.1
	c0.1-0.1,0.4-0.3,0.5-0.3c2.3,0.1,4.6,0.4,6.8,0.7c-0.3,0.1-0.4,0.3-0.7,0.5c0.1,0.1,0.1,0.1,0.3,0.1c0.3-0.3,0.7-0.4,1-0.5
	c2.3,0.3,4.8,0.7,7.1,1.1c2.3,0.4,4.6,0.9,7,1.4c3.1,0.9,6,0.8,8.6-0.3c2.3-0.1,4.6-0.9,6.6-2.3c-1.4,0.5-2.9,0.9-4.4,1.1
	c1.1-0.3,2.3-0.7,3.5-1c0.3-0.1,0.5-0.1,0.7-0.1c1.1-0.1,2-0.7,2.7-1c0.1,0.3,0.3,0.3,0.3,0.5c-0.1,0.4-0.1,0.5-0.1,0.8
	c-0.1,0.1-0.1,0.3-0.3,0.3c0,0.1,0,0.1,0,0.3c0,0,0,0.1,0.1,0.1c0.4,0,0.7,0.3,1.2,0.3c0.3,0.7,0.7,0.8,1.1,0.8
	c-0.1-0.1-0.1-0.3-0.1-0.4h0.2c0-0.1,0-0.3-0.1-0.4c0.5,0.3,1.1,0.4,1.8,0.4c-0.1,0.3-0.3,0.3-0.3,0.4c-0.4,0.1-0.7,0-0.8,0
	c0,0.5,0.3,0.8,1,0.5c0.3-0.3,0.5-0.5,0.7-0.9c0.1,0,0.3,0,0.5,0c0.1-0.1,0.4-0.4,0.4-0.7c0.1-0.3,0.1-0.4,0.3-0.5
	c1.8-1,2.2-2.6,1.8-4.8c-0.3-0.2-0.3-0.2-0.5-0.3c-0.1-0.3-0.4-0.4-0.5-0.5c0-2.9-0.7-5.6-2-8.2c-0.1-1.1-0.5-2.3-0.8-3.3
	c-0.5-1.4-1-2.6-1.5-4.1c0,0.1,0.1,0.1,0.3,0.1c0,0,0.1,0,0.3-0.1c0,0,0,0,0.1-0.1c0,0,0-0.1,0.1-0.1c0-0.1,0-0.3,0.1-0.4
	c2.3-2.2,3.4-5,3.3-8.4c-0.5-6.9-4.1-11.6-10.8-13.8c-0.5-0.1-0.7-0.1-1.1-0.1c-0.5-1.6-1-3.1-1.5-4.6c-0.1-0.8-0.3-1.4-0.4-2.2
	c-0.4-2.4-1-4.6-1.9-6.9c-0.7-2.2-1.5-4.3-2.2-6.4c-0.2,0-0.2,0.2-0.3,0.3C61.1,0.2,60.4-0.1,59.6,0z M58.9,1.5c0,0.1,0,0.3,0.1,0.5
	c0,0.1,0,0.1,0.1,0.3c0.1-0.1,0.3-0.1,0.3-0.1c0.4-0.4,0.8-0.5,1.5-0.1c0.1,0.3,0.4,0.8,0.5,1.1c0.7,1.6,1.5,3.3,2,4.9
	c0.5,1.8,1,3.5,1.4,5.3c0.1,0.8,0.4,1.5,0.5,2.3c0.1,0.1,0.1,0.3,0.1,0.4c0.5,2,1,4.2,1.4,6.3c0.4,1.9,0.7,3.5,1.2,5.3
	c-0.3,0.4-0.4,0.7-0.5,1c0.3-0.3,0.4-0.4,0.7-0.5c1.1,4.1,2.5,8,4.2,11.8c-0.8-1-1.6-2.2-2.2-3.5c0.5,1.9,1.4,3.7,2.6,5.4
	c0.1,0.4,0.3,0.9,0.7,1.2c0.3,1.1,0.7,2.2,1,3.3c0.7,1.6,1.1,3.3,1.8,4.9c-0.1,0-0.3-0.1-0.3-0.3c0,0.1,0,0.3,0,0.3
	c0.3,0.7,0.5,1.2,0.8,1.9c0,0.4,0.1,0.8,0.1,1.2c0.1-0.1,0.3-0.1,0.4-0.1c0.1,0.1,0.3,0.1,0.4,0.1c0.1,0.7,0.3,1.1,0.4,1.6v0.1
	c-0.3,0.5-0.3,1.4,0.1,2.3c0,1-0.1,2-0.3,2.9c-0.8,0.7-1.9,1.2-2.7,1.6c-0.1-0.1-0.3-0.3-0.4-0.4c0-0.1,0-0.1,0-0.1
	c0.1-0.1,0.1-0.3,0.3-0.4c0,0,0-0.1-0.1-0.1c0.3,0.1,0.4,0.3,0.7,0.4c0.1,0,0.4-0.1,0.5-0.3c-0.7-0.7-1.4-1.4-2-2
	c0-0.1,0-0.3-0.1-0.4c-0.1-0.1-0.3-0.3-0.4-0.3c-0.4-0.4-0.7-0.8-1-1.1c-0.3-0.5-0.4-0.8-0.7-1.2c-0.4-0.8-0.7-1.8-1.1-2.6
	c-1.4-3.1-2.5-6.3-3.7-9.7c-0.7-1.6-1.1-3.4-1.8-5.2c0.1-0.1,0.1-0.3,0.3-0.5c-0.1,0.1-0.1,0.3-0.1,0.3c-0.1,0-0.1,0-0.1,0
	c-0.4-1.2-0.7-2.4-1-3.5c0-0.1,0-0.1,0-0.1c0.5,1.5,1.1,3,1.9,4.4c0.1,0.1,0.3,0.1,0.4,0.1c0,0,0.1,0,0.3-0.1
	c-0.7-1.4-1.2-2.6-1.6-4.2c-1.1-4.2-2-8.2-2.7-12.4c-0.3-1.2-0.5-2.6-0.7-4.1c-0.1,0-0.1-0.1-0.1-0.3c0-0.7-0.1-1.4-0.3-2
	c-0.4-2.4-0.7-4.6-1.2-6.9C60,9,59.8,7.4,59.6,5.7c-0.1,0-0.1,0-0.3-0.1c0.1,0,0.1,0,0.1,0l-0.1-0.1c-0.1,0-0.3,0-0.3,0
	c-0.1-0.3-0.1-0.5-0.3-0.7c0,0,0-0.1,0-0.3c0,0,0,0,0-0.1c-0.4-0.9-0.7-1.8-0.8-2.6C58.2,1.5,58.5,1.5,58.9,1.5z M56.6,2.2
	c0.1-0.1,0.1-0.3,0.1-0.3c0.1-0.1,0.1-0.1,0.1-0.1c0,0.3,0,0.4,0,0.5L56.6,2.2C56.6,2.2,56.6,2.2,56.6,2.2z M55,6
	c0.3,0,0.5,0,0.7-0.1c-0.7,1.4-1.1,2.7-1.8,4.2c0,0.1,0,0.3,0,0.4c0.1,0.3,0.1,0.7,0.1,0.9c0.1,0,0.4,0,0.5,0c0-0.1,0-0.3,0.1-0.3
	c0.7-1.6,1.1-3.4,1.6-5c0.1,1,0.3,1.9,0.4,2.9c-0.7,1.8-1.4,3.7-2,5.6c-0.1,0.4,0,0.5,0.4,0.5c0.1-0.1,0.1-0.1,0.3-0.3
	c0.7-1.4,1.2-2.7,1.6-4.3c0.1,0.8,0.3,1.5,0.5,2.3c-0.7,1.2-1.5,2.6-2.2,4.1c-0.7,1.6-0.8,3.3-0.3,4.6c0,0,0-0.1,0.1-0.1
	c0.7-2.6,1.5-5.2,2.3-7.7c0.3,0.9,0.4,1.8,0.7,2.6c-1,3.3-1.9,6.5-2.9,9.8c0.4,0.1,0.5,0.1,0.7-0.4c0.8-2.9,1.8-5.8,2.2-8.8
	c0.7,2.4,1.2,4.9,2,7.2c0.3,1.2,0.5,2.6,0.7,3.7c-1,2.4-1.6,4.6-2,6.9c0-0.1,0-0.1,0.1-0.3c0.7-1.9,1.4-4.1,2-6
	c0.3,1.5,0.7,2.9,0.8,4.3v0.1c-0.3-0.9-0.5-1.5-0.7-2.4h-0.1c0.3,1.1,0.4,2.2,0.5,3.1c-0.4,1-0.8,2.2-1.2,3c0,0,0.1,0,0.1-0.1
	c0.5-0.7,0.8-1.4,1.2-2.2c0.3,1,0.4,2,0.7,3c-0.7,1.6-1.2,3.4-2,4.9c0.1,0,0.3,0,0.3-0.1c0.1,0,0.1-0.1,0.1-0.1
	c0.7-1.4,1.2-2.7,1.8-4.2c0.1,0.4,0.1,0.7,0.3,1c-0.5,1.1-0.8,2.3-1.1,3.4c0.1,0,0.3-0.1,0.5-0.3c0,0,0-0.1,0-0.3
	c0.4-0.7,0.7-1.2,0.8-1.9c0.3,1.1,0.5,2.2,0.8,3.1c-0.3,0.8-0.4,1.4-0.5,2.2c0-0.1,0-0.3,0.1-0.3c0.1-0.4,0.3-1,0.5-1.4
	c0.1,0.4,0.3,1,0.4,1.4c0.1,0.5,0.4,1.1,0.5,1.8c-0.3,0.8-0.4,1.5-0.7,2.3c0.1-0.1,0.1-0.3,0.1-0.3c0.3-0.5,0.5-1,0.7-1.5
	c0,0.3,0.1,0.5,0.3,0.8c0,0,0,0.1-0.1,0.1c-0.1,0.9-0.5,1.6-0.8,2.4c0.1,0,0.3,0,0.4-0.1l0.1-0.1c0.4-0.5,0.7-1,0.8-1.5
	c0.4,1.1,1,2.3,1.6,3.4c-1,2-1.9,3.9-2.7,6c-0.5,0.3-0.7,0.5-0.4,0.7c0.4-0.1,0.7-0.3,0.8-0.3c0-0.1,0-0.3,0.1-0.3
	c0.8-1.8,1.8-3.5,2.3-5.4c0.5,0.8,0.8,1.5,1.4,2.2c-1.2,2-2.3,4.1-3.7,6l0.1,0.1c1.9-1.6,3.1-3.5,3.8-5.7c0.4,0.7,0.8,1.4,1.4,2
	c0.7,1.5,1.4,3,2.2,4.4c-1.1,0.3-2.2,0.5-3.1,0.8c0-0.1,0-0.1,0-0.1s0.4,0.1,0.2,0.1c-2.2,0.7-4.5,1.2-6.6,2c-0.8,0-1.8,0-2.5,0
	c-4.6-0.4-9.3-1-13.7-1.9c0.1-0.3,0.4-0.4,0.5-0.7c-0.1,0-0.3,0-0.3,0c-0.3,0.3-0.5,0.3-0.7,0.5c-0.3-0.1-0.7-0.1-1-0.3
	c0.3-0.1,0.5-0.4,0.7-0.5c-0.1-0.1-0.3-0.1-0.3,0c-0.4,0.1-0.7,0.3-1,0.5c-0.7-0.3-1.1-0.4-1.6-0.5h-0.3c0.5,0.1,1,0.4,1.5,0.5
	c-0.7,0.4-1.4,0.7-2,1c-1.6-0.3-3.3-0.4-4.9-0.7c0,0,0-0.1,0.1-0.1c1.4-1.4,3-2.3,4.8-2.7c0-0.1,0-0.1-0.1-0.1
	c-0.3-0.1-0.5-0.3-0.7-0.3c-0.1,0-0.3,0-0.4,0.1c-1.6,0.7-3,1.5-4.4,2.7c0,0.1,0,0.3,0.1,0.4c-0.2,0-0.5,0-0.8,0
	c1.4-0.9,2.9-1.9,4.2-3c-0.1,0-0.3-0.1-0.4-0.1c-0.1,0-0.1,0.1-0.3,0.1c-1.8,0.9-3.3,1.8-4.5,2.9c-0.5-0.1-1-0.1-1.4-0.3
	c-0.3,0-0.4,0-0.7,0c0,0,0,0,0-0.1c-0.3,0-0.5,0-0.7-0.1c2-1.1,3.8-2.3,5.7-3.4c0-0.1,0-0.1-0.1-0.3c-0.3,0-0.5-0.1-0.7-0.3
	c-0.3,0.3-0.7,0.5-1,0.7c-1.8,1-3.3,2.2-4.4,3.3c-0.3,0-0.5,0-0.8,0c-0.1,0-0.3,0-0.4,0h-0.1c1.5-1.1,2.9-2.3,4.1-3.7
	c-0.1,0-0.1,0-0.3,0c-1.9,0.9-3.5,2.2-4.9,3.5c-0.8,0.1-1.8,0.1-2.6,0.3c1.9-1.9,3.7-3.5,5.7-5c4.1,0.5,8.1,1.5,11.9,3
	c-2,0.7-3.5,1.6-4.5,2.9c0,0,0.1,0,0.3,0c1.5-1,2.9-1.9,4.4-2.9c0.7,0.4,1.2,0.5,1.9,0.8c-0.5-0.3-0.8-0.7-1.4-0.8
	c-0.1-0.1-0.1-0.1-0.3-0.1c-4.7-2.4-9.8-3.7-15.2-4.1c0-0.1,0-0.1,0.1-0.3c-0.1,0-0.1,0-0.3,0.1c0,0.1,0,0.1,0,0.1
	c-0.1,0-0.1,0-0.3,0c-0.7-0.1-1.2,0-2,0.1c0.5,0.1,1,0.3,1.6,0.4c-2.2,1.8-4.2,3.9-6,6.1h-0.1c0-0.1,0-0.3,0.1-0.3
	c-0.1,0-0.3,0.1-0.5,0.3c-0.3,0.1-0.7,0.3-0.8,0.3c0.1,0,0.1-0.1,0.1-0.3h-0.1c-0.1,0.1-0.1,0.3-0.1,0.3c-0.5,0-1.1,0.1-1.6,0.3
	c2.9-2,5.2-4.4,6.8-7.5c-0.1,0-0.3,0-0.4,0c-2.2,2.6-4.5,5-6.6,7.5c-0.1-0.5-0.3-1-0.4-1.5c2-1.5,3.4-3.5,4.2-6
	c-0.1,0-0.3,0-0.4,0.1c-2,3-4.4,5.6-7.1,7.6c-0.1-0.1-0.1-0.1-0.1-0.1c0.1-0.1,0.1-0.1,0.1-0.1c0-0.1,0-0.1-0.1-0.3
	c-0.3-0.1-0.5-0.4-0.8-0.5c-0.1-0.5-0.3-1-0.4-1.4c0.3,0,0.5,0.1,0.7,0.3c0-0.1,0-0.1,0-0.1c-0.3-0.1-0.5-0.4-0.7-0.5
	c-0.1-0.1-0.1-0.3-0.1-0.3c-0.3-0.9-0.5-1.6-0.7-2.4c0.5,0.4,1.1,0.8,1.6,1.1c0.1,0,0.3,0,0.4-0.1c-0.1-0.1-0.3-0.3-0.3-0.3
	c-0.7-0.7-1.4-1.2-2-1.8c-0.3-0.9-0.6-1.9-0.7-2.8c0.4,0.4,0.8,0.8,1.4,1.2c0.1,0,0.3,0,0.4-0.1C14,54.9,14,54.8,14,54.8
	c-0.5-0.7-1.1-1.2-1.8-1.8c-0.1-0.8-0.4-1.4-0.5-2.2c0.5,0.5,1,0.9,1.5,1.4c0.1,0,0.3,0,0.4-0.1c-0.1,0-0.1-0.1-0.3-0.1
	c-0.7-0.7-1.2-1.2-1.8-1.9c-0.3-0.9-0.4-1.9-0.7-2.7c1,0.9,1.9,1.8,2.9,2.7c0.1,0,0.3,0,0.4-0.1c-0.1-0.1-0.3-0.3-0.3-0.3
	c-1-1.2-2.2-2.6-3.1-3.7c-0.1,0-0.1-0.1-0.1-0.1c-0.1-0.8-0.3-1.4-0.4-2c0.5,0.5,0.8,0.9,1.4,1.4c0.1,0,0.1-0.1,0.3-0.1
	c0-0.1,0-0.1-0.1-0.1c0-0.1-0.1-0.3-0.3-0.4c-0.4-0.5-0.8-1.1-1.4-1.6c0-0.3,0-0.5-0.1-0.9c0-0.1,0-0.3,0-0.4c0.4,0.4,0.8,0.8,1.2,1
	c0.1,0,0.3,0,0.3-0.1c0.1,0,0.1-0.1,0.1-0.1c-0.1,0-0.1-0.1-0.3-0.3c-0.5-0.5-1-1-1.6-1.6c0-0.5-0.1-1-0.3-1.5
	c0.5,0.4,1,0.8,1.5,1.1c0-0.1,0.1-0.3,0.1-0.3c0-0.1-0.1-0.3-0.1-0.3c-0.7-0.7-1.1-1-1.8-1.6C9.2,38,9,37.4,8.9,37
	c0.8,0.7,1.9,1.2,2.9,2c0.1,0.1,0.1,0.1,0.1,0.3c0.1,0,0.1,0,0.3,0c0,0,0,0,0.1,0c0-0.1,0-0.1-0.1-0.1c-1.1-1.2-2.2-2.3-3.7-3.3
	c-0.1-0.9-0.2-1.3-0.4-1.9c0.8,0.7,1.8,1.2,2.5,1.9c0.1,0,0.3,0,0.3-0.1c0.1,0,0.1-0.1,0.1-0.1c-0.1,0-0.3-0.1-0.4-0.3
	c-0.7-0.7-1.6-1.1-2.5-1.6H8.1C8,33.5,8,33.4,7.8,33.3c0-0.1-0.1-0.1-0.1,0c-0.1-0.5-0.3-1-0.4-1.4c0.3-0.1,0.4-0.3,0.7-0.4
	c0-0.1,0-0.1-0.1-0.3c0,0-0.1,0-0.1-0.1c0.1-0.1,0.4-0.3,0.5-0.3c0-0.1,0-0.1-0.1-0.3c0.8-0.1,1.6-0.4,2.5-0.7
	c1.6,1.4,3.4,2.7,5.2,4.1c0.3,0,0.4,0,0.5,0c0.1,0,0.1,0,0.1,0c0-0.1,0-0.1,0-0.1c-1.8-1.4-3.5-2.9-5.2-4.2c0.7-0.3,1.4-0.4,2.2-0.8
	c0,0,0,0,0.1,0c1,1.6,2.5,2.6,4.2,2.9c-1.1-0.8-2.2-1.5-3.5-2.3c0,0,0-0.1-0.1-0.1c-0.1-0.1-0.3-0.4-0.5-0.7
	c0.8-0.3,1.8-0.7,2.5-0.9c1.2,1.1,2.6,1.9,4.1,2.2c-0.1,0-0.3-0.1-0.4-0.1c-1.2-0.7-2.3-1.2-3.5-2.2c0.7-0.3,1.4-0.7,2-1
	c0.7-0.1,1.1-0.4,1.6-0.5H20c0.3-0.1,0.5-0.4,0.8-0.5c0.4,0,0.8-0.1,1.4-0.3c-0.4,0.4-0.7,0.7-1.1,0.9c0.1,0.1,0.3,0.1,0.4,0.3
	c1.1-0.4,2-1,2.9-1.6c0.3-0.1,0.7-0.3,0.8-0.5c1.8-0.8,3.3-1.9,4.8-3.4c0,0,0.1-0.3,0.3-0.3c2.6-1.6,5.2-3.5,7.6-5.4
	c-0.7,0.3-1.4,0.7-2.2,1c-1,0.7-2,1.2-3,1.8c1.9-1.8,4-3.4,6.3-5c0.3-0.3,0.5-0.4,0.8-0.5v-0.1c4.1-1.6,8.1-3.7,11.9-6
	c0.7-0.1,1.1-0.3,1.8-0.4c0.1,0,0.4,0,0.7,0C54.3,6,54.7,6,55,6z M61.3,1.5C61.4,1.5,61.4,1.5,61.3,1.5c0.1,0,0.1,0.1,0.2,0.1
	C61.4,1.7,61.4,1.5,61.3,1.5z M68.3,21.5L68.3,21.5c1-0.1,2.2,0.3,3.7,1.1c-0.1,0-0.3,0-0.4-0.1C70.4,22.1,69.3,21.7,68.3,21.5z
	 M59.6,15.2c-0.3-1.1-0.5-2.3-0.7-3.5c0.7,3.3,1.4,6.5,2.2,9.9c0.1,0.5,0.3,1.1,0.3,1.8C61,20.6,60.3,18,59.6,15.2z M74.7,29.3
	c-1.4,1.4-2.2,2.9-2.3,4.6c-0.1-0.1-0.1-0.3-0.1-0.3c0.7-1.8,1.1-3.5,1.6-5.3c-0.1,0-0.1-0.1-0.1-0.3c-0.1,0-0.1-0.1-0.1-0.1
	c-0.3-0.1-0.5,0-0.7,0.1c-0.1,0.4-0.4,0.8-0.5,1.1c-0.3,1.2-0.5,2.3-0.7,3.4c-0.1-0.5-0.4-1.1-0.5-1.8c0.4-1.1,0.7-2.4,1.1-3.5
	c-0.1-0.1-0.1-0.3-0.1-0.4c0,0,0-0.1-0.1-0.1c-0.1-0.1-0.3,0-0.3,0c-0.4,1-0.7,2-1,3v-0.1c-0.4-0.9-0.7-1.8-0.8-2.6
	c0.4-1,0.7-2,1.2-2.9c-0.1,0-0.3,0-0.4-0.1v0.1c-0.1,0-0.3,0-0.4,0c0,0.1-0.1,0.3-0.3,0.5c-0.3,0.5-0.4,1-0.5,1.4
	c-0.1-0.4-0.3-0.8-0.4-1.1c0-0.1,0-0.1,0-0.1c0.4-0.3,0.4-0.7,0.3-1c-0.1,0-0.3,0.1-0.3,0.1c-0.1,0.1-0.1,0.3-0.3,0.4
	c-0.3-0.9-0.5-1.9-0.8-2.7c3.7,1,6.4,3.3,8.1,6.7c2.5,4.9,2.2,9.5-1.1,14.3v0.1c-0.1-0.3-0.3-0.5-0.3-0.8c1-1.2,1.8-2.7,2.2-4.3
	c-0.8,1.1-1.6,2.2-2.5,3.3c-0.4-0.9-0.7-2-1.1-3c1-1.6,1.6-3.3,1.8-5c-0.1,0-0.3,0-0.3,0.1c-0.7,1.4-1.2,2.7-1.8,4.2
	c-0.1-0.7-0.4-1.2-0.7-1.9c0.1-0.1,0.1-0.4,0.1-0.8c0,0,0-0.1,0.1-0.1C73.7,32.6,74.3,30.9,74.7,29.3z M80.1,60.7
	C80,60.6,80,60.4,80,60.4c0-0.1,0-0.1,0-0.1c0-0.3,0-0.7,0-1c0.1,0.3,0.3,0.3,0.4,0.5c0,0,0,0.1,0,0.3c0.1,1.5-0.3,2.9-1.1,4.1
	c0.3-1,0.5-2,0.7-3c0,0,0,0,0-0.1C80,60.9,80,60.9,80.1,60.7z M66.6,45.8C66.6,45.9,66.6,45.9,66.6,45.8c-0.3-0.3-0.4-0.8-0.5-1.3
	c0,0,0,0,0.1-0.1C66.3,45,66.4,45.5,66.6,45.8z M66.7,46.5C66.8,46.5,66.8,46.5,66.7,46.5c0.4,1.1,0.7,2.1,1.1,3.2
	c-0.3-0.7-0.5-1.2-0.7-1.8C67,47.6,66.8,47,66.7,46.5z M64.9,40.8L64.9,40.8c0.4,1.1,0.7,2.3,1.1,3.4c0,0,0,0-0.1,0
	C65.6,43.2,65.3,42,64.9,40.8z M64.5,39.4c0.1,0.3,0.3,0.7,0.4,1C64.8,40.2,64.7,39.8,64.5,39.4z M77.3,64c-0.5,0-0.8,0.1-1.2,0.1
	c-0.1-0.1-0.4-0.4-0.5-0.7c0.7-0.1,1.4-0.4,2.2-0.7C77.5,63.1,77.4,63.5,77.3,64z M75.1,62.1C75,62.1,75,62.1,75.1,62.1
	c-0.2,0-0.2-0.3-0.2-0.4C74.9,61.8,74.9,62,75.1,62.1z M7.4,30c-0.1,0-0.3,0.1-0.5,0.1V30C7,30,7.2,30,7.4,30z M5.2,32.3
	c0.4-0.1,0.7-0.1,0.8-0.1c0.1,0.5,0.3,1.1,0.4,1.6c-0.1,0-0.3-0.1-0.4-0.1c-0.1,0-0.1,0-0.1,0c-0.1,0-0.3,0-0.3,0
	c-0.1,0.1-0.1,0.1-0.1,0.3c0.4,0.4,0.7,0.7,1.2,1c0,0.3,0.1,0.7,0.3,0.9c-0.7-0.5-1.1-1-1.6-1.5c-0.1,0-0.1,0-0.1,0
	c-0.1,0-0.3,0.1-0.4,0.3c0.7,0.9,1.6,1.8,2.3,2.6c0.1,0.5,0.3,1,0.4,1.4c-0.8-0.9-1.8-1.6-2.6-2.3c-0.1,0-0.3,0-0.4,0.1
	c0,0,0,0,0,0.1c0.8,1,1.9,2,2.9,3c0,0.4,0.1,0.7,0.1,1c-0.5-0.5-1.1-1-1.8-1.5l-0.1,0.1c0.7,0.7,1.4,1.4,2,2.2
	c0.1,0.8,0.4,1.6,0.5,2.6c-0.3-0.3-0.5-0.5-0.7-0.7H7.4c0.3,0.5,0.7,1,1,1.4c0.1,0.1,0.1,0.3,0.1,0.5c0.3,0.8,0.5,1.6,0.7,2.6
	c-0.4-0.5-0.8-1-1.4-1.6c-0.3,0-0.3,0.1-0.1,0.4c0.5,0.8,1.1,1.5,1.8,2.2c0.3,1,0.5,1.9,0.7,2.7c-0.3-0.3-0.5-0.4-0.7-0.5H9.2
	c0.4,0.4,0.7,0.8,1,1c0.3,1,0.5,2.2,0.7,3c-0.5-0.4-1-0.8-1.5-1.2c-0.4,0-0.4,0.1-0.1,0.4c0.5,0.7,1.2,1.4,1.9,2
	c0.3,0.9,0.5,1.9,0.7,2.7c-0.7-0.5-1.4-1-2.2-1.6c-0.3,0.3-0.1,0.7,0.4,1.1c0.7,0.5,1.2,1,2,1.4c0,0.4,0.1,0.7,0.3,1
	c-1.2-0.9-2.3-1.6-3.5-2.3c0,0,0,0-0.1,0s-0.1,0-0.3,0.1v-0.1c0,0.1,0,0.1,0,0.3C8.8,59,9,59.2,9.3,59.2c0,0.1,0.1,0.3,0.3,0.3
	c0.8,0.9,2,1.8,3.1,2.4c0,0.3,0,0.4,0.1,0.7c-1.1-0.7-2.2-1.2-3.3-1.9c-0.1-0.1-0.3-0.1-0.3,0c1,1.1,2.2,2,3.4,2.6
	c0,0.1,0,0.3,0,0.4c0.1,0,0.1,0,0.1,0.1c-0.7,0.1-1.2,0.1-1.9,0c-0.7-0.1-1.4-0.5-1.9-0.8c-0.1,0-0.3-0.1-0.4-0.3
	c-0.7-0.7-1.5-1.4-2.2-2.2c-1.2-1.8-2.1-3.7-2.6-5.6C4,55.5,4.4,56,4.9,56.7c0.1,0,0.4,0,0.7,0c-0.5-0.9-0.8-1.7-1.2-2.6
	c-0.4-0.8-0.7-1.5-0.8-2.3c-0.8-4.1-1.1-8-0.7-12.1c0,0,0,0,0.1,0c0,0,0,0,0.1-0.1c-0.1-0.3-0.1-0.8-0.1-1.1
	c0.1-0.5,0.3-1.1,0.3-1.6C3.7,35.2,4.3,33.7,5.2,32.3z M4.4,30.5C4.3,30.6,4.3,30.6,4.4,30.5c-0.2,0.2-0.4,0.2-0.5,0.2
	c0.1,0,0.1,0,0.1-0.1C4.2,30.7,4.3,30.7,4.4,30.5z M30.1,19.8c0,0-0.1,0-0.3,0c0.3-0.3,0.5-0.5,0.7-0.7
	C30.4,19.4,30.2,19.6,30.1,19.8z M28.9,56.3c0.1,0.1,0.3,0.1,0.5,0.1c0.7,0,1.5,0.1,2.3,0.3c-2.3,1.4-4.4,3.3-6.1,5.4
	c-0.8,0-1.8,0.1-2.6,0.3C25.2,60.6,27.2,58.4,28.9,56.3z M45.4,63.6c0.3-0.3,0.5-0.5,0.8-0.8c1.6,0.5,3.3,0.9,5,1.2
	c0.4,0.3,0.8,0.5,1.5,0.8c0.3,0.1,0.7,0.4,1,0.4c-0.8,0-1.8-0.3-2.6-0.5C49.2,64.4,47.3,64,45.4,63.6z M45.8,62.8
	c-0.3,0.3-0.5,0.7-0.7,0.9c-0.7-0.1-1.4-0.3-2-0.3c0.5-0.4,1.1-0.7,1.6-1C45.1,62.5,45.5,62.6,45.8,62.8z M3.2,53.7
	C3.2,53.8,3.2,53.8,3.2,53.7C3.2,53.8,3.2,53.8,3.2,53.7z M14.1,62.8c0,0.1,0,0.3,0.1,0.3c-0.1,0-0.1,0-0.3,0.1c0-0.3,0-0.4,0-0.4
	C14.1,62.8,14.1,62.8,14.1,62.8z M15.6,63.6C15.6,63.6,15.6,63.5,15.6,63.6c-0.1-0.2-0.1-0.2-0.1-0.2c0.1,0,0.1,0,0.3,0
	c1-0.5,1.9-1,2.7-1.6c0,0.5,0,1,0,1.5c-1,0.1-2,0.4-3,0.8C15.5,63.9,15.5,63.7,15.6,63.6z M15.2,64.6C15.1,64.6,15.1,64.6,15.2,64.6
	c0-0.2,0.2-0.4,0.2-0.5h0.1c0.5,0,1.1,0,1.8,0C16.6,64.3,15.8,64.5,15.2,64.6z M10.6,64.9c-0.3-0.1-0.5-0.3-0.7-0.3
	c0.4,0,0.7,0,1.1,0.1c0,0,0,0.1,0,0.3C10.8,65,10.7,64.9,10.6,64.9z M19.6,64.9c0.1-0.1,0.4-0.1,0.5-0.1c-0.1,0.4-0.3,0.8-0.4,1.1
	C19.6,65.5,19.6,65.3,19.6,64.9z M20.5,64.6c0.1,0,0.3,0,0.3,0c-0.7,1.5-0.8,3-0.8,4.4c0-0.5-0.1-1.1-0.3-1.8
	C20,66.5,20.3,65.5,20.5,64.6z M18.4,65.1C18.5,65.1,18.5,65.1,18.4,65.1c0.1,0.3,0.1,0.7,0.1,1C18.5,65.9,18.5,65.4,18.4,65.1z
	 M20.4,69.3c-0.1-0.3-0.1-0.3-0.1-0.5c0,0,0-0.1,0-0.3c0.5-1.4,0.8-2.7,1.4-4.2c0.4,0,1-0.1,1.4-0.3h0.1c-1.2,1.9-2.2,4.1-2.6,6.3
	c0.3,0.5,0.5,0.5,0.7,0c0-0.1,0-0.1,0.1-0.3c0.7-2.2,1.4-4.2,2.2-6c1-0.1,2-0.4,2.9-0.5c0,0.8,0,1.4,0.1,2.3l0.1,0.3
	c-0.1,0-0.1,0.1,0,0.1c0,0.1,0,0.1,0,0.3v0.3c0.3,3.1,0.8,6.1,1.8,9.4c0.8,2.9,1.9,5.7,3.4,8.3c-1,1.2-1.9,2.6-2.7,4.1l0.1,0.1
	c1.2-1.1,2.2-2.4,2.7-3.8c1,1.8,2.2,3.4,3.5,5.2c0.1-0.1,0.3-0.3,0.4-0.4c-1.1-1.6-2.2-3.3-2.9-5c1.1,1.8,2.5,3.5,4,5.2
	c0,0,0,0,0.1,0c0,0.3,0,0.8,0.1,1C37,91.3,37,91.7,37,92c-0.1,0.1-0.1,0.3-0.1,0.5c0,0,0,0-0.1,0c-1.2,0.7-2.5,0.8-3.7,0.9
	c1.1,0.7,2.2,0.9,3.1,0.7c-0.1,0.3-0.4,0.4-0.4,0.7l-0.1-0.1c-1.2,0-2.5-0.1-3.7-0.5c-2.2-0.5-3.7-1.9-4.5-3.9c0,0.1,0,0.3,0,0.5
	c-0.3-0.4-0.5-0.7-0.7-1c0-0.1,0-0.1,0-0.1c-0.8-1.4-1.8-2.9-2.3-4.4C22.3,80.2,20.8,75,20,69.8C20.1,69.6,20.3,69.5,20.4,69.3z
	 M19.8,71.9c-0.1-0.1-0.1-0.2-0.1-0.4c0.1,0.5,0.3,1,0.4,1.5C19.9,72.7,19.8,72.3,19.8,71.9z M18.4,71c0,0.1,0,0.3,0,0.4
	C18.4,71.3,18.4,71.1,18.4,71C18.4,71,18.4,71,18.4,71z M20.1,76.4c-0.1-0.4-0.3-0.9-0.4-1.2V75C19.9,75.5,20,76,20.1,76.4z
	 M28.7,93.9c0.3,0.3,0.5,0.5,0.7,0.8c0.1,0.3,0.1,0.3,0.4,0.4c0.3,0.3,0.4,0.5,0.7,0.8C29.8,95.4,29.2,94.8,28.7,93.9z M33.9,97
	L33.9,97L33.9,97z"/>
<path class="st1" d="M67.4,61.4c0-0.1,0.1-0.3,0.1-0.3c1.1-0.9,2-1.9,2.5-3.1H70c-1.1,1.1-2.2,2.2-3,3.4
	C67,61.4,67.1,61.4,67.4,61.4z"/>
<path class="st1" d="M71.3,59.3L71.3,59.3c-0.8,0.9-1.6,1.6-2.3,2.6c-0.3,0.1-0.5,0.3-0.7,0.4c0.3,0,0.7,0.1,0.8,0.1
	c0.1,0,0.3-0.1,0.3-0.1C70.1,61.3,70.8,60.3,71.3,59.3z"/>
<path class="st1" d="M9.1,31.6c-0.1,0.1-0.3,0.1-0.3,0.3c-0.1,0-0.1,0-0.1,0c0,0.1,0,0.1,0,0.3c1.6,1,3.3,2,4.8,3
	c0.4,0.1,0.7,0.1,0.8,0c0.1,0,0.3-0.1,0.4-0.1c0,0,0,0,0-0.1C12.8,33.7,11,32.6,9.1,31.6z"/>
<path class="st1" d="M60.3,24C60.3,24,60.2,24,60.3,24c-0.7,2.5-1.3,4.7-2.1,7.2c0.3,0,0.4-0.3,0.5-0.4v-0.1
	C59.6,28.4,60,26.3,60.3,24z"/>
<path class="st1" d="M76.7,34.2c-0.1-0.1-0.3-0.3-0.4-0.3c0,0,0,0-0.1,0c-0.1,0.1-0.3,0.3-0.3,0.4v0.1c0,0.1,0,0.3,0,0.3
	c-0.1,0.2-0.1,0.3-0.1,0.3c-0.7,1.5-1,3-1.4,4.5c0,0,0,0.1,0.1,0.1c0,0,0.1,0,0.3,0c0-0.1,0-0.1,0.1-0.3
	C75.7,37.7,76.3,36,76.7,34.2z"/>
<path class="st1" d="M24.7,65L24.7,65c-0.4,1.2-0.8,2.3-1.6,3.4c0,0,0,0.1,0,0.3c-0.5,1.6-1,3.1-1.4,4.8c0.1,0,0.3,0,0.3-0.1
	c0.1-0.1,0.1-0.3,0.1-0.3C23.3,70.4,24.2,67.8,24.7,65z"/>
<path class="st1" d="M25.3,67.3L25.3,67.3c-1.3,2.2-2.1,4.4-2.2,6.8c0.1-0.1,0.1-0.3,0.1-0.3C24.2,71.7,24.8,69.6,25.3,67.3z"/>
<path class="st1" d="M26.6,76.4c-0.1,0-0.1,0-0.3,0.1c-0.5,1.4-0.8,2.6-1.4,3.9C25,80.2,25,80,25.2,80
	C25.8,78.9,26.3,77.8,26.6,76.4z"/>
<path class="st1" d="M25.7,71.5c-0.1,0-0.3,0-0.3,0.1c-0.5,2.3-1.1,4.4-1.9,6.4h0.1C25.1,76.1,25.7,73.8,25.7,71.5z"/>
<path class="st1" d="M28.3,80.4c-0.7,1-1.1,2.2-1.4,3.4c0.1-0.1,0.3-0.3,0.5-0.3c0-0.1,0-0.3,0-0.4c0.3-0.9,0.7-2,1-3
	C28.3,80.1,28.3,80.2,28.3,80.4z"/>
<path class="st1" d="M29.7,81.9c-0.3,0.7-0.7,1.4-1,2.4c-0.4,1-0.5,1.8-0.3,2.4c0.1,0,0.1-0.1,0.1-0.3C29.4,85,29.8,83.5,29.7,81.9z
	"/>
</svg>
