<svg width="196" height="208" viewBox="0 0 196 208" fill="none" xmlns="http://www.w3.org/2000/svg">
<path d="M130.017 203C129.802 203 129.648 202.953 129.555 202.86C129.462 202.757 129.415 202.622 129.415 202.454C129.415 202.258 129.513 202.057 129.709 201.852L132.845 198.492C133.321 197.979 133.662 197.507 133.867 197.078C134.082 196.639 134.189 196.196 134.189 195.748C134.189 194.6 133.522 194.026 132.187 194.026C131.356 194.026 130.6 194.292 129.919 194.824C129.77 194.936 129.634 194.978 129.513 194.95C129.392 194.913 129.298 194.838 129.233 194.726C129.177 194.614 129.154 194.493 129.163 194.362C129.182 194.222 129.261 194.101 129.401 193.998C129.765 193.699 130.204 193.461 130.717 193.284C131.23 193.097 131.753 193.004 132.285 193.004C133.274 193.004 134.03 193.237 134.553 193.704C135.085 194.161 135.351 194.815 135.351 195.664C135.351 196.252 135.206 196.831 134.917 197.4C134.637 197.96 134.194 198.557 133.587 199.192L130.927 202.02H135.323C135.678 202.02 135.855 202.179 135.855 202.496C135.855 202.832 135.678 203 135.323 203H130.017ZM140.805 203.126C139.676 203.126 138.817 202.692 138.229 201.824C137.641 200.956 137.347 199.701 137.347 198.058C137.347 196.406 137.641 195.151 138.229 194.292C138.817 193.433 139.676 193.004 140.805 193.004C141.944 193.004 142.803 193.433 143.381 194.292C143.969 195.141 144.263 196.392 144.263 198.044C144.263 199.696 143.965 200.956 143.367 201.824C142.779 202.692 141.925 203.126 140.805 203.126ZM140.805 202.132C141.589 202.132 142.168 201.801 142.541 201.138C142.924 200.466 143.115 199.435 143.115 198.044C143.115 196.644 142.929 195.622 142.555 194.978C142.182 194.325 141.599 193.998 140.805 193.998C140.021 193.998 139.438 194.325 139.055 194.978C138.682 195.631 138.495 196.653 138.495 198.044C138.495 199.435 138.682 200.466 139.055 201.138C139.438 201.801 140.021 202.132 140.805 202.132ZM146.806 203C146.591 203 146.437 202.953 146.344 202.86C146.251 202.757 146.204 202.622 146.204 202.454C146.204 202.258 146.302 202.057 146.498 201.852L149.634 198.492C150.11 197.979 150.451 197.507 150.656 197.078C150.871 196.639 150.978 196.196 150.978 195.748C150.978 194.6 150.311 194.026 148.976 194.026C148.145 194.026 147.389 194.292 146.708 194.824C146.559 194.936 146.423 194.978 146.302 194.95C146.181 194.913 146.087 194.838 146.022 194.726C145.966 194.614 145.943 194.493 145.952 194.362C145.971 194.222 146.05 194.101 146.19 193.998C146.554 193.699 146.993 193.461 147.506 193.284C148.019 193.097 148.542 193.004 149.074 193.004C150.063 193.004 150.819 193.237 151.342 193.704C151.874 194.161 152.14 194.815 152.14 195.664C152.14 196.252 151.995 196.831 151.706 197.4C151.426 197.96 150.983 198.557 150.376 199.192L147.716 202.02H152.112C152.467 202.02 152.644 202.179 152.644 202.496C152.644 202.832 152.467 203 152.112 203H146.806ZM155.201 203C154.986 203 154.832 202.953 154.739 202.86C154.645 202.757 154.599 202.622 154.599 202.454C154.599 202.258 154.697 202.057 154.893 201.852L158.029 198.492C158.505 197.979 158.845 197.507 159.051 197.078C159.265 196.639 159.373 196.196 159.373 195.748C159.373 194.6 158.705 194.026 157.371 194.026C156.54 194.026 155.784 194.292 155.103 194.824C154.953 194.936 154.818 194.978 154.697 194.95C154.575 194.913 154.482 194.838 154.417 194.726C154.361 194.614 154.337 194.493 154.347 194.362C154.365 194.222 154.445 194.101 154.585 193.998C154.949 193.699 155.387 193.461 155.901 193.284C156.414 193.097 156.937 193.004 157.469 193.004C158.458 193.004 159.214 193.237 159.737 193.704C160.269 194.161 160.535 194.815 160.535 195.664C160.535 196.252 160.39 196.831 160.101 197.4C159.821 197.96 159.377 198.557 158.771 199.192L156.111 202.02H160.507C160.861 202.02 161.039 202.179 161.039 202.496C161.039 202.832 160.861 203 160.507 203H155.201Z" fill="#333333"/>
<path d="M6.87827 203C6.45827 203 6.24827 202.79 6.24827 202.37V193.76C6.24827 193.34 6.45827 193.13 6.87827 193.13H10.1963C11.2136 193.13 11.9976 193.359 12.5483 193.816C13.1083 194.264 13.3883 194.894 13.3883 195.706C13.3883 196.247 13.2483 196.709 12.9683 197.092C12.6883 197.475 12.3009 197.755 11.8063 197.932C12.3756 198.081 12.8189 198.357 13.1363 198.758C13.4629 199.159 13.6263 199.668 13.6263 200.284C13.6263 201.161 13.3416 201.833 12.7723 202.3C12.2029 202.767 11.4003 203 10.3643 203H6.87827ZM7.36827 197.54H10.0283C11.5123 197.54 12.2543 196.961 12.2543 195.804C12.2543 194.637 11.5123 194.054 10.0283 194.054H7.36827V197.54ZM7.36827 202.076H10.2523C11.7456 202.076 12.4923 201.474 12.4923 200.27C12.4923 199.066 11.7456 198.464 10.2523 198.464H7.36827V202.076ZM18.6212 203.126C17.5479 203.126 16.6985 202.813 16.0732 202.188C15.4479 201.553 15.1352 200.695 15.1352 199.612C15.1352 198.912 15.2752 198.296 15.5552 197.764C15.8352 197.223 16.2179 196.807 16.7032 196.518C17.1979 196.219 17.7672 196.07 18.4112 196.07C19.3352 196.07 20.0585 196.369 20.5812 196.966C21.1039 197.554 21.3652 198.366 21.3652 199.402C21.3652 199.691 21.2019 199.836 20.8752 199.836H16.2412C16.2785 200.611 16.5025 201.203 16.9132 201.614C17.3239 202.015 17.8932 202.216 18.6212 202.216C18.9292 202.216 19.2419 202.179 19.5592 202.104C19.8765 202.02 20.1845 201.875 20.4832 201.67C20.6979 201.53 20.8752 201.502 21.0152 201.586C21.1645 201.67 21.2392 201.801 21.2392 201.978C21.2485 202.146 21.1552 202.295 20.9592 202.426C20.6512 202.65 20.2825 202.823 19.8532 202.944C19.4332 203.065 19.0225 203.126 18.6212 203.126ZM18.4392 196.91C17.7952 196.91 17.2865 197.111 16.9132 197.512C16.5399 197.913 16.3205 198.441 16.2552 199.094H20.3852C20.3572 198.403 20.1752 197.867 19.8392 197.484C19.5125 197.101 19.0459 196.91 18.4392 196.91ZM23.9304 203.098C23.557 203.098 23.3704 202.902 23.3704 202.51V197.078H22.4744C22.1477 197.078 21.9844 196.929 21.9844 196.63C21.9844 196.341 22.1477 196.196 22.4744 196.196H23.3704V195.958C23.3704 194.213 24.2244 193.265 25.9324 193.116L26.3384 193.074C26.5064 193.065 26.6277 193.102 26.7024 193.186C26.777 193.27 26.8144 193.373 26.8144 193.494C26.8237 193.606 26.7957 193.709 26.7304 193.802C26.665 193.895 26.5717 193.947 26.4504 193.956L26.1284 193.984C25.559 194.031 25.1437 194.203 24.8824 194.502C24.6304 194.801 24.5044 195.239 24.5044 195.818V196.196H26.0164C26.343 196.196 26.5064 196.341 26.5064 196.63C26.5064 196.929 26.343 197.078 26.0164 197.078H24.5044V202.51C24.5044 202.902 24.313 203.098 23.9304 203.098ZM30.3051 203.126C29.6424 203.126 29.0684 202.981 28.5831 202.692C28.0978 202.403 27.7198 201.997 27.4491 201.474C27.1878 200.942 27.0571 200.317 27.0571 199.598C27.0571 198.879 27.1878 198.259 27.4491 197.736C27.7198 197.204 28.0978 196.793 28.5831 196.504C29.0684 196.215 29.6424 196.07 30.3051 196.07C30.9584 196.07 31.5278 196.215 32.0131 196.504C32.5078 196.793 32.8858 197.204 33.1471 197.736C33.4178 198.259 33.5531 198.879 33.5531 199.598C33.5531 200.317 33.4178 200.942 33.1471 201.474C32.8858 201.997 32.5078 202.403 32.0131 202.692C31.5278 202.981 30.9584 203.126 30.3051 203.126ZM30.3051 202.216C30.9398 202.216 31.4484 201.992 31.8311 201.544C32.2138 201.087 32.4051 200.438 32.4051 199.598C32.4051 198.749 32.2138 198.1 31.8311 197.652C31.4484 197.204 30.9398 196.98 30.3051 196.98C29.6611 196.98 29.1478 197.204 28.7651 197.652C28.3918 198.1 28.2051 198.749 28.2051 199.598C28.2051 200.438 28.3918 201.087 28.7651 201.544C29.1478 201.992 29.6611 202.216 30.3051 202.216ZM35.8304 203.098C35.4477 203.098 35.2564 202.902 35.2564 202.51V196.672C35.2564 196.289 35.4384 196.098 35.8024 196.098C36.1757 196.098 36.3624 196.289 36.3624 196.672V197.414C36.549 196.985 36.8384 196.658 37.2304 196.434C37.6224 196.201 38.089 196.075 38.6304 196.056C38.929 196.028 39.0877 196.177 39.1064 196.504C39.1344 196.831 38.9664 197.013 38.6024 197.05L38.3784 197.078C37.7344 197.134 37.2444 197.339 36.9084 197.694C36.5724 198.039 36.4044 198.515 36.4044 199.122V202.51C36.4044 202.902 36.213 203.098 35.8304 203.098ZM43.2579 203.126C42.1846 203.126 41.3353 202.813 40.7099 202.188C40.0846 201.553 39.7719 200.695 39.7719 199.612C39.7719 198.912 39.9119 198.296 40.1919 197.764C40.4719 197.223 40.8546 196.807 41.3399 196.518C41.8346 196.219 42.4039 196.07 43.0479 196.07C43.9719 196.07 44.6953 196.369 45.2179 196.966C45.7406 197.554 46.0019 198.366 46.0019 199.402C46.0019 199.691 45.8386 199.836 45.5119 199.836H40.8779C40.9153 200.611 41.1393 201.203 41.5499 201.614C41.9606 202.015 42.5299 202.216 43.2579 202.216C43.5659 202.216 43.8786 202.179 44.1959 202.104C44.5133 202.02 44.8213 201.875 45.1199 201.67C45.3346 201.53 45.5119 201.502 45.6519 201.586C45.8013 201.67 45.8759 201.801 45.8759 201.978C45.8853 202.146 45.7919 202.295 45.5959 202.426C45.2879 202.65 44.9193 202.823 44.4899 202.944C44.0699 203.065 43.6593 203.126 43.2579 203.126ZM43.0759 196.91C42.4319 196.91 41.9233 197.111 41.5499 197.512C41.1766 197.913 40.9573 198.441 40.8919 199.094H45.0219C44.9939 198.403 44.8119 197.867 44.4759 197.484C44.1493 197.101 43.6826 196.91 43.0759 196.91ZM51.9805 203.098C51.5978 203.098 51.4065 202.897 51.4065 202.496V193.718C51.4065 193.326 51.6025 193.13 51.9945 193.13H55.3125C56.3765 193.13 57.1885 193.387 57.7485 193.9C58.3178 194.413 58.6025 195.146 58.6025 196.098C58.6025 197.041 58.3178 197.773 57.7485 198.296C57.1885 198.809 56.3765 199.066 55.3125 199.066H52.5545V202.496C52.5545 202.897 52.3631 203.098 51.9805 203.098ZM52.5545 198.1H55.1725C56.7031 198.1 57.4685 197.433 57.4685 196.098C57.4685 194.754 56.7031 194.082 55.1725 194.082H52.5545V198.1ZM62.8634 203.126C61.7901 203.126 60.9407 202.813 60.3154 202.188C59.6901 201.553 59.3774 200.695 59.3774 199.612C59.3774 198.912 59.5174 198.296 59.7974 197.764C60.0774 197.223 60.4601 196.807 60.9454 196.518C61.4401 196.219 62.0094 196.07 62.6534 196.07C63.5774 196.07 64.3007 196.369 64.8234 196.966C65.3461 197.554 65.6074 198.366 65.6074 199.402C65.6074 199.691 65.4441 199.836 65.1174 199.836H60.4834C60.5207 200.611 60.7447 201.203 61.1554 201.614C61.5661 202.015 62.1354 202.216 62.8634 202.216C63.1714 202.216 63.4841 202.179 63.8014 202.104C64.1187 202.02 64.4267 201.875 64.7254 201.67C64.9401 201.53 65.1174 201.502 65.2574 201.586C65.4067 201.67 65.4814 201.801 65.4814 201.978C65.4907 202.146 65.3974 202.295 65.2014 202.426C64.8934 202.65 64.5247 202.823 64.0954 202.944C63.6754 203.065 63.2647 203.126 62.8634 203.126ZM62.6814 196.91C62.0374 196.91 61.5287 197.111 61.1554 197.512C60.7821 197.913 60.5627 198.441 60.4974 199.094H64.6274C64.5994 198.403 64.4174 197.867 64.0814 197.484C63.7547 197.101 63.2881 196.91 62.6814 196.91ZM69.9786 203.126C69.1759 203.126 68.5739 202.916 68.1726 202.496C67.7712 202.067 67.5706 201.451 67.5706 200.648V197.078H66.6326C66.3059 197.078 66.1426 196.929 66.1426 196.63C66.1426 196.341 66.3059 196.196 66.6326 196.196H67.5706V194.586C67.5706 194.203 67.7619 194.012 68.1446 194.012C68.5179 194.012 68.7046 194.203 68.7046 194.586V196.196H70.4686C70.7952 196.196 70.9586 196.341 70.9586 196.63C70.9586 196.929 70.7952 197.078 70.4686 197.078H68.7046V200.536C68.7046 201.068 68.8166 201.474 69.0406 201.754C69.2646 202.025 69.6286 202.16 70.1326 202.16C70.3099 202.16 70.4592 202.141 70.5806 202.104C70.7019 202.067 70.8092 202.048 70.9026 202.048C70.9866 202.039 71.0566 202.067 71.1126 202.132C71.1686 202.197 71.1966 202.309 71.1966 202.468C71.1966 202.58 71.1732 202.683 71.1266 202.776C71.0892 202.869 71.0192 202.935 70.9166 202.972C70.8046 203.009 70.6552 203.042 70.4686 203.07C70.2912 203.107 70.1279 203.126 69.9786 203.126ZM72.7171 203.098C72.3344 203.098 72.1431 202.902 72.1431 202.51V196.672C72.1431 196.289 72.3251 196.098 72.6891 196.098C73.0624 196.098 73.2491 196.289 73.2491 196.672V197.414C73.4358 196.985 73.7251 196.658 74.1171 196.434C74.5091 196.201 74.9758 196.075 75.5171 196.056C75.8158 196.028 75.9744 196.177 75.9931 196.504C76.0211 196.831 75.8531 197.013 75.4891 197.05L75.2651 197.078C74.6211 197.134 74.1311 197.339 73.7951 197.694C73.4591 198.039 73.2911 198.515 73.2911 199.122V202.51C73.2911 202.902 73.0998 203.098 72.7171 203.098ZM77.7207 194.558C77.226 194.558 76.9787 194.325 76.9787 193.858C76.9787 193.401 77.226 193.172 77.7207 193.172C78.2153 193.172 78.4627 193.401 78.4627 193.858C78.4627 194.325 78.2153 194.558 77.7207 194.558ZM77.7207 203.07C77.3473 203.07 77.1607 202.865 77.1607 202.454V196.728C77.1607 196.327 77.3473 196.126 77.7207 196.126C78.1033 196.126 78.2947 196.327 78.2947 196.728V202.454C78.2947 202.865 78.1033 203.07 77.7207 203.07ZM80.9746 203.098C80.6013 203.098 80.4146 202.902 80.4146 202.51V193.606C80.4146 193.223 80.6013 193.032 80.9746 193.032C81.3573 193.032 81.5486 193.223 81.5486 193.606V199.22H81.5766L84.4466 196.476C84.5679 196.355 84.6799 196.261 84.7826 196.196C84.8853 196.131 85.0206 196.098 85.1886 196.098C85.4126 196.098 85.5573 196.187 85.6226 196.364C85.6973 196.532 85.6506 196.705 85.4826 196.882L82.7526 199.472L85.7486 202.286C85.9446 202.473 85.9959 202.655 85.9026 202.832C85.8186 203.009 85.6739 203.098 85.4686 203.098C85.3006 203.098 85.1606 203.065 85.0486 203C84.9459 202.925 84.8246 202.818 84.6846 202.678L81.5766 199.808H81.5486V202.51C81.5486 202.902 81.3573 203.098 80.9746 203.098ZM90.0649 203.126C89.4022 203.126 88.8282 202.981 88.3429 202.692C87.8575 202.403 87.4795 201.997 87.2089 201.474C86.9475 200.942 86.8169 200.317 86.8169 199.598C86.8169 198.879 86.9475 198.259 87.2089 197.736C87.4795 197.204 87.8575 196.793 88.3429 196.504C88.8282 196.215 89.4022 196.07 90.0649 196.07C90.7182 196.07 91.2875 196.215 91.7729 196.504C92.2675 196.793 92.6455 197.204 92.9069 197.736C93.1775 198.259 93.3129 198.879 93.3129 199.598C93.3129 200.317 93.1775 200.942 92.9069 201.474C92.6455 201.997 92.2675 202.403 91.7729 202.692C91.2875 202.981 90.7182 203.126 90.0649 203.126ZM90.0649 202.216C90.6995 202.216 91.2082 201.992 91.5909 201.544C91.9735 201.087 92.1649 200.438 92.1649 199.598C92.1649 198.749 91.9735 198.1 91.5909 197.652C91.2082 197.204 90.6995 196.98 90.0649 196.98C89.4209 196.98 88.9075 197.204 88.5249 197.652C88.1515 198.1 87.9649 198.749 87.9649 199.598C87.9649 200.438 88.1515 201.087 88.5249 201.544C88.9075 201.992 89.4209 202.216 90.0649 202.216ZM95.5901 203.098C95.2075 203.098 95.0161 202.902 95.0161 202.51V196.672C95.0161 196.289 95.1981 196.098 95.5621 196.098C95.9355 196.098 96.1221 196.289 96.1221 196.672V197.414C96.3088 196.985 96.5981 196.658 96.9901 196.434C97.3821 196.201 97.8488 196.075 98.3901 196.056C98.6888 196.028 98.8475 196.177 98.8661 196.504C98.8941 196.831 98.7261 197.013 98.3621 197.05L98.1381 197.078C97.4941 197.134 97.0041 197.339 96.6681 197.694C96.3321 198.039 96.1641 198.515 96.1641 199.122V202.51C96.1641 202.902 95.9728 203.098 95.5901 203.098Z" fill="#333333"/>
<g clip-path="url(#clip0_220_7)">
<path d="M33.7931 75.3499C35.9436 87.9594 38.094 100.569 37.1724 113.332C36.4044 123.789 31.0282 137.936 34.4075 148.086C35.3292 151.007 37.6332 153.929 40.8589 154.544C49.1536 155.928 60.2132 154.698 63.5925 145.779C65.4357 141.012 64.5141 135.476 64.5141 130.401C64.5141 124.866 64.6677 119.33 65.1285 113.794C65.8966 102.876 67.4326 91.9576 66.2038 81.0395C65.5893 76.5801 64.9749 71.0441 62.3636 67.1998C58.9843 62.2789 53.9154 62.4327 48.5392 62.2789C36.7116 61.9714 36.7116 80.4244 48.5392 80.732C49.768 80.732 50.8433 80.732 52.0721 80.732C50.2288 79.348 48.3856 77.964 46.5423 76.4263C49.1536 80.732 48.5392 88.267 48.3856 93.034C48.232 99.0312 47.464 104.875 47.0031 110.872C46.5423 116.408 46.2351 121.944 46.2351 127.48C46.2351 129.786 45.4671 133.631 46.2351 135.784C45.6207 139.474 46.5423 139.628 49 135.937C47.7712 135.63 46.8495 135.784 45.9279 136.552C48.0784 138.705 50.2288 140.858 52.3793 143.011C50.9969 138.705 53.6082 129.94 54.2226 125.634C55.1442 119.483 55.9122 113.486 56.0658 107.335C56.2194 94.8793 53.9154 82.4235 51.7649 70.2753C49.6144 58.7421 31.7962 63.6629 33.7931 75.3499Z" fill="#F1E4B2"/>
<path d="M142.392 17.3767C142.853 17.2229 143.313 16.9153 143.774 16.7616C141.009 11.9945 138.245 7.38127 135.48 2.61423C132.715 5.22841 130.564 7.99637 129.028 11.3794C125.803 18.1455 131.025 25.373 138.552 23.8352C143.313 22.7588 147.614 21.0673 151.915 18.6069C148.075 14.7625 144.235 10.9181 140.395 7.07372C140.088 7.53504 139.627 8.15015 139.32 8.61147C133.329 15.2238 139.32 24.1428 147.614 22.7588C149.611 22.4513 151.301 21.9899 153.144 21.221C150.994 15.9927 148.843 10.9181 146.693 5.68974C139.166 11.5332 134.712 19.0682 135.019 28.756C135.172 35.5222 144.542 40.5967 149.458 34.7533C152.069 31.524 153.144 29.3711 153.298 25.2192C153.605 20.9135 149.15 16.454 144.85 16.7616C138.552 17.2229 131.64 20.1446 130.718 27.2183C129.643 34.9071 137.323 37.5212 143.313 38.5977C141.317 35.0608 139.32 31.6778 137.476 28.1409C137.323 29.2174 137.169 30.14 137.016 31.2164C135.94 38.5977 145.003 46.594 151.147 39.5203C152.683 37.675 154.219 35.8297 155.755 34.1382C150.994 32.908 146.386 31.6778 141.624 30.4476C141.47 29.5249 136.401 34.4457 136.094 34.7533C134.251 36.9061 133.176 39.2128 132.408 41.8269C130.871 46.9015 135.172 52.745 140.549 52.5912C142.085 52.4374 146.846 53.2063 144.542 50.7459C144.542 46.7478 144.542 42.7496 144.542 38.7514C140.088 43.5185 131.486 49.8233 133.636 57.512C135.633 64.7395 143.928 64.7395 149.918 65.5083C147.922 60.7413 145.925 55.8205 143.928 51.0535C141.624 53.5139 139.627 56.128 138.091 59.0498C135.787 63.663 137.63 70.2754 143.16 71.5056C149.611 73.0433 156.831 72.2745 160.056 65.6621C163.129 59.2036 161.746 49.3619 161.746 42.442C161.9 32.908 147.614 30.9089 145.157 40.1354C143.621 46.2864 142.699 53.9752 140.241 59.6649C141.931 58.4347 143.621 57.0507 145.31 55.8205C147 56.2818 148.69 56.7431 150.379 57.2045C146.846 49.977 137.476 53.2063 134.865 59.2036C130.103 70.7367 131.793 86.268 132.408 98.4163C133.022 109.488 138.552 126.096 132.715 136.553C130.257 141.012 132.254 147.932 137.784 149.008C143.621 150.239 150.533 152.545 155.295 147.471C160.21 142.088 158.52 132.093 158.674 125.327C158.828 116.716 159.288 108.104 158.828 99.6465C158.367 90.4199 155.909 81.501 154.987 72.4282C153.912 61.664 137.016 61.5102 138.091 72.4282C139.166 83.9614 142.085 94.8794 142.085 106.566C142.085 112.41 141.931 118.099 141.777 123.943C141.624 128.402 142.699 135.169 141.163 139.32C142.392 137.629 143.774 135.937 145.003 134.246C147 133.938 147.307 133.631 145.618 133.477C144.542 133.323 143.467 133.016 142.392 132.862C144.082 137.014 145.771 141.166 147.461 145.318C153.759 133.938 151.762 120.099 150.226 107.797C149.15 99.8002 148.997 92.2652 148.997 84.5765C148.997 77.5028 148.382 70.1216 151.147 63.5093C145.925 64.1244 140.856 64.8932 135.633 65.5083C138.705 71.8131 146.386 75.0424 152.53 70.4291C155.602 67.9687 156.37 63.9706 157.292 60.28C158.674 55.0516 160.056 49.6695 161.439 44.4411C155.909 43.6722 150.379 42.9034 144.85 42.1345C144.85 45.3638 144.696 48.5931 144.696 51.8223C144.696 53.2063 144.696 54.5903 144.542 55.9743C143.928 60.28 144.85 59.8187 147.461 54.8978C149.15 59.0498 150.84 63.2017 152.53 67.3536C153.298 65.5083 154.219 63.9706 155.755 62.7404C161.132 56.8969 156.831 49.2082 149.765 48.2855C148.69 48.1317 147.614 47.978 146.539 47.8242C144.696 47.5166 145.003 47.8242 147.614 48.9006C148.382 51.6686 148.997 54.4365 149.765 57.2045C149.918 56.2818 155.448 51.5148 156.37 50.4384C159.596 46.9015 159.596 41.9807 156.37 38.4439C151.455 33.0617 146.693 35.0608 140.395 35.3684C143.16 38.9052 145.771 42.442 148.536 46.1327C149.458 43.0571 154.219 40.5967 156.063 37.8288C158.52 33.8306 158.674 30.2938 157.906 25.6805C156.984 19.5295 147.614 17.3767 143.774 21.9899C142.238 23.8352 140.702 25.6805 139.166 27.3721C143.928 30.14 148.536 32.908 153.298 35.6759C153.451 34.5995 153.605 33.6769 153.759 32.6004C154.373 28.4485 152.837 23.0664 147.922 22.1437C144.696 20.9135 144.235 21.5286 146.386 23.989C146.386 26.9107 146.386 29.6787 146.386 32.6004C145.925 32.908 145.464 33.3693 145.003 33.6769C142.238 30.9089 139.32 27.9872 136.555 25.2192C136.555 25.8343 136.401 26.6032 136.401 27.2183C137.169 25.2192 138.091 23.2201 138.859 21.221C138.398 21.6824 137.937 22.2975 137.63 22.7588C142.392 24.7579 147.307 26.757 152.069 28.756C152.069 25.373 152.683 22.4513 155.448 20.2984C162.207 15.07 158.828 1.07648 148.997 4.76709C147.154 5.53596 145.464 5.99729 143.467 6.30484C146.232 11.0719 148.997 15.6851 151.762 20.4522C153.298 18.9144 154.373 17.3767 155.448 15.5314C159.749 8.15015 151.147 -0.307497 143.928 3.99821C140.856 5.68974 138.091 6.76617 134.558 7.53504C137.784 11.687 140.856 15.8389 144.082 19.9908C145.157 17.6842 146.078 16.3002 147.922 14.6087C154.066 8.76525 147.768 -1.84525 139.627 0.46138C137.63 1.07648 135.94 1.69158 134.097 2.76801C124.574 8.30392 133.022 22.9126 142.392 17.3767Z" fill="#00A19B"/>
<path d="M130.718 1.8453L130.411 2.15285C130.411 2.15285 131.025 2.15285 131.332 2.46041C131.025 5.07459 131.025 7.68877 131.025 10.6105C131.025 14.3011 131.025 18.1455 131.025 22.1436C130.718 22.1436 130.718 22.7587 130.718 23.0663C131.025 23.0663 131.025 23.0663 131.025 22.7587C131.025 25.988 131.025 29.0635 131.025 31.9853C130.718 32.2928 130.718 32.2928 130.411 32.2928C130.718 32.2928 130.718 32.2928 131.025 32.2928C131.025 34.5994 131.025 36.9061 131.025 39.2127C131.025 46.1326 131.025 53.0525 131.025 60.2799C131.025 60.2799 131.025 60.2799 130.718 60.5875C131.025 60.5875 131.025 60.5875 131.025 60.5875C131.025 62.8941 131.025 65.2007 131.025 67.5074C131.025 77.0414 131.025 86.5755 131.025 96.1096C131.025 105.336 131.025 115.178 131.025 124.404C131.025 134.246 131.332 143.78 131.639 153.314C131.947 153.006 131.947 152.699 132.254 152.699C132.561 149.777 132.561 146.855 132.561 144.087C132.561 134.553 132.561 125.019 132.561 115.485C132.561 105.951 132.561 96.4171 132.561 87.1906C132.561 80.5783 132.561 73.8122 132.561 67.5074C132.868 67.1998 132.868 67.1998 133.176 67.1998C133.176 75.8112 133.176 84.5764 133.176 93.1878C133.176 102.722 133.176 112.256 133.176 121.483C132.868 127.634 133.176 133.631 133.176 138.859C133.176 139.782 133.176 140.551 133.483 141.166H133.176H133.483C133.483 144.087 133.483 147.009 133.79 149.777C134.097 147.471 134.404 145.164 134.404 142.857C134.404 142.242 134.404 141.627 134.404 141.473C135.019 141.166 135.326 141.166 135.787 140.551C141.317 134.246 146.539 127.172 151.608 120.56C149.304 123.174 147 125.481 145.003 128.402C141.777 132.708 138.398 136.86 134.251 140.551C134.251 139.936 134.251 139.628 134.251 139.32C136.555 136.399 138.859 133.477 140.856 130.709C141.47 129.479 142.085 128.71 142.853 127.787C145.771 125.173 147.768 122.251 149.458 119.176C144.542 125.327 139.013 131.324 134.097 137.936C134.097 135.322 134.097 133.016 134.097 131.017C134.712 130.094 135.326 129.325 135.787 128.402C141.317 120.252 147.307 113.332 154.066 106.413C151.147 108.719 148.536 111.333 146.232 114.563C141.931 119.791 138.091 125.019 134.097 129.94C134.097 124.712 134.097 119.483 134.097 114.255C134.097 110.564 134.097 107.028 134.097 103.491C135.787 101.799 137.63 99.8002 139.013 97.9549C138.705 98.8775 138.091 99.6464 137.63 100.877C142.238 93.9567 147.461 87.4982 153.298 81.5009C152.991 81.1934 152.683 81.1934 152.683 81.5009C150.687 83.5 148.997 85.1915 147.154 87.3444C145.771 88.7284 144.542 90.5737 143.467 91.9576C140.549 95.6482 137.323 99.8002 134.251 103.491C134.251 100.877 134.251 98.2624 134.251 95.6483H134.558C135.94 94.418 137.169 93.0341 138.244 91.6501C144.081 84.1151 150.379 77.1952 157.292 70.8904C155.295 72.1206 153.298 73.1971 151.455 74.8886C144.85 81.1934 139.013 88.267 134.097 95.4945C134.097 94.1105 134.097 92.2652 134.097 90.8812C137.323 88.267 140.241 85.3453 142.699 81.9622C147.307 76.1188 151.608 70.7367 156.063 65.2007C154.834 66.4309 153.451 67.5074 152.53 68.8913C145.925 76.1188 139.781 83.3462 134.097 90.8812C134.097 89.1897 134.097 87.6519 134.097 85.9604C134.404 80.4245 134.404 75.0424 134.404 69.814C135.019 69.1989 135.326 68.43 135.787 67.5074C141.931 59.9724 147.614 52.7449 154.066 45.5175C152.837 46.1326 152.069 47.209 150.84 48.1317C145.31 55.0516 139.781 61.9715 134.404 69.1989C134.404 67.9687 134.404 67.1998 134.404 66.2772C135.326 65.047 136.094 64.2781 137.323 62.7403C142.853 54.8978 148.536 47.6704 155.295 41.058C153.912 41.9807 152.683 42.7495 151.608 43.9797C149.304 46.5939 147 48.9006 145.003 51.8223C141.777 56.128 138.398 60.4337 134.558 64.8932C134.558 62.5866 134.558 60.2799 134.558 58.2808C134.865 57.6657 135.172 57.3582 135.48 57.0506C141.317 49.5157 147.614 42.5958 154.219 35.9834C152.837 36.9061 151.301 37.9825 150.226 39.2127C145.003 45.0562 139.781 50.7459 134.558 56.5893C134.558 51.361 134.558 46.4401 134.558 41.5193C135.48 40.9042 135.94 40.1354 136.862 39.2127C143.006 31.6777 148.69 24.4503 154.527 16.9153C153.605 17.5304 153.298 17.8379 152.837 18.2993C154.066 16.9153 155.141 15.3775 156.37 13.9936C154.68 15.6851 153.144 17.5304 151.455 19.2219C149.458 21.221 147.768 23.5276 145.618 25.5267C149.304 20.9134 152.837 15.9926 156.37 11.0718C155.448 11.9945 154.68 12.7634 153.759 13.9936C149.765 19.2219 145.925 24.7578 142.238 29.8324C139.627 32.7541 137.323 35.6759 134.712 38.4438C134.712 36.7523 134.712 34.7532 134.712 32.6004C135.019 32.6004 135.019 32.6004 135.019 32.6004C141.624 25.6805 148.075 18.7606 154.373 11.5331C152.991 12.4558 151.762 13.2247 150.687 14.4549C144.85 20.2983 139.473 25.988 134.865 31.8315C134.865 30.9088 134.865 29.8324 134.865 28.9098C134.865 28.6022 134.865 28.6022 134.865 28.6022C140.395 22.2974 146.078 16.1464 151.915 10.1492C150.994 10.4567 150.687 10.7643 150.226 11.3794C145.003 16.6077 139.473 22.1436 134.865 27.8333C134.865 25.8343 134.865 23.8352 134.865 21.9899C140.088 18.453 144.389 14.1473 147.922 9.22652C147.614 8.91897 147.307 8.91897 147.307 9.22652C143.621 13.5322 139.166 17.8379 134.865 21.3748C134.865 20.4521 134.865 19.3757 134.865 18.453C138.552 13.8398 142.392 9.84162 146.693 5.68969C141.931 9.38029 138.244 12.7634 134.404 16.9153C134.097 15.2238 134.097 13.686 134.097 12.302C136.708 9.38029 139.013 6.45856 141.624 3.69061C146.232 3.99816 151.147 3.69061 156.063 3.07551V2.61418C150.226 2.30663 144.542 1.99908 138.705 1.69153C138.705 1.69153 138.705 1.69153 139.013 1.69153C146.232 1.69153 153.451 1.69153 160.671 1.69153C160.671 1.69153 161.285 1.69153 161.592 1.69153C160.671 3.99816 160.364 6.61234 160.671 9.53407C160.671 19.0681 160.671 28.6022 160.671 37.8287C160.671 47.3628 160.671 56.8969 160.671 66.4309C160.671 75.965 160.671 85.4991 160.671 95.0331C160.671 104.26 160.671 113.794 160.671 123.328C160.671 129.94 160.671 136.399 161.285 142.704C160.671 142.704 160.671 143.011 160.671 143.319C160.671 134.092 160.671 125.327 160.671 116.1C160.671 106.874 160.671 97.3398 160.671 87.8057C160.671 78.2716 160.671 68.7376 160.671 59.2035C160.671 49.6694 160.671 40.1354 160.671 30.6013C160.671 21.3748 160.671 11.5331 160.056 2.30663H159.749C159.442 4.92081 159.135 7.53499 159.135 9.84162C159.135 17.3766 159.135 25.2192 159.135 32.7541C159.135 28.756 159.135 24.6041 158.828 20.6059C158.213 25.5267 158.213 30.7551 158.213 36.291C158.213 45.825 158.213 55.3591 158.213 64.8932C158.213 74.4273 158.213 83.9613 158.213 93.4954C158.213 103.029 158.213 112.564 158.52 122.098C158.52 129.94 158.52 137.783 158.213 145.471C156.984 146.855 155.602 148.086 154.219 149.47C153.298 149.47 152.837 149.47 152.223 149.47C152.53 148.855 153.144 148.086 153.144 147.471C153.144 147.471 153.144 147.471 152.837 147.471C152.223 148.086 151.608 148.855 151.455 149.47C150.226 149.47 149.15 149.47 147.768 149.47C151.301 145.779 154.373 142.242 157.292 138.244C153.605 141.781 150.072 145.471 146.846 149.47C145.618 149.47 144.542 149.47 143.313 149.47C147.614 144.241 152.53 139.32 156.831 134.092C152.837 137.321 148.997 141.012 145.618 145.01C144.389 146.394 143.313 147.932 142.699 149.316C141.777 149.316 141.009 149.316 140.395 149.316C139.781 149.316 139.013 149.316 138.398 149.316C138.091 149.316 138.091 149.316 138.091 149.316C139.473 149.316 141.009 149.316 142.699 149.623H142.392H142.853C144.235 149.623 145.464 149.623 146.539 149.623C146.232 150.238 145.925 150.546 145.618 150.854C142.085 150.854 139.013 150.546 135.787 150.238V150.546C135.787 150.546 135.787 150.546 135.787 150.854C135.48 150.854 135.48 150.854 135.787 151.161C141.009 151.776 146.539 152.084 151.915 151.776C151.608 152.084 151.301 152.084 151.301 152.391C151.301 152.391 151.301 152.391 151.608 152.699C149.918 152.699 148.075 152.699 146.386 152.699C143.16 152.699 140.241 152.699 137.476 152.699H137.169C135.787 152.699 134.558 152.699 133.176 152.699C139.473 153.929 146.232 153.929 153.144 153.314C153.451 153.314 154.066 153.314 154.373 153.006H154.987V152.699C154.987 152.699 154.987 152.699 154.68 152.699C154.987 152.699 154.987 152.699 154.987 152.391C154.373 152.391 153.605 152.391 152.683 152.699C153.605 151.469 154.373 151.007 155.602 149.777C156.216 149.777 156.984 149.777 157.906 149.777H158.52C158.52 150.085 158.52 150.392 158.52 150.392C158.828 151.007 159.135 151.007 159.135 151.007C159.135 150.392 159.135 150.085 159.442 149.777C159.442 149.777 159.442 149.777 159.749 149.777C159.749 151.007 159.749 151.469 159.749 152.699C160.056 152.699 160.056 153.006 160.364 153.314C160.364 153.929 160.671 153.929 160.978 152.699C160.978 152.391 160.978 152.084 160.671 151.776C160.978 149.47 160.978 147.163 160.978 144.856C160.978 144.549 160.978 144.241 160.978 143.934C160.978 143.626 160.978 143.626 161.592 143.319C161.592 146.24 161.592 149.162 161.9 151.93C162.207 149.316 162.514 146.394 162.514 143.472C162.514 133.938 162.514 124.712 162.514 114.87C162.514 105.644 162.514 96.1096 162.514 86.5755C162.514 77.0414 162.514 67.5074 162.514 57.9733C162.514 48.7468 162.514 38.9052 162.514 29.6786C162.821 20.1446 162.514 10.918 162.207 1.53775C162.514 1.53775 162.821 1.53775 163.129 1.2302C162.514 0.922652 161.9 0.922652 161.132 0.922652C154.219 0.615101 147.307 0.307551 140.088 0.307551C140.088 0.307551 140.088 0.307551 140.395 0C140.088 0 140.088 0 139.781 0.307551C139.473 0.307551 139.473 0.307551 139.473 0.307551C138.091 0.307551 136.555 0.307551 135.172 0.307551C134.865 0.615101 134.558 0.615101 133.944 0.922652C133.944 0.615101 133.944 0.307551 133.944 0C133.944 0.307551 133.944 0.615101 133.944 0.922652C133.636 0.922652 133.636 0.922652 133.329 0.922652C133.329 0.922652 133.329 0.922652 133.022 0.922652C133.022 1.53775 133.329 1.53775 133.329 1.53775C133.329 1.8453 133.329 1.8453 133.329 1.8453C133.022 1.8453 132.408 1.8453 131.947 1.8453C131.947 1.8453 131.947 1.53775 131.947 1.2302V1.53775C131.639 1.53775 131.332 1.8453 131.332 1.8453C131.025 1.8453 131.025 1.8453 130.718 1.8453ZM137.63 3.53683C138.859 3.53683 139.934 3.53683 140.856 3.53683C138.552 6.15101 136.248 8.76519 134.251 11.6869C134.251 9.9954 134.251 8.15009 134.251 6.76611C135.326 5.84346 136.555 4.76703 137.63 3.53683ZM138.552 1.8453C138.244 1.8453 138.244 1.8453 138.244 1.8453C136.862 1.8453 135.326 1.8453 133.944 1.8453C133.636 1.8453 133.636 1.8453 133.636 1.53775C135.326 1.53775 136.708 1.53775 138.552 1.8453ZM132.1 2.46041C132.408 2.76796 133.022 2.76796 133.329 2.76796C133.022 4.15193 133.022 5.68969 133.022 7.07366C133.022 7.38122 132.715 7.68877 132.408 7.68877C132.715 7.68877 133.022 7.68877 133.022 7.68877C133.022 9.38029 133.022 11.3794 133.022 13.5322C133.022 13.5322 132.715 13.8398 132.408 14.1473C132.408 10.1492 132.408 6.45856 132.1 2.46041ZM134.097 6.15101C134.097 4.92081 134.097 3.84438 133.79 2.92173C134.712 2.92173 135.787 2.92173 137.016 3.22928C135.94 4.15193 135.019 5.22836 134.097 6.15101ZM132.408 14.3011V13.9936C132.715 13.9936 133.022 13.686 133.022 13.3785C133.022 15.07 133.022 16.9153 133.022 18.6068C133.022 18.6068 132.715 18.9144 132.408 19.2219C132.408 17.3766 132.408 15.6851 132.408 14.3011ZM132.408 20.9134C132.715 20.6059 133.022 20.2983 133.022 20.2983C133.022 23.2201 133.022 26.4494 133.022 29.5249C132.715 29.8324 132.715 29.8324 132.408 30.14V29.8324C132.408 26.9107 132.408 23.8352 132.408 20.9134ZM132.408 35.0608C132.715 35.0608 132.715 34.7532 133.022 34.4457C133.022 35.0608 133.022 35.3683 133.022 35.8296C133.022 37.2136 133.022 39.0589 133.022 40.4429C133.022 40.4429 133.022 40.4429 132.715 40.7505H133.022C133.022 41.3656 133.022 41.6731 133.022 42.1344C133.022 47.3628 133.022 52.8987 133.022 57.9733C132.715 57.9733 132.715 57.9733 132.408 58.2808C132.408 50.7459 132.408 42.9033 132.408 35.0608ZM132.408 31.0626C132.715 30.7551 132.715 30.7551 133.022 30.4475C133.022 31.6777 133.022 32.7541 133.022 33.9843C132.715 33.9843 132.715 34.2919 132.408 34.5994C132.408 33.3692 132.408 32.139 132.408 31.0626ZM134.404 40.5967C134.404 40.2891 134.404 39.674 134.404 39.674C135.787 38.4438 137.016 37.3674 138.091 35.9834C141.624 31.3702 145.618 26.7569 149.611 22.1436C144.85 28.4484 139.627 34.4457 134.404 40.5967ZM132.408 59.6648C132.715 59.3573 132.715 59.3573 133.022 59.3573C133.022 61.0488 133.022 62.8941 133.022 64.5856C133.022 65.2007 133.022 65.9696 133.022 66.5847C132.715 66.5847 132.715 66.8923 132.408 66.8923C132.408 64.5856 132.408 62.279 132.408 59.6648ZM146.232 151.161C146.539 150.854 146.846 150.546 147.461 149.931C148.69 149.931 150.072 149.931 151.455 149.931C151.147 150.238 151.147 150.546 150.84 150.854C151.147 150.546 151.147 150.546 151.455 150.546C151.455 150.546 151.762 150.238 152.069 149.931C152.683 149.931 153.298 149.931 153.759 149.931C153.144 150.546 152.837 151.161 152.376 151.622C150.379 151.315 148.382 151.315 146.232 151.161ZM159.288 144.703C159.288 143.78 159.288 142.396 159.288 141.473C159.288 142.396 159.288 143.934 159.288 144.703ZM159.288 145.933V145.625C159.288 147.009 159.288 148.239 159.596 149.623C159.288 149.623 159.288 149.623 159.288 149.623C159.288 148.239 159.288 147.009 159.288 145.933ZM158.52 149.623C157.599 149.623 156.831 149.623 156.216 149.623C157.138 148.701 157.906 147.624 158.52 146.702C158.52 147.624 158.52 148.855 158.52 149.623Z" fill="#333333"/>
<path d="M35.1755 61.6639H34.8683C34.5611 61.6639 34.5611 61.6639 34.5611 61.9715C34.8683 61.9715 34.8683 61.9715 35.1755 62.279C35.1755 62.279 35.1755 62.8941 35.1755 63.2017C34.5611 63.2017 33.9467 63.2017 33.4859 63.5092C33.4859 63.5092 33.4859 63.5092 33.7931 63.5092C34.1003 63.5092 34.7147 63.5092 35.1755 63.8168C34.5611 64.1243 33.7931 64.1243 33.1787 64.1243C33.7931 64.1243 34.5611 64.1243 35.1755 64.1243C34.8683 64.4319 34.8683 64.7394 34.8683 65.3545C34.5611 65.3545 33.9467 65.3545 33.6395 65.3545C33.9467 65.3545 34.5611 65.3545 34.8683 65.3545C34.5611 67.6611 34.5611 69.6602 34.5611 71.9669C34.2539 72.2744 33.9467 72.582 33.6395 72.8895C33.9467 72.8895 33.9467 72.8895 33.9467 72.8895C33.9467 72.582 34.2539 72.2744 34.5611 72.2744C34.2539 75.1961 34.2539 78.5792 34.2539 81.8085C34.5611 91.3425 34.5611 100.877 34.5611 110.103C34.5611 119.637 34.5611 129.171 34.2539 139.013C33.9467 143.934 34.5611 148.239 35.1755 152.545C34.8683 152.545 34.5611 152.545 34.2539 152.545C33.9467 152.545 33.9467 152.545 33.9467 152.545C34.5611 152.545 34.8683 152.545 35.1755 152.853C37.1724 152.853 39.1693 152.853 41.3197 152.853C42.2414 153.16 43.6238 153.16 45.0063 153.16C45.0063 153.16 45.0063 153.16 44.6991 153.468H45.0063C44.6991 153.468 44.6991 153.468 44.6991 153.775L42.0878 153.468C41.7806 153.468 41.7806 153.468 41.4734 153.468C41.4734 153.468 40.8589 153.468 40.5517 153.468C40.2445 153.468 39.6301 153.468 39.1693 153.775C37.9404 153.775 37.1724 153.775 36.2508 153.775C35.9436 153.775 35.9436 153.775 35.9436 154.083C38.5549 154.083 41.1661 154.698 43.7774 154.698C43.4702 155.313 43.163 155.621 42.5486 156.082C42.8558 156.082 43.163 156.082 43.163 155.774C43.4702 155.774 43.4702 155.774 43.4702 155.467C43.7774 155.467 44.3918 154.852 44.3918 154.544C47.9248 154.852 51.3041 154.852 54.5298 154.544C55.4514 154.544 56.5266 154.544 57.7555 154.544C57.7555 154.544 58.0627 154.544 58.0627 154.852C58.3699 154.544 58.6771 154.544 58.9843 154.544C60.9812 154.544 62.9781 154.237 65.1285 153.929C63.8997 153.929 63.4389 153.929 62.5172 153.929C62.5172 153.314 63.1317 153.314 63.4389 153.006C64.6677 152.699 65.4357 152.699 66.9718 152.699C66.9718 153.314 66.9718 153.929 66.9718 154.39C67.279 154.39 67.279 154.39 67.5862 154.083C67.5862 153.468 67.5862 153.16 67.8934 152.699C68.2006 152.699 68.5078 152.699 69.1223 152.699C69.1223 152.391 69.1223 152.391 69.1223 152.391C68.5078 152.391 68.2006 152.391 67.8934 152.391C67.8934 150.7 67.8934 149.162 67.8934 147.471C67.8934 138.244 67.8934 128.402 67.8934 119.176C68.2006 109.334 68.2006 99.8002 68.2006 90.5737C68.5078 81.3471 68.2006 72.582 67.8934 63.663C68.2006 63.3554 68.5078 63.3554 68.2006 62.7403C67.8934 62.7403 67.8934 62.7403 67.5862 62.7403C67.5862 62.4328 67.5862 62.1252 67.5862 61.8177C67.279 61.8177 67.279 61.8177 67.279 62.1252C66.9718 62.1252 66.9718 62.1252 66.6646 62.4328C65.4357 62.4328 64.9749 62.4328 64.0533 62.4328H63.7461C63.7461 62.4328 63.7461 62.4328 63.4389 62.4328C54.837 61.5101 46.0815 61.0488 37.4796 61.5101C36.8652 61.5101 36.2508 61.5101 35.79 61.5101C35.4828 60.895 35.4828 60.2799 35.4828 59.8186C35.1755 60.5875 35.1755 61.0488 35.1755 61.6639ZM39.7837 64.2781C39.1693 64.2781 39.1693 64.2781 39.1693 64.2781C37.7868 64.5856 36.8652 64.5856 35.6364 65.2007C35.3292 64.5856 35.3292 64.2781 35.3292 63.9705C37.0188 63.9705 38.4012 63.9705 39.7837 64.2781ZM35.79 65.5083C35.79 65.5083 35.79 65.5083 36.0972 65.5083C37.4796 65.5083 38.7085 65.5083 39.7837 65.2007C38.4012 66.8923 36.8652 68.43 35.79 70.1215C35.79 68.5838 35.79 66.8923 35.79 65.5083ZM36.0972 70.4291L35.79 70.7366C37.4796 69.0451 38.7085 67.1998 40.0909 65.2007C42.0878 65.2007 44.0846 64.5856 46.2351 64.5856C46.8495 64.5856 47.4639 64.5856 47.9248 64.5856C47.0031 65.8158 46.2351 66.8923 45.6207 68.1225C43.3166 70.4291 40.7053 72.7357 38.7085 75.0424C38.7085 75.0424 39.0157 75.0424 39.3229 75.0424C39.3229 74.7348 39.3229 74.7348 39.3229 74.4273C41.627 73.0433 43.3166 71.198 44.8527 69.5064C44.2382 70.4291 43.6238 70.8904 43.163 71.8131C42.8558 71.8131 42.8558 71.8131 42.8558 72.1206C40.5517 74.4273 38.5549 77.349 36.7116 79.9632C37.0188 79.9632 37.0188 79.9632 37.0188 79.6556C37.326 79.6556 37.326 79.6556 37.6332 79.3481C37.6332 79.0405 37.6332 79.0405 37.9404 79.0405C37.6332 79.6556 37.0188 79.9632 36.7116 80.4245C37.0188 80.4245 37.0188 80.4245 37.0188 80.1169C37.9404 79.1943 39.0157 78.1179 39.9373 77.1952C39.3229 77.8103 39.3229 78.4254 38.7085 78.8867L39.0157 78.5792C43.0094 73.9659 46.5423 69.3527 50.2288 64.4319C55.4514 64.4319 60.9812 64.4319 66.3574 64.4319C66.3574 65.8158 66.3574 67.3536 66.3574 69.0451C66.3574 75.1961 66.3574 81.1934 66.3574 87.4982C66.0502 82.2698 65.7429 77.349 65.7429 72.4282C65.1285 77.9641 64.5141 83.6538 64.8213 90.1123C64.8213 93.6492 64.8213 97.0322 65.1285 100.877C63.4389 102.568 61.442 104.567 59.2915 107.028C53.7618 114.409 47.6176 121.944 41.627 129.325C42.2414 129.633 43.3166 129.018 43.931 128.095C45.6207 126.096 47.4639 124.097 49.1536 121.944C54.6834 115.024 60.2132 108.104 65.2821 100.877C65.2821 107.028 65.2821 112.717 65.2821 118.561C64.9749 128.095 64.9749 137.936 65.2821 147.163C65.2821 147.163 65.8965 147.163 66.2038 147.163C66.511 143.626 66.511 139.628 66.511 135.937C66.511 141.166 66.8182 146.702 66.8182 152.391C65.8965 152.084 65.1285 152.084 63.8997 151.776C64.5141 150.854 64.8213 150.392 65.2821 149.47H64.9749C64.6677 149.777 64.0533 150.085 63.7461 150.392C63.4389 150.392 63.1317 150.392 62.8245 150.392C63.4389 149.47 64.2069 148.701 65.1285 147.471C63.8997 148.701 62.8244 149.47 61.9028 150.392C60.674 150.392 60.2132 150.392 59.2915 150.392C59.906 149.777 60.5204 149.162 60.674 148.701C60.674 148.393 60.3668 148.393 60.3668 148.701C59.7523 149.316 58.9843 149.931 58.3699 150.392C57.1411 150.392 56.0658 150.392 54.837 150.392C57.1411 147.471 59.1379 144.856 61.7492 142.242C59.1379 143.934 57.4483 145.779 55.4514 148.086C54.837 149.008 54.5298 149.777 54.069 150.392C53.4545 150.392 53.4545 150.392 53.1473 150.392C55.7586 148.086 57.7555 145.471 59.7524 142.55C59.7524 142.55 59.7523 142.55 59.1379 142.857C56.8339 145.164 54.5298 147.778 52.2257 150.392C51.6113 150.392 51.3041 150.392 50.9969 150.392C53.3009 147.471 55.605 144.549 57.6019 141.166C54.9906 144.703 52.3793 147.471 49.768 150.392C48.8464 150.392 48.5392 150.392 48.0784 150.392C52.6865 144.549 57.2947 139.474 61.5956 133.016C61.2884 133.016 61.2884 133.016 61.2884 133.631C58.9843 136.552 56.6803 139.474 54.3762 142.088C55.605 140.397 56.6802 138.859 57.6019 137.168C57.6019 136.86 57.2947 137.168 56.9875 137.168C53.3009 141.473 50.0752 145.779 46.8495 150.546C45.6207 150.238 44.5455 150.238 43.6238 150.238C43.931 149.623 44.5455 149.008 45.0063 148.547C48.6928 143.011 53.1473 138.09 57.4483 133.169C58.0627 132.554 58.3699 132.247 58.8307 131.785C58.5235 131.478 58.5235 131.478 58.2163 131.785C57.2947 132.708 56.8339 133.785 55.9122 134.4C50.9969 139.628 46.3887 144.856 42.395 150.238C41.4734 150.238 41.0125 150.238 40.0909 150.238C38.7085 150.546 37.4796 150.546 36.4044 150.546C36.0972 150.546 36.0972 150.546 36.0972 150.546C36.7116 150.854 37.326 150.854 38.094 150.854C39.4765 150.854 40.7053 150.854 42.0878 151.161C41.4734 151.469 41.1661 151.776 40.8589 152.545C40.5517 152.545 40.5517 152.545 40.2445 152.545H39.0157C37.6332 152.545 36.0972 152.545 34.7147 152.545C35.0219 151.161 35.0219 149.623 35.0219 148.239C35.6364 147.009 36.4044 146.548 37.0188 145.625C37.0188 146.548 37.0188 147.009 37.0188 147.932C37.0188 147.624 37.326 147.624 37.6332 147.624C37.6332 146.702 37.6332 145.933 37.6332 144.703C42.2414 138.398 46.5423 132.247 50.9969 125.634C50.6897 125.327 50.6897 125.327 50.6897 125.634C52.9937 122.405 55.2978 119.33 57.2947 116.408C52.9937 121.021 48.8464 126.25 44.8527 132.093C43.3166 135.169 40.7053 138.398 38.4013 141.473C38.4013 140.858 38.4013 140.243 38.4013 139.782C42.7022 135.476 46.2351 130.248 49.3072 125.019C53.6081 118.099 58.2163 111.641 63.1317 105.336C60.8276 107.028 59.1379 109.027 56.9875 111.641C51.4577 119.176 46.2351 126.711 41.627 134.553C41.9342 134.246 41.9342 133.631 42.5486 133.631C41.3197 135.322 39.6301 137.168 38.2476 139.474C38.2476 138.552 38.2476 138.244 38.2476 137.783C38.2476 134.092 38.2476 130.248 38.5549 126.557C40.5517 123.943 43.163 121.021 45.4671 118.099C51.3041 110.564 56.373 103.337 62.21 95.802C60.8276 97.0322 59.2915 98.7238 57.9091 100.415C56.5266 102.414 54.6834 104.413 52.9937 106.566C48.6928 112.871 43.4702 119.33 38.5549 125.019C38.5549 122.405 38.5549 120.099 38.5549 117.792C41.1661 116.408 43.4702 114.255 44.8527 111.487C50.6897 103.952 56.0658 96.4171 61.5956 88.8821C62.21 87.9595 62.9781 87.1906 63.5925 85.9604C58.9843 89.9586 54.9906 94.8794 51.7649 100.415C50.536 101.645 50.0752 102.722 49.4608 103.952C46.5423 107.643 43.6238 111.487 40.8589 114.716C40.5517 115.024 40.2445 115.331 39.9373 115.639C39.9373 115.639 39.9373 115.639 40.2445 115.639C39.6301 116.254 39.0157 116.869 38.5549 117.331C38.5549 116.715 38.5549 116.1 38.5549 115.639C38.5549 115.639 38.8621 115.639 39.1693 115.331C40.3981 114.101 41.4734 113.025 42.0878 111.641C47.9248 104.106 53.6081 96.2634 58.2163 88.267C56.9875 89.4972 55.9122 90.8812 54.6834 92.5727C49.1536 100.415 43.931 107.95 38.5549 115.793C38.5549 113.794 38.5549 111.487 38.5549 109.488C38.5549 109.18 38.5549 109.18 38.5549 109.18C38.5549 107.489 38.5549 105.644 38.5549 104.26C39.1693 103.645 39.7837 103.337 40.2445 102.876C41.627 100.877 43.163 99.1851 44.8527 97.0322C50.6897 89.4972 56.373 82.2698 62.8245 75.3499C59.906 77.0414 56.9875 79.6556 54.6834 82.8849C48.8464 89.8048 43.7774 96.7247 38.5549 103.491C38.5549 101.799 38.5549 100.262 38.5549 98.57C38.8621 98.2624 39.1693 97.9549 39.1693 97.3398C40.8589 95.6483 42.7022 93.8029 44.0846 92.1114C50.3824 85.1915 56.5266 77.6565 62.3636 70.4291C60.0596 72.4282 57.7555 75.0424 55.1442 77.6565C49 83.9613 43.6238 91.035 38.7085 97.9549C38.7085 96.7247 38.7085 95.6483 38.7085 94.2643C40.7053 92.8803 42.7022 91.035 44.5455 89.0359C50.8433 81.8085 56.6802 74.581 63.2853 67.6611C60.9812 69.3527 58.9843 71.3518 56.6803 73.8122C50.8433 79.9632 44.5455 86.5755 38.7085 93.4954C38.7085 92.5727 38.7085 91.8039 38.7085 91.1888C44.2382 84.2689 50.2288 77.349 56.6803 70.5829C56.0658 70.5829 55.7586 70.8904 55.2978 71.5055C49.4608 77.349 43.7774 83.6538 38.8621 90.2661C38.4012 88.5746 38.4013 86.5755 38.4013 84.884C39.0157 84.2689 39.3229 83.6538 40.0909 83.1924C42.7022 80.8858 45.0063 78.8867 47.3103 76.2726C44.6991 79.5018 42.0878 82.5773 39.1693 85.4991C44.6991 80.8858 49 75.965 52.5329 70.1215H52.2257C51.3041 71.3517 50.8433 72.4282 49.6144 73.6584C50.8433 71.9669 52.2257 69.9678 53.6081 67.8149C53.3009 67.5074 53.3009 67.5074 52.9937 67.8149C50.0752 72.1206 46.6959 75.965 43.163 79.6556C45.4671 76.4263 47.7712 73.3508 50.6897 70.1215C50.3824 70.1215 50.3824 70.1215 50.0752 70.4291C46.0815 74.7348 41.9342 79.0405 38.5549 83.8076C38.5549 84.1151 38.5549 84.1151 38.2476 84.4227C37.9404 84.1151 37.9404 84.1151 38.2476 83.8076C38.2476 83.8076 38.2476 83.8076 38.5549 83.8076C38.5549 83.5 38.5549 83.5 38.5549 83.1924C42.0878 79.1943 45.4671 75.0424 48.3856 70.7366C48.3856 70.7366 47.7712 70.7367 47.7712 71.0442C44.2382 75.0424 41.1661 79.1943 38.2476 83.5C37.9404 82.5773 37.9404 81.8085 37.9404 80.8858C37.6332 82.116 37.6332 83.1925 37.6332 84.5764C37.6332 84.884 37.6332 84.884 37.6332 84.884C37.326 85.1915 37.0188 85.4991 36.7116 85.8066C37.0188 85.8066 37.326 85.8066 37.326 85.4991C37.326 85.4991 37.326 85.4991 37.6332 85.4991C37.326 87.1906 37.326 89.0359 37.326 91.035C37.326 91.3425 37.326 91.3425 37.326 91.6501C37.0188 91.9576 36.7116 92.5727 36.0972 93.0341C36.4044 93.0341 36.7116 93.0341 37.0188 93.0341C37.326 93.0341 37.326 92.7265 37.326 92.419C37.326 93.0341 37.326 93.8029 37.326 94.4181C37.326 102.876 37.326 111.18 37.326 119.33C37.326 121.636 37.326 123.943 37.326 126.25C36.7116 126.865 36.0972 127.48 35.6364 127.941C35.6364 124.404 35.6364 120.714 35.6364 117.023C35.9436 107.796 35.9436 98.2624 35.9436 88.7284C35.9436 82.8849 35.9436 77.1952 35.6364 71.6593C36.4044 71.198 36.4044 70.8904 36.0972 70.4291ZM66.511 63.663C66.511 63.9705 66.511 63.9705 66.511 64.2781C63.8997 63.9705 61.5956 63.663 58.9843 63.663C59.5987 63.3554 60.2132 63.3554 60.3668 63.3554H60.9812C60.9812 63.3554 61.2884 63.3554 61.5956 63.3554C63.2853 63.663 64.6677 63.663 66.511 63.663ZM48.5392 64.5856C49.1536 64.5856 49.4608 64.5856 49.768 64.5856C48.5392 65.8158 47.7712 66.8923 46.5423 68.1225C47.3103 66.8923 47.9248 65.8158 48.5392 64.5856ZM49.6144 63.3554C49 63.3554 47.9248 63.3554 47.3103 63.3554C46.6959 63.3554 46.0815 63.3554 45.6207 63.3554C46.5423 63.3554 47.3103 63.3554 47.9248 63.3554C48.5392 63.3554 49.1536 63.3554 49.6144 63.3554ZM45.6207 153.622C45.6207 153.314 45.6207 153.314 45.9279 153.006C49.1536 153.314 52.2257 153.314 56.0658 153.314C55.7586 153.314 55.4514 153.622 55.1442 153.929L45.6207 153.622ZM46.5423 152.545V152.238C47.1567 151.622 47.4639 151.315 47.9248 151.007C48.5392 151.007 48.8464 151.007 49.3072 151.007C49 151.007 49 151.007 49 151.007C49.3072 151.622 50.2288 151.622 50.6897 151.007C50.6897 151.007 51.3041 151.007 51.9185 151.007C51.3041 151.315 50.6897 151.622 50.6897 151.93V152.238C51.3041 151.622 51.9185 151.315 52.0721 151.007C52.9937 151.007 53.4545 151.007 54.069 151.007C53.7618 151.315 53.7618 151.622 53.7618 151.93C53.1473 152.238 52.8401 152.238 52.2257 152.238C51.9185 152.238 51.3041 152.238 50.8433 152.238C49.4608 152.238 47.9248 152.238 46.5423 152.545ZM45.6207 152.545C44.3918 152.545 43.3166 152.545 41.9342 152.545C42.2414 151.622 42.8558 151.315 43.3166 151.161C44.5455 151.161 45.6207 151.161 46.5423 151.161C46.2351 151.315 45.9279 151.622 45.6207 152.545ZM53.7618 151.93C53.7618 151.622 54.3762 151.315 54.9906 151.007C55.9122 151.007 56.6803 151.007 58.2163 151.007C57.9091 151.007 57.6019 151.622 57.2947 151.622C56.0658 151.622 54.837 151.622 53.7618 151.93ZM58.0627 151.622C58.3699 151.622 58.9843 151.007 58.9843 151.007C59.5987 151.007 60.674 151.007 61.5956 151.007C60.9812 151.007 60.9812 151.622 60.674 151.622C59.4451 151.622 58.9843 151.622 58.0627 151.622ZM58.6771 153.929C58.0627 153.929 57.7555 153.929 57.7555 153.929H56.0658C56.0658 153.622 56.373 153.314 56.6803 153.314C57.6019 153.006 58.0627 153.006 59.2915 153.006C58.9843 153.468 58.9843 153.622 58.6771 153.929ZM59.4451 153.929C59.4451 153.622 60.0596 153.314 60.3668 153.006C60.9812 153.006 61.7492 153.006 62.3636 153.006C62.3636 153.314 62.0564 153.622 62.0564 153.929C60.9812 153.929 60.3668 153.929 59.4451 153.929ZM62.3636 151.161C62.3636 151.161 62.9781 151.161 63.2853 151.161C63.5925 151.161 63.5925 151.161 63.8997 151.161C63.5925 151.161 63.2853 151.776 62.9781 152.084C62.3636 151.776 62.0564 151.776 61.7492 151.776L62.3636 151.161ZM35.79 128.556C36.4044 128.556 37.0188 127.941 37.4796 127.326C37.4796 131.324 37.4796 135.784 37.7868 140.089C37.4796 140.089 37.4796 140.089 37.4796 140.397V140.704C37.4796 140.704 37.4796 140.704 37.7868 140.397C37.7868 141.012 37.7868 141.781 37.7868 142.396C37.4796 142.396 36.8652 143.011 36.8652 143.319C36.8652 143.011 37.4796 143.011 37.7868 143.011C37.7868 143.626 37.7868 144.241 37.7868 144.703C37.1724 145.933 36.4044 147.009 35.79 148.239C35.79 147.009 35.79 146.548 35.79 145.625C35.79 140.089 35.79 134.246 35.79 128.556ZM38.4013 142.704C38.7085 142.396 39.3229 142.088 39.3229 141.781C39.3229 142.396 38.7085 143.011 38.4013 143.78C38.4013 143.319 38.4013 143.011 38.4013 142.704Z" fill="#333333"/>
<path d="M37.1724 73.197C37.4796 73.197 37.7868 72.5819 38.4013 72.5819C38.4013 72.2744 38.4013 72.2744 38.7085 72.2744C40.3981 69.6602 42.7022 67.3536 44.8527 64.7394C44.5455 64.7394 44.5455 64.7394 44.5455 64.7394C40.8589 67.9687 38.2476 71.0442 36.4044 74.581V74.2735C37.0188 74.1197 37.0188 73.8121 37.1724 73.197Z" fill="#333333"/>
<path d="M56.373 67.1998C56.0658 66.8922 56.0658 66.8922 55.7586 67.1998C50.536 74.4272 45.0063 81.0396 39.3229 87.1906C45.9279 81.3471 51.4577 74.7348 56.373 67.1998Z" fill="#333333"/>
<path d="M59.4451 96.1096C58.0627 97.0323 56.5266 98.4163 55.7586 99.8002C50.2288 107.643 44.5454 115.178 39.0157 122.713C39.3229 122.713 39.3229 122.713 39.3229 122.713C40.5517 121.329 41.6269 120.099 42.2414 118.715C48.5392 111.18 54.3762 103.952 59.4451 96.1096Z" fill="#333333"/>
<path d="M63.2853 98.1086C61.2884 100.415 59.2915 103.337 57.1411 105.951C50.8433 113.794 45.0063 121.329 39.1693 128.556C39.1693 128.556 39.7837 128.556 40.0909 128.556C42.0878 126.25 44.3919 123.328 46.3887 121.021C52.8401 113.486 58.3699 105.951 63.2853 98.1086Z" fill="#333333"/>
<path d="M46.2351 102.261C52.0721 94.7256 57.4483 87.1906 63.2853 79.6556C61.5956 81.6547 59.5987 83.6538 58.0627 85.9604C51.9185 92.8803 46.2351 100.723 41.627 108.565C43.3166 106.566 44.6991 104.567 46.2351 102.261Z" fill="#333333"/>
<path d="M60.9812 125.019C60.674 125.019 60.0595 125.327 59.5987 125.634C52.6865 132.554 46.8495 140.089 42.2414 148.239C42.2414 148.239 42.2414 148.239 42.8558 148.239C42.8558 148.239 43.163 148.239 43.4702 148.239C43.4702 147.932 43.4702 147.624 43.7774 147.317C48.8464 139.474 54.837 131.632 60.9812 125.019Z" fill="#333333"/>
<path d="M57.4483 120.714H57.1411C51.6113 128.249 46.2351 136.091 40.3981 143.626C40.7053 143.934 40.7053 143.934 41.0125 143.934H41.3197C40.7053 144.549 39.9373 145.318 39.3229 145.933C39.3229 146.24 39.3229 146.24 39.9373 146.24C41.9342 144.856 43.6238 142.704 45.7743 140.397C50.9969 132.554 57.2947 125.327 63.4389 118.099C61.1348 119.483 59.4451 121.329 57.6019 123.635C52.3793 130.863 47.1567 137.168 41.7806 143.626C47.0031 136.091 52.2257 128.556 57.4483 120.714Z" fill="#333333"/>
<path d="M46.5423 126.557C44.2382 129.479 41.9342 132.401 39.3229 135.169C39.9373 134.861 39.9373 134.861 40.2445 134.861C40.5517 134.553 40.5517 134.553 40.5517 134.246C43.0094 132.247 45.0063 129.325 46.5423 126.557Z" fill="#333333"/>
<path d="M46.2351 99.3389C51.7649 91.1888 57.7555 83.6538 63.8997 76.7339C60.3668 79.3481 57.2947 82.5773 54.3762 86.5755C48.5392 94.1105 43.6238 101.645 38.7085 108.873C41.627 105.951 43.931 102.722 46.2351 99.3389Z" fill="#333333"/>
<path d="M154.987 29.5249C154.987 29.5249 154.68 29.5249 154.68 29.8325C148.536 35.3684 143.467 41.3656 138.859 47.8242C138.859 47.8242 139.166 47.8242 139.166 47.5166C139.166 47.2091 139.166 47.2091 139.473 47.2091C144.542 41.2118 149.765 35.0608 154.987 29.5249Z" fill="#333333"/>
<path d="M157.906 19.6832C156.984 19.9908 156.216 20.6059 155.602 21.3748C149.458 28.9097 142.853 35.8296 135.94 42.442C136.248 42.7495 136.862 42.7495 137.169 43.0571C137.784 42.1344 138.552 41.3655 139.166 40.7504C145.003 34.907 150.072 28.9097 155.295 22.7587C156.063 21.9899 156.984 20.9134 157.906 19.6832Z" fill="#333333"/>
<path d="M134.712 48.9006C135.019 48.9006 135.326 48.9006 135.326 48.593C136.248 47.3628 137.323 46.2864 138.245 45.0562C144.85 38.1363 150.379 30.6013 155.295 22.7588C151.608 27.6796 147.461 32.6004 143.467 37.8288C139.934 41.5194 137.323 45.5175 134.712 48.9006Z" fill="#333333"/>
<path d="M135.326 29.0635C135.633 29.0635 135.94 29.0635 135.94 29.0635C136.248 28.756 136.248 28.756 136.248 28.4484C142.085 22.605 147.768 16.6077 153.298 10.1492C151.301 11.5331 149.611 13.0709 147.768 14.7624C143.774 19.6832 139.32 24.2965 135.326 29.0635Z" fill="#333333"/>
<path d="M135.94 57.3582C136.248 57.3582 136.555 57.0506 137.169 56.7431C142.699 48.9005 148.997 41.6731 156.216 35.3683C155.602 35.3683 154.987 35.6758 154.527 35.9834C147.461 42.5957 141.317 49.5156 135.94 57.3582Z" fill="#333333"/>
<path d="M153.298 52.4374C152.683 52.4374 152.069 53.0525 151.608 53.6676C146.386 60.2799 140.856 67.046 135.787 73.6584L136.094 73.9659C141.624 66.5847 147.768 59.3573 153.298 52.4374Z" fill="#333333"/>
<path d="M155.295 46.5939C154.68 46.9014 153.912 47.5165 153.298 47.9779C147.461 55.6666 141.317 63.2016 135.94 70.8904C135.94 70.8904 136.248 70.8904 136.248 70.5828C137.169 69.9677 137.476 69.3526 137.937 68.8913C143.774 61.3563 149.458 53.8213 155.295 46.5939Z" fill="#333333"/>
<path d="M154.373 37.9825C154.066 37.675 153.451 37.9825 153.451 37.9825C146.846 44.9024 141.009 52.4374 136.094 60.5875C136.401 60.5875 136.708 60.2799 137.016 59.9724C141.931 52.1298 147.768 44.9024 154.373 37.9825Z" fill="#333333"/>
<path d="M152.376 55.3591C151.455 55.9742 150.687 56.5893 149.765 57.6658C144.85 63.5092 139.934 69.5065 135.019 75.6575C135.326 75.6575 135.94 75.6575 135.94 75.965C136.248 75.6575 136.248 75.6575 136.248 75.6575C141.624 68.5838 146.846 61.6639 152.376 55.3591Z" fill="#333333"/>
<path d="M153.298 66.2772C152.991 65.9696 152.683 65.9696 152.683 66.2772C146.539 72.582 141.47 79.6556 136.555 86.268C136.862 85.9604 136.862 85.9604 137.169 85.9604C142.545 79.6556 147.768 73.0433 153.298 66.2772Z" fill="#333333"/>
<path d="M154.066 59.9724C153.451 59.9724 153.451 59.9724 153.144 60.28C146.846 67.5074 141.009 74.7348 135.172 82.5774C135.48 82.2698 135.787 82.2698 135.787 81.9623C141.931 74.4273 147.768 67.1999 154.066 59.9724Z" fill="#333333"/>
<path d="M156.984 74.4272C156.677 74.4272 156.37 74.4272 156.37 74.7348C150.226 80.2707 144.85 86.5755 140.549 93.4954C140.856 93.4954 141.163 93.4954 141.163 93.1878C141.163 92.8803 141.163 92.8803 141.47 92.8803C146.232 86.2679 151.455 80.2707 156.984 74.4272Z" fill="#333333"/>
<path d="M146.539 65.8158C146.232 65.8158 146.232 65.8158 146.232 65.8158C143.621 68.7375 141.317 71.9668 139.627 75.0423C139.32 74.7348 139.013 74.7348 139.013 75.0423C137.63 76.2725 136.094 77.964 134.712 79.6556H135.019C136.708 78.2716 138.245 76.7338 139.627 75.0423C139.934 75.0423 139.934 75.0423 139.934 74.7348C142.238 71.813 144.542 68.8913 146.539 65.8158Z" fill="#333333"/>
<path d="M137.937 105.029L137.63 105.336C136.248 106.259 135.326 107.335 134.404 108.873C134.712 108.873 135.326 108.873 135.326 108.873C135.633 108.565 135.633 108.565 135.94 108.258C136.708 107.335 137.63 106.259 137.937 105.029Z" fill="#333333"/>
<path d="M138.859 105.951C139.473 105.336 140.088 105.029 140.549 104.567C139.32 105.951 138.245 107.181 137.016 108.565C138.245 108.565 139.013 107.95 139.934 106.874C141.163 104.875 142.853 103.183 143.928 101.03C143.928 101.03 143.928 101.03 144.235 101.03C143.621 101.645 143.313 102.261 142.853 102.722C140.241 106.413 137.323 110.257 134.404 113.486C135.326 113.179 136.094 112.256 137.016 111.487C142.238 103.952 148.075 97.0322 154.066 90.4199C152.683 91.8039 150.84 93.0341 149.765 94.418C150.379 93.4954 150.687 93.0341 151.455 91.8039C151.147 91.8039 151.147 91.8039 150.84 91.8039C153.144 89.4972 154.834 87.1906 157.138 84.5764C153.144 88.5746 149.304 93.0341 145.925 97.6473C144.696 98.8775 143.928 100.261 142.699 101.645C141.317 103.337 139.781 104.875 138.398 106.566C138.859 106.259 138.859 106.259 138.859 105.951Z" fill="#333333"/>
<path d="M149.458 99.954C149.15 99.954 149.15 99.954 149.15 99.954C144.235 106.105 139.32 111.795 134.712 117.331C135.019 117.331 135.019 117.331 135.019 117.023C138.245 114.101 141.163 110.718 143.621 107.489C142.699 109.18 141.624 110.718 140.395 112.102C139.781 113.025 139.013 114.101 138.398 115.024C137.476 115.947 136.401 117.023 135.48 118.253C135.787 117.946 136.094 117.638 136.401 117.638H136.708C135.787 118.561 135.326 119.33 134.404 120.56C134.712 120.56 134.712 120.56 135.019 120.252C135.633 119.637 135.94 119.33 136.248 118.868C137.63 117.177 139.166 115.332 140.549 113.64C145.771 107.797 150.379 101.799 155.295 95.9558C153.298 97.9549 150.994 99.954 149.15 102.261C150.072 100.877 151.147 99.3389 152.376 97.6473C152.069 97.9549 151.762 98.2624 151.455 98.57C152.069 97.6473 152.683 96.8785 153.144 95.9558C152.53 95.9558 151.915 96.5709 151.455 97.186C150.533 98.4162 150.072 99.4926 149.458 100.723C149.15 101.03 148.536 101.338 148.536 101.953C148.69 101.03 149.15 100.415 149.458 99.954Z" fill="#333333"/>
<path d="M143.928 97.4935C147.154 93.1878 150.226 89.0359 153.144 85.0377C153.144 85.0377 153.144 85.0377 152.837 85.3453C149.15 89.0359 146.232 93.4954 143.313 97.8011C143.774 97.8011 143.774 97.8011 143.928 97.4935Z" fill="#333333"/>
<path d="M154.987 99.0312C154.373 99.0312 154.066 99.3388 153.605 99.6464C147 105.951 141.163 113.486 136.862 122.251C137.169 122.251 137.784 121.944 137.784 121.329C138.705 119.945 139.166 118.714 140.395 117.638C139.781 118.561 139.166 119.33 139.013 119.945C143.006 114.409 147.154 109.18 150.84 104.106C152.069 102.261 153.605 100.723 154.987 99.0312Z" fill="#333333"/>
<path d="M156.063 109.949C155.448 110.564 154.68 111.18 154.066 111.641C147.768 118.868 141.624 126.096 135.787 133.016C136.708 132.401 137.476 132.093 138.091 131.324C143.928 124.25 150.379 117.023 156.063 109.949Z" fill="#333333"/>
<path d="M149.15 134.246H148.843C145.618 138.859 141.931 142.857 138.091 147.009C138.398 147.009 138.398 147.009 138.705 146.702C142.853 143.011 146.232 139.013 149.15 134.246Z" fill="#333333"/>
<path d="M138.859 145.01C139.166 144.703 139.166 144.703 139.473 144.703C143.16 140.089 147 135.784 150.379 131.324C150.072 131.017 149.765 131.017 149.765 131.324C145.771 135.937 141.931 140.551 138.245 144.856C138.552 145.01 138.859 145.01 138.859 145.01Z" fill="#333333"/>
<path d="M135.94 144.087C141.163 138.244 146.078 132.247 150.379 125.788C147.768 128.71 145.157 132.093 142.853 135.63C141.624 137.014 140.856 138.244 139.32 139.32C137.63 141.012 136.248 142.396 135.94 144.087Z" fill="#333333"/>
<path d="M133.022 154.237C133.022 154.237 133.022 154.237 133.022 154.544C141.931 155.467 150.687 155.774 159.903 154.544C152.683 154.237 145.771 154.237 138.859 153.929C137.016 153.929 135.326 153.929 133.022 154.237Z" fill="#333333"/>
<path d="M141.624 147.932C141.931 147.624 141.931 147.624 141.931 147.624C146.232 143.011 150.379 138.09 154.066 133.169C153.759 133.169 153.451 133.169 153.451 133.169C149.15 138.09 145.464 143.011 141.624 147.932Z" fill="#333333"/>
<path d="M40.0909 162.079C31.7962 161.772 23.348 161.772 15.0533 162.387C12.5956 162.387 10.2915 162.387 7.83386 162.387C6.60502 162.387 5.68339 162.387 4.60815 162.694C4.14734 162.694 3.68652 162.694 3.22571 162.694C3.0721 162.694 3.0721 162.694 3.0721 162.694C7.21944 163.002 11.3668 163.309 15.3605 163.617C11.0596 163.617 6.45141 163.617 1.84326 163.924C1.84326 163.924 1.84326 163.924 1.84326 164.232C3.37931 164.54 5.06897 164.847 6.75862 165.155V165.155C6.75862 165.462 6.75862 165.462 6.75862 165.77C6.75862 165.77 6.60502 165.77 6.29781 165.77C6.1442 165.77 6.1442 165.77 6.1442 165.462L5.9906 165.155C5.9906 165.155 5.9906 165.155 5.9906 165.462C5.83699 165.77 5.83699 165.77 5.83699 165.77C5.83699 166.077 5.83699 166.077 5.9906 166.077C5.9906 166.077 5.9906 166.077 6.1442 166.077C4.14734 166.077 2.30408 165.77 0.30721 165.77C0.153605 165.77 0.153605 165.77 0.153605 165.77C0 165.77 0 165.77 0 166.077C0 166.077 0 166.077 0 166.385C0.460815 166.692 0.768025 166.692 1.22884 166.692C1.07524 166.692 1.07524 166.692 1.07524 166.692C1.22884 167 1.68966 167 1.84326 167C4.60815 167.308 7.68025 167.308 10.4451 167.308C52.0721 167.308 123.959 167.308 165.433 167.308C166.815 167.308 168.197 167.308 169.58 167H169.734C175.11 167 180.486 167 185.862 167C186.476 167 187.091 166.692 187.705 166.385C187.245 166.077 187.091 165.77 186.784 165.77C189.241 165.77 191.545 165.77 193.696 165.77C194.464 165.77 195.232 165.77 195.693 165.462H196.154C194.618 164.847 193.235 164.54 191.545 164.54C188.627 164.54 185.708 164.54 182.79 164.54C183.558 164.54 184.172 164.54 184.787 164.232H184.94C183.712 163.617 182.329 163.617 180.793 163.617C179.411 163.617 178.028 163.617 176.646 163.617C179.564 163.309 182.636 163.309 185.555 163.309C186.169 163.309 186.784 163.002 187.552 163.002H187.705C187.245 162.694 187.091 162.694 186.784 162.694C184.94 161.772 183.251 161.772 181.408 161.772C144.542 162.079 76.9561 162.079 40.0909 162.079ZM15.9749 165.616C17.2038 165.616 18.5862 165.616 19.815 165.616C16.8966 165.924 13.8245 165.924 10.906 165.924C10.7524 165.924 10.7524 165.924 10.4451 165.924C9.67712 165.924 8.44828 165.924 7.52665 165.924C10.1379 165.616 13.0564 165.616 15.9749 165.616ZM22.7335 163.463C24.5768 163.156 26.2665 163.156 28.2633 163.156C31.489 163.156 34.5611 163.156 37.7868 163.463C32.5643 163.463 27.6489 163.463 22.7335 163.463Z" fill="#333333"/>
</g>
<defs>
<clipPath id="clip0_220_7">
<rect width="196" height="167" fill="white"/>
</clipPath>
</defs>
</svg>
