<?xml version="1.0" encoding="utf-8"?>
<!-- Generator: Adobe Illustrator 26.2.1, SVG Export Plug-In . SVG Version: 6.00 Build 0)  -->
<svg version="1.1" id="Layer_1" xmlns="http://www.w3.org/2000/svg" xmlns:xlink="http://www.w3.org/1999/xlink" x="0px" y="0px"
	 viewBox="0 0 138.8 104" style="enable-background:new 0 0 138.8 104;" xml:space="preserve">
<style type="text/css">
	.st0{opacity:0.7;}
	.st1{fill:#E7C582;}
	.st2{opacity:0.7;fill:#00A19B;}
	.st3{fill:#D27571;}
	.st4{fill:#333333;}
</style>
<g class="st0">
	<g>
		<path class="st1" d="M49.7,19.3C42.6,21.6,38,27,34.9,33.7c-3.4,7.5-6.2,14.7-4.9,23.1c1.3,8.7,6,14.8,11.3,21.6
			c4.8,6.1,9.5,9.5,17.4,10.3c15.2,1.6,30.9-2.2,39.6-15.7c8.5-13,7.9-31.6-1.8-43.6c-11-13.5-32.6-17.5-47.8-9
			c-6.7,3.8-0.7,14.1,6.1,10.4c11.5-6.4,28.7-1.9,35,9.8c5.9,11,1.9,27.4-9.3,33.4c-5.7,3.1-13,3.3-19.4,2.9
			C53.8,76.4,51,71.6,47,66.3c-4.4-5.8-6.7-12.6-4.5-19.7c1.6-5.3,4.5-13.8,10.4-15.7C60.3,28.6,57.1,17,49.7,19.3L49.7,19.3z"/>
	</g>
</g>
<path class="st2" d="M91.2,44.5c-1.9-2.5-2.6-5.6-4.9-7.9c-1.9-1.9-4.4-4.3-6.7-5.7c-6-3.6-14.2-4.5-20.9-2.5
	c-0.7,0.2-1.2,0.5-1.7,0.8c-5.1,0.8-9.5,3.2-12.2,8c-5.9,10.6-4.4,25.9,5.8,33.4c1,0.7,2,1.1,2.9,1.1c0.6,0.5,1.5,1,2.5,1.2
	c10.6,2.5,26.9,1.5,32.5-9.9c1.5-3.1,1.9-7.3,1.7-11.4C92.3,50.1,93.3,47.3,91.2,44.5z M77.9,57.6c-3.2,5.7-13.6,4.9-18.6,3.7
	c-0.5-0.1-1-0.2-1.5-0.2c-0.3-0.3-0.6-0.7-1-1c-2-1.5-3.1-6.2-3.5-8.5c-0.4-2.5,0.5-6.7,2.2-8.7c4.2-5,14-1.5,18.6,0.6
	c3.3,1.5,3.7,2.8,3.8,6.4C77.9,51.6,78.3,56.8,77.9,57.6z"/>
<path class="st3" d="M79.7,47.4c-1-2.1-2.4-3.7-4-4.9c-0.4-0.3-0.8-0.7-1.4-0.9c-5.6-2.8-11.8-4.8-17.4-0.8
	c-3.3,2.3-4.8,6.3-4.4,10.1c-0.3,1.2-0.4,2.4-0.2,3.9c0.7,6.8,6.7,10.5,13.3,10c2-0.1,3.8-0.6,5.5-1.3c0.6,0,1.2,0.1,1.8,0
	C81.5,62.9,82.8,53.9,79.7,47.4z"/>
<g>
	<g>
		<path class="st4" d="M103.6,39.6L103.6,39.6c-0.1-0.8-0.3-1.4-0.3-2c-0.7-3.4-2-6.7-4.1-9.6H99c1.2,1.8,2.1,3.8,2.6,5.8
			c0,0,0-0.3-0.1-0.3c-2.1-4.8-5.1-8.9-9-12.3c-4.2-5.1-10-7.9-17-8.1c-0.8-0.3-1.7-0.5-2.6-0.9c-0.8,0.3-0.7,0.5,0.4,1
			c-0.7-0.1-1.3-0.1-1.8-0.3c-1.4-0.7-2.9-1.2-4.5-1.4c-0.1-2.2-0.3-4.3-0.4-6.5c0,0.4-0.3,0.9-0.3,1.4c-0.1-2.4-0.1-4.7-0.3-7.1
			c-0.3-0.1-0.4,0-0.4,0.1c-0.3,4.2-0.3,8.1-0.1,11.9c-0.1,0-0.4,0-0.7,0c-3.1,0.3-6.3,0.9-9.3,2.2c-2.6,1-5,2.5-7.1,4.2
			c-7.9,3.7-13.5,9.4-17.2,17.3c-2.5,5.1-3.3,10.3-2.6,15.7c-2.9,0-5.8,0-8.5,0c-2,0.1-3.8,0.1-5.8,0.1c-0.7,0.1-1.3,0.1-2.1,0.3
			c-0.1,0-0.3,0.1-0.3,0.1c0.7,0.3,1.4,0.3,2.4,0.4c4.8,0.1,9.7,0.3,14.4,0.3c0.1,0.5,0.1,1,0.3,1.4c0.4,7.6,3,14.3,7.6,19.8
			c1.3,1.8,2.6,3.7,4.2,5.2C34.9,73,30.6,66.2,28,58.2c-0.3,1.6,0.1,3.5,1.2,5.8c4.7,10,12,17.4,21.7,22.7c0.7,0.4,1.2,0.7,1.7,0.9
			c0,0,0,0-0.1,0c1.8,1.2,3.8,2,6,2.1c2.6,0.4,5,0.4,7.3,0.4c0.1,5.2,0.3,10.5,0.3,15.7c0.1-0.1,0.4-0.3,0.5-0.5
			c0.3-3.4,0.3-6.8,0.3-10.2c0-1.7,0-3.4,0-5c2.8-0.3,5.5-0.8,8.1-1.4c3.7,0.4,6.7-0.5,9.2-2.9c-0.8,0.3-1.6,0.4-2.2,0.5
			c-0.4,0-0.8,0-1.2,0.1c0.5-0.4,1.2-0.7,1.7-0.9c0,0,0.1,0,0.3-0.1c8.5-2.4,14.4-7.2,17.7-14.7c3.3-5.1,4.8-10.5,5-16.4
			c0,0.4,0,0.7,0.1,1c0-0.1,0-0.3,0-0.4c0-0.9,0-1.7-0.1-2.6c5.6-0.1,11.1-0.3,16.6-0.4c1.6,0,3.1,0,4.6-0.3c0.1,0,0.3,0,0.4,0
			c-0.7-0.1-1.3-0.3-2-0.3c-3.9-0.3-7.9-0.4-11.9-0.4c-2.6,0-5.2,0-7.9,0c-0.3-2.7-0.7-5.6-1.2-8.4
			C104.1,41.7,103.8,40.6,103.6,39.6z M102.4,37.6c0.1,0.5,0.1,1.2,0.1,1.7c-0.5-1.8-1.2-3.7-2.1-5.4c-0.4-0.9-0.8-1.7-1.2-2.6
			c0.5,0.7,1.2,1.4,1.7,2.2C101.5,34.9,102,36.3,102.4,37.6z M103,49L103,49c0,0,0.1,0,0.3,0c0,0.1,0,0.4,0,0.5c0,0.4,0,0.9,0,1.4
			c-0.3,0-0.4,0-0.7,0C102.8,50.3,102.9,49.7,103,49z M104.7,51c-0.1,0-0.1,0-0.3,0c0-0.7,0-1.3,0-2C104.5,49.7,104.6,50.3,104.7,51
			z M104.1,56.5c0.1-1.4,0.3-2.9,0.4-4.2c0,0,0.1,0,0.3,0C104.6,53.6,104.3,55.1,104.1,56.5z M102.5,52.3c0.1,0,0.5,0,0.8,0
			c-0.3,4.5-1.4,8.6-3.4,13c-0.5,0.9-0.8,1.8-1,2.7c-0.5,1-0.9,2-1.6,3c0,0,0,0,0,0.1c2-6.2,3.1-12.4,3.3-18.9c0.3,0,0.5,0,0.8,0
			c-0.8,4.3-1.6,8.6-2.5,12.8c0.1,0,0.4-0.1,0.5-0.1c0-0.1,0-0.3,0.1-0.4C100.7,60.6,101.7,56.5,102.5,52.3z M33.5,33.7
			c1-1.4,2.1-2.8,3.3-4.1c0.8-0.7,1.6-1.4,2.5-2c-1,1.7-2.1,3.7-2.8,5.8c0.9-1.4,1.8-2.9,3-4.6c0.5-0.8,1.2-1.7,1.7-2.5
			c0.4-0.3,0.8-0.5,1.2-0.7c0.1,0,0.1,0,0.1,0c0,0.1,0.1,0.4,0.3,0.4c0,0.1,0.1,0.1,0.4,0.1C43,26,43,25.7,42.9,25.5
			c0-0.1,0-0.1,0-0.1c7.1-3.9,14.5-6.8,22.5-8.3c0,2.9,0.1,5.6,0.3,8.4c-0.3,0.1-0.5,0.3-0.8,0.4l0,0c-5.5-0.1-10.7,1-15.6,3.7
			c-2.9,1.7-4.2,3.7-3.8,6.2c-1.8,1.3-3.4,2.9-4.7,5.1c-2,3-3,6.5-3,10.2c-2-0.1-3.9-0.1-5.9-0.1c0.4-4.3,2-8.4,4.5-12.6
			c-0.7,0.3-1.2,0.7-1.6,1.4c-2,3.1-3.3,6.5-3.8,10c-0.1-1.2-0.3-2.4-0.3-3.5c0.1-1.8,0.4-3.7,0.8-5.6c0.1-0.1,0.1-0.3,0.1-0.4
			c0.5-0.9,0.9-1.7,1-2.7c-0.1,0-0.1,0-0.3,0.1c-0.4,0.9-0.8,1.7-1.4,2.6C31.7,37.9,32.4,35.7,33.5,33.7z M31.8,52.2
			c2,0,4.1,0,6,0.1c0.1,0.9,0.1,1.8,0.4,2.8c0,0.4,0.1,0.8,0.1,1.2c0.3,3,1.6,5.8,3.7,8.4c4.1,4.8,8.6,8.5,13.9,10.9
			c-0.3-0.1-0.5-0.3-0.8-0.5c1.3,0.7,2.8,1,4.3,1.4c0.9,0.4,2.1,0.8,3.4,0.9c0.9,0,2,0.1,2.9,0.3c0,2.9,0,5.9,0.1,9
			c-2.6-0.3-5.1-0.7-7.6-1c-2.6-0.9-5.1-2.1-7.3-3.4c0.1,0.1,0.4,0.1,0.4,0.1c-0.1,0-0.3-0.1-0.7-0.1c-5.6-3.4-10.5-8-14.3-13.8
			h-0.3c0.4,1.2,0.9,2.4,1.4,3.4c-0.1-0.3-0.3-0.4-0.4-0.7c-0.1-0.3-0.4-0.5-0.5-0.9c-2.2-4.7-3.8-9.7-4.8-14.7
			C31.8,54.4,31.8,53.2,31.8,52.2z M77.6,16.4c-1.6-0.7-3.1-1.2-4.7-1.7c0.5,0.1,1,0.3,1.7,0.4c1,0.4,2.2,0.8,3.4,1.2
			C77.9,16.3,77.8,16.3,77.6,16.4z M76.8,16.8l0.1,0.3c0.3,0,0.5,0,0.7,0c3.8,1.4,7.6,3.3,11.1,5.4c0.4,0.4,0.9,0.8,1.4,1.2
			c0.3,0.4,0.8,0.8,1.3,1.2c0.8,0.9,1.7,1.7,2.5,2.6c0.8,0.8,1.3,1.6,1.7,2.5c0.7,1.6,1.4,2.7,2.1,3.3c0.1-0.8-0.1-1.6-0.4-2.2h0.1
			c0.5,0.8,0.9,1.7,1.4,2.6c0.8,1.7,1.6,3.4,2.1,5.2c0,0,0,0,0.1,0.1c-0.3-0.1-0.3,0-0.3,0.1c0.1,0.3,0.3,0.5,0.4,0.9
			c0.4,1.4,0.7,2.9,0.9,4.5c-0.1,2.1-0.5,4.3-0.8,6.5c-0.3,0-0.7,0-0.9,0c0.1-2.6,0-5.2-0.3-8c-0.3,0-0.4,0-0.4,0.3
			c0,2.5-0.1,5.1-0.1,7.7c-2.1,0-4.2,0-6.2,0c0.7-6-1.4-11-6-14.9c-3-4.1-6.8-6.9-11.3-8.6c-2.8-1.2-5.8-2-9-2.2
			c0-3.5-0.3-7.2-0.3-10.6c0.4-0.1,0.7-0.3,1-0.3C71.1,14.8,74,15.6,76.8,16.8z M83.3,16.4H83c0.7,0.4,1.2,0.8,1.8,1.2
			c-0.7-0.3-1.3-0.4-2-0.5c-1.6-1-3.1-2-4.8-2.8c0.7,0.1,1.3,0.3,2,0.5c2.1,0.7,3.9,1.4,5.6,2.4c0.1,0,0.3,0.1,0.3,0.3
			c0.9,0.5,1.8,1,2.8,1.8c-0.5-0.3-0.9-0.5-1.6-0.8C85.9,17.9,84.6,17.1,83.3,16.4z M81.2,17.3c0.1,0.1,0.4,0.1,0.5,0.1
			c1.2,0.7,2.2,1.4,3.3,2.2c-1.7-0.9-3.7-1.8-5.5-2.6C80,17.2,80.6,17.2,81.2,17.3z M90.7,22.8c-0.1-0.1-0.3-0.3-0.4-0.4
			C89,21.3,87.4,20.1,86,19c0.9,0.5,1.7,1,2.6,1.7c0.8,0.8,1.7,1.4,2.5,2.2C91,23,90.8,22.8,90.7,22.8z M53.4,17.1h-0.1
			c-0.4,0.1-0.9,0.3-1.3,0.4c1.2-0.4,2.4-0.8,3.5-1.2C54.8,16.5,54.2,16.8,53.4,17.1z M47.5,20.2c0-0.1,0-0.1,0-0.1
			c0-0.1,0-0.1,0.1-0.1c0.5-0.5,1.3-1,2-1.4c1-0.5,2.4-0.9,3.7-1.3C51.3,18,49.3,19,47.5,20.2z M46.5,20.9c0.3-0.3,0.5-0.5,0.9-0.8
			c-0.1,0.1-0.1,0.1-0.1,0.3C47,20.5,46.7,20.6,46.5,20.9z M65.4,12.6L65.4,12.6c-0.1,0-0.3,0-0.4,0C65.2,12.6,65.3,12.6,65.4,12.6z
			 M68.6,13c-0.4,0-0.8,0-1.2,0c-0.1,0-0.4,0-0.5,0v-0.3C67.4,12.8,68.1,12.9,68.6,13z M59.8,13.1h0.1c1.2,0,2.5,0.1,3.7,0.4
			c-0.5,0-0.8,0-1.2,0.1c0-0.1,0-0.1-0.1-0.1C61.5,13.4,60.7,13.1,59.8,13.1z M65.4,14.8c0,0.3,0,0.7,0,0.8c0,0.3,0,0.7,0,0.9
			c-0.4-0.1-0.8-0.1-1.2-0.3c-5.5,1.2-10.9,3-16.1,5.4c-1.6,0.8-3.3,1.6-4.8,2.5c0.1-0.3,0.3-0.5,0.4-0.8c0.4-0.4,0.9-0.9,1.4-1.3
			c3-2,6.5-3.4,10.1-4.5C58.8,16.7,62.2,15.8,65.4,14.8z M69,27.7c-0.1,0-0.1,0-0.1-0.1c0.7,0.3,1.4,0.5,2.1,0.7
			c0.4,0.4,0.8,0.7,1,0.9c0.1,0.1,0.3,0.3,0.3,0.4c-0.4-0.4-0.7-0.7-1-0.9c-0.3-0.1-0.4-0.1-0.3,0c1.2,1.6,2.6,2.9,4.1,4.1
			c0.1,0.1,0.1,0.3,0.3,0.4c-0.1,0-0.3,0-0.1,0c1.7,2,3.5,3.7,5.5,5c0.7,0.5,1.4,1.2,2.1,1.7c0.1,0,0.1,0,0.1,0
			c1.6,1.2,3,2.2,4.8,3.3c0,0,0.1,0.3,0.3,0.4c0.1-0.1,0.1-0.1,0.3-0.1c0.5,0.4,1.2,0.7,1.7,0.9c0.1,0.3,0.3,0.5,0.3,0.8
			c-4.2-2.6-8.3-5.4-12.2-8.3l-0.3,0.1c3.1,3.1,6.7,5.9,10.7,8.3c0.8,0.5,1.6,0.9,2.2,1.2c0.1,0.1,0.1,0.3,0.3,0.5
			c-4.5-2-8.8-4.2-12.7-6.8c-0.3-0.5-0.5-1-0.7-1.6c0.1,0,0.3,0.1,0.4,0.4c0.3,0,0.4-0.1,0.4-0.3c0,0,0,0,0.1,0
			c0.3,0.3,0.7,0.4,0.9,0.7c0-0.1,0-0.3-0.1-0.4c-0.9-1.2-2-2.4-3.1-3.1c-0.7-0.8-1.2-1.3-1.8-2.1c0.3,0.1,0.5,0.3,0.8,0.3
			c-0.1,0-0.4-0.3-0.5-0.4c-0.5-0.4-1.2-0.8-1.7-1.2c-1-0.9-2.1-2-3.1-2.9c-0.3,0-0.5,0.1-0.7,0.1C69,29.6,69,29.8,69,29.8
			c0,0.1,0,0.1,0.1,0.1c-0.7-0.3-1.3-0.5-1.8-0.9c0-0.5,0-0.9,0-1.4c0.8,0.1,1.6,0.3,2.4,0.5C69.4,27.9,69.1,27.8,69,27.7z M64,27.8
			h-0.3c0,0.1,0,0.3,0,0.4c0,0,0,0.1,0.3,0.1c0.4,0.4,0.9,0.8,1.4,1c0,0.1,0,0.1-0.1,0.1c0,0.1,0,0.3,0.1,0.4
			c-0.7-0.1-1.4-0.3-2.2-0.4c-0.4,0.1-0.8,0.3-1,0.4c-0.8-0.5-1.7-1.2-2.4-1.7c0,0-0.1,0-0.3,0.1c0,0,0,0-0.1,0
			c1.7-0.5,3.5-0.9,5.5-1c0.1,0,0.4,0,0.8,0.1c0,0.3,0,0.5,0,0.8c-0.4-0.1-0.8-0.3-1.2-0.4c-0.1,0-0.1,0-0.3,0S64,27.8,64,27.8z
			 M62.4,32c-0.1,0-0.1,0-0.1,0c-0.3,0-0.5-0.1-0.8-0.3c0.3-0.1,0.7-0.3,0.9-0.4c0.7,0.5,1.6,0.9,2.4,1.3c-0.1,0-0.4,0-0.4,0.1
			c-0.4-0.4-0.9-0.7-1.4-0.9c0,0-0.1,0-0.3,0C62.6,31.9,62.4,31.9,62.4,32z M65.7,31.9c-0.7-0.3-1-0.5-1.6-0.8
			c0.4-0.1,0.9-0.1,1.6-0.3C65.7,31.2,65.7,31.5,65.7,31.9z M67.3,32.1c0.1,0.1,0.3,0.3,0.4,0.5c-0.1,0-0.3,0-0.4,0
			C67.3,32.4,67.3,32.3,67.3,32.1z M67.4,30.8c0.1,0,0.1,0,0.3,0c0.8,0.7,1.4,1.4,2.4,2.1c-0.3-0.1-0.5-0.1-0.7-0.1
			C68.7,32.1,68.1,31.5,67.4,30.8z M55.4,27.8c0.3-0.1,0.5-0.1,0.8-0.1c-0.5,0.1-1.2,0.4-1.7,0.7c-0.1,0-0.3,0-0.5-0.1
			C54.4,28.1,55,27.9,55.4,27.8z M54.7,30.4c0.1-0.1,0.3-0.1,0.3-0.1c1.3,0.7,2.5,1.2,3.8,1.6c-0.4,0.3-0.5,0.4-0.9,0.7
			c-0.7-0.4-1.3-0.7-2-1c0.4-0.1,0.5-0.3,0.7-0.4c-0.1,0.1-0.5,0.3-0.7,0.3c-0.5-0.3-0.9-0.5-1.3-0.8C54.6,30.6,54.6,30.6,54.7,30.4
			z M59.2,28.7c0.3,0.3,0.5,0.5,0.8,0.8c0.4,0.3,0.8,0.7,1.2,0.8c-0.3,0.1-0.4,0.3-0.7,0.4c-0.1,0-0.4,0.3-0.5,0.4
			c-1.2-0.5-2.2-1-3.4-1.6c0.9-0.5,1.8-0.9,2.8-1.2c-0.1,0-0.1,0-0.1,0.1C59.2,28.6,59.2,28.7,59.2,28.7z M59.9,32.4
			c0.1,0,0.1,0,0.1,0c0.8,0.1,1.6,0.3,2.4,0.4c0,0.1,0.1,0.1,0.3,0.3c-0.5,0-1,0.1-1.6,0.4C60.7,33.1,60.3,32.8,59.9,32.4z
			 M60.3,37.6c0-0.1,0-0.1-0.1-0.3c-0.9-0.3-1.7-0.7-2.4-1c1-0.8,2.1-1.3,3.3-1.7c0.9,0.8,1.8,1.6,2.9,2.2c-0.9,0.3-1.6,0.4-2.4,0.7
			c-0.5,0-0.9,0.1-1.3,0.4c0.7,0.3,1.4,0.4,2.5,0.3c0.8-0.1,1.6-0.1,2.5-0.1c0.1,0,0.3,0.1,0.4,0.3c0,2.5,0,5,0,7.5
			c0,0.4,0,0.9,0,1.3c-0.7,0-1.3-0.1-2-0.1c-0.4,0.5-1.2,0.8-2.1,0.8c0,0-0.1,0-0.4,0c0,0.1,0,0.4,0,0.4c-0.1,0.9-0.1,1.8-0.1,2.9
			c-2.9-0.1-5.6-0.1-8.5,0c0-0.3,0-0.4,0-0.7c-0.4-2.9,0-5.8,0.8-8.6c0.3-0.3,0.4-0.4,0.5-0.7c0,0.1-0.1,0.3-0.4,0.3
			c0.1-0.1,0.3-0.5,0.3-0.8c0.1-0.5,0.4-1,0.7-1.6c0.7-0.7,1.4-1.3,2.1-1.8c0,0,0.1,0,0.3,0c-0.1,0-0.1,0-0.3,0
			c0.3-0.1,0.4-0.3,0.5-0.4C58.1,37.1,59.2,37.5,60.3,37.6z M59.2,32.9c0.3,0.3,0.5,0.5,0.9,0.8c-0.4-0.3-0.8-0.4-1.2-0.7
			C59,33.1,59.2,33.1,59.2,32.9z M58.2,33.7c0.4,0.1,0.8,0.1,1.3,0.3c-1,0.4-2,0.8-3,1.3C57.2,34.8,57.7,34.2,58.2,33.7z M55.1,35.5
			c-0.1,0.1-0.4,0.4-0.5,0.5c-0.7-0.4-1.3-0.8-2-1.2C53.3,35,54.2,35.1,55.1,35.5z M56.9,33.4c-0.5,0.5-1,0.9-1.4,1.4
			c-0.5-0.3-1.2-0.7-1.7-1C54.8,33.6,55.9,33.4,56.9,33.4z M67.3,34.6c0-0.3,0-0.5,0-0.8c0.4,0.1,0.9,0.3,1.3,0.4c0.1,0,0.4,0,0.5,0
			c1.8,1.8,3.7,3.5,5.9,5.1c0.3-0.1,0.5-0.1,0.8-0.1c1,0.9,1.8,2.1,2.7,3.4c0.3,0.4,0.4,0.9,0.7,1.4c-0.3-0.1-0.4-0.3-0.5-0.4
			c-1.8-2.4-3.9-4.1-6.4-5.2C70.5,37.1,69,35.7,67.3,34.6z M67.3,35.9c0.7,0.5,1.3,0.9,1.8,1.6c-0.5-0.3-1.2-0.4-1.8-0.4
			C67.3,36.7,67.3,36.3,67.3,35.9z M62.3,34.4c0.7-0.3,1.4-0.4,2.1-0.5c0.4,0.1,0.5,0.4,0.7,0.5c0.3,0.1,0.4,0.3,0.7,0.4
			c0,0.8,0,1.3,0,2.1c0,0-0.1,0-0.3,0C64.4,35.9,63.3,35.1,62.3,34.4z M67.3,39.3c0.1,0.3,0.5,0.4,0.8,0.7c0.4-0.1,0.8-0.3,1.2-0.3
			c-0.1-0.1-0.1-0.3-0.3-0.4c-0.5-0.4-1.2-0.8-1.7-1.3l0,0c1.2,0,2.5,0.3,3.7,0.7c0,0.1,0.1,0.1,0.3,0.3c0.1,0,0.3,0,0.4,0
			c2.2,0.8,4.3,2.2,6,4.1c0,0,0,0-0.1,0h-0.3c0.3,0.3,0.4,0.5,0.7,0.8c0.5,0.7,1,1.2,1.7,1.8v0.1c0.1,0,0.1,0.1,0.1,0.3
			c0.1,0.9,0.3,1.7,0.3,2.6c-0.4-0.3-0.8-0.4-1.2-0.5l0,0c0,0.1-0.1,0.1-0.1,0.3c-0.1,0-0.1,0.3,0,0.3c0.3,0.1,0.5,0.4,0.8,0.5
			c0.1,0,0.3,0.3,0.5,0.3c0,0.5,0,1,0,1.6c-2.8,0-5.6,0-8.3,0v-0.1c-0.1-0.1-0.3-0.3-0.3-0.3C70.3,49,68.7,48,67,47.5
			C67.1,44.7,67.1,42.1,67.3,39.3z M55,32.1c0.5,0.4,0.9,0.7,1.7,1c-1-0.1-2.1-0.1-2.9-0.3C54.2,32.7,54.6,32.4,55,32.1z M50,32.8
			c0.7-0.7,1.3-1.2,2-1.7c-0.5,0.7-0.9,1.3-1.3,2.1C50.5,33.1,50.2,32.8,50,32.8z M52.3,32.8L52.3,32.8c-0.3,0.1-0.4,0.1-0.5,0.3
			c0.4-0.8,1-1.4,1.8-2c0.3,0.3,0.5,0.5,0.9,0.8C53.8,32.1,53.1,32.4,52.3,32.8z M53.7,28.3c-0.3,0.3-0.4,0.4-0.3,0.7
			c-0.3,0.1-0.5,0.4-0.8,0.5c0,0,0,0-0.1-0.1c-0.3,0-0.4,0-0.3,0c0,0.1,0.1,0.3,0.1,0.4c-1,0.8-2.4,1.7-3.4,2.6
			c-0.8,0.8-1.4,1.6-2.1,2.5c-0.3,0.1-0.5,0.3-0.8,0.4c0.1-0.7,0.5-1.3,0.9-2C48.7,31.1,50.9,29.4,53.7,28.3z M45.9,39.3
			c-0.1,0-0.1,0-0.1,0c-0.1,0.4-0.4,0.9-0.7,1.4c0-0.1-0.3-0.3-0.3-0.3c0.5-0.9,1-1.7,1.7-2.5c0,0,0,0,0.1,0.1
			C46.5,38.6,46.2,38.9,45.9,39.3z M43.7,42.5c0,0,0.1-0.3,0.3-0.3c0,0.1,0.1,0.3,0.4,0.5c-0.3,0.3-0.4,0.7-0.4,1
			c-0.1,0.3-0.3,0.5-0.3,0.8c-0.1,0.1-0.3,0.3-0.4,0.4c0,0.1,0,0.1,0,0.1l0,0c0-0.4,0-0.7,0-0.9C43.4,43.7,43.6,43,43.7,42.5z
			 M42.5,41.7c-0.1,0.3-0.4,0.5-0.4,0.9C42.1,42.2,42.4,42,42.5,41.7z M44.5,40.9c0.1,0.1,0.3,0.3,0.4,0.4c-0.1,0.3-0.4,0.5-0.4,0.9
			c-0.1-0.1-0.3-0.4-0.4-0.4C44.2,41.4,44.4,41.2,44.5,40.9z M50.6,35.4c0-0.1,0-0.1,0.3-0.1c0.7,0.8,1.4,1.8,2.4,2.6
			c-0.3,0.3-0.5,0.5-0.7,0.8C51.8,37.6,51.3,36.5,50.6,35.4z M53.3,33.8c0.3,0.1,0.4,0.4,0.5,0.5c-0.5-0.1-0.9-0.3-1.3-0.4
			C52.6,34,53,34,53.3,33.8z M53.8,37.4c-0.7-0.7-1.2-1.3-1.8-1.8c0.7,0.5,1.4,0.9,2.4,1.2C54.2,36.8,53.9,37.1,53.8,37.4z
			 M49.7,33.1c0,0.1,0.1,0.3,0.1,0.4l0,0c-0.1,0-0.1-0.3-0.1-0.3V33.1z M49.2,33.6c0,0,0,0,0.1,0.1c-0.3,0.1-0.4,0.1-0.4,0.1
			S49.1,33.6,49.2,33.6z M47.1,37.6H47c0.3-0.3,0.4-0.5,0.7-0.7C47.4,37.2,47.2,37.4,47.1,37.6z M48.4,39.9c0.3-0.1,0.5-0.1,0.9-0.1
			c0.1,1.2,0.7,2,1.3,2.5c-0.1,0.7-0.1,1.3-0.1,2c-0.1,0-0.1,0-0.3,0c-1.2-0.5-2.2-1.3-3.3-2.1c0.3-0.3,0.4-0.5,0.7-0.8
			c0.4,0.4,0.8,0.8,1.3,1.2c0.5-0.1,1-0.1,1.6-0.3c0,0,0,0-0.1-0.1c-0.9-0.3-1.7-0.7-2.4-1.2c0.3-0.4,0.5-0.7,0.8-0.9
			c-0.4,0.1-0.8,0.4-1,0.7c-0.3-0.3-0.5-0.4-0.8-0.5c0.3-0.4,0.4-0.8,0.7-1C47.9,39.3,48.2,39.6,48.4,39.9z M48.7,39.1
			c-0.1-0.1-0.1-0.3-0.3-0.3c0-0.1-0.3-0.3-0.3-0.4c0.3-0.5,0.7-1,1.2-1.6c-0.1,0.5-0.3,1-0.3,1.4c0,0.4,0,0.7,0.1,1
			C48.9,39.2,48.8,39.2,48.7,39.1z M47.2,40.9c-0.4,0.3-0.7,0.5-0.9,0.8c0-0.1,0-0.1-0.1-0.1c0.3-0.4,0.4-0.7,0.7-1
			C46.8,40.6,47,40.8,47.2,40.9z M52,39.6c-0.4,0.5-0.7,1.2-0.9,1.8c-0.1-0.3-0.4-0.7-0.4-0.9c-0.4-1.3-0.5-2.5-0.4-3.7
			C50.6,37.8,51.3,38.7,52,39.6z M50.6,47.3L50.6,47.3c-0.1-0.1-0.1-0.1-0.1-0.1c0-0.3,0-0.4,0.1-0.5C50.6,46.9,50.6,47.1,50.6,47.3
			z M46.5,42.9c0.3,0.1,0.4,0.4,0.7,0.5c0.9,0.3,1.6,0.7,2.2,1.2c0.4,0,0.7,0,0.9-0.1c-0.4,0.5-0.5,1.2-0.9,1.8
			c-1-0.9-2.1-1.8-3.3-2.7C46.2,43.3,46.3,43,46.5,42.9z M49.3,51c-0.9-0.1-1.8-0.1-2.8,0c-0.5-0.4-0.9-0.8-1.4-1.2
			c-0.3,0-0.3,0-0.3,0c0.4,0.4,0.8,0.8,1.2,1.2c-0.7-0.1-1.2-0.1-1.7,0c-0.1-0.1-0.1-0.1-0.3-0.3c0,0,0,0-0.1-0.1c0-0.4,0-0.7,0.1-1
			c0-0.8,0.1-1.4,0.3-2.1c1.3,0.9,2.6,2,4.1,2.7c0.1,0,0.3-0.1,0.4-0.3c0.1,0,0.1-0.1,0-0.3c-0.3-0.1-0.4-0.3-0.5-0.4
			c-1-1.2-2.2-2.2-3.5-3.1c0.3-0.7,0.5-1.3,0.9-2c1,1.2,2.4,2.1,3.7,3.1C49.1,48.4,49.1,49.6,49.3,51z M50.4,51
			c-0.1-1-0.1-2.1-0.1-3c0.1,0.1,0.3,0.1,0.3,0.1c0.1,0,0.1-0.1,0.4-0.3c0,0.3,0,0.4,0.1,0.7c0,0.1,0.1,0.3,0.3,0.3
			c0,0.8,0,1.4,0,2.2C51,50.9,50.6,50.9,50.4,51z M42.5,46.1c0.1,0,0.1,0,0.3,0c0,0.5,0.1,1,0.1,1.6c-0.1,1-0.1,2.1-0.1,3.3
			c-0.3-0.1-0.4-0.1-0.7,0c0-0.1,0-0.3,0-0.4C42.1,49,42.4,47.5,42.5,46.1z M40.4,44.7c0-0.1,0-0.3,0.1-0.4l0.1,0.1
			c-0.7,2-0.8,4.2-0.5,6.5c-0.4-0.1-0.7-0.1-1,0C39.1,48.6,39.6,46.7,40.4,44.7z M45.1,53c0.1-0.1,0.1-0.1,0-0.3
			c0-0.1-0.1-0.3-0.3-0.4c0.1,0,0.3,0,0.4,0c2.1,2.4,4.5,4.5,7.2,6.3c0.1,0.4,0.5,0.8,0.8,1.2c-2.6-2.1-5.2-4.3-8.1-6.7
			C45.1,53.1,45.1,53.1,45.1,53z M44.4,52.3L44.4,52.3c-0.3,0.1-0.3,0.1,0,0.4c0.9,1.4,2.1,2.9,3.3,4.3c-0.5-0.4-1.2-0.7-1.7-1h-0.3
			c0.1,0.7,0.8,1.3,1.8,2.1c1.2,0.8,2.4,1.7,3.4,2.7c2.1,1.8,4.1,3,6.2,3.5c0.1,0.1,0.4,0.3,0.5,0.4c0.7,0.7,1.2,1,1.7,1.4
			c0.4,0.5,0.8,1.2,1.4,1.8c0.4,0.4,0.9,0.9,1.3,1.3c-1.7-1.3-3.4-2.9-4.8-4.6c-0.7,0-0.7,0.1-0.4,0.5c0.7,0.7,1.2,1.3,1.8,2
			c-4.7-2.9-9.3-6-13.5-9.6c-0.4-1-0.7-2.1-0.8-3.1c-0.3-0.7-0.3-1.4-0.3-2.2C44.1,52.3,44.2,52.3,44.4,52.3z M42.4,52.3
			c0,0,0.1,0,0.4,0c0,0.8,0,1.6,0.1,2.4C42.7,53.9,42.4,53.1,42.4,52.3z M42.9,56.4c0.1-0.1,0.1-0.3,0.3-0.3c0,1,0.3,2,0.5,2.9
			c-1-2.1-1.8-4.2-2.2-6.3C41.9,53.9,42.4,55.1,42.9,56.4z M40.4,52.3c0,0.5,0.1,1.2,0.3,1.7c0.5,2,1.3,3.8,2.2,5.4
			c0.1,0.1,0.3,0.3,0.4,0.5c-0.4-0.3-0.8-0.7-1.2-0.9H42c-0.3,0-0.4,0.1-0.5,0.3v0.1c1,1.2,2.4,2.4,3.7,3.4c0.3,0.9,0.7,1.7,1.3,2.6
			c-1-0.4-2-0.9-2.9-1.3c0,0.1,0,0.1-0.1,0.1c-0.1,0.1-0.1,0.3-0.3,0.3c0,0.1,0,0.1,0,0.1c-2.5-3.8-3.9-7.9-4.1-12.3
			C39.5,52.3,39.9,52.3,40.4,52.3z M50.5,54.7c0.1,0.7,0.5,1.3,0.8,2c-1.7-1.4-3.4-2.9-5.2-4.3c0.5,0,1,0,1.6,0.1
			C48.5,53.1,49.5,53.9,50.5,54.7z M50.6,52.4c0.3,0,0.7,0,0.9,0c0.3,1.8,0.8,3.5,1.6,5.4c-0.5-0.5-0.8-1.2-1-1.7
			C51.3,54.8,50.9,53.6,50.6,52.4z M50.1,53.9c-0.5-0.5-1-1-1.6-1.4c0.4-0.1,0.8-0.1,1.2,0c0,0.3,0.1,0.5,0.1,0.8
			C50,53.5,50,53.6,50.1,53.9z M46.3,61.1c-0.4-0.9-0.7-1.7-0.9-2.5c2.2,2,4.6,3.9,6.9,5.8c0.5,0.4,0.9,0.7,1.6,1
			c0.4,0.4,0.8,0.9,1.3,1.3c-2.2-1.4-4.6-2.9-6.9-4.3C47.6,61.9,47,61.5,46.3,61.1z M65.6,50.7c0.1,0,0.1,0,0.1,0s0,0.1,0,0.3
			c0-0.1-0.1-0.1-0.3,0C65.4,50.9,65.4,50.9,65.6,50.7z M61.5,53.6c0.1,0.1,0.1,0.3,0.1,0.4c1.3,1.3,2.8,2.1,4.1,2.5
			c0,2.9,0,5.8,0,8.6c-0.4,0-0.7,0-1,0c-0.5,0-1,0-1.4,0c-0.3,0-0.7,0-0.8-0.1c-4.6-3.5-7.9-7.7-9.3-12.6c2.6,0,5.2,0,8,0
			c0,0.1,0,0.3,0,0.4s0.1,0.3,0.3,0.4C61.5,53.4,61.5,53.5,61.5,53.6z M67,54.3c0-0.3,0-0.7,0-0.9c0.3,0.3,0.4,0.7,0.3,0.9
			C67.3,54.3,67.1,54.3,67,54.3z M65.7,54.3h-0.3c-0.1-0.1-0.3-0.3-0.4-0.4c0.3-0.1,0.4-0.3,0.7-0.4C65.7,53.7,65.7,54,65.7,54.3z
			 M53.4,61.1c0.3,0,0.5,0,0.9,0.1c0.3,0.4,0.7,0.9,1,1.3C54.6,62,53.9,61.5,53.4,61.1z M94.1,26.2c0.1,0,0.1,0.1,0.3,0.3
			c-0.3-0.3-0.4-0.4-0.7-0.5c-0.1-0.1-0.3-0.3-0.3-0.4C93.6,25.8,93.9,26,94.1,26.2z M96.3,26.8c-0.3-0.4-0.7-0.9-0.9-1.3
			c0.9,1,1.7,2,2.4,2.9c-0.4-0.3-0.7-0.7-1-1C96.6,27,96.5,26.9,96.3,26.8z M87.7,41.4L87.7,41.4c0,0,0,0,0.1,0
			c-0.1,0-0.1,0-0.3-0.1c-0.3-0.4-0.7-0.7-0.9-1c0.7,0.3,1.2,0.7,1.8,1l0,0c0.4,0.7,0.7,1.3,1,2.1c-0.5-0.4-0.9-0.7-1.4-0.9
			c0-0.1,0-0.3,0-0.3c0-0.1,0-0.3,0.1-0.4c-0.1,0-0.3-0.1-0.4-0.3C87.7,41.4,87.7,41.4,87.7,41.4z M89.8,40.3c0.1,0,0.3,0,0.4-0.1
			c0.9,1.6,1.7,3.3,2.1,5c-0.5-0.4-1-0.7-1.6-1c-0.3-0.8-0.5-1.6-0.9-2.2h0.1c-0.1-0.1-0.1-0.4-0.3-0.4c-0.5-1.3-1.2-2.6-2.1-3.9
			c0.5,0.9,1,1.7,1.6,2.6C89.4,40.1,89.5,40.3,89.8,40.3z M80.1,31.3c0.1,0,0.3,0,0.3,0c2.5,2.1,4.6,4.6,6.4,7.2
			c-1.8-1.8-3.8-3.7-5.9-5.4c0.3,0,0.7-0.1,0.8-0.3c0-0.1-0.1-0.1-0.1-0.3c-0.4-0.3-0.9-0.4-1.4-0.5c0,0,0,0-0.1-0.1
			c-1-1-2-2-3.1-2.9c0.8,0.4,1.6,0.7,2.2,1c0.1,0.1,0.3,0.3,0.4,0.4C79.6,30.8,79.8,31.1,80.1,31.3z M72.9,28.1c0.1,0,0.3,0,0.3,0
			c0.4,0.3,0.7,0.5,1,0.7c-0.1,0-0.3,0-0.4,0C73.6,28.5,73.2,28.2,72.9,28.1z M71.1,32.4c0.3,0.1,0.4,0.3,0.7,0.4
			c0.3,0.1,0.4,0.4,0.7,0.7C71.9,33.1,71.5,32.7,71.1,32.4z M75.5,36.5c0,0,0.1,0,0.1,0.1c0.7,0.5,1,0.9,1.6,1.4
			c-0.4,0.5-0.3,1.3,0.4,2.1c0.3,0.3,0.4,0.4,0.7,0.7c-0.1,0.1-0.1,0.3-0.1,0.4c-0.9-1.2-2.1-2.2-3.4-3.3V38c-1.6-1.3-3-2.8-4.5-4.2
			c0.4,0,0.7,0.1,1,0.1c0.5,0.4,1.2,0.8,1.8,1C74,35.5,74.7,35.9,75.5,36.5z M78.4,40.5c0,0,0,0,0-0.1c1.6,1.4,3.3,2.6,5.1,3.7
			c2.1,2,4.3,3.7,6.8,5.2c0.4,0.1,0.8,0.1,1.2,0.1c0,0.1,0.3,0.1,0.3,0c0.1,0,0.1,0,0.1-0.1c0-0.1-0.1-0.3-0.1-0.3
			c-0.4-0.3-0.7-0.7-1-0.8c0.1,0,0.3,0,0.4,0c-0.1,0-0.3-0.1-0.4-0.3c-0.7-0.7-1.3-1.2-2.1-1.7c0.8,0.3,1.6,0.4,2.4,0.7
			c0.1,0.5,0.4,1,0.5,1.6c-0.1-0.7-0.1-1.4-0.4-2.1c0.5,0.1,0.9,0.3,1.4,0.3c0.1,1.4,0.1,2.8-0.1,4.3l0,0c-1.2,0-2.2,0-3.4,0
			c-0.1-0.1-0.1-0.1-0.1-0.1c0.3,0,0.5,0,0.9-0.1c0,0,0.1,0,0.1-0.1c0,0,0-0.3-0.1-0.3c-3-2.7-6-5.4-9.3-7.9c-0.4-0.1-0.5,0-0.3,0.3
			c1.4,1.8,3.1,3.5,5,5.1c-1-0.7-2.2-1.3-3.1-2c-0.1-0.3-0.4-0.5-0.5-0.8c-0.8-0.9-1.4-1.8-2.1-2.7c-0.3-0.5-0.5-1.2-0.9-1.7
			C78.5,40.5,78.5,40.5,78.4,40.5z M80.5,45c0-0.3-0.1-0.5-0.1-0.8c0,0.3,0.1,0.5,0.3,0.8C80.5,45,80.5,45,80.5,45z M81.2,47.1
			c0,0,0.1,0.3,0.4,0.3c0.1,0.7,0.3,1.3,0.4,1.8c-0.3,0-0.4,0-0.5,0.1v0.1c-0.1-0.1-0.1-0.1-0.1-0.1C81.3,48.5,81.2,47.7,81.2,47.1z
			 M81.3,51c0-0.3,0-0.4,0-0.7c0,0,0.1,0,0.3,0c-0.1,0.3-0.1,0.4-0.1,0.7C81.3,51,81.3,51,81.3,51z M83,50.2
			c-0.1-0.7-0.1-1.2-0.3-1.8c0.1,0.1,0.3,0.3,0.5,0.4c1.2,0.9,2.2,1.6,3.4,2.2c-0.8,0-1.4,0-2.2,0C83.9,50.7,83.4,50.3,83,50.2z
			 M71.7,54.4c0-0.7,0-1.3,0-2c2.6,0,5.4,0,8,0c-0.1,0.9-0.4,1.8-0.5,2.6c-0.1-0.1-0.1-0.1-0.3-0.1c-0.1-0.1-0.3-0.1-0.3,0
			c0.1,0.1,0.3,0.3,0.3,0.4c0,0.1,0,0.3,0,0.3c-0.1,0.1-0.3,0.3-0.4,0.4c-0.1,0-0.1,0-0.1,0c-0.4,0-0.5,0.1-0.3,0.4
			c0.1,0,0.1,0,0.1,0.1c-0.1,0-0.3,0.3-0.3,0.4c-0.1,0-0.1,0-0.1,0c-0.3,0.1-0.4,0.3-0.7,0.5c0.1,0.1,0.1,0.3,0.3,0.4
			c0,0.1,0,0.3,0.1,0.4c-0.1,0.1-0.1,0.3-0.1,0.5c-1.2,1.7-2.8,3-4.7,4.3c0.8-0.1,1.4-0.5,2-0.8c0,0,0,0,0.1,0.1c0,0,0,0-0.1,0.1
			c-0.4-0.1-0.8,0-0.9,0.4c0,0.1,0.1,0.3,0.1,0.4c-0.1,0.1-0.4,0.4-0.5,0.5c-0.9,0.3-1.8,0.4-2.8,0.7c0.3,0.3,0.7,0.7,1,0.8
			c-0.3,0.1-0.5,0.1-0.8,0.3c-1,0.4-2.2,0.5-3.4,0.3c-0.3-0.1-0.4-0.1-0.5-0.3c0-0.1,0-0.3,0-0.5c0-2.7,0-5.6,0-8.4
			c1.6,0.1,3.1-0.4,4.7-1.4C71.7,54.9,71.7,54.7,71.7,54.4z M82.7,56.4c0.1-0.9,0.3-1.8,0.3-2.8c1.4,1.7,2.7,3.3,4.3,4.6
			c0,0.1,0.1,0.1,0.4,0.3c-0.1,0.4-0.3,0.8-0.3,1.2c-0.1,0-0.1,0-0.3,0c-0.1-0.1-0.3-0.3-0.3-0.3C85.7,58.1,84.3,57,82.7,56.4z
			 M82.1,52.4c0,0.1,0,0.3,0,0.4c-0.1,1-0.1,2-0.4,3c0,0-0.1,0-0.3,0C81.3,56,81.2,56,81,56.1c-0.1,0-0.1,0.1-0.1,0.3
			c0.3,0,0.4,0.1,0.7,0.4c0,0,0,0.1,0,0.4c-0.5-0.4-1-0.9-1.4-1.3c0.4-1.2,0.8-2.2,1-3.4C81.4,52.4,81.7,52.4,82.1,52.4z M85.2,53.1
			c0,0,0-0.3-0.1-0.3c-0.1-0.1-0.3-0.3-0.5-0.4c0.3,0,0.4,0,0.5,0c2.1,1.2,4.2,2.4,6.3,3.5c0,0.4-0.3,0.7-0.3,1
			c-0.9-0.4-1.7-0.9-2.5-1.3c0.5,0.3,1.2,0.4,1.7,0.7c0-0.1,0-0.3-0.1-0.3c-0.7-0.4-1.2-0.8-1.8-1.2c0-0.1,0-0.3,0-0.4
			c0,0.1,0,0.3,0,0.4C87.3,54.3,86.3,53.6,85.2,53.1z M79.6,57c0-0.1,0.1-0.3,0.1-0.5c0.4,0.7,0.9,1.2,1.4,1.7
			C80.5,57.9,80,57.4,79.6,57z M78.1,59.6c0.1,0,0.1-0.1,0.1-0.1c0.5,0.9,1,1.7,1.7,2.5c-0.1,0.1-0.3,0.3-0.3,0.4
			c-0.1,0.3-0.4,0.7-0.5,0.9c-0.4-0.4-0.8-0.7-1.3-1c-0.4,0-0.4,0.3,0,0.7c0.4,0.3,0.8,0.5,1,0.9c-0.1,0.4-0.4,0.7-0.7,1
			c-0.7-0.8-1.4-1.6-2.1-2.4C76.8,61.5,77.5,60.6,78.1,59.6z M79.3,57.7c0.5,0.5,1,0.9,1.7,1.3c-0.1,0.5-0.3,1-0.5,1.6
			c-0.4-0.4-0.8-0.8-1.2-1.2c-0.1-0.4-0.4-0.7-0.5-0.9C78.9,58.2,79.2,57.9,79.3,57.7z M82.5,57.9c0-0.3,0-0.4,0.1-0.7
			c1.3,0.8,2.5,1.8,3.7,2.9c0.3,0.1,0.7,0.3,0.9,0.4c-0.1,0.5-0.3,1.2-0.4,1.8c-0.5-0.5-1-1-1.4-1.6c0.4,0.1,0.9,0.1,1.6,0.1
			c0,0-0.1-0.1-0.3-0.1c-0.7-0.1-1.3-0.4-2-0.7C83.9,59.4,83.1,58.6,82.5,57.9z M81.9,59.6c0.1,0,0.3,0.1,0.5,0.1
			c0.8,0.9,1.6,1.7,2.5,2.6c0,0.3-0.1,0.5-0.3,0.8c-1.2-0.7-2.4-1.4-3.4-2.1C81.5,60.6,81.7,60,81.9,59.6z M90.8,44.7
			c0.5,0.3,0.9,0.4,1.4,0.7c0.1,0.3,0.1,0.5,0.1,0.9c-0.5-0.4-0.9-0.7-1.4-0.9C91,45.1,90.8,45,90.8,44.7z M88.6,50.7
			c-0.1-0.1-0.4-0.3-0.5-0.4c0,0,0,0,0.1,0C88.4,50.5,88.5,50.6,88.6,50.7z M93.1,54c0.1-0.5,0.3-1,0.4-1.6c2.1,0,4.1,0,6.2-0.1
			c-0.4,6.5-1.3,12.8-2.6,19.1c0.1-0.1,0.1-0.1,0.1-0.1c-1.8,3.4-4.1,6.3-6.8,8.5c-1,0.7-2.1,1.3-3.3,2c0.1-0.4,0.1-0.8,0.3-1.2
			c-0.7,0.7-1.2,1.3-2,2c-3.4,1.8-7.2,3.1-11,4.2c-2.5,0-5,0-7.5-0.1c0-3,0-6,0.1-9l0,0c1.7,1,3.9,1,6.4,0.1
			c0.9-0.3,1.7-0.5,2.5-0.9c0.8,0.1,1.6,0.3,2.4,0.1c-0.1,0.1-0.3,0.1-0.4,0.3c0.7,0.5,1.3,0.9,2.1,1c0.5-0.3,1-0.9,1.4-1.4
			c0.3-0.4,0.5-0.7,0.8-1c3.3-2.1,5.1-4.6,5.5-7.7c0.8,0.1,1.4,0.3,2.2,0.3c0,0,0-0.1-0.1-0.1c-0.7-0.3-1.3-0.4-2-0.7
			c-0.1,0-0.1,0,0-0.1c0.3-0.7,0.7-1.2,0.8-2c0.1,0,0.3,0,0.4,0c-0.1,0-0.3-0.1-0.3-0.1c0-0.4,0.3-0.7,0.3-1c1.2-2,2.2-4.1,3-6.3
			c0.3,0,0.4,0,0.7,0c-0.1-0.1-0.3-0.3-0.3-0.3c-0.1-0.1-0.3-0.1-0.4-0.1c0.3-0.4,0.4-0.9,0.5-1.4c0.1,0,0.1-0.1,0.1-0.3
			C92.8,55.2,92.9,54.7,93.1,54z M90.3,52.4c0.4,0,0.8,0.3,1.2,0.3c0-0.1,0-0.3-0.1-0.3c0.3,0,0.5,0,0.8,0c-0.1,0.8-0.3,1.8-0.5,2.6
			c-1.4-0.8-2.9-1.7-4.3-2.6C88.2,52.4,89.3,52.4,90.3,52.4z M88.2,58.6c0.4,0,0.5,0,0.8,0c0.4,0.3,0.8,0.4,1.3,0.7
			c-0.3,0.5-0.5,1.2-0.8,1.7c-0.1-0.3-0.5-0.5-0.8-0.8c-0.1,0-0.3-0.1-0.5-0.3C88.2,59.4,88.2,59,88.2,58.6z M88.1,60.8
			c0.5,0.3,0.9,0.4,1.3,0.4c-0.5,1.2-1,2.4-1.7,3.5c-0.1-0.1-0.3-0.1-0.4-0.1c0.1-0.4,0.1-0.7,0.1-0.9c0.1,0,0.1-0.1,0.3-0.3
			c0,0,0,0-0.1,0C87.8,62.5,88,61.7,88.1,60.8z M90.3,58.6c-0.1-0.1-0.4-0.4-0.5-0.5l0,0c-0.1-0.3-0.3-0.4-0.3-0.5
			c0.4,0.1,0.8,0.1,1.3,0.3c-0.1,0.3-0.3,0.7-0.3,0.8C90.5,58.6,90.5,58.6,90.3,58.6z M44,21.7c-1.3,1.2-2.5,2.5-3.5,4.1
			c-1.3,0.8-2.5,1.7-3.7,2.6C38.9,25.7,41.2,23.4,44,21.7z M98.3,71.2L98.3,71.2c-0.3,0.3-0.4,0.5-0.7,0.8
			C97.9,71.7,98.1,71.3,98.3,71.2z M99,69.9c0.1-0.3,0.1-0.4,0.3-0.5c0,0.1,0,0.3-0.1,0.4C99.1,69.7,99.1,69.7,99,69.9z M86.5,63.7
			c-0.1,0-0.1,0.1-0.3,0.4c-0.4-0.3-0.8-0.4-1-0.7c0-0.3,0-0.5,0-0.9C85.6,62.9,86,63.3,86.5,63.7z M86.1,64.9C86,65,86,65,86,65.1
			c-0.1,0.4-0.3,0.9-0.4,1.4c-0.1,0-0.1,0-0.1,0.1c-0.1-0.1-0.1-0.1-0.3-0.1C85.5,66.1,85.9,65.4,86.1,64.9z M86.9,65.9
			c0.1-0.1,0.1-0.5,0.3-0.8c0.1,0,0.1,0,0.1,0.1C87.2,65.5,87,65.8,86.9,65.9z M83.4,64.1c-0.1-0.3-0.1-0.4-0.3-0.4
			c-0.1-0.3-0.3-0.4-0.4-0.7c0.1,0,0.1,0,0.3,0.1c0.4,0.3,0.8,0.7,1.3,0.9c-0.3,0.5-0.7,1-0.9,1.7c-1.2-0.7-2.4-1.3-3.5-2.1
			c0.3-0.4,0.4-0.7,0.7-1c0.5,0.7,1,1.2,1.6,1.8c0.3-0.3,0.4-0.4,0.7-0.5C83,64.1,83.1,64.1,83.4,64.1z M85,66.4
			c-0.1-0.1-0.3-0.1-0.4-0.1c0.3-0.7,0.4-1.3,0.4-1.8c0.4,0.1,0.7,0.3,0.9,0.3C85.6,65.4,85.3,65.9,85,66.4z M78.8,65.4
			c0.3-0.4,0.5-0.8,0.8-1.2c1.2,0.9,2.4,1.6,3.5,2.2c-0.3,0.4-0.4,0.9-0.7,1.3C81.2,67,80,66.2,78.8,65.4z M80.9,70.8
			c-0.1,0.3-0.3,0.4-0.4,0.7c-0.1,0.1-0.3,0.3-0.4,0.4v-0.1C80.4,71.4,80.6,71.2,80.9,70.8z M80.6,70.2c-0.4,0.4-0.9,0.8-1.3,1
			c-1.3-0.7-2.5-1.6-3.5-2.5c0.1-0.1,0.3-0.4,0.5-0.5C77.6,69.2,79.1,69.9,80.6,70.2z M81,69.1c0.3,0.1,0.5,0.1,0.7,0.1
			c-0.3,0.3-0.5,0.7-0.8,0.8c-1.6-0.5-2.9-1.3-4.1-2.2c0.4-0.4,0.7-0.8,1-1.2C78.8,67.5,79.8,68.3,81,69.1z M85,67.2
			c0,0.1,0.3,0.1,0.4,0.1c-0.1,0.1-0.1,0.1,0,0.4c-0.4,0.3-0.8,0.5-1.2,0.9c-0.1,0-0.1,0-0.1,0C84.3,68.2,84.6,67.8,85,67.2z
			 M84.6,67.1c-0.1,0-0.1,0.1-0.1,0.3c0-0.1,0-0.3,0-0.3H84.6z M83.9,68.8c0.1,0,0.1,0,0.1,0s-0.3,0.1-0.3,0.3
			C83.8,68.9,83.8,68.8,83.9,68.8z M75,64c0,0,0.1,0,0.1,0.1c0.8,0.7,1.4,1.3,2.1,2.1c-0.4,0.4-0.8,0.8-1.2,1.2
			c-0.8-0.8-1.7-1.4-2.5-2.2c0.3,0,0.4-0.1,0.4-0.3C74.3,64.6,74.6,64.2,75,64z M71.9,66.2c0.5-0.3,0.9-0.5,1.3-0.8
			c0.8,0.9,1.6,1.7,2.4,2.4c-0.1,0.1-0.3,0.3-0.5,0.4c-0.8-0.7-1.6-1.4-2.2-2.2c-0.4,0-0.4,0-0.4,0.3c0.7,0.8,1.4,1.6,2.1,2.4
			c-0.4,0.3-0.9,0.4-1.3,0.7c-1-0.8-2.1-1.6-3.1-2.5C70.5,66.6,71.2,66.3,71.9,66.2z M72.6,69.5c-0.7,0.1-1.3,0.4-2.1,0.5
			c-1.2-0.8-2.4-1.6-3.5-2.5c0-0.1,0-0.4,0-0.7c0.8,0.1,1.7,0.1,2.6,0C70.5,67.8,71.6,68.5,72.6,69.5z M72.3,71
			c0.5-0.3,0.9-0.5,1.6-0.8c0.9,0.8,2,1.4,3,2.2c-0.1,0-0.4,0.3-0.5,0.3C75,72.2,73.6,71.7,72.3,71z M74.3,70
			c0.3-0.3,0.7-0.5,0.9-0.8c0.8,0.9,1.8,1.6,2.9,2.4c-0.3,0.1-0.4,0.3-0.7,0.5C76.4,71.3,75.4,70.6,74.3,70z M77.5,72.9
			c-0.3,0-0.4,0.3-0.7,0.3c0.1-0.1,0.3-0.3,0.4-0.4C77.4,72.7,77.4,72.7,77.5,72.9z M74.3,76.1c0.1,0,0.1,0,0.3,0c0,0,0.1,0,0.1,0.1
			c-2.1,0.9-4.6,1.3-7.3,1.3c2-0.3,3.8-0.5,5.5-1c0.1-0.1,0.4-0.1,0.7-0.3c0.1,0.1,0.4,0.1,0.7,0.1C74.2,76.3,74.3,76.3,74.3,76.1z
			 M75.4,75.9c-0.1-0.1-0.1-0.1-0.3-0.1c0.3-0.1,0.5-0.3,0.8-0.4c0.5-0.3,1.2-0.5,1.7-0.9c0.1,0,0.1,0,0.3,0
			c-0.8,0.5-1.6,1.2-2.5,1.6C75.4,75.9,75.4,75.9,75.4,75.9z M75.1,76c-0.1,0-0.3,0-0.4,0h0.1C75,76,75,76,75.1,76z M73.8,74.8
			c0,0-0.1,0-0.3,0l0,0H73.8z M72.5,73.9c0.1,0,0.1,0,0.1-0.1c0.1-0.1,0-0.1,0-0.3c-0.1-0.1-0.3-0.3-0.4-0.3
			c-1.2-0.5-2.4-1.2-3.5-1.8c0.9,0,1.7-0.1,2.5-0.3c1.3,0.8,2.8,1.6,4.2,2.1C74.6,73.7,73.6,73.9,72.5,73.9z M72.3,74
			c-0.1,0-0.3,0-0.4,0c-1.7-0.9-3.3-1.7-4.8-2.8v-0.1C68.6,72.3,70.3,73.3,72.3,74z M78.3,71.6c0.1,0.1,0.3,0.1,0.5,0.4
			c-0.3,0.1-0.5,0.3-0.8,0.4c0,0-0.1,0-0.3-0.1C77.9,71.9,78,71.8,78.3,71.6z M80.4,73.7c0.1-0.1,0.4-0.4,0.5-0.5
			c1.3-0.5,2.4-1.2,3.4-2c-0.3,0.5-0.5,1-0.7,1.6c-0.8,0.5-1.6,1.2-2.5,1.7c-1.2,0.5-2.4,1-3.5,1.3c0.8-0.5,1.4-0.9,2.1-1.4
			c0.3,0,0.4,0,0.7-0.1c0.1,0,0.1-0.1,0.3-0.1c0-0.1-0.1-0.1-0.1-0.3C80.4,73.7,80.4,73.7,80.4,73.7z M79.7,77.4
			c-0.3-0.3-0.5-0.4-0.8-0.5c0.7-0.1,1.4-0.4,2.1-0.5C80.6,76.8,80.1,77.1,79.7,77.4z M84.6,71.7c0.3-0.4,0.4-0.8,0.7-1.2
			c0.3-0.3,0.5-0.5,0.7-0.7C85.5,70.4,85.2,71,84.6,71.7z M78.3,86.6c-0.1,0-0.1,0-0.3,0C78,86.6,78.1,86.6,78.3,86.6z M71.3,88.1
			c0.1,0,0.3,0,0.4,0c-0.8,0.1-1.7,0.3-2.5,0.4C69.9,88.3,70.7,88.2,71.3,88.1z M64.5,66.6c-0.1,0-0.4-0.3-0.5-0.4
			c-0.3-0.1-0.5-0.3-0.8-0.5c0.1,0,0.3,0,0.4,0.1c0.1,0,0.4,0.1,0.7,0.1c0.3,0.3,0.7,0.4,0.9,0.4c0.1,0.3,0.3,0.4,0.5,0.7
			c0,0.4,0,0.8,0,1.3c-1.2-0.4-2.4-0.9-3.4-1.4c-0.7-0.7-1.3-1.3-2-2L60.1,65c0.3,0.4,0.4,0.7,0.8,0.9c-0.8-0.4-1.4-0.9-2.1-1.4
			c-1.7-2.1-3.1-4.3-4.2-6.7c1.7,3,4.2,5.6,7.3,8c0.7,0.3,1.4,0.5,2.1,0.9C64.1,66.7,64.4,66.7,64.5,66.6z M62.6,67.8
			c1,0.9,2.1,1.8,3.1,2.6v0.1c-1.3-1-2.8-2.1-4.1-3C62,67.5,62.3,67.8,62.6,67.8z M64,68.2c0.4,0.1,1,0.1,1.7,0.1c0,0.4,0,0.8,0,1.2
			C65,69.1,64.4,68.7,64,68.2z M67,70.2c0-0.7,0-1.4,0-2.1c0.8,0.7,1.6,1.4,2.5,2.1C68.7,70.2,67.8,70.2,67,70.2z M56,70
			c0.8,0.1,1.4,0.3,2.1,0.4c0.8,0.4,1.6,0.7,2.4,1c0.7,0.7,1.6,1.3,2.4,1.8c-1.2,0-2.4-0.3-3.3-0.5c0.1-0.1,0.3-0.1,0.5-0.1
			c0.1,0,0.3-0.1,0.3-0.1c0-0.1,0-0.1-0.1-0.3C58.8,71.6,57.5,70.8,56,70z M61.5,71.3c-0.4-0.3-0.7-0.5-1-0.8c0.7,0,1.2,0,1.7-0.1
			c1.2,0.9,2.2,1.7,3.5,2.5c0,0.3,0,0.5,0,0.8c0,0.1,0,0.3,0,0.4c-0.3,0-0.7,0-0.9,0l0,0c0.3-0.1,0.7-0.4,0.9-0.4
			c0-0.5-0.4-0.9-0.9-1.2c0,0,0,0.1,0,0.3c-0.1-0.1-0.4-0.1-0.4-0.3C63.3,72.1,62.4,71.7,61.5,71.3z M61.8,70.1
			c-0.7-0.1-1.3-0.1-1.7-0.3c-0.3,0-0.4-0.3-0.5-0.3c-0.3-0.1-0.4-0.3-0.5-0.4c-1-0.8-2-1.7-2.9-2.5c1,0.4,2,0.8,3,1
			C59.9,68.7,60.9,69.5,61.8,70.1z M55.2,74.4c0.7,0.3,1.2,0.4,2,0.4c1,0.1,2,0.1,2.9,0.1c0.8,0.4,1.6,0.7,2.4,1
			c-2.6-0.1-5-0.5-7.5-1.2c-0.7-0.4-1-0.7-1.6-1C53.9,74,54.6,74.3,55.2,74.4z M54.6,73.3c0.3,0,0.5,0,0.9-0.1
			c0.1,0.1,0.3,0.1,0.4,0.3c-1-0.1-2-0.1-2.4,0.1c-0.3,0-0.4,0-0.5,0c-2.9-2.1-5.6-4.3-8.1-6.9c-0.4-0.4-0.8-0.8-1.2-1.2
			c-0.1-0.3-0.3-0.4-0.4-0.7c0.4,0.1,0.8,0.3,1,0.4c0.4,0.3,0.8,0.7,1.3,0.9c-0.1,0.1-0.1,0.1-0.1,0.1c0.1,0.1,0.3,0.4,0.3,0.4
			c1.3,1.2,2.6,2.4,4.1,3.4c1,1.2,2.2,2.4,3.7,3.5c-0.9-0.9-1.7-1.8-2.5-2.6C52.2,71.7,53.3,72.5,54.6,73.3z M67,75.7
			c-0.1-0.3-0.1-0.4,0-0.7c1.2,0,2.5,0,3.7,0C69.5,75.4,68.2,75.6,67,75.7z M67,74c-0.1-0.1-0.1-0.3,0-0.4c0.3,0.1,0.5,0.3,0.8,0.4
			C67.5,74,67.3,74,67,74z M64.5,72.9c0,0.1,0,0.3,0.1,0.4c-0.3,0-0.5,0-0.7,0c-0.5-0.4-1-0.7-1.4-1c0.7,0.3,1.4,0.4,2.1,0.5
			L64.5,72.9z M65,75.1c0.3,0.1,0.4,0.3,0.7,0.5v0.1c0,0,0,0,0,0.1c-0.7,0-1.3,0-2,0.1c-0.7-0.4-1.3-0.7-1.8-1
			C63,75.1,64,75.1,65,75.1z M50.2,65.3c0,0.1,0.3,0.3,0.3,0.5c-1-0.8-2-1.7-2.9-2.5C48.4,64.1,49.3,64.6,50.2,65.3z M48.5,65.7
			c-0.1-0.1-0.1-0.1-0.1-0.1c0.9,0.7,1.8,1.3,2.9,2c-0.3,0-0.7-0.1-1-0.3c-0.1-0.1-0.3-0.1-0.4-0.3C49.3,66.6,48.9,66.2,48.5,65.7z
			 M49.1,68c-0.1,0-0.1-0.1-0.3-0.1h0.1C48.9,68,49.1,68,49.1,68z M53.4,68.3c-0.4-0.4-0.8-0.8-1.2-1c-0.4-0.5-0.8-0.9-1-1.3
			c0.7,0.4,1.4,0.9,2.1,1.3c0.7,0.5,1.6,1,2.4,1.6C55,68.7,54.2,68.4,53.4,68.3z M41.9,78.2c0.1,0.1,0.3,0.3,0.4,0.4
			c0.1,0,0.3,0.3,0.5,0.4c1.6,1.4,3.1,2.9,5,4.1c-0.1-0.1-0.3-0.1-0.3,0c0.3,0.1,0.5,0.3,0.8,0.4c0.7,0.4,1.4,0.9,2.2,1.3
			c0.4,0.3,0.8,0.7,1.3,0.9C48,83.9,44.6,81.4,41.9,78.2z M47,81.8c0.7,0.4,1.3,0.8,2,1.2c0,0,0,0-0.1,0
			C48.2,82.6,47.6,82.2,47,81.8z M53.3,86.9c0.1-0.1,0.3-0.1,0.5-0.1c0.1,0.3,0.7,0.4,1,0.7c0.7,0.4,1.4,0.7,2.1,0.9
			c-0.4,0-0.7,0-1,0c0.3-0.1,0.4-0.1,0.5-0.1C55.4,87.8,54.3,87.4,53.3,86.9z M66.9,87.5c0.8,0.1,1.6,0.3,2.4,0.3
			c-0.8,0.1-1.6,0.3-2.4,0.3C66.9,87.9,66.9,87.8,66.9,87.5z M65.8,88.2c-0.1,0-0.4,0-0.5,0.1c-1.6-0.4-2.9-0.8-4.2-1.2
			c0.9,0,2,0.1,3.1,0.3c0.5,0,1,0,1.6,0.1C65.8,87.8,65.8,87.9,65.8,88.2z M55.2,86c2.6,1.2,5.2,2,8.3,2.6
			c-3.7-0.4-7.1-1.4-10.2-3.1C53.9,85.7,54.6,85.8,55.2,86z"/>
		<path class="st4" d="M45.7,83.9c0-0.1-0.1-0.1-0.3-0.1c-6.7-3.3-11.9-8.1-15.8-14.7c-0.3,0-0.3,0-0.3,0.1C33,76,38.5,81,45.7,83.9
			z"/>
	</g>
</g>
</svg>
