<svg width="80" height="55" viewBox="0 0 80 55" fill="none" xmlns="http://www.w3.org/2000/svg">
<g clip-path="url(#clip0_36_3018)">
<path d="M8.01177 20.8013C12.6068 16.3355 18.2621 13.1624 23.3284 9.16671C27.0987 6.11115 22.268 0.587644 18.38 2.70303C13.785 5.17098 8.83651 7.99149 5.53754 11.9872C2.23857 16.1005 8.01177 21.859 11.3107 17.7458C14.2562 14.2201 18.4978 11.8697 22.5037 9.75431C20.8542 7.63893 19.2047 5.40602 17.5552 3.29064C12.4889 7.28636 6.83357 10.3419 2.23857 14.9253C-1.6495 18.8035 4.24152 24.562 8.01177 20.8013Z" fill="#00A19B"/>
<path d="M58.4389 8.46159C62.4448 14.2201 66.5685 19.7436 72.4595 23.8569C75.7584 26.2073 80.4713 21.5065 78.1149 18.2159C77.7614 17.6283 77.7614 16.1005 77.5258 15.3954C77.2901 14.5727 76.8188 13.6325 76.4654 12.8099C75.5228 11.0471 74.109 9.28424 72.4595 7.99151C70.81 6.46373 68.8071 5.52356 66.9219 4.34835C65.3903 3.40817 64.2121 1.52783 62.3269 1.17527C60.9131 0.940226 59.2636 1.05775 58.321 2.23296C57.6141 3.05561 57.2607 3.76074 56.7894 4.70091C54.5508 9.51929 61.62 13.6325 63.8586 8.81416C64.2121 8.57911 64.2121 8.34407 64.0942 7.99151C62.7982 8.34407 61.3844 8.69664 60.0883 9.0492C58.9101 8.10903 58.5567 7.99151 59.2636 8.69664C59.6171 9.0492 59.9705 9.40176 60.324 9.63681C61.0309 10.2244 61.8557 10.812 62.7982 11.2821C64.2121 12.1048 65.7437 12.8099 66.9219 13.8676C67.9823 14.8077 69.0427 15.983 69.514 17.3932C70.2209 19.0385 69.8674 20.6838 70.9278 22.2116C72.8129 20.3313 74.6981 18.4509 76.5832 16.5706C71.9882 13.3975 68.6892 8.69664 65.5081 4.1133C62.4448 5.48363e-05 55.3755 3.99578 58.4389 8.46159Z" fill="#00A19B"/>
<path d="M18.6156 9.75436C17.5552 11.1646 16.377 12.4573 15.1988 13.6326C14.6097 14.2202 13.9028 14.9253 13.1959 15.5129C12.8424 15.7479 12.6068 16.1005 12.2533 16.3356C12.1355 16.4531 11.8998 16.5706 11.6642 16.8056C12.0177 16.5706 11.6642 16.8056 11.5464 16.9232C10.8395 17.3932 10.1325 17.9809 9.42561 18.4509C8.36523 19.1561 7.18703 19.9787 6.95139 21.2715C6.59792 23.0343 7.42267 24.2095 8.71869 25.2672C8.95433 25.5022 9.18997 25.6197 9.54343 25.8548C9.89689 26.0898 9.54343 25.8548 9.42561 25.7373C9.54343 25.8548 9.54343 25.8548 9.42561 25.7373C9.30779 25.6197 9.18997 25.3847 9.07215 25.1497C9.42561 26.5599 11.1929 27.7351 12.7246 27.1475C14.9632 26.3249 16.6127 24.7971 18.1443 23.0343C18.8512 22.2116 19.4403 21.389 20.1473 20.6838C20.2651 20.5663 20.5007 20.4488 20.6185 20.2138C20.8542 19.9787 20.8542 19.9787 20.5007 20.2138C20.6185 20.0962 20.7364 20.0962 20.8542 19.9787C21.2076 19.7437 21.6789 19.5086 22.0324 19.2736C24.0353 18.0984 26.0383 16.9232 27.4521 15.0428C27.9234 14.3377 28.2769 13.515 28.2769 12.6924C28.2769 11.3997 27.4521 10.342 26.3917 9.63683C24.9779 8.69666 23.3284 8.46162 21.6789 8.81418C20.1473 9.16675 19.2047 11.0471 19.676 12.4573C20.1473 14.1026 21.6789 14.8078 23.3284 14.4552C23.0928 14.4552 22.975 14.4552 23.2106 14.4552C22.8571 14.3377 22.975 14.4552 23.2106 14.4552C23.5641 14.5727 22.8571 14.2202 23.2106 14.4552C23.5641 14.5727 22.8571 13.9851 23.2106 14.5727C22.975 14.1026 22.7393 13.7501 22.5037 13.28C22.5037 13.3975 22.5037 13.3975 22.6215 13.515C22.6215 13.045 22.6215 12.4573 22.6215 11.9873C22.7393 11.5172 22.8571 11.6347 22.6215 11.9873C22.3858 12.4573 22.6215 12.2223 22.6215 11.9873C22.6215 12.2223 22.0324 12.5749 21.9146 12.6924C21.5611 13.045 22.268 12.4573 21.9146 12.6924C21.7967 12.8099 21.5611 12.9274 21.4433 13.045C21.0898 13.28 20.8542 13.3975 20.5007 13.6326C19.0869 14.4552 17.673 15.2779 16.4948 16.3356C15.4344 17.2757 14.4919 18.4509 13.6671 19.5086C13.1959 20.0962 12.7246 20.5663 12.1355 21.0364C11.782 21.389 12.1355 20.9189 12.2533 20.9189C12.2533 20.9189 11.8998 21.1539 11.782 21.2715C11.4286 21.1539 11.3107 21.1539 11.1929 21.2715C10.7216 21.624 11.782 21.0364 11.0751 21.2715C12.2533 21.9766 13.5493 22.6817 14.7275 23.2693C14.4919 22.3291 13.9028 21.5065 13.078 20.9189C12.8424 20.6838 12.4889 20.5663 12.2533 20.3313C12.1355 20.2138 12.0177 20.2138 11.8998 20.0962C11.782 19.9787 11.782 19.9787 12.0177 20.0962C12.3711 20.3313 12.6068 20.6838 12.6068 21.0364C12.6068 21.5065 12.6068 22.0941 12.6068 22.5642C12.4889 23.0343 12.3711 23.2693 12.0177 23.5044C12.1355 23.3868 12.2533 23.2693 12.4889 23.1518C12.7246 23.0343 12.9602 22.7992 13.1959 22.6817C13.6671 22.3291 14.2562 21.9766 14.7275 21.5065C15.7879 20.6838 16.8483 19.8612 17.7909 18.921C19.676 17.2757 21.3255 15.5129 22.7393 13.515C23.2106 12.9274 23.5641 12.3398 23.5641 11.3997C23.5641 10.6945 23.2106 9.87188 22.7393 9.28427C21.6789 8.81419 19.5582 8.46162 18.6156 9.75436Z" fill="#D27571"/>
<path d="M54.0795 13.9851C55.3755 15.3953 56.6716 16.6881 57.9676 18.0983C59.2636 19.3911 60.5596 20.6838 62.2091 21.5064C62.3269 21.624 62.5626 21.624 62.6804 21.7415C62.7982 21.859 63.1517 22.2116 62.916 21.859C62.6804 21.5064 63.0338 21.9765 63.0338 22.094C63.5051 22.5641 62.7982 21.624 63.0338 22.2116C63.3873 22.9167 63.7408 23.5043 64.0942 24.2094C64.8012 25.8547 65.9794 27.5 67.6288 28.2052C69.0427 28.9103 70.81 28.6752 71.6347 27.1475C72.3417 25.8547 72.106 23.8569 70.5744 23.1517L70.1031 22.9167C70.2209 22.9167 70.5743 23.2693 70.2209 23.0342C70.1031 22.9167 70.1031 22.9167 69.9852 22.7992C69.8674 22.6817 69.8674 22.6817 70.1031 23.0342C69.9852 22.9167 69.8674 22.6817 69.8674 22.5641C69.514 21.9765 69.1605 21.2714 68.9249 20.5663C68.1001 18.921 67.0397 17.5107 65.3903 16.5705C65.0368 16.3355 64.6833 16.218 64.4477 15.9829C64.3299 15.8654 64.0942 15.7479 63.9764 15.6304C63.3873 15.2778 64.212 15.8654 63.9764 15.6304C63.3873 15.0428 62.7982 14.4552 62.2091 13.8675C60.9131 12.4573 59.6171 11.1646 58.321 9.7543C57.2607 8.69661 55.2577 8.57909 54.1973 9.7543C52.9013 11.047 52.9013 12.8099 54.0795 13.9851Z" fill="#D27571"/>
<path d="M49.0133 51.3568C48.4242 52.8846 47.246 53.4722 45.7143 53.7073C45.0074 53.8248 44.4183 53.9423 43.7113 53.9423C43.5935 53.9423 43.3579 54.0598 43.2401 54.0598C43.1222 54.1774 43.0044 54.1774 42.8866 54.2949C42.2975 54.8825 41.4728 55 40.648 54.8825C40.2946 54.8825 39.9411 54.765 39.7055 54.765C38.9985 54.765 38.5273 54.6474 37.9382 54.1773C37.3491 53.7073 36.7599 53.4722 36.2887 52.8846C36.1708 52.7671 36.053 52.6496 35.8174 52.6496C35.5817 52.8846 35.4639 52.8846 35.3461 53.0021C34.9926 53.2372 34.757 53.3547 34.2857 53.3547C34.0501 53.3547 33.8144 53.4722 33.5788 53.4722C32.5184 53.7073 31.458 53.1197 31.2224 51.9444C31.2224 51.7094 31.1046 51.3568 31.1046 51.0043C30.6333 50.8868 30.0442 50.8868 29.5729 50.7692C29.1016 50.6517 28.7482 50.6517 28.2769 50.4167C27.6878 50.1816 27.2165 49.8291 26.9809 49.2415C26.863 48.8889 26.6274 48.6538 26.5096 48.3013C26.1561 48.1838 25.6848 48.0662 25.3314 47.9487C24.6245 47.7137 24.0354 47.2436 23.5641 46.7735L23.4462 46.656C22.975 46.0684 22.5037 45.4808 22.8571 44.6581C22.6215 44.6581 22.3859 44.5406 22.268 44.5406C21.5611 44.4231 20.972 43.953 20.6186 43.3654C20.3829 43.0128 20.2651 42.6603 20.2651 42.1902C20.3829 41.3675 20.5007 40.5449 20.8542 39.8397C21.0898 39.2521 21.3255 38.7821 21.7968 38.312C22.268 37.7244 22.268 37.2543 21.9146 36.6667C21.5611 36.1966 21.3255 35.7265 21.0898 35.2564C20.2651 33.7286 19.3225 32.2009 18.2622 30.7906C18.1443 30.5556 18.0265 30.438 17.7909 30.203C17.2018 29.4979 16.4949 28.7927 15.9058 28.0876C15.7879 28.0876 15.5523 28.0876 15.1988 28.0876C15.081 28.2051 14.8454 28.4402 14.6097 28.5577C13.785 29.1453 12.9602 29.0278 12.2533 28.3227C11.4286 27.5 10.6038 26.5598 9.77909 25.7372C9.42563 25.3846 9.07217 25.0321 8.60089 24.6795C8.48307 24.562 8.36525 24.562 8.24743 24.4444C7.42269 24.9145 6.48012 24.797 5.65538 24.562C4.83064 23.7393 4.12372 22.7991 3.29898 21.859C2.70987 21.1538 1.88513 20.3312 1.17821 19.6261C0.824749 19.2735 0.589108 18.9209 0.235647 18.4509C6.25104e-06 18.2158 6.25104e-06 17.9808 0.117827 17.6282C0.353467 16.8056 0.824749 16.2179 1.17821 15.5128C1.17821 15.2778 1.29603 15.1603 1.41385 15.0427C1.76731 14.8077 1.88513 14.4551 2.12077 14.1026C2.59205 13.3974 3.18115 12.6923 3.77026 11.9872C4.12372 11.5171 4.595 11.1645 4.94846 10.6944C6.3623 9.28419 7.77615 7.87393 9.18999 6.46368C10.8395 4.9359 12.7246 3.52564 14.7275 2.46795C15.1988 2.23291 15.5523 1.99786 15.9058 1.76282C17.084 1.05769 18.2622 0.587607 19.5582 0.470085C19.7938 0.470085 19.9116 0.352564 20.1473 0.352564C20.7364 0.587607 21.0898 0.940171 21.4433 1.29274C22.6215 2.35043 23.5641 3.52564 24.6245 4.70085C24.7423 4.81838 24.9779 5.05342 25.0957 5.28846C25.4492 5.99359 26.0383 6.69872 26.6274 7.1688C27.0987 7.52137 27.0987 7.87393 26.863 8.34402C26.7452 8.69658 26.6274 9.04915 26.3918 9.40171C26.2739 9.63675 26.2739 9.75427 26.1561 9.98932C26.3918 10.2244 26.6274 10.4594 26.863 10.6944C27.6878 11.5171 28.5125 12.4573 29.3373 13.2799C29.6907 13.6325 29.8085 14.2201 29.5729 14.6902C29.3373 15.1603 29.1016 15.6303 28.866 16.1004C28.866 16.2179 28.866 16.3355 28.9838 16.3355C29.9264 17.3932 31.1046 18.2158 32.5184 18.5684C34.0501 18.9209 34.0501 18.9209 35.4639 18.2158C37.1134 17.5107 38.6451 16.688 40.4124 16.5705C41.3549 16.5705 42.2975 16.453 43.2401 16.5705C43.8292 16.688 44.3004 16.688 44.8895 16.8056C45.0074 16.8056 45.243 16.8056 45.3608 16.8056C46.539 16.5705 47.7172 16.453 48.7776 15.9829C49.6024 15.6303 50.4271 15.2778 51.3697 14.8077C51.6053 14.6902 51.7231 14.5726 51.9588 14.4551C51.7231 13.6325 51.6053 12.9274 51.2518 12.1047C51.134 11.6346 51.134 11.2821 51.6053 10.812C52.43 10.1068 53.137 9.28419 53.9617 8.46154C53.9617 8.34402 53.9617 8.2265 53.8439 8.10897C53.3726 7.52137 53.6083 6.81624 53.6083 6.22863C53.6083 5.75855 53.9617 5.40598 54.3152 5.17094C55.6112 4.23077 56.7894 3.40812 58.0854 2.46795C58.6745 2.11538 59.2636 1.76282 59.7349 1.41026C60.4418 0.940171 61.1488 0.470085 61.7379 0C62.327 0 62.5626 0 62.9161 0C63.5052 0.117521 63.8586 0.352564 64.3299 0.705128C66.215 1.99786 67.8645 3.40812 69.3962 4.9359C70.1031 5.64103 70.81 6.22863 71.5169 6.93376C73.6377 8.93162 75.405 11.1645 76.9367 13.75C77.8792 15.2778 78.704 16.8056 79.5287 18.3333C79.7644 18.8034 79.8822 19.2735 80 19.8611C80.1178 20.0962 79.8822 20.3312 79.7644 20.5662C79.4109 21.0363 79.0574 21.3889 78.5862 21.859C78.3505 22.2115 77.9971 22.4466 77.6436 22.7991C77.5258 22.9167 77.2901 23.1517 77.1723 23.2692C76.1119 24.0919 75.2872 25.1496 74.2268 25.9722C73.6377 26.4423 72.9308 26.9124 72.3417 27.265C71.8704 27.6175 71.2813 27.5 70.6922 27.265C70.4566 27.1474 70.3387 27.0299 70.1031 26.9124C69.0427 27.735 67.9823 28.6752 66.922 29.4979C66.3328 29.3803 65.8616 29.2628 65.3903 29.0278C64.919 28.7927 64.5655 28.4402 64.0943 28.2051C63.623 28.4402 63.2695 28.7927 63.0339 29.1453C62.327 30.203 61.62 31.2607 60.9131 32.3184C60.0884 33.8462 59.3815 35.3739 58.6745 37.0192C58.3211 37.9594 57.732 38.8996 57.1429 39.8397C56.9072 40.0748 56.7894 40.3098 56.5538 40.5449C56.3181 40.7799 56.3181 41.015 56.4359 41.3675C56.4359 41.485 56.4359 41.485 56.5538 41.6026C57.1429 43.0128 56.7894 44.3056 56.0825 45.5983C55.9647 45.7158 55.8468 45.8333 55.8468 46.0684C55.6112 46.7735 55.0221 47.3611 54.3152 47.7137C53.8439 48.0662 53.3726 48.3013 53.137 48.8889C53.137 49.0064 53.0192 49.1239 52.9013 49.2415C52.0766 50.0641 51.134 50.6517 50.1915 51.2393C49.9558 51.3568 49.7202 51.3568 49.4845 51.4744C49.4845 51.2393 49.2489 51.2393 49.0133 51.3568ZM4.94846 17.9808C5.06628 17.8632 5.06628 17.7457 5.1841 17.6282C5.53756 17.0406 6.00884 16.453 6.3623 15.8654C6.95141 14.8077 7.65833 13.75 8.24743 12.6923C7.18705 13.75 6.24448 15.0427 5.30192 16.2179C5.1841 16.3355 5.1841 16.453 5.06628 16.5705C4.94846 16.688 4.94846 16.8056 4.83064 16.9231C4.71282 17.1581 4.71282 17.2756 4.595 17.3932C4.47718 17.6282 4.47718 17.7457 4.35936 17.9808L4.24154 18.0983C4.24154 18.0983 4.24154 18.0983 4.24154 17.9808C4.35936 17.7457 4.35936 17.6282 4.47718 17.3932C4.595 17.2756 4.595 17.1581 4.71282 17.0406C4.83064 16.9231 4.83064 16.8056 4.94846 16.688C5.06628 16.5705 5.06628 16.453 5.1841 16.3355C5.65538 16.453 5.65538 16.453 5.53756 16.688C5.41974 17.0406 5.30192 17.3932 5.06628 17.6282C5.06628 17.7457 4.94846 17.8632 4.94846 17.9808C4.94846 18.0983 4.83064 18.0983 4.94846 17.9808C4.83064 18.0983 4.83064 18.0983 4.94846 17.9808C4.83064 18.0983 4.83064 18.0983 4.94846 17.9808ZM5.53756 20.5662C5.41974 20.5662 5.41974 20.5662 5.53756 20.5662C5.41974 20.5662 5.41974 20.5662 5.53756 20.5662C5.41974 20.5662 5.41974 20.5662 5.53756 20.5662ZM2.94551 15.9829C2.82769 16.1004 2.82769 16.1004 2.94551 15.9829C2.82769 16.1004 2.82769 16.1004 2.94551 15.9829ZM8.60089 17.3932C8.71871 17.2756 8.71871 17.1581 8.83653 17.0406C8.83653 17.0406 8.83653 16.9231 8.95435 16.9231V17.0406C8.71871 17.1581 8.71871 17.2756 8.60089 17.3932C8.60089 17.3932 8.48307 17.3932 8.60089 17.3932C8.48307 17.5107 8.48307 17.5107 8.48307 17.5107L8.60089 17.3932ZM1.64949 16.688C1.76731 16.5705 1.76731 16.453 1.88513 16.3355C1.88513 16.3355 1.88513 16.3355 1.88513 16.2179C1.88513 16.2179 1.88513 16.2179 1.88513 16.3355C1.76731 16.453 1.76731 16.5705 1.64949 16.688C1.64949 16.688 1.53167 16.8056 1.64949 16.688C1.53167 16.8056 1.53167 16.8056 1.53167 16.8056C1.53167 16.8056 1.64949 16.8056 1.64949 16.688ZM5.30192 13.8675C5.1841 13.985 5.1841 14.1026 5.06628 14.2201C4.595 14.6902 4.595 14.6902 4.35936 15.2778C4.71282 14.9252 4.83064 14.5726 4.94846 14.2201C5.1841 14.1026 5.1841 13.985 5.30192 13.8675C5.30192 13.8675 5.41974 13.8675 5.30192 13.8675C5.41974 13.75 5.41974 13.75 5.41974 13.75C5.41974 13.8675 5.30192 13.8675 5.30192 13.8675ZM7.42269 14.9252C7.30487 14.9252 7.30487 15.0427 7.42269 14.9252C7.54051 14.8077 7.54051 14.6902 7.65833 14.5726C7.77615 14.4551 7.89397 14.4551 8.01179 14.3376C8.83653 13.3974 9.54345 12.4573 10.2504 11.5171C9.77909 11.5171 9.54345 11.6346 9.30781 11.9872C8.83653 12.8098 8.24743 13.6325 7.77615 14.5726C7.54051 14.6902 7.54051 14.8077 7.42269 14.9252ZM71.6348 7.75641C71.6348 7.75641 71.5169 7.75641 71.5169 7.63889C71.5169 7.63889 71.5169 7.63889 71.6348 7.75641V7.87393H71.7526V7.75641C71.6348 7.75641 71.6348 7.75641 71.6348 7.75641ZM15.7879 3.87821C15.4345 3.99573 15.3166 4.23077 15.3166 4.46581C15.1988 4.58333 15.081 4.58333 14.9632 4.70085C15.3166 4.70085 15.3166 4.58333 15.3166 4.34829C15.4345 4.23077 15.5523 4.11325 15.7879 3.87821ZM17.2018 3.40812C17.084 3.52564 16.9661 3.52564 16.8483 3.64316L16.9661 3.76068C17.084 3.64316 17.084 3.52564 17.2018 3.40812C17.3196 3.2906 17.3196 3.2906 17.3196 3.2906C17.2018 3.2906 17.2018 3.40812 17.2018 3.40812ZM56.4359 4.58333C56.3181 4.70085 56.3181 4.81838 56.2003 4.9359C56.2003 4.9359 56.3181 4.9359 56.3181 5.05342C56.3181 4.81838 56.3181 4.70085 56.4359 4.58333ZM4.83064 13.0449C4.94846 12.9274 5.06628 12.9274 5.1841 12.8098L5.06628 12.6923C4.94846 12.8098 4.83064 12.9274 4.83064 13.0449ZM18.7334 4.34829C18.8513 4.23077 18.9691 4.23077 19.0869 4.11325C18.7334 3.99573 18.7334 4.23077 18.7334 4.34829C18.6156 4.46581 18.6156 4.46581 18.4978 4.46581C18.4978 4.46581 18.4978 4.46581 18.4978 4.58333H18.6156C18.6156 4.58333 18.6156 4.46581 18.7334 4.34829ZM68.6893 8.46154L68.8071 8.57906C68.8071 8.57906 68.8071 8.57906 68.9249 8.57906V8.46154C68.8071 8.46154 68.6893 8.46154 68.6893 8.46154C68.5714 8.34402 68.5714 8.10897 68.4536 7.87393C68.3358 8.2265 68.5714 8.2265 68.6893 8.46154ZM73.4021 15.5128C73.4021 15.6303 73.4021 15.8654 73.6377 15.9829C73.6377 15.7479 73.5199 15.6303 73.4021 15.5128C73.4021 15.2778 73.4021 15.0427 73.1664 14.9252C73.0486 15.2778 73.1664 15.3953 73.4021 15.5128ZM22.975 5.99359V6.11111H23.0928V5.99359C23.0928 6.11111 22.975 5.99359 22.975 5.99359C22.8571 5.87607 22.7393 5.5235 22.3859 5.64103C22.6215 5.75855 22.7393 5.87607 22.975 5.99359ZM64.2121 13.3974C64.2121 13.515 64.2121 13.515 64.2121 13.6325C64.2121 13.6325 64.2121 13.6325 64.3299 13.75V13.6325C64.3299 13.3974 64.2121 13.3974 64.2121 13.3974C64.2121 13.1624 64.0943 12.9274 63.7408 12.8098C63.8586 13.0449 63.9764 13.2799 64.2121 13.3974ZM58.9102 8.10897C58.9102 7.87393 58.7924 7.63889 58.5567 7.52137C58.4389 6.93376 58.3211 6.46368 57.732 6.11111C57.3785 6.22863 56.9072 6.34615 56.5538 6.22863L56.4359 6.34615V6.46368C56.5538 6.5812 56.7894 6.5812 56.9072 6.69872C57.1429 6.81624 57.1429 7.1688 57.4963 7.05128C57.6141 6.93376 57.732 6.81624 57.732 6.5812C57.9676 6.93376 58.3211 7.28632 58.5567 7.52137C58.5567 7.63889 58.5567 7.99145 58.9102 8.10897C59.028 8.46154 59.028 8.46154 59.4993 8.8141C59.1458 8.46154 59.028 8.2265 58.9102 8.10897ZM69.7496 16.688C69.7496 16.688 69.7496 16.8056 69.7496 16.688C69.7496 16.8056 69.7496 16.8056 69.7496 16.8056C69.7496 16.8056 69.7496 16.8056 69.7496 16.688C69.6318 16.453 69.514 16.3355 69.3962 16.1004C69.2784 15.8654 69.1605 16.1004 69.0427 16.2179C68.9249 16.1004 68.6893 15.8654 68.5714 15.7479C68.3358 15.3953 67.9823 15.0427 67.7467 14.5726C67.5111 14.1026 67.1576 13.75 67.0398 13.1624C66.922 12.8098 66.8041 12.5748 66.4507 12.3397C66.215 12.8098 66.215 13.1624 66.5685 13.6325C67.2754 14.5726 67.9823 15.6303 68.6893 16.5705C68.6893 16.688 68.8071 16.688 68.9249 16.8056C68.9249 16.5705 68.9249 16.3355 68.9249 16.2179C69.1605 16.3355 69.3962 16.5705 69.7496 16.688ZM19.2047 1.41026C18.9691 1.41026 18.6156 1.29273 18.38 1.52778C18.7334 1.76282 18.9691 1.52778 19.2047 1.41026C19.3225 1.41026 19.3225 1.41026 19.3225 1.29274C19.3225 1.41026 19.2047 1.41026 19.2047 1.41026ZM69.7496 7.87393C69.6318 7.75641 69.6318 7.75641 69.6318 7.75641C69.6318 7.87393 69.7496 7.87393 69.7496 7.87393C69.7496 8.2265 69.9853 8.34402 70.3387 8.2265C70.2209 7.99145 69.9853 7.99145 69.7496 7.87393ZM14.1384 14.1026C14.6097 13.8675 14.6097 13.8675 14.7275 13.515C14.6097 13.75 14.3741 13.985 14.1384 14.1026C14.1384 14.1026 14.1384 14.2201 14.1384 14.1026C14.1384 14.2201 14.1384 14.1026 14.1384 14.1026ZM4.47718 11.9872C4.94846 11.7521 5.1841 11.5171 5.41974 11.047C5.53756 10.9295 5.65538 10.9295 5.7732 10.6944C5.41974 10.6944 5.41974 10.812 5.41974 11.047C4.94846 11.2821 4.71282 11.5171 4.47718 11.9872C4.24154 12.2222 4.24154 12.2222 4.12372 12.5748C4.24154 12.3397 4.35936 12.2222 4.47718 11.9872ZM4.94846 19.391C5.1841 19.156 5.41974 18.8034 5.53756 18.4509C5.1841 18.8034 5.06628 19.0385 4.94846 19.391C4.94846 19.391 4.94846 19.5085 4.83064 19.5085C4.94846 19.5085 4.94846 19.5085 4.94846 19.391ZM65.2725 4.81838C65.2725 4.9359 65.2725 4.9359 65.2725 5.05342C65.2725 5.05342 65.2725 5.05342 65.3903 5.05342C65.2725 5.05342 65.2725 4.9359 65.2725 4.81838C65.3903 4.70085 65.3903 4.58333 65.2725 4.34829C65.1546 4.23077 64.919 4.11325 64.6834 3.99573C64.8012 4.46581 64.919 4.70085 65.2725 4.81838ZM6.3623 19.7436C6.95141 19.0385 7.06923 18.9209 7.06923 18.3333C6.83358 18.6859 6.71576 18.9209 6.59794 19.2735C6.48012 19.391 6.3623 19.6261 6.3623 19.7436C6.3623 19.8611 6.3623 19.8611 6.3623 19.8611C6.3623 19.8611 6.3623 19.8611 6.3623 19.7436ZM66.5685 5.64103C66.4507 5.28846 66.3328 4.9359 65.9794 4.70085C65.9794 5.17094 65.9794 5.17094 66.5685 5.64103C66.6863 6.22863 67.1576 6.5812 67.6289 7.05128C67.6289 7.05128 67.7467 6.93376 67.8645 6.93376C67.8645 6.93376 67.8645 6.93376 67.8645 6.81624C67.8645 6.81624 67.8645 6.81624 67.8645 6.93376C67.8645 6.93376 67.8645 6.93376 67.7467 6.93376C67.5111 6.81624 67.3932 6.5812 67.1576 6.46368C67.0398 6.11111 66.8041 5.87607 66.5685 5.64103ZM15.4345 7.05128C16.0236 6.81624 16.2592 6.22863 16.7305 5.75855C16.8483 5.64103 16.9661 5.5235 16.7305 5.40598C16.6127 5.40598 16.6127 5.5235 16.4949 5.5235C16.1414 5.99359 15.7879 6.5812 15.4345 7.05128C15.3166 7.1688 15.3166 7.1688 15.3166 7.1688L15.4345 7.05128ZM9.07217 10.812C9.18999 10.5769 9.30781 10.3419 9.42563 10.1068C9.54345 9.8718 9.77909 9.63675 9.77909 9.28419C9.66127 9.40171 9.54345 9.40171 9.42563 9.51923C9.18999 9.75427 8.83653 10.1068 9.07217 10.5769C9.07217 10.5769 9.07217 10.6944 9.07217 10.812C8.95435 10.9295 8.83653 11.047 8.71871 11.047L8.83653 11.1645C8.83653 11.047 8.95435 10.9295 9.07217 10.812ZM16.4949 6.93376C15.9058 7.40385 15.5523 7.99145 15.3166 8.57906C15.3166 8.57906 15.3166 8.57906 15.1988 8.57906C15.1988 8.57906 15.1988 8.57906 15.1988 8.69658C15.1988 8.69658 15.1988 8.57906 15.3166 8.57906C15.9058 8.2265 16.377 7.75641 16.4949 6.93376V6.81624C16.4949 6.93376 16.4949 6.93376 16.4949 6.93376ZM68.3358 6.34615C68.3358 6.34615 68.3358 6.46368 68.4536 6.46368H68.5714V6.34615C68.4536 6.46368 68.3358 6.34615 68.3358 6.34615C68.1002 5.64103 67.5111 5.17094 67.0398 4.58333C66.922 4.46581 66.8041 4.46581 66.6863 4.46581C66.4507 4.23077 66.0972 3.87821 65.8616 3.64316C64.8012 3.05556 63.9764 2.11538 63.1517 1.17521C63.0339 1.05769 62.9161 0.940171 62.7982 0.82265C62.327 1.05769 62.327 1.41026 62.327 1.76282C62.327 1.88034 62.2091 1.99786 62.2091 2.11538C62.4448 2.46795 62.5626 2.70299 62.9161 2.93803C63.1517 3.17308 63.3873 3.52564 63.9764 3.64316C63.623 3.17308 63.3873 2.82051 63.1517 2.58547C62.9161 2.35043 62.6804 1.99786 62.4448 1.76282C62.5626 1.6453 62.6804 1.41026 62.9161 1.17521C63.0339 1.29274 63.1517 1.29274 63.1517 1.41026C63.2695 1.88034 63.623 2.35043 64.0943 2.70299C64.6834 3.17308 65.2725 3.52564 65.7437 3.87821C66.0972 4.11325 66.4507 4.34829 66.922 4.34829C67.1576 5.17094 67.6289 5.87607 68.3358 6.34615ZM75.405 18.0983C75.2872 17.7457 75.2872 17.7457 74.8159 17.3932C75.0516 17.7457 75.2872 17.8632 75.405 18.0983C75.405 18.2158 75.405 18.2158 75.405 18.3333C75.7585 18.9209 76.1119 19.6261 76.4654 20.2137C76.4654 20.2137 76.5832 20.2137 76.701 20.2137C76.2298 19.5085 75.9941 18.6859 75.405 18.0983ZM12.489 10.5769C13.1959 9.98932 13.785 9.28419 14.2563 8.57906L14.1384 8.46154C13.4315 9.04915 12.8424 9.75427 12.489 10.5769C12.489 10.5769 12.3711 10.5769 12.489 10.5769C12.489 10.6944 12.489 10.6944 12.3711 10.6944L12.489 10.5769ZM13.785 13.2799C14.4919 12.8098 15.3166 11.8697 15.5523 11.2821C15.081 11.5171 14.3741 12.3397 13.785 13.2799C13.785 13.3974 13.785 13.3974 13.785 13.3974C13.785 13.3974 13.785 13.3974 13.785 13.2799ZM13.6672 12.1047C13.9028 11.9872 14.0206 11.8697 14.2563 11.6346C14.8454 11.047 15.3166 10.4594 15.5523 9.63675C15.5523 9.63675 15.5523 9.63675 15.6701 9.51923C15.6701 9.51923 15.6701 9.51923 15.6701 9.40171C15.6701 9.40171 15.6701 9.51923 15.5523 9.51923C14.9632 10.2244 14.1384 11.2821 13.6672 12.1047C13.5493 12.2222 13.5493 12.2222 13.4315 12.3397V12.4573H13.5493C13.6672 12.2222 13.6672 12.2222 13.6672 12.1047ZM77.7614 18.3333C78.1149 19.391 78.2327 19.6261 78.704 20.2137V20.0962C78.4683 19.6261 78.2327 19.0385 77.9971 18.5684C77.9971 18.4509 77.8792 18.4509 77.7614 18.3333C77.8792 18.3333 77.7614 18.3333 77.7614 18.3333C77.408 17.5107 76.8188 17.0406 76.2298 16.2179C76.4654 16.9231 76.9367 17.8632 77.1723 18.0983C77.408 18.2158 77.6436 18.2158 77.7614 18.3333ZM71.7526 16.688V16.8056L71.8704 16.688C71.9882 16.8056 72.106 16.8056 72.3417 17.0406C72.106 16.3355 71.9882 15.7479 71.7526 15.1603C71.6348 14.8077 71.3991 14.5726 70.9278 14.2201C71.0457 14.5726 71.1635 14.8077 71.2813 14.9252C71.6348 15.5128 71.7526 16.1004 71.7526 16.688ZM72.2239 8.93162V8.8141C72.2239 8.8141 72.2239 8.8141 72.2239 8.69658V8.8141C72.106 8.93162 72.2239 8.93162 72.2239 8.93162C72.2239 9.04915 72.2239 9.16667 72.3417 9.16667C72.9308 10.1068 73.5199 11.047 74.2268 11.9872C74.2268 11.9872 74.3446 11.9872 74.4625 12.1047C74.109 11.2821 73.0486 9.75427 72.2239 8.93162ZM11.4286 9.28419C11.6642 9.16667 11.8999 9.04915 12.0177 8.8141C12.6068 8.10897 13.1959 7.52137 13.785 6.81624C13.785 6.69872 13.9028 6.69872 14.0206 6.34615C12.8424 7.28632 12.0177 8.10897 11.4286 9.28419C11.3108 9.28419 11.3108 9.28419 11.4286 9.28419C11.3108 9.28419 11.3108 9.40171 11.3108 9.40171C11.3108 9.40171 11.3108 9.28419 11.4286 9.28419ZM12.7246 11.9872C13.4315 11.3996 14.2563 10.4594 14.4919 9.75427C14.3741 9.75427 14.1384 9.63675 14.0206 9.75427C13.9028 9.8718 13.785 10.1068 13.5493 10.3419C13.3137 10.5769 13.3137 10.9295 12.9602 11.047C12.9602 11.047 12.9602 11.047 12.9602 11.1645C12.9602 11.3996 12.8424 11.6346 12.7246 11.9872C12.7246 11.9872 12.7246 12.1047 12.6068 12.1047C12.7246 12.1047 12.7246 12.1047 12.7246 11.9872ZM9.54345 14.3376C9.42563 14.4551 9.18999 14.5726 9.07217 14.8077C8.71871 15.1603 8.48307 15.6303 8.12961 16.1004C7.65833 16.453 7.30487 17.0406 7.30487 17.6282L7.18705 17.7457C7.18705 17.7457 7.18705 17.7457 7.18705 17.6282C7.77615 16.8056 8.36525 15.9829 8.83653 15.1603C9.18999 14.9252 9.30781 14.5726 9.54345 14.3376C9.66127 14.2201 9.89691 14.1026 9.89691 13.8675C9.54345 13.8675 9.54345 14.1026 9.54345 14.3376ZM11.4286 10.6944C12.2533 9.98932 13.4315 8.57906 13.785 7.87393C13.4315 7.87393 13.1959 8.10897 12.9602 8.46154C12.6068 8.93162 12.2533 9.28419 11.8999 9.75427C11.782 9.98932 11.6642 10.3419 11.4286 10.6944C11.3108 10.812 11.3108 10.812 11.1929 10.9295C11.1929 10.9295 11.3108 10.9295 11.3108 11.047C11.3108 10.9295 11.4286 10.812 11.4286 10.6944ZM9.77909 14.9252C9.89691 14.8077 10.0147 14.8077 10.1326 14.6902C10.7217 13.985 11.1929 13.2799 11.782 12.5748C12.0177 12.2222 12.1355 11.8697 12.3711 11.5171C12.3711 11.5171 12.3711 11.3996 12.489 11.3996C12.489 11.3996 12.489 11.5171 12.3711 11.5171C12.1355 11.6346 12.0177 11.8697 11.782 11.9872C11.6642 12.1047 11.5464 12.3397 11.3108 12.4573C10.6038 13.2799 10.1326 13.985 9.77909 14.9252C9.77909 15.0427 9.77909 15.0427 9.66127 15.0427C9.77909 15.0427 9.77909 14.9252 9.77909 14.9252ZM10.6038 9.16667C10.7217 9.04915 10.8395 9.04915 10.9573 8.93162C11.5464 8.2265 12.2533 7.63889 12.8424 6.93376C13.0781 6.69872 13.3137 6.34615 13.5493 5.87607C13.3137 5.99359 13.3137 5.99359 13.1959 6.11111C12.489 6.93376 11.6642 7.75641 10.9573 8.69658C10.8395 8.8141 10.7217 9.04915 10.6038 9.16667C10.486 9.28419 10.3682 9.40171 10.2504 9.40171C10.2504 9.40171 10.3682 9.40171 10.3682 9.51923C10.486 9.40171 10.486 9.28419 10.6038 9.16667ZM76.701 19.0385C76.8189 18.8034 76.9367 18.5684 76.701 18.2158C76.2298 17.6282 75.7585 16.9231 75.1694 16.3355C75.0516 16.2179 74.9337 15.9829 74.6981 15.8654C74.6981 16.3355 74.9337 16.688 75.1694 17.1581C75.7585 17.7457 76.1119 18.4509 76.701 19.0385ZM11.3108 6.5812C11.3108 6.34615 11.6642 6.11111 11.5464 5.64103C11.3108 5.87607 11.1929 5.99359 11.0751 6.22863C10.9573 6.46368 11.0751 6.5812 11.3108 6.5812C10.8395 7.1688 10.486 7.75641 9.77909 8.2265C9.54345 7.99145 9.42563 7.87393 9.30781 7.75641C9.07217 7.99145 8.83653 8.2265 8.83653 8.34402C8.83653 8.69658 8.83653 8.93162 8.71871 9.16667C8.71871 9.16667 8.71871 9.28419 8.83653 9.28419C8.83653 9.40171 8.95435 9.40171 9.07217 9.40171C9.18999 9.40171 9.30781 9.28419 9.42563 9.16667C10.3682 8.2265 11.3108 7.1688 12.2533 6.22863C12.2533 6.22863 12.2533 6.11111 12.3711 5.87607C12.1355 5.99359 12.0177 5.99359 11.8999 6.11111C11.782 6.22863 11.6642 6.46368 11.3108 6.5812ZM69.7496 13.75C69.3962 13.6325 69.2784 13.3974 69.1605 13.1624C68.9249 12.8098 68.6893 12.3397 68.3358 11.9872C68.218 11.8697 68.218 11.7521 68.1002 11.7521C67.9823 11.7521 67.8645 11.7521 67.8645 11.7521L67.7467 11.8697C67.7467 11.9872 67.7467 12.1047 67.8645 12.1047C68.6893 13.2799 69.514 14.4551 70.3387 15.5128C70.4566 15.6303 70.5744 15.8654 70.81 15.8654C70.81 15.3953 70.4566 15.1603 70.3387 14.8077C70.1031 14.4551 69.7496 14.2201 69.7496 13.75H69.8675C69.8675 13.75 69.9853 13.75 69.9853 13.6325L69.8675 13.515C69.8675 13.6325 69.8675 13.6325 69.7496 13.75ZM71.6348 13.515C71.3991 13.2799 71.1635 13.1624 71.0457 12.9274C70.5744 12.2222 70.1031 11.6346 69.6318 10.9295C69.3962 10.6944 69.2784 10.5769 69.0427 10.5769C68.8071 10.812 68.9249 11.047 69.0427 11.2821C69.514 11.9872 70.1031 12.6923 70.6922 13.3974C71.0457 13.8675 71.3991 14.3376 71.8704 14.8077C71.9882 14.9252 72.106 15.0427 72.3417 14.8077C72.2239 14.5726 71.9882 14.4551 71.8704 14.2201C71.7526 13.985 71.6348 13.75 71.6348 13.515C71.7526 13.515 71.8704 13.6325 72.106 13.6325C71.2813 12.4573 70.5744 11.3996 69.8675 10.3419C69.8675 10.2244 69.7496 10.2244 69.6318 10.1068C69.6318 10.1068 69.6318 10.1068 69.514 10.1068C69.514 10.1068 69.514 10.1068 69.3962 10.1068C69.514 10.2244 69.514 10.4594 69.6318 10.5769C70.1031 11.2821 70.5744 11.9872 71.1635 12.6923C71.3991 12.9274 71.6348 13.1624 71.6348 13.515ZM68.5714 14.9252C68.9249 15.2778 69.1605 15.5128 69.514 15.8654C69.7496 16.2179 70.1031 16.453 70.3387 16.8056C70.1031 15.8654 69.514 15.0427 68.9249 14.3376C68.3358 13.6325 67.9823 12.5748 67.1576 11.9872C67.1576 12.8098 67.1576 12.8098 67.5111 13.3974C67.6289 13.6325 67.8645 13.8675 67.9823 13.985C68.218 14.2201 68.3358 14.5726 68.4536 14.9252C68.4536 15.0427 68.4536 15.2778 68.4536 15.2778C68.6893 15.1603 68.5714 14.9252 68.5714 14.9252ZM58.4389 5.99359C58.4389 5.87607 58.5567 5.75855 58.5567 5.64103V5.5235H58.4389C58.4389 5.75855 58.4389 5.87607 58.4389 5.99359C59.028 6.69872 59.6171 7.28632 59.8527 8.10897C60.6775 9.28419 61.62 10.3419 62.4448 11.5171C62.5626 11.6346 62.6804 11.7521 62.9161 11.5171C62.7982 11.3996 62.7982 11.2821 62.6804 11.1645C61.8557 9.98932 61.0309 8.8141 60.2062 7.75641C59.7349 7.05128 59.2636 6.46368 58.4389 5.99359ZM65.0368 11.2821C65.0368 11.5171 65.0368 11.6346 65.5081 11.8697C65.2725 11.5171 65.1546 11.3996 65.0368 11.2821C64.919 11.1645 64.8012 11.047 64.8012 10.9295C64.0943 9.8718 63.3873 8.93162 62.5626 7.87393C62.4448 7.63889 62.327 7.28632 62.2091 7.05128C62.2091 7.05128 62.2091 6.93376 62.327 6.93376H62.4448C62.5626 6.93376 62.5626 7.05128 62.6804 7.05128C63.623 8.2265 64.5655 9.40171 65.5081 10.6944C65.6259 10.812 65.8616 11.047 65.9794 11.1645C66.0972 10.9295 65.9794 10.812 65.9794 10.812C65.7438 10.4594 65.3903 9.98932 65.0368 9.63675C64.3299 8.57906 63.5052 7.63889 62.9161 6.46368C62.5626 5.75855 62.0913 5.05342 61.3844 4.70085C61.1488 4.58333 61.0309 4.34829 60.7953 4.11325C60.6775 3.99573 60.9131 3.64316 60.5597 3.64316C60.4418 3.87821 60.4418 4.11325 60.5597 4.34829C60.7953 4.58333 60.9131 4.81838 61.1488 5.05342C61.3844 5.28846 61.7379 5.64103 61.9735 5.87607C62.0913 5.99359 62.0913 6.11111 62.2091 6.22863V6.34615C62.2091 6.34615 62.0913 6.46368 62.0913 6.34615C61.9735 6.22863 61.7379 6.22863 61.62 6.11111C61.3844 5.87607 61.1488 5.5235 60.9131 5.28846C60.5597 4.9359 60.5597 4.9359 59.9706 4.70085C60.0884 4.70085 60.0884 4.81838 60.0884 4.9359C60.324 5.40598 60.9131 5.87607 60.9131 6.46368C60.9131 6.5812 61.1488 6.81624 61.2666 6.93376C61.8557 7.05128 61.9735 7.52137 62.327 7.99145C63.0339 8.93162 63.7408 9.98932 64.5655 10.9295C64.5655 11.047 64.8012 11.1645 65.0368 11.2821ZM23.0928 8.34402C21.4433 9.16667 19.9116 10.1068 18.4978 11.1645C17.6731 11.7521 16.7305 12.4573 15.9058 13.1624C15.1988 13.8675 14.4919 14.5726 13.6672 15.1603C13.4315 15.2778 13.3137 15.5128 13.1959 15.6303C12.1355 16.688 11.1929 17.7457 10.1326 18.8034L10.0147 18.9209C8.95435 19.7436 8.24743 20.8013 7.42269 21.7415C7.42269 21.7415 7.42269 21.859 7.42269 21.9765C7.65833 22.4466 8.01179 22.7991 8.36525 23.1517C8.95435 23.8568 9.54345 24.4444 10.2504 25.1496C10.7217 25.6197 11.0751 26.0897 11.5464 26.6774C11.782 26.9124 12.0177 27.265 12.489 27.3825C12.6068 27.265 12.7246 27.265 12.7246 27.1474C13.1959 26.2073 13.9028 25.3846 14.4919 24.4444C15.3166 23.2692 16.2592 22.2115 17.3196 21.2714C18.1443 20.5662 18.9691 19.8611 19.7938 19.0385C19.9116 18.9209 20.0295 18.8034 20.2651 18.6859C21.0898 18.3333 21.5611 17.6282 22.268 17.1581C22.975 16.688 23.6819 16.2179 24.3888 15.7479C25.4492 15.0427 26.5096 14.2201 27.6878 13.6325C27.9234 13.515 28.2769 13.3974 28.5125 13.0449C28.3947 12.8098 28.2769 12.6923 28.0412 12.4573C26.863 11.1645 25.567 9.8718 24.3888 8.57906C24.271 8.46154 24.1532 8.46154 24.0354 8.34402C23.7997 8.34402 23.4463 8.2265 23.0928 8.34402ZM29.4551 25.3846C29.6907 25.3846 29.8085 25.5021 30.0442 25.5021C30.0442 25.5021 30.0442 25.6197 29.9264 25.6197C29.9264 25.6197 29.9264 25.6197 29.9264 25.7372C30.2798 25.7372 30.5155 25.7372 30.8689 25.7372C31.1046 25.7372 31.3402 25.6197 31.6937 25.6197C32.6362 25.6197 33.5788 25.3846 34.4035 25.0321C34.6392 24.9145 34.9926 24.797 35.2283 24.6795C36.053 24.4444 36.8778 24.3269 37.8203 24.6795C38.056 24.797 38.2916 24.797 38.6451 24.797C38.5273 24.6795 38.4094 24.6795 38.2916 24.4444C38.7629 24.562 39.1164 24.562 39.5876 24.6795C39.5876 25.1496 39.8233 25.3846 40.2946 25.3846C40.8837 25.5021 41.4728 25.6197 42.1797 25.8547C43.7113 26.2073 45.1252 26.2073 46.539 25.5021C46.7747 25.3846 46.8925 25.3846 47.1281 25.2671C47.1281 25.2671 47.246 25.2671 47.3638 25.3846C47.3638 25.6197 47.246 25.8547 47.246 26.0897C46.6569 26.3248 46.0678 26.3248 45.5965 26.4423C45.0074 26.5598 44.5361 26.6774 43.947 26.5598C43.3579 26.5598 42.8866 26.4423 42.2975 26.4423C42.2975 26.5598 42.2975 26.6774 42.2975 26.6774C43.2401 27.8526 44.1826 29.1453 45.1252 30.3205C46.8925 32.5534 48.6598 34.7863 50.4271 37.0192C51.3697 38.312 52.43 39.4872 53.6083 40.6624C53.9617 41.015 54.3152 41.3675 54.7865 41.485C55.2577 41.3675 55.4934 41.1325 55.8468 40.7799C56.7894 39.8397 57.6141 38.7821 58.2033 37.6068C58.5567 37.0192 58.7923 36.4316 59.028 35.844C59.6171 34.4338 60.324 33.0235 61.0309 31.6132C61.9735 29.8504 63.0339 28.2051 64.3299 26.7949C64.6834 26.4423 65.1546 25.9722 65.5081 25.6197C65.5081 25.2671 65.2725 24.9145 65.0368 24.6795C63.5052 22.6816 61.9735 20.6838 60.0884 18.9209C59.2636 18.2158 58.5567 17.3932 57.8498 16.688C57.1429 15.9829 56.5538 15.1603 55.8468 14.4551C55.4934 14.1026 55.2577 13.75 54.6686 13.6325C54.0795 14.3376 53.3726 14.6902 52.5479 15.0427C51.8409 15.3953 51.134 15.7479 50.4271 16.1004C50.1915 16.2179 49.9558 16.3355 49.7202 16.453C48.542 16.9231 47.3638 17.1581 46.0678 17.3932C44.7717 17.6282 43.5935 17.7457 42.5331 17.3932C42.2975 17.2756 42.0619 17.2756 41.8262 17.2756C40.0589 17.1581 38.4094 17.6282 36.8778 18.4509C35.2283 19.391 33.5788 20.3312 31.8115 21.2714C31.6937 21.3889 31.458 21.3889 31.2224 21.5064C30.3976 21.859 29.5729 22.2115 28.866 22.6816C28.6303 22.9167 28.3947 22.9167 28.0412 23.1517C27.9234 23.2692 27.6878 23.2692 27.57 23.3868C27.3343 23.5043 27.3343 23.7393 27.3343 23.9744C27.4521 24.6795 28.3947 25.3846 29.2194 25.3846C29.3373 25.5021 29.4551 25.5021 29.4551 25.3846ZM33.2253 19.5085C32.5184 19.2735 31.9293 19.0385 31.3402 18.8034C31.1046 18.6859 30.8689 18.5684 30.6333 18.4509C29.9264 17.8632 29.2194 17.1581 28.5125 16.453C28.0412 15.9829 27.6878 15.6303 27.3343 15.1603C26.9809 14.8077 26.7452 14.8077 26.3918 15.0427C26.0383 15.2778 25.6848 15.5128 25.3314 15.7479C24.6245 16.2179 23.7997 16.5705 23.2106 17.1581C21.5611 18.4509 20.0295 19.7436 18.4978 21.1538C17.3196 22.2115 16.377 23.2692 15.1988 24.3269C14.9632 24.562 14.6097 24.9145 14.4919 25.3846C14.6097 25.5021 14.7275 25.7372 14.8454 25.8547C16.377 27.5 17.9087 29.1453 19.0869 31.1432C19.676 32.2009 20.3829 33.141 20.972 34.1987C21.4433 34.9038 21.7968 35.609 22.268 36.3141C22.3859 36.4316 22.5037 36.5491 22.7393 36.6667C22.975 36.4316 23.0928 36.1966 23.3284 36.0791C23.6819 35.844 23.9175 35.4915 24.3888 35.2564C24.9779 35.0214 25.4492 35.1389 26.0383 35.3739C26.863 35.7265 27.3343 36.3141 27.4521 37.1368C27.4521 37.2543 27.57 37.3718 27.6878 37.6068C27.9234 37.4893 28.0412 37.4893 28.1591 37.3718C28.3947 37.2543 28.7482 37.2543 28.9838 37.3718C29.5729 37.7244 30.2798 38.0769 30.5155 38.7821C30.6333 39.0171 30.7511 39.2521 30.8689 39.4872C30.9868 39.7222 30.9867 40.0748 30.9867 40.3098C31.2224 40.3098 31.5759 40.1923 31.6937 40.1923C32.4006 40.3098 32.9897 40.5449 33.6966 40.7799C34.0501 40.8974 34.2857 41.25 34.2857 41.6026C34.4035 42.1902 34.4035 42.6603 34.2857 43.3654C34.6392 43.3654 34.757 43.2479 34.9926 43.2479C35.2283 43.2479 35.4639 43.2479 35.6996 43.2479C36.4065 43.2479 36.6421 43.4829 36.8778 44.0705C37.1134 44.6581 37.2312 45.3633 37.2312 46.0684C37.2312 47.2436 36.9956 48.4188 36.6421 49.4765C36.4065 50.0641 36.2887 50.6517 36.053 51.2393C35.9352 51.5919 36.053 51.9444 36.2887 52.1795C36.6421 52.4145 36.9956 52.7671 37.349 53.0021C37.8203 53.3547 38.2916 53.4722 38.7629 53.5897C39.7055 53.8248 40.648 53.5897 41.7084 53.5897C42.0619 53.5897 42.4153 53.3547 42.651 53.0021C42.5331 52.8846 42.5331 52.7671 42.4153 52.6496C41.4728 51.7094 40.7658 50.6517 39.7055 49.9466C39.1164 49.594 38.7629 49.0064 38.5273 48.4188C38.4094 48.1838 38.5273 48.0662 38.7629 48.0662H38.8807C39.5876 48.8889 40.1767 49.8291 41.1193 50.5342C41.7084 51.1218 42.2975 51.7094 42.8866 52.297C43.3579 52.8846 44.0648 53.0021 44.6539 52.8846C45.7143 52.6496 46.6569 52.297 47.5994 51.5919C47.8351 51.4744 47.9529 51.2393 48.0707 51.0043C48.1885 50.7692 48.1885 50.4167 47.9529 50.1816C47.1281 49.4765 46.4212 48.6538 45.5965 47.9487C44.6539 47.1261 43.7113 46.3034 42.8866 45.3632C42.7688 45.2457 42.651 45.0107 42.651 44.8932C42.651 44.7756 42.651 44.5406 43.0044 44.5406C43.2401 44.7756 43.5935 45.0107 43.8292 45.3632C44.1826 45.8333 44.6539 46.1859 45.1252 46.656C46.1856 47.5962 47.1281 48.5363 48.0707 49.4765C48.3063 49.7115 48.542 49.8291 48.7776 50.0641C49.2489 50.4167 49.838 50.4167 50.4271 50.0641C51.2518 49.594 52.0766 49.0064 52.6657 48.3013C52.7835 48.1838 52.7835 47.9487 52.9013 47.8312C52.3122 47.4786 51.6053 47.2436 51.134 46.7735C49.6024 45.3632 48.0707 43.953 46.6569 42.4252C46.539 42.3077 46.4212 42.1902 46.3034 41.9551C46.4212 41.8376 46.539 41.8376 46.6569 41.8376C46.7747 41.8376 46.7747 41.9551 46.8925 41.9551C47.9529 42.8953 48.8954 43.8355 49.9558 44.7756C50.0736 44.8932 50.1915 45.0107 50.3093 45.1282C51.0162 45.8333 51.7231 46.4209 52.6657 46.7735C53.137 47.0085 53.6083 46.891 53.9617 46.656C54.3152 46.4209 54.7865 46.1859 55.0221 45.8333C55.729 44.7756 56.3181 43.6004 56.2003 42.1902C56.2003 41.8376 56.0825 41.3675 55.8468 41.015C55.4934 41.1325 55.1399 41.485 54.9043 41.7201C54.5508 41.9551 54.433 41.9551 54.0795 41.7201C53.3726 41.1325 52.7835 40.5449 52.1944 39.8397C51.134 38.6645 50.1915 37.4893 49.2489 36.1966C48.6598 35.4915 48.3063 34.5513 47.5994 34.0812C46.7747 33.0235 46.0678 32.0833 45.243 31.0256C44.0648 29.4979 42.7688 28.0876 41.7084 26.4423C41.5906 26.2073 41.3549 26.0897 41.2371 25.9722C41.1193 25.8547 41.0015 25.7372 40.7658 25.7372C40.2946 25.6197 39.9411 25.5021 39.4698 25.3846C38.2916 25.0321 36.9956 24.797 35.6996 25.0321C34.757 25.2671 33.6966 25.5021 32.8719 25.8547C32.4006 25.9722 31.9293 26.2073 31.3402 26.2073C30.7511 26.2073 30.162 26.2073 29.6907 26.2073C29.4551 26.2073 29.2194 26.0897 28.9838 25.9722C28.1591 25.5021 27.4521 24.9145 26.9809 23.9744C26.6274 23.2692 26.863 22.7991 27.57 22.4466C27.9234 22.2115 28.2769 22.094 28.6303 21.859C29.6907 21.2714 30.6333 20.6838 31.8115 20.2137C32.2828 20.4487 32.7541 20.0962 33.2253 19.5085ZM67.2754 28.3227C67.511 28.4402 67.7467 28.2051 67.8645 28.0876C68.4536 27.6175 69.0427 27.0299 69.6318 26.4423C70.1031 25.9722 70.5744 25.5021 71.0457 25.0321C71.1635 24.9145 71.2813 24.797 71.3991 24.562C71.2813 24.3269 71.2813 24.2094 71.1635 24.0919C69.6318 21.7415 67.8645 19.5085 65.7437 17.6282C64.6834 16.688 63.623 15.5128 62.5626 14.4551L62.4448 14.3376C61.3844 13.1624 60.4418 12.1047 59.3815 10.9295C59.028 10.5769 58.6745 10.2244 58.2033 9.75427C57.732 9.28419 57.3785 8.93162 56.9072 8.46154C56.9072 8.34402 56.6716 8.2265 56.5538 8.10897C55.3756 8.69658 54.433 9.51923 53.3726 10.2244C53.137 10.4594 52.9013 10.6944 52.6657 10.9295C52.5479 11.047 52.5479 11.2821 52.43 11.3996C52.9013 11.6346 53.2548 11.7521 53.6083 11.9872C54.1974 12.4573 54.6686 12.9274 55.2577 13.515C56.0825 14.4551 56.9072 15.3953 57.732 16.3355C58.0854 16.8056 58.5567 17.2756 59.028 17.6282C59.4993 18.0983 60.0884 18.5684 60.5597 19.0385C61.3844 19.8611 62.0913 20.5662 62.7982 21.3889C63.3873 22.094 63.9764 22.7991 64.5655 23.6218C65.6259 25.0321 66.6863 26.4423 67.1576 28.2051C67.2754 28.2051 67.2754 28.2051 67.2754 28.3227ZM33.9323 43.1303C33.9323 43.0128 33.9323 42.6603 33.9323 42.4252C33.9323 41.9551 33.6966 41.6026 33.2253 41.485C32.8719 41.3675 32.5184 41.25 32.0471 41.1325C31.6937 41.015 31.3402 41.015 31.1046 41.3675C30.6333 41.8376 30.2798 42.3077 29.9264 42.8953C29.3373 43.8355 28.866 44.8932 28.3947 45.8333C28.1591 46.4209 27.9234 47.0085 27.6878 47.5962C27.57 47.9487 27.57 48.4188 27.57 48.7714C27.57 49.2415 27.8056 49.594 28.2769 49.8291C28.7482 50.0641 29.2194 50.1816 29.6907 50.1816C30.2798 50.1816 30.7511 49.9466 31.1046 49.4765C31.3402 49.0064 31.6937 48.5363 31.9293 48.0662C32.4006 47.1261 32.8719 46.0684 33.3432 45.1282C33.5788 44.5406 33.8144 43.8355 33.9323 43.1303ZM30.162 40.7799C30.0442 40.3098 30.0442 39.8397 29.9264 39.3697C29.8085 38.7821 29.4551 38.4295 28.866 38.312C28.5125 38.1944 28.1591 38.1944 27.9234 38.4295C27.6878 38.6645 27.4521 38.8996 27.2165 39.0171C26.7452 39.3697 26.1561 39.7222 25.9205 40.3098C25.9205 40.4273 25.6848 40.5449 25.6848 40.6624C25.4492 40.8974 25.3314 41.1325 25.0957 41.3675C24.6245 42.1902 24.1532 43.0128 23.7997 43.953C23.3284 45.2457 23.4463 45.7158 24.3888 46.7735C24.3888 46.7735 24.3888 46.7735 24.5066 46.891C24.9779 47.2436 25.3314 47.5962 25.9205 47.7137C26.2739 47.8312 26.5096 47.7137 26.6274 47.3611C26.7452 47.0085 26.9809 46.7735 27.0987 46.4209C27.3343 45.7158 27.6878 45.0107 28.0412 44.4231C28.6303 43.6004 29.1016 42.6603 29.6907 41.8376C30.0442 41.485 30.162 41.1325 30.162 40.7799ZM36.6421 47.1261C36.7599 45.5983 36.7599 45.4808 36.5243 44.7756C36.2887 44.3056 35.9352 44.0705 35.4639 44.0705C35.1105 44.0705 34.757 44.188 34.5214 44.4231C33.461 45.8333 32.6362 47.4786 32.0471 49.1239C31.8115 49.8291 31.6937 50.4167 32.0471 51.1218C32.165 51.3568 32.0471 51.5919 32.2828 51.8269C32.7541 52.297 33.2253 52.7671 33.9323 52.7671C34.6392 52.7671 35.1105 52.5321 35.3461 51.9444C35.5817 51.4744 35.6996 51.1218 35.8174 50.6517C35.9352 50.1816 36.053 49.8291 36.1708 49.359C36.2887 48.5363 36.5243 47.5962 36.6421 47.1261ZM20.972 41.3675C20.972 41.7201 20.972 41.9551 20.972 42.0727C20.972 42.7778 21.2077 43.2479 21.7968 43.7179C22.1502 43.953 22.5037 44.0705 22.975 43.953C23.3284 43.8355 23.3284 43.6004 23.4462 43.2479C23.6819 42.6603 23.9175 41.9551 24.3888 41.3675C25.0957 40.4274 25.6848 39.3697 26.7452 38.6645C26.9809 38.547 27.0987 38.312 27.0987 37.9594C27.2165 36.6667 26.1561 35.9615 25.2136 35.844C24.9779 35.844 24.6245 35.9615 24.5066 36.0791C24.1532 36.3141 23.9175 36.5491 23.6819 36.7842C22.7393 37.9594 21.9146 39.2521 21.3255 40.5449C20.972 40.8974 20.972 41.25 20.972 41.3675ZM67.1576 10.9295C67.1576 10.3419 66.8041 9.98932 66.4507 9.63675C65.3903 8.2265 64.3299 6.93376 63.623 5.28846C63.1517 5.17094 62.7982 4.70085 62.4448 4.34829C62.0913 3.99573 61.8557 3.64316 61.5022 3.40812C61.3844 3.2906 61.2666 3.17308 61.1488 3.40812C61.62 3.99573 61.9735 4.70085 62.6804 5.05342C63.0339 5.28846 63.2695 5.5235 63.3873 5.87607C63.3873 6.11111 63.623 6.46368 63.8586 6.69872C64.8012 7.99145 65.8616 9.40171 66.922 10.6944C66.922 10.812 67.0398 10.812 67.1576 10.9295ZM61.0309 7.75641C62.2091 9.51923 63.5052 10.9295 64.8012 12.3397C64.8012 12.3397 64.919 12.3397 65.0368 12.3397C64.919 12.1047 64.8012 11.9872 64.6834 11.8697C63.7408 10.5769 62.7982 9.40171 61.8557 8.10897C61.7379 7.99145 61.7379 7.87393 61.62 7.87393C61.5022 7.75641 61.2666 7.75641 61.0309 7.75641ZM69.6318 8.69658C69.8675 9.28419 69.9853 9.8718 70.3387 10.3419C71.1635 11.5171 71.9882 12.5748 72.813 13.6325H72.9308C72.9308 13.6325 72.9308 13.6325 72.9308 13.515C72.9308 13.3974 72.9308 13.3974 72.9308 13.2799C71.8704 11.8697 70.9278 10.3419 69.9853 8.8141C69.9853 8.69658 69.8675 8.69658 69.7496 8.57906C69.8675 8.69658 69.7496 8.69658 69.6318 8.69658ZM25.8027 9.40171C26.2739 8.93162 26.5096 8.46154 26.2739 7.87393C25.3314 7.87393 25.3314 7.87393 24.6245 8.10897C24.8601 8.69658 25.3314 9.04915 25.8027 9.40171ZM65.2725 13.3974C66.0972 14.8077 67.1576 15.9829 68.1002 17.1581C68.218 16.9231 68.1002 16.8056 68.1002 16.8056C67.2754 15.6303 66.4507 14.5726 65.6259 13.515C65.7438 13.3974 65.6259 13.3974 65.2725 13.3974ZM70.81 26.3248C70.81 26.4423 70.81 26.5598 70.9278 26.6774C71.2813 27.0299 71.9882 26.9124 72.3417 26.5598C72.6952 26.2073 72.3417 25.9722 72.2239 25.7372C72.2239 25.6197 72.106 25.6197 71.9882 25.5021C71.8704 25.6197 71.6348 25.6197 71.5169 25.7372C71.2813 25.9722 71.0457 26.0897 70.81 26.3248ZM68.8071 9.40171C68.8071 9.28419 68.8071 9.28419 68.8071 9.16667C67.9823 7.99145 67.0398 6.93376 65.9794 5.99359H65.8616C65.8616 5.99359 65.8616 5.99359 65.7437 6.11111C66.6863 7.1688 67.5111 8.2265 68.3358 9.28419C68.4536 9.40171 68.5714 9.40171 68.6893 9.51923L68.8071 9.40171ZM54.433 7.28632C54.433 7.75641 54.433 8.10897 54.7865 8.34402C55.2577 8.10897 55.729 7.99145 55.9647 7.40385C55.6112 6.81624 55.0221 6.93376 54.433 7.28632ZM72.2239 21.859C72.106 21.1538 71.6348 20.3312 70.5744 18.9209C70.4566 18.8034 70.4566 18.6859 70.2209 18.8034C70.5744 19.6261 71.5169 21.1538 72.2239 21.859ZM72.2239 17.6282C72.5773 18.8034 73.1664 19.7436 73.8734 20.5662C73.9912 20.6838 73.9912 20.8013 74.2268 20.5662C73.6377 19.6261 72.9308 18.5684 72.2239 17.6282ZM75.1694 21.2714C75.5228 21.1538 75.405 20.9188 75.2872 20.8013C74.9337 20.2137 74.4625 19.6261 74.109 19.0385C73.9912 18.9209 73.9912 18.8034 73.7555 18.9209C74.2268 19.7436 74.6981 20.5662 75.1694 21.2714ZM7.06923 22.9167C6.71576 22.9167 6.71576 23.1517 6.59794 23.3868C6.48012 23.8568 6.83358 24.2094 7.30487 24.0919C7.54051 24.0919 7.65833 23.8568 7.54051 23.6218C7.42269 23.3868 7.30487 23.0342 7.06923 22.9167ZM71.5169 17.9808C72.2239 19.5085 72.813 20.3312 73.4021 20.8013C73.0486 19.8611 72.2239 18.6859 71.5169 17.9808ZM73.5199 22.4466L73.6377 22.3291C73.2842 21.5064 72.6951 20.8013 72.106 20.0962C72.106 20.0962 71.9882 19.9786 71.7526 19.8611C72.4595 20.8013 72.9308 21.6239 73.5199 22.4466ZM63.0339 3.99573C62.6804 3.2906 62.4448 3.05556 61.8557 2.82051C62.0913 3.40812 62.327 3.64316 63.0339 3.99573ZM75.6406 20.3312C75.5228 19.391 75.0516 18.5684 74.4625 18.0983C74.9337 18.8034 75.2872 19.6261 75.6406 20.3312ZM17.7909 9.04915C17.7909 9.04915 17.7909 8.93162 17.7909 9.04915C17.6731 8.93162 17.6731 8.93162 17.6731 9.04915C17.3196 9.51923 16.8483 9.98932 16.4949 10.4594C16.4949 10.4594 16.4949 10.5769 16.4949 10.6944C16.9661 10.4594 16.9661 10.3419 17.7909 9.04915ZM73.5199 17.3932C73.1664 16.3355 72.813 15.7479 72.4595 15.3953C72.4595 15.5128 72.4595 15.6303 72.4595 15.6303C72.813 16.1004 72.9308 16.8056 73.5199 17.3932ZM65.2725 14.5726C65.7438 15.6303 66.0972 15.9829 66.6863 16.2179C66.3328 15.7479 65.9794 15.2778 65.7437 14.9252C65.6259 14.8077 65.5081 14.8077 65.2725 14.5726ZM76.1119 20.8013C76.2298 21.1538 76.2298 21.3889 76.3476 21.6239C76.3476 21.859 76.3476 22.094 76.5832 22.3291C76.8189 21.7415 76.8189 21.7415 76.701 21.5064C76.701 21.3889 76.5832 21.1538 76.4654 21.0363C76.4654 21.0363 76.3476 20.9188 76.1119 20.8013ZM68.5714 11.3996C67.9823 10.4594 67.6289 10.1068 67.1576 9.87179C67.7467 10.9295 67.7467 10.9295 68.5714 11.3996ZM15.3166 5.75855C16.377 4.9359 16.377 4.9359 16.4949 4.34829C16.0236 4.58333 15.9058 4.70085 15.3166 5.75855ZM59.028 5.05342L58.9102 5.17094C58.9102 5.28846 58.9102 5.5235 59.028 5.64103C59.3814 6.22863 59.6171 6.34615 59.9706 6.5812C59.8527 6.22863 59.6171 6.11111 59.3815 5.87607C59.3815 5.64103 59.2636 5.40598 59.028 5.05342ZM71.2813 8.57906C71.6348 9.40171 72.106 9.98932 72.6951 10.3419C72.2239 9.75427 71.9882 9.16667 71.5169 8.69658C71.5169 8.69658 71.3991 8.69658 71.2813 8.57906ZM22.3859 6.5812L22.5037 6.46368C22.3859 6.22863 22.268 6.11111 22.0324 5.87607H21.7968C21.7968 5.99359 21.7968 6.11111 21.7968 6.11111C22.0324 6.34615 22.268 6.46368 22.3859 6.5812ZM59.1458 2.93803C58.7924 3.05556 58.4389 3.17308 58.2033 3.76068C58.6745 3.52564 58.9102 3.17308 59.1458 2.93803ZM77.9971 20.2137C77.8792 20.8013 77.8792 20.8013 78.2327 21.1538C78.2327 20.6838 78.1149 20.4487 77.9971 20.2137ZM21.0898 5.5235C21.3255 5.5235 21.4433 5.40598 21.3255 5.28846C21.2077 5.17094 21.0898 5.05342 20.972 4.9359C20.972 4.9359 20.8542 4.9359 20.6186 5.05342C20.8542 5.17094 20.972 5.40598 21.0898 5.5235ZM58.4389 8.46154C58.6745 9.04915 58.6745 9.04915 59.1458 9.28419C58.9102 8.93162 58.6745 8.69658 58.4389 8.46154ZM18.4978 9.28419C18.9691 9.28419 19.0869 9.16667 19.2047 8.93162V8.8141H19.0869C18.8513 8.93162 18.7334 9.04915 18.4978 9.28419ZM4.0059 16.688C3.88808 16.8056 3.77026 17.0406 3.77026 17.1581C3.77026 17.2756 3.65244 17.3932 3.65244 17.7457C3.88808 17.3932 4.12372 17.1581 4.0059 16.688ZM74.3446 14.2201C74.4624 14.6902 74.4625 14.6902 75.0516 15.2778C74.6981 14.8077 74.5803 14.5726 74.3446 14.2201ZM66.8041 8.2265C66.922 8.8141 66.922 8.8141 67.5111 9.04915C67.1576 8.69658 66.922 8.46154 66.8041 8.2265ZM17.2018 6.5812C17.3196 6.46368 17.4374 6.34615 17.5552 6.11111C17.5552 6.11111 17.5552 5.99359 17.5552 5.87607C17.4374 5.87607 17.3196 5.87607 17.3196 5.87607C17.2018 6.11111 17.084 6.34615 17.2018 6.5812ZM68.1002 4.70085C67.8645 4.23077 67.8645 4.23077 67.5111 4.11325C67.6289 4.34829 67.8645 4.46581 68.1002 4.70085ZM71.6348 10.1068C71.6348 10.1068 71.5169 10.1068 71.5169 10.2244C71.6348 10.3419 71.6348 10.4594 71.7526 10.5769C71.8704 10.6944 71.8704 10.812 72.106 10.6944C71.8704 10.4594 71.7526 10.3419 71.6348 10.1068ZM65.8616 27.9701C66.0972 27.8526 66.215 27.6175 66.215 27.5C66.215 27.5 66.215 27.5 66.0972 27.5C65.9794 27.5 65.7438 27.6175 65.8616 27.9701C65.7438 27.9701 65.8616 27.9701 65.8616 27.9701ZM73.7555 10.1068L73.6377 10.2244C73.7555 10.3419 73.8734 10.4594 73.9912 10.5769C73.9912 10.5769 74.109 10.5769 74.109 10.4594C73.9912 10.4594 73.8734 10.2244 73.7555 10.1068ZM77.408 21.5064C77.408 21.2714 77.5258 21.1538 77.5258 21.0363C77.5258 20.9188 77.408 20.9188 77.408 20.9188C77.408 21.0363 77.2901 21.0363 77.2901 21.1538C77.1723 21.2714 77.2901 21.2714 77.408 21.5064ZM20.0295 3.99573L19.9116 4.11325C20.0295 4.23077 20.0295 4.34829 20.1473 4.34829H20.2651C20.2651 4.34829 20.3829 4.23077 20.2651 4.23077C20.2651 4.11325 20.1473 4.11325 20.0295 3.99573ZM65.7437 6.93376C65.7437 7.40385 65.8616 7.52137 66.215 7.52137C66.0972 7.40385 65.9794 7.28632 65.7437 6.93376ZM21.7968 3.17308C21.9146 3.2906 22.0324 3.40812 22.1502 3.64316C22.268 3.2906 22.0324 3.17308 21.7968 3.17308ZM70.1031 6.46368C70.1031 6.81624 70.2209 6.93376 70.6922 7.05128C70.3387 6.69872 70.2209 6.5812 70.1031 6.46368ZM65.2725 9.16667C65.2725 9.04915 65.1546 9.04915 65.1546 8.93162C65.1546 8.93162 65.0368 8.93162 65.0368 9.04915C65.0368 9.04915 65.1546 9.16667 65.2725 9.16667C65.1546 9.16667 65.2725 9.16667 65.2725 9.16667ZM57.8498 5.28846L57.732 5.17094C57.6141 5.28846 57.4963 5.40598 57.3785 5.40598C57.3785 5.40598 57.3785 5.5235 57.4963 5.5235C57.6141 5.40598 57.732 5.40598 57.8498 5.28846ZM72.813 11.8697C72.813 11.8697 72.6951 11.8697 72.6951 11.9872C72.813 12.1047 72.813 12.2222 72.9308 12.3397C72.9308 12.3397 73.0486 12.3397 73.0486 12.2222C72.9308 12.1047 72.9308 11.9872 72.813 11.8697ZM73.7555 25.3846C73.7555 25.2671 73.6377 25.2671 73.6377 25.1496L73.5199 25.2671C73.5199 25.3846 73.6377 25.3846 73.6377 25.5021L73.7555 25.3846ZM6.71576 9.75427C6.95141 9.75427 6.95141 9.63675 7.06923 9.51923C7.06923 9.51923 7.06923 9.40171 6.95141 9.40171C6.83358 9.51923 6.71576 9.63675 6.71576 9.75427ZM75.7585 15.7479C75.7585 15.5128 75.7585 15.3953 75.5228 15.3953C75.6406 15.5128 75.6407 15.6303 75.7585 15.7479ZM73.0486 11.047L72.9308 11.1645C73.0486 11.2821 73.0486 11.3996 73.1664 11.5171C73.1664 11.5171 73.2842 11.5171 73.2842 11.3996C73.2842 11.2821 73.1664 11.1645 73.0486 11.047ZM65.7437 16.688C65.7437 16.8056 65.7437 16.8056 65.7437 16.688C65.8616 16.8056 65.8616 16.688 65.7437 16.688ZM19.5582 2.82051C19.5582 2.70299 19.5582 2.70299 19.5582 2.82051C19.5582 2.70299 19.4404 2.70299 19.4404 2.70299V2.82051C19.4404 2.82051 19.4404 2.82051 19.5582 2.82051ZM8.01179 10.9295C8.01179 10.9295 7.89397 10.9295 7.89397 11.047V11.1645C8.01179 11.047 8.01179 11.047 8.01179 10.9295C8.12961 10.9295 8.01179 10.9295 8.01179 10.9295ZM65.8616 26.9124C65.8616 26.7949 65.8616 26.7949 65.8616 26.9124C65.8616 26.7949 65.7437 26.7949 65.7437 26.7949V26.9124C65.7437 26.9124 65.7438 26.9124 65.8616 26.9124ZM69.1605 12.4573L69.0427 12.3397C69.0427 12.3397 69.0427 12.3397 68.9249 12.3397C69.0427 12.3397 69.0427 12.4573 69.1605 12.4573ZM17.9087 5.40598C17.9087 5.40598 17.7909 5.40598 17.9087 5.40598C17.9087 5.5235 17.9087 5.5235 17.9087 5.5235C17.9087 5.5235 17.9087 5.5235 18.0265 5.5235C17.9087 5.5235 17.9087 5.5235 17.9087 5.40598ZM20.5007 5.99359C20.5007 5.99359 20.3829 5.99359 20.3829 6.11111V6.22863C20.3829 6.22863 20.5007 6.22863 20.5007 6.11111C20.6186 6.11111 20.6186 5.99359 20.5007 5.99359ZM19.3225 9.75427C19.2047 9.75427 19.2047 9.87179 19.2047 9.87179C19.2047 9.87179 19.3225 9.8718 19.3225 9.75427C19.3225 9.8718 19.3225 9.75427 19.3225 9.75427ZM7.65833 8.93162V8.8141H7.54051C7.54051 8.8141 7.54051 8.8141 7.65833 8.93162C7.54051 8.93162 7.65833 8.93162 7.65833 8.93162ZM73.9912 12.4573C73.9912 12.4573 73.8734 12.4573 73.8734 12.3397V12.4573H73.9912ZM66.215 8.46154C66.0972 8.46154 66.0972 8.46154 66.215 8.46154C66.0972 8.46154 66.0972 8.46154 66.0972 8.46154C66.0972 8.46154 66.0972 8.57906 66.215 8.46154C66.0972 8.57906 66.0972 8.46154 66.215 8.46154ZM62.9161 13.2799V13.1624C62.9161 13.1624 62.9161 13.1624 62.7982 13.1624C62.9161 13.2799 62.9161 13.2799 62.9161 13.2799C62.9161 13.3974 62.9161 13.2799 62.9161 13.2799ZM75.405 23.2692C75.2872 23.2692 75.405 23.3868 75.405 23.2692C75.405 23.3868 75.405 23.2692 75.405 23.2692ZM66.6863 11.1645L66.5685 11.047C66.5685 11.047 66.5685 11.047 66.4507 11.047C66.5685 11.1645 66.5685 11.1645 66.6863 11.1645ZM71.0457 9.40171V9.28419C71.0457 9.28419 71.0457 9.28419 70.9278 9.28419V9.40171H71.0457ZM65.1546 1.88034C65.0368 1.88034 65.0368 1.88034 65.1546 1.88034C65.0368 1.88034 65.0368 1.88034 65.1546 1.88034ZM60.2062 3.2906C60.2062 3.2906 60.324 3.17308 60.2062 3.2906C60.324 3.17308 60.2062 3.17308 60.2062 3.2906C60.2062 3.17308 60.2062 3.17308 60.2062 3.2906ZM22.1502 7.63889C22.1502 7.63889 22.1502 7.52137 22.1502 7.63889C22.1502 7.52137 22.0324 7.52137 22.1502 7.63889C22.0324 7.52137 22.0324 7.63889 22.1502 7.63889ZM2.59205 18.5684C2.59205 18.4509 2.59205 18.4509 2.59205 18.5684C2.59205 18.4509 2.47423 18.4509 2.59205 18.5684C2.47423 18.5684 2.59205 18.5684 2.59205 18.5684ZM20.8542 2.70299C20.8542 2.70299 20.8542 2.82051 20.8542 2.70299C20.8542 2.82051 20.972 2.82051 20.8542 2.70299C20.972 2.70299 20.972 2.70299 20.8542 2.70299C20.972 2.70299 20.8542 2.70299 20.8542 2.70299ZM19.2047 5.64103C19.2047 5.64103 19.3225 5.5235 19.2047 5.64103C19.2047 5.5235 19.2047 5.5235 19.2047 5.64103C19.2047 5.5235 19.2047 5.5235 19.2047 5.64103ZM19.676 4.58333V4.70085C19.676 4.70085 19.676 4.70085 19.676 4.58333C19.7938 4.70085 19.676 4.58333 19.676 4.58333ZM9.89691 7.28632C9.89691 7.40385 9.89691 7.40385 9.89691 7.40385C10.0147 7.28632 10.0147 7.28632 9.89691 7.28632C10.0147 7.28632 9.89691 7.28632 9.89691 7.28632ZM57.6141 7.52137C57.6141 7.52137 57.6141 7.63889 57.6141 7.52137C57.732 7.63889 57.732 7.63889 57.6141 7.52137C57.732 7.63889 57.732 7.52137 57.6141 7.52137C57.732 7.52137 57.6141 7.52137 57.6141 7.52137ZM53.3726 12.4573C53.3726 12.4573 53.3726 12.5748 53.3726 12.4573C53.3726 12.5748 53.3726 12.5748 53.3726 12.4573ZM19.3225 5.05342C19.3225 5.17094 19.4404 5.17094 19.4404 5.05342C19.4404 5.05342 19.4404 5.05342 19.3225 5.05342C19.4404 5.05342 19.3225 5.05342 19.3225 5.05342Z" fill="#333333"/>
<path d="M12.9602 21.9764C12.8424 22.564 12.6068 23.1517 12.0177 23.3867C11.4286 23.6217 10.6038 23.3867 10.1325 22.9166C9.42562 22.094 9.3078 21.2713 9.8969 20.4487C10.1325 20.0961 10.486 19.8611 10.9573 19.7435C11.1929 19.7435 11.3107 19.7435 11.5464 19.7435C12.2533 20.0961 13.0781 21.2713 12.9602 21.9764ZM10.6038 22.6816C10.9573 22.6816 11.0751 22.7991 11.1929 22.7991C11.8998 22.6816 12.2533 21.8589 12.0177 21.2713C11.8998 21.0363 11.782 20.9187 11.5464 20.8012C11.4286 20.6837 11.3107 20.6837 11.1929 20.6837C10.9573 20.8012 10.7216 20.9187 10.6038 21.0363C10.6038 21.1538 10.3682 21.3888 10.6038 21.6239C10.9573 21.6239 10.9573 21.2713 11.1929 21.1538C11.3107 21.0363 11.5464 21.0363 11.782 21.1538C12.0177 21.3888 12.0177 21.6239 11.782 21.7414C11.3107 21.9764 11.0751 22.329 10.6038 22.6816Z" fill="#333333"/>
<path d="M66.5685 23.6218C66.6863 22.9167 66.9219 22.5641 67.511 22.3291C67.9823 22.094 68.4536 22.2115 68.9249 22.5641C69.6318 23.1517 69.8674 23.7393 69.6318 24.4445C69.3962 25.0321 68.9249 25.3846 68.218 25.3846C67.511 25.3846 67.0398 25.1496 66.8041 24.562C66.5685 24.0919 66.5685 23.8568 66.5685 23.6218ZM67.6289 23.2692C67.2754 23.6218 67.2754 24.0919 67.511 24.4445C67.6289 24.6795 67.9823 24.797 68.218 24.6795C67.9823 24.2094 67.8645 23.8568 67.6289 23.2692ZM67.8645 22.9167C67.9823 23.0342 68.1001 23.2692 68.218 23.3868C68.3358 23.5043 68.3358 23.7393 68.4536 23.8568C68.5714 23.7393 68.6892 23.7393 68.8071 23.7393L68.9249 23.6218C68.9249 23.5043 68.9249 23.3868 68.8071 23.2692C68.5714 22.9167 68.3358 22.7992 67.8645 22.9167Z" fill="#333333"/>
<path d="M30.162 43.7179C30.8689 44.0705 31.458 44.6581 32.2828 44.423C32.7541 43.9529 32.8719 43.3653 32.9897 42.6602C32.9897 42.4252 32.9897 42.4252 33.461 42.4252C33.461 42.5427 33.461 42.6602 33.461 42.7777C33.3432 43.4829 32.9897 44.0705 32.6362 44.6581C32.2828 45.1282 31.6937 45.2457 31.1046 45.1282C30.5155 45.0106 30.162 44.6581 30.162 43.7179Z" fill="#333333"/>
<path d="M29.4551 40.0748C29.3373 40.4273 29.2195 40.7799 28.9838 41.0149C28.6304 41.485 28.2769 41.8376 27.8056 42.1901C27.57 42.3077 27.3343 42.3077 26.9809 42.3077C26.6274 42.1901 26.3918 42.0726 26.1561 41.7201C26.1561 41.6025 26.1561 41.485 26.1561 41.3675C26.2739 41.25 26.3918 41.25 26.5096 41.25C26.6274 41.25 26.7452 41.3675 26.863 41.485C27.3343 41.8376 27.57 41.7201 27.9234 41.3675C28.1591 41.1325 28.3947 40.7799 28.5125 40.5448C28.6304 40.4273 28.6304 40.1923 28.7482 39.9572C28.7482 39.8397 28.9838 39.8397 29.1016 39.8397C29.2195 39.8397 29.3373 39.9572 29.4551 40.0748Z" fill="#333333"/>
<path d="M35.4639 47.2436C34.9926 47.3612 34.5214 47.3612 34.1679 47.1261C34.0501 47.0086 33.9323 46.8911 33.9323 46.7736C33.9323 46.656 33.9323 46.5385 34.0501 46.3035C34.4035 46.421 34.6392 46.656 34.8748 46.656C35.1105 46.7736 35.4639 46.656 35.5817 46.421C35.6996 46.0684 35.9352 45.5983 36.053 45.2458C36.2887 45.1283 36.4065 45.3633 36.4065 45.4808C36.2887 45.8334 36.2887 46.1859 36.053 46.5385C35.9352 46.7736 35.6996 47.0086 35.4639 47.2436Z" fill="#333333"/>
<path d="M25.6848 37.0193C25.8027 37.9595 25.4492 38.4295 24.9779 38.7821C24.7423 39.0172 24.3888 39.2522 24.0353 39.4872C23.6819 39.7223 23.2106 39.6048 22.975 39.2522C22.7393 39.1347 22.7393 38.8996 22.8571 38.7821C22.975 38.5471 23.0928 38.4295 23.3284 38.5471C23.4462 38.5471 23.6819 38.6646 23.7997 38.6646C24.271 38.7821 24.5066 38.7821 24.7423 38.312C24.9779 38.077 25.0957 37.7244 25.2136 37.4894C25.3314 37.3719 25.4492 37.2543 25.6848 37.0193Z" fill="#333333"/>
</g>
<defs>
<clipPath id="clip0_36_3018">
<rect width="80" height="55" fill="white"/>
</clipPath>
</defs>
</svg>
