<svg id="Layer_1" data-name="Layer 1" xmlns="http://www.w3.org/2000/svg" xmlns:xlink="http://www.w3.org/1999/xlink" viewBox="0 0 152 145.5"><defs><style>.cls-1,.cls-4{fill:none;}.cls-2{fill:#fff;}.cls-3{clip-path:url(#clip-path);}.cls-4{stroke:#5f6368;stroke-miterlimit:10;stroke-width:0.79px;}.cls-5,.cls-6{fill:#0b0b0a;}.cls-5{fill-rule:evenodd;}</style><clipPath id="clip-path"><rect class="cls-1" x="4.36" y="4.36" width="143.28" height="136.82"/></clipPath></defs><path class="cls-2" d="M144.08,140.78H7.92a3.16,3.16,0,0,1-3.16-3.16V7.92A3.16,3.16,0,0,1,7.92,4.76H144.09a3.16,3.16,0,0,1,3.16,3.16V137.63a3.17,3.17,0,0,1-3.17,3.15Z"/><g class="cls-3"><path class="cls-4" d="M144.08,140.78H7.92a3.16,3.16,0,0,1-3.16-3.16V7.92A3.16,3.16,0,0,1,7.92,4.76H144.09a3.16,3.16,0,0,1,3.16,3.16V137.63a3.17,3.17,0,0,1-3.17,3.15Z"/></g><g id="Page-1"><g id="Social-Icons---Isolated"><path id="Apple" class="cls-5" d="M85.52,29.07A15.06,15.06,0,0,0,88.83,18a16.1,16.1,0,0,0-10.4,5.64C76.16,26.34,74.3,30.45,75,34.43c4,.12,8.11-2.27,10.5-5.36Zm19.72,39.12a48.62,48.62,0,0,1-4.42,8.3c-2.87,4.4-6.91,9.88-11.93,9.92-4.46,0-5.61-2.92-11.65-2.88s-7.31,2.94-11.77,2.89c-5,0-8.85-5-11.72-9.39-8-12.29-8.87-26.72-3.92-34.4C53.35,37.18,58.9,34,64.12,34s8.66,2.93,13,2.93S84,34,90.18,34c4.65,0,9.58,2.55,13.08,7-11.49,6.33-9.63,22.84,2,27.26Z"/></g></g><path class="cls-6" d="M26.38,102.28l1.83-.16a3.91,3.91,0,0,0,.6,1.8,3.34,3.34,0,0,0,1.47,1.14,5.61,5.61,0,0,0,2.25.43,5.31,5.31,0,0,0,1.95-.33,2.75,2.75,0,0,0,1.27-.9,2.12,2.12,0,0,0,.41-1.25,1.92,1.92,0,0,0-.4-1.21,2.88,2.88,0,0,0-1.32-.86,26.08,26.08,0,0,0-2.6-.71A13.61,13.61,0,0,1,29,99.31,4,4,0,0,1,27.45,98a3.35,3.35,0,0,1-.51-1.82,3.7,3.7,0,0,1,.63-2.07,3.92,3.92,0,0,1,1.83-1.47,7,7,0,0,1,2.69-.5,7.35,7.35,0,0,1,2.87.53,4.14,4.14,0,0,1,1.91,1.54,4.38,4.38,0,0,1,.72,2.31l-1.86.14a3,3,0,0,0-1-2.1,4,4,0,0,0-2.55-.71,4.08,4.08,0,0,0-2.56.65A1.9,1.9,0,0,0,28.8,96a1.64,1.64,0,0,0,.57,1.29,7.83,7.83,0,0,0,2.92,1,19.08,19.08,0,0,1,3.24.93,4.56,4.56,0,0,1,1.89,1.49,3.64,3.64,0,0,1,.61,2.09,4,4,0,0,1-.67,2.2,4.41,4.41,0,0,1-1.92,1.6,6.62,6.62,0,0,1-2.82.58,8.32,8.32,0,0,1-3.33-.58,4.71,4.71,0,0,1-2.11-1.74A5,5,0,0,1,26.38,102.28Z"/><path class="cls-6" d="M46.7,103.56l1.86.23a4.53,4.53,0,0,1-1.63,2.53,4.87,4.87,0,0,1-3,.9,4.87,4.87,0,0,1-3.69-1.43,5.61,5.61,0,0,1-1.36-4,5.82,5.82,0,0,1,1.37-4.15,4.65,4.65,0,0,1,3.58-1.48,4.55,4.55,0,0,1,3.47,1.44,5.77,5.77,0,0,1,1.35,4.08c0,.1,0,.26,0,.48H40.7a4.1,4.1,0,0,0,1,2.67,2.94,2.94,0,0,0,2.22.93,2.69,2.69,0,0,0,1.68-.52A3.38,3.38,0,0,0,46.7,103.56Zm-5.9-2.9h5.92a3.57,3.57,0,0,0-.68-2,2.74,2.74,0,0,0-2.22-1,2.84,2.84,0,0,0-2.08.82A3.27,3.27,0,0,0,40.8,100.66Z"/><path class="cls-6" d="M57,105.67a6.67,6.67,0,0,1-1.92,1.2,5.66,5.66,0,0,1-2,.35,3.84,3.84,0,0,1-2.68-.86,2.78,2.78,0,0,1-.94-2.18,3,3,0,0,1,.35-1.42,3,3,0,0,1,.93-1,4.4,4.4,0,0,1,1.3-.59,14,14,0,0,1,1.59-.27,16.31,16.31,0,0,0,3.21-.62c0-.25,0-.4,0-.47a2,2,0,0,0-.51-1.55,3,3,0,0,0-2-.61,3.14,3.14,0,0,0-1.87.45,2.72,2.72,0,0,0-.89,1.57l-1.76-.24a4.3,4.3,0,0,1,.79-1.82,3.42,3.42,0,0,1,1.59-1.07,7,7,0,0,1,2.4-.37,6.22,6.22,0,0,1,2.21.32,3,3,0,0,1,1.25.8,2.8,2.8,0,0,1,.55,1.22,10.16,10.16,0,0,1,.09,1.66v2.4a24.43,24.43,0,0,0,.12,3.17,4.29,4.29,0,0,0,.45,1.27H57.37A3.65,3.65,0,0,1,57,105.67Zm-.15-4a13.85,13.85,0,0,1-2.94.68,6,6,0,0,0-1.56.36,1.47,1.47,0,0,0-.71.58,1.51,1.51,0,0,0-.25.85,1.54,1.54,0,0,0,.54,1.2,2.32,2.32,0,0,0,1.59.48,3.73,3.73,0,0,0,1.85-.45,2.87,2.87,0,0,0,1.19-1.25,4.34,4.34,0,0,0,.29-1.79Z"/><path class="cls-6" d="M60.81,107V96.38h1.62V98a4.33,4.33,0,0,1,1.14-1.48,2,2,0,0,1,1.16-.36,3.45,3.45,0,0,1,1.84.58L66,98.38A2.54,2.54,0,0,0,64.64,98a1.68,1.68,0,0,0-1.06.36,1.83,1.83,0,0,0-.67,1,7,7,0,0,0-.3,2.1V107Z"/><path class="cls-6" d="M74,103.1l1.77.23a4.57,4.57,0,0,1-1.49,2.85,4.3,4.3,0,0,1-2.93,1,4.6,4.6,0,0,1-3.5-1.42,5.79,5.79,0,0,1-1.32-4.08,7.38,7.38,0,0,1,.57-3,4,4,0,0,1,1.73-1.93,5.14,5.14,0,0,1,2.53-.64,4.4,4.4,0,0,1,2.83.87,4,4,0,0,1,1.41,2.48l-1.75.27A3,3,0,0,0,73,98.15a2.31,2.31,0,0,0-1.54-.53,2.77,2.77,0,0,0-2.2,1,4.59,4.59,0,0,0-.85,3.08,4.73,4.73,0,0,0,.82,3.1,2.64,2.64,0,0,0,2.13,1,2.53,2.53,0,0,0,1.77-.65A3.25,3.25,0,0,0,74,103.1Z"/><path class="cls-6" d="M77.82,107V92.34h1.79v5.25a4,4,0,0,1,3.18-1.45,4.24,4.24,0,0,1,2,.46,2.76,2.76,0,0,1,1.25,1.28,6,6,0,0,1,.37,2.38V107h-1.8v-6.72a2.77,2.77,0,0,0-.58-2,2.17,2.17,0,0,0-1.65-.62,2.88,2.88,0,0,0-1.5.42,2.37,2.37,0,0,0-1,1.12,5.17,5.17,0,0,0-.3,2V107Z"/><path class="cls-6" d="M92.53,107l5.62-14.64h2.09l6,14.64H104l-1.71-4.43H96.19L94.59,107Zm4.22-6h5l-1.52-4c-.47-1.24-.82-2.25-1-3a19.21,19.21,0,0,1-.79,2.8Z"/><path class="cls-6" d="M113.75,107v-1.34a3.3,3.3,0,0,1-3,1.58,4.12,4.12,0,0,1-2.33-.7,4.65,4.65,0,0,1-1.65-2,6.77,6.77,0,0,1-.58-2.88,7.58,7.58,0,0,1,.52-2.88,4.16,4.16,0,0,1,4-2.67,3.47,3.47,0,0,1,1.7.4,3.57,3.57,0,0,1,1.22,1V92.34h1.79V107Zm-5.68-5.29a4.61,4.61,0,0,0,.86,3,2.6,2.6,0,0,0,2,1,2.55,2.55,0,0,0,2-1,4.45,4.45,0,0,0,.82-2.94,5,5,0,0,0-.84-3.2,2.55,2.55,0,0,0-2.06-1,2.48,2.48,0,0,0-2,1A4.8,4.8,0,0,0,108.07,101.69Z"/><path class="cls-6" d="M117.68,103.81l1.78-.28a2.5,2.5,0,0,0,.83,1.64,2.9,2.9,0,0,0,1.91.57,2.85,2.85,0,0,0,1.84-.5,1.51,1.51,0,0,0,.6-1.19,1.09,1.09,0,0,0-.53-1,7.55,7.55,0,0,0-1.84-.61,16.91,16.91,0,0,1-2.74-.87,2.7,2.7,0,0,1-1.22-3.74,2.82,2.82,0,0,1,.88-1,3.79,3.79,0,0,1,1.14-.53,5.53,5.53,0,0,1,1.55-.21,6.05,6.05,0,0,1,2.19.36,3,3,0,0,1,1.4,1,3.91,3.91,0,0,1,.62,1.64l-1.76.24a2,2,0,0,0-.69-1.28,2.61,2.61,0,0,0-1.63-.45,3,3,0,0,0-1.76.4,1.19,1.19,0,0,0-.53,1,1,1,0,0,0,.22.63,1.56,1.56,0,0,0,.69.48c.18.07.7.22,1.58.46a23.54,23.54,0,0,1,2.66.83,2.69,2.69,0,0,1,1.19,1,2.65,2.65,0,0,1,.43,1.53,3,3,0,0,1-.53,1.7,3.43,3.43,0,0,1-1.51,1.22,5.49,5.49,0,0,1-2.24.44,5,5,0,0,1-3.15-.86A4,4,0,0,1,117.68,103.81Z"/></svg>