<?xml version="1.0" encoding="utf-8"?>
<!-- Generator: Adobe Illustrator 26.0.0, SVG Export Plug-In . SVG Version: 6.00 Build 0)  -->
<svg version="1.1" id="Layer_1" xmlns="http://www.w3.org/2000/svg" xmlns:xlink="http://www.w3.org/1999/xlink" x="0px" y="0px"
	 viewBox="0 0 125 132" style="enable-background:new 0 0 125 132;" xml:space="preserve">
<style type="text/css">
	.st0{fill:#FFFFFF;}
	.st1{clip-path:url(#SVGID_00000072982542168981674440000016530624180950438558_);}
	.st2{fill:none;stroke:#5F6368;stroke-width:0.79;stroke-miterlimit:10;}
	.st3{fill-rule:evenodd;clip-rule:evenodd;fill:#0B0B0A;stroke:#FFFFFF;stroke-miterlimit:10;}
	.st4{fill:#0B0B0A;}
</style>
<path class="st0" d="M117.7,121.2H7.2c-1.4,0-2.6-1.1-2.6-2.6l0,0V13.4c0-1.4,1.1-2.6,2.6-2.6h110.5c1.4,0,2.6,1.1,2.6,2.6
	c0,0,0,0,0,0v105.3C120.3,120.1,119.2,121.2,117.7,121.2z"/>
<g>
	<defs>
		<rect id="SVGID_1_" x="4.4" y="10.5" width="116.3" height="111"/>
	</defs>
	<clipPath id="SVGID_00000104691116745788794690000003695957477472180414_">
		<use xlink:href="#SVGID_1_"  style="overflow:visible;"/>
	</clipPath>
	<g style="clip-path:url(#SVGID_00000104691116745788794690000003695957477472180414_);">
		<path class="st2" d="M117.8,121.2H7.2c-1.4,0-2.6-1.1-2.6-2.6l0,0V13.4c0-1.4,1.1-2.6,2.6-2.6h110.5c1.4,0,2.6,1.1,2.6,2.6
			c0,0,0,0,0,0v105.3C120.3,120.1,119.2,121.2,117.8,121.2z"/>
	</g>
</g>
<g id="Page-1">
	<g id="Social-Icons---Isolated">
		<path id="Apple" class="st3" d="M68.3,42.5c1.6-2,2.4-4.6,2.1-7.2c-2.6,0.3-5,1.6-6.7,3.7c-1.5,1.8-2.7,4.4-2.2,7
			C64.1,46.1,66.8,44.5,68.3,42.5L68.3,42.5z M81.1,67.9c-0.8,1.9-1.7,3.7-2.9,5.4c-1.9,2.9-4.5,6.4-7.7,6.4c-2.9,0-3.6-1.9-7.6-1.9
			c-3.9,0-4.7,1.9-7.6,1.9c-3.2,0-5.7-3.2-7.6-6.1c-5.2-8-5.8-17.3-2.5-22.3c2.3-3.5,5.9-5.6,9.3-5.6c3.4,0,5.6,1.9,8.4,1.9
			c2.8,0,4.5-1.9,8.5-1.9c3,0,6.2,1.7,8.5,4.5C72.4,54.4,73.6,65.1,81.1,67.9L81.1,67.9z"/>
	</g>
</g>
<g>
	<path class="st4" d="M24.3,92.8l1.4-0.1c0,0.5,0.2,1,0.5,1.4c0.3,0.4,0.7,0.7,1.1,0.9c0.5,0.2,1.1,0.3,1.7,0.3c0.5,0,1-0.1,1.5-0.3
		c0.4-0.1,0.7-0.4,1-0.7c0.2-0.3,0.3-0.6,0.3-1c0-0.3-0.1-0.7-0.3-0.9c-0.3-0.3-0.6-0.5-1-0.7c-0.7-0.2-1.3-0.4-2-0.5
		c-0.7-0.2-1.5-0.4-2.2-0.7c-0.5-0.2-0.9-0.6-1.2-1c-0.3-0.4-0.4-0.9-0.4-1.4c0-0.6,0.2-1.1,0.5-1.6c0.3-0.5,0.8-0.9,1.4-1.1
		c0.7-0.3,1.4-0.4,2.1-0.4c0.7,0,1.5,0.1,2.2,0.4c0.6,0.2,1.1,0.6,1.5,1.2c0.3,0.5,0.5,1.1,0.5,1.8l-1.4,0.1c0-0.6-0.3-1.2-0.8-1.6
		c-0.6-0.4-1.3-0.6-1.9-0.5c-0.7-0.1-1.4,0.1-2,0.5c-0.4,0.3-0.6,0.7-0.6,1.1c0,0.4,0.1,0.7,0.4,1c0.7,0.4,1.4,0.7,2.2,0.8
		c0.8,0.2,1.7,0.4,2.5,0.7c0.6,0.2,1.1,0.6,1.4,1.1c0.3,0.5,0.5,1,0.5,1.6c0,0.6-0.2,1.2-0.5,1.7c-0.4,0.5-0.9,1-1.5,1.2
		c-0.7,0.3-1.4,0.5-2.2,0.4c-0.9,0-1.7-0.1-2.5-0.4c-0.7-0.3-1.2-0.7-1.6-1.3C24.5,94.2,24.3,93.5,24.3,92.8z"/>
	<path class="st4" d="M39.8,93.8l1.4,0.2c-0.2,0.8-0.6,1.4-1.2,1.9c-0.7,0.5-1.5,0.7-2.3,0.7c-1.1,0.1-2.1-0.3-2.8-1.1
		c-0.7-0.8-1.1-1.9-1-3.1c-0.1-1.2,0.3-2.3,1-3.2c0.7-0.8,1.7-1.2,2.7-1.1c1,0,2,0.4,2.6,1.1c0.7,0.9,1.1,2,1,3.1c0,0.1,0,0.2,0,0.4
		h-6.1c0,0.7,0.3,1.5,0.8,2c0.4,0.5,1.1,0.7,1.7,0.7c0.5,0,0.9-0.1,1.3-0.4C39.4,94.8,39.7,94.3,39.8,93.8z M35.3,91.6h4.5
		c0-0.5-0.2-1.1-0.5-1.5c-0.4-0.5-1-0.8-1.7-0.8c-0.6,0-1.2,0.2-1.6,0.6C35.6,90.4,35.3,91,35.3,91.6z"/>
	<path class="st4" d="M47.7,95.4c-0.4,0.4-0.9,0.7-1.5,0.9c-0.5,0.2-1,0.3-1.5,0.3c-0.7,0-1.5-0.2-2-0.7c-0.5-0.4-0.7-1-0.7-1.7
		c0-0.4,0.1-0.8,0.3-1.1c0.2-0.3,0.4-0.6,0.7-0.8c0.3-0.2,0.6-0.4,1-0.5c0.4-0.1,0.8-0.2,1.2-0.2c0.8-0.1,1.7-0.2,2.5-0.5
		c0-0.2,0-0.3,0-0.4c0-0.4-0.1-0.9-0.4-1.2c-0.4-0.3-1-0.5-1.5-0.5c-0.5,0-1,0.1-1.4,0.3c-0.4,0.3-0.6,0.7-0.7,1.2l-1.3-0.2
		c0.1-0.5,0.3-1,0.6-1.4c0.3-0.4,0.7-0.7,1.2-0.8c0.6-0.2,1.2-0.3,1.8-0.3c0.6,0,1.1,0.1,1.7,0.2c0.4,0.1,0.7,0.3,1,0.6
		c0.2,0.3,0.4,0.6,0.4,0.9c0.1,0.4,0.1,0.8,0.1,1.3v1.8c0,0.8,0,1.6,0.1,2.4c0.1,0.3,0.2,0.7,0.3,1h-1.4
		C47.8,96.1,47.7,95.8,47.7,95.4z M47.5,92.4c-0.7,0.3-1.5,0.4-2.2,0.5c-0.4,0-0.8,0.1-1.2,0.3c-0.2,0.1-0.4,0.2-0.5,0.4
		c-0.1,0.2-0.2,0.4-0.2,0.6c0,0.4,0.1,0.7,0.4,0.9c0.3,0.3,0.8,0.4,1.2,0.4c0.5,0,1-0.1,1.4-0.3c0.4-0.2,0.7-0.6,0.9-1
		c0.2-0.4,0.2-0.9,0.2-1.4V92.4z"/>
	<path class="st4" d="M50.6,96.4v-8.1h1.2v1.2c0.2-0.4,0.5-0.8,0.9-1.1c0.3-0.2,0.6-0.3,0.9-0.3c0.5,0,1,0.2,1.4,0.4l-0.4,1.3
		c-0.3-0.2-0.7-0.3-1-0.3c-0.3,0-0.6,0.1-0.8,0.3c-0.3,0.2-0.4,0.5-0.5,0.8c-0.2,0.5-0.2,1.1-0.2,1.6v4.2H50.6z"/>
	<path class="st4" d="M60.6,93.5l1.4,0.2c-0.1,0.8-0.5,1.6-1.1,2.2c-0.6,0.5-1.4,0.8-2.2,0.8c-1,0-2-0.4-2.7-1.1
		c-0.7-0.9-1.1-2-1-3.1c0-0.8,0.1-1.6,0.4-2.3c0.3-0.6,0.7-1.1,1.3-1.5c0.6-0.3,1.3-0.5,1.9-0.5c0.8,0,1.5,0.2,2.2,0.7
		c0.6,0.5,1,1.2,1.1,1.9l-1.3,0.2c-0.1-0.5-0.3-0.9-0.6-1.2c-0.3-0.3-0.7-0.4-1.2-0.4c-0.6,0-1.3,0.3-1.7,0.8
		c-0.5,0.7-0.7,1.5-0.6,2.4c-0.1,0.8,0.1,1.7,0.6,2.4c0.4,0.5,1,0.8,1.6,0.8c0.5,0,1-0.2,1.4-0.5C60.4,94.6,60.6,94.1,60.6,93.5z"/>
	<path class="st4" d="M63.6,96.4V85.3h1.4v4c0.6-0.7,1.5-1.1,2.4-1.1c0.5,0,1.1,0.1,1.5,0.4c0.4,0.2,0.8,0.6,1,1
		c0.2,0.6,0.3,1.2,0.3,1.8v5.1h-1.4v-5.1c0.1-0.5-0.1-1.1-0.4-1.5c-0.3-0.3-0.8-0.5-1.3-0.5c-0.4,0-0.8,0.1-1.1,0.3
		c-0.3,0.2-0.6,0.5-0.8,0.9c-0.2,0.5-0.3,1-0.2,1.5v4.4H63.6z"/>
	<path class="st4" d="M74.8,96.4l4.3-11.2h1.6l4.6,11.2h-1.7l-1.3-3.4h-4.7l-1.2,3.4H74.8z M78,91.9h3.8l-1.2-3.1
		c-0.4-0.9-0.6-1.7-0.8-2.3c-0.1,0.7-0.3,1.4-0.6,2.1L78,91.9z"/>
	<path class="st4" d="M91,96.4v-1c-0.5,0.8-1.4,1.3-2.3,1.2c-0.6,0-1.3-0.2-1.8-0.5c-0.6-0.4-1-0.9-1.3-1.5
		c-0.3-0.7-0.5-1.4-0.4-2.2c0-0.8,0.1-1.5,0.4-2.2c0.5-1.3,1.7-2.1,3.1-2c0.5,0,0.9,0.1,1.3,0.3c0.4,0.2,0.7,0.4,0.9,0.8v-3.9h1.4
		v11.2H91z M86.6,92.4c-0.1,0.8,0.2,1.6,0.7,2.3c0.4,0.5,0.9,0.8,1.5,0.8c0.6,0,1.2-0.3,1.5-0.8c0.5-0.7,0.7-1.4,0.6-2.2
		c0.1-0.9-0.2-1.7-0.6-2.4c-0.4-0.5-1-0.8-1.6-0.8c-0.6,0-1.2,0.3-1.5,0.8C86.8,90.7,86.6,91.6,86.6,92.4L86.6,92.4z"/>
	<path class="st4" d="M94,94l1.4-0.2c0,0.5,0.3,0.9,0.6,1.3c0.4,0.3,0.9,0.5,1.5,0.4c0.5,0,1-0.1,1.4-0.4c0.3-0.2,0.5-0.6,0.5-0.9
		c0-0.3-0.1-0.6-0.4-0.8c-0.4-0.2-0.9-0.4-1.4-0.5c-0.7-0.2-1.4-0.4-2.1-0.7c-1-0.5-1.5-1.7-1-2.7c0,0,0-0.1,0.1-0.1
		c0.2-0.3,0.4-0.6,0.7-0.8c0.3-0.2,0.6-0.3,0.9-0.4c0.4-0.1,0.8-0.2,1.2-0.2c0.6,0,1.1,0.1,1.7,0.3c0.4,0.1,0.8,0.4,1.1,0.8
		c0.3,0.4,0.4,0.8,0.5,1.3l-1.3,0.2c0-0.4-0.2-0.7-0.5-1c-0.4-0.2-0.8-0.4-1.2-0.3c-0.5,0-0.9,0.1-1.3,0.3c-0.3,0.2-0.4,0.5-0.4,0.8
		c0,0.2,0.1,0.3,0.2,0.5c0.1,0.2,0.3,0.3,0.5,0.4c0.1,0.1,0.5,0.2,1.2,0.4c0.7,0.2,1.4,0.4,2,0.6c0.4,0.2,0.7,0.4,0.9,0.8
		c0.2,0.3,0.3,0.8,0.3,1.2c0,0.5-0.1,0.9-0.4,1.3c-0.3,0.4-0.7,0.7-1.2,0.9c-0.5,0.2-1.1,0.3-1.7,0.3c-0.9,0.1-1.7-0.2-2.4-0.7
		C94.4,95.5,94.1,94.8,94,94z"/>
</g>
</svg>
