<?xml version="1.0" encoding="utf-8"?>
<!-- Generator: Adobe Illustrator 25.0.1, SVG Export Plug-In . SVG Version: 6.00 Build 0)  -->
<svg version="1.1" id="Layer_1" xmlns="http://www.w3.org/2000/svg" xmlns:xlink="http://www.w3.org/1999/xlink" x="0px" y="0px"
	 viewBox="0 0 152 145.5" style="enable-background:new 0 0 152 145.5;" xml:space="preserve">
<style type="text/css">
	.st0{fill:#FFFFFF;}
	.st1{clip-path:url(#SVGID_2_);fill:none;stroke:#5F6368;stroke-width:0.7912;stroke-miterlimit:10;}
	.st2{fill:#4284F4;}
	.st3{fill:#34A853;}
	.st4{fill:#FBBC04;}
	.st5{fill:#EA4335;}
	.st6{fill:#5F6368;stroke:#5F6368;stroke-width:0.25;stroke-miterlimit:10;}
</style>
<path class="st0" d="M144.08,140.78H7.92c-1.75,0-3.16-1.42-3.16-3.16V7.92c0-1.75,1.42-3.16,3.16-3.16h136.17
	c1.75,0,3.16,1.42,3.16,3.16v129.71C147.24,139.37,145.83,140.78,144.08,140.78L144.08,140.78z"/>
<g>
	<defs>
		<rect id="SVGID_1_" x="4.36" y="4.36" width="143.28" height="136.82"/>
	</defs>
	<clipPath id="SVGID_2_">
		<use xlink:href="#SVGID_1_"  style="overflow:visible;"/>
	</clipPath>
	<path class="st1" d="M144.08,140.78H7.92c-1.75,0-3.16-1.42-3.16-3.16V7.92c0-1.75,1.42-3.16,3.16-3.16h136.17
		c1.75,0,3.16,1.42,3.16,3.16v129.71C147.24,139.37,145.83,140.78,144.08,140.78L144.08,140.78z"/>
</g>
<path class="st2" d="M97.01,59.66c0-1.53-0.24-3-0.49-4.42H76.4v8.34h11.29c-0.5,2.7-1.78,4.99-4.07,6.53v5.44h6.99
	C94.67,71.79,97.01,66.23,97.01,59.66L97.01,59.66z"/>
<path class="st3" d="M76.33,80.76c5.81,0,10.7-1.91,14.27-5.21l-6.99-5.44c-1.92,1.3-4.39,2.06-7.28,2.06
	c-5.6,0-10.36-3.79-12.06-8.9h-7.18v5.59C60.64,75.92,67.92,80.76,76.33,80.76L76.33,80.76z"/>
<path class="st4" d="M64.28,63.28c-0.43-1.3-0.67-2.68-0.67-4.11c0-1.43,0.24-2.81,0.67-4.11v-5.59h-7.18
	c-1.46,2.92-2.29,6.21-2.29,9.7c0,3.49,0.83,6.78,2.29,9.7L64.28,63.28L64.28,63.28z"/>
<path class="st5" d="M76.33,46.16c3.16,0,6,1.09,8.24,3.23l6.17-6.19c-3.73-3.49-8.6-5.63-14.41-5.63c-8.41,0-15.7,4.84-19.24,11.9
	l7.18,5.59C65.97,49.95,70.73,46.16,76.33,46.16L76.33,46.16z"/>
<g id="Layer_3">
	<g>
		<path class="st6" d="M29.88,102.75c-0.81-0.47-1.45-1.11-1.93-1.93c-0.48-0.82-0.71-1.73-0.71-2.72s0.24-1.9,0.71-2.72
			s1.12-1.46,1.93-1.93c0.81-0.47,1.7-0.7,2.66-0.7c0.75,0,1.46,0.13,2.12,0.4c0.66,0.27,1.21,0.64,1.64,1.13l-0.87,0.87
			c-0.32-0.4-0.74-0.71-1.24-0.92c-0.51-0.21-1.05-0.32-1.63-0.32c-0.72,0-1.4,0.17-2.02,0.52c-0.62,0.35-1.12,0.84-1.5,1.47
			c-0.38,0.63-0.56,1.37-0.56,2.2s0.19,1.56,0.56,2.2s0.88,1.12,1.51,1.47c0.63,0.35,1.3,0.52,2.02,0.52c0.69,0,1.26-0.11,1.72-0.32
			c0.46-0.21,0.86-0.5,1.19-0.85c0.25-0.27,0.45-0.59,0.6-0.97c0.15-0.38,0.25-0.79,0.29-1.25h-3.79v-1.13h4.92
			c0.05,0.27,0.07,0.51,0.07,0.74c0,0.63-0.1,1.24-0.3,1.84s-0.52,1.12-0.96,1.57c-0.94,1.02-2.2,1.53-3.76,1.53
			C31.58,103.45,30.69,103.22,29.88,102.75z"/>
		<path class="st6" d="M40.57,102.94c-0.57-0.34-1.02-0.81-1.34-1.4c-0.32-0.59-0.48-1.24-0.48-1.96s0.16-1.37,0.48-1.96
			c0.32-0.59,0.77-1.06,1.34-1.4c0.57-0.34,1.22-0.51,1.93-0.51s1.36,0.17,1.93,0.51c0.57,0.34,1.02,0.81,1.34,1.4
			c0.32,0.59,0.48,1.24,0.48,1.96s-0.16,1.37-0.48,1.96c-0.32,0.59-0.77,1.06-1.34,1.4c-0.57,0.34-1.22,0.51-1.93,0.51
			S41.14,103.28,40.57,102.94z M43.75,102.01c0.39-0.22,0.7-0.55,0.93-0.97c0.23-0.42,0.35-0.91,0.35-1.47s-0.12-1.05-0.35-1.47
			c-0.23-0.42-0.54-0.74-0.93-0.96c-0.39-0.22-0.8-0.34-1.25-0.34c-0.45,0-0.87,0.11-1.26,0.34c-0.39,0.22-0.7,0.55-0.94,0.96
			c-0.23,0.42-0.35,0.91-0.35,1.47s0.12,1.05,0.35,1.47c0.23,0.42,0.55,0.74,0.94,0.97c0.39,0.22,0.81,0.34,1.26,0.34
			C42.95,102.35,43.37,102.24,43.75,102.01z"/>
		<path class="st6" d="M49.08,102.94c-0.57-0.34-1.02-0.81-1.34-1.4c-0.32-0.59-0.48-1.24-0.48-1.96s0.16-1.37,0.48-1.96
			c0.32-0.59,0.77-1.06,1.34-1.4c0.57-0.34,1.22-0.51,1.93-0.51s1.36,0.17,1.93,0.51c0.57,0.34,1.02,0.81,1.34,1.4
			c0.32,0.59,0.48,1.24,0.48,1.96s-0.16,1.37-0.48,1.96c-0.32,0.59-0.77,1.06-1.34,1.4c-0.57,0.34-1.22,0.51-1.93,0.51
			S49.65,103.28,49.08,102.94z M52.26,102.01c0.39-0.22,0.7-0.55,0.93-0.97c0.23-0.42,0.35-0.91,0.35-1.47s-0.12-1.05-0.35-1.47
			c-0.23-0.42-0.54-0.74-0.93-0.96c-0.39-0.22-0.8-0.34-1.25-0.34c-0.45,0-0.87,0.11-1.26,0.34c-0.39,0.22-0.7,0.55-0.94,0.96
			c-0.23,0.42-0.35,0.91-0.35,1.47s0.12,1.05,0.35,1.47c0.23,0.42,0.55,0.74,0.94,0.97c0.39,0.22,0.81,0.34,1.26,0.34
			C51.46,102.35,51.88,102.24,52.26,102.01z"/>
		<path class="st6" d="M57.24,105.94c-0.56-0.4-0.93-0.88-1.12-1.44l1.1-0.47c0.16,0.42,0.43,0.76,0.81,1.02
			c0.38,0.26,0.82,0.39,1.34,0.39c0.75,0,1.34-0.21,1.75-0.63c0.41-0.42,0.62-1.02,0.62-1.8v-0.81h-0.06
			c-0.24,0.37-0.57,0.67-1.01,0.91c-0.43,0.23-0.93,0.35-1.48,0.35c-0.63,0-1.2-0.16-1.72-0.49c-0.52-0.33-0.93-0.79-1.24-1.37
			c-0.31-0.59-0.46-1.26-0.46-2.01c0-0.74,0.15-1.41,0.46-2s0.72-1.05,1.24-1.38c0.52-0.33,1.09-0.49,1.72-0.49
			c0.55,0,1.05,0.12,1.48,0.35c0.43,0.23,0.77,0.54,1.01,0.92h0.06v-1.04h1.16v7.01c0,1.17-0.32,2.07-0.97,2.68
			c-0.65,0.61-1.5,0.92-2.56,0.92C58.5,106.54,57.8,106.34,57.24,105.94z M60.56,102.02c0.36-0.22,0.64-0.54,0.86-0.96
			c0.21-0.42,0.32-0.91,0.32-1.48c0-0.58-0.11-1.08-0.32-1.5c-0.21-0.42-0.5-0.73-0.86-0.95s-0.76-0.33-1.19-0.33
			s-0.84,0.11-1.2,0.33s-0.65,0.54-0.87,0.96c-0.21,0.42-0.32,0.91-0.32,1.48s0.11,1.07,0.32,1.49c0.21,0.42,0.5,0.74,0.87,0.96
			s0.76,0.33,1.2,0.33S60.2,102.24,60.56,102.02z"/>
		<path class="st6" d="M64.68,92.98h1.22v10.24h-1.22V92.98z"/>
		<path class="st6" d="M69.07,102.95c-0.55-0.33-0.98-0.79-1.29-1.38c-0.31-0.59-0.46-1.25-0.46-1.98c0-0.71,0.15-1.35,0.44-1.95
			c0.29-0.59,0.7-1.06,1.24-1.42c0.53-0.35,1.15-0.53,1.86-0.53c0.71,0,1.33,0.16,1.86,0.48c0.52,0.32,0.93,0.76,1.21,1.32
			s0.42,1.21,0.42,1.93c0,0.14-0.01,0.27-0.04,0.37h-5.76c0.03,0.55,0.16,1.02,0.4,1.4c0.24,0.38,0.54,0.67,0.91,0.86
			c0.37,0.19,0.75,0.29,1.15,0.29c0.93,0,1.65-0.44,2.16-1.32l1.03,0.5c-0.31,0.59-0.74,1.06-1.28,1.4
			c-0.54,0.34-1.19,0.51-1.95,0.51C70.25,103.45,69.62,103.28,69.07,102.95z M73.05,98.8c-0.02-0.3-0.11-0.61-0.26-0.92
			c-0.15-0.3-0.39-0.56-0.72-0.77c-0.33-0.21-0.74-0.31-1.24-0.31c-0.57,0-1.06,0.18-1.45,0.55c-0.4,0.37-0.66,0.85-0.78,1.45H73.05
			z"/>
		<path class="st6" d="M78.74,92.98h3.45c0.57,0,1.1,0.13,1.59,0.39c0.49,0.26,0.87,0.62,1.17,1.08c0.29,0.46,0.44,0.98,0.44,1.57
			c0,0.58-0.15,1.1-0.44,1.57c-0.29,0.46-0.68,0.82-1.17,1.08c-0.49,0.26-1.02,0.39-1.59,0.39h-2.25v4.18h-1.2V92.98z M82.21,97.89
			c0.38,0,0.72-0.09,1.01-0.27c0.29-0.18,0.52-0.41,0.68-0.7s0.24-0.59,0.24-0.9s-0.08-0.61-0.24-0.9s-0.39-0.52-0.68-0.7
			c-0.29-0.18-0.63-0.27-1.01-0.27h-2.27v3.75H82.21z"/>
		<path class="st6" d="M87.82,103.14c-0.42-0.21-0.74-0.5-0.97-0.87c-0.23-0.37-0.34-0.78-0.34-1.25c0-0.77,0.29-1.38,0.87-1.81
			s1.32-0.65,2.2-0.65c0.44,0,0.85,0.05,1.22,0.14c0.38,0.1,0.67,0.21,0.87,0.33v-0.44c0-0.54-0.19-0.98-0.57-1.31
			s-0.86-0.49-1.44-0.49c-0.41,0-0.79,0.09-1.13,0.26c-0.34,0.18-0.61,0.42-0.81,0.74l-0.92-0.69c0.29-0.44,0.68-0.78,1.18-1.03
			c0.5-0.25,1.06-0.37,1.67-0.37c0.99,0,1.77,0.26,2.34,0.78c0.57,0.52,0.85,1.23,0.85,2.12v4.62h-1.16v-1.04h-0.06
			c-0.21,0.35-0.52,0.65-0.94,0.9c-0.42,0.25-0.89,0.37-1.42,0.37C88.71,103.45,88.24,103.35,87.82,103.14z M90.5,102.06
			c0.35-0.21,0.63-0.49,0.84-0.84c0.21-0.35,0.31-0.74,0.31-1.16c-0.23-0.15-0.51-0.28-0.84-0.37c-0.33-0.09-0.69-0.14-1.06-0.14
			c-0.67,0-1.17,0.14-1.51,0.42c-0.34,0.28-0.51,0.63-0.51,1.07c0,0.4,0.15,0.72,0.46,0.97c0.31,0.25,0.69,0.37,1.16,0.37
			C89.77,102.38,90.15,102.27,90.5,102.06z"/>
		<path class="st6" d="M94.31,96.04h1.16v1.16h0.06c0.17-0.43,0.46-0.76,0.87-1s0.86-0.36,1.34-0.36c0.21,0,0.39,0.01,0.53,0.04
			v1.24c-0.16-0.04-0.38-0.06-0.66-0.06c-0.62,0-1.12,0.21-1.51,0.61c-0.39,0.41-0.58,0.94-0.58,1.6v4.05h-1.22V96.04z
			 M101.71,103.3c-0.25-0.1-0.46-0.23-0.64-0.39c-0.19-0.18-0.33-0.4-0.43-0.64c-0.1-0.24-0.14-0.54-0.14-0.89v-4.35h-1.27v-1.1
			h1.27v-2.06h1.21v2.06h1.77v1.1h-1.77v4.06c0,0.41,0.08,0.71,0.23,0.91c0.18,0.21,0.44,0.32,0.79,0.32c0.28,0,0.54-0.08,0.8-0.24
			v1.19c-0.14,0.07-0.29,0.11-0.44,0.14c-0.15,0.03-0.34,0.04-0.56,0.04C102.23,103.45,101.96,103.4,101.71,103.3z"/>
		<path class="st6" d="M104.88,95.93h1.16V97h0.06c0.2-0.36,0.52-0.67,0.96-0.92c0.44-0.25,0.91-0.38,1.4-0.38
			c0.88,0,1.55,0.25,2.01,0.76c0.46,0.51,0.69,1.2,0.69,2.08v4.68h-1.22v-4.49c0-0.68-0.16-1.17-0.49-1.47
			c-0.32-0.3-0.77-0.46-1.33-0.46c-0.39,0-0.74,0.11-1.05,0.33c-0.31,0.22-0.55,0.51-0.72,0.87c-0.17,0.36-0.26,0.73-0.26,1.12v4.1
			h-1.22V95.93z"/>
		<path class="st6" d="M114.27,102.95c-0.55-0.33-0.98-0.79-1.29-1.38c-0.31-0.59-0.46-1.25-0.46-1.98c0-0.71,0.15-1.35,0.44-1.95
			c0.29-0.59,0.7-1.06,1.24-1.42s1.15-0.53,1.86-0.53c0.71,0,1.33,0.16,1.86,0.48s0.93,0.76,1.21,1.32
			c0.28,0.56,0.42,1.21,0.42,1.93c0,0.14-0.01,0.27-0.04,0.37h-5.76c0.03,0.55,0.16,1.02,0.4,1.4c0.24,0.38,0.54,0.67,0.91,0.86
			c0.37,0.19,0.75,0.29,1.15,0.29c0.93,0,1.65-0.44,2.16-1.32l1.03,0.5c-0.32,0.59-0.74,1.06-1.28,1.4
			c-0.54,0.34-1.19,0.51-1.95,0.51C115.45,103.45,114.82,103.28,114.27,102.95z M118.25,98.8c-0.02-0.3-0.11-0.61-0.26-0.92
			c-0.15-0.3-0.39-0.56-0.72-0.77c-0.33-0.21-0.74-0.31-1.24-0.31c-0.57,0-1.06,0.18-1.45,0.55c-0.4,0.37-0.66,0.85-0.78,1.45
			H118.25z"/>
		<path class="st6" d="M120.93,95.93h1.16v1.17h0.06c0.14-0.4,0.42-0.73,0.83-1c0.41-0.27,0.84-0.4,1.29-0.4
			c0.33,0,0.62,0.05,0.86,0.16v1.3c-0.31-0.15-0.65-0.23-1.03-0.23c-0.35,0-0.68,0.1-0.97,0.3c-0.3,0.2-0.53,0.47-0.71,0.81
			c-0.18,0.34-0.26,0.7-0.26,1.1v4.08h-1.22V95.93z"/>
	</g>
</g>
</svg>
