<svg xmlns="http://www.w3.org/2000/svg" xmlns:xlink="http://www.w3.org/1999/xlink" viewBox="0 0 1280 36.88"><defs><style>.a{fill:none;}.b{clip-path:url(#a);}.c{clip-path:url(#b);}.d{fill:#459e9a;}</style><clipPath id="a"><rect class="a" x="-2097.52" y="-171.69" width="1924.39" height="2777.58"/></clipPath><clipPath id="b"><polygon class="a" points="61 2604.81 -2331.65 2605.89 -2331.65 -177.54 60.8 -177.54 61 2604.81"/></clipPath></defs><path class="d" d="M325.87,30c-.41-.12-.76-.17-1.13-.26C325.17,30.05,325.6,30.24,325.87,30Z"/><path class="d" d="M37.82,8.76a3.88,3.88,0,0,0-1.63,1,13.77,13.77,0,0,1,1.53-.4C37.75,9.15,37.77,9,37.82,8.76Z"/><path class="d" d="M1235.73,3.42c0,.23,0,.37,0,.57C1236,3.66,1236,3.44,1235.73,3.42Z"/><path class="d" d="M1279.82,19.28l-.61.17a15.72,15.72,0,0,0-.13,1.8Z"/><path class="d" d="M361,34.06l-.16-.06C359.92,34.37,360.44,34.3,361,34.06Z"/><path class="d" d="M683.49,31.7c-3.66-2.86,5.94-3.68.44-6.85C684.44,26.1,678.93,29.84,683.49,31.7Z"/><path class="d" d="M38.81,9.18a11.43,11.43,0,0,1,1.55,0A3.21,3.21,0,0,0,38.81,9.18Z"/><path class="d" d="M441.11,30.74a2.62,2.62,0,0,0,.83,1.4A3.92,3.92,0,0,0,441.11,30.74Z"/><path class="d" d="M473.25,27.62c.81.24,1.08.69,2.19.25a1.59,1.59,0,0,0-.34-.39C474.7,27.92,474.17,28.13,473.25,27.62Z"/><path class="d" d="M505.83,27.6a6.16,6.16,0,0,0-.6-.65c-.32.07-.7.12-1,.18Z"/><path class="d" d="M1136.7,5a9.57,9.57,0,0,1,1.5,2.88C1137.7,5.56,1142.49,4.75,1136.7,5Z"/><path class="d" d="M474.57,2.35l5.18.48A26.09,26.09,0,0,0,474.57,2.35Z"/><path class="d" d="M904.1,5a1.21,1.21,0,0,0-1.19.39Z"/><path class="d" d="M495.11,2.35A7.48,7.48,0,0,0,498,4.57a2.77,2.77,0,0,0,.6-.83Z"/><path class="d" d="M1276.14,20.39l3.07-.94c.56-5.3,2.92-10.74-4.62-14.44l-5.25,3.24-1.7-2.57,4.42-.16c-2.5-2.42-4.1-.28-5.87,1.19A4.42,4.42,0,0,0,1264,3.87l-5.15,5.07c-.63-2.07,2.31-4.12-1.15-5.26C1255.26,6,1260,8.33,1256,9.88c-2.52-2.41-1.78-4.38-4.73-2.32a2.21,2.21,0,0,1,1.38-2.84c-2.63,1.64-7,.7-8.31,3.51-2.62-3-8.86.78-8.61-4.24-.82,1.2-4.62,3.94-7,4.15,4.41-6-9-.35-7.86-6.8-3.27,5.41-11.78,2.4-17.56,5.4.32-.43,1-1.3,1.47-1-3.25-.45-4.2-2.08-6.29-3.1-.42,4.46-5.48,5.48-8.21,8.24-4-4.31,2.42-5.24,1.17-9.38.2,3.62-6.92,3.61-5.57,6.62-3-2.66-2.62-1.29-4.19-5-.54,5.58-2.84.94-5.37,4.37-4.41-2.75-1.13-5.23-6-3.53-2.3-1.71,2-3.69,2-3.69C1167.38.17,1170,4.38,1169,6.8c-5.89,1.19-2.72-3.1-4.73-5.25-3.67,1.11-6.5,5-9.23,4.81-.21-.69-.74-.94-.12-1.81-3.88,3.34-11.54.16-16.07,4.37a2.69,2.69,0,0,1-.59-1,13.93,13.93,0,0,1,.7,5.78c-2.21.07-4.11,2.66-4.94-.1,1.36.09,1.47-1,2.11-1.88l-2.32,1.19c-2.09-3.95,3.16-1.37,3.16-4.3-4.52,1.29-9.78,4.56-13.25,3.45-.72-3.87,8.1-1.3,3.48-4.75l5.36,1.48c-4.1-6.1,3.25.43-.51-6.1-7-1.12-7.89,2-14.92.84-1.58,2.15.53,3.18-1.06,5.33-10,3.87-7.87-9.73-15.22-4.57-1.9,2.58-2.64,7.47-7.87,4.88l1.78-4.37c-6.82-.43-3.89,6.29-11,3.34,1.27-1.71,5.36-1.44,4.33-2-4.63-3.45-3.28,2.49-6.84,2.49l-.73-3.88c-7.27.61-15.28,3.41-23.33,4.12.45-1.16,1.83-2.37,0-3.55-10.15,1.93-21.67-.48-31.47-2.77l-3.74,3.34c-.87,0-1.61-1.51-.67-2.16-3.82-1.27-.2,2.12-2,3.43-2.17.24-2.87-1.92-1.49-2.92-6.74,2.83-19.19,6.11-26.28,2.53l1.38-1c-5.53-1.36-6.23,6.86-11.36,3.74l1-.59c-12-1.45-25.24,1.61-34.39-3.44-1.74,4.82-11.87-2.15-12.64,4.57-6.85-3.33-4.88-4.53-14.53-6.77-2.57-.31-3.83,4.2-7,4.9l-.08-3.51-4.32,3.68-2.3-4.2-3,.9c1.19.21,2.53,1.58,2.35,2.59C901.79,9.21,895.08,5.17,895,3.37l-11,3c.24-1.41,2.09-1.89,3.55-2.79-5.89,3.58-1.07-3.7-6.47-.42.73.8-.39,2.09-.51,2.8-2.69-2.12-8.82-2.14-13.35-1.25L868,2.26c-8.19-.61-17.26,1.17-26.45,1.12a3,3,0,0,1-.15,5.73L840.34,5.4c-1.74,2.29,2.81,1.4-.76,4.21-3.43-.43-2.31-4.22-.33-5.43l-4.18,1.29c-.24-1.11.74-1.7,1-3.11-1.71,2.31-7.2-3.72-9.67.28l-.24-1.1C817,1.5,812.8,2.78,805.32,3c-.14,3.2-3.07,2.49-5.3,5.08-5.5-1-11.6-3.54-18.22-3.27-4.66,1.6-1.36,2.71-3.46,4.62-.34-2.92-7-2.65-3.52-4.74-8,.47-10.16.58-20.21,3,1.09,1.2,2.32,1.71,1.68,2.71-1.82.48-4.15-1.22-3.89-2.63l.48-.3c-11.29,4.38-26-8.51-35-2.42l.51-.3L709,7.84c-4.29-.51,2.57-2.2-.6-4-10.06,4.87-15.89-.71-24.17,2.54-6.41-8.61-22.74.6-31.39-4.89l.5,2c-2.24,2-2.71-1.16-4.35-1.62.23,1.57,2.42,1.82,1,2.92C631.11,7.25,611,1.85,591.54,0c-7.1-.54-4,10.49-13,5.65l2.54-3.76c-14.33,4.51-29.31-.16-43.34,3.67.84-.87.87-2,2.23-2-3-2.74-11-.14-11,2.1-2.19-.26-.51-2-1.86-3.16-3-1.61-7.46,3.49-9,.77-.26-.44.84-.88,1.38-1.1-1.93,1.33-9-.33-7.17,2.82C507,3.53,502.23,6.44,498,4.57c-2.74,3.52-9-1.7-9.88,3.29.37-5.16-9.24-4.16-12.57-1.74,1.12-1.55-2.89-1.61-1.59-3.77-3.8.08-7.28,1-6.61,3.68-7-6.17-14.08,5-18-2.94a263.54,263.54,0,0,1-31.88,5.85c.36-5.14,11.22-.51,10.79-5.91a113.21,113.21,0,0,0-11.92,3.74c-.07-.52-.15-1-.22-1.57a4.24,4.24,0,0,1-2.33,2c-2.44-1-6.75,3.48-6.36-1.12l.87.09c-1.84-4.51-6.86-3.31-10.77-3.44l-.35,3.34c-1.82,0-3.62,0-5.39,0a25.64,25.64,0,0,0-10.12-.37c.34-.16.13-.12-.36,0l-2.4.34a3,3,0,0,0-1.66.25c-3.88.58-7.43,1-10.07-.09.08-.16.13-.3.23-.47a4.6,4.6,0,0,0-.58.3,6.07,6.07,0,0,1-2.37-2c-2.39,1.46-5.34,1.51-7.75,2.88A3.15,3.15,0,0,0,357,6.6L356.5,7l.12-3c-6.84-.82-10.26-1.23-18.72-.46l1.72-2.3c-4.77-.21-6,9.3-10.43,9.49l-1.32-4.82c-8.33.08-16.76-4.15-25,.22.13-.71.38-2.1,1.73-2.3-3.92-.12-15.17-3.26-13.74,3.35-.1-4.3-8.6-.42-13.09,1.48l.7-3.17c-3.8,4.05-3.92,5.16-9.22,6.29-1.26-.42-1.1-2.55.56-1.73-4.18-1.67-3.26,3-8.33,1.31l1.89-2c-2.32-.13-3.28.14-4.06.77l-1.5-1.13-1.15,2.67,1.54-.38A17.18,17.18,0,0,1,257,12.47c-1.54.73-4,.34-5.89-.63.07-2.37,5.51-.26,3.65-3.44a54.52,54.52,0,0,0-6.3,1,2.43,2.43,0,0,1-.26-.6,4.24,4.24,0,0,1-.41.74c-1.58.34-3.17.72-4.76,1.1a3.55,3.55,0,0,1,.74-.66c-7.21-2.17-10.71,3.69-15.67.57a2.51,2.51,0,0,0-.83-1.9c5.72.08,10.33.26,9.89.49,0-2.93-4.62-3.44-.94-7.49-3.71,2.21-10,7-14.56,5.63a3.69,3.69,0,0,1-.6-1l.47-.33a3.64,3.64,0,0,0-2.85.47A11.82,11.82,0,0,0,215,5.53c-.53-2.42-5.3-1.31-7.6-1.43.19,3.21-2.83,2.69,0,5.34-.37-.23.43-.38,2-.52a2.76,2.76,0,0,0,1-.33c-.05.09-.1.19-.16.28,1.51-.09,3.49-.16,5.73-.21a10.94,10.94,0,0,1-2.1,1.49c-.85.09-1.73.25-2.61.41a4.44,4.44,0,0,1-1.56-.68L209,11c-1.64.36-3.37.78-5.22,1.24-3.12-2.77-6.8-4.68-7.45-6.78C190,7,181.6,6.74,176.78,11.11a17.39,17.39,0,0,0-3.88-.06,6.28,6.28,0,0,0-.61-1.11c1.16-.6,2.53-.51,3.16-1.38-3.95,1.53-11.59.66-12.73,4.65l-.32,0c-4.48-1.86,2.95-3.75-3.86-3.08l.94-1.28c-7.75-3.82-13.85.16-20.44,2.73-.08-.07-.08-.16-.19-.23a.69.69,0,0,0,.15.25c-5,1.94-10.28,3.07-16.79-.64,1.05.52,1.57.77,1.79,1.47a50,50,0,0,0-7.49-1l-3.26-1.14a15.64,15.64,0,0,0,3.26,1.14h-.05L110.68,10l1.55,1c-.09.17-.18.29-.27.44-4.48,0-9,.34-13.48.66a2.51,2.51,0,0,1,0-.74c-1.55-1-3.9-2-3.23-3-2.86,2.78-4.78-2.2-8.82,1.87-.18-1.11-3.06-.1-2.41-2.9-3.73.88.88,1.94.56,3.33-5.73,3.8-13.48-4.6-21.73.61-.11,0-.19.07-.3.11l-.37-1.22-3.81,3c-.67.37-1.28.76-1.87,1.15-6.19,1.83-11-6.56-18.43-4.19a1.35,1.35,0,0,1,.77-.87c-.38,0-.74.1-1.09.17a2.23,2.23,0,0,0,0,.81,10.81,10.81,0,0,0-2,.95l1.11,2.21a.36.36,0,0,1-.07.1,16.75,16.75,0,0,0-2.84,0,11.82,11.82,0,0,1,2.32-3.67c-2.77.88-5.51,2.51-8.34,3.6a1,1,0,0,1-.76-1.22c-.16.2-.4.7-.74,1.1-.08-1.54,2.29-2.46,3.32-3.58-3.32.78-8.37,1.57-10.25,3.9l-2.76,1.07a6.35,6.35,0,0,1-.95-.28,5.75,5.75,0,0,0,.37-5,9.72,9.72,0,0,1-2.25,2.78c-.36-2.13.75-4.77-5.23-5A16.94,16.94,0,0,0,3.08,9.9l-2.77,1a2.16,2.16,0,0,0-.1,2,.64.64,0,0,0,.09.7c1.35.09,3.46,1.12,3.56,2.92l-3.07.94a15.55,15.55,0,0,0,.13-1.79l-.74,2,.61-.17C.23,22.74-2.13,28.17,5.41,31.87l5.25-3.24,1.7,2.57-4.42.16c2.5,2.43,4.1.28,5.87-1.19A4.42,4.42,0,0,0,16,33l5.15-5.07c.63,2.08-2.31,4.12,1.15,5.27C24.74,30.85,20,28.55,24,27c2.52,2.41,1.78,4.37,4.73,2.31a2.21,2.21,0,0,1-1.38,2.84c2.63-1.64,6.95-.69,8.31-3.51,2.62,3,8.86-.78,8.61,4.25.82-1.21,4.62-3.95,7-4.16-4.41,6,9,.36,7.86,6.8,3.27-5.4,11.78-2.4,17.56-5.4-.32.43-1,1.3-1.47,1,3.25.45,4.2,2.07,6.29,3.1C82,29.8,87,28.78,89.75,26c4,4.3-2.42,5.24-1.17,9.38-.2-3.62,6.92-3.61,5.57-6.63,3,2.67,2.62,1.29,4.19,5,.54-5.58,2.84-.94,5.37-4.37,4.41,2.75,1.13,5.23,6,3.53,2.3,1.71-2,3.69-2,3.69,4.93.09,2.31-4.12,3.36-6.54,5.89-1.19,2.72,3.1,4.73,5.25,3.67-1.11,6.5-5,9.23-4.81.21.69.74.95.12,1.81C129,29,136.67,32.17,141.2,28a2.6,2.6,0,0,1,.59,1,12.78,12.78,0,0,1-.48-2.2h2.46a4.86,4.86,0,0,1,2.72-2.13c.69,1.87-.85,1.77-2.1,2.12h-.62c-.07.12-.14.3-.21.43a1.33,1.33,0,0,0-.42.86c0,.09-.08.15-.12.24l.07-.07s0,0,0,.06c1.34-.39,2.76-.94,4.17-1.51l-.17.59c2.94-.11,5.9-1.54,9.19-2.06-.15,3.1-7.81,1-3.42,4.28l-5.36-1.48c4.1,6.1-3.25-.43.51,6.1,7.05,1.13,7.89-2,14.92-.84,1.58-2.15-.53-3.18,1.06-5.33,10-3.87,7.87,9.73,15.22,4.57,1.49-2,2.29-5.4,5.07-5.56a.91.91,0,0,0,.07.14,2.85,2.85,0,0,1,.31-.12,5.77,5.77,0,0,1,2.42.66l-1.78,4.37c6.82.44,3.89-6.28,11-3.34-1.27,1.72-5.36,1.45-4.33,2,4.63,3.45,3.28-2.48,6.84-2.48l.73,3.87c7.27-.61,15.28-3.41,23.33-4.11-.45,1.15-1.83,2.36,0,3.55,10.15-1.94,21.67.47,31.47,2.77L258.16,31c.87,0,1.61,1.51.67,2.16,2.89,1,1.52-.75,1.48-2.21a10.84,10.84,0,0,0,2.65.15,1.51,1.51,0,0,1-.61,1.55,52.07,52.07,0,0,1,18-4A9.09,9.09,0,0,1,281.94,30c.57-.6.58-1,.33-1.35a17.62,17.62,0,0,1,4.84,1c.42.33.79.61,1.12.84l-1,.7a4.33,4.33,0,0,0,2.42-.1c4.31,1.27,5.22-2.66,8.18-3.93a4,4,0,0,1,.76.29l-1,.6c1.85.22,3.74.32,5.63.37a2.06,2.06,0,0,0,.62.79l.32-.77c.59,0,1.18,0,1.77,0,2.61.78,6.41,1,5.26,2.84,3.21-1.25,1.5-2.17-.85-2.86h0c5.48,1.83,8.63,0,14.34,1.31a3.65,3.65,0,0,1-.72-.79,23.63,23.63,0,0,1,8,2.51c1-2.63,4.39-1.77,7.46-1.52a8,8,0,0,1-2.17,2.21c5.27-2.61,9.85,1.71,12.85,2.19l-2.77,1.09a10.76,10.76,0,0,1,4.4-.62l-1.59-2.7c1.63.47,3,.48,3,1.6a2.11,2.11,0,0,0,.55-1.62,42.22,42.22,0,0,0,5.46,1.57A2.45,2.45,0,0,0,361,33c.23.05.42,0,.66.1.25.41-.23.75-.67,1,3.45,1.7,4.1.47,4.94-1.06l.36,0v-.65c.08-.13.16-.24.25-.37l1.58-1.35a5.31,5.31,0,0,1,2.65-.58c-.86,2,1.57,3.83,2.68,3.4-1.45,0-1.71-1-1.28-2.09l.74,1.35,3-.9a3,3,0,0,1-2.32-2.43,1.8,1.8,0,0,1,.19-.2,7.47,7.47,0,0,1,2.22-.28,5.15,5.15,0,0,0,1.42.09c3.82.58,7.54,3.14,7.63,4.48l11-3c-.24,1.41-2.09,1.89-3.55,2.8,5.89-3.59,1.07,3.7,6.47.41-.5-.55-.12-1.33.2-2a5.18,5.18,0,0,1,1.58-.21,10.62,10.62,0,0,0,2.57.83,5.91,5.91,0,0,0,5.72.47l-.1-.16a30.86,30.86,0,0,0,3.89-.48L412,34.62a64,64,0,0,0,8.3,0c-.18-1.17-.32-2.35-.5-3.52,3.94-1,8-3.25,13.46-2.15l-2.71-1.17c1.13-2.68,5.22-.38,8-1.46-.26,2.25,1.45,3.06,2.62,4.47-.14-1.67,6.19.15,7-4.34l3.78,3c6.83,1.21,7.79-6.41,14.35-5.64-2,2.44,1,4-3.39,5.78,2.2,0,4.17.44,4.2-1.12,1.28,1.41,6.08-3,8.09-.9.93-1,1.23-3.34,3.69-3.15a1.42,1.42,0,0,1,0,1.11c0-1.11,3.85-1.51,1.7-4,6.75,7,18.87-.51,24.75,5.51a141.59,141.59,0,0,1,14.89-1.64c-.28.68,0,1.12-.83.89,6,2.09,3.68-6.46,10.5-4.12,3.48,3.63-3.63,2-1.45,3.34.94,7.4,8.22-1,12.81,3.31l-1.11.44c3.5,2.51,8.56-2.81,14.28-2.28a1.51,1.51,0,0,0,0,1.12c3.92-3.78,11.33-5,16.84-6.07-1.71,2.89-2.5,1.53-1.45,4.47,2.47-.41-.73-4.72,4.21-5.55,1.6,1.59,5.16,3,5.63,6.12l-4.66.17c2.39,4.06,6-.14,8.48.56L583,29.49c7.13-.58,7.23-5,14.89-4.73l-.79-1.35c4.19-4.43,3.51,2.5,7.69-.8l1.26,4.5c2.76-1.09,9.68-4.35,14.63-5.2-2.8,3.34-8.6,5-12.19,7,2.74,0,9.31-.33,10.74-2.55-1.11.44-2.5,1.54-3.59.85q5-5.31,13.24-5.2c-1,8.72,14.22,2.2,18.18,9,9.65-3.23,19.15,1.37,30.39.86-4-6.78,3.29-.2,2.6-7.16,2.58-.44,3.57-.33,3.83.1l-.54-.28.57.33v0L691.86,29c1.88,2-2.49,1.54-2.25,3.1,5.73.53,2.4,3,6.2,4.8-.78-2.49,2-3.56,5.26-2.61l-4.6-3.22c8-3.7,6.93,5.85,15,2.18l-2.56,2.19c4.15-1.29,15.29,0,19.36-5.55.73.8,1.7,2.71-.12,3.21,9.9.84,22.05-5.95,29.75-2.51l-.75,1.7c1.85-.49,3.22-3.2,5.53-1.48-.12.7-.74,1.7.11,1.8,1-.59,4.91-3,7.36-2l-2.09,1.91c9.66,2.23,14.83-4.66,22.94-5.83,0,5,7.58,6.64,11.38,7.46l-.14.71c11.26.62,19.12-4.16,29.54-6.13,6.47,5.44,21.91,2.28,32.31,5.33-1.59-.91.26-3.91,2.1-4.41,2.44,1,6.75-3.48,6.36,1.12l-.87-.09c1.84,4.51,6.86,3.32,10.77,3.44l.64-6c10.25,8.75,26.84-3.21,32.43,4.62,2.47-1.5,5.53-1.48,8-3L923.38,33c6.84.82,10.26,1.23,18.72.46l-1.72,2.31c4.77.2,6-9.31,10.43-9.5L952.13,31c8.33-.08,16.76,4.15,25-.21-.13.7-.38,2.09-1.73,2.29,3.92.12,15.17,3.26,13.74-3.35.1,4.3,8.6.42,13.09-1.48l-.7,3.18c3.8-4.06,3.92-5.17,9.22-6.29,1.26.41,1.1,2.54-.56,1.73,4.18,1.66,3.26-3,8.33-1.32l-1.89,2c4.31.24,4-.85,6.34-3.21,2.71-1.27,8.17.8,8.8,3.67.58-1.75,2.94-4.09,5.48-3.26.35,1.09-.58,1.76-1,2.09,7.21,2.16,10.71-3.7,15.67-.58a2.51,2.51,0,0,0,.83,1.9c-5.72-.08-10.33-.25-9.89-.48,0,2.92,4.62,3.44.94,7.48,3.71-2.21,10-7,14.56-5.63a3.76,3.76,0,0,1,.6,1l-.47.33a3.65,3.65,0,0,0,2.85-.48,11.82,11.82,0,0,0,3.73.88c.53,2.42,5.3,1.31,7.6,1.43-.19-3.21,2.83-2.69,0-5.33.37.22-.43.38-2,.51a2.76,2.76,0,0,0-1,.33c0-.09.1-.19.16-.28-1.51.09-3.49.16-5.73.21,1.82-1.62,3.72-3,6.27-1.21,1.19-2.06,2.49-4.18,3.22-5.17,3.15,4.47,9.23,6.88,10.08,9.63,7-1.79,16.58-1.18,21-7.2,2-.77,2.3,1.73,3,2.67-1.16.61-2.53.51-3.16,1.38,4-1.55,11.86-.6,12.81-4.8,5,1.89-2.83,3.86,4.1,3.18l-.94,1.28c13.63,6.72,22.16-10.73,37.27-2.1-1-.53-1.57-.78-1.79-1.48,17.23,3.8,35.5-3.57,52.5,2.46,4.83,1.22,5.36-1.47,8.31-3.51l1,3.44,5-4c7.15-2.9,12.39,8.45,21.44,2.95l-1.17-2.32c3.25.44,10.3-1.36,9.75,1.3.34-.42,1.07-2.41,2.34-1.2l.1,1.8,8-3.09c6.19,1.31-1,7.15,8.06,7.5,3.36-.69,9.56-5.24,8.3-6.44C1278.35,23.23,1276.24,22.19,1276.14,20.39ZM211.69,5.94a3.52,3.52,0,0,0-.18.39,4.78,4.78,0,0,1,.6-1.61c1.53-.45,2,.18,2.26.83A23.33,23.33,0,0,0,211.69,5.94ZM26,13.49a.89.89,0,0,1-1.26-.15l-.08-1.48A3.64,3.64,0,0,1,26,13.49Zm-4.92-.58a1.68,1.68,0,0,1,.47-.54,2.83,2.83,0,0,1,2.72-.69ZM141.18,26.22a14,14,0,0,1-.09-3,5.48,5.48,0,0,0,2-.57A4.36,4.36,0,0,1,141.18,26.22Zm87.21.57c-.34-1.11,0-2.24,1-2.19-.52.74,1.76,1.38,3.2,2.32A36.35,36.35,0,0,0,228.39,26.79Zm822.22-14.51c.52-.74-1.76-1.38-3.2-2.31a39,39,0,0,0,4.2.12C1052,11.2,1051.58,12.34,1050.61,12.28Zm6.48-2.36V9.85l2.38-.18C1059,9.72,1058.29,9.78,1057.09,9.92Zm11.22,21a3.7,3.7,0,0,0,.18-.4,4.78,4.78,0,0,1-.6,1.61c-1.53.45-2.05-.17-2.26-.83A25.37,25.37,0,0,0,1068.31,31Z"/><path class="d" d="M1070.64,28c.23-.07.35-.21.64-.23a7,7,0,0,0-.92-.72c-.19.34-.37.67-.54,1Z"/><polygon class="d" points="913.7 3.84 913.71 4.64 914.56 3.94 913.7 3.84"/><path class="d" d="M98.79,9.92a5.76,5.76,0,0,0-.34,1.37l0,0Z"/><path class="d" d="M474,2.3s0,0,0,.05c.2,0,.38,0,.58,0Z"/><path class="d" d="M21.17,8.33a.93.93,0,0,1-.1.52L22,8.46Z"/><path class="d" d="M20.12,9.22c.44,0,.82,0,.95-.37Z"/><path class="d" d="M18.13,10l2-.81C19.43,9.22,18.58,9.12,18.13,10Z"/><path class="d" d="M52.6,9.61C50.9,9.34,48.33,7.13,46,7.86l-.22.92C46.86,7.05,51,11.57,52.6,9.61Z"/><polygon class="d" points="274.25 31.88 278.38 30.83 275.33 31.46 274.25 31.88"/><path class="d" d="M500,30.43l-.75-3.59C497.62,27.48,497.27,31.52,500,30.43Z"/><path class="d" d="M597,26.77c1.06,1.8,3.79,2.95,5.47,1.19C600.33,27.71,598.15,26.31,597,26.77Z"/><polygon class="d" points="886.02 33.82 889.7 32.82 887.97 32.62 886.02 33.82"/><path class="d" d="M44.27,33.46c0-.22,0-.37,0-.56C44,33.22,44,33.44,44.27,33.46Z"/><path class="d" d="M143.3,31.92A9.57,9.57,0,0,1,141.8,29C142.3,31.32,137.51,32.13,143.3,31.92Z"/><path class="d" d="M377.09,31.47l-1.19.38A1.23,1.23,0,0,0,377.09,31.47Z"/><path class="d" d="M210.18,8.87l-.82.05a2.67,2.67,0,0,1-.64.24,8,8,0,0,0,.92.72C209.83,9.54,210,9.2,210.18,8.87Z"/><polygon class="d" points="393.98 3.06 390.3 4.06 392.03 4.26 393.98 3.06"/></svg>