<svg xmlns="http://www.w3.org/2000/svg" xmlns:xlink="http://www.w3.org/1999/xlink" viewBox="0 0 59.98 101.34"><defs><style>.a{fill:none;}.b{clip-path:url(#a);}.c{clip-path:url(#b);}.d{fill:#efe4b8;}.e{fill:#333;}</style><clipPath id="a"><rect class="a" x="-2219.03" y="-1066.14" width="1924.39" height="2777.58"/></clipPath><clipPath id="b"><polygon class="a" points="-60.51 1710.36 -2453.16 1711.45 -2453.16 -1071.99 -60.7 -1071.99 -60.51 1710.36"/></clipPath></defs><path class="d" d="M30.93,9.07A18.49,18.49,0,0,0,9.81,17.79c-2.13,3.94-2.24,8.39-1.76,12.73C8.69,36.37,9.48,42.2,10.2,48l9-5.18c-3.91-2.93-1.26-9,.9-12.08,2.77-3.9,7.1-8,12.08-8.43l-5.18-9a76.58,76.58,0,0,0-11,36.19c-.31,6.23,8.14,7.78,11.18,3C32.73,44,38.27,35.61,46,28.88L36,23C32,34.4,22.73,43,20.47,55.14a6.08,6.08,0,0,0,8.81,6.78A43,43,0,0,0,52.14,33.48C55,21.26,50.38,3.18,34.46,4.76c-4.19.41-7.91,4.88-5.18,9C32.85,19.21,36.53,24.57,40,30.06c1.6,2.55,2.72,4.23,1.72,7.19-.79,2.33-2.26,4.48-3.26,6.73C36.13,49.2,35.84,54.3,36.6,59.92c.58,4.33,2.63,11-.72,14.76h8.49A43,43,0,0,1,36.21,59.9l-7.38,7.38c3.44.92,5.33,6,7.5,8.56a15.89,15.89,0,0,0,11.5,5.92v-12c-8.36,1.12-9.91-9.21-10.7-15.36-1-7.55-13-7.65-12,0C26.7,66.56,32,83.88,47.83,81.76c7.49-1,7.92-11.46,0-12-2.9-.2-5.39-6.13-7-8.14A16.63,16.63,0,0,0,32,55.71c-4.26-1.13-8.82,2.94-7.38,7.38A58.3,58.3,0,0,0,35.88,83.17c2,2.38,6.46,2.27,8.49,0,4.1-4.59,5.58-10.25,5.17-16.34-.26-3.83-1.36-7.62-1.41-11.46-.06-3.67,1.13-6.24,2.71-9.43,2.84-5.7,4.63-11.21,2-17.4C49.76,21.17,44,14.39,39.64,7.73l-5.18,9c9.68-1,6.65,13.68,4.4,18.88A32,32,0,0,1,23.23,51.56L32,58.33C34.25,46.5,43.59,37.5,47.52,26.23c2.11-6.08-5.87-9.47-10-5.84-8.43,7.36-14.6,16.73-20.59,26.08l11.18,3A63.64,63.64,0,0,1,37.4,19.37c2.22-3.67-.59-9.41-5.19-9-18.9,1.55-38,28.68-19,42.87,3.45,2.58,9.56-.86,9-5.18-.81-6.6-2.08-13.31-2.39-20-.23-4.79,2.69-8.91,7.93-7.44,7.44,2.09,10.62-9.48,3.19-11.57Z"/><path class="e" d="M47.56,9.71C41.8,4.11,34.4,1.92,25.23,3.2a12.34,12.34,0,0,0-1.92,1.15.9.9,0,0,0-.55,0,20.29,20.29,0,0,0-7.7,4.48c-.52.68-1.21,1.26-1.73,1.93a22.64,22.64,0,0,0-6,5.31A15.12,15.12,0,0,0,2,24.52,27.67,27.67,0,0,0,3,41.58,36,36,0,0,0,11.37,56.3c0-.13-.19-.23-.26-.49a27.12,27.12,0,0,0,9.25,7.5c.1-.16.2-.32.29-.48a39,39,0,0,1,4.55,8l-2.21-4c-.29-.06-.42,0-.35.23a92.62,92.62,0,0,0,4.21,10l-.13,0,.12.52c.16.65.19,1.33.35,2a11.87,11.87,0,0,0,5.32,7.77,5.26,5.26,0,0,0-.88,1.45A1.14,1.14,0,0,0,31,90a16.19,16.19,0,0,0,1.84,4.77,20.25,20.25,0,0,1,2.37.11l.13,0a7.8,7.8,0,0,0,.2,3.66,6.76,6.76,0,0,0,1.16.82c1.26.1,2.65.17,3.88.15-.13,0-.13,0-.09.16a3.1,3.1,0,0,0,3.39,1c0,.13,0,.13.19.23s.29.06.33.19c1.58-.25,3-.46,4.5-.68.23-.19.33-.35.55-.55a7.08,7.08,0,0,0,1.19-4.13,8.73,8.73,0,0,0,2.16-2.45c-.36-.33-.68-.52-1-.85a18,18,0,0,1-5.76,4,11.34,11.34,0,0,0-2.71-1.54,7.61,7.61,0,0,1,1.65-.54,26.05,26.05,0,0,0,6.17-1.77c2.37-1,3-2.25,2.22-3.84l-.39.09-.13,0c-.13,0-.13,0-.29-.07l.2-.32a1.8,1.8,0,0,1,.26-.62,1.66,1.66,0,0,0,.26-.61c.1-.16.07-.29,0-.55l-.1-.39L53,85.72a1.68,1.68,0,0,1-.52-.42,1.08,1.08,0,0,1-.68,0,.47.47,0,0,0,.23-.2c.06-.29-.1-.39-.1-.39a1.61,1.61,0,0,0-.8-.49l.68-1.12.78-.19-.09-.39c.1-.16,0-.55,0-.68a14.4,14.4,0,0,1,.56-1.65l-.26.06a7,7,0,0,1,1.11-1.64,17.78,17.78,0,0,0-1-8A38.14,38.14,0,0,1,51,56.12c1-2,1.9-4,2.76-6.16a8.23,8.23,0,0,1,.72-1.55,64.42,64.42,0,0,1-2.77,8.36,1.57,1.57,0,0,0,.74-.32,1.84,1.84,0,0,0,.27-.61,42,42,0,0,0,4.56-15.67c0-.13,0-.13.07-.29l0-.13q.34-2.78.71-5.53a2.34,2.34,0,0,1,0-1,52.15,52.15,0,0,1,0-7.7,9.43,9.43,0,0,0-1-1.95C55.35,17.43,52.17,12.85,47.56,9.71ZM27.4,7.61c-.32.36-.78.74-1.11,1.1a17.54,17.54,0,0,1,15.92,1.61,4,4,0,0,0,1.29.79A23.11,23.11,0,0,1,48,17.58a95.91,95.91,0,0,1,5.17,12.75,25.69,25.69,0,0,0-4.86-15.44,36.09,36.09,0,0,1,6,7.32l.19.78a45.35,45.35,0,0,1,1.06,17.88c-1.32,3.07-2.5,6.1-3.52,9.24.2-.88.4-1.75.59-2.62a.7.7,0,0,0,.14-.58,1.52,1.52,0,0,0,.17-1,12.63,12.63,0,0,0-3.12,6.94c-.21,1.43-.28,2.82-.35,4.21-.46,1.49-.93,3-1.42,4.33.23-.19.49-.26.72-.45.29-.48.55-1.1.85-1.58a77.5,77.5,0,0,0,.82,8.45,15.54,15.54,0,0,0-1.51-1.69c-.26.06-.39.1-.36.23a21.73,21.73,0,0,1,1.82,4.09A15,15,0,0,0,50.86,78c-.16.46-.42,1.07-.69,1.68a6.54,6.54,0,0,1-.91.77,2.38,2.38,0,0,0,1.1,0l.13,0a1.57,1.57,0,0,0,1.07.43A1.7,1.7,0,0,0,51.42,82c-.26.06-.62.29-.88.35-1.09-.56-1.81-.66-2.2,0a4.67,4.67,0,0,1,2.33,1.08l.26-.06a2.91,2.91,0,0,0-.37.77.84.84,0,0,0-.77.19l-.39.1a2,2,0,0,0-.52-.43c0-.13,0-.13.07-.29s.07-.29,0-.42a2,2,0,0,1-.51-.42c-1.43.34-2.89.56-4.31.91l0,.13a16.09,16.09,0,0,0-8.41,3.28.88.88,0,0,0-.77-.36L35.5,86a1.26,1.26,0,0,1-.77-.36.5.5,0,0,0-.36.23,1,1,0,0,0-.49.25c0-.42,0-.55,0-1l-.78.19-2.41-3.12a9.65,9.65,0,0,1-.67-1.62c-.77-1.47-1.4-3-2.17-4.42L27.6,75c.87,1.85,1.6,3.74,2.46,5.59a2.78,2.78,0,0,0,.23-.75l-.09-.39c-1.15-3-2.46-6.13-3.86-9.08A24.9,24.9,0,0,0,23,63.23c-.48-.84-1-1.82-1.5-2.79l-.23.19c.19.23.28.62.51,1a26.72,26.72,0,0,0-8.51-6.72c-.51.12-.64.15-.16.45a45.06,45.06,0,0,1,6.66,6.48A45,45,0,0,1,7.6,48.7a25.68,25.68,0,0,0,3.92,3.71c.1-.16.36-.22.3-.48a.27.27,0,0,0,.19-.32c-1-.85-1.77-1.63-2.67-2.51A25,25,0,0,1,4.85,42a16.35,16.35,0,0,1-1.08-3.31,14.52,14.52,0,0,1-.33-4.18,30.34,30.34,0,0,1,4-14.57C7,20.82,6.6,22,6.17,23.08c1.1,0,1.78-.57,2.15-1.89A35.17,35.17,0,0,1,11.07,15a21.58,21.58,0,0,1,2-1.86,19.28,19.28,0,0,0-2.29,4.13,61.33,61.33,0,0,1,4.5-5.77,38.41,38.41,0,0,1,8.58-4.29c-.13,0-.17-.09-.3-.06-1.06.12-2.29.15-3.49.3a1,1,0,0,0-.49.26,13.83,13.83,0,0,1,5.42-2,36.35,36.35,0,0,1,9.68-.3,23,23,0,0,1,4.68,2.3,26.93,26.93,0,0,0-9.93-1.29A8.29,8.29,0,0,0,27.4,7.61Zm12.82-.37c1.58.85,3.13,1.57,4.59,2.45l.8.49-.13,0a21.73,21.73,0,0,1,4.7,4.07A27.16,27.16,0,0,0,42.74,9.1C41.87,8.35,41.06,7.86,40.22,7.24Zm-21-.39A.41.41,0,0,0,19,7c-.68.58-1.4,1-1.95,1.58a4,4,0,0,1-1.1.54C17,8.36,18.18,7.52,19.25,6.85ZM42.32,88.6a6.68,6.68,0,0,1-1.72.28l0,.13a3.25,3.25,0,0,0-.56.55c-1-.17-1.87-.37-2.87-.54-.23.2-.36.23-.23.2a19.32,19.32,0,0,0,5.81,3c-.1.16-.23.19-.2.32-.13,0-.1.16.1.39a2.91,2.91,0,0,1,1.84-.31,20.79,20.79,0,0,1-3.85,1.08,54.85,54.85,0,0,0-6.27-3.15,12.34,12.34,0,0,1-.4-2.24.49.49,0,0,1,.42,0,.41.41,0,0,1-.23.19,2.43,2.43,0,0,0,1.29.23,3,3,0,0,0,.75.24.13.13,0,0,1,.09-.16l.33.19c2.2-.54,4.44-.94,6.67-1.35a4.17,4.17,0,0,0,1.36,1c2.39,1.35,4.42,1.81,6.21,1.24-.75.32-1.34.74-2,1l-1.69.41A18.43,18.43,0,0,1,42.32,88.6Zm-7,4.46a.54.54,0,0,0-.23-.36c-.13-.52-.38-1-.48-1.39a33.06,33.06,0,0,0,5.69,2.46,9.51,9.51,0,0,1-5.08-.55Zm.75,3.66a6.8,6.8,0,0,0-.54-1.65,2.68,2.68,0,0,0,.68.52A35.32,35.32,0,0,0,42.5,95a7.29,7.29,0,0,0,1.71,1.92,15.73,15.73,0,0,1-7.9.28A1,1,0,0,1,36.05,96.72Zm7.49,2.57a.52.52,0,0,0-.42,0l.26-.06Zm7-10.77a1,1,0,0,1,.38.46l.19.78c-.16-.1-.35-.33-.48-.3-1.55-.72-3.23-1.41-4.75-2,1.1,0,2.37.11,3.47.12a2.16,2.16,0,0,1,.67.52h0A1.76,1.76,0,0,0,50.54,88.52Z"/><path class="e" d="M38.38,33c0,.13-.06.29,0,.42a7.69,7.69,0,0,0-.92,2.42,18.16,18.16,0,0,1-2.57.77.13.13,0,0,1-.16-.1c-2.16-1-4.16-1.87-6.13-2.63l-.1.16a2.31,2.31,0,0,0,1,.59c.19.23.35.33.38.46a3,3,0,0,1,.74.78,3.16,3.16,0,0,0,.91.33A7.61,7.61,0,0,1,34.53,38a32.77,32.77,0,0,0,3.6-1,2.41,2.41,0,0,1,.13-.58A8.18,8.18,0,0,1,39,34.2l1-.26c.16.1.45.17.77.36l.52-.12c-.13,0-.13,0-.1.16-.13,0-.1.16-.07.29a1,1,0,0,0,.65.39c-.17.45-.23.75-.4,1.2l.1.39.87.2a33.11,33.11,0,0,0-4,17.58,3.39,3.39,0,0,0,0,1.1c.23-.19.49-.25.72-.45A4,4,0,0,1,39.52,54l-.13-.52a101.15,101.15,0,0,1,4-15.94.47.47,0,0,1,.07-.29c.06-.29,0-.42.16-.45l.13,0a.68.68,0,0,0,.46-.39.69.69,0,0,0,.13-.58,5.49,5.49,0,0,0-.48-1.39,3.86,3.86,0,0,0-.51-1l-1.43.35c0-.13-.16-.1-.19-.23-.74-.23-1.52-.59-2.26-.82Z"/><path class="e" d="M34.43,48.9l-.12-.52a1.86,1.86,0,0,1-.52-.43c-.68,0-1.33.19-2,.22-.42,0-.68,0-1.1,0-.1.16-.16.45-.29.49,0,.13-.07.29,0,.55a.45.45,0,0,1,0,.42,3.88,3.88,0,0,1-1.2.7c-.1.16-.23.19-.46.39L28.5,51a9.21,9.21,0,0,0,.6,1.91c.06.26.29.62.35.88A14.29,14.29,0,0,1,32,53.74l0,.13.73,3a139.37,139.37,0,0,0,6.34,21.54A1.11,1.11,0,0,0,39.6,78a.62.62,0,0,0,0-.42l-.69-2.85c-2.23-6.88-4-14-5.6-21.31.26-.06.32-.35.55-.54s.23-.2.33-.36a180.54,180.54,0,0,0,6.32,24.84c.13,0,.1-.16.06-.29a236.06,236.06,0,0,0-6-25.06l.1-.16a.57.57,0,0,0,.26-.62l-.35-1.42Z"/><path class="e" d="M10.6,23.24A97.83,97.83,0,0,1,21.24,8.84,41.41,41.41,0,0,0,8.5,23.62C6.27,28,5.66,32.28,7.19,36.3A21.32,21.32,0,0,1,10.6,23.24Z"/><path class="e" d="M28.55,36l-.12,0a5.59,5.59,0,0,0-.15,2.24,6.85,6.85,0,0,1-1,1.74,16.9,16.9,0,0,1-9.51-.16,3,3,0,0,0-.24.75c4.49,2.61,8.54,2.31,11.92-.71a1,1,0,0,1,0-.55A6.08,6.08,0,0,0,28.55,36Z"/><path class="e" d="M10,47.42c-.26.06-.39.1-.35.22a41.87,41.87,0,0,0,9,10.32.13.13,0,0,0,.1-.16C15.85,54.38,12.93,50.84,10,47.42Z"/><path class="e" d="M20.25,44.25c-.26.06-.39.09-.36.22A141.39,141.39,0,0,0,29.83,61c.06-.29.16-.45,0-.55A59.6,59.6,0,0,0,20.25,44.25Z"/></svg>