<svg xmlns="http://www.w3.org/2000/svg" xmlns:xlink="http://www.w3.org/1999/xlink" viewBox="0 0 110.22 113.19"><defs><style>.a{fill:none;}.b{clip-path:url(#a);}.c{clip-path:url(#b);}.d{fill:#f1e4b2;}.e{fill:#333;}</style><clipPath id="a"><rect class="a" x="-2023.7" y="-1071.1" width="1924.39" height="2777.58"/></clipPath><clipPath id="b"><polygon class="a" points="134.82 1705.4 -2257.83 1706.49 -2257.83 -1076.94 134.62 -1076.94 134.82 1705.4"/></clipPath></defs><path class="d" d="M12,9.22l-2.65.45,4.62,11,4.33-2.45L11,8.76,5.76,13.61C.45,18.51,7.19,25.77,13,23l9-4.21L14.76,9.39,6.71,16c-4.88,4,.44,11.35,5.84,10a66.37,66.37,0,0,0,11.81-4.19l-7.28-9.42L6.55,20.83c-4.57,3.63.39,12.31,5.83,10a152.73,152.73,0,0,0,18-8.84L24.35,11.66,6.75,23.49c-5.25,3.52-2,13.73,4.62,11l32.5-13.53L39.24,10,23.42,21.46c-6.33,4.61-1,13.38,6.06,10.37l34.24-14.6-6-10.36L22.14,26.07c-7,3.77-.84,13.27,6.05,10.36L88.66,10.9,82.61.53,8.52,36C2.35,39,6.7,48.9,13.15,47c25.49-7.57,50.11-17.63,74.68-27.74l-4.63-11-52.77,26c-6,3-1.72,13.54,4.62,11l69.11-28c7-2.85,4.08-14.37-3.19-11.57L28.84,33.36C21.78,36.07,24.45,47.1,32,44.93q21.78-6.21,43.05-14c7.15-2.61,4.23-14-3.19-11.57A305,305,0,0,0,43.2,30.45c-7.33,3.27-18.61,6.65-20.52,15.6-.62,2.92.84,6.81,4.19,7.38C38,55.33,48.88,54,60,52.3L56.8,40.73A55.64,55.64,0,0,0,39.38,51.78c-3,2.81-1.91,9.41,2.64,10,7.86,1.06,15.36.52,22.76-2.52,5.76-2.36,5.77-12.06-1.6-11.78a73.3,73.3,0,0,0-31.85,8.54c-5,2.67-3,11.81,3,11.19,6.36-.66,11.79-3,16.18-7.72a6.05,6.05,0,0,0-5.84-10l-4.82,1.1c-6.47,1.47-5.22,12.43,1.6,11.78,7.44-.7,9.37-11.3,1.37-13.09-6.13-1.37-16.45,3.63-18.44,9.47A5.9,5.9,0,0,0,26,64.59a6.43,6.43,0,0,0,5.29,2.08c2.64-.34,5.07-1.62,5.79-4.4l.12-.45A6.16,6.16,0,0,0,33,54.43,35.91,35.91,0,0,0,11,54.05C4.67,55.92,5.72,66,12.64,65.83c6.15-.12,11.52-5.19,10.13-11.7-1.21-5.67-7.48-8.53-12.71-6.91C3.93,49.12,4.65,59.87,11.65,59c5.83-.72,10.2-3.77,11.82-9.6,1.27-4.58-3-8.36-7.38-7.38A14.72,14.72,0,0,0,4.38,57.32c.57,8.08,7.28,13,14.77,14.16C28.28,73,37.82,73,47,73.29c10.11.37,20.27.62,30.38.36C85,73.45,95,73,101,67.61s6.66-15.39,7.56-22.94c1-8,2.77-20.06-1.52-27.38-4-6.78-14.42-8.63-21.48-10a138.37,138.37,0,0,0-29.94-2c-8.72.23-17.69,1-24.17,7.47a6,6,0,0,0-1.54,5.84C32.7,27,41.13,28.8,49.13,28.86c11.18.09,22.27-2,33.46-1.77,1.12,0,6.44,1.11,7.14.55l.17-5.26c-.72.16-1.45.28-2.19.37-1.23.19-2.46.34-3.7.51L68.3,25.43C59.83,26.6,50,27.51,45.59,36a6.09,6.09,0,0,0,3.58,8.82C59.62,47.78,69,41,79.22,40c1.68-.17,5,.5,6.47-.17,1.12-.51-1-.92-1.72-.9s-2.39.93-3.29,1.21a51,51,0,0,1-17.62,2.22l3,11.18c10.07-4.81,30.75-2.6,34-16.23H88.53a54.93,54.93,0,0,1,1.58,6.56A22.68,22.68,0,0,1,90.46,47a1.21,1.21,0,0,0-1.56.33c-3.29,2-8.8,2.23-12.54,2.83-8.51,1.35-16.77,2.58-24.43,6.78-5.16,2.82-2.91,11.4,3,11.18q15.9-.58,31.78-1.6c7.67-.49,7.72-12.5,0-12q-15.89,1-31.78,1.6l3,11.18c10-5.46,21.9-4.63,32.59-7.9,4.56-1.4,9.48-3.39,11.22-8.24,1.84-5.15-.23-12-1.69-17-1.6-5.52-10.15-5.9-11.57,0C87.85,37,78.75,37.53,76.27,38A68.77,68.77,0,0,0,60,43.18c-5.68,2.72-2.5,11,3,11.18A58.87,58.87,0,0,0,87.9,50.25c6.75-2.82,12.56-10,7.92-17.33-4-6.26-12.84-5.43-19.13-4.62A59.43,59.43,0,0,0,64.92,31c-4.06,1.37-8.24,3.49-12.56,2.28L56,42.1c1.8-3.5,6.46-3.8,10-4.33,5.84-.87,11.7-1.62,17.56-2.43,4.52-.63,10.17-.53,14-3.45a8.5,8.5,0,0,0,2-11.51c-5.39-7.8-20.4-5.46-28.36-4.88C65.08,16,59,16.63,53,16.81c-1.73.06-10.67,1.08-11.51-1.43l-1.54,5.84c4.56-4.59,12.37-3.93,18.35-4a119.45,119.45,0,0,1,23.21,1.51,78.81,78.81,0,0,1,11.12,2.84c4.72,1.6,4.57,3.23,4.68,8a93.9,93.9,0,0,1-2.51,24.78c-.73,3-1.4,4.55-4.39,5.62-4.09,1.46-8.65,1.63-13,1.74-8.47.21-17,0-25.44-.2s-17.13-.64-25.68-1.24c-2.56-.19-6.38.06-8.57-1.58-2.59-1.93-1.19-4.42,1.55-5L11.9,46.22a1.17,1.17,0,0,1-.25.79l1.6,11.78-.61-5,1.59,11.79A24.59,24.59,0,0,1,29.77,66l-4.19-7.38-.12.45,5.78-4.41-.61.08,4.24,1.76-.43-.41L36,61.94c-1,3,3.62-1.11,4.44-.8L36.23,57l.14.51L37,52.83l-.24.47,5.18-3-.44,0,1.59,11.79,4.82-1.1L42.06,51a12,12,0,0,1-7.7,4.2l3,11.18a59.21,59.21,0,0,1,25.79-6.91L61.59,47.72a31.57,31.57,0,0,1-16.38,2.51l2.65,10A40,40,0,0,1,60,52.3c7.16-2.94,4.51-12.74-3.19-11.57C48,42.06,38.94,43.37,30.06,41.86l4.19,7.38c.52-2.44,5.56-4,7.56-5q5.34-2.58,10.79-4.93c7.36-3.15,14.88-5.91,22.48-8.41L71.89,19.36q-21.27,7.79-43,14L32,44.93l72.13-27.69L101,5.67l-69.11,28,4.62,11,52.78-26c6-3,1.71-13.58-4.62-11C60.07,17.78,35.45,27.84,10,35.41l4.62,11L88.66,10.9c7.08-3.39.88-13.29-6-10.37L22.14,26.07l6.05,10.36,35.53-19.2c7-3.76.84-13.3-6-10.36L23.42,21.46l6.06,10.37L45.3,20.32c5-3.62,2.18-13.8-4.62-11L8.18,22.88l4.62,11L30.41,22c6.35-4.27.7-14.28-6.06-10.36A131.85,131.85,0,0,1,9.19,19.29l5.84,10,10.54-8.38c5.74-4.55-1.58-12-7.27-9.42a50.44,50.44,0,0,1-8.94,3l5.83,10,8.06-6.65c5.6-4.63-1.54-12.11-7.27-9.42L7,12.67l7.28,9.43,5.26-4.85c5.08-4.69-1.43-12.74-7.28-9.43L7.91,10.27c-6.28,3.55-1.76,12,4.62,11l2.65-.44C22.78,19.52,19.55,8,12,9.22Z"/><path class="d" d="M56.19,73a29.51,29.51,0,0,1,1.08,16.59c-1.13,5,6.59,7.16,7.71,2.13A37.38,37.38,0,0,0,63.9,70.9c-1.68-4.83-9.41-2.75-7.71,2.13Z"/><path class="e" d="M60.63,98.48h0a36.59,36.59,0,0,1-5.34,5.82,34.57,34.57,0,0,1-8.73,5.17,12.37,12.37,0,0,1-1.62,1,60,60,0,0,0,6.47-3.23.16.16,0,0,1-.16.16,43.57,43.57,0,0,1-9.86,5,3.37,3.37,0,0,1-.65.81h-.16c.16-.16.32-.32.32-.48a3.06,3.06,0,0,1-1.29.32,1.94,1.94,0,0,1-1.62-.16,25.25,25.25,0,0,0,2.75-.81c-.32,0-.48,0-.65-.16a6.74,6.74,0,0,0,1.62-.33c.16-.16.16-.32.49-.48a8.53,8.53,0,0,1-1.78.32h0l-.16-.16v-.16h.64a.51.51,0,0,1,.33-.16h-.17l1.46-.49L43,110a33.12,33.12,0,0,1-3.55,1.45h0c-.16,0-.16,0-.16-.16v-.16A8.73,8.73,0,0,0,42,109.63a11.24,11.24,0,0,0,1.78-1.29c-1.29.81-2.58,1.46-3.72,2.1-.32,0-.48,0-.32-.16a31,31,0,0,0,5.82-3.56,66.06,66.06,0,0,0,6.95-8.24.56.56,0,0,0,.16-.32,1.23,1.23,0,0,0,.33-.81c.48-1.46,1-3.07,1.45-4.69-.48.81-1,1.45-1.45,2.26h-.16a25.75,25.75,0,0,0,1.94-3.56A24.29,24.29,0,0,1,55.13,88a16.2,16.2,0,0,1,.32-2.91V84.9a24.61,24.61,0,0,1-.32-3.24A17.26,17.26,0,0,0,51.25,72c-.16,0-.16,0-.32.17h-.17a9.25,9.25,0,0,1-2.1.16c-3.07-.16-6-.16-9-.33,0,.17,0,.17.16.17h-.65A7.46,7.46,0,0,0,37.18,72H28.94c-2.1-.16-4.2-.16-6.31-.16-1.61.16-3.39.16-5.17.33h0a36.23,36.23,0,0,1-6-.17,3.15,3.15,0,0,1-1.29-.16c1,0,2.1-.16,3.23-.16-.16-.16-.32-.32-.49-.32H12c-.48,0-1.13-.16-1.61-.16h.16a3,3,0,0,1-1.13-.33H9.22a1,1,0,0,1-.65-.16v-.16A5.13,5.13,0,0,1,7,69.7a5.68,5.68,0,0,1-1.61-1.13A8.8,8.8,0,0,1,2.1,64H1.94v-.32a2.31,2.31,0,0,1-.32-1V60.16a.16.16,0,0,1,.16.16h.16c-.16-.32,0-.64,0-.8v-.33a43.07,43.07,0,0,1-.49-4.36v2.91c-.32-.16-.48-.65-.48-1.3C.81,54.67.65,52.89.65,51.11a57.13,57.13,0,0,1,.16-7.44V41.41A18.34,18.34,0,0,1,0,36.07V30.42a81.27,81.27,0,0,1,.65-11,6.11,6.11,0,0,1-.16-1.78A7.46,7.46,0,0,1,.32,15.7c-.16,0-.16-.32,0-.81A16.51,16.51,0,0,1,2.59,11C4,7.94,6.14,5.84,9.38,5c-.16,0-.33.16-.49.16A9.2,9.2,0,0,0,4,9.56,17.14,17.14,0,0,1,8.73,6.33,7.57,7.57,0,0,1,13.9,4.71h0c0,.48,0,.65-.32.48A1.73,1.73,0,0,0,12.29,5c-.33.16-.81.16-1.13.49-.49.32-.81.81-1.3,1v.32A.16.16,0,0,1,9.7,7a21.07,21.07,0,0,1,2.91-.81H11.8c-.16,0-.16,0-.16-.16V5.84a18,18,0,0,0,2.91-.32,10.75,10.75,0,0,0-2.26.16l-.16-.16a2.79,2.79,0,0,0,1.13-.16c2.42-.17,5-.49,7.6-.81a7.25,7.25,0,0,0,1.77-.16,1.23,1.23,0,0,0,.65-.33c0,.16,0,.16-.16.16s-.16.17-.32.17l5.33-.49h-6c1.29,0,2.59-.16,3.88-.16,3.07-.16,6.3-.16,9.38-.32.32,0,.48-.17.8-.17h0a.57.57,0,0,1-.48.17H38.8c3.56-.17,7-.33,10.35-.33a16.81,16.81,0,0,1,2.75-.16h.32c1.29,0,2.59.16,3.88.16H67.58a39.33,39.33,0,0,1,6.14,0c1.78-.16,3.56,0,5.5,0,2.1,0,4.2,0,6.47.16h2.58a2.09,2.09,0,0,1-1-.16,6.6,6.6,0,0,1,1.78,0c.65,0,1.13.16,1.94.16a74.77,74.77,0,0,1,8.25,1c.16,0,.32-.16.48-.16.32.16.49.33.81.49s.81.32,1.13.48c.16,0,.32.16.65.33h.16a22.24,22.24,0,0,1,2.75,2.74,4.72,4.72,0,0,0,.81,1.14c-.65-1.14-1.3-2.11-1.78-2.91A12.35,12.35,0,0,0,101,4.55c.33-.49.65-.49,1.14-.16A8.83,8.83,0,0,1,107.51,10h0c-.65-.8-1.13-1.61-1.78-2.26A13.24,13.24,0,0,1,108.48,13a10.55,10.55,0,0,1,1.13,2.92c-.16,0-.32-.17-.48-.33,0-.16-.16-.32-.16-.65A19.76,19.76,0,0,1,109,18a5.38,5.38,0,0,1,0,2.26v1l.48,15c.16,2.75.32,5.5.32,8.09a.56.56,0,0,1,.33.16v2.43a29.65,29.65,0,0,1,0,5.33A18,18,0,0,1,108.48,61v.16a16.4,16.4,0,0,1-.81,3.07,16.69,16.69,0,0,0,1.62-3.39l.16.16v.32a15.57,15.57,0,0,1-3.23,5.82,9.75,9.75,0,0,1-6.31,4.69v-.16c-.16,0-.16,0-.16-.16a5,5,0,0,1-1.29.32,3.17,3.17,0,0,0,1.29.16A141.51,141.51,0,0,1,85.36,73.1c-3.23.16-6.3.16-9.54.16-2.91,0-5.82,0-8.73-.16a41.19,41.19,0,0,1-.32,7.76A29.28,29.28,0,0,1,66,86.35c-.32,1.46-.81,2.75-1.13,4A42.68,42.68,0,0,1,60.63,98.48Zm-1-.32a8.21,8.21,0,0,0,1-1.46.16.16,0,0,1,.16-.16,25.39,25.39,0,0,0,2.42-4.69,34.73,34.73,0,0,1-2.1,3.23.5.5,0,0,0-.32.16c-.16-.16-.16-.16,0-.32a25.49,25.49,0,0,0,3.72-7.6,22.24,22.24,0,0,0,.8-5.82c.17-3.23.17-6.3.17-9.37H62.73A15,15,0,0,1,65.48,72v0h1a.5.5,0,0,0,.32-.16.5.5,0,0,1,.16-.32h0a5.47,5.47,0,0,1,0-1.62v.65a2.07,2.07,0,0,1,.16,1c2.11-.16,4.21-.32,6.31-.32l6.3-.49c-4.36-.16-8.56-.32-12.77-.16A55.64,55.64,0,0,1,74.21,70c1.94,0,3.88-.16,5.82,0l3.88.49h1.94c2.75,0,5.49-.16,8.4,0a27.83,27.83,0,0,0,5.66-3.07,11.28,11.28,0,0,0,2.91-2.59c.81-1,1.3-1.45,1.78-1.45v.16A15.58,15.58,0,0,1,97,69.7a14.33,14.33,0,0,0,2.59-.32,3.43,3.43,0,0,0,1.78-.65c.16,0,.16-.16.32-.16a33.42,33.42,0,0,0,5-6.79H107v.16c-.33.49-.49,1-.81,1.46-.16.16-.16.48-.33.64.17,0,.17-.16.33-.16,0-.32.16-.32.48-.32l-.16.16c-.16.32-.32.81-.48,1.13.48-.65,1-1.45,1.45-2.26h-.32c.16-.16.16-.16.16-.33a6,6,0,0,0,.81-1.77V59.35a2.4,2.4,0,0,1-.16-1.13c.16-1.61.48-3.23.64-5a9.3,9.3,0,0,1-.16-2.1c-.16,2.59-.32,5.17-.65,7.76v-.16c0-3.4.33-6.79.49-10.19V41.73c0-1.94,0-3.88-.16-5.82V31.38a19.87,19.87,0,0,1-.33-3.07H108c0-2.42-.33-4.85-.33-7.43h.16a18,18,0,0,0-.32-2.91,29.71,29.71,0,0,0-3.72-9.06,26.76,26.76,0,0,0-3.55-2.26.59.59,0,0,0,.16.48c-.16-.16-.16-.16-.33-.16-.16-.16-.32-.32-.32-.48a17,17,0,0,1-1.62-.65,8.11,8.11,0,0,1,1.94.32,1.24,1.24,0,0,1,.81-.16,1.83,1.83,0,0,1,1.3.49c.32.32.8.64,1.13,1V7.3c.16.16.32.32.32.48a.84.84,0,0,0,.65.32v.17c0-.17-.16-.33-.16-.49a11.19,11.19,0,0,0-2.59-2.26h-.16V5.36a8.17,8.17,0,0,1-1.62-.81h-.32a8.73,8.73,0,0,1,2.91,1.78h0a36.2,36.2,0,0,0-3.88-1.14.48.48,0,0,1,.32.17A31.73,31.73,0,0,1,94.9,5c-.65,0-1.45-.16-2.26-.16h-1.3C87,5,82.78,5,78.57,5,75,6.16,71.14,7.3,67.42,8.59h-.33A49,49,0,0,1,77.44,5a36.75,36.75,0,0,1-4.2,0c.16.16.32.33.32.49h-.81a1.76,1.76,0,0,0-.81-.16c-.16,0-.16,0-.16-.17a15.79,15.79,0,0,1-2.26.65c.64.16,1.29.32,2.1.49H70.16a4.21,4.21,0,0,0-1.45-.17A64.18,64.18,0,0,0,61.6,8.91h0a5.89,5.89,0,0,1,1.45-1.29,41.84,41.84,0,0,1,4-1.46c-1-.16-1.78-.16-2.74-.32C61.92,7,59.5,7.94,57.07,9.24c-.32,0-.32,0-.16-.17a45.79,45.79,0,0,1,6.14-3.23,23,23,0,0,1-3.23-.16C58.2,6.33,56.58,7,55,7.78h0a15,15,0,0,1,3.88-2.1H57.23a54.7,54.7,0,0,0-8.57,3.07l-.16.16c1-.64,1.94-1.29,3.07-1.94A21,21,0,0,1,55,5.68H53.51V5.52h-.64a45.59,45.59,0,0,0-9.22,3.55h-.32a31.31,31.31,0,0,1,8.24-3.71,28.86,28.86,0,0,1-3.72,0c-2.58,1-5.33,2.1-8.08,3.23-.32,0-.16-.32.49-.65a47.75,47.75,0,0,1,6.79-2.58H42.68a47.76,47.76,0,0,0-7.6,3.88V9.07a28,28,0,0,1,6.79-3.71,37,37,0,0,0-6.14,0,43.13,43.13,0,0,0-6,3.23c0-.49.48-1,1.45-1.62a20,20,0,0,1,3.24-1.61h0c.32-.17.48-.33.8-.33a6.07,6.07,0,0,0-1.77.16V5H33.3a2.46,2.46,0,0,0,1.14-.16H32.5a7.43,7.43,0,0,0-1.62.81h-.16c-1.78,1.13-3.72,2.1-5.5,3.07h-.16a9.24,9.24,0,0,1,2.1-1.29H27c-1-.16-1.78-.33-2.59-.49-1.29,1-2.42,1.78-3.55,2.75-.17,0-.17,0-.17-.16,1-1,1.94-1.78,2.91-2.59H21.83A30.13,30.13,0,0,0,17,10.53h-.17A27.9,27.9,0,0,1,21.18,7h-2.1L15.2,9.88C15,10,15,10,15,9.88c1.13-1,2.42-2.1,3.55-2.91l-4.85.49a32.91,32.91,0,0,0-4.2,2.1L7.6,11a.16.16,0,0,1-.16-.16A6.66,6.66,0,0,0,6,11.66c-.64.65-1.29,1.46-1.94,2.26a11.74,11.74,0,0,0-1,1.95H2.91a9,9,0,0,1,.65-2.27,2.6,2.6,0,0,0-.81.65c-.16,0-.16,0-.16-.16a7.64,7.64,0,0,0,1.13-1c0-.33.16-.49.32-.81a.34.34,0,0,1-.32.32H3.56l.81-.81c0-.16.16-.32.32-.48C5.34,10.53,6,9.56,6.63,8.75a18.81,18.81,0,0,0-3.72,4.37,34.53,34.53,0,0,0-1.29,7,2.77,2.77,0,0,1,.16,1.13c0,2.1,0,3.88.16,6a31.06,31.06,0,0,1,8.41-6.79h.16a.16.16,0,0,1-.16.16,69.25,69.25,0,0,0-8.41,7c0,2.92.16,5.83,0,8.73A20.67,20.67,0,0,0,9.86,32a.16.16,0,0,1,.16.16v.16a.55.55,0,0,1-.32.17A17.64,17.64,0,0,1,1.94,36.4a92.47,92.47,0,0,0,.65,9.37c.16,1.78.32,3.72.48,5.5,2.1-1.62,4-3.23,5.82-4.85h.16v.16c-.16.16-.16.16-.32.16a30.7,30.7,0,0,1-5.5,4.69H3.07c.33,1.78.33,3.56.49,5.34,2.42-1.78,4.69-3.4,6.79-5v.32a52.07,52.07,0,0,1-6.79,4.85c.16,1,.16,1.94.32,2.75,1.78-1.46,3.56-3.07,5.5-4.69H10c0,.16,0,.16-.16.16C7.92,56.93,6,58.38,3.88,60v.65A1,1,0,0,1,3.72,60c-.16.16-.32.32-.49.32H3.07c.16-.16.49-.32.65-.48-.16-.81-.49-1.62-.65-2.59a.56.56,0,0,1-.32.16v1.14c0,.8.16,1.45.16,2.1a11.94,11.94,0,0,0,1.62,3.23A15.27,15.27,0,0,1,6,65.82a.34.34,0,0,0,.32-.32A19.91,19.91,0,0,1,4,61.94a1.49,1.49,0,0,1,.16-.81v-1l.17.16v.17a3.63,3.63,0,0,0,1,2.58c1.45-1.29,2.74-2.58,4.2-4H10v.16c-1.61,1.3-3.07,2.75-4.68,4l.32.33A10.51,10.51,0,0,0,7,65c1.13-1.13,2.27-2.42,3.4-3.72h.32l.16.17h-.16C9.54,62.75,8.25,63.88,7.11,65a10,10,0,0,0,1,1.3c.17.32.33.32.33.48A14.43,14.43,0,0,0,10,65.17c.65-.8,1.14-1,1.62-.8-.16,0-.16,0-.16.16a.6.6,0,0,1-.49.16.16.16,0,0,1-.16.16A12.27,12.27,0,0,1,8.73,67c.32.49.65.81.81,1.13a16.93,16.93,0,0,0,2.59-2.26.3.3,0,0,1,.48,0l.16.16h-.16c0,.16,0,.16-.16.33a.16.16,0,0,0-.16.16,16.77,16.77,0,0,1-2.43,1.94l.49.48a3.81,3.81,0,0,0,.81-.64,7.78,7.78,0,0,1,4.52-2.11v.17a49.25,49.25,0,0,0-5,2.91c.49.32,1,.8,1.62,1.29h.32c1,0,1.94.16,3.07.16H16a26.11,26.11,0,0,1,5.65-2.75l-.16.16c-1.61.81-3.23,1.62-5,2.59.81,0,1.62-.16,2.43-.16a18.84,18.84,0,0,1,6.3-1.94v.16c-.16.16-.16.16-.16.32-.16,0-.16,0-.16.17h-.33a22.14,22.14,0,0,0-4.68,1.45H23l.16-.16a.16.16,0,0,1,.16-.16c.16-.16.49-.33.65-.49a.16.16,0,0,1,.16.16l-.16.17a.56.56,0,0,1-.33.16h.81a35.71,35.71,0,0,1,5.82-1h0a38.1,38.1,0,0,1-4,1.13H32.5l9-1a13.19,13.19,0,0,0,2.75-.65,12.11,12.11,0,0,1-4,1.46,1.24,1.24,0,0,1-.81.16L48,71c.48,0,1.29-.16,1.94-.16,0-.16,0-.16-.16-.16h-.33a.59.59,0,0,0-.16-.48c.16-.33.32-.33.65-.17l1,.49h1a1.28,1.28,0,0,1-.65.32l.32.33a1.26,1.26,0,0,0,.65.16v.16h0a.16.16,0,0,1-.16.16A11.65,11.65,0,0,1,54,75l.48,1h.17a22.33,22.33,0,0,0-4-7.76A13.6,13.6,0,0,1,55,74.71a33.42,33.42,0,0,0,0-5.66c.32,0,.48.17.64.49v.16c0,1.62,0,3.23-.16,5a15,15,0,0,1,.65-2.58c.16-1,.32-1.3.81-1.62v.16c-.16.65-.16,1.13-.33,1.62h.33v.32a40.81,40.81,0,0,1-1,6.14c.16.81.32,1.46.48,2.27,0-.33.16-.65.16-1-.16-1.13-.16-2.1-.32-2.91a.16.16,0,0,1,.16.16l.49,1.94c0-.16.16-.65.16-1V75.68a8.53,8.53,0,0,1,.32,1.78l.49-1a.56.56,0,0,1,.32.16v.16a1.87,1.87,0,0,1-.48,1.3v.16A3,3,0,0,0,58,79.4a3.82,3.82,0,0,0,.32-1.29h.49v.16c-.16,1.13-.32,2.1-.49,3.23V83A27.06,27.06,0,0,1,54.48,97c-.32.65-.81,1.3-1.13,2.11-.65,1.13-1.29,2.26-1.94,3.23l.16-.16c-.16.16-.16.16-.16.32a.56.56,0,0,1-.32.16,12.46,12.46,0,0,1-2.1,2.75c.16-.16.32-.16.48-.32a4.83,4.83,0,0,0,1.29-1.3c.33-.16.49-.48.65-.64,1.29-1.3,2.26-2.27,3.4-3.24,0,.16,0,.16-.16.16a64.56,64.56,0,0,1-6.31,6.8h-.16l.81-.81c-1,.81-1.78,1.78-2.75,2.75h-.16a6.8,6.8,0,0,1,1.77-1.94,12.9,12.9,0,0,0-1.61,1c-.33.32-.49.64-.81.8h0a4.09,4.09,0,0,1-1,.81c.32,0,.48-.16.81-.16a28.56,28.56,0,0,0,3.07-1.78.5.5,0,0,1,.32.16c-.16,0-.32,0-.32.17-.16.16-.32.16-.49.32a.53.53,0,0,1,.33-.16c1.45-1,2.91-1.94,4.2-2.75,0,.16-.16.16-.16.32-.16,0-.16,0-.32.16a32.12,32.12,0,0,0,5-4.36C57.88,100.26,58.85,99.13,59.66,98.16ZM66,80.69c0-.64.16-1.29.16-1.94V75.2h0a9.25,9.25,0,0,1,.16-2.1h-.64a.92.92,0,0,1,.64-.17v-.8c0,.32,0,.64.17.8h.32v-.8H65.48a2,2,0,0,1,.16,1A39.64,39.64,0,0,1,66,80.69Zm.81-7.59h-.32a6.07,6.07,0,0,0,.16,1.77C66.61,74.39,66.77,73.74,66.77,73.1Zm.32-.17h.33a18.74,18.74,0,0,0,3.07-.16H69.2a40,40,0,0,1,4.36-.32,3.58,3.58,0,0,1-1.29-.16.16.16,0,0,1-.16.16v-.16H67.26a3.15,3.15,0,0,1,1.29-.16H67.09Zm0-1.45v.32a4.55,4.55,0,0,0,1.46-.16h1.13A14.09,14.09,0,0,1,67.09,71.48ZM71.3,72c1-.16,1.94-.16,2.91-.32A38.46,38.46,0,0,1,70,71.8,3.63,3.63,0,0,0,71.3,72Zm22.31-.64h.16a.16.16,0,0,1,.16.16c.49-.16,1.13-.16,1.62-.32A7.91,7.91,0,0,0,93.61,71.32Zm-.65.32h0c-.65,0-1.13-.16-1.78-.16H91l-11.32,1c4.85-.16,9.54-.32,14.23-.65h1.29l5.18-.48c.16-.16.48-.16.64-.33a3.57,3.57,0,0,0,1.3-.8h0a8.85,8.85,0,0,1-2.43,1,1.76,1.76,0,0,1-1.78,0c.81-.33,1.62-.49,2.43-.81a.5.5,0,0,0,.32-.16V70H101a.35.35,0,0,1,.33-.32l-2.43,1h.33a1.8,1.8,0,0,1-.81.16,36.13,36.13,0,0,1-4.53.81h0c.16,0,.16,0,0,.16A2.07,2.07,0,0,0,93,71.64Zm2.91-1.45a4.12,4.12,0,0,1-1.13.32c.81.16,1.78,0,2.59.16.16-.16.48-.16.64-.32A4.52,4.52,0,0,1,95.87,70.19Zm6.95-1.46-1.13,1.13a12.17,12.17,0,0,1,1.94-1.13,7.08,7.08,0,0,0,1.13-1.13c.16-.16.33-.49.49-.65A13.1,13.1,0,0,1,102.82,68.73Zm2.27-1.62a.16.16,0,0,1,.16-.16c.32-.32.32-.48.64-.64C105.57,66.63,105.25,66.79,105.09,67.11Zm2.42-3.88c.16-.32.32-.48.32-.8.17,0,.17-.17.17-.33C107.83,62.43,107.83,62.91,107.51,63.23Zm1.94-13.09a30.59,30.59,0,0,1-.48,5.5,24.71,24.71,0,0,0,.64-3.88A6.14,6.14,0,0,0,109.45,50.14ZM62.57,4.71c-.33.16-.33.32-.65.32a20.79,20.79,0,0,1,3.23.16,3.87,3.87,0,0,0,1.3-.32,31.39,31.39,0,0,1-3.88-.16ZM59.5,3.58a7.87,7.87,0,0,1,1.93-.16H58.69A1.49,1.49,0,0,1,59.5,3.58Zm7.76,1.29a7.05,7.05,0,0,0-1.14.49c.65.16,1.46.16,2.27.32C69.2,5.52,70,5.19,70.81,5h-.65C69.2,4.87,68.23,5,67.26,4.87Zm41.06,12.45V17a16.66,16.66,0,0,0-1.94-5.66c-.16,0-.32-.33-.32-.49,0,.33.16.49.32.81a11.64,11.64,0,0,1,1.78,5.5A.16.16,0,0,1,108.32,17.32Zm0,.32a11.31,11.31,0,0,1-.16,3.24c0,.64.16,1.29.16,1.94Zm1.45,32.66V50c0-.33-.16-.81-.16-1.3v.65C109.61,49.65,109.77,50,109.77,50.3ZM43.49,110.6c-.32.33-.65.49-.81.65a12.34,12.34,0,0,0,2.91-1.45A11.28,11.28,0,0,1,43.49,110.6Zm5.17-5v-.16a6.61,6.61,0,0,0,1-1.13l-.16.16-1.78,1.78A3.11,3.11,0,0,0,48.66,105.59ZM13.42,71.32l.32.32a5.58,5.58,0,0,0,1.62-.16A8,8,0,0,1,13.42,71.32ZM10.83,70a2.21,2.21,0,0,1-.64-.48H9.7c.16,0,.32.16.49.32C10.35,69.86,10.67,70,10.83,70ZM7.76,68.57c.16,0,.16.16.32.16,0,.16.17.16.33.32A2.28,2.28,0,0,0,7.76,68.57Zm-.16-.81c.16-.16.16-.32.32-.32a17.38,17.38,0,0,1-1.45-1.78L6.14,66a.35.35,0,0,0,.33.33A8.41,8.41,0,0,0,7.6,67.76Zm.48-.32-.32.32,1,1c0-.16.16-.16.32-.32C8.73,68.08,8.41,67.76,8.08,67.44Zm1.14,1.29-.17.16c0,.16.17.16.33.33a.48.48,0,0,0,.32-.17C9.54,69.05,9.38,68.89,9.22,68.73Zm-1.3,1c.16,0,.16,0,.49.16a1.58,1.58,0,0,1-.81-.64,3.73,3.73,0,0,1-1.3-.81A12,12,0,0,0,7.92,69.7Zm48.5,18.92c-.16,1-.32,2.1-.48,3.07a28.36,28.36,0,0,1-.81,3.55c.48-1.13,1-2.26,1.29-3.23a34,34,0,0,0,1.46-8.89c-.16.65-.33,1.29-.49,1.78A13.86,13.86,0,0,1,56.42,88.62Zm.16-2.27a3.62,3.62,0,0,0,.33-1.29c0-1.62.16-3.07.16-4.53v-.48c-.16.81-.32,1.45-.49,2.26v4Zm1-5.49.17.16v.64a4.49,4.49,0,0,1,.16-1.45,7.33,7.33,0,0,1-.16-1.78c-.17.16-.17.16-.17.32v2.11ZM55.45,77a1.23,1.23,0,0,1,.33.8c.32-1.61.48-3.23.64-4.68h0a18.33,18.33,0,0,1-1.13,3.23A1.22,1.22,0,0,1,55.45,77Zm-5-5.82V71c0,.17-.16.17-.32.17Zm.65.48c-.16,0-.16,0-.16-.16a.62.62,0,0,1-.49.16h.65Zm-48-7.76c0,.16,0,.16.16.16a9,9,0,0,0,3.07,3.4c-1-1.13-1.77-2.1-2.74-3.4a3.37,3.37,0,0,1-.49-.81Zm-.32-6.63a.5.5,0,0,0,.32-.16c-.32-1.62-.64-3.39-.81-5.17L1.78,46.1h0A17.75,17.75,0,0,0,1.94,49c.16,2.75.49,5.66.65,8.4v-.16ZM1,39a12.26,12.26,0,0,1-.16-2.42c0-1.94,0-3.72-.16-5.66.16,3.4,0,6.79.16,10.19C.81,40.28,1,39.63,1,39ZM5,12.31c-.16.16-.32.32-.48.32-.16.32-.16.32-.16.49C4.53,13,4.69,12.63,5,12.31ZM1.94,13.44a14.43,14.43,0,0,1-1,1.62,1.76,1.76,0,0,1,.16.81v.48c0-.32.16-.65.16-1.13l.16.16Zm3.72-2.59c-.16.33-.32.65-.49,1A15.63,15.63,0,0,1,7.76,9.88c.49-.32.81-.81,1.29-1.13C7.92,9.4,6.79,10.21,5.66,10.85Zm-2.59,1.3A9.59,9.59,0,0,1,4.2,10.69a.16.16,0,0,1-.16.16l-.64.65C3.23,11.82,3.23,12,3.07,12.15Zm5-4.05A22.16,22.16,0,0,0,6.3,10.21a21.21,21.21,0,0,1,4.53-2.75.16.16,0,0,1-.16-.16C9.86,7.62,8.89,7.78,8.08,8.1Zm.81,1.46a15.24,15.24,0,0,0,1.62-.81,16.8,16.8,0,0,1,1.78-1h-.16A12.64,12.64,0,0,0,8.89,9.56ZM9.22,7.3c0-.17.16-.17.32-.33H9.38c-.16.16-.16.33-.33.33Zm4.2-.49a2.31,2.31,0,0,0-1,.32.35.35,0,0,1,.32.33c1.13-.33,2.1-.81,3.07-1.13ZM15.2,7h0a39.39,39.39,0,0,1,4-.48,1.35,1.35,0,0,1,.48-.33h-.64A35.2,35.2,0,0,0,15.2,7Zm7.6-.64h-.17a1,1,0,0,0,1,0Zm-.81,0h.32a10.13,10.13,0,0,0-2.26-.17l-.33.33A10.85,10.85,0,0,1,22,6.33ZM22.63,6h0Zm1,0c-.16,0-.32,0-.32.16a1.67,1.67,0,0,1,1.29.17l1-.49A7.36,7.36,0,0,0,23.6,6Zm1.78.49a5.7,5.7,0,0,1,1.78.81c1-.49,1.78-1,2.75-1.46h-3.4A7.55,7.55,0,0,0,25.38,6.49ZM27.48,5H25.06A8,8,0,0,1,27,5.19.59.59,0,0,1,27.48,5Zm1-.16a1.21,1.21,0,0,1-.64.32c.81.17,1.78.17,2.58.33a9.8,9.8,0,0,0,1.3-.65Zm8.41,0-1,.49c2.1-.17,4.2-.17,6.31-.17a11.1,11.1,0,0,0,1.61-.64c-.48,0-.81.16-1.29.16C40.58,4.71,38.64,4.71,36.86,4.87Zm1-.48h.65a5.82,5.82,0,0,0,1.78-.17H38.32C38.15,4.22,38,4.39,37.83,4.39Zm-2.1.32h.32a5.58,5.58,0,0,1,1.46-.49H34c.16.17.16.17.32.17A3.26,3.26,0,0,1,35.73,4.71Zm7.11.48h4.69l1.94-.48v.16a3,3,0,0,1-1.13.32A42.86,42.86,0,0,0,52.87,5c.64,0,1.29-.16,1.94-.16h-.33a2.09,2.09,0,0,1,1-.16c-3.72-.16-7.43-.16-11-.16A11.16,11.16,0,0,1,42.84,5.19Zm.49-1.29a.16.16,0,0,0,.16.16,12.26,12.26,0,0,0,2.42-.16Zm12.45.81A4.79,4.79,0,0,1,54.32,5h1.62a11,11,0,0,1,2.26-.32H55.78Z"/><path class="e" d="M59.66,86.51h.48v.33C59,89.26,58,91.69,56.75,94.11h0A29.72,29.72,0,0,1,53,100.26h-.16c1.45-2.43,2.74-4.69,4.2-7.12h0C57.88,91,58.69,88.78,59.66,86.51Z"/><path class="e" d="M60.46,82.15v.16a25.65,25.65,0,0,1-2.26,7.6c-.16.16-.16,0-.16,0C58.69,87.16,59.66,84.58,60.46,82.15Z"/><path class="e" d="M60.14,77.78c.16,0,.16.17.16.17a46,46,0,0,1-1.77,9.21c-.17,0-.17,0-.17-.16C59,83.77,59.5,80.69,60.14,77.78Z"/><path class="e" d="M69.68,69.54h0a11.46,11.46,0,0,1,1.94-1.13,19,19,0,0,1,7.11-2.1v.16C75.66,67.44,72.59,68.41,69.68,69.54Z"/><path class="e" d="M66.61,69.22v-.17a45.94,45.94,0,0,1,7.92-4.36,1.23,1.23,0,0,1,.81.16c.16,0,.16,0,.16.16v.16c-.16,0-.16.17-.16.17h-.49a.5.5,0,0,0-.32.16C71.94,66.63,69.2,67.92,66.61,69.22Z"/><path class="e" d="M106.06,60.81h0c.48-4.2,1.13-8.41,1.45-12.61.16,0,.16.16.32.32v.16A51.07,51.07,0,0,1,106.06,60.81Z"/><path class="e" d="M107.19,38.34c-.16.16-.16,0-.16,0a103.91,103.91,0,0,1-.33-12.29v.16Q106.94,32.27,107.19,38.34Z"/><path class="e" d="M74.85,8.27c-.16-.17-.16-.17-.16-.33,1.94-.64,3.88-1.29,6-2.1,0,.16.17.16.17.16s-.17,0-.17.16c-1.94.81-3.88,1.46-5.82,2.11Z"/><path class="e" d="M4.69,61.62H4.53A40.15,40.15,0,0,1,9.7,56.28a.16.16,0,0,1,.16.16v.17c-.16,0-.16,0-.16.16A45.67,45.67,0,0,0,4.69,61.62Z"/><path class="e" d="M4.37,51.76h0c0-.17,0-.17-.17-.17v-.16a23.11,23.11,0,0,0,2.91-1.29s.17,0,.17.16c0,0-.17,0-.17.16A14.42,14.42,0,0,1,4.37,51.76Z"/><path class="e" d="M4.37,45h0c1.93-1.78,4-3.4,6-5.18h.16V40a.48.48,0,0,1-.32.17A43.27,43.27,0,0,1,4.37,45Z"/><path class="e" d="M3.23,42.22H2.91a70.24,70.24,0,0,1,6.47-4.69c0,.16,0,.16-.16.16C7.28,39.15,5.34,40.6,3.23,42.22Z"/><path class="e" d="M2.91,32.84H2.59C5.5,30.74,8.25,29,11,27.34a.16.16,0,0,1-.16.16C8.25,29.28,5.5,31.06,2.91,32.84Z"/><path class="e" d="M3.23,39.15c-.32.16-.32.16-.32,0l2.91-2.43A14,14,0,0,1,9.7,34.94h0C7.44,36.4,5.34,37.69,3.23,39.15Z"/><path class="e" d="M2.59,35.1c-.33-.32,0-.64,1-1.13,1.94-1.13,3.88-2.26,5.82-3.23v.16C7.11,32.35,5,33.81,2.59,35.1Z"/><path class="e" d="M3.72,47.71H3.56A24.37,24.37,0,0,0,9.7,42.38H10l.33-.32c.16,0,.16,0,.32.16h-.16A24.81,24.81,0,0,1,3.72,47.71Z"/><path class="e" d="M2.91,23.3c-.16.16-.16.16-.16,0A85.39,85.39,0,0,1,12,17l-.32.32C8.73,19.26,5.82,21.36,2.91,23.3Z"/><path class="e" d="M2.1,20.23c-.16.16-.16.16-.16,0A27.43,27.43,0,0,1,8.08,16v.16C6,17.48,4,18.77,2.1,20.23Z"/><path class="e" d="M2.91,30.09H2.75A16.14,16.14,0,0,1,10,24.6c0,.16,0,.16-.16.16A49.62,49.62,0,0,0,2.91,30.09Z"/><path class="e" d="M5,13.6H5A21.67,21.67,0,0,1,16.17,7.94a.16.16,0,0,1,.16.16.16.16,0,0,0-.16.17A32.48,32.48,0,0,0,5,13.6Z"/><path class="e" d="M13.74,10a.16.16,0,0,1,.16.17v.16c-.16,0-.16,0-.16.16-2.26,1.78-4.52,3.72-6.95,5.34h0C8.89,13.92,11.32,12,13.74,10Z"/><path class="e" d="M74.21,70v-.16c-1.62,0-3.4-.16-5-.16a24.47,24.47,0,0,1,3.23-.32h2.42A17.76,17.76,0,0,1,81,67.6v.16a39.73,39.73,0,0,0-4.69,1.62h2.75c1.13-.33,2.58-.81,3.88-1.3v.17a11.48,11.48,0,0,1-3.56,1.13c1.78,0,3.56-.16,5.17,0a7.05,7.05,0,0,1,2.59-1h.32c-.16,0-.32,0-.32.16-.65.32-1.45.48-2.1.81h1.45a.16.16,0,0,1,.17.16c1.13-.32,2.26-.65,3.55-1-.16.16-.32.16-.48.32a22,22,0,0,1-3.56,1V69.7c-3.88.16-7.76.16-11.48.16a.59.59,0,0,1-.48.16Z"/><path class="e" d="M12.61,70.51c-.16,0-.16,0-.32-.16v-.16a.48.48,0,0,0,.32-.17c1.46-.64,3.07-1.45,4.53-2.1.16,0,.16,0,0,.16a19.23,19.23,0,0,1-4.37,2.43Z"/></svg>