<svg xmlns="http://www.w3.org/2000/svg" xmlns:xlink="http://www.w3.org/1999/xlink" viewBox="0 0 169.12 191.71"><defs><style>.a{fill:none;}.b{clip-path:url(#a);}.c{clip-path:url(#b);}.d{fill:#00a19b;}.e{fill:#f1e4b2;}.f{fill:#d27571;}.g{fill:#333;}</style><clipPath id="a"><rect class="a" x="-2196.26" y="-1210.73" width="1924.39" height="2777.58"/></clipPath><clipPath id="b"><polygon class="a" points="-37.74 1565.77 -2430.39 1566.85 -2430.39 -1216.58 -37.94 -1216.58 -37.74 1565.77"/></clipPath></defs><path class="d" d="M61.35,66.11c5,10,11.13,21.54,12.23,32.85.58,5.92-.41,12-.57,17.91a199.87,199.87,0,0,0,.65,20.62c.55,7.16,9,11.45,14.51,6a69,69,0,0,0,13.15-17.44c4.21-8.17,3.42-14.84,0-23.08A106.4,106.4,0,0,0,90.65,83.14C86.86,77.63,82.79,72.25,81,65.71l-12.49,9.6C77.78,81.17,87.28,86.65,97,91.67q6.9,3.56,14,6.82c2.49,1.14,5,2.27,7.51,3.36l4.37,1.87,1.86.78q1.86.93-.27-.59l-.86-6.55-.3.87,3.9-5.08c1.22-.54.8-.55-1.28-.05l-3.83.55-5.73.82c-3.62.52-7.72,1.77-11.34,1.31l4.29,1.16c-2.38-1.46-4.9-5.93-6.67-8.08-3.94-4.76-13.09-2.27-14.21,3.75-2.29,12.38,7.69,23.11,20.41,19.55L98.09,104c-.46,8.9,2.37,15.19,7.33,22.32q7.6,11,15.24,21.92l15.24,21.91c4.39,6.32,8.56,14.86,15.69,18.45s16.65-4.05,11.63-11.63q-24.87-37.52-51.85-73.57c-2.75-3.67-7.35-5.55-11.63-3-3.62,2.12-5.82,7.93-3,11.63q27,36,51.85,73.57l11.63-11.62c-2.38-1.21-3.58-3.72-5.08-5.87l-6.77-9.74-13-18.66-13-18.67c-2-2.85-4.18-5.65-5.9-8.68-1.57-2.78-1.53-5.11-1.36-8.31.28-5.54-5.66-9.62-10.76-8.19-1,.28.69.37.5,1.36l-14.2,3.75c3.15,3.81,6.34,9.32,11.13,11.17,5.24,2,11.86-.15,17.22-.91,5.06-.73,12-.49,16.49-3.12a9.9,9.9,0,0,0,1.94-15.3c-3.43-3.63-9.21-5-13.67-7q-7.92-3.54-15.68-7.46C97.45,72.88,87.14,67,77.09,60.63c-6.36-4-14.39,2.62-12.48,9.6,3.25,11.9,11.85,20.59,17.45,31.29,2.25,4.29,6.82,11.24,4.58,16a50,50,0,0,1-10.49,14l14.51,6A194.83,194.83,0,0,1,90,115.88c.23-7,1.09-13.88.07-20.88C88.19,82,81.91,69.21,76,57.53c-4.93-9.77-19.6-1.18-14.68,8.58Z"/><path class="e" d="M31.86,13.27C14.44,27.2,6.45,51.74,12.44,73.25a58.66,58.66,0,0,0,17.32,27.83c8.59,7.58,22,16.08,33.79,11.54,13.74-5.3,13.44-25.69-1.47-29.06a24.79,24.79,0,0,0-7.93-.51c-3.23.48-1.41-.16-1,0,1.79.7-1.63-1.71-1.78-1.86A48.82,48.82,0,0,1,37.74,41.86c.48-3.94,1.61-8,4.84-10.56,3.68-2.9,8.71-4.23,13.28-4.74C66.43,25.39,80.48,28,88.67,35.25c3.92,3.48,3.75,10.25,4.43,15.1l3.09,22.14c.84,6,8,8.22,12.92,7.34,6-1.07,10.76-6.06,12.59-11.74,2-6.31.13-12.56-2.55-18.32a123.48,123.48,0,0,0-17.28-27.52C87.87,5.6,64.07-5.49,42.61,2.83c-5.29,2.05-9,7.05-7.34,12.92,1.39,5,7.6,9.39,12.92,7.33,12.53-4.86,25.3.23,34.5,9.31A77.09,77.09,0,0,1,95,48.9c1.89,3.25,3.72,6.59,5.32,10-.14-.3,1.69,3.85,1.36,3.57-.18,1-.07.57.32-1.33a4.6,4.6,0,0,0,1.55-1.55l12.91,7.33c-1.2-8.61-2.37-17.22-3.61-25.83-1.12-7.77-3.42-15.14-9.31-20.68C92,9.56,73.1,4.53,57.56,5.44c-16.39,1-33,8.18-38.6,24.74-4.87,14.28-2.43,31.05,3.36,44.64A67.91,67.91,0,0,0,36.47,96c3.44,3.46,7.41,6.47,12.27,7.5a30.92,30.92,0,0,0,6.07.52,8.28,8.28,0,0,0,2.63,0c1,.09.85,0-.35-.28q-1.91-.78-.12.36l-3.77-3.77Q51.66,94,57,93A23,23,0,0,1,53.59,92a35,35,0,0,1-4-2.18,38.06,38.06,0,0,1-17.4-24.23C28.92,51.3,35.66,37,46.71,28.12c4.44-3.54,3.7-11.15,0-14.85-4.38-4.38-10.4-3.55-14.85,0Z"/><path class="f" d="M67.27,26.77C52.14,21.58,34.6,30.32,31.89,46.61,29.6,60.38,40.25,69.35,44.18,81.23c2.89,8.75,14,14.39,21.46,6.88s1.13-17.37-2.47-25c-1.29-2.74-2.32-5.92-3.84-8.5,1.27,2.16-2.61,1.22,1.91,1.14,6.66-.12,13.85,4.07,19.17,7.65,7.19,4.83,15.13-1.77,15.8-9.07.7-7.53-5.23-11.94-10.82-15.59a70.89,70.89,0,0,1-12.78-11c-9.27-9.88-24.1,5-14.85,14.84a88.23,88.23,0,0,0,10,9.19c3.14,2.47,7.66,4.52,10.15,7.58l-2.7-4.63,0-.4L91,45.27C78.88,37.1,59.4,29.44,46.27,39.55a19.39,19.39,0,0,0-7.19,20.64c1,3.52,2.8,6.82,4.35,10.11l2.41,5.11c.32.68,2.67,6.61,2.42,4.17l1.44-5.3-.55,1.11,6.28-4.83-1,.42H60l-1.16-.27,4.63,2.7c.75.6,1,2.68.54.47A22.08,22.08,0,0,0,62.62,70a45.92,45.92,0,0,0-3-6.18c-2.1-3.51-5-6.82-6.56-10.63-2.26-5.58,3.45-8,8.65-6.19C74.5,51.41,80,31.13,67.27,26.77Z"/><path class="g" d="M14.6,30a20.73,20.73,0,0,1-1.25,4.08,72,72,0,0,0,.94,38.32A95,95,0,0,1,13,44.1a58.64,58.64,0,0,1,8.79-24.81c.32-.31.95-.94,1.26-1.26A51.64,51.64,0,0,1,60.14.76h-.31A28.12,28.12,0,0,0,54.49.13a57.12,57.12,0,0,0-22,7.54,12.27,12.27,0,0,0,3.14-2.51,39.61,39.61,0,0,0-11.93,9.42,53.18,53.18,0,0,0-8.48,10A38.24,38.24,0,0,0,8,45v2.52a24.89,24.89,0,0,0-.32,5,52.13,52.13,0,0,0,2.52,19.79,31.22,31.22,0,0,0,5,11.93,33.71,33.71,0,0,0,4.08,6.59,17.2,17.2,0,0,0,1.89,2.52q-16.48-16-17-39.57a3.36,3.36,0,0,0-.94,2.82A91.11,91.11,0,0,0,6.44,75.19a33.18,33.18,0,0,0,8.79,15.08,50.75,50.75,0,0,0,13.82,11,52.31,52.31,0,0,0,4.4,3.45L25,100a41.27,41.27,0,0,1-8.47-6A60.23,60.23,0,0,1,7.06,80.22C.78,65.46.15,50.38,5.81,35.62a36,36,0,0,0-5,14.45c-1.88,11-.31,21.35,4.09,31.72a39.59,39.59,0,0,0,15.07,17,168.25,168.25,0,0,0,26.69,14.44c5,2.51,9.74,2.83,14.14,1.26a10,10,0,0,1-4.09-.63,171.39,171.39,0,0,1-16.33-6,34,34,0,0,1-6.59-4.39,49.2,49.2,0,0,0,14.76,4.08,76,76,0,0,0,14.76,1.57,19.74,19.74,0,0,0-6.91-2.51A64.59,64.59,0,0,1,35,100c-8.17-4.39-14.14-9.73-18.22-16.33a45.11,45.11,0,0,1-6.59-18.53c-.32-.63-.32-1.25-.63-1.88v.31c-.32-3.45-.63-6.91-.63-10a24.92,24.92,0,0,0,2.2,6.28C9,48.81,10.21,39.08,14.6,30ZM28.1,98.75A59,59,0,0,1,23.71,94a51.91,51.91,0,0,0,16.64,10.67,54.8,54.8,0,0,1-11.61-5.34C28.42,99.06,28.1,99.06,28.1,98.75Z"/><path class="g" d="M101,4.84h-.32a28.71,28.71,0,0,0,4.71,6.6A56.77,56.77,0,0,0,94.69,3.27h-.63a.31.31,0,0,0-.32.32c.63,1.88,2.2,3.14,4.09,4.39,6,3.77,11.3,8.17,15.07,13.51a63.6,63.6,0,0,1,8.17,33.6v5.65a21.77,21.77,0,0,1-2.83,5.34,20.73,20.73,0,0,1-1.88-6.28c0-4.39-.32-8.48-.63-12.56a23.88,23.88,0,0,0-1,6.6c.32,3.76.63,7.22,1,10.67,0,.32.31.63.31,1.26a3.38,3.38,0,0,0,2.83,2.51A8.47,8.47,0,0,0,123,61.37a55.44,55.44,0,0,0-.31-14.44V45C120.75,28.71,113.53,15.52,101,4.84Z"/><path class="g" d="M93.12,6.73H92.8a48,48,0,0,1,16.65,16A44.57,44.57,0,0,0,91.23,10.5a1,1,0,0,1-.63-.32l-.31.32-.31.62a27.56,27.56,0,0,1,17,11.94A52.55,52.55,0,0,1,116,42.53c.32,2.51.94,5,1.26,7.54a80.32,80.32,0,0,1,.31,8.79l.32.31c.31.32.62.63.94.63A46.48,46.48,0,0,0,118.55,45a9.23,9.23,0,0,0-.62-2.82c.31.31.31.62.62.94a79.5,79.5,0,0,1,1,17.27c0,1.26.62,1.26,1.57.63v-.63a64.85,64.85,0,0,0-3.77-24.5,63,63,0,0,0-15.08-23.55c0-.31-.31-.31,0,0s.63.94,1.26,1.57A47.09,47.09,0,0,0,93.12,6.73Z"/><path class="g" d="M93.74,56.66a21.89,21.89,0,0,0-.94-11C87.77,32.48,78,25.26,63,24.94a32,32,0,0,0-22.62,8.17,19.84,19.84,0,0,0-6.28,10.36A33.37,33.37,0,0,0,32.5,57h0c0,.31,0,.31.31.31.32,6,2.83,11.94,6.92,17.27C46.32,82.73,54.17,86.5,64.22,86.5A33.39,33.39,0,0,1,42.55,75.19a29.27,29.27,0,0,1-8.48-17c2.2,1.89,4.71,3.46,6.91,5.34,7.85,6.28,15.7,11.94,23.87,17.27a1.16,1.16,0,0,0,.94-.31.31.31,0,0,1,.32-.31c0-.32,0-.32-.32-.63A322.12,322.12,0,0,0,34.07,57a12,12,0,0,1-.31-3.14c-.63-10.05,3.77-17.59,12.56-22.62S64.22,25.57,74,29.34Q92.8,36.4,93.74,56.66Z"/><path class="g" d="M93.74,42.22c-.31-.32-.31,0-.31,0a148.28,148.28,0,0,1,3.45,26.06V68A39.94,39.94,0,0,0,93.74,42.22Z"/><path class="g" d="M94.37,50.7a.3.3,0,0,0-.31.31,26.84,26.84,0,0,1-.32,14.13.31.31,0,0,1,.32-.31A18.34,18.34,0,0,0,94.37,50.7Z"/><path class="g" d="M91.23,54.15v-.31A56.06,56.06,0,0,0,77.1,39.39v.31A122.33,122.33,0,0,0,91.23,54.15Z"/><path class="g" d="M88.09,57a1.11,1.11,0,0,1-.32-.63A128.35,128.35,0,0,0,68,36.88h-.31a.31.31,0,0,0-.32.31c-.31,0-.31,0-.31.32v.31A165.75,165.75,0,0,1,85,56.35c.63,0,.94,0,1.25.31C87.15,57.29,87.77,57.6,88.09,57Z"/><path class="g" d="M57.63,35.62v.63A247.08,247.08,0,0,1,82.13,59.8a1.08,1.08,0,0,0,.62-.31v-.63c-.31,0-.31-.31-.62-.63A108.86,108.86,0,0,0,58.57,35.31h-.32C57.94,35.62,57.94,35.62,57.63,35.62Z"/><path class="g" d="M24,20.55A70.16,70.16,0,0,1,40.35,7.67a1.17,1.17,0,0,0-.94.31A45.71,45.71,0,0,0,22.77,21.17h.94C23.71,20.86,23.71,20.55,24,20.55Z"/><path class="g" d="M49.15,34.68c-.32-.32-.63-.32-.63,0,3.14,3.77,6.28,7.54,10,11.31A58.49,58.49,0,0,0,71.76,57a1,1,0,0,0-.31-.63C64.54,48.5,57.31,41,49.15,34.68Z"/><path class="g" d="M45.06,41c-.31,0-.31,0-.31.31C49.77,46,54.49,51,59.2,56.35h2.51c-.31,0-.31,0-.31-.32.62.32,1.25.32,1.88.63A159.1,159.1,0,0,0,68.93,83c.32,7.54,1.57,15.08,2.52,22.62C73,116,74.59,126.07,76.78,136.12a5.26,5.26,0,0,0,.32,2.2v.31c.63,3.14,1.25,6,2.2,9.11a.67.67,0,0,0-.63.63c-.32,0-.63.31-.63.94v2.2c0,.31.31.31.63.63.31-.32.63-.63.94-.63a.67.67,0,0,1,.63-.63c0-.31.63-.63.63-.63v-.31a113.12,113.12,0,0,0,17-24.18h-.32c1.57-2.2,2.83-4.4,4.4-6.6a1.13,1.13,0,0,1,.31-.63,2.71,2.71,0,0,0,.94-1.88l-.94.94c-.31-.32-.63,0-.94.31l-6.59,5.66a58.48,58.48,0,0,0-13.51,19.78c-.31.63-.94,1.26-.94,1.89-1.57-8.17-2.51-16.33-3.77-24.5-.31-6-.94-11.93-1.57-17.9v-.63c1.88,10.36,4.08,21,6.59,31.41.32-.32.32-.63.64-1-1.26-6.59-2.52-13.19-3.46-19.78a301.9,301.9,0,0,0-6.91-30.15A226.76,226.76,0,0,0,65.48,57.6c-.32,0-.32,0-.63.32a1.17,1.17,0,0,1-.31-.94,19.87,19.87,0,0,1,5.65,1.88c3.45,1.57,6.59,3.14,10,5a343,343,0,0,1,32.35,19.78A167,167,0,0,0,135.2,97.49c2.2,1.57,4.39,2.83,6.28,4.4-9.42,2.2-18.84,4.08-28.27,5.34l.32.31h3.77c.63.31,1.57.31,2.2.63a2.88,2.88,0,0,1,1.57.31,9.25,9.25,0,0,0-2.83.63,4.42,4.42,0,0,0-.94-1.26H117c.32.32.63,1,1,1.26a5.91,5.91,0,0,1-2.2.63,2.37,2.37,0,0,0,1.57.31H117c6.6,9.74,12.88,19.47,19.47,29.52a271.57,271.57,0,0,0,28,37.69c-2.52,2.51-5,5.34-7.54,8.17a20,20,0,0,0-6.28.31A362.05,362.05,0,0,1,125.46,149,169,169,0,0,0,104.11,121v-.62c-.32-.32-.32-.32-.32-.63a1.13,1.13,0,0,1-.31-.63h-1.26v.31a2.07,2.07,0,0,0,.63,2.52,55.25,55.25,0,0,0,4.08,4.71h0c1.26,2.2,2.52,4.39,3.77,6.59a15.93,15.93,0,0,0,1.89,4.08,137.73,137.73,0,0,0-13.51-13.5h0a18.16,18.16,0,0,1,2.2,2.51c-.63.32-.31.63.31,1.26a144.54,144.54,0,0,1,12.57,15.7c.62.94,1.25,1.57,1.57,2.2a124.65,124.65,0,0,0,25.43,38.94,1.07,1.07,0,0,0,.32-.62A144.47,144.47,0,0,1,133,171.61a53.63,53.63,0,0,1-3.45-5.66,178.84,178.84,0,0,0,21,25.76l.31-.32v-.63c-.31-.31-.63-.94-1.25-1.57.31,0,.62,0,.62-.31v-.31c-.31-.32-.31-.32-.31-.63a1.08,1.08,0,0,1,.63-.32,14.12,14.12,0,0,1,3.14.63v.32a1,1,0,0,1,.31.62,3.37,3.37,0,0,0,1.57.32,31.84,31.84,0,0,0,11.94-10.37v-.62a1.18,1.18,0,0,1,.31-1c.31.63.94,1,1.26,1.57-.32-.62-1-1.25-1.26-1.88-.31-.31-.31-.63-.31-1.26a1.13,1.13,0,0,0-.63-.31h-.32c-7.85-9.74-14.76-19.79-22-30.15a398.37,398.37,0,0,0-25.44-35.17,72.47,72.47,0,0,0,8.17-.63,55,55,0,0,1,7.22-.63q6.6-.94,9.42-4.71a1.17,1.17,0,0,1,.95-.31,27.4,27.4,0,0,1,3.14,1.88c.31,0,.62,0,.62-.31v-.32a10.41,10.41,0,0,1-1.88-1.88h.62a.31.31,0,0,1,.32.31c0-.31,0-.31-.32-.31.32-.32,1.26-.32,1.89-.32v.32h1.89c.31,0,.31-.32.62-.63v-.63c-.31,0-.94-.31-.94-.63-.31-.31-.63-.62-.94-.94v-.31c.31,0,.31,0,.31.31v-.31a7.18,7.18,0,0,1,1.57-.95h-1.25c-.32.32-.63.32-1.26.32a42.86,42.86,0,0,0-6-4.4L149,97.18c-12.25-6-23.87-12.25-36.12-18.53C99.08,71.42,85.58,64.51,72.07,57.92h-.31l.31.31c-2.82-1.57-5.33-2.82-8.16-4.08-.32-.94-.63-2.2-.94-3.45a.31.31,0,0,0-.32.31A8.53,8.53,0,0,1,63,53.84c-.95-.63-1.89-1-2.83-1.57h-.31A27.4,27.4,0,0,1,63,54.15V56c-.63-.31-1.57-.62-2.2-.94h0A84,84,0,0,0,45.06,41ZM64.54,56.35a13.56,13.56,0,0,1-.32-1.57,64.31,64.31,0,0,0,6.6,3.77c.94.31,1.57.94,2.51,1.25C70.5,58.55,67.68,57.6,64.54,56.35ZM79.3,149v-.31h0Zm1.25-1.57a.31.31,0,0,0,.32-.31A.31.31,0,0,1,80.55,147.42Zm49.94-56.21a34.62,34.62,0,0,0,3.45,1.88h-.31a1.14,1.14,0,0,0,.94.32c2.83,1.25,5.66,2.51,8.48,4.08a4.21,4.21,0,0,1,1.25.94,7.09,7.09,0,0,0-3.45-.94C137.4,95.29,133.63,93.41,130.49,91.21Zm-11.62,20.1c-.32,0-.32-.32-.32-.63-.31,0-.31-.31-.62-.63h.62c1.57,2.2,2.52,4.4,4.09,6.6C121.38,114.76,120.12,113.19,118.87,111.31Zm23.55-12.56c1,.31,2.2.62,3.45.94h.32c0,.31.63.63.94.63a9.25,9.25,0,0,1-2.83.63c-1.25-.63-2.19-1.58-3.45-2.2Zm3.77,3.45h-.32l1.89-.94c0,.31,0,.31.32.31a1,1,0,0,1,.31.63s-.63,0-.63-.31A3.44,3.44,0,0,1,146.19,102.2Zm-7.53-5c.31.31.62.31,1.25.62h-.32C139.28,97.8,139,97.49,138.66,97.18Zm-23.25,44a6.74,6.74,0,0,1-.94-1.57l1.89,2.83A4.28,4.28,0,0,1,115.41,141.14ZM166,175.69l-.63.63c-1.57-2.2-3.14-4.09-4.71-6.28C162.52,171.92,164.09,173.8,166,175.69Z"/><path class="g" d="M41.3,45.67H41A121.6,121.6,0,0,0,60.14,62a1.16,1.16,0,0,0,.94-.31.31.31,0,0,1,.32-.32c0-.31,0-.31-.32-.63A237.37,237.37,0,0,0,41.3,45.67Z"/><path class="g" d="M37.21,51.32V52c7.54,6,14.76,12.25,22.3,18.85l.32-.32v-.63l-.32-.31A100.94,100.94,0,0,0,38.16,51h-.32C37.53,51.32,37.53,51.32,37.21,51.32Z"/><path class="g" d="M37.53,66.4h-.32c3.14,2.2,6.6,4.4,10,7.22a21.57,21.57,0,0,0,3.14,2.51A43.65,43.65,0,0,0,64.85,84l-.31-.31A158.77,158.77,0,0,0,37.53,66.4Z"/><path class="g" d="M75.53,78c-.94,1.88-.94,4.08-.63,7.22,3.14,15.08,5.65,30.15,7.85,45.23H84a56.91,56.91,0,0,1-.63-7.23A316.62,316.62,0,0,0,75.53,78Z"/></svg>