<svg xmlns="http://www.w3.org/2000/svg" viewBox="0 0 138.78 104"><defs><style>.a{fill:#f1e4b2;}.b{fill:#00a19b;}.c{fill:#d27571;}.d{fill:#333;}</style></defs><path class="a" d="M49.62,18.77C42.45,21,37.88,26.47,34.8,33.15c-3.45,7.47-6.17,14.73-4.88,23.06,1.34,8.72,6,14.83,11.26,21.59,4.76,6.07,9.5,9.48,17.36,10.29,15.24,1.55,30.86-2.25,39.6-15.66,8.45-13,7.91-31.57-1.85-43.62-11-13.54-32.6-17.49-47.83-9-6.74,3.77-.7,14.14,6,10.36,11.53-6.44,28.7-1.92,35,9.78,5.9,11,1.91,27.39-9.28,33.41-5.74,3.09-13,3.25-19.43,2.88-7.12-.41-9.85-5.23-13.89-10.52C42.47,60,40.19,53.18,42.41,46c1.65-5.3,4.53-13.84,10.4-15.7C60.14,28,57,16.43,49.62,18.77Z"/><path class="b" d="M91.11,43.94c-1.87-2.51-2.59-5.64-4.88-7.89a41.11,41.11,0,0,0-6.65-5.7,27.4,27.4,0,0,0-20.9-2.53,6.49,6.49,0,0,0-1.74.8c-5,.8-9.55,3.15-12.25,8-5.94,10.63-4.35,25.85,5.8,33.4a5.4,5.4,0,0,0,2.95,1.14,5.89,5.89,0,0,0,2.48,1.22c10.62,2.53,26.89,1.52,32.46-9.87,1.5-3.07,1.87-7.31,1.69-11.35A4.84,4.84,0,0,0,91.11,43.94ZM77.76,57.1C74.57,62.82,64.14,62,59.11,60.77a7.47,7.47,0,0,0-1.51-.18,7,7,0,0,0-1.05-1c-2-1.47-3.12-6.16-3.46-8.46-.39-2.55.5-6.7,2.21-8.72,4.21-5,14-1.5,18.63.61,3.26,1.47,3.65,2.84,3.82,6.39C77.83,51.1,78.2,56.31,77.76,57.1Z"/><path class="c" d="M79.6,46.84a12.19,12.19,0,0,0-4-4.85,6.26,6.26,0,0,0-1.36-.93c-5.6-2.81-11.84-4.75-17.45-.81a10.85,10.85,0,0,0-4.37,10.11,11.32,11.32,0,0,0-.23,3.86c.69,6.78,6.69,10.5,13.28,10A16.28,16.28,0,0,0,71,62.9a12.42,12.42,0,0,0,1.83,0C81.42,62.37,82.69,53.33,79.6,46.84Z"/><path class="d" d="M103.44,39.06h0a13.63,13.63,0,0,1-.26-2,23.89,23.89,0,0,0-4.06-9.56h-.26a20.66,20.66,0,0,1,2.62,5.76s0-.26-.14-.26a33.62,33.62,0,0,0-9-12.31c-4.19-5.11-10-7.86-17-8.12-.78-.27-1.7-.53-2.62-.92-.78.26-.65.52.4,1.05-.66-.13-1.31-.13-1.84-.26A17.42,17.42,0,0,0,66.77,11c-.13-2.23-.26-4.33-.39-6.55,0,.39-.26.91-.26,1.44C66,3.57,66,1.21,65.85-1.14c-.26-.14-.39,0-.39.13-.26,4.19-.26,8.12-.13,11.91h-.66a29.4,29.4,0,0,0-9.29,2.23,27.52,27.52,0,0,0-7.08,4.19A34.51,34.51,0,0,0,31.15,34.61a27.44,27.44,0,0,0-2.62,15.71H20c-2,.13-3.8.13-5.77.13-.65.14-1.31.14-2.09.27a.45.45,0,0,0-.26.13,11,11,0,0,0,2.35.39c4.85.13,9.69.26,14.41.26.13.53.13,1,.26,1.44a32.89,32.89,0,0,0,7.6,19.78A41.13,41.13,0,0,0,40.71,78a47.73,47.73,0,0,1-12.84-20.3,10.1,10.1,0,0,0,1.18,5.76A49.29,49.29,0,0,0,50.79,86.08c.66.39,1.18.65,1.71.91h-.14a12.35,12.35,0,0,0,6,2.1,47.91,47.91,0,0,0,7.33.39c.13,5.24.26,10.48.26,15.72a1.77,1.77,0,0,0,.53-.53c.26-3.4.26-6.81.26-10.21v-5A54.5,54.5,0,0,0,74.89,88a10.9,10.9,0,0,0,9.17-2.88,18,18,0,0,1-2.23.52,3.44,3.44,0,0,0-1.18.14,10.54,10.54,0,0,1,1.7-.92.42.42,0,0,0,.27-.13C91.13,82.41,97,77.56,100.3,70.1a30.8,30.8,0,0,0,5-16.37,2.94,2.94,0,0,0,.13,1.05v-.4a17.76,17.76,0,0,0-.13-2.62l16.64-.39a26.32,26.32,0,0,0,4.58-.26h.39a10.14,10.14,0,0,0-2-.26c-3.93-.26-7.86-.4-11.92-.4h-7.86c-.26-2.74-.65-5.63-1.18-8.38A13.4,13.4,0,0,0,103.44,39.06Zm-1.18-2a7.5,7.5,0,0,1,.13,1.7,27,27,0,0,0-2.09-5.37c-.4-.92-.79-1.7-1.18-2.62.52.65,1.18,1.44,1.7,2.23C101.34,34.35,101.87,35.79,102.26,37.1Zm.66,11.39h.26v2h-.66C102.65,49.8,102.79,49.15,102.92,48.49Zm1.7,2h-.26v-2A10,10,0,0,0,104.62,50.45ZM104,56c.14-1.44.27-2.89.4-4.2h.26C104.49,53.07,104.23,54.52,104,56Zm-1.57-4.2h.79a35.79,35.79,0,0,1-3.41,13,11.89,11.89,0,0,0-1,2.75,33.48,33.48,0,0,1-1.58,3v.13a66.06,66.06,0,0,0,3.28-18.86h.78c-.78,4.33-1.57,8.65-2.48,12.84.13,0,.39-.13.52-.13a.48.48,0,0,1,.13-.39C100.56,60,101.61,56,102.39,51.76Zm-69-18.59a49.7,49.7,0,0,1,3.28-4.06,17.83,17.83,0,0,1,2.49-2,25.84,25.84,0,0,0-2.75,5.77c.91-1.45,1.83-2.89,3-4.59.52-.78,1.18-1.7,1.7-2.49a5.33,5.33,0,0,1,1.18-.65h.13c0,.13.13.39.26.39s.13.13.4.13c-.14-.26-.14-.52-.27-.78v-.13a72.88,72.88,0,0,1,22.53-8.25c0,2.88.13,5.63.26,8.38l-.78.39h0A30.79,30.79,0,0,0,49.22,29c-2.88,1.7-4.19,3.66-3.8,6.15a16.17,16.17,0,0,0-4.71,5.11,18.6,18.6,0,0,0-3,10.21c-2-.13-3.93-.13-5.9-.13a29.8,29.8,0,0,1,4.46-12.57,2.82,2.82,0,0,0-1.58,1.44,26.58,26.58,0,0,0-3.79,10,32.44,32.44,0,0,1-.27-3.54A47,47,0,0,1,31.41,40a.48.48,0,0,0,.13-.39,7.17,7.17,0,0,0,1.05-2.75c-.13,0-.13,0-.26.13a13.93,13.93,0,0,1-1.44,2.62A34.32,34.32,0,0,1,33.37,33.17Zm-1.7,18.46c2,0,4.06,0,6,.13a20.14,20.14,0,0,0,.39,2.76c0,.39.13.78.13,1.17a15.47,15.47,0,0,0,3.67,8.39A39.14,39.14,0,0,0,55.77,75a3.21,3.21,0,0,1-.79-.53,20.38,20.38,0,0,0,4.33,1.44,11.34,11.34,0,0,0,3.4.92,21.55,21.55,0,0,1,2.88.26c0,2.88,0,5.9.13,9-2.62-.26-5.11-.66-7.59-1a42.21,42.21,0,0,1-7.34-3.4.66.66,0,0,0,.4.13,2.9,2.9,0,0,0-.66-.13A44.57,44.57,0,0,1,36.26,67.87H36a28.37,28.37,0,0,0,1.44,3.41c-.13-.26-.26-.39-.39-.66a5.65,5.65,0,0,1-.52-.91A66.43,66.43,0,0,1,31.67,55ZM77.51,15.88c-1.57-.65-3.14-1.18-4.72-1.7.53.13,1,.26,1.71.39,1,.39,2.22.79,3.4,1.18A.48.48,0,0,0,77.51,15.88Zm-.79.39.13.27h.66A72.51,72.51,0,0,1,88.64,21.9a12.82,12.82,0,0,0,1.44,1.18,5.71,5.71,0,0,0,1.31,1.18c.79.92,1.7,1.71,2.49,2.62a7.58,7.58,0,0,1,1.7,2.49,8.73,8.73,0,0,0,2.1,3.27,4.24,4.24,0,0,0-.39-2.22h.13c.52.78.91,1.7,1.44,2.62A36.22,36.22,0,0,1,101,38.28l.13.13c-.26-.13-.26,0-.26.13a6.34,6.34,0,0,1,.39.91,42.33,42.33,0,0,1,.92,4.46c-.13,2.09-.52,4.32-.79,6.54h-.91a55.22,55.22,0,0,0-.26-8c-.27,0-.4,0-.4.26,0,2.49-.13,5.11-.13,7.72H93.49a16.35,16.35,0,0,0-6-14.92A24.89,24.89,0,0,0,76.2,26.88a28.5,28.5,0,0,0-9-2.22c0-3.54-.26-7.21-.26-10.61a3.13,3.13,0,0,1,1-.27A42,42,0,0,1,76.72,16.27Zm6.42-.39h-.26c.65.39,1.18.79,1.83,1.18a10.93,10.93,0,0,0-2-.52,35.22,35.22,0,0,0-4.85-2.76,12,12,0,0,1,2,.53,31.12,31.12,0,0,1,5.63,2.36.28.28,0,0,1,.26.26,16.83,16.83,0,0,1,2.75,1.83c-.52-.26-.92-.52-1.57-.78C85.76,17.32,84.45,16.54,83.14,15.88Zm-2.09.92a.78.78,0,0,0,.52.13,26.88,26.88,0,0,1,3.27,2.23c-1.7-.92-3.66-1.84-5.5-2.62C79.87,16.67,80.52,16.67,81.05,16.8Zm9.56,5.5c-.14-.13-.27-.26-.4-.4-1.31-1.17-2.88-2.35-4.32-3.4a29.83,29.83,0,0,1,2.62,1.7c.79.79,1.7,1.44,2.49,2.23C90.87,22.43,90.74,22.3,90.61,22.3ZM53.28,16.54h-.13c-.39.13-.92.26-1.31.39l3.54-1.18C54.72,16,54.07,16.27,53.28,16.54Zm-5.89,3.14v-.13c0-.13,0-.13.13-.13a10.42,10.42,0,0,1,2-1.44,23.09,23.09,0,0,1,3.67-1.31A34,34,0,0,0,47.39,19.68Zm-1,.65a5.35,5.35,0,0,1,.92-.78c-.13.13-.13.13-.13.26A2.63,2.63,0,0,0,46.34,20.33Zm19-8.25Zm3.14.4h-1.7v-.27A7.17,7.17,0,0,1,68.47,12.48Zm-8.77.13h.13A17.61,17.61,0,0,1,63.5,13a3.26,3.26,0,0,0-1.18.13c0-.13,0-.13-.13-.13A14.42,14.42,0,0,0,59.7,12.61Zm5.63,1.7V16c-.39-.13-.79-.13-1.18-.26A80.21,80.21,0,0,0,48,21.12c-1.57.78-3.27,1.57-4.84,2.49l.39-.79A14.44,14.44,0,0,1,45,21.51a39,39,0,0,1,10.08-4.45Q60.42,15.68,65.33,14.31Zm3.54,12.83c-.14,0-.14,0-.14-.13a12.39,12.39,0,0,0,2.1.66c.39.39.79.65,1,.91s.26.27.26.4a5.82,5.82,0,0,0-1-.92c-.26-.13-.39-.13-.26,0a24,24,0,0,0,4.06,4.06c.13.13.13.26.26.39H75a27.75,27.75,0,0,0,5.5,5c.66.52,1.44,1.18,2.1,1.7h.13a45,45,0,0,0,4.84,3.28,1.67,1.67,0,0,0,.27.39c.13-.13.13-.13.26-.13a11.82,11.82,0,0,0,1.7.92,1.85,1.85,0,0,1,.26.78Q83.8,40.5,77.9,36.18l-.26.13a52.07,52.07,0,0,0,10.74,8.25,11.9,11.9,0,0,0,2.23,1.18c.13.13.13.26.26.52a83.45,83.45,0,0,1-12.71-6.81,7.79,7.79,0,0,1-.65-1.57c.13,0,.26.13.39.4.26,0,.4-.14.4-.27h.13c.26.27.65.4.91.66a.48.48,0,0,0-.13-.39,14.22,14.22,0,0,0-3.14-3.15c-.66-.78-1.18-1.31-1.83-2.09a1.85,1.85,0,0,0,.78.26c-.13,0-.39-.26-.52-.39-.53-.4-1.18-.79-1.71-1.18-1-.92-2.09-2-3.14-2.88A5.63,5.63,0,0,0,69,29a.4.4,0,0,0-.13.26c0,.13,0,.13.13.13a7.72,7.72,0,0,1-1.84-.92V27a15.4,15.4,0,0,1,2.36.53A2.52,2.52,0,0,1,68.87,27.14Zm-5,.14h-.26v.39s0,.13.26.13a6.13,6.13,0,0,0,1.44,1.05c0,.13,0,.13-.13.13a.48.48,0,0,0,.13.39c-.66-.13-1.44-.26-2.23-.39a9,9,0,0,0-1,.39c-.79-.52-1.71-1.18-2.36-1.7a.4.4,0,0,0-.26.13h-.13a24.16,24.16,0,0,1,5.5-1.05,2.29,2.29,0,0,1,.78.13v.79l-1.18-.39h-.52Zm-1.57,4.18h-.13a1.84,1.84,0,0,1-.79-.26c.26-.13.66-.26.92-.39a13.67,13.67,0,0,0,2.35,1.31c-.13,0-.39,0-.39.13a5.54,5.54,0,0,0-1.44-.92h-.26C62.45,31.33,62.32,31.33,62.32,31.46Zm3.27-.13c-.65-.26-1-.52-1.57-.78.39-.13.92-.13,1.57-.26Zm1.57.27a1.8,1.8,0,0,1,.4.52h-.4Zm.13-1.31h.27c.78.65,1.44,1.44,2.35,2.09a1.41,1.41,0,0,0-.65-.13Zm-12-3a1.54,1.54,0,0,1,.78-.14,9.93,9.93,0,0,0-1.7.66,1,1,0,0,1-.53-.13C54.33,27.54,54.85,27.41,55.25,27.28Zm-.66,2.61a.4.4,0,0,1,.26-.13,22.62,22.62,0,0,0,3.8,1.57c-.39.27-.52.4-.92.66-.65-.39-1.31-.66-2-1a1.39,1.39,0,0,0,.65-.39,1.37,1.37,0,0,1-.65.26A10.29,10.29,0,0,1,54.46,30ZM59,28.19c.27.26.53.53.79.79a5.87,5.87,0,0,0,1.18.78c-.26.13-.4.26-.66.4s-.39.26-.52.39C58.65,30,57.6,29.5,56.42,29a12.26,12.26,0,0,1,2.75-1.18c-.13,0-.13,0-.13.13Zm.79,3.67H60l2.36.39c0,.13.13.13.26.26a3.39,3.39,0,0,0-1.57.4C60.61,32.51,60.22,32.25,59.83,31.86Zm.39,5.24c0-.13,0-.13-.13-.26a10.34,10.34,0,0,1-2.36-1.05A11.31,11.31,0,0,1,61,34.08a22.55,22.55,0,0,0,2.88,2.23c-.92.26-1.57.39-2.36.66a2.23,2.23,0,0,0-1.31.39,4.91,4.91,0,0,0,2.49.26,15.18,15.18,0,0,1,2.49-.13c.13,0,.26.13.39.26v8.78c-.65,0-1.31-.13-2-.13a2.6,2.6,0,0,1-2.1.78h-.39v.39A20.49,20.49,0,0,0,61,50.45c-2.88-.13-5.63-.13-8.51,0V49.8a21.56,21.56,0,0,1,.78-8.64,2.46,2.46,0,0,0,.52-.66c0,.13-.13.26-.39.26a1.39,1.39,0,0,0,.26-.78,7.84,7.84,0,0,1,.66-1.57,26.49,26.49,0,0,1,2.09-1.84h0a1.73,1.73,0,0,0,.53-.39A13.52,13.52,0,0,0,60.22,37.1ZM59,32.38a6.26,6.26,0,0,0,.92.79c-.39-.26-.79-.4-1.18-.66C58.91,32.51,59,32.51,59,32.38Zm-.91.79c.39.13.78.13,1.31.26a30.31,30.31,0,0,0-3,1.31A20.43,20.43,0,0,0,58.13,33.17ZM55,35l-.52.53-2-1.18A11.74,11.74,0,0,1,55,35Zm1.84-2.09a13,13,0,0,0-1.44,1.44,13.14,13.14,0,0,1-1.71-1.05A13.06,13.06,0,0,1,56.82,32.91Zm10.34,1.17V33.3c.4.13.92.26,1.31.39H69a43.57,43.57,0,0,0,5.89,5.11,1.67,1.67,0,0,1,.79-.13,18.86,18.86,0,0,1,2.75,3.4c.26.4.39.92.65,1.44a1.79,1.79,0,0,1-.52-.39,17.51,17.51,0,0,0-6.42-5.24A61.5,61.5,0,0,0,67.16,34.08Zm0,1.31A10.73,10.73,0,0,1,69,37a4.11,4.11,0,0,0-1.84-.4Zm-5-1.57a12.28,12.28,0,0,1,2.09-.52,1.45,1.45,0,0,1,.66.52c.26.13.39.26.65.4v2.09h-.26C64.28,35.39,63.23,34.61,62.19,33.82Zm5,5c.13.26.53.39.79.65a3.79,3.79,0,0,1,1.18-.26c-.13-.13-.13-.26-.26-.39a15,15,0,0,1-1.71-1.31h0a12.13,12.13,0,0,1,3.67.65c0,.14.13.14.26.27h.4a15.24,15.24,0,0,1,6,4.06h-.39c.26.26.39.52.65.78a23.74,23.74,0,0,0,1.7,1.84v.13c.14,0,.14.13.14.26a17.89,17.89,0,0,1,.26,2.62,5.31,5.31,0,0,0-1.18-.53h0c0,.14-.13.14-.13.27s-.13.26,0,.26.52.39.78.52.27.26.53.26v1.57H71.62v-.13l-.27-.26a8.71,8.71,0,0,0-4.45-3.14C67,44.17,67,41.55,67.16,38.8ZM54.85,31.6a9.84,9.84,0,0,0,1.71,1c-1.05-.13-2.1-.13-2.89-.26Zm-5,.65a22.85,22.85,0,0,1,2-1.7,11.35,11.35,0,0,0-1.31,2.09A1.11,1.11,0,0,0,49.88,32.25Zm2.35,0h0c-.26.13-.39.13-.52.26a5.27,5.27,0,0,1,1.83-2,5.76,5.76,0,0,0,.92.78A17.5,17.5,0,0,0,52.23,32.25Zm1.31-4.45c-.26.26-.39.39-.26.65-.26.13-.52.4-.78.53l-.14-.13H52.1c0,.13.13.26.13.39-1,.78-2.35,1.7-3.4,2.62a18.69,18.69,0,0,0-2.1,2.49l-.78.39a6.69,6.69,0,0,1,.91-2A15.11,15.11,0,0,1,53.54,27.8Zm-7.72,11h-.14A12.73,12.73,0,0,1,45,40.24c0-.13-.26-.26-.26-.26a16.8,16.8,0,0,1,1.7-2.49l.13.13Zm-2.23,3.14s.13-.26.26-.26.13.26.39.52a1.52,1.52,0,0,0-.39,1,1.89,1.89,0,0,0-.26.79l-.39.39v.13h0v-.91C43.33,43.12,43.46,42.47,43.59,41.94Zm-1.18-.78a1.94,1.94,0,0,0-.39.91A1.94,1.94,0,0,1,42.41,41.16Zm2-.79.39.39a2,2,0,0,0-.39.92c-.14-.13-.27-.39-.4-.39A5.13,5.13,0,0,1,44.38,40.37Zm6.15-5.5c0-.13,0-.13.26-.13a21.46,21.46,0,0,0,2.36,2.62,3.45,3.45,0,0,0-.65.78C51.71,37.1,51.19,35.92,50.53,34.87Zm2.62-1.57c.26.13.39.39.52.52-.52-.13-.91-.26-1.31-.39A2,2,0,0,0,53.15,33.3Zm.52,3.54A22.73,22.73,0,0,0,51.84,35a6.55,6.55,0,0,0,2.36,1.18A2.72,2.72,0,0,0,53.67,36.84Zm-4.06-4.33c0,.13.13.26.13.4h0c-.13,0-.13-.27-.13-.27Zm-.52.53.13.13a1,1,0,0,1-.39.13S49,33,49.09,33ZM47,37.1h-.13c.27-.26.4-.53.66-.66A2.56,2.56,0,0,0,47,37.1Zm1.31,2.22a2,2,0,0,1,.92-.13,3.56,3.56,0,0,0,1.31,2.49,10,10,0,0,0-.13,2h-.26a17.55,17.55,0,0,1-3.28-2.1c.27-.26.4-.52.66-.79a10.25,10.25,0,0,0,1.31,1.18c.52-.13,1.05-.13,1.57-.26l-.13-.13a6.71,6.71,0,0,1-2.36-1.18,6.26,6.26,0,0,1,.79-.92,2.94,2.94,0,0,0-1.05.66,2.63,2.63,0,0,0-.79-.52,7.73,7.73,0,0,1,.66-1.05Zm.27-.78c-.13-.13-.13-.26-.27-.26S48,38,48,37.88a6.38,6.38,0,0,1,1.18-1.57A6.9,6.9,0,0,0,49,37.75a2.92,2.92,0,0,0,.13,1C48.83,38.67,48.7,38.67,48.57,38.54Zm-1.44,1.83a5,5,0,0,0-.92.79c0-.13,0-.13-.13-.13.26-.4.39-.66.65-1.05C46.73,40.11,46.86,40.24,47.13,40.37Zm4.71-1.31a8.71,8.71,0,0,0-.92,1.83,2.75,2.75,0,0,1-.39-.91,9.1,9.1,0,0,1-.39-3.67A15.78,15.78,0,0,0,51.84,39.06Zm-1.31,7.73h0l-.13-.13c0-.26,0-.4.13-.53Zm-4.19-4.45c.26.13.39.39.65.52A5.88,5.88,0,0,1,49.22,44a2,2,0,0,0,.92-.13c-.4.52-.53,1.18-.92,1.83-1-.92-2.09-1.83-3.27-2.75A2.84,2.84,0,0,1,46.34,42.34Zm2.88,8.11a9.74,9.74,0,0,0-2.75,0c-.52-.39-.92-.78-1.44-1.17h-.26L46,50.45a3.79,3.79,0,0,0-1.71,0L44,50.19l-.13-.13A2.94,2.94,0,0,1,44,49a10.2,10.2,0,0,1,.26-2.09,44.43,44.43,0,0,0,4.06,2.75c.14,0,.27-.13.4-.26s.13-.13,0-.26a2.07,2.07,0,0,1-.53-.4,20,20,0,0,0-3.53-3.14,13.22,13.22,0,0,1,.91-2,29.92,29.92,0,0,0,3.67,3.14A8.63,8.63,0,0,0,49.22,50.45Zm1.05,0a24.26,24.26,0,0,1-.13-3,.4.4,0,0,0,.26.13c.13,0,.13-.13.39-.26a1.21,1.21,0,0,0,.13.66.28.28,0,0,0,.27.26v2.22A1.13,1.13,0,0,0,50.27,50.45Zm-7.86-4.84h.26c0,.52.13,1,.13,1.57a26.52,26.52,0,0,0-.13,3.27.59.59,0,0,0-.65,0v-.39A43.65,43.65,0,0,1,42.41,45.61Zm-2.09-1.44a.48.48,0,0,1,.13-.39l.13.13a15.29,15.29,0,0,0-.53,6.54,1.44,1.44,0,0,0-1,0A16.23,16.23,0,0,1,40.32,44.17ZM45,52.42c.13-.13.13-.13,0-.26s-.13-.26-.26-.4h.39a37,37,0,0,0,7.2,6.29,6.75,6.75,0,0,0,.79,1.18c-2.62-2.1-5.24-4.32-8.12-6.68Zm-.79-.66h0c-.26.14-.26.14,0,.4a47.38,47.38,0,0,0,3.28,4.32c-.53-.39-1.18-.65-1.7-1h-.27c.13.66.79,1.31,1.84,2.1a21.9,21.9,0,0,1,3.4,2.75A14.93,14.93,0,0,0,57,63.81c.13.14.39.27.52.4a16.38,16.38,0,0,0,1.7,1.44,15.49,15.49,0,0,0,1.44,1.83l1.31,1.31a32.12,32.12,0,0,1-4.84-4.58c-.66,0-.66.13-.39.52.65.66,1.17,1.31,1.83,2A108,108,0,0,1,45,57.13,14.31,14.31,0,0,1,44.24,54,6.17,6.17,0,0,1,44,51.76Zm-2,0h.39a14.31,14.31,0,0,0,.13,2.36A7.65,7.65,0,0,1,42.28,51.76Zm.52,4.07c.13-.14.13-.27.27-.27a10.22,10.22,0,0,0,.52,2.88,24.27,24.27,0,0,1-2.23-6.28C41.76,53.34,42.28,54.52,42.8,55.83Zm-2.48-4.07a7.78,7.78,0,0,0,.26,1.71,22.17,22.17,0,0,0,2.22,5.37,1.8,1.8,0,0,1,.4.52c-.4-.26-.79-.65-1.18-.92h-.13a.66.66,0,0,0-.53.27v.13A30.71,30.71,0,0,0,45,62.24a8,8,0,0,0,1.31,2.62c-1.05-.39-2-.91-2.88-1.31,0,.13,0,.13-.13.13s-.13.27-.26.27v.13A23.37,23.37,0,0,1,39,51.76ZM50.4,54.12a11.58,11.58,0,0,0,.79,2c-1.71-1.44-3.41-2.88-5.24-4.33a6,6,0,0,1,1.57.14C48.44,52.55,49.35,53.34,50.4,54.12Zm.13-2.22h.92A20.71,20.71,0,0,0,53,57.27,6.08,6.08,0,0,1,52,55.56,12,12,0,0,1,50.53,51.9ZM50,53.34a15.69,15.69,0,0,0-1.57-1.44,1.68,1.68,0,0,1,1.17,0c0,.26.13.52.13.78S49.88,53.07,50,53.34Zm-3.8,7.2c-.39-.92-.66-1.7-.92-2.49,2.23,2,4.59,3.93,6.94,5.76a15.84,15.84,0,0,0,1.57,1,13.48,13.48,0,0,0,1.31,1.31c-2.22-1.44-4.58-2.88-6.94-4.32A17.15,17.15,0,0,0,46.21,60.54ZM65.46,50.19h.13v.26c0-.13-.13-.13-.26,0C65.33,50.32,65.33,50.32,65.46,50.19ZM61.4,53.07a.51.51,0,0,1,.13.4A9.84,9.84,0,0,0,65.59,56V64.6H63.1c-.26,0-.65,0-.78-.13-4.59-3.54-7.86-7.73-9.3-12.57h8v.39c0,.13.13.26.26.39A.48.48,0,0,1,61.4,53.07Zm5.5.66v-.92a.88.88,0,0,1,.26.92Zm-1.31,0h-.26l-.39-.39c.26-.13.39-.27.65-.4ZM53.28,60.54a2.62,2.62,0,0,1,.92.13,8.61,8.61,0,0,0,1,1.31C54.46,61.46,53.8,60.93,53.28,60.54ZM94,25.7c.13,0,.13.13.26.27a2.17,2.17,0,0,0-.65-.53c-.13-.13-.26-.26-.26-.39C93.49,25.31,93.75,25.44,94,25.7Zm2.23.53c-.26-.4-.66-.92-.92-1.31.92,1,1.7,2,2.36,2.88a8,8,0,0,1-1.05-1.05A1.79,1.79,0,0,0,96.24,26.23ZM87.59,40.89h.13c-.13,0-.13,0-.26-.13-.26-.39-.65-.65-.91-1a13.68,13.68,0,0,1,1.83,1h0c.39.66.65,1.31,1.05,2.1A9.35,9.35,0,0,0,88,41.94v-.26a.48.48,0,0,1,.13-.39c-.13,0-.26-.13-.4-.26Zm2.1-1.17a.48.48,0,0,0,.39-.13,18.42,18.42,0,0,1,2.1,5c-.53-.39-1.05-.65-1.57-1.05a12,12,0,0,0-.92-2.22h.13c-.13-.13-.13-.4-.26-.4A19.49,19.49,0,0,0,87.46,37c.53.91,1.05,1.7,1.57,2.62C89.3,39.59,89.43,39.72,89.69,39.72ZM80,30.81h.26A37.47,37.47,0,0,1,86.68,38c-1.84-1.83-3.8-3.66-5.9-5.37a1.4,1.4,0,0,0,.79-.26c0-.13-.13-.13-.13-.26A4.72,4.72,0,0,0,80,31.6l-.13-.14a34.48,34.48,0,0,0-3.15-2.88c.79.4,1.58.66,2.23,1.05l.39.39A3.34,3.34,0,0,0,80,30.81Zm-7.21-3.27h.27a4.56,4.56,0,0,0,1,.65h-.39A3.79,3.79,0,0,0,72.79,27.54ZM71,31.86c.26.13.39.26.66.39s.39.39.65.66C71.75,32.51,71.35,32.12,71,31.86Zm4.45,4.06s.14,0,.14.13a18.65,18.65,0,0,1,1.57,1.44c-.4.52-.27,1.31.39,2.1l.65.65a.48.48,0,0,0-.13.39,20,20,0,0,0-3.4-3.27v.13c-1.57-1.31-3-2.75-4.45-4.19.39,0,.65.13,1,.13a8.47,8.47,0,0,0,1.84,1C73.84,35,74.63,35.39,75.41,35.92ZM78.3,40v-.13a27.65,27.65,0,0,0,5.1,3.66,44.46,44.46,0,0,0,6.81,5.24,3.69,3.69,0,0,0,1.18.13c0,.13.26.13.26,0s.13,0,.13-.13a.45.45,0,0,0-.13-.26c-.39-.26-.65-.65-1-.78H91c-.13,0-.26-.14-.39-.27a13.34,13.34,0,0,0-2.1-1.7c.79.26,1.57.39,2.36.66.13.52.39,1,.52,1.57a11.92,11.92,0,0,0-.39-2.1,5.6,5.6,0,0,0,1.44.26,16.2,16.2,0,0,1-.13,4.32H88.9l-.13-.13a2.59,2.59,0,0,0,.92-.13.13.13,0,0,0,.13-.13s0-.26-.13-.26c-3-2.75-6-5.37-9.3-7.86-.39-.13-.52,0-.26.26a35.82,35.82,0,0,0,5,5.11c-1-.65-2.23-1.31-3.15-2-.13-.26-.39-.53-.52-.79-.79-.91-1.44-1.83-2.1-2.75a10.83,10.83,0,0,0-.91-1.7C78.43,40,78.43,40,78.3,40Zm2.09,4.45c0-.26-.13-.52-.13-.78a1.85,1.85,0,0,0,.26.78Zm.66,2.1a.48.48,0,0,0,.39.26c.13.65.26,1.31.39,1.83-.26,0-.39,0-.52.13v.13l-.13-.13C81.18,48,81.05,47.18,81.05,46.53Zm.13,3.92V49.8h.26a1.17,1.17,0,0,0-.13.65Zm1.7-.78c-.13-.66-.13-1.18-.26-1.83a1.79,1.79,0,0,0,.52.39,24.41,24.41,0,0,0,3.41,2.22H84.32C83.8,50.19,83.27,49.8,82.88,49.67ZM71.62,53.86v-2h8c-.14.91-.4,1.83-.53,2.62-.13-.14-.13-.14-.26-.14s-.26-.13-.26,0,.26.27.26.4V55l-.39.39H78.3c-.4,0-.53.13-.27.4.13,0,.13,0,.13.13s-.26.26-.26.39h-.13a2.28,2.28,0,0,0-.65.52c.13.13.13.26.26.4a.48.48,0,0,0,.13.39c-.13.13-.13.26-.13.52a16.75,16.75,0,0,1-4.72,4.32,6.92,6.92,0,0,0,2-.78l.13.13-.13.13a.68.68,0,0,0-.92.39c0,.13.13.27.13.4l-.52.52c-.92.26-1.83.39-2.75.66a3.07,3.07,0,0,0,1.05.78c-.27.13-.53.13-.79.26a5.85,5.85,0,0,1-3.4.26c-.27-.13-.4-.13-.53-.26v-8.9a7.46,7.46,0,0,0,4.72-1.44Zm11,2a19.82,19.82,0,0,0,.26-2.76,36,36,0,0,0,4.32,4.59c0,.13.13.13.39.26a3.86,3.86,0,0,0-.26,1.18h-.26l-.26-.26A11.76,11.76,0,0,0,82.62,55.83ZM82,51.9v.39a23.84,23.84,0,0,1-.39,3h-.26c-.13.13-.26.13-.4.26s-.13.13-.13.27c.27,0,.4.13.66.39v.39A13.41,13.41,0,0,1,80,55.3c.39-1.18.78-2.23,1-3.4Zm3.15.65s0-.26-.14-.26a1.79,1.79,0,0,0-.52-.39H85l6.29,3.53c0,.4-.26.66-.26,1-.92-.39-1.7-.92-2.49-1.31.52.26,1.18.39,1.7.66,0-.14,0-.27-.13-.27-.65-.39-1.18-.78-1.83-1.18v0C87.2,53.73,86.15,53.07,85.11,52.55Zm-5.64,3.93c0-.13.14-.26.14-.52a9,9,0,0,0,1.44,1.7A5,5,0,0,1,79.47,56.48ZM78,59.1a.13.13,0,0,0,.13-.13,17.4,17.4,0,0,0,1.71,2.49c-.13.13-.26.26-.26.39s-.4.65-.53.92a9.85,9.85,0,0,0-1.31-1.05c-.39,0-.39.26,0,.65a3.73,3.73,0,0,1,1,.92,4.34,4.34,0,0,1-.66,1.05c-.65-.79-1.44-1.57-2.09-2.36C76.72,60.93,77.38,60,78,59.1Zm1.18-2a8.37,8.37,0,0,0,1.7,1.31A7.49,7.49,0,0,1,80.39,60c-.39-.4-.78-.79-1.18-1.18a5.38,5.38,0,0,0-.52-.92C78.82,57.66,79.08,57.4,79.21,57.13Zm3.14.27a1.12,1.12,0,0,1,.14-.66,25.44,25.44,0,0,1,3.66,2.88c.26.13.66.26.92.4-.13.52-.26,1.17-.39,1.83a14.67,14.67,0,0,1-1.44-1.57,5.4,5.4,0,0,0,1.57.13.45.45,0,0,0-.26-.13,11.69,11.69,0,0,1-2-.66Zm-.52,1.7c.13,0,.26.13.52.13.79.92,1.58,1.7,2.49,2.62a1.93,1.93,0,0,1-.26.79c-1.18-.66-2.36-1.45-3.4-2.1A15.52,15.52,0,0,1,81.83,59.1Zm8.91-14.93c.52.26.91.39,1.44.65a2,2,0,0,1,.13.92,10.17,10.17,0,0,0-1.44-.92C90.87,44.56,90.74,44.43,90.74,44.17Zm-2.23,6c-.13-.13-.39-.26-.52-.39h.13ZM93,53.47c.13-.53.27-1,.4-1.57,2.09,0,4.06,0,6.15-.14a131.43,131.43,0,0,1-2.62,19.13l.13-.14a27.5,27.5,0,0,1-6.81,8.52c-1,.65-2.09,1.31-3.27,2,.13-.39.13-.78.26-1.18-.65.66-1.18,1.31-2,2a53.61,53.61,0,0,1-11,4.19c-2.49,0-5,0-7.47-.13,0-3,0-6,.13-9h0c1.7,1,3.93,1,6.42.13a14.08,14.08,0,0,0,2.49-.91,7.16,7.16,0,0,0,2.35.13c-.13.13-.26.13-.39.26a4.69,4.69,0,0,0,2.1,1,5.33,5.33,0,0,0,1.44-1.44c.26-.4.52-.66.78-1.05,3.28-2.1,5.11-4.59,5.5-7.73a13,13,0,0,0,2.23.26.13.13,0,0,0-.13-.13c-.66-.26-1.31-.39-2-.65-.13,0-.13,0,0-.13a8.45,8.45,0,0,0,.79-2h.39a.45.45,0,0,1-.26-.13c0-.39.26-.65.26-1.05a35,35,0,0,0,3-6.28h.65l-.26-.27a.48.48,0,0,0-.39-.13,4.62,4.62,0,0,0,.52-1.44c.13,0,.13-.13.13-.26C92.7,54.65,92.83,54.12,93,53.47ZM90.21,51.9c.4,0,.79.26,1.18.26,0-.13,0-.26-.13-.26h.79a19,19,0,0,1-.53,2.62c-1.44-.79-2.88-1.71-4.32-2.62Zm-2.09,6.15h.78c.4.26.79.39,1.31.66-.26.52-.52,1.17-.78,1.7-.13-.26-.53-.53-.79-.79-.13,0-.26-.13-.52-.26ZM88,60.28a2.91,2.91,0,0,0,1.31.39c-.53,1.18-1,2.36-1.71,3.54a.48.48,0,0,0-.39-.13,2.62,2.62,0,0,0,.13-.92c.13,0,.13-.13.26-.26h-.13A19,19,0,0,0,88,60.28Zm2.22-2.23-.52-.52h0c-.13-.26-.26-.4-.26-.53.39.13.78.13,1.31.27a2.78,2.78,0,0,0-.27.78ZM43.85,21.12a21.07,21.07,0,0,0-3.53,4.06,37.41,37.41,0,0,0-3.67,2.62A28.83,28.83,0,0,1,43.85,21.12ZM98.2,70.62h0c-.26.27-.39.53-.65.79C97.81,71.15,97.94,70.75,98.2,70.62Zm.66-1.31c.13-.26.13-.39.26-.52a.48.48,0,0,1-.13.39ZM86.41,63.16c-.13,0-.13.13-.26.39a7.26,7.26,0,0,1-1-.65V62A11.76,11.76,0,0,0,86.41,63.16ZM86,64.34c-.13.13-.13.13-.13.26-.13.39-.26.92-.39,1.44-.13,0-.13,0-.13.13-.13-.13-.13-.13-.26-.13C85.37,65.52,85.76,64.86,86,64.34Zm.79,1c.13-.14.13-.53.26-.79.13,0,.13,0,.13.13A3.19,3.19,0,0,1,86.81,65.39Zm-3.54-1.84c-.13-.26-.13-.39-.26-.39-.13-.26-.26-.39-.39-.66.13,0,.13,0,.26.14a10.6,10.6,0,0,0,1.31.91c-.26.53-.66,1-.92,1.7-1.18-.65-2.36-1.3-3.53-2.09.26-.39.39-.66.65-1,.52.66,1,1.18,1.57,1.84a2.08,2.08,0,0,1,.66-.53A1.17,1.17,0,0,0,83.27,63.55Zm1.57,2.36a.48.48,0,0,0-.39-.13A5.2,5.2,0,0,0,84.84,64a3.46,3.46,0,0,0,.92.26A6.76,6.76,0,0,1,84.84,65.91Zm-6.15-1,.78-1.18A26.55,26.55,0,0,0,83,65.91c-.26.39-.39.92-.66,1.31C81.05,66.43,79.87,65.65,78.69,64.86Zm2.09,5.37c-.13.26-.26.39-.39.66l-.39.39v-.13A5.76,5.76,0,0,0,80.78,70.23Zm-.26-.52a8.64,8.64,0,0,1-1.31,1,16.93,16.93,0,0,1-3.53-2.48c.13-.13.26-.4.52-.53A13,13,0,0,0,80.52,69.71Zm.39-1.18a1.47,1.47,0,0,0,.66.13c-.26.26-.52.65-.79.78a13.36,13.36,0,0,1-4.06-2.22c.4-.39.66-.79,1-1.18A20.85,20.85,0,0,0,80.91,68.53Zm3.93-1.84c0,.14.27.14.4.14-.13.13-.13.13,0,.39a6.41,6.41,0,0,0-1.18.92h-.13A8.88,8.88,0,0,1,84.84,66.69Zm-.39-.13c-.13,0-.13.13-.13.27v-.27Zm-.65,1.71h.13s-.27.13-.27.26C83.66,68.4,83.66,68.27,83.8,68.27Zm-8.91-4.85a.13.13,0,0,1,.13.13,16,16,0,0,1,2.1,2.1c-.4.39-.79.78-1.18,1.18-.79-.79-1.7-1.44-2.49-2.23.26,0,.39-.13.39-.26C74.24,64.08,74.5,63.68,74.89,63.42Zm-3.14,2.23a12.57,12.57,0,0,0,1.31-.79,20.15,20.15,0,0,0,2.35,2.36,1.79,1.79,0,0,1-.52.39,18,18,0,0,1-2.23-2.22c-.39,0-.39,0-.39.26.66.78,1.44,1.57,2.1,2.35-.4.27-.92.4-1.31.66-1-.79-2.1-1.57-3.15-2.49C70.44,66,71.09,65.78,71.75,65.65Zm.78,3.27c-.65.13-1.31.39-2.09.52-1.18-.78-2.36-1.57-3.54-2.48V66.3a8.84,8.84,0,0,0,2.62,0C70.44,67.22,71.49,68,72.53,68.92Zm-.39,1.57c.52-.26.92-.52,1.57-.78.92.78,2,1.44,3,2.22-.13,0-.39.27-.52.27C74.89,71.67,73.45,71.15,72.14,70.49Zm2.1-1c.26-.26.65-.52.91-.78A17.88,17.88,0,0,0,78,71a2.28,2.28,0,0,0-.65.52C76.33,70.75,75.28,70.1,74.24,69.44Zm3.14,2.89c-.26,0-.39.26-.66.26l.4-.39C77.25,72.2,77.25,72.2,77.38,72.33ZM74.24,75.6h.26a.13.13,0,0,1,.13.13A18.32,18.32,0,0,1,67.29,77,33.12,33.12,0,0,0,72.79,76c.14-.13.4-.13.66-.26a1,1,0,0,0,.65.13C74.1,75.73,74.24,75.73,74.24,75.6Zm1-.26c-.13-.13-.13-.13-.26-.13l.79-.4a10.83,10.83,0,0,0,1.7-.91h.26a15.68,15.68,0,0,1-2.49,1.57Zm-.26.13h0Zm-1.31-1.18h0Zm-1.31-.92c.13,0,.13,0,.13-.13s0-.13,0-.26-.26-.26-.39-.26c-1.18-.52-2.36-1.18-3.54-1.83a14.49,14.49,0,0,0,2.49-.27,24.49,24.49,0,0,0,4.19,2.1A6.67,6.67,0,0,1,72.4,73.37Zm-.26.14h-.39c-1.71-.92-3.28-1.71-4.85-2.76v-.13A22.62,22.62,0,0,0,72.14,73.51Zm6-2.49a4.14,4.14,0,0,1,.53.39l-.79.39a.4.4,0,0,1-.26-.13A2.28,2.28,0,0,1,78.16,71Zm2.1,2.09.52-.52a14.62,14.62,0,0,0,3.41-2,8.17,8.17,0,0,0-.66,1.58c-.78.52-1.57,1.17-2.48,1.7a19.52,19.52,0,0,1-3.54,1.31c.79-.53,1.44-.92,2.1-1.44a1.17,1.17,0,0,0,.65-.13c.13,0,.13-.13.26-.13s-.13-.14-.13-.27Zm-.65,3.8a2.9,2.9,0,0,0-.79-.52c.65-.13,1.44-.4,2.09-.53C80.52,76.26,80,76.52,79.61,76.91Zm4.84-5.76c.26-.4.39-.79.66-1.18l.65-.66A11.7,11.7,0,0,1,84.45,71.15ZM78.16,86.08h0Zm-6.94,1.44h.4l-2.49.39ZM64.41,66c-.13,0-.39-.26-.52-.39a2.73,2.73,0,0,1-.79-.53.5.5,0,0,1,.4.13,5.28,5.28,0,0,0,.65.14,1.43,1.43,0,0,0,.92.39,2.28,2.28,0,0,0,.52.65v1.31a24.79,24.79,0,0,1-3.4-1.44l-2-2-.26.13a2.69,2.69,0,0,0,.79.92A12.56,12.56,0,0,1,58.65,64a30.45,30.45,0,0,1-4.19-6.68,26.22,26.22,0,0,0,7.33,8,16,16,0,0,1,2.1.92A.78.78,0,0,0,64.41,66Zm-2,1.18c1,.92,2.09,1.83,3.14,2.62V70c-1.31-1-2.75-2.1-4.06-3C61.92,67,62.19,67.22,62.45,67.22Zm1.44.39a6.43,6.43,0,0,0,1.7.13v1.18A5.74,5.74,0,0,1,63.89,67.61Zm3,2.1v-2.1c.79.66,1.57,1.44,2.49,2.1Zm-11-.27c.79.14,1.44.27,2.1.4.78.39,1.57.65,2.35,1a16.33,16.33,0,0,0,2.36,1.83,12.24,12.24,0,0,1-3.27-.52c.13-.14.26-.14.52-.14a.45.45,0,0,0,.26-.13c0-.13,0-.13-.13-.26C58.65,71,57.34,70.23,55.9,69.44Zm5.5,1.31c-.39-.26-.65-.52-1-.78a7,7,0,0,0,1.71-.13,34.83,34.83,0,0,0,3.53,2.49v1.18h-.92a2.71,2.71,0,0,1,.92-.4,1.41,1.41,0,0,0-.92-1.18v.27c-.13-.14-.39-.14-.39-.27C63.23,71.54,62.32,71.15,61.4,70.75Zm.26-1.17c-.65-.14-1.31-.14-1.7-.27s-.39-.26-.52-.26a1.73,1.73,0,0,1-.53-.39c-1-.79-2-1.7-2.88-2.49a28.38,28.38,0,0,0,3,1A15.2,15.2,0,0,0,61.66,69.58ZM55.11,73.9a4.84,4.84,0,0,0,2,.39,22.34,22.34,0,0,0,2.88.13c.79.39,1.57.66,2.36,1a35.16,35.16,0,0,1-7.47-1.18,14.75,14.75,0,0,1-1.57-1.05A7.2,7.2,0,0,0,55.11,73.9Zm-.65-1.18a2.62,2.62,0,0,0,.92-.13c.13.13.26.13.39.26a4.28,4.28,0,0,0-2.36.13h-.52A58.07,58.07,0,0,1,44.77,66l-1.18-1.18c-.13-.26-.26-.39-.39-.65a9,9,0,0,1,1,.39,14,14,0,0,0,1.31.92l-.13.13a1.87,1.87,0,0,1,.26.39,49,49,0,0,0,4.06,3.4A32,32,0,0,0,53.41,73c-.91-.92-1.7-1.83-2.49-2.62C52.1,71.15,53.15,71.93,54.46,72.72ZM66.9,75.21a.61.61,0,0,1,0-.66h3.67A36.25,36.25,0,0,1,66.9,75.21Zm0-1.7a.25.25,0,0,1,0-.4l.79.4Zm-2.49-1.18a.48.48,0,0,0,.13.39h-.65a13.81,13.81,0,0,1-1.44-1,13.34,13.34,0,0,0,2.09.53Zm.53,2.22a2.17,2.17,0,0,1,.65.53v.26a9.94,9.94,0,0,0-2,.13c-.66-.39-1.31-.66-1.84-1A25.53,25.53,0,0,0,64.94,74.55Zm-14.8-9.82c0,.13.26.26.26.52-1-.78-2-1.7-2.88-2.48A19,19,0,0,0,50.14,64.73Zm-1.7.39L48.3,65c.92.66,1.84,1.31,2.89,2a3.69,3.69,0,0,1-1-.27c-.13-.13-.26-.13-.4-.26A6,6,0,0,1,48.44,65.12ZM49,67.48c-.13,0-.13-.13-.26-.13h.13A.13.13,0,0,0,49,67.48Zm4.32.26a8.64,8.64,0,0,0-1.18-1c-.39-.52-.78-.91-1.05-1.3.66.39,1.45.91,2.1,1.3s1.57,1,2.36,1.58C54.85,68.14,54.07,67.87,53.28,67.74Zm-11.52,10,.39.39c.13,0,.26.26.52.39a37.69,37.69,0,0,0,5,4.06c-.13-.13-.26-.13-.26,0l.78.4c.66.39,1.44.91,2.23,1.3a10.3,10.3,0,0,0,1.31.92A31,31,0,0,1,41.76,77.7Zm5.1,3.53,2,1.18H48.7C48,82,47.52,81.63,46.86,81.23Zm6.29,5.11c.13-.13.26-.13.52-.13.13.26.66.39,1,.65a13.68,13.68,0,0,0,2.1.92h-1a1,1,0,0,1,.52-.13A33.24,33.24,0,0,1,53.15,86.34ZM66.77,87a14.59,14.59,0,0,0,2.36.27,14.57,14.57,0,0,1-2.36.26Zm-1,.66a.78.78,0,0,0-.52.13C63.63,87.39,62.32,87,61,86.6a30.73,30.73,0,0,1,3.14.26,6.41,6.41,0,0,1,1.57.13ZM55.11,85.42A40.08,40.08,0,0,0,63.37,88,27.33,27.33,0,0,1,53.15,84.9,10.93,10.93,0,0,0,55.11,85.42Z"/><path class="d" d="M45.55,83.33c0-.13-.13-.13-.26-.13A37.15,37.15,0,0,1,29.45,68.53c-.27,0-.27,0-.27.13A31.48,31.48,0,0,0,45.55,83.33Z"/></svg>