<svg xmlns="http://www.w3.org/2000/svg" xmlns:xlink="http://www.w3.org/1999/xlink" viewBox="0 0 138.78 104"><defs><style>.a{fill:none;}.b{clip-path:url(#a);}.c{clip-path:url(#b);}.d{fill:#f1e4b2;}.e{fill:#00a19b;}.f{fill:#d27571;}.g{fill:#333;}</style><clipPath id="a"><rect class="a" x="-2066.38" y="-165.79" width="1924.39" height="2777.58"/></clipPath><clipPath id="b"><polygon class="a" points="92.14 2610.71 -2300.51 2611.79 -2300.51 -171.64 91.94 -171.64 92.14 2610.71"/></clipPath></defs><path class="d" d="M36.87,60.05c-.91-6.56-6.42-9.73-12.36-11.58q-.89-.42-1.77-.75c-1.86-.7-4.2-.67-5.94-1.52s-2.82-2.75-4.37-4c-4-3.31-.13-6,3.65-7.26a56.46,56.46,0,0,1,8.46-2.17,3.69,3.69,0,0,0,2.47.82c3.79,0,9.18-.31,8.57-5.63-.58-5.09-6.39-5.05-10.23-4.89C15,23.47,4.09,26.43,2,38c-.71,4-.28,9,2.63,12.07,3.48,3.71,9.25,3.91,13.87,5a29.28,29.28,0,0,1,3.11.92,9.46,9.46,0,0,1,1.29.76c2.46,1.74,3.41,6.48,2.07,9.68a58.61,58.61,0,0,1-6.68,2.19,17,17,0,0,0-2.74,1.28c-.42,0-.82,0-1.17,0-1.48.11-3,.18-4.42.25-1.23-3.31-6.37-2.11-7.5.85a5.38,5.38,0,0,0,.44,4.81,3.86,3.86,0,0,0,2,2.06,7.14,7.14,0,0,0,2,.91c3.94,1.11,7.18.27,10.58-1.14,1.54-.14,3.07-.3,4.59-.5,3-.4,5.74-1.06,7.72-3.53a16.49,16.49,0,0,0,1.09-1.59C35,69.81,37.77,66.54,36.87,60.05Z"/><path class="e" d="M77.18,70.55a147.15,147.15,0,0,0-19.47-.24c.19-5.53.3-11,.16-16.55,1.17.16,2.37.23,3.44.34a93.44,93.44,0,0,0,13.59.31c4.26-.19,5.73-7.06,1.07-7.85A105.49,105.49,0,0,0,61.13,45l-1.89-.06c0-2.19.33-5.22.33-6.64V31.58q9.27.51,18.55.6c5.15,0,5.16-7.95,0-8q-11.3-.09-22.56-.83a3.28,3.28,0,0,0-1.74.4c-2.51-.25-5.33,1.75-4.46,4.92,1.69,6.14.6,12.63.42,19-2.1,2.62-1.75,6.51-1.85,9.65q-.27,8.58-.55,17.15a4,4,0,0,0,2.94,3.85,108,108,0,0,0,17.76,1.62c4.39,0,9.92.78,12.55-3.38C82.37,73.82,80,70.77,77.18,70.55Z"/><path class="f" d="M136.35,54a118.65,118.65,0,0,0-.49-12.22c-.3-2.77-1-5.6-3-7.65-1.5-1.53-3.58-2.23-5.23-3.55-1.29-1.05-2.25-2.49-3.51-3.59a15.65,15.65,0,0,0-17.53-2.08,4.62,4.62,0,0,0-.79.49c-5.35,1.19-9.09,7-11.43,11.58-3.42,6.74-2.52,14.94-1.83,22.22,1.23,13,20.49,21.3,32.21,17.28,3-1,4.61-3,5.84-5.81a10.52,10.52,0,0,1,2.63-3.9,9.72,9.72,0,0,0,2.27-3C136.74,60.83,136.37,57.09,136.35,54Zm-8.06,5.45c-.71,1.93-1.83,2-3.19,3.44s-1.15,2.75-2,4.16c-2.55,4.23-10.83,1.87-14.35.07a30.85,30.85,0,0,1-4.22-2.75c-2.82-2.1-3.66-3.28-4.12-6.83-.55-4.24-1-9.71-.1-13.89.6-2.63,4.32-10.55,7.69-10.47a3.5,3.5,0,0,0,3.2-1.61c4.73-1.9,7.51,1.73,10.76,4.66,1.45,1.31,4.29,2.3,5.38,3.78s.75,4.94.83,6.72C128.33,50.07,129.47,56.2,128.29,59.44Z"/><path class="g" d="M75,22.85H72.83a57.14,57.14,0,0,0-12.53.36c-4.54,0-9.08-.18-13.62-.18.18,0,.54.18.72.18a5.68,5.68,0,0,1,1.82.18c-.55,0-.55.36-.73,1.09a35.33,35.33,0,0,1-.18,4.36v-.36c-.18-.73-.18-1.46-.36-2.36-.18,1.09-.55,2.18-.73,3.81-.36,4.54-.72,9.26-.72,14a176.34,176.34,0,0,0,.72,22c0,3.45.18,6.9.36,10.35H48a5.13,5.13,0,0,0,.18,1.64c-.18-.19-.18-.19-.36-.19v.19h.36v.36c0-.18.18-.18.36-.18a67.14,67.14,0,0,0,12,2.18c1.27.36,2.54.72,4,1.09,0-.19,0-.19-.18-.19A4.6,4.6,0,0,0,63,80.43a22.29,22.29,0,0,0,3.46.18,29.25,29.25,0,0,0,3.81.91c-.36,0-.54-.18-.91-.37a8.48,8.48,0,0,0-1.27-.54c2-.18,3.82-.18,5.63-.36a19,19,0,0,0,6.36.18v1.81c.36-.18.54-.36.91-.54V80.43c.54-.18,1.09-.18,1.45-.36.18.18.18.18.18.36.19-.18.37-.36.37-.55h.36c-.18-.18-.18-.18-.36-.18A45.92,45.92,0,0,0,81.73,75a18.29,18.29,0,0,0-.36-2.91h0a3.56,3.56,0,0,1-.18-1.27h2.18a9.2,9.2,0,0,0-2.18-.36h0v-.18h-.36a.65.65,0,0,0-.19-.55h-.18v.55h-.72C74.29,69.53,69,69,63.75,68.8c-1.45-.18-2.9-.36-4.54-.54v-.55A1,1,0,0,0,60.3,67v-.37a54.11,54.11,0,0,0-1.63-13.26,2.69,2.69,0,0,0,1.27.18l2.72.55a.66.66,0,0,1-.54.18c.36.18.9.18,1.27.36.18,0,.36.19.54.37,0-.18,0-.18-.18-.37a60.61,60.61,0,0,0,14.17,1.09.18.18,0,0,0,.18-.18,7.54,7.54,0,0,0,1.27-.72h.37a14.45,14.45,0,0,0,.36,2.54l.18-.18c.18-.91.18-1.64.36-2.55.55,0,1.09-.18,1.82-.18-.18-.18-.18-.18-.36-.18H80.64v-.18a.67.67,0,0,1,.37-.18v-.37a48.3,48.3,0,0,0-.18-7.26c-.37,0-.55,0-.55.18v.73H80.1a7.8,7.8,0,0,0-.36-2c-.19,0-.37,0-.37.18V47c-4.9-.73-9.81-1.28-14.71-1.82a24.24,24.24,0,0,0-5.09.36v-.36a.69.69,0,0,1,.55-.18,33.52,33.52,0,0,0-.18-11.26h.36l.18-.19a1.41,1.41,0,0,1-.72-.72c2,.18,4,.18,6,.18l.54.54c.19.19.37.19.73.19l.18-.19L67,33.38,66.66,33c6.36.18,12.53,0,18.71-.36h-.19c-1.27-.19-2.54-.19-4-.37.18,0,.36,0,.36-.18v-.36c0-.73,0-1.09.37-1.09V31c-.19.36,0,.73.18,1.09a1,1,0,0,0,1.09-.73V31.2a44.2,44.2,0,0,0,.18-6.9L83,23.94h-.18l-.55.54v.36c.18.73,0,1.09-.36,1.09a.64.64,0,0,1-.19-.54h-.18c0-.36-.18-.55-.36-.91h-.91c-.18.18-.18.18-.18.36a.18.18,0,0,0-.18-.18,21,21,0,0,1-3.45-.18,33.69,33.69,0,0,0,6-.54c-.18,0-.18-.19-.36-.19-1.27-.18-2.55-.54-3.82-.72.91-.18,1.64-.55,2.55-.73,0-.18-.19-.18-.19-.18a4.23,4.23,0,0,0-1.45-.36A20.07,20.07,0,0,0,75,22.85Zm.37,3.63a1.36,1.36,0,0,1,.72.36,50.35,50.35,0,0,0,4,3.09c.18.73.36,1.45.54,2.36a2.73,2.73,0,0,1-1.27-.18h0L79,31.75a27.16,27.16,0,0,1-4.18-3.82h-.18a15.12,15.12,0,0,0,4.18,4.18h0c-3.09-.18-6.18-.36-9.27-.36-2-1.46-4-3.09-6.17-4.73h-.18A27.37,27.37,0,0,0,69,31.75a5.1,5.1,0,0,0-1.64-.18H65.2a65.44,65.44,0,0,0-8.9-7.09,55.42,55.42,0,0,0,9.63.73c4.72.18,9.45.36,14.17.36a10,10,0,0,0,0,3.27,10.9,10.9,0,0,0-4.54-2.91h0l-.18.19ZM80.1,47.19h.18v.36C80.1,47.55,80.1,47.37,80.1,47.19Zm-1.09,0h.36a7.49,7.49,0,0,0-.18,2,13,13,0,0,0,.18,2.54c0,.72.18,1.63.18,2.54-3.63,0-7.26-.18-10.89-.36-.19-.18-.19-.18-.37-.37a39.45,39.45,0,0,1-8.9-5.81h0v-.36c0-.36,0-.55.18-.73a75.52,75.52,0,0,0,19.26.55ZM52.67,24.12a16.17,16.17,0,0,1,3.09.36,64.41,64.41,0,0,1,8.54,7.27H60.66a2.34,2.34,0,0,0-1.09.18,25.76,25.76,0,0,1-.18-3.63h-.18a3.9,3.9,0,0,0-.91,1.45v1.82c-2-1.82-4.18-3.64-6.17-5.45-.55,0-.55.18-.19.54,2.18,1.82,4,3.63,6,5.63-.18,0-.55.18-.73.18.18.19.73.19,1.09.37V33c-.18,1.45-.36,2.72-.54,4.18a74.82,74.82,0,0,0-7.09-8.36h-.18a48.44,48.44,0,0,0,7.27,8.72v5.63l.54.55v.36c.18.18.18.36.18.73.19,0,.19,0,.37.18v.54c-.18,0-.55.18-.73.18a.93.93,0,0,1-.73-.9c-.36-.19-.54-.37-.54-.55a22.32,22.32,0,0,1-5.27-6.36c-.18,0-.36,0-.18.18a27.35,27.35,0,0,0,5.81,7.82h.55c-.18,0-.37.18-.73.18a8.07,8.07,0,0,0,1.82.36A2.69,2.69,0,0,0,59,47.73H58.3l-.18.18v.37c.36,0,.73.18,1.09.18,1.09.91,2,1.81,3.09,2.72a14.48,14.48,0,0,0,4.54,2.55c-1.45-.19-3.09-.37-4.54-.55A140.92,140.92,0,0,0,49.58,42.65c0-6.54,0-12.9-.18-19.26h.91A6,6,0,0,0,52.67,24.12ZM49.4,47.55a41.38,41.38,0,0,1,.18-4.72,133.83,133.83,0,0,0,12,10.35,18.08,18.08,0,0,0-3.09-.36v-.55c-.18,0-.18,0-.18.18v.37c-.18,0-.18,0-.18.18v.18l.18.18a39.18,39.18,0,0,0-.36,4.91q-4.36-3.83-8.18-7.09h-.18A86,86,0,0,0,57.94,59c-.18,2.55-.18,5.09-.18,7.63,0,.37,0,.55.18.73a27.9,27.9,0,0,0-6.36-5.81H51.4c2.36,2.36,4.54,4.54,6.54,6.72a.56.56,0,0,0,.18.36H56.85c0,.18,0,.18-.18.18v.37a3.56,3.56,0,0,1,1.45.18A8.53,8.53,0,0,0,59,71.16a.63.63,0,0,1,.18-.36V69.53l.18.18v-.36a48.37,48.37,0,0,0,5.09.36,52.28,52.28,0,0,0,14.17.91,6.82,6.82,0,0,1,1.81.18,7.89,7.89,0,0,0,0,2.91h-.18l.18.18a17.18,17.18,0,0,0,.37,2.9,1.93,1.93,0,0,1,.72,1.82h.55c.18.36.18.73.36,1.09A4,4,0,0,0,81,79.52a13.6,13.6,0,0,0-.37-2.91.25.25,0,0,0-.36,0,14.86,14.86,0,0,1-.18,2.91,23.34,23.34,0,0,0-3.63-.18,8.19,8.19,0,0,0-2,.18,2.32,2.32,0,0,0-1.09-.18.18.18,0,0,1-.18-.18C67.38,76.07,61.75,73,55.94,69.89v.18h0a26.41,26.41,0,0,0-5.81-4.17.63.63,0,0,0-.18.36c.18.36.18.73.36.91h.36c.18,0,.18,0,.37-.18,0,.18.18.18.18.36,2,1.82,4.18,3.63,6.17,5.27V71.34c-.18,0-.54-.18-.54-.36,4.36,2.73,8.72,5.45,13.26,8,.18,0,.36.19.54.19-2-.19-4-.37-6-.37-3.81-2-7.45-4-11.08-6-.36-.18-.36-.18-.36,0a27.64,27.64,0,0,0,3.63,2.9,24.74,24.74,0,0,0,4.72,2.73c-1.09,0-2.18-.18-3.27-.18-3.27-1.46-6.36-2.73-9.63-4q.28-8.72.55-17.44A78.17,78.17,0,0,0,56.67,65h.91v-.18c-2.91-2.73-5.64-5.63-8.36-8.36,0-2.18,0-4.18.18-6.18V47.73c2.54,2.54,5.09,4.91,7.81,7.27.18,0,.18,0,.37-.18v-.19c0-.18-.19-.18-.37-.36C54.67,52.09,52.13,49.73,49.4,47.55Zm10.17-13.8h.37a46.25,46.25,0,0,1-.18,5.08A47.13,47.13,0,0,1,59.57,33.75Zm-.36,34.87v-.18a1.39,1.39,0,0,0,.73.18ZM48.67,77.7V74.8c.19.18.37.18.55.36,1.63.91,3.45,1.82,5.09,2.73a2.2,2.2,0,0,1-1.09-.19v.19a9.11,9.11,0,0,0,2.18.36,10.64,10.64,0,0,0,1.45.72,63.65,63.65,0,0,1-8.18-1.08Zm12.9,1.64h-.91l-.18-.18A2.34,2.34,0,0,0,61.57,79.34Z"/><path class="g" d="M76.1,30.66l-.36-.37a31.78,31.78,0,0,1-3.27-2h-.18A7.19,7.19,0,0,0,76.1,30.66Z"/><path class="g" d="M73,30.84h.54c-.18-.18-.36-.18-.36-.36-2-1.28-4-2.37-6-3.46H67A41.33,41.33,0,0,0,73,30.84Z"/><path class="g" d="M73,49.55h-.19a22.26,22.26,0,0,0,5.64,3.81c-.19,0-.19-.18-.37-.36A14.91,14.91,0,0,0,73,49.55Z"/><path class="g" d="M65.2,49.55c-.18,0-.18.18-.18.36a.69.69,0,0,0,.18.55c.19.18.37.36.55.36v-.18a12.52,12.52,0,0,1,5.45,2.54.66.66,0,0,0,.54-.18.39.39,0,0,1-.36-.36A17.77,17.77,0,0,0,65.2,49.55Z"/><path class="g" d="M50.67,35.2h-.18a33.13,33.13,0,0,0,6.18,6.17c0-.18,0-.18-.18-.36A58,58,0,0,0,50.67,35.2Z"/><path class="g" d="M65.39,71.53H65.2a45.35,45.35,0,0,0,13.08,6.9c-.18,0-.36-.18-.54-.18C73.74,75.89,69.56,73.71,65.39,71.53Z"/><path class="g" d="M94.63,31.38a3,3,0,0,0,.73.91,3.89,3.89,0,0,0-.91,1.46A28.11,28.11,0,0,0,90.63,49a26.37,26.37,0,0,0,.19,11.27c1.63,6.17,4.9,11.07,10.35,14.16a22.74,22.74,0,0,1-6.72-7.81A42.22,42.22,0,0,0,97,70.07c0,.19,0,.19.18.19H97a2.55,2.55,0,0,0,.73.54,21.91,21.91,0,0,0,11.81,6.54,25.05,25.05,0,0,0,13.26.91,5.37,5.37,0,0,0,3.81-2.36c-.18-.37-.54-.37-1.09,0a6.45,6.45,0,0,1-1.63.72,36.21,36.21,0,0,1-10-.18c-.55,0-1.28-.18-2-.18-6-4-12-8.17-17.8-12.17a21.39,21.39,0,0,1-2-4.72h-.18a2.34,2.34,0,0,1-.18-1.09,19.29,19.29,0,0,1-.37-3.09,42.21,42.21,0,0,0,2.55,7.63.63.63,0,0,0,.36-.18,142.05,142.05,0,0,0,17.8,13.26.62.62,0,0,0,.36-.19v-.36a.18.18,0,0,1-.18-.18c-6-4.36-11.81-8.72-17.8-12.71v-.19a52.14,52.14,0,0,1-2-7.08c2.91,2.72,6,5.45,9.08,7.81,0-.18,0-.36-.18-.36A43.64,43.64,0,0,0,92.63,55h-.18a40.08,40.08,0,0,1-.54-6.54,38.67,38.67,0,0,0,7.63,6.9,34.15,34.15,0,0,0,2.36,6.9l.54,1.64c.18.18.18.18.18.36.19.18.19.37.37.73a.67.67,0,0,1-.18-.55l1.63,1.64a25.41,25.41,0,0,0-2.36-1.27c-.18-.18-.36-.18-.18,0A128.65,128.65,0,0,0,118.43,75.7h0a4.71,4.71,0,0,1,.91.55h.54c-.18-.18-.36-.36-.54-.36a11.29,11.29,0,0,1,2.54.18,13.89,13.89,0,0,0,4-.55c5.45-1.63,8.72-4.9,9.81-10,.18-.36.37-.72.55-1.09A2.68,2.68,0,0,1,137,65v-.36c-.18-.19-.36-.37-.54-.37.36-.73.54-1.45.91-2.18A25.46,25.46,0,0,0,137,65a.54.54,0,0,0,.19-.36A35.56,35.56,0,0,0,138.23,59l.54-4.9a36.13,36.13,0,0,0-8.54-24.52l-.18.18a13,13,0,0,0-10.35-5.27.69.69,0,0,0-.55.18,45.94,45.94,0,0,0-4.9-.72c-5.63,0-10.35,1.27-14.17,4a23.56,23.56,0,0,1,12.72-5.81l-.19-.18c-1.09,0-2.18-.18-3.45-.18a22.38,22.38,0,0,0-8.54,4.36,25.41,25.41,0,0,0-5.08,5.81,2.6,2.6,0,0,0-.73-.55Zm8.72-3.63h-.18a13.35,13.35,0,0,0,3.81,4c.19.18.37.36.55.36A6,6,0,0,0,105,33.93a3.93,3.93,0,0,0-.72.9,32.13,32.13,0,0,0-5.45-4.35h-.18a17.22,17.22,0,0,0,5.27,4.35.18.18,0,0,0,.18.19c-.37.54-.73,1.09-1.09,1.63a16.12,16.12,0,0,1,.91-1.82,10.7,10.7,0,0,0-1.64,2.73,32.83,32.83,0,0,1-2.54-2.36l.9-.91a4,4,0,0,1-1.08.73,40.39,40.39,0,0,0-3.27-2.55,3.34,3.34,0,0,1,.9-1.27,20.45,20.45,0,0,1,12-6,24.67,24.67,0,0,1,7.27-.37c.18.19.18.19.18.37-.55,0-1.27.18-2,.18-2.54.36-3.81,1.27-3.45,2.72a.56.56,0,0,1,.18-.36c0-.18.18-.36.18-.54a.58.58,0,0,0,.19-.37,19.53,19.53,0,0,1,3.45-1.27c.54,0,1.09-.18,1.63-.18q5.73,6.27,11.45,13.08a36.07,36.07,0,0,0,6.54,7.45h.36a29.48,29.48,0,0,1,0,4,64.93,64.93,0,0,0-7.09-7.08c-.72-6.18-4.17-10.36-10.35-12.72a.66.66,0,0,0-.54.18h0a16.82,16.82,0,0,1,4.9,2.91h-.55a8.45,8.45,0,0,0-6.35-2.91,3.42,3.42,0,0,1-1.27.19A23.39,23.39,0,0,1,108.07,27h-.18a11.62,11.62,0,0,0,5.45,3.64,33.27,33.27,0,0,0-4.18.91C107.35,30.29,105.35,29,103.35,27.75Zm-1.63,10.72a.54.54,0,0,0-.19.36c-.36.91-.72,1.82-1.09,2.73a21.94,21.94,0,0,0-3.81-3.09A15.87,15.87,0,0,1,99,35.92,35.37,35.37,0,0,0,101.72,38.47Zm.72.36h.18a.39.39,0,0,0,.37-.36.63.63,0,0,1-.18-.37,11.13,11.13,0,0,1,5.08-4.9,1,1,0,0,1,.73-.36,7.71,7.71,0,0,0,3.27.72c0-.18-.18-.18-.18-.36l-1.64-1.09a15.5,15.5,0,0,1,3.09-.91,7.45,7.45,0,0,1,6.18,1.46,27.59,27.59,0,0,1,3.08,2.17,12.12,12.12,0,0,1,3.27,6,12.41,12.41,0,0,0-.9-2.36h-.19c0,.18.19.54.19.72a22.37,22.37,0,0,0-4.18-5.26h-.19a24.91,24.91,0,0,1,5.27,8.17,44.87,44.87,0,0,1,.91,11.08,81.88,81.88,0,0,1-1.27,9.27v.18l-.18-.18H125a.39.39,0,0,0,.36.36,8.48,8.48,0,0,0-.54,1.27,6.59,6.59,0,0,1-1.09,1.09A19.09,19.09,0,0,1,113,67.53a15.84,15.84,0,0,0,9.63-.18l1.09-.55a10.52,10.52,0,0,1-2,2v-.18h-.19c0,.18,0,.18.19.18h-.19a7.23,7.23,0,0,1-1.81.73,22.2,22.2,0,0,1-6,0c-1.46-.55-2.91-1.27-4.36-1.82a11.15,11.15,0,0,1-7.27-7.26c-.18-.91-.55-1.82-.73-2.73a42.11,42.11,0,0,1-.18-14.35,1.79,1.79,0,0,0,.91.73H103v-.18l-1.64-1.64A11.05,11.05,0,0,1,102.44,38.83Zm-6.72-1.09h-.18c0,.18.18.36.36.55-.18.18-.36.36-.36.54a32,32,0,0,0-3.45,5.63,27.76,27.76,0,0,1,.73-4.18,14.1,14.1,0,0,1,1.63-4.9c.54-.91.91-1.63,1.45-2.54.91.91,1.82,1.81,2.73,2.9a9.79,9.79,0,0,0-2.36,2.36C96.08,37.92,95.9,37.74,95.72,37.74ZM91.91,48.1c.36-1.09.54-2,.91-2.91a23.83,23.83,0,0,1,3.45-6.36,19.15,19.15,0,0,0,3.81,3.82A27.46,27.46,0,0,0,99,50.27c-1.82-1.81-4-3.45-6-5.08h-.18A31.46,31.46,0,0,0,99,50.46a30,30,0,0,0,.36,4.17,40.44,40.44,0,0,0-7.26-6.35h-.18Zm25.43-22.89H119a18.75,18.75,0,0,1,10.18,5.08,12,12,0,0,1,2.17,3.09A31,31,0,0,1,135,44.28a.63.63,0,0,0-.18-.36h-.19a1.34,1.34,0,0,1,.37.91.66.66,0,0,0,.18.54c-.18,0-.18,0-.18-.18a22.22,22.22,0,0,1-2.91-2.91h.18V42.1c0-.18,0-.36-.18-.36A84.75,84.75,0,0,0,117.34,25.21Zm-.18-.18h0Zm15.62,9.44a6,6,0,0,1,.91,1.82,22.76,22.76,0,0,1,1.81,3.63,39.34,39.34,0,0,1,1.27,6.72h0v2a13.6,13.6,0,0,0-.91-2.54,27.49,27.49,0,0,0-2.36-9.81A12.54,12.54,0,0,0,132.78,34.47Zm-4.73,9.63v-.18q3.55,3.54,7.09,7.63c-.18.72-.18,1.45-.36,2.18.18,0,.36-.19.54-.19v-.36a2.32,2.32,0,0,0,.18-1.09h.36a20.2,20.2,0,0,0-.36,3.27,40,40,0,0,0-7.45-7.26,9.26,9.26,0,0,0,.19-2.37,3,3,0,0,0-.19-1.27ZM135.86,47a14.6,14.6,0,0,1,.91,3.08,32.4,32.4,0,0,1-.18,4.18,8.92,8.92,0,0,1-.18-2.18v-.36c.18,0,.18-.18.18-.37a.39.39,0,0,1-.36-.36c-.18,0-.18-.18-.18-.36V51c0-.18-.19-.36-.37-.54A22.17,22.17,0,0,0,135.86,47Zm1.82,9.44V57.9a28.8,28.8,0,0,1-1.63,5.63v-.72h-.19a8.81,8.81,0,0,0,.37-2.18l.36.36v-.36a.18.18,0,0,1-.18-.18v-.37A21.53,21.53,0,0,0,137.68,56.45Zm-2.36,0c0,.73-.18,1.45-.18,2.18a24.33,24.33,0,0,0-6.36-5.81h-.18c2,2.18,4.18,4.54,6.36,6.54,0,.72-.18,1.27-.18,2v.19c-.19.36-.37.54-.37.91-2-1.64-4-3.09-6.17-4.55a20.93,20.93,0,0,0,0-5.81c0-1.09-.19-2.18-.19-3.27C130.42,51.36,133,53.91,135.32,56.45Zm-10.17,10V65.17c.36-.54.72-1.09.91-1.45,1.09.72,2,1.45,3.27,2.18-.18-.19-.18-.19-.18-.37-.91-.72-1.82-1.45-2.91-2.18a20.91,20.91,0,0,0,2-5.27c1.81,1.64,3.81,3.27,5.81,4.91A7.63,7.63,0,0,1,133,65a11.85,11.85,0,0,0,1.45-1.64,43.71,43.71,0,0,1-1.81,4.36.18.18,0,0,0,.18-.18c.36-.36.54-.73.91-1.09a15.14,15.14,0,0,1-3.64,5.27A3.61,3.61,0,0,0,131.5,71a4.81,4.81,0,0,1-.9,1.09,5.59,5.59,0,0,1-2.36,1.64c-1.64-1.46-3.64-2.91-5.45-4.36h0A8.64,8.64,0,0,0,125,66.8a34,34,0,0,1,4,3.64h.91c0-.18,0-.18-.18-.18A15,15,0,0,0,125.15,66.44Zm-9.09,4.9a6.62,6.62,0,0,0,2.19.37,37,37,0,0,0,5.63,3.63,38.73,38.73,0,0,1-4.54.36c-2.73-1.81-5.63-3.81-8.36-5.44A21.1,21.1,0,0,0,116.06,71.34Zm2.73.37a2.62,2.62,0,0,1,1.09-.37,10.06,10.06,0,0,0,2.73-1.81c1.45,1.45,3.08,2.91,4.9,4.54a8.83,8.83,0,0,1-3.09,1.09A35.85,35.85,0,0,0,118.79,71.71ZM94.27,64.44a70.16,70.16,0,0,1,5.81,4.91c2.18,2,4.36,3.81,6.72,5.63-1.82-.73-3.81-1.46-5.63-2.36A25.14,25.14,0,0,1,94.27,64.44Z"/><path class="g" d="M96.08,43.92c-.18-.18-.36-.18-.18,0a5.31,5.31,0,0,0,2,2v-.37A7.68,7.68,0,0,0,96.08,43.92Z"/><path class="g" d="M123.51,27.75c-.36-.18-.54-.18-.36,0,2.91,3.82,6,8,9.08,12.17a.68.68,0,0,0,.55.18c.18,0,.18,0,.36-.18v-.18A77,77,0,0,0,123.51,27.75Z"/><path class="g" d="M98.27,69.71v.18c.18,0,.36.18.54.37-.18-.19-.36-.37-.36-.55Z"/><path class="g" d="M27.06,25.57h-.18a38.74,38.74,0,0,0,6.72,5.09,14.12,14.12,0,0,0-.37,2.72,60.54,60.54,0,0,0-11.08-7.81H22c3.64,2.91,7.27,5.63,11.08,8.54l.18.18a1.12,1.12,0,0,1-.18.73,10.23,10.23,0,0,0-5.63-2.18l-9.26-7.09h-.37Q21.89,29,26,32.84h-.91a8.27,8.27,0,0,0-2,.18,57.06,57.06,0,0,0-10.9-6.9H12A61.57,61.57,0,0,1,21.61,33c-1.27.18-2.91.36-4.18.54A80.59,80.59,0,0,0,7.26,27.93c3.63-3.27,8.36-4.36,14-2.9v-.19a30.23,30.23,0,0,0-3.46-.72,65.3,65.3,0,0,1,19.8.91A2.9,2.9,0,0,0,36,24.12c-.55-.18-.91-.37-1.45-.55-.19-.18-.37-.36-.55-.36a14.81,14.81,0,0,0-2.9-.18H25.61a38.27,38.27,0,0,0-10.18.72,5,5,0,0,0-1.63-.18,6.14,6.14,0,0,1-1.45.55,12.55,12.55,0,0,0-9.63,8.35,5.4,5.4,0,0,0-.37,1.64A15.71,15.71,0,0,0,.18,45a.63.63,0,0,0,.18.36.56.56,0,0,1,.18.36,16,16,0,0,0,6.17,6.91,2.52,2.52,0,0,1,1.82.9c.55,0,1.09.19,1.82.19a14.24,14.24,0,0,1,9.26,3.08,11.27,11.27,0,0,1,4.91,9.45c-.19.18-.37.18-.37.36a.18.18,0,0,0-.18-.18h-.18a.63.63,0,0,1,.18.36,13.74,13.74,0,0,1-7.45,2.73,19.93,19.93,0,0,1-3.27.18h-.18a33.42,33.42,0,0,1-8.35-1.45H4.53a6.27,6.27,0,0,0-2-.73c-.37,0-.19.18.18.55a9.56,9.56,0,0,0,2,.9A1.1,1.1,0,0,1,4,68.8a11.39,11.39,0,0,1,1.09.73,18.09,18.09,0,0,0,1.82.91,81.64,81.64,0,0,0,11.26,7.45,14.66,14.66,0,0,1-5.63.54A67.38,67.38,0,0,0,2.17,70.07V67a1.3,1.3,0,0,1-.72-.19v.37a.54.54,0,0,0-.19.36l-.36.36c-.18.19-.18.19-.18.37v1.45l-.18.18.18.18a24.72,24.72,0,0,0,.36,6.36c-.36,0-.36,0,0,.36.18.19.37.37.55.55v1.27a.18.18,0,0,0,.18.18c.18,0,.36.18.54.18V77.7A21.14,21.14,0,0,0,16.52,81,9.12,9.12,0,0,0,22,78.79a20.39,20.39,0,0,0,10.72-5.08c.54,0,1.09.18,1.45.18a.18.18,0,0,0-.18-.18c-.18-.19-.54-.37-.73-.55a23.88,23.88,0,0,0,1.82-2.36h.36A9.24,9.24,0,0,0,37.23,67v-.91A2.64,2.64,0,0,0,37.59,65h-.18a22.78,22.78,0,0,0,.37-5.09V57.72A7.36,7.36,0,0,0,36,53.54a12.5,12.5,0,0,0-7.81-4.72c-2.73-.36-5.27-.91-7.81-1.45-4.36-.91-6.54-3.45-6.9-7.45.18,0,.18-.18.36-.36a.18.18,0,0,1,.18-.18c-.18-.19-.18-.37-.36-.37a.39.39,0,0,0-.37-.36l-.54.54a3.19,3.19,0,0,0-.91-.72c0-.18,0-.18.18-.37a5,5,0,0,1,1.27-1.63h.37a1.85,1.85,0,0,0,.91.73c.18,0,.18,0,.36-.19a.18.18,0,0,0-.18-.18.39.39,0,0,0-.37-.36l-.18-.18h.55A32.42,32.42,0,0,1,24,35c.18,0,.18.18.55.36.36,0,.54.18.9.54.19,0,.19-.18.37-.18,0-.18,0-.18-.18-.36L25.24,35h-.18a36.38,36.38,0,0,1,6.36.54,6.42,6.42,0,0,0,1.45.91,9.2,9.2,0,0,1-.36,2.18c-.18.54,0,.73.54.73.18-.37.55-.73.73-1.09.18-.19.36-.37.36-.55.37-.18.55-.18.55-.36a.18.18,0,0,0,.18-.18v-.37a.39.39,0,0,1-.36-.36,65.28,65.28,0,0,0,.36-11.81h-.18c-.18.37-.55.55-.91,1.09v.18a35.25,35.25,0,0,1-.18,4.36A54.66,54.66,0,0,0,27.06,25.57ZM5.44,30.66c.18-.18.18-.37.37-.37H5.44c0,.19,0,.19-.18.19H5.08v.18h0a11.18,11.18,0,0,0-1.45,1.63,12.08,12.08,0,0,1,1.27-2,.69.69,0,0,0-.18.55,3.07,3.07,0,0,0,.36-.91L6.9,28.11a27.66,27.66,0,0,1,4.72,3.27A18.3,18.3,0,0,0,16,33.93c-.55,0-1.09.18-1.45.18a3.87,3.87,0,0,1-1.28,1.09v.18A26.31,26.31,0,0,0,5.44,30.66Zm1.64,4.17c-.18-.18-.18-.18-.18,0a34,34,0,0,0,4,3.27c-.18,0-.18,0-.36.19v1.63c0,.73,0,1.27.36,1.64a12.65,12.65,0,0,0,2.36,4.36A65.86,65.86,0,0,0,2,38.65V37.38a18.28,18.28,0,0,1,3.45-6.72,82.14,82.14,0,0,1,7.45,5.26c-.54,0-.91.19-1.27.19.36.18.54.18.73.36a1.43,1.43,0,0,1-.91.36v.37c-.18.18-.18.36-.37.54C9.62,36.83,8.53,35.74,7.08,34.83Zm6.54.73h-.18c-.19,0-.19,0-.19-.18A1.36,1.36,0,0,0,14,35c.18,0,.36-.19.73-.19h.36A2.48,2.48,0,0,1,14,35.2C13.8,35.38,13.62,35.38,13.62,35.56Zm-2.18,3.27c.18,0,.18,0,.18-.18a4,4,0,0,1,.91.54c-.18,0-.18,0-.18.19V41c0,.73,0,1.09-.37.91a2.07,2.07,0,0,1-.54-1.45A2.56,2.56,0,0,0,11.44,38.83Zm-9.63-.18H1.63c0-.18,0-.18.18-.36Zm-.18.18h.18A17.8,17.8,0,0,0,3.08,45c.18,0,.18-.18.36-.18.19-.19.19-.19,0-.37A11.17,11.17,0,0,1,2,39,160.78,160.78,0,0,0,17.61,50.09c.18,0,.18-.18.37-.18.18-.18.18-.18.18-.36A20.54,20.54,0,0,0,22.88,51c.18,0,.18,0,.36-.18a.18.18,0,0,1,.19-.18c.18-.18.18-.18.18-.37a2.42,2.42,0,0,1-.73-.54c-.73-.18-1.45-.54-2.18-.73a9.86,9.86,0,0,1-4.9-2.72,11,11,0,0,0,2.54,1.27c4.72,1.64,9.45,3.09,14.17,4.54h.18l.18.18a9.63,9.63,0,0,1,1.82,2,29.55,29.55,0,0,1,1.63,5.27h-.18a43.74,43.74,0,0,0-13.26-6.9v.18a.18.18,0,0,0-.18.18v.18a6.55,6.55,0,0,0,2,.36,1.75,1.75,0,0,0,.91.73c3.27,2,6.72,3.81,10.17,5.81h.54a.67.67,0,0,0,.18.55c-.18.72-.18,1.27-.36,2,.18-.18.18-.18.36-.18a18.52,18.52,0,0,1-4.36,9.8h.19a.19.19,0,0,1-.19.19H32a17.36,17.36,0,0,0,2-5.09c-.18,0-.18,0-.36.18a20.86,20.86,0,0,1-2.18,4.54c-2.18-1.45-4.36-3.09-6.36-4.72a2.39,2.39,0,0,0,.73-.55,8.15,8.15,0,0,0,.18-2A14.86,14.86,0,0,0,32.14,69V68.8A53.32,53.32,0,0,1,26,64.44a12.54,12.54,0,0,0-1.45-4.36c2.18,1.82,4.54,3.82,6.9,5.82,1.45,1.27,2.36,1.45,3.27.9-.18,0-.18-.18-.37-.18-3.26-2.36-6.72-4.72-10.17-7.08A12.38,12.38,0,0,0,19.43,55v-.18a.62.62,0,0,0-.36-.19c-4.54-2-8.9-4.17-13.26-6.17H5.62c3.64,2,7.45,3.81,11.27,5.63a15.54,15.54,0,0,0-2.73-.55A13.51,13.51,0,0,1,2.9,47.19a1.85,1.85,0,0,1-1.09-.91c0-.18,0-.36-.18-.36v-.73c-.18,0-.18-.18-.18-.36a.66.66,0,0,1-.19-.37V44.1A16.67,16.67,0,0,1,1.63,38.83Zm22.52-4.9a.18.18,0,0,1-.18-.18h1.09a2,2,0,0,0-.91.18Zm-7.08.9c-.37.19-.91.19-1.27.37A.18.18,0,0,1,16,35,2.2,2.2,0,0,1,17.07,34.83Zm5.27-.9c.18,0,.36.18.54.36h-.73a21.17,21.17,0,0,0-4.72.54l2.73-.54A9.11,9.11,0,0,1,22.34,33.93ZM21.06,70.44h-.54a41.58,41.58,0,0,0,5.27,4.18,3.67,3.67,0,0,0-1.09.72c0-.18,0-.18-.18-.18a29.15,29.15,0,0,0-6.18-4.36,18.55,18.55,0,0,0,6.36-3.09,20.68,20.68,0,0,0,4,4c.19,0,.37.18.55.18-1.09.91-2,1.63-2.91,2.36C24.52,72.8,22.88,71.71,21.06,70.44Zm-18.71,2v-1.1a55,55,0,0,0,10,7.09,24.91,24.91,0,0,1-3.82-.36A46.58,46.58,0,0,1,2.35,72.44Zm-.9-.19v.19a33.74,33.74,0,0,1,.18,4.17c-.18,0-.18,0-.37-.18v-.36A25.73,25.73,0,0,0,1.45,72.25Zm0-.18v0ZM8.17,70.8a48.69,48.69,0,0,0,4.9.73,64.2,64.2,0,0,0,8,5.45c-.9.36-1.81.54-2.54.91Q13.08,74.33,8.17,70.8ZM2.9,77.34c-.18-.18-.36-.18-.55-.36V73.52c1.28,1.46,2.55,2.73,4,4.18-.91-.36-2-.72-3.09-1.09A.94.94,0,0,1,2.9,77.34ZM30.69,73a23.52,23.52,0,0,1-2.18,2.36h-.18a14.12,14.12,0,0,1-2.91,1.45l-1.63.55a13.07,13.07,0,0,0,3.09-2h.72c0-.18-.18-.18-.18-.36a8,8,0,0,0,2.18-2.73A3.93,3.93,0,0,1,30.69,73Zm-7.08,2.91a8.54,8.54,0,0,0-1.82.9c-2.91-1.81-5.63-3.45-8.17-5.26a15.23,15.23,0,0,0,4-.55A65.84,65.84,0,0,1,23.61,75.89Z"/><path class="g" d="M2.9,35.38H2.72c2,1.63,4,3.09,6.36,4.9a.66.66,0,0,0,.54-.18c.18,0,.18,0,.36-.18-.18-.18-.36-.54-.54-.73L4,35.38Z"/><path class="g" d="M4.53,43.74c-.36-.19-.36-.19-.36,0,4.91,3.63,9.81,6.9,14.71,10.17.37,0,.73-.18,1.09-.18l.19-.19c0-.18-.19-.18-.19-.36C14.89,50.09,9.62,46.82,4.53,43.74Z"/><path class="g" d="M35.05,62.63c0-.18,0-.18-.18-.37a68.72,68.72,0,0,1-12.72-8.17c-.36.54,0,1.27,1.28,2.18,1.45,1.09,2.72,2,4.17,3.09A13.08,13.08,0,0,0,35.05,62.63Z"/></svg>