<svg xmlns="http://www.w3.org/2000/svg" xmlns:xlink="http://www.w3.org/1999/xlink" viewBox="0 0 138.78 104"><defs><style>.a{fill:none;}.b{clip-path:url(#a);}.c{clip-path:url(#b);}.d{fill:#f1e4b2;}.e{fill:#00a19b;}.f{fill:#d27571;}.g{fill:#333;}</style><clipPath id="a"><rect class="a" x="-2066.38" y="-165.79" width="1924.39" height="2777.58"/></clipPath><clipPath id="b"><polygon class="a" points="92.14 2610.71 -2300.51 2611.79 -2300.51 -171.64 91.94 -171.64 92.14 2610.71"/></clipPath></defs><path class="d" d="M40.86,40.32a20.14,20.14,0,0,1,4.06-1.86l-4.38-7.52a23.43,23.43,0,0,0-5,6.83,4.54,4.54,0,0,0,6.16,6.16L59.31,35l-4.55-7.77L37.06,37.46c-4.29,2.48-1.45,10,3.47,8.23l20.22-7.26L57.28,30.2A162.1,162.1,0,0,0,38.9,40.71c-4.12,2.72-1.63,9.7,3.47,8.22,7.93-2.29,15.91-4.62,24.12-5.71l-2.27-8.38-22.3,9.62c-5.12,2.21-1.06,8.85,3.47,8.22q14.73-2,29.34-4.74l-2.39-8.68Q62,41.8,51.8,44.66c-4.82,1.35-4,9,1.19,8.84l14.46-.36v-9L44.33,46.91c-4.89.58-6.3,7.16-1.2,8.84l1.94.64V47.71l-1.31.39,5.53,5.53a18.69,18.69,0,0,0,.37-4A4.56,4.56,0,0,0,42,46.5c-3,2.63-7.59,7-6.09,11.34S43.14,63.27,47,63.76l-3.18-1.32c3,3.57,10.79,2.61,15,2.94v-9l-17.66-.05c-5.79,0-5.79,8.94,0,9A83.31,83.31,0,0,1,53.87,66.4V57.72a39.8,39.8,0,0,1-6.44,1.84c-5,1-3.84,9,1.2,8.84,8.92-.29,18.7-1.67,27.53-.1,3.69.66,7.23,1.7,11,1.76A60.18,60.18,0,0,0,99.7,68.42a4.53,4.53,0,0,0,2.69-6.61c-2.45-3.71-3-7.87-3.86-12.13a47.24,47.24,0,0,0-4.28-11.61,51.07,51.07,0,0,1-4.92-13.14,39.5,39.5,0,0,1-.73-7.36c0-2.21.62-4.73.15-6.89C86.85,2,77,7.91,73,11.34,69.8,14.14,67,17.3,63.6,20c-3.84,3-8,5.69-12.08,8.36l4.54,7.77L69.45,25.9c3.15-2.4,7.53-4.67,8.35-8.85s-3-6.7-6.61-5.08c-9,4-23.37,9.57-24.35,21-.25,2.94,3.08,5.08,5.7,4.34A124.81,124.81,0,0,0,78.31,26.75l-5.46-7.07c-3.5,2.92-7,5.82-10.49,8.75-2.68,2.25-5,4.29-5.8,7.82a4.64,4.64,0,0,0,3.14,5.54c3.65,1.38,6.89.37,10.45-.76,4.4-1.4,8.79-2.85,13.18-4.28,5.48-1.78,3.19-10.37-2.39-8.68A72.35,72.35,0,0,0,64.09,35.6a4.56,4.56,0,0,0,1.08,8.23A54,54,0,0,0,79,46l-2.27-8.38c-4.56,2.26-11.12,4.19-14.34,8.3-1.85,2.36-1.72,6.86,2,7.52,2.3.41,4.6.71,6.93.92l-1.2-8.84L56.23,48.19c-4.93,1-3.88,9.25,1.2,8.84l6.81-.57L63,47.62l-5.58,2c-3.92,1.42-4.62,7.56,0,8.68a105.45,105.45,0,0,0,10.58,2c3.85.53,6,.85,9.25,3.14,3.76,2.65,8.8,4,12.29.05a9,9,0,0,0-.36-11.78c-3.67-4.12-9.76-5-15-5.3l1.19,8.84a28.35,28.35,0,0,0,10.65-5.87,4.54,4.54,0,0,0,0-6.37,12.11,12.11,0,0,0-9.2-3.57l1.2,8.84,2.71-.92c3-1,3.89-3.86,2.69-6.61L83,39.67l.45,3.46a57.73,57.73,0,0,0,1.74-15.26c0-2.8-2.84-5.26-5.69-4.34a14.21,14.21,0,0,0-10.07,11c-1.11,5.66,7.56,8.08,8.67,2.39.47-2.35,1.4-3.9,3.79-4.67l-5.7-4.34a45.46,45.46,0,0,1-.81,10.28c-.6,2.92-.89,4.38.34,7.17l2.68-6.61-2.71.92c-4.6,1.55-4.11,9,1.2,8.84a2.71,2.71,0,0,1,2.84.94V43a17.63,17.63,0,0,1-6.68,3.56c-5,1.49-3.81,8.51,1.2,8.84a23.07,23.07,0,0,1,5.22.81c.8.25,2.24,1.3,3,1.32,3.33.09-.65-2.09-1.34-2.59a16.34,16.34,0,0,0-2.85-1.81c-2.31-1.09-4.85-1.18-7.35-1.48a96,96,0,0,1-11-2v8.68l5.58-2c4.44-1.61,4.22-9.28-1.19-8.84L57.43,48l1.19,8.83,13.89-2.7c5.31-1,3.54-8.42-1.19-8.84a31.53,31.53,0,0,1-4.54-.6l2,7.52c2.59-3.31,8.79-5,12.51-6.89,4.17-2.08,2-8.28-2.27-8.39a44,44,0,0,1-11.45-1.81l1.07,8.22a63.09,63.09,0,0,1,14.7-6.62l-2.39-8.68-9.42,3.06c-2.73.88-6.56,3.07-9.42,2l3.14,5.53c.6-2.51,4.61-4.78,6.48-6.34l7.5-6.25c4-3.37-1.12-9.44-5.46-7.07A113.52,113.52,0,0,1,50.15,28.6l5.69,4.34c.3-3.43,6.54-6.53,9.2-8a116.86,116.86,0,0,1,10.69-5.17l-6.61-5.09c-.18.93-3.54,3-4.21,3.48l-4.46,3.39-8.93,6.8c-4.47,3.4-.44,11,4.54,7.77A160.84,160.84,0,0,0,70.84,25.63C74,23,79.37,15.31,83.71,15l-3.18-1.32.62.75-1.32-3.18c.17,4.87-.31,9.48.51,14.35A52.1,52.1,0,0,0,85,39.69C87.11,44,89,48.07,90,52.85s1.89,9.37,4.62,13.5l2.69-6.61c-4.34.88-8.73,1.77-13.17,1.08C80.72,60.29,77.42,59.3,74,59c-8.34-.79-17,.15-25.33.42l1.2,8.84a40,40,0,0,0,6.43-1.84c3.68-1.39,4.84-7.88,0-8.68a99.28,99.28,0,0,0-15.1-1.39v9l17.66,0c5.86,0,5.71-8.56,0-9-2.64-.21-6.43,0-8.62-.49-.29-.07-6.19-1.78-6.31-2l.45,3.47c.63-1.73,2.67-3.27,4-4.44l-7.68-3.19,0,1.56c-.56,3.22,2,6.59,5.53,5.53l1.31-.38a4.54,4.54,0,0,0,0-8.68l-1.94-.64-1.19,8.84,23.12-2.77c5.58-.67,5.94-9.15,0-9L53,44.5l1.2,8.84q10.23-2.87,20.54-5.4c5.69-1.39,3.23-9.72-2.39-8.68Q57.72,42,43,44l3.47,8.23,22.29-9.62c4-1.72,2.08-9-2.27-8.39a181.39,181.39,0,0,0-26.52,6l3.47,8.23A163,163,0,0,1,61.82,38c4.54-2.21,1.35-9.95-3.46-8.22L38.14,37l3.46,8.22L59.31,35c5-2.92.59-10.39-4.55-7.77L37.2,36.16l6.15,6.15a16.53,16.53,0,0,1,3.56-5c3.14-3-.06-8.94-4.38-7.52a31.71,31.71,0,0,0-6.21,2.77c-5,2.93-.48,10.71,4.54,7.77Z"/><path class="e" d="M28.45,36.73a98.48,98.48,0,0,0,5.8,28.9l5.85-3.4c-5.47-5.5-5.15-13.34-4.87-20.56.17-4.5-6.83-4.49-7,0-.35,9.22,0,18.59,6.92,25.5,2.35,2.36,7.09,0,5.85-3.4a91.66,91.66,0,0,1-5.55-27c-.23-4.49-7.23-4.51-7,0Z"/><path class="e" d="M87.3,4.8a147.79,147.79,0,0,0,4.13,14.3c1.74,5,2.44,10.3,3.85,15.42s2.91,9.92,4.38,14.87c.71,2.4,1.38,4.82,2.24,7.16.92,2.51,3,5.39,2.87,8.12l5.59-1.52c-7.32-13.29-9.93-27-12.66-41.73-.7-3.79-6.48-2.19-5.78,1.59,1.42,7.69,2.53,15.52,4.64,23.05a94.6,94.6,0,0,0,8.62,20.12c1.49,2.71,5.47,1.35,5.59-1.51.19-4.66-2.9-8.92-4.25-13.28-1.74-5.58-3.37-11.21-5-16.84-1.48-5.13-2.18-10.48-3.81-15.56C96,13.73,94.37,8.58,93.08,3.2,92.19-.55,86.4,1,87.3,4.8Z"/><path class="e" d="M45.81,72c2.84,6,5.09,12.09,7.44,18.25,1.3,3.4,3.39,8.57,7.34,9.63a4.06,4.06,0,0,0,5.11-4.42,9,9,0,0,0-2.16-4.42c-2.23-3-4.39-5.36-5.48-9C56.85,78,57,71.35,53.75,68.23a4.62,4.62,0,0,0-7.41,1.5c-1.82,4,1.62,9.88,2.91,13.6,1.82,5.21,3.71,10.31,7.09,14.74,2.32,3,7.53,0,5.18-3-4-5.17-5.79-11.31-7.89-17.39-.59-1.71-.57-4.11-2.61-4.12s-.7,1.55-.34,3A74.24,74.24,0,0,0,53,85.87,23,23,0,0,0,56.66,92c.53.66,1.06,1.3,1.61,1.94l3.35-.58c.14-.66-2.4-4.28-2.86-5.47C56.32,81.52,53.94,75.18,51,69c-1.66-3.48-6.83-.44-5.18,3Z"/><path class="f" d="M98.24,28.51c4.89,3.41,5,9.08,4.32,14.44-.47,3.52,4.85,3.79,5.89.79,2.37-6.79-.24-18.61-8.36-20.26A3,3,0,0,0,97.78,29a25.18,25.18,0,0,1,4.6,4.08c1.65,1.88,1.53,3.5.8,5.84-1.15,3.7,4.61,5.26,5.79,1.6,2.21-6.93-.35-13.81-7.51-16.3C97.81,22.9,96.24,28.7,99.87,30c4.11,1.43,4.47,5.31,3.31,8.92l5.79,1.6c1-3.17,1.26-6.66-.62-9.54a27.65,27.65,0,0,0-7.54-7.16L98.5,29.26c4.76,1,5.44,9.23,4.17,12.89l5.89.8c1-7.71-.62-15-7.29-19.62-3.17-2.22-6.18,3-3,5.18Z"/><path class="g" d="M89.88.18c-.14.13-.27.13-.4.26A2.35,2.35,0,0,0,88.14,1c0-.14-.13-.14-.27-.14s-.26.27-.4.27h-.26c-.14,0-.27,0-.27.13s-.13.14-.27.27-.13.4-.26.67a.4.4,0,0,0-.14-.27h-.4V2a20.55,20.55,0,0,0,.27,2.81,2,2,0,0,1-.8.26h-.8a4.67,4.67,0,0,0,1.33-.93,30.72,30.72,0,0,1-2.94,1.34c-.26.13-.53.13-.66.26a44.55,44.55,0,0,0-17.49,8.55c-.4.13-.67.4-1.07.53a23.26,23.26,0,0,0-4.4,3.74c-.14,0-.14,0-.14.13a35.7,35.7,0,0,0-4.54,4.41c-1.6.8-2.93,1.6-4.4,2.4.13-.13.13-.27.27-.4-3.48,1.6-7.08,3.34-10.82,4.67a72,72,0,0,1-9.61,1.87l.13.13h2.54V32c-.13,0-.27,0-.27.13a4,4,0,0,1-1.33.4h.13c0-.13,0-.13-.13-.27a.49.49,0,0,1-.4-.13c0,.13-.14.13-.14.13-.26,0-.53.27-.8.27a7.17,7.17,0,0,0-2,4,.49.49,0,0,0-.13.4c0,.26-.14.4-.27.66s-.4.4-.53.8A14.49,14.49,0,0,0,26.33,42a22,22,0,0,0,.14,6.67l.13.14c.13,1.2.4,2.27.53,3.34v1.06a5.72,5.72,0,0,0,.14,1.47,17.24,17.24,0,0,0,1.46,5.88.48.48,0,0,0,.14.4,29,29,0,0,0,3.2,4.67,12,12,0,0,0,2.14,1.73c1.2,2,2.67,3.07,4.67,2.94a5.57,5.57,0,0,0,1.47,0,.29.29,0,0,0-.27.27s.14,0,.14.13h.4a4.6,4.6,0,0,1,1.87-.8,3.62,3.62,0,0,1,1.73-.4,20.35,20.35,0,0,0,.94,5.61c.13,0,.13,0,.13.13.27.53.4,1.07.67,1.6s.13.8.26,1.07v1.2c0,.13.14.13.27.27a3.72,3.72,0,0,0,.27,1.2A71.7,71.7,0,0,0,55.7,98.7h.4A7.83,7.83,0,0,0,59.31,103c1.46,1.06,2.8,1.2,3.87.26,0-.26-.14-.4-.14-.53a6.44,6.44,0,0,0,1.74-.4,6.1,6.1,0,0,1,1.07-1.47v-.13A6.93,6.93,0,0,0,66.91,94v-.4a.28.28,0,0,1-.26-.26h-.14c-.13.13-.13.13-.26.13-.14-.27-.4-.67-.54-.94a24.34,24.34,0,0,0-4-4.27c-.8-1.47-1.74-2.8-2.54-4.27-1.6-5.47-2.93-11.08-4.14-16.69a32.72,32.72,0,0,0,3.88-.53l3.2.4a.44.44,0,0,0-.27.13l.14.14a1,1,0,0,1,.53-.27c2.54.13,4.94.4,7.34.67a2.22,2.22,0,0,0-.67.53c.14.13.14.13.27.13A2.76,2.76,0,0,1,70.52,68c2.54.27,5.07.67,7.61,1.2s4.94.94,7.47,1.47a14.37,14.37,0,0,0,9.22-.27,13.59,13.59,0,0,0,7.07-2.4,26.42,26.42,0,0,1-4.67,1.2A38.28,38.28,0,0,0,101,68.12a1.45,1.45,0,0,1,.66-.13,8.32,8.32,0,0,0,2.94-1.07c.13.27.27.27.27.54h0a1.89,1.89,0,0,0-.14.8c-.13.13-.13.26-.26.26v.27s0,.14.13.14c.4,0,.8.26,1.34.26a1.1,1.1,0,0,0,1.2.8.47.47,0,0,1-.14-.4h.14a.48.48,0,0,0-.14-.4,4.24,4.24,0,0,0,1.87.4c-.13.27-.26.27-.26.4a2.1,2.1,0,0,1-.94,0c0,.54.27.8,1.07.54a2.48,2.48,0,0,0,.67-.94h.53c.13-.13.4-.4.4-.66s.13-.41.27-.54c1.87-1.07,2.4-2.8,1.87-5.07l-.27-.27c-.13-.27-.4-.4-.53-.53a18.14,18.14,0,0,0-2.14-8.68,14.66,14.66,0,0,0-.93-3.47c-.54-1.47-1.07-2.8-1.61-4.27,0,.13.14.13.27.13a.44.44,0,0,0,.27-.13l.13-.14a.13.13,0,0,1,.13-.13.48.48,0,0,1,.14-.4,10.9,10.9,0,0,0,3.47-8.94c-.54-7.35-4.41-12.29-11.48-14.56a4.24,4.24,0,0,0-1.2-.13c-.54-1.73-1.07-3.34-1.6-4.94-.14-.8-.27-1.47-.41-2.27a34.85,34.85,0,0,0-2-7.34L92.28.44c-.13.14-.13.27-.27.4A2.44,2.44,0,0,0,89.88.18Zm-.8,1.6a1,1,0,0,0,.13.53c0,.13,0,.13.13.27a.42.42,0,0,1,.27-.14,1.2,1.2,0,0,1,1.6-.13,13,13,0,0,1,.54,1.2,42.29,42.29,0,0,1,2.13,5.21c.54,1.87,1.07,3.74,1.47,5.61.13.8.4,1.6.53,2.4a.48.48,0,0,1,.14.4c.53,2.13,1.07,4.4,1.47,6.67.4,2,.8,3.74,1.33,5.61a3.81,3.81,0,0,0-.53,1.07,2.42,2.42,0,0,1,.66-.54,83.07,83.07,0,0,0,4.54,12.55,11.84,11.84,0,0,1-2.27-3.73A17.68,17.68,0,0,0,104,44.5a3.07,3.07,0,0,0,.66,1.33,35.4,35.4,0,0,0,1.07,3.47c.67,1.74,1.2,3.47,1.87,5.21a.3.3,0,0,1-.27-.27v.27a13.85,13.85,0,0,0,.94,2c0,.4.13.8.13,1.34a.48.48,0,0,1,.4-.14.48.48,0,0,0,.4.14c.14.66.27,1.2.4,1.73v.13a3.12,3.12,0,0,0,.14,2.41,22.62,22.62,0,0,1-.27,3.07,17,17,0,0,1-2.94,1.73l-.4-.4v-.13c.14-.13.14-.27.27-.4s0-.14-.13-.14c.26.14.4.27.66.41a1.06,1.06,0,0,0,.54-.27c-.8-.67-1.47-1.47-2.14-2.14a.51.51,0,0,0-.13-.4c-.14-.13-.27-.27-.4-.27h0a8.88,8.88,0,0,1-1.07-1.2l-.67-1.33c-.4-.8-.8-1.87-1.2-2.8-1.47-3.34-2.67-6.68-4-10.28C97.22,45.83,96.68,44,96,42.09c.13-.13.13-.26.26-.53h-.13a.42.42,0,0,0-.13.27h-.14c-.4-1.34-.8-2.54-1.06-3.74V38a28.52,28.52,0,0,0,2,4.68.5.5,0,0,0,.4.13.44.44,0,0,0,.27-.13,17.54,17.54,0,0,1-1.74-4.41c-1.2-4.4-2.14-8.68-2.94-13.08a42,42,0,0,1-.66-4.27c-.14,0-.14-.14-.14-.27a12,12,0,0,0-.26-2.14c-.41-2.53-.81-4.94-1.34-7.34-.27-1.6-.53-3.34-.8-5.07-.13,0-.13,0-.27-.13h.14l-.14-.14h-.26c-.14-.26-.14-.53-.27-.67v-.4a23,23,0,0,1-.94-2.8A3.84,3.84,0,0,1,89.08,1.78Zm-2.54.66a.4.4,0,0,0,.13-.26L86.81,2v.54l-.14-.14Zm-1.74,4a1.71,1.71,0,0,0,.8-.13c-.66,1.46-1.2,2.93-1.86,4.4v.4a2.35,2.35,0,0,1,.13.94h.53c0-.14,0-.27.14-.27.66-1.74,1.2-3.61,1.73-5.34h0c.14,1.07.27,2,.4,3.07-.66,1.87-1.47,3.87-2.13,5.87-.14.4,0,.54.4.54l.26-.27a26.44,26.44,0,0,0,1.74-4.54,15.89,15.89,0,0,0,.53,2.4A44.54,44.54,0,0,0,85.2,17.8a5.87,5.87,0,0,0-.26,4.94s0-.14.13-.14a81.81,81.81,0,0,1,2.54-8.14c.26.93.4,1.87.66,2.8-1.06,3.47-2,6.94-3.07,10.41.4.14.54.14.81-.4a75.67,75.67,0,0,0,2.4-9.34c.67,2.54,1.33,5.21,2.13,7.61.27,1.33.54,2.67.8,3.87a32.81,32.81,0,0,0-2.13,7.34c0-.13,0-.13.13-.26.67-2,1.47-4.28,2.14-6.41.27,1.6.67,3.07.93,4.54v.13c-.26-.93-.53-1.6-.8-2.54h-.13A32.75,32.75,0,0,1,92,35.55c-.4,1.07-.93,2.27-1.33,3.21a.13.13,0,0,0,.13-.14,13,13,0,0,0,1.34-2.27c.26,1.07.4,2.14.66,3.21-.66,1.73-1.33,3.6-2.13,5.2.13,0,.26,0,.26-.13a.13.13,0,0,0,.14-.13A32,32,0,0,0,93,40.09c.13.4.13.67.26,1.07a19.5,19.5,0,0,0-1.2,3.6c.14,0,.27-.13.54-.26v-.27a14.28,14.28,0,0,0,.93-2,23.12,23.12,0,0,0,.94,3.33,13.35,13.35,0,0,0-.54,2.27c0-.13,0-.26.13-.26a6.72,6.72,0,0,1,.54-1.47c.13.4.27,1.07.4,1.47s.4,1.2.53,1.87c-.26.8-.4,1.6-.66,2.4a.44.44,0,0,0,.13-.27l.8-1.6a1.81,1.81,0,0,0,.27.8.13.13,0,0,1-.14.13A8.14,8.14,0,0,1,95,53.44a.5.5,0,0,0,.4-.13l.13-.14a9.81,9.81,0,0,0,.94-1.6,23.24,23.24,0,0,0,1.73,3.61c-1.06,2.13-2,4.13-2.93,6.27-.54.27-.67.53-.4.67a3.15,3.15,0,0,1,.93-.27c0-.13,0-.27.13-.27a43.32,43.32,0,0,0,2.54-5.74c.53.8.93,1.6,1.47,2.27-1.34,2.14-2.54,4.27-4,6.28l.14.13a14.09,14.09,0,0,0,4.14-6,20.84,20.84,0,0,0,1.46,2.14c.8,1.6,1.47,3.2,2.27,4.67-1.2.27-2.27.53-3.33.8V66a.5.5,0,0,1-.27.13c-2.4.67-4.81,1.34-7.08,2.14H90.54a128.38,128.38,0,0,1-14.55-2c.14-.27.4-.41.54-.67h-.27c-.27.26-.53.26-.8.53-.27-.13-.67-.13-1.07-.27.27-.13.53-.4.8-.53-.13-.13-.27-.13-.27,0a2.65,2.65,0,0,0-1.06.53,13.15,13.15,0,0,0-1.74-.53h-.27c.54.13,1.07.4,1.61.53-.81.41-1.47.67-2.14,1.07-1.74-.26-3.47-.4-5.21-.66a.14.14,0,0,1,.14-.14,11.58,11.58,0,0,1,5.07-2.94c0-.13,0-.13-.13-.13a2.47,2.47,0,0,0-.67-.27.48.48,0,0,0-.4.14,14.44,14.44,0,0,0-4.67,2.93.52.52,0,0,0,.13.41,3.92,3.92,0,0,0-1.2-.14,46.62,46.62,0,0,0,4.54-3.2c-.14,0-.27-.14-.4-.14s-.14.14-.27.14A21.23,21.23,0,0,0,63.44,66c-.53-.14-1.06-.14-1.46-.27h-.67v-.13a1.6,1.6,0,0,1-.8-.14c2.13-1.2,4.14-2.4,6.14-3.6,0-.13,0-.13-.14-.27a2,2,0,0,1-.8-.26,2.85,2.85,0,0,1-1.06.66A22.49,22.49,0,0,0,60,65.45H58.5a30.19,30.19,0,0,0,4.41-3.87h-.27a18.62,18.62,0,0,0-5.2,3.74c-.94.13-1.87.13-2.81.27a58.05,58.05,0,0,1,6.14-5.34,50.5,50.5,0,0,1,12.69,3.2,9.75,9.75,0,0,0-4.81,3.07h.27c1.6-1.07,3.07-2,4.67-3.07a11.92,11.92,0,0,0,2,.8,8.49,8.49,0,0,0-1.47-.8c-.13-.13-.13-.13-.26-.13h0a46.59,46.59,0,0,0-16.42-4.14c0-.13,0-.13.13-.27-.13,0-.13,0-.27.14v.13H57a6.12,6.12,0,0,0-2.14.13c.53.14,1.07.27,1.74.4a36.81,36.81,0,0,0-6.41,6.55h-.14c0-.14,0-.27.14-.27-.14,0-.27.13-.54.27a2.45,2.45,0,0,1-.93.26c.13,0,.13-.13.13-.26h-.13a.4.4,0,0,0-.13.26,8,8,0,0,0-1.74.27,24.35,24.35,0,0,0,7.34-7.88h-.4l-7.07,7.88c-.14-.53-.27-1.07-.4-1.6a13.5,13.5,0,0,0,4.54-6.28.47.47,0,0,0-.4.14,31.47,31.47,0,0,1-7.61,8l-.14-.14.14-.13c0-.13,0-.13-.14-.27a5.48,5.48,0,0,0-.93-.53c-.14-.54-.27-1.07-.4-1.47a1.86,1.86,0,0,1,.8.27v-.14c-.27-.13-.54-.4-.8-.53a.4.4,0,0,1-.14-.27c-.26-.93-.53-1.73-.8-2.53.54.4,1.2.8,1.74,1.2a.48.48,0,0,0,.4-.14l-.27-.26c-.8-.67-1.47-1.34-2.13-1.87-.27-1.07-.54-2.14-.81-3.07.41.4.94.8,1.47,1.33a.49.49,0,0,0,.4-.13c-.13-.13-.13-.27-.26-.27a12.71,12.71,0,0,0-1.87-1.87c-.14-.8-.4-1.47-.54-2.27.54.54,1.07.94,1.61,1.47a.51.51,0,0,0,.4-.13c-.14,0-.14-.13-.27-.13a24.51,24.51,0,0,1-1.87-2c-.27-.93-.4-2-.67-2.93,1.07.93,2,1.87,3.07,2.93a.49.49,0,0,0,.4-.13L41,52.77C40,51.44,38.75,50.1,37.68,48.9a.13.13,0,0,1-.13-.13c-.14-.8-.27-1.47-.4-2.14l1.46,1.47c.14,0,.14-.13.27-.13s0-.14-.13-.14-.14-.26-.27-.4A16.11,16.11,0,0,0,37,45.7a2.69,2.69,0,0,0-.13-.94v-.4a9.6,9.6,0,0,0,1.33,1.07c.14,0,.27,0,.27-.13s.13-.14.13-.14-.13-.13-.26-.26l-1.74-1.74a6.38,6.38,0,0,0-.27-1.6L38,42.76a.5.5,0,0,1,.13-.27.45.45,0,0,0-.13-.26c-.67-.67-1.21-1.07-1.87-1.74-.14-.53-.27-1.07-.4-1.6.93.67,2,1.33,3.07,2.13.13.14.13.14.13.27h.4c0-.13,0-.13-.13-.13a24.11,24.11,0,0,0-3.87-3.47c-.14-.54-.27-1.07-.4-1.6.93.66,1.86,1.33,2.67,2,.13,0,.26,0,.26-.14a.13.13,0,0,0,.14-.13c-.14,0-.27-.13-.4-.27a19.38,19.38,0,0,0-2.67-1.73h-.14c-.13-.27-.13-.4-.26-.54s-.14-.13-.14,0c-.13-.53-.27-1.06-.4-1.46.27-.14.4-.27.67-.4,0-.14,0-.14-.13-.27a.14.14,0,0,1-.14-.14,1,1,0,0,1,.54-.26c0-.14,0-.14-.14-.27a18.3,18.3,0,0,0,2.67-.67c1.74,1.47,3.61,2.94,5.48,4.28h.66V36c-1.87-1.47-3.73-3.07-5.6-4.4.66-.27,1.46-.4,2.27-.8h.13a6.75,6.75,0,0,0,4.54,3.07c-1.2-.81-2.4-1.61-3.74-2.41a.13.13,0,0,0-.13-.13c-.14-.13-.27-.4-.54-.67.94-.27,1.87-.67,2.67-.93A8.84,8.84,0,0,0,47.56,32c-.14,0-.27-.14-.4-.14a20.51,20.51,0,0,1-3.74-2.27,15.17,15.17,0,0,0,2.14-1.06c.66-.14,1.2-.4,1.73-.54h.13a6.05,6.05,0,0,1,.94-.53,7.23,7.23,0,0,0,1.47-.27,7.58,7.58,0,0,1-1.2.94c.13.13.26.13.4.26a11.75,11.75,0,0,0,3.07-1.73h0a3.6,3.6,0,0,0,.93-.54,16.08,16.08,0,0,0,5.07-3.6s.14-.27.27-.27a88,88,0,0,0,8.14-5.74,18.54,18.54,0,0,0-2.27,1.07c-1.06.67-2.13,1.33-3.2,1.87a66.77,66.77,0,0,1,6.68-5.34,2.14,2.14,0,0,1,.93-.54v-.13A85.4,85.4,0,0,0,81.33,7.12c.67-.14,1.2-.27,1.87-.4h.67A2.4,2.4,0,0,1,84.8,6.45Zm6.81-4.67h.14a.13.13,0,0,0,.13.13C91.75,1.91,91.75,1.78,91.61,1.78Zm7.48,21.09v-.13A7.48,7.48,0,0,1,103,24.07a.5.5,0,0,1-.4-.13C101.36,23.54,100.16,23.14,99.09,22.87Zm-9.21-6.68a29.79,29.79,0,0,1-.67-3.73c.67,3.47,1.47,6.94,2.27,10.54a8.09,8.09,0,0,1,.27,1.87C91.21,21.93,90.54,19.13,89.88,16.19Zm16,15h0a8.43,8.43,0,0,0-2.54,4.94.44.44,0,0,1-.13-.27c.66-1.87,1.2-3.74,1.73-5.61-.13,0-.13-.13-.13-.27a.13.13,0,0,1-.14-.13.59.59,0,0,0-.66.13c-.14.4-.4.81-.54,1.21-.26,1.33-.53,2.4-.66,3.6-.14-.53-.41-1.2-.54-1.87.4-1.2.8-2.54,1.2-3.74a.49.49,0,0,1-.13-.4.13.13,0,0,0-.13-.13.19.19,0,0,0-.27,0,31.61,31.61,0,0,0-1.07,3.2v-.13a21.86,21.86,0,0,1-.93-2.8,21.36,21.36,0,0,1,1.33-3.07.48.48,0,0,1-.4-.14v.14h-.4c0,.13-.13.26-.27.53a10.36,10.36,0,0,0-.53,1.47c-.13-.4-.27-.8-.4-1.2v-.14a.83.83,0,0,0,.27-1.06.46.46,0,0,0-.27.13c-.13.13-.13.27-.27.4A25.59,25.59,0,0,0,99.09,23a13.2,13.2,0,0,1,8.67,7.08c2.67,5.2,2.27,10.14-1.2,15.08v.14a2,2,0,0,1-.26-.8A12.44,12.44,0,0,0,108.57,40c-.94,1.2-1.74,2.27-2.67,3.47-.41-.94-.81-2.14-1.21-3.21a11.6,11.6,0,0,0,1.87-5.34c-.13,0-.26,0-.26.14-.67,1.47-1.34,2.93-1.87,4.4a12.37,12.37,0,0,0-.67-2c.13-.13.13-.4.13-.8a.13.13,0,0,1,.14-.13A33.18,33.18,0,0,0,105.9,31.15Zm5.74,33.24a.42.42,0,0,1-.14-.27v-1.2c.14.26.27.26.4.53v.27A5.93,5.93,0,0,1,110.7,68a26.42,26.42,0,0,0,.67-3.2v-.14h0ZM97.22,48.63v.14a4.92,4.92,0,0,1-.54-1.47l.14-.13C97,47.7,97.09,48.23,97.22,48.63Zm.13.67c.14,0,.14,0,.14.14.26,1.06.66,2.13,1.06,3.33a15.82,15.82,0,0,1-.66-1.87,5.68,5.68,0,0,1-.54-1.6Zm-1.87-6h.14a34.43,34.43,0,0,0,1.06,3.61h-.13C96.28,45.83,95.88,44.5,95.48,43.29Zm-.4-1.46a7.24,7.24,0,0,1,.4,1.06h0A10.6,10.6,0,0,1,95.08,41.83Zm13.62,26c-.54,0-.94.13-1.34.13a2.79,2.79,0,0,1-.53-.67,14.94,14.94,0,0,0,2.27-.66A5.89,5.89,0,0,0,108.7,67.86Zm-2.4-2h-.14c-.13,0-.13-.26-.13-.4C106.16,65.59,106.16,65.72,106.3,65.85Zm-72.23-34c-.13,0-.26.14-.53.14v-.14Zm-2.4,2.54a2.69,2.69,0,0,1,.94-.13c.13.53.26,1.2.4,1.73-.14,0-.27-.13-.4-.13h-.4c-.14.13-.14.13-.14.27a11.19,11.19,0,0,0,1.34,1.06,2.55,2.55,0,0,0,.26.94,22.86,22.86,0,0,1-1.73-1.6h-.13c-.14,0-.27.13-.41.26.81.94,1.74,1.87,2.54,2.67.13.54.27,1.07.4,1.47a23,23,0,0,0-2.8-2.4.49.49,0,0,0-.4.13v.14c.93,1.06,2,2.13,3.07,3.2,0,.4.13.67.13,1.07a20.47,20.47,0,0,0-1.87-1.6l-.13.13a17.69,17.69,0,0,1,2.14,2.27c.13.8.4,1.73.53,2.67a3.39,3.39,0,0,0-.8-.67h-.14a6.1,6.1,0,0,0,1.07,1.47c.14.13.14.27.14.53a16,16,0,0,1,.66,2.67c-.4-.53-.93-1.06-1.46-1.73-.27,0-.27.13-.14.4a15.79,15.79,0,0,0,1.87,2.27c.27,1.07.53,2,.67,2.93-.27-.26-.54-.4-.67-.53h-.27L37,54.91c.27,1.07.54,2.27.8,3.2a14.44,14.44,0,0,1-1.6-1.33c-.4,0-.4.13-.13.4a26.14,26.14,0,0,0,2,2.13,24.36,24.36,0,0,1,.67,2.94c-.67-.53-1.47-1.07-2.27-1.73-.27.26-.14.66.4,1.2A12.33,12.33,0,0,0,39,63.18a3.18,3.18,0,0,0,.27,1.07,44.24,44.24,0,0,0-3.74-2.4h-.13c-.13,0-.13,0-.27.13v.4a1.86,1.86,0,0,0,.8.27.3.3,0,0,0,.27.27,15.79,15.79,0,0,0,3.34,2.53,1.24,1.24,0,0,0,.13.67c-1.2-.67-2.27-1.33-3.47-2-.13-.13-.27-.13-.27,0a9.73,9.73,0,0,0,3.61,2.67v.4c.13,0,.13,0,.13.13a4.81,4.81,0,0,1-2,0,8.53,8.53,0,0,1-2-.8c-.14,0-.27-.13-.4-.26-.8-.67-1.61-1.47-2.41-2.27a18.3,18.3,0,0,1-2.8-5.88,16.91,16.91,0,0,0,1.33,2h.67a24.57,24.57,0,0,1-1.33-2.67A18.31,18.31,0,0,1,29.8,55,41.62,41.62,0,0,1,29,42.23h.14l.13-.14a3.37,3.37,0,0,1-.13-1.2,8,8,0,0,0,.26-1.73A27,27,0,0,1,31.67,34.35Zm-.8-1.87-.13.13h0a.48.48,0,0,1-.4.14c.13,0,.13,0,.13-.14A.5.5,0,0,0,30.87,32.48ZM58.24,21.13H58a3.58,3.58,0,0,1,.8-.66A2.93,2.93,0,0,0,58.24,21.13ZM57,59.71c.13.14.26.14.53.14a18.87,18.87,0,0,1,2.54.26,24.41,24.41,0,0,0-6.54,5.74,20.55,20.55,0,0,0-2.81.27A47.56,47.56,0,0,0,57,59.71Zm17.62,7.75a5.07,5.07,0,0,1,.93-.8c1.74.53,3.47.93,5.34,1.33a9.11,9.11,0,0,0,1.6.8,2.49,2.49,0,0,0,1.07.4,10.25,10.25,0,0,1-2.8-.53C78.66,68.26,76.66,67.86,74.66,67.46Zm.4-.94a3.91,3.91,0,0,0-.67.94,12.64,12.64,0,0,0-2.14-.27c.54-.4,1.21-.67,1.74-1.07C74.39,66.26,74.79,66.39,75.06,66.52ZM29.54,56.91v0Zm11.74,9.61c0,.14,0,.27.14.27-.14,0-.14,0-.27.13v-.4Zm1.61.94a.14.14,0,0,0-.14-.14v-.13H43A20.87,20.87,0,0,0,46,65.45v1.61a14,14,0,0,0-3.21.8h0A.47.47,0,0,1,42.89,67.46Zm-.54,1.06c-.13,0-.13,0-.13-.13s.27-.27.27-.4h2C43.82,68.12,43,68.39,42.35,68.52Zm-4.94.27a1.9,1.9,0,0,0-.8-.27,3.52,3.52,0,0,1,1.2.14v.27C37.68,68.93,37.55,68.79,37.41,68.79Zm9.61,0a.84.84,0,0,1,.54-.13c-.14.4-.27.8-.4,1.2A2.82,2.82,0,0,1,47,68.79Zm1.07-.27h.27a12.17,12.17,0,0,0-.94,4.68,10.7,10.7,0,0,0-.26-1.87A16.53,16.53,0,0,0,48.09,68.52Zm-2.27.54H46v1.07A2.82,2.82,0,0,0,45.82,69.06ZM48,73.46a.8.8,0,0,1-.13-.53v-.27c.53-1.47.93-2.93,1.46-4.4A5.85,5.85,0,0,0,50.76,68h.14a19.7,19.7,0,0,0-2.81,6.68c.27.53.54.53.67,0,0-.14,0-.14.13-.27A45,45,0,0,1,51.3,68c1.06-.13,2.13-.4,3.07-.53a15.68,15.68,0,0,0,.13,2.4l.13.27c-.13,0-.13.13,0,.13v.53a51.94,51.94,0,0,0,1.87,9.88,42,42,0,0,0,3.61,8.81,47.59,47.59,0,0,0-2.94,4.28l.13.13a11.9,11.9,0,0,0,2.94-4A44.44,44.44,0,0,0,64,95.36l.4-.4a30.8,30.8,0,0,1-3.07-5.34,40,40,0,0,0,4.27,5.47h.13a2.82,2.82,0,0,0,.14,1.07,3.52,3.52,0,0,0-.14,1.2c-.13.13-.13.27-.13.53h-.13a10.85,10.85,0,0,1-4,.94,4.51,4.51,0,0,0,3.34.67c-.13.26-.4.4-.4.66l-.14-.13a12.36,12.36,0,0,1-3.87-.53,6.37,6.37,0,0,1-4.8-4.14v.53a4.49,4.49,0,0,1-.67-1.07v-.13h0A32.48,32.48,0,0,1,52.36,90a59.11,59.11,0,0,1-4.8-16.16Zm-.67,2.81a.51.51,0,0,1-.13-.4c.13.53.26,1.07.4,1.6A3.72,3.72,0,0,1,47.29,76.27ZM45.82,75.2v.4a.5.5,0,0,0-.13-.4Zm1.87,5.74c-.13-.4-.27-.93-.4-1.33v-.14C47.42,80,47.56,80.54,47.69,80.94ZM56.77,99.5h0l.8.8c.13.26.13.26.4.4a5,5,0,0,0,.8.8A4.81,4.81,0,0,1,56.77,99.5Zm5.61,3.2h0Z"/><path class="g" d="M98.15,65.19a.45.45,0,0,1,.14-.27A8,8,0,0,0,101,61.58h-.14a26.36,26.36,0,0,0-3.2,3.61Z"/><path class="g" d="M102.29,62.92h-.13c-.8.93-1.6,1.73-2.41,2.67L99,66c.27,0,.67.13.94.13a.5.5,0,0,0,.27-.13A11.62,11.62,0,0,0,102.29,62.92Z"/><path class="g" d="M35.81,33.55c-.13.13-.27.13-.27.27h-.13v.26c1.74,1.07,3.47,2.14,5.07,3.21a1.17,1.17,0,0,0,.94,0c.13,0,.26-.14.4-.14V37C39.82,35.82,37.81,34.62,35.81,33.55Z"/><path class="g" d="M90.54,25.54a.13.13,0,0,0-.13.13c-.67,2.54-1.33,4.94-2.14,7.48.27,0,.41-.27.54-.4v-.14A27.25,27.25,0,0,0,90.54,25.54Z"/><path class="g" d="M108,36.35c-.13-.13-.27-.26-.4-.26h-.13c-.14.13-.27.26-.27.4v.4a.4.4,0,0,0-.13.26A33.07,33.07,0,0,0,105.63,42a.13.13,0,0,0,.13.13H106c0-.13,0-.13.13-.26A26.65,26.65,0,0,0,108,36.35Z"/><path class="g" d="M52.5,68.93h-.14a9.57,9.57,0,0,1-1.6,3.6v.27c-.53,1.73-1.07,3.33-1.47,5.07.14,0,.27,0,.27-.13a.44.44,0,0,0,.13-.27A33.8,33.8,0,0,0,52.5,68.93Z"/><path class="g" d="M53.16,71.33H53a15.89,15.89,0,0,0-2.27,7.21.42.42,0,0,0,.14-.27A32.73,32.73,0,0,0,53.16,71.33Z"/><path class="g" d="M54.5,80.94c-.13,0-.13,0-.27.13-.53,1.47-.93,2.81-1.47,4.14.14-.13.14-.26.27-.26A14.55,14.55,0,0,0,54.5,80.94Z"/><path class="g" d="M53.57,75.87c-.14,0-.27,0-.27.13a52.07,52.07,0,0,1-2,6.81h.13A12.14,12.14,0,0,0,53.57,75.87Z"/><path class="g" d="M56.37,85.21a10.81,10.81,0,0,0-1.47,3.61.67.67,0,0,1,.53-.27v-.4c.27-.94.67-2.14,1.07-3.2C56.37,85,56.37,85.08,56.37,85.21Z"/><path class="g" d="M57.84,86.81c-.27.67-.67,1.47-1.07,2.54a3.59,3.59,0,0,0-.27,2.54c.14,0,.14-.14.14-.27A7.91,7.91,0,0,0,57.84,86.81Z"/></svg>